<svg width="595" height="515" viewBox="0 0 595 515" fill="none" xmlns="http://www.w3.org/2000/svg">
<rect x="111.102" y="70.7273" width="144.2" height="9.5" rx="4.75" fill="#FFD943"/>
<rect x="58.832" y="128.155" width="116.164" height="9.5" rx="4.75" fill="#39C0F8"/>
<rect x="419.16" y="246.994" width="94.3252" height="9.5" rx="4.75" fill="#F8A899"/>
<path d="M432.623 138.853C435.659 130.012 440.123 123.373 446.016 118.935C452.079 114.556 460.131 110.194 470.171 105.849C477.53 102.675 483.067 99.8254 486.784 97.3006C490.728 94.6641 493.46 91.1359 494.977 86.7158C497.138 80.4256 496.282 74.6202 492.41 69.2996C488.767 63.8673 482.783 59.7215 474.457 56.8622C466.471 54.1197 458.75 53.3689 451.296 54.6099C444.069 55.7393 437.311 58.5496 431.019 63.0409L406.397 34.3446C417.27 25.9151 429.76 20.7969 443.868 18.9898C458.145 17.241 473.61 19.2259 490.262 24.9445C509.802 31.655 524.004 41.1886 532.868 53.5451C541.901 65.9599 543.878 79.5625 538.799 94.3528C536.405 101.323 533.114 107.035 528.926 111.488C524.907 115.999 520.556 119.542 515.873 122.115C511.419 124.576 505.741 127.282 498.838 130.233C490.625 133.685 484.402 136.869 480.171 139.787C475.998 142.535 472.977 146.629 471.109 152.07L432.623 138.853ZM430.013 209.511C423.046 207.119 417.943 202.896 414.703 196.842C411.692 190.676 411.295 184.363 413.514 177.903C415.732 171.443 419.865 166.876 425.912 164.201C432.018 161.356 438.639 161.159 445.776 163.61C452.912 166.061 458.015 170.284 461.085 176.28C464.214 182.106 464.668 188.248 462.45 194.709C460.231 201.169 455.955 205.877 449.621 208.833C443.515 211.678 436.979 211.904 430.013 209.511Z" fill="#7057D6"/>
<path d="M98.8832 260.309C100.644 255.827 103.097 252.513 106.241 250.365C109.473 248.252 113.733 246.195 119.021 244.193C122.897 242.731 125.824 241.394 127.801 240.181C129.899 238.915 131.388 237.162 132.268 234.921C133.521 231.732 133.203 228.722 131.314 225.891C129.546 223.007 126.538 220.731 122.291 219.063C118.218 217.462 114.239 216.894 110.355 217.358C106.591 217.77 103.034 219.058 99.6817 221.224L87.5572 205.864C93.3645 201.778 99.9375 199.436 107.276 198.837C114.702 198.272 122.661 199.658 131.155 202.995C141.122 206.91 148.266 212.155 152.587 218.728C156.995 225.334 157.726 232.387 154.78 239.885C153.392 243.419 151.566 246.284 149.303 248.479C147.127 250.708 144.799 252.43 142.321 253.645C139.963 254.808 136.967 256.069 133.332 257.426C129.007 259.011 125.719 260.505 123.467 261.908C121.249 263.226 119.598 265.263 118.514 268.021L98.8832 260.309ZM96.0149 296.641C92.4614 295.245 89.9114 292.95 88.3651 289.755C86.9392 286.509 86.8696 283.248 88.1564 279.973C89.4431 276.698 91.6798 274.442 94.8664 273.207C98.0869 271.885 101.517 271.94 105.157 273.37C108.798 274.8 111.348 277.095 112.807 280.255C114.301 283.329 114.404 286.504 113.118 289.779C111.831 293.055 109.517 295.379 106.176 296.753C102.955 298.074 99.5684 298.037 96.0149 296.641Z" fill="#7057D6"/>
<path d="M509.365 344.645C507.813 342.082 507.1 339.617 507.225 337.251C507.4 334.855 507.991 331.971 508.998 328.599C509.739 326.13 510.182 324.177 510.329 322.741C510.495 321.226 510.191 319.827 509.415 318.546C508.31 316.722 506.701 315.742 504.588 315.608C502.493 315.393 500.232 316.022 497.803 317.492C495.473 318.903 493.69 320.656 492.453 322.752C491.235 324.769 490.529 327.016 490.334 329.491L478.159 329.688C478.331 325.273 479.654 321.137 482.129 317.281C484.654 313.395 488.345 309.981 493.203 307.04C498.903 303.589 504.195 302.036 509.078 302.381C514.01 302.695 517.774 304.997 520.371 309.285C521.594 311.307 522.322 313.291 522.553 315.24C522.834 317.158 522.807 318.959 522.472 320.644C522.157 322.249 521.649 324.207 520.948 326.518C520.098 329.255 519.596 331.446 519.439 333.09C519.253 334.684 519.638 336.27 520.593 337.848L509.365 344.645ZM526.252 359.783C524.22 361.014 522.122 361.408 519.958 360.967C517.814 360.446 516.175 359.25 515.041 357.376C513.906 355.503 513.636 353.545 514.228 351.503C514.79 349.411 516.112 347.734 518.194 346.474C520.276 345.213 522.374 344.819 524.489 345.29C526.573 345.712 528.183 346.86 529.317 348.733C530.451 350.606 530.727 352.629 530.145 354.8C529.582 356.892 528.285 358.553 526.252 359.783Z" fill="#785AEF"/>
<path d="M594.277 452.568C594.277 452.764 473.542 452.932 324.649 452.932C175.701 452.932 54.9941 452.764 54.9941 452.568C54.9941 452.372 175.701 452.205 324.649 452.205C473.542 452.205 594.277 452.372 594.277 452.568Z" fill="#263238"/>
<path d="M267.395 113.684C214.604 103.702 208.873 151.516 209.001 165.279C209.13 179.027 213.618 191.293 218.239 204.239C222.861 217.184 219.498 234.692 215.202 247.761C210.177 263.051 194.763 276.898 199.936 292.143C203.998 304.114 219.608 310.212 221.327 322.734C222.687 332.642 214.579 341.122 211.481 350.637C205.634 368.579 218.029 386.871 229.719 401.679C234.542 407.798 240.407 414.453 248.181 414.685C258.934 415.01 265.524 403.464 270.538 393.938C284.419 367.601 304.853 344.746 329.49 328.029" fill="#251A51"/>
<path d="M233.631 184.873C233.658 184.945 232.453 185.53 230.342 185.999C228.246 186.468 225.218 186.691 221.958 186.132C218.698 185.558 215.925 184.301 214.115 183.146C212.291 181.992 211.357 181.025 211.415 180.968C211.489 180.869 212.541 181.679 214.382 182.69C216.223 183.701 218.926 184.827 222.086 185.385C225.245 185.928 228.171 185.804 230.25 185.479C232.33 185.154 233.59 184.743 233.631 184.873Z" fill="#9A8CEA"/>
<path d="M215.696 306.487C215.696 306.487 214.479 305.184 212.797 302.446C211.158 299.71 209.141 295.425 208.099 289.745C207.056 284.122 207.061 277.004 209.688 269.801C210.973 266.205 212.948 262.694 215.224 259.26C217.5 255.811 220.049 252.41 222.429 248.776C227.189 241.522 230.102 233.617 231.178 226.171C231.773 222.464 231.992 218.88 231.89 215.549C231.874 212.206 231.436 209.115 230.994 206.298C229.965 200.704 228.397 196.326 227.092 193.422C226.512 191.929 225.882 190.866 225.535 190.097C225.173 189.341 224.993 188.935 225.007 188.92C225.036 188.907 225.26 189.285 225.666 190.027C226.056 190.768 226.73 191.831 227.353 193.312C228.745 196.188 230.399 200.568 231.5 206.206C231.971 209.038 232.437 212.158 232.495 215.531C232.625 218.905 232.42 222.532 231.839 226.283C230.776 233.801 227.846 241.85 223.027 249.19C220.632 252.852 218.069 256.253 215.807 259.673C213.546 263.079 211.587 266.533 210.318 270.042C207.708 277.087 207.647 284.089 208.605 289.653C209.562 295.259 211.478 299.528 213.03 302.292C214.639 305.057 215.769 306.43 215.696 306.487Z" fill="#9A8CEA"/>
<path d="M391.565 257.13C391.565 257.13 418.116 257.577 435.534 296.617C448.455 325.581 485.036 424.064 478.54 451.448C477.082 457.59 472.993 471.225 463.141 471.246C446.361 471.28 434.641 470.161 434.641 470.161L414.023 420.174L394.525 349.009C394.525 349.024 362.64 263.357 391.565 257.13Z" fill="#00B4FF"/>
<path d="M421.219 468.393L415.323 423.409L391.565 257.144L358.605 254.11L296.367 265.396C296.367 265.396 259.666 270.714 240.664 283.809C240.664 283.809 244.707 374.684 244.864 384.139C245.207 404.822 257.767 423.564 270.421 440.204L273.761 444.583L271.566 470.569L421.219 468.393Z" fill="#00B4FF"/>
<path d="M269.332 271.41C269.332 271.41 243.146 276.646 225.991 298.057C212.147 315.331 147.68 392.228 147.68 392.228C147.68 392.228 114.905 409.874 108.555 428.543C102.206 447.211 108.045 463.952 122.127 464.189C136.209 464.426 172.743 455.402 172.743 455.402L244.806 375.593L246.169 389.564L263.546 319.05L269.332 271.41Z" fill="#00B4FF"/>
<path d="M387.926 328.668C387.955 328.668 388.051 328.958 388.214 329.537C388.39 330.188 388.621 331.028 388.906 332.07C389.529 334.372 390.369 337.542 391.413 341.406C393.556 349.281 396.613 360.154 400.056 372.128C403.513 384.06 406.644 394.862 408.944 402.782C410.06 406.634 410.958 409.79 411.611 412.078C411.895 413.12 412.126 413.96 412.302 414.611C412.451 415.19 412.518 415.508 412.503 415.508C412.474 415.522 412.364 415.217 412.158 414.652C411.938 414 411.664 413.174 411.321 412.16C410.611 409.885 409.626 406.756 408.423 402.932C406.02 395.125 402.76 384.321 399.318 372.332C395.875 360.358 392.89 349.457 390.878 341.542C389.879 337.577 389.083 334.364 388.602 332.137C388.375 331.082 388.188 330.228 388.041 329.563C387.964 328.985 387.912 328.667 387.926 328.668Z" fill="#251A51"/>
<path d="M361.985 418.461C361.998 418.519 361.348 418.652 360.149 418.863C359.557 418.968 358.82 419.085 357.969 419.157C357.118 419.229 356.136 419.357 355.056 419.368C352.894 419.475 350.317 419.403 347.47 419.11C344.624 418.774 341.523 418.188 338.356 417.256C335.189 416.295 332.271 415.079 329.714 413.811C327.173 412.5 324.963 411.152 323.213 409.869C322.316 409.263 321.563 408.63 320.895 408.1C320.213 407.57 319.673 407.086 319.234 406.66C318.355 405.839 317.888 405.37 317.917 405.327C318.02 405.213 319.962 407.047 323.523 409.441C325.288 410.653 327.499 411.929 330.027 413.197C332.57 414.421 335.46 415.594 338.584 416.54C341.708 417.457 344.766 418.056 347.568 418.42C350.371 418.741 352.918 418.885 355.065 418.834C359.329 418.777 361.958 418.317 361.985 418.461Z" fill="#251A51"/>
<path d="M250.797 329.383C250.825 329.398 250.763 329.671 250.639 330.202C250.485 330.805 250.284 331.579 250.038 332.512C249.762 333.501 249.439 334.735 249.113 336.156C248.786 337.592 248.356 339.198 248.008 341.022C247.227 344.64 246.506 348.98 245.905 353.825C245.363 358.672 244.956 364.026 244.89 369.658C244.867 375.292 245.165 380.657 245.631 385.521C246.154 390.371 246.801 394.734 247.517 398.348C247.832 400.169 248.223 401.789 248.53 403.236C248.823 404.667 249.133 405.897 249.39 406.896C249.619 407.836 249.808 408.603 249.956 409.211C250.076 409.746 250.129 410.02 250.1 410.034C250.071 410.048 249.975 409.773 249.811 409.251C249.634 408.658 249.402 407.89 249.115 406.963C248.815 405.978 248.461 404.747 248.125 403.315C247.775 401.883 247.341 400.262 246.997 398.44C246.209 394.81 245.505 390.447 244.938 385.581C244.43 380.703 244.103 375.308 244.141 369.646C244.208 363.984 244.63 358.602 245.216 353.727C245.859 348.868 246.638 344.515 247.492 340.898C247.868 339.075 248.327 337.469 248.697 336.048C249.052 334.613 249.432 333.409 249.752 332.421C250.055 331.504 250.298 330.744 250.481 330.156C250.663 329.641 250.768 329.369 250.797 329.383Z" fill="#251A51"/>
<path d="M397.191 263.348C397.261 263.479 394.955 264.42 391.789 266.802C388.639 269.155 384.726 273.153 382.171 278.614C379.616 284.075 379.061 289.657 379.269 293.579C379.461 297.531 380.213 299.907 380.069 299.933C380.026 299.947 379.805 299.367 379.506 298.281C379.208 297.195 378.903 295.605 378.721 293.599C378.356 289.616 378.841 283.889 381.471 278.285C384.086 272.681 388.172 268.629 391.465 266.364C393.112 265.21 394.537 264.428 395.553 263.955C396.583 263.511 397.163 263.305 397.191 263.348Z" fill="#251A51"/>
<path d="M392.356 347.69C392.356 347.69 392.16 348.22 391.583 349.133C391.021 350.031 390.005 351.311 388.357 352.522C386.724 353.748 384.443 354.906 381.609 355.55C378.775 356.222 375.389 356.266 371.8 355.586C368.196 354.92 364.431 353.56 360.483 351.937C356.535 350.329 352.375 348.458 347.772 347.271C345.478 346.684 343.065 346.283 340.588 346.271C338.125 346.272 335.598 346.633 333.123 347.37C328.158 348.813 323.488 351.602 318.914 354.652C314.34 357.73 309.992 361 305.356 363.472C300.763 365.96 295.864 367.779 290.992 368C288.571 368.117 286.17 367.832 283.963 367.219C281.741 366.59 279.696 365.677 277.812 364.68C274.03 362.642 270.829 360.268 267.824 358.243C261.902 354.095 256.411 351.769 252.385 351.341C248.361 350.841 246.171 351.712 246.159 351.567C246.16 351.553 246.29 351.512 246.55 351.444C246.811 351.377 247.202 351.253 247.736 351.176C248.79 350.992 250.377 350.846 252.419 351.053C256.518 351.396 262.14 353.695 268.119 357.816C271.139 359.812 274.355 362.158 278.109 364.137C279.98 365.12 281.996 365.989 284.146 366.588C286.311 367.172 288.611 367.441 290.975 367.322C295.703 367.099 300.486 365.321 305.021 362.847C309.6 360.388 313.903 357.147 318.506 354.054C323.095 350.976 327.824 348.159 332.918 346.689C335.451 345.939 338.05 345.579 340.585 345.579C343.134 345.607 345.604 346.024 347.941 346.625C352.616 347.856 356.79 349.757 360.723 351.379C364.642 353.016 368.363 354.39 371.895 355.083C375.426 355.791 378.724 355.789 381.5 355.159C384.29 354.572 386.541 353.471 388.174 352.303C389.821 351.149 390.835 349.927 391.44 349.058C392.074 348.175 392.328 347.675 392.356 347.69Z" fill="#FAFAFA"/>
<path d="M447.818 327.558C447.846 327.573 447.742 327.759 447.52 328.115C447.327 328.487 446.959 328.97 446.458 329.596C445.444 330.804 443.647 332.344 441.063 333.54C438.479 334.735 435.138 335.544 431.378 335.639C427.617 335.748 423.537 335.089 419.33 334.326C415.123 333.564 411.117 332.819 407.445 332.757C403.774 332.681 400.466 333.23 397.872 334.181C395.264 335.117 393.37 336.411 392.229 337.443C391.074 338.476 390.558 339.187 390.501 339.143C390.487 339.128 390.605 338.943 390.841 338.616C391.077 338.274 391.474 337.805 392.031 337.238C393.144 336.119 395.04 334.724 397.693 333.688C400.346 332.652 403.727 332.032 407.471 332.08C411.23 332.115 415.279 332.846 419.486 333.608C423.693 334.371 427.715 335.044 431.374 334.976C435.034 334.908 438.315 334.185 440.854 333.089C443.394 331.98 445.189 330.569 446.245 329.434C447.302 328.27 447.746 327.514 447.818 327.558Z" fill="#FAFAFA"/>
<path d="M459.066 363.296C459.095 363.311 459.005 363.511 458.811 363.897C458.618 364.268 458.363 364.854 457.92 365.524C457.09 366.908 455.704 368.83 453.539 370.782C452.471 371.772 451.202 372.731 449.76 373.658C448.305 374.555 446.678 375.392 444.866 376.068C441.271 377.405 436.94 378.038 432.528 377.445C428.116 376.91 424.104 375.661 420.417 374.806C416.745 373.908 413.353 373.448 410.515 373.515C407.662 373.554 405.406 374.106 403.914 374.658C402.421 375.209 401.664 375.686 401.622 375.628C401.608 375.599 401.783 375.472 402.146 375.247C402.496 375.008 403.063 374.715 403.803 374.396C405.283 373.744 407.584 373.091 410.495 372.996C413.392 372.872 416.856 373.276 420.572 374.146C424.288 374.972 428.301 376.178 432.627 376.712C436.938 377.289 441.111 376.696 444.632 375.43C446.385 374.782 447.998 373.988 449.438 373.133C450.85 372.249 452.118 371.334 453.186 370.387C455.349 368.521 456.777 366.686 457.678 365.362C458.578 364.051 458.995 363.251 459.066 363.296Z" fill="#FAFAFA"/>
<path d="M249.469 403.943C249.399 403.826 251.921 403.739 255.15 401.027C256.77 399.729 258.487 397.841 260.554 395.715C262.635 393.588 265.307 391.429 268.565 389.553C271.851 387.735 275.751 386.187 280.181 385.685C282.389 385.42 284.694 385.415 287.05 385.772C289.406 386.114 291.741 386.874 294.015 387.849C298.605 389.799 302.964 392.668 307.795 394.911C310.21 396.018 312.772 396.955 315.474 397.346C316.824 397.556 318.192 397.593 319.561 397.53C320.931 397.423 322.303 397.173 323.663 396.807C329.104 395.313 333.836 392.266 338.672 389.913C343.509 387.516 348.421 385.725 353.224 384.48C362.83 381.962 371.84 381.48 379.306 381.995C386.787 382.524 392.711 383.964 396.695 385.184C398.701 385.765 400.218 386.353 401.248 386.759C401.72 386.955 402.107 387.091 402.407 387.211C402.665 387.316 402.793 387.376 402.793 387.39C402.793 387.405 402.65 387.359 402.377 387.283C402.077 387.177 401.675 387.055 401.188 386.902C400.143 386.553 398.625 386.009 396.603 385.471C392.604 384.337 386.693 382.998 379.269 382.527C371.859 382.085 362.906 382.612 353.4 385.146C348.655 386.406 343.786 388.183 339.007 390.567C334.214 392.907 329.467 395.982 323.867 397.53C322.478 397.896 321.048 398.16 319.62 398.266C318.193 398.343 316.754 398.304 315.36 398.079C312.559 397.671 309.939 396.705 307.481 395.583C302.579 393.296 298.235 390.427 293.73 388.493C291.485 387.518 289.208 386.774 286.938 386.418C284.654 386.063 282.408 386.054 280.243 386.291C275.914 386.766 272.073 388.243 268.817 390.004C265.589 391.808 262.932 393.91 260.837 395.993C258.743 398.076 256.983 399.963 255.319 401.246C253.67 402.544 252.174 403.268 251.103 403.596C250.06 403.938 249.469 403.943 249.469 403.943Z" fill="#FAFAFA"/>
<path d="M232.309 388.121C232.25 388.221 231.69 387.217 229.968 386.842C229.121 386.669 228.041 386.666 226.8 386.847C225.558 386.999 224.156 387.321 222.554 387.524C220.952 387.699 219.11 387.582 217.292 386.96C215.473 386.339 213.705 385.257 212.087 383.861C210.469 382.465 209.029 380.711 207.766 378.759C206.531 376.793 205.546 374.586 204.662 372.324C202.895 367.769 201.588 363.324 199.604 359.645C197.723 355.924 194.974 353.212 192.309 351.568C190.983 350.739 189.653 350.198 188.463 349.861C187.258 349.567 186.18 349.448 185.301 349.476C183.543 349.533 182.6 349.906 182.587 349.819C182.573 349.79 182.805 349.708 183.254 349.557C183.703 349.391 184.383 349.259 185.291 349.188C186.185 349.116 187.308 349.193 188.57 349.459C189.818 349.768 191.192 350.296 192.59 351.112C195.371 352.744 198.248 355.515 200.215 359.324C202.269 363.062 203.619 367.551 205.358 372.047C206.242 374.296 207.199 376.459 208.392 378.366C209.613 380.26 210.995 381.969 212.542 383.335C214.089 384.702 215.771 385.753 217.503 386.373C219.221 386.993 220.947 387.137 222.505 387.005C225.608 386.639 228.239 386.035 230.045 386.57C230.934 386.801 231.532 387.229 231.872 387.552C232.183 387.903 232.323 388.107 232.309 388.121Z" fill="#FAFAFA"/>
<path d="M246.704 345.9C246.717 345.929 246.543 345.998 246.225 346.108C245.906 346.246 245.414 346.368 244.764 346.487C243.478 346.724 241.505 346.691 239.256 345.961C237.007 345.232 234.54 343.793 232.257 341.679C229.973 339.566 227.975 336.795 225.891 333.95C223.807 331.105 221.764 328.433 219.449 326.492C217.134 324.566 214.634 323.342 212.439 322.815C210.23 322.274 208.341 322.415 207.112 322.726C205.868 323.036 205.243 323.386 205.201 323.313C205.187 323.284 205.346 323.2 205.637 323.032C205.928 322.85 206.407 322.656 207.03 322.45C208.275 322.039 210.238 321.813 212.548 322.313C214.859 322.798 217.474 324.01 219.89 325.981C222.305 327.967 224.405 330.683 226.489 333.527C228.572 336.387 230.528 339.114 232.726 341.197C234.909 343.266 237.275 344.718 239.423 345.474C241.57 346.245 243.455 346.349 244.711 346.212C245.995 346.075 246.676 345.813 246.704 345.9Z" fill="#FAFAFA"/>
<path d="M317.932 137.59C301.836 99.5524 252.301 121.153 252.301 121.153C228.976 129.276 225.253 155.308 230.31 173.189C235.924 193.053 243.555 217.1 250.958 230.784C265.848 258.312 289.495 254.157 289.495 254.157L297.044 273.708C303.655 290.822 322.971 299.245 339.995 292.428C356.497 285.833 364.788 267.327 358.747 250.612L317.932 137.59Z" fill="#F9B9B4"/>
<path d="M289.51 254.171C289.51 254.171 309.567 248.529 324.887 230.012C324.887 230.012 312.662 248.639 289.648 254.519L289.51 254.171Z" fill="#251A51"/>
<path d="M391.563 257.13C391.564 257.058 389.172 226.326 365.857 204.781C342.527 183.206 374.76 175.565 354.641 147.286C348 137.953 340.582 129.442 330.949 123.256C329.239 122.161 327.648 120.866 326.159 119.516C322.201 115.904 318.772 111.697 314.462 108.512C311.218 106.123 307.273 104.356 303.328 104.232C300.955 103.212 298.462 102.421 295.833 101.987C284.315 100.05 272.79 104.51 261.943 108.866C251.458 113.084 223.485 111.561 231.858 140.333C233.781 135.596 241.004 131.784 246.54 136.56C250.402 139.896 252.34 142.811 253.192 147.84C254.332 154.53 256.166 161.953 264.215 163.803C266.166 164.254 268.226 164.231 270.206 163.818C276.97 162.419 282.556 152.311 295.388 154.948C295.388 154.948 307.849 159.049 308.451 166.94C309.052 174.832 304.443 189.395 312.043 196.497C319.643 203.599 320.943 203.419 320.625 209.437C320.559 210.819 320.528 211.769 320.445 212.459C319.305 221.965 316.966 263.337 359.302 257.019L373.514 256.394L391.563 257.13Z" fill="#251A51"/>
<path d="M305.433 108.46C307.437 99.8052 311.695 91.534 318.376 85.6956C325.056 79.8572 334.298 76.7132 343.028 78.3156C351.758 79.918 359.595 86.6638 361.508 95.3416C363.422 104.005 358.588 113.952 350.241 116.953C343.923 119.224 336.966 117.551 330.259 117.279C323.552 117.008 315.654 119.036 313.186 125.277" fill="#251A51"/>
<path d="M332.168 115.135C332.024 113.375 330.55 111.996 328.934 111.277C327.333 110.558 325.551 110.326 323.875 109.779C321.426 108.989 319.204 107.525 317.522 105.595C316.109 103.986 315.075 102.066 313.692 100.429C312.308 98.7921 310.416 97.3914 308.27 97.3552C306.571 97.3266 304.885 98.2348 303.968 99.6603C303.051 101.086 302.947 103 303.684 104.54C309.024 109.054 314.43 113.9 320.536 117.317C322.677 118.506 324.961 119.726 327.397 119.623C329.832 119.534 332.371 117.574 332.168 115.135Z" fill="#407BFF"/>
<path d="M407.871 262.117C407.842 262.116 407.892 261.699 407.992 260.923C408.12 260.147 408.212 258.995 408.323 257.513C408.502 254.562 408.417 250.209 407.193 245.059C405.984 239.923 403.521 233.945 399.104 228.511C394.732 223.019 388.355 218.517 381.574 214.08C374.778 209.657 368.271 205.239 363.579 199.872C361.219 197.224 359.322 194.368 358.032 191.479C356.726 188.589 356.099 185.654 355.928 182.971C355.544 177.561 357.143 173.251 358.755 170.756C359.583 169.502 360.361 168.622 360.932 168.084C361.517 167.546 361.824 167.278 361.838 167.307C361.923 167.38 360.567 168.395 358.997 170.919C357.472 173.415 356.004 177.641 356.447 182.936C356.648 185.562 357.291 188.411 358.583 191.229C359.861 194.046 361.744 196.829 364.077 199.419C368.727 204.67 375.178 209.044 381.973 213.467C388.755 217.89 395.202 222.465 399.63 228.087C404.088 233.638 406.534 239.731 407.699 244.952C408.879 250.188 408.877 254.583 408.611 257.547C408.456 259.028 408.307 260.179 408.135 260.954C407.979 261.715 407.9 262.117 407.871 262.117Z" fill="#251A51"/>
<path d="M319.101 116.255C319.129 116.27 318.95 116.642 318.593 117.327C318.25 118.027 317.7 119.027 316.93 120.296C315.389 122.821 312.981 126.397 309.33 130.24C305.722 134.113 300.87 138.253 294.777 141.753C291.723 143.474 288.411 145.133 284.734 146.252C281.086 147.344 277.013 148.01 272.952 147.149C270.943 146.712 269.027 145.872 267.405 144.678C265.783 143.498 264.455 141.991 263.343 140.416C261.15 137.238 259.724 133.828 258.09 130.775C257.281 129.248 256.412 127.793 255.455 126.465C254.513 125.124 253.379 124.024 252.229 123.025C249.856 121.097 247.212 119.871 244.718 119.166C239.672 117.755 235.283 118.388 232.532 119.278C229.737 120.182 228.395 121.153 228.339 121.066C228.325 121.051 228.66 120.826 229.329 120.42C229.65 120.209 230.086 119.971 230.608 119.75C231.116 119.499 231.726 119.221 232.435 119.002C235.203 118.012 239.666 117.28 244.857 118.65C247.423 119.341 250.153 120.569 252.626 122.541C253.819 123.57 255.009 124.714 255.98 126.071C256.98 127.413 257.863 128.898 258.686 130.439C260.363 133.522 261.789 136.903 263.941 139.98C265.01 141.511 266.282 142.944 267.833 144.066C269.369 145.201 271.171 145.995 273.094 146.416C276.954 147.245 280.925 146.62 284.501 145.557C288.091 144.465 291.388 142.849 294.412 141.156C300.461 137.742 305.297 133.674 308.918 129.887C312.583 126.116 315.033 122.599 316.644 120.147C317.443 118.907 318.035 117.937 318.421 117.267C318.865 116.582 319.086 116.24 319.101 116.255Z" fill="#9A8CEA"/>
<path d="M323.226 119.207C323.283 119.208 323.372 119.915 323.494 121.214C323.541 121.863 323.528 122.656 323.541 123.592C323.482 124.514 323.45 125.579 323.258 126.729C322.69 131.33 320.523 137.72 315.836 143.189C313.515 145.916 310.857 148.105 308.18 149.688C305.517 151.286 302.922 152.28 300.776 153.166C298.63 154.023 296.904 154.743 295.728 155.285C294.552 155.827 293.913 156.148 293.885 156.09C293.857 156.046 294.454 155.638 295.603 155.024C296.751 154.409 298.45 153.602 300.568 152.672C302.672 151.728 305.239 150.69 307.815 149.091C310.406 147.521 312.991 145.36 315.254 142.703C319.838 137.377 322.031 131.161 322.726 126.662C323.508 122.093 323.053 119.204 323.226 119.207Z" fill="#9A8CEA"/>
<path d="M368.166 254.2C368.137 254.199 368.159 253.782 368.201 252.975C368.257 252.184 368.335 251.004 368.332 249.491C368.339 246.465 368.068 242.051 366.73 236.812C366.011 234.207 365.065 231.395 363.745 228.506C362.396 225.63 360.689 222.676 358.562 219.816C356.436 216.956 353.861 214.204 350.892 211.718C347.91 209.233 344.52 206.986 341.339 204.295C339.748 202.943 338.246 201.491 336.962 199.899C335.664 198.306 334.613 196.56 333.809 194.73C332.228 191.073 331.601 187.258 331.23 183.678C330.872 180.084 330.743 176.667 330.465 173.493C330.216 170.318 329.675 167.399 328.926 164.807C327.444 159.594 324.827 155.905 322.512 153.993C320.167 152.094 318.475 151.648 318.52 151.548C318.535 151.519 318.921 151.67 319.68 151.956C320.424 152.272 321.48 152.837 322.703 153.765C325.12 155.65 327.88 159.386 329.447 164.657C330.238 167.278 330.822 170.242 331.1 173.431C331.406 176.621 331.55 180.038 331.922 183.604C332.323 187.155 332.937 190.883 334.491 194.425C336.015 197.981 338.685 201.066 341.839 203.699C344.977 206.359 348.352 208.607 351.378 211.136C354.388 213.665 357.005 216.476 359.146 219.394C361.286 222.311 362.992 225.308 364.34 228.227C365.644 231.174 366.576 234.014 367.28 236.663C368.573 241.987 368.772 246.443 368.663 249.482C368.637 251.009 368.502 252.188 368.403 252.979C368.245 253.783 368.18 254.2 368.166 254.2Z" fill="#9A8CEA"/>
<path d="M359.996 90.2583C359.907 90.4297 357.68 88.4037 353.191 87.2186C348.79 86.0061 342.02 86.065 335.729 89.2875C329.438 92.5388 325.261 97.6846 322.79 101.562C321.547 103.515 320.655 105.172 320.074 106.344C319.493 107.501 319.179 108.158 319.122 108.129C319.079 108.114 319.307 107.426 319.802 106.209C320.312 105.008 321.133 103.292 322.334 101.281C324.705 97.3006 328.914 91.9825 335.38 88.6332C341.86 85.2986 348.844 85.3442 353.315 86.7163C355.579 87.3885 357.293 88.2675 358.375 89.0062C358.945 89.3472 359.314 89.6992 359.599 89.9058C359.883 90.1123 360.011 90.2297 359.996 90.2583Z" fill="#9A8CEA"/>
<path d="M357.279 107.864C357.205 107.978 355.598 106.74 352.639 105.423C349.723 104.105 345.337 102.836 340.422 103.027C335.508 103.218 331.232 104.803 328.426 106.355C325.592 107.892 324.085 109.264 324.001 109.148C323.973 109.118 324.31 108.735 325.012 108.142C325.699 107.534 326.764 106.73 328.175 105.889C330.969 104.193 335.348 102.466 340.406 102.277C345.465 102.088 349.95 103.461 352.878 104.937C354.349 105.668 355.474 106.393 356.2 106.938C356.939 107.483 357.308 107.821 357.279 107.864Z" fill="#9A8CEA"/>
<path d="M256.849 511.272L129.616 498.365L239.773 468.189L355.076 470.319L256.849 511.272Z" fill="white"/>
<path d="M256.85 511.272C256.85 511.272 257.46 510.98 258.635 510.481C259.839 509.968 261.58 509.234 263.843 508.263C268.442 506.323 275.143 503.497 283.687 499.894C300.833 492.705 325.347 482.441 354.952 470.043L355.071 470.65C321.897 470.048 282.33 469.338 239.768 468.578L239.869 468.565C236.772 469.421 233.43 470.33 230.073 471.253C193.783 481.175 159.519 490.555 129.712 498.698L129.651 498.048C167.465 501.942 199.255 505.215 221.598 507.523C232.755 508.69 241.554 509.617 247.592 510.252C250.582 510.576 252.897 510.831 254.464 511.001C255.226 511.086 255.815 511.154 256.232 511.204C256.65 511.225 256.85 511.272 256.85 511.272C256.85 511.272 256.649 511.269 256.261 511.233C255.843 511.197 255.268 511.145 254.506 511.074C252.924 510.932 250.623 510.706 247.632 510.425C241.593 509.833 232.793 508.979 221.635 507.883C199.262 505.648 167.442 502.46 129.583 498.681L127.785 498.507L129.522 498.032C159.329 489.86 193.579 480.466 229.855 470.515C233.212 469.592 236.554 468.682 239.651 467.827L239.709 467.813L239.766 467.814C282.328 468.618 321.908 469.371 355.068 470.002L356.579 470.027L355.187 470.609C325.511 482.919 300.941 493.11 283.754 500.241C275.182 503.771 268.467 506.54 263.855 508.436C261.578 509.363 259.823 510.083 258.619 510.567C257.459 511.052 256.85 511.272 256.85 511.272Z" fill="#263238"/>
<path d="M129.616 498.365L7.20658 487.239L124.468 467.097L235.238 468.963L129.616 498.365Z" fill="#E0E0E0"/>
<path d="M129.617 498.365C129.617 498.365 130.269 498.145 131.542 497.778C132.83 497.41 134.712 496.866 137.158 496.158C142.107 494.757 149.329 492.717 158.533 490.12C176.983 484.955 203.364 477.561 235.143 468.658L235.219 469.279C203.167 468.754 165.197 468.129 124.448 467.471L124.52 467.472C121.169 468.05 117.572 468.666 113.961 469.283C75.1772 475.935 38.6757 482.193 7.25887 487.571L7.22659 486.922C43.7388 490.29 74.3259 493.125 95.7961 495.1C106.509 496.117 114.965 496.908 120.745 497.452C123.621 497.731 125.821 497.955 127.331 498.096C128.064 498.18 128.625 498.233 129.028 498.268C129.43 498.318 129.617 498.365 129.617 498.365C129.617 498.365 129.429 498.362 129.041 498.341C128.638 498.305 128.077 498.267 127.358 498.211C125.848 498.085 123.647 497.904 120.771 497.668C114.989 497.167 106.547 496.434 95.8184 495.49C74.3184 493.571 43.7151 490.837 7.17223 487.584L4.6412 487.354L7.1402 486.921C38.5431 481.513 75.0451 475.226 113.829 468.546C117.455 467.929 121.052 467.313 124.388 466.735L124.417 466.735L124.446 466.736C165.194 467.437 203.163 468.105 235.215 468.66L237.418 468.697L235.291 469.281C203.456 478.081 177.048 485.389 158.555 490.495C149.338 493.02 142.103 495.002 137.154 496.359C134.695 497.024 132.814 497.525 131.526 497.878C130.282 498.203 129.617 498.365 129.617 498.365Z" fill="#263238"/>
<path d="M129.616 498.365C129.616 498.365 127.199 471.681 105.06 473.499C82.9211 475.316 53.3552 489.659 29.2516 489.253L3.41095 486.8L58.7786 476.364C58.7786 476.364 196.213 449.732 196.198 450.639C196.182 451.547 242.431 441.231 240.329 468.515L129.616 498.365Z" fill="white"/>
<path d="M129.617 498.365C129.617 498.365 130.326 498.146 131.658 497.779C133.018 497.399 135 496.856 137.576 496.15C142.756 494.739 150.338 492.662 160.004 490.015C179.32 484.764 206.941 477.261 240.235 468.211L240 468.495C240.17 466.048 240.012 463.495 239.144 461.146C238.305 458.784 236.757 456.668 234.738 455.092C230.644 451.911 225.235 450.667 219.872 450.116C214.465 449.592 208.873 449.815 203.247 450.354C201.833 450.503 200.418 450.667 199.004 450.816C198.297 450.891 197.59 450.994 196.855 451.039C196.667 451.05 196.508 451.077 196.235 451.043L196.106 451.012C196.077 451.012 195.935 450.923 195.894 450.807C195.867 450.648 195.796 450.604 195.921 450.865C196.135 451.027 196.107 450.955 196.092 450.969C196.107 450.969 196.064 450.968 196.049 450.968L195.804 450.978L194.75 451.119C191.906 451.547 189.045 452.06 186.156 452.559C163.071 456.724 138.578 461.426 113.206 466.258C93.4818 470.047 74.3072 473.73 55.9274 477.253C37.5344 480.704 19.9648 484.01 3.46431 487.118L3.43228 486.455C12.4052 487.312 21.0187 488.134 29.2727 488.922L29.2439 488.921C38.0003 488.954 46.3361 487.451 54.0875 485.579C61.8534 483.707 69.12 481.553 75.9653 479.608C82.8106 477.662 89.2494 475.912 95.3043 474.717C98.3246 474.12 101.256 473.665 104.069 473.395C106.883 473.082 109.632 473.186 112.128 473.776C117.208 474.913 120.913 478.117 123.28 481.255C125.674 484.451 126.961 487.614 127.839 490.193C128.703 492.787 129.115 494.84 129.35 496.227C129.6 497.629 129.617 498.365 129.617 498.365C129.617 498.365 129.577 498.177 129.525 497.83C129.473 497.483 129.396 496.949 129.249 496.255C128.984 494.881 128.544 492.828 127.651 490.262C126.743 487.711 125.427 484.576 123.046 481.438C120.693 478.344 117.03 475.227 112.036 474.135C109.568 473.56 106.876 473.471 104.091 473.799C101.292 474.083 98.3895 474.539 95.3834 475.151C89.3571 476.361 82.9466 478.14 76.101 480.1C69.2555 482.059 61.9882 484.257 54.2077 486.143C46.4413 488.044 38.0762 489.574 29.2186 489.569L29.2042 489.569L29.1898 489.569C20.9355 488.796 12.3218 487.988 3.34864 487.145L1.00503 486.904L3.34589 486.453C19.8466 483.331 37.4164 480.01 55.8097 476.545C74.1897 473.007 93.3644 469.324 113.074 465.521C138.447 460.689 162.924 456.001 186.039 451.851C188.928 451.338 191.788 450.839 194.662 450.411C197.557 450.388 200.346 449.859 203.201 449.633C208.856 449.094 214.477 448.872 219.955 449.411C225.376 449.978 230.885 451.238 235.15 454.552C237.269 456.187 238.887 458.433 239.753 460.897C240.648 463.376 240.805 466.001 240.633 468.52L240.615 468.736L240.398 468.79C206.977 477.723 179.256 485.137 159.869 490.33C150.219 492.89 142.652 494.91 137.473 496.278C134.912 496.955 132.945 497.47 131.599 497.822C130.282 498.203 129.617 498.365 129.617 498.365Z" fill="#263238"/>
<path d="M254.293 502.325C251.974 502.286 170.168 494.482 170.168 494.482L254.293 502.325Z" fill="white"/>
<path d="M170.169 494.466C170.169 494.437 170.471 494.442 171.033 494.466C171.68 494.506 172.486 494.563 173.493 494.623C175.722 494.805 178.786 495.044 182.511 495.351C190.22 496.043 200.689 496.983 212.252 498.014C223.827 499.131 234.281 500.157 241.988 500.892C245.712 501.286 248.774 501.612 251.003 501.851C251.995 501.969 252.814 502.069 253.446 502.152C254.006 502.233 254.294 502.281 254.293 502.31C254.293 502.339 254.005 502.334 253.443 502.31C252.796 502.27 251.99 502.213 250.998 502.153C248.768 501.972 245.719 501.733 241.979 501.425C234.271 500.733 223.802 499.793 212.225 498.763C200.649 497.645 190.181 496.619 182.488 495.884C178.764 495.49 175.702 495.165 173.488 494.926C172.496 494.808 171.677 494.708 171.044 494.625C170.455 494.543 170.168 494.495 170.169 494.466Z" fill="#263238"/>
<path d="M267.922 496.98C265.603 496.941 183.797 489.136 183.797 489.136L267.922 496.98Z" fill="white"/>
<path d="M183.783 489.133C183.783 489.105 184.086 489.11 184.647 489.133C185.294 489.173 186.1 489.23 187.107 489.29C189.337 489.472 192.4 489.711 196.126 490.018C203.834 490.71 214.303 491.65 225.866 492.681C237.441 493.798 247.895 494.824 255.602 495.559C259.326 495.954 262.389 496.279 264.617 496.518C265.609 496.636 266.428 496.736 267.06 496.819C267.621 496.9 267.908 496.948 267.907 496.977C267.907 497.006 267.619 497.001 267.058 496.977C266.41 496.937 265.605 496.881 264.612 496.821C262.382 496.639 259.333 496.4 255.594 496.092C247.885 495.401 237.416 494.46 225.839 493.43C214.263 492.313 203.795 491.286 196.102 490.551C192.378 490.157 189.316 489.832 187.102 489.593C186.11 489.475 185.291 489.375 184.659 489.292C184.084 489.21 183.783 489.148 183.783 489.133Z" fill="#263238"/>
<path d="M289.499 490.916C287.181 490.877 201.45 484.303 201.45 484.303L289.499 490.916Z" fill="white"/>
<path d="M201.451 484.302C201.451 484.273 201.768 484.278 202.358 484.288C203.02 484.314 203.884 484.357 204.934 484.403C207.265 484.544 210.459 484.742 214.373 484.995C222.429 485.577 233.391 486.353 245.503 487.22C257.614 488.173 268.575 489.035 276.63 489.66C280.542 490 283.734 490.284 286.064 490.482C287.114 490.586 287.962 490.673 288.624 490.741C289.213 490.809 289.515 490.857 289.514 490.886C289.514 490.915 289.211 490.91 288.621 490.9C287.959 490.874 287.11 490.831 286.059 490.785C283.728 490.644 280.534 490.447 276.621 490.193C268.565 489.611 257.603 488.835 245.476 487.968C233.365 487.015 222.404 486.153 214.349 485.528C210.438 485.188 207.245 484.903 204.915 484.706C203.865 484.602 203.017 484.515 202.356 484.446C201.766 484.379 201.45 484.33 201.451 484.302Z" fill="#263238"/>
<path d="M308.091 484.197C305.773 484.158 219.117 479.485 219.117 479.485L308.091 484.197Z" fill="white"/>
<path d="M219.116 479.469C219.117 479.44 219.434 479.431 220.024 479.441C220.701 479.453 221.565 479.482 222.616 479.514C224.962 479.611 228.2 479.737 232.158 479.905C240.289 480.301 251.37 480.863 263.617 481.458C275.862 482.154 286.927 482.773 295.071 483.242C299.028 483.496 302.25 483.708 304.596 483.863C305.66 483.953 306.509 484.011 307.185 484.065C307.774 484.118 308.09 484.167 308.09 484.196C308.089 484.225 307.772 484.234 307.182 484.224C306.505 484.212 305.656 484.184 304.591 484.151C302.245 484.054 299.006 483.927 295.048 483.76C286.917 483.364 275.836 482.802 263.59 482.207C251.344 481.511 240.279 480.892 232.135 480.423C228.178 480.169 224.956 479.957 222.611 479.802C221.546 479.712 220.698 479.654 220.022 479.6C219.432 479.547 219.116 479.498 219.116 479.469Z" fill="#263238"/>
<path d="M324.682 476.477C322.364 476.438 236.783 474.636 236.783 474.636L324.682 476.477Z" fill="white"/>
<path d="M236.799 474.652C236.802 474.45 256.487 474.695 280.747 475.19C305.022 475.7 324.701 476.277 324.698 476.478C324.694 476.68 305.01 476.435 280.735 475.939C256.46 475.43 236.781 474.853 236.799 474.652Z" fill="#263238"/>
<path d="M109.68 466.905C109.666 466.862 110.275 466.656 111.417 466.416C112.544 466.175 114.219 465.944 116.307 465.936C120.442 465.876 126.358 466.955 131.728 470.49C137.098 474.024 140.427 479.037 142.005 482.867C142.808 484.783 143.27 486.419 143.496 487.547C143.722 488.689 143.783 489.324 143.739 489.338C143.58 489.378 143.235 486.807 141.526 483.09C139.86 479.387 136.542 474.577 131.328 471.131C126.115 467.701 120.373 466.552 116.327 466.484C112.21 466.357 109.706 467.064 109.68 466.905Z" fill="#263238"/>
<path d="M123.204 463.56C123.19 463.516 123.798 463.31 124.94 463.07C126.068 462.83 127.742 462.599 129.831 462.59C133.965 462.53 139.881 463.61 145.252 467.144C150.622 470.678 153.951 475.691 155.528 479.522C156.331 481.437 156.794 483.074 157.019 484.201C157.245 485.343 157.306 485.978 157.263 485.992C157.104 486.033 156.758 483.462 155.049 479.744C153.383 476.042 150.065 471.231 144.852 467.786C139.638 464.355 133.896 463.207 129.85 463.138C125.733 463.026 123.23 463.718 123.204 463.56Z" fill="#263238"/>
<path d="M137.197 461.316C137.184 461.273 137.792 461.067 138.905 460.812C140.019 460.557 141.651 460.268 143.699 460.115C145.746 459.976 148.208 460.032 150.893 460.567C153.562 461.117 156.424 462.202 159.03 463.975C164.285 467.522 167.543 472.476 169.078 476.248C169.867 478.149 170.316 479.756 170.542 480.869C170.768 481.997 170.815 482.618 170.771 482.631C170.627 482.672 170.28 480.13 168.6 476.456C166.962 472.798 163.715 468.031 158.617 464.588C153.534 461.073 147.697 460.47 143.733 460.62C139.683 460.811 137.224 461.461 137.197 461.316Z" fill="#263238"/>
<path d="M152.121 458.499C152.107 458.456 152.687 458.264 153.757 457.994C154.827 457.723 156.403 457.39 158.379 457.192C160.356 456.995 162.762 456.964 165.359 457.526C167.957 458.074 170.673 459.287 173.135 461.072C178.13 464.629 181.203 469.465 182.682 473.135C183.429 474.978 183.849 476.541 184.076 477.625C184.288 478.71 184.335 479.33 184.292 479.329C184.147 479.37 183.8 476.915 182.203 473.343C180.636 469.801 177.574 465.138 172.707 461.685C170.302 459.944 167.7 458.762 165.204 458.201C162.707 457.626 160.36 457.586 158.428 457.726C154.535 458.007 152.147 458.644 152.121 458.499Z" fill="#263238"/>
<path d="M167.47 456.351C167.456 456.308 168.021 456.116 169.034 455.83C170.047 455.544 171.523 455.137 173.387 454.779C175.237 454.422 177.56 454.129 180.087 454.633C182.599 455.151 185.14 456.505 187.429 458.272C192.093 461.838 194.938 466.497 196.319 470.022C197.024 471.791 197.402 473.282 197.615 474.323C197.813 475.364 197.861 475.955 197.818 475.955C197.673 475.981 197.338 473.655 195.84 470.215C194.357 466.804 191.523 462.318 186.972 458.856C184.726 457.117 182.314 455.809 179.946 455.293C177.564 454.778 175.328 454.999 173.479 455.285C169.781 455.943 167.496 456.481 167.47 456.351Z" fill="#263238"/>
<path d="M161.157 415.654C165.033 416.397 168.995 415.455 172.944 415.334C176.878 415.213 181.339 416.282 183.312 419.702C184.796 422.277 184.452 425.585 183.168 428.258C181.885 430.931 179.759 433.114 177.693 435.241" fill="#F9B9B4"/>
<path d="M188.247 446.413L128.473 367.077C128.008 366.464 127.131 366.334 126.519 366.8L121.471 370.605C120.858 371.07 120.728 371.947 121.193 372.56L180.968 451.881C181.433 452.494 182.31 452.624 182.922 452.159L187.97 448.353C188.582 447.903 188.712 447.026 188.247 446.413Z" fill="#263238"/>
<path d="M127.019 368.84L122.483 362.813C122.271 362.535 121.883 362.486 121.606 362.683L119.345 364.388C119.068 364.6 119.018 364.988 119.215 365.265L123.751 371.292C123.963 371.57 124.351 371.619 124.628 371.422L126.889 369.717C127.18 369.506 127.23 369.117 127.019 368.84Z" fill="#263238"/>
<path d="M179.633 449.971L189.539 457.862L190.589 457.072L187.831 446.406L179.633 449.971Z" fill="#263238"/>
<path d="M141.498 403.58C141.44 403.579 141.397 403.549 141.355 403.505L122.421 378.388C120.11 375.323 120.352 371.235 122.949 369.276L123.897 368.572C123.97 368.515 124.085 368.532 124.155 368.605C124.212 368.678 124.195 368.793 124.122 368.864L123.189 369.568C120.752 371.415 120.543 375.273 122.741 378.177L141.675 403.295C141.732 403.368 141.715 403.483 141.642 403.553C141.57 403.567 141.527 403.58 141.498 403.58Z" fill="#263238"/>
<path d="M152.462 407.727C152.462 407.727 146.275 402.277 141.541 402.831C136.822 403.386 120.827 420.09 120.024 430.134C119.221 440.178 115.046 446.088 122.205 450.286C129.364 454.499 140.556 461.287 148.138 459.21C148.138 459.21 161.403 460.947 162.96 457.414C162.96 457.414 174.56 461.341 175.573 453.39C175.573 453.39 183.961 452.206 183.529 447.083C183.111 441.961 152.462 407.727 152.462 407.727Z" fill="#F9B9B4"/>
<path d="M175.57 453.39C175.424 453.531 168.266 446.624 159.584 437.933C150.901 429.257 143.979 422.094 144.125 421.952C144.272 421.811 151.429 428.718 160.126 437.409C168.794 446.085 175.717 453.234 175.57 453.39Z" fill="#251A51"/>
<path d="M162.958 457.414C162.928 457.456 162.456 457.261 161.599 456.857C160.741 456.468 159.557 455.814 158.117 454.94C155.237 453.206 151.495 450.434 147.664 447.041C143.832 443.648 140.56 440.379 138.195 438.005C137.119 436.906 136.199 435.954 135.434 435.163C134.783 434.489 134.444 434.095 134.488 434.052C134.517 434.009 134.93 434.333 135.639 434.95C136.349 435.568 137.342 436.478 138.576 437.622C141.029 439.897 144.36 443.094 148.177 446.473C151.995 449.837 155.635 452.65 158.427 454.484C161.19 456.346 163.017 457.299 162.958 457.414Z" fill="#251A51"/>
<path d="M148.504 458.683C148.46 458.769 147.086 458.241 144.973 457.125C142.86 456.009 140.052 454.29 137.092 452.165C134.132 450.04 131.589 447.937 129.845 446.323C128.086 444.708 127.111 443.597 127.184 443.526C127.258 443.44 128.365 444.425 130.197 445.925C132.03 447.426 134.603 449.443 137.534 451.553C140.466 453.663 143.216 455.438 145.24 456.654C147.265 457.884 148.564 458.583 148.504 458.683Z" fill="#251A51"/>
<path d="M446.92 417.399C446.92 417.399 434.281 410.198 417.09 413.251C399.899 416.305 363.859 424.257 351.423 425.488C338.987 426.705 286.349 437.547 286.349 437.547L291.339 468.798L462.417 471.306C465.872 452.575 472.039 429.379 446.92 417.399Z" fill="#F9B9B4"/>
<path d="M279.866 468.605L291.342 468.799L310.457 432.709C308.088 432.265 258.809 424.13 255.887 424.873L243.328 466.779C243.342 466.78 278.815 468.587 279.866 468.605Z" fill="#F9B9B4"/>
<path d="M246.095 467.503C246.137 467.576 246.424 467.638 246.913 467.704C250.98 468.219 269.847 467.385 269.847 467.385C270.752 464.965 269.249 457.619 266.909 457.162C264.569 456.69 244.489 457.707 244.489 457.707C244.489 457.707 241.328 458.071 240.447 463.359C239.916 466.635 246.095 467.503 246.095 467.503Z" fill="#F9B9B4"/>
<path d="M239.909 456.679C239.951 456.751 240.238 456.814 240.727 456.88C244.794 457.395 262.609 457.493 263.423 455.346C264.328 452.926 263.063 446.809 260.723 446.338C258.383 445.866 238.303 446.882 238.303 446.882C238.303 446.882 235.143 447.247 234.261 452.534C233.731 455.811 239.909 456.679 239.909 456.679Z" fill="#F9B9B4"/>
<path d="M236.933 446.153C236.975 446.226 237.262 446.288 237.751 446.354C241.818 446.869 259.633 446.967 260.447 444.82C261.352 442.4 260.087 436.283 257.747 435.812C255.407 435.34 235.327 436.356 235.327 436.356C235.327 436.356 232.167 436.721 231.285 442.009C230.74 445.299 236.933 446.153 236.933 446.153Z" fill="#F9B9B4"/>
<path d="M234.141 435.688C234.183 435.761 234.47 435.823 234.959 435.889C239.026 436.404 256.841 436.503 257.655 434.355C258.56 431.935 257.295 425.819 254.955 425.347C252.615 424.875 232.535 425.892 232.535 425.892C232.535 425.892 229.375 426.256 228.493 431.544C227.948 434.835 234.141 435.688 234.141 435.688Z" fill="#F9B9B4"/>
<path d="M261.696 456.973C261.662 457.275 257.768 457.57 253.014 457.634C248.246 457.683 244.404 457.489 244.438 457.187C244.472 456.885 248.351 456.59 253.119 456.526C257.888 456.462 261.73 456.657 261.696 456.973Z" fill="#251A51"/>
<path d="M261.974 446.46C261.984 446.762 256.447 447.101 249.633 447.203C242.804 447.304 237.276 447.139 237.267 446.821C237.258 446.519 242.794 446.18 249.609 446.078C256.437 445.992 261.965 446.157 261.974 446.46Z" fill="#251A51"/>
<path d="M261.304 435.771C261.313 436.088 255.777 436.413 248.963 436.514C242.134 436.615 236.606 436.45 236.597 436.133C236.588 435.816 242.124 435.491 248.939 435.39C255.767 435.289 261.309 435.469 261.304 435.771Z" fill="#251A51"/>
<path d="M290.012 429.656C290.012 429.656 256.643 414.137 254.504 416.262C252.366 418.387 249.009 425.276 249.009 425.276L290.012 429.656Z" fill="#F9B9B4"/>
</svg>
