<svg width="183" height="151" viewBox="0 0 183 151" fill="none" xmlns="http://www.w3.org/2000/svg">
<circle cx="109.278" cy="71.3056" r="71.3056" fill="#EEF2FA"/>
<path d="M74.8702 127.799C70.7894 127.799 65.4965 130.513 65.4965 137.172C65.4965 144.245 70.7892 146.546 74.8702 146.546H143.538V138.817L141.565 137.172L143.538 135.528V127.799H74.8702Z" fill="#E4EEF9"/>
<path d="M67.7383 135.2C67.7383 135.2 65.4965 135.2 65.4965 137.172C65.4965 141.253 68.2289 146.546 74.8702 146.546H143.538V140.628H74.8699C71.4724 140.627 68.6041 138.325 67.7383 135.2Z" fill="#D5E0F2"/>
<path d="M147.774 149.027H74.8697C61.1428 149.027 61.0766 136.046 61.1433 135.497C61.9729 128.66 67.8123 123.345 74.8697 123.345L107.654 121.372L140.373 123.345H147.774C148.883 123.345 149.861 123.907 150.438 124.762C150.465 124.801 150.491 124.841 150.515 124.881C150.815 125.369 149.549 127.799 147.774 127.799H74.8697C70.789 127.799 67.4689 133.092 67.4689 137.173C67.4689 141.253 70.7888 144.574 74.8697 144.574H147.774C148.883 144.574 149.861 145.135 150.438 145.99C150.785 146.503 149.548 149.027 147.774 149.027Z" fill="#86DCFF"/>
<path d="M147.774 147.649H74.8702C67.8132 147.649 61.9778 142.334 61.1478 135.497C61.0811 136.047 61.0426 136.605 61.0426 137.173C61.0426 144.797 67.2454 151 74.8702 151H147.774C149.549 151 150.988 149.561 150.988 147.787C150.988 147.172 150.812 146.599 150.512 146.111C149.947 147.032 148.934 147.649 147.774 147.649Z" fill="#56CAED"/>
<path d="M147.774 126.421H74.8703C70.7896 126.421 67.4695 129.741 67.4695 133.821C67.4695 134.398 67.5379 134.958 67.663 135.497C68.4245 132.221 71.3657 129.772 74.8701 129.772H147.774C149.549 129.772 150.987 128.333 150.987 126.558C150.987 125.944 150.812 125.371 150.512 124.883C149.947 125.804 148.934 126.421 147.774 126.421Z" fill="#56CAED"/>
<path d="M140.373 100.144C144.454 100.144 149.747 102.858 149.747 109.518C149.747 116.59 144.454 118.891 140.373 118.891H71.7052V111.162L73.678 109.518L71.7052 107.873V100.144H140.373Z" fill="#E4EEF9"/>
<path d="M147.505 107.545C147.505 107.545 149.747 107.545 149.747 109.518C149.747 113.598 147.014 118.891 140.373 118.891H71.7052V112.973H140.373C143.771 112.972 146.639 110.67 147.505 107.545Z" fill="#D5E0F2"/>
<path d="M67.4698 121.372H140.374C154.101 121.372 154.167 108.391 154.1 107.841C153.27 101.004 147.431 95.6899 140.374 95.6899H67.4698C66.3606 95.6899 65.3827 96.2519 64.8051 97.1067C64.7787 97.1458 64.7531 97.1854 64.7284 97.2258C64.429 97.7142 65.695 100.144 67.4696 100.144H140.373C144.454 100.144 147.774 105.437 147.774 109.517C147.774 113.598 144.454 116.918 140.373 116.918H67.4698C66.3606 116.918 65.3827 117.48 64.8051 118.335C64.4587 118.848 65.695 121.372 67.4698 121.372Z" fill="#FFCF4D"/>
<path d="M67.4693 119.994H140.373C147.43 119.994 153.266 114.679 154.096 107.842C154.162 108.391 154.201 108.95 154.201 109.517C154.201 117.142 147.998 123.345 140.373 123.345H67.4693C65.6946 123.345 64.2561 121.906 64.2561 120.131C64.2561 119.517 64.4318 118.944 64.7314 118.456C65.2963 119.377 66.3096 119.994 67.4693 119.994Z" fill="#FFB629"/>
<path d="M67.4693 98.7656H140.373C144.454 98.7656 147.774 102.086 147.774 106.166C147.774 106.743 147.706 107.303 147.58 107.842C146.819 104.566 143.878 102.117 140.373 102.117H67.4693C65.6946 102.117 64.2561 100.678 64.2561 98.9032C64.2561 98.2884 64.4318 97.7159 64.7314 97.2275C65.2963 98.149 66.3096 98.7656 67.4693 98.7656Z" fill="#FFB629"/>
<path d="M71.7052 107.873H132.614C133.522 107.873 134.258 108.609 134.258 109.518C134.258 110.426 133.522 111.162 132.614 111.162H71.7052V107.873Z" fill="#BDCDE5"/>
<path d="M107.654 48.543C119.326 48.543 129.544 53.4394 131.633 63.1625C131.885 64.3356 132.048 65.5575 132.129 66.8104C132.962 79.6341 125.245 93.7171 116.882 93.7171C111.029 93.7171 107.654 87.6835 107.654 87.6835C107.654 87.6835 104.278 93.7171 98.4256 93.7171C90.0628 93.7171 82.3452 79.6341 83.1783 66.8104C83.2596 65.5575 83.4226 64.3356 83.6746 63.1625C85.7631 53.4394 95.9811 48.543 107.654 48.543Z" fill="#FF5876"/>
<path d="M116.882 91.7443C112.772 91.7443 109.884 88.7689 108.528 86.9969C108.086 86.4191 107.222 86.4191 106.78 86.9969C105.424 88.7689 102.535 91.7443 98.4257 91.7443C90.9036 91.7443 83.905 78.7543 83.1799 66.8106C82.3466 79.6343 90.0627 95.69 98.4257 95.69C104.278 95.69 107.654 89.6564 107.654 89.6564C107.654 89.6564 111.029 95.69 116.882 95.69C125.245 95.69 132.961 79.6343 132.128 66.8106C131.402 78.7543 124.404 91.7443 116.882 91.7443Z" fill="#E6485D"/>
<path d="M105.247 43.9534C101.343 40.0498 93.7856 41.2786 93.7856 41.2786C93.7856 41.2786 93.7671 41.3917 93.7422 41.5973C93.562 43.0728 94.0261 48.8988 97.4522 52.325C101.356 56.2285 108.209 53.6479 108.064 51.3816C107.91 48.9605 107.263 45.9695 105.247 43.9534Z" fill="#A0E557"/>
<path d="M96.6164 48.5275C94.7238 46.6349 93.9907 43.9247 93.7417 41.5974C93.5615 43.0698 93.0325 49.3125 96.4599 52.7399C100.363 56.6434 107.921 55.4146 107.921 55.4146C107.921 55.4146 108.207 53.6472 108.063 51.3816C106.921 51.5227 100.257 52.1674 96.6164 48.5275Z" fill="#87D654"/>
<path d="M115.132 58.2664C115.132 57.3572 114.395 56.62 113.486 56.62C112.85 56.62 112.299 56.9811 112.025 57.5088C111.964 57.6099 111.214 58.7958 109.13 59.2485C109.343 55.909 110.159 48.6602 113.29 43.3787C113.753 42.5976 113.496 41.589 112.715 41.126C111.934 40.6628 110.925 40.9209 110.462 41.7017C106.873 47.7562 106.027 55.7482 105.829 59.2756C103.638 58.8451 102.857 57.6064 102.798 57.5081C102.524 56.9808 101.973 56.6202 101.338 56.6202C100.429 56.6202 99.6915 57.3574 99.6915 58.2666C99.6915 58.5821 99.7818 58.8758 99.9356 59.1262C100.085 59.3904 100.603 60.2087 101.686 61.0063C102.741 61.7837 104.591 62.7104 107.412 62.7104C110.232 62.7104 112.082 61.7837 113.137 61.0063C114.223 60.2063 114.741 59.3853 114.889 59.1236C115.042 58.8735 115.132 58.5808 115.132 58.2664Z" fill="#FFBE7C"/>
<path d="M143.538 135.528H82.629C81.7211 135.528 80.985 136.264 80.985 137.172C80.985 138.081 81.7211 138.816 82.629 138.816H143.538V135.528H143.538Z" fill="#BDCDE5"/>
</svg>
