<svg width="70" height="70" viewBox="0 0 70 70" fill="none" xmlns="http://www.w3.org/2000/svg">
<circle cx="35" cy="35" r="35" fill="#7057D6" fill-opacity="0.2"/>
<path d="M25.6876 22C27.9068 22 29.7296 22.7147 31.1562 24.1441C32.5828 25.5206 33.296 27.3471 33.296 29.6235C33.296 30.6824 33.1639 31.7412 32.8998 32.8C32.6356 33.8588 32.0808 35.4471 31.2354 37.5647L26.6387 49H18.7925L22.2005 36.4529C20.8796 35.8706 19.8493 34.9971 19.1096 33.8324C18.3699 32.6677 18 31.2647 18 29.6235C18 27.3471 18.7133 25.5206 20.1399 24.1441C21.6193 22.7147 23.4685 22 25.6876 22ZM44.3916 22C46.6107 22 48.4336 22.7147 49.8601 24.1441C51.2867 25.5206 52 27.3471 52 29.6235C52 30.6824 51.8679 31.7412 51.6037 32.8C51.3396 33.8588 50.7848 35.4471 49.9394 37.5647L45.3427 49H37.4965L40.9044 36.4529C39.5835 35.8706 38.5532 34.9971 37.8135 33.8324C37.0738 32.6677 36.704 31.2647 36.704 29.6235C36.704 27.3471 37.4173 25.5206 38.8438 24.1441C40.3232 22.7147 42.1725 22 44.3916 22Z" fill="white"/>
</svg>
