<svg width="471" height="342" viewBox="0 0 471 342" fill="none" xmlns="http://www.w3.org/2000/svg">
<path d="M90.3147 341.601C90.3147 341.601 9.65201 285.775 51.5806 232.874C93.5093 179.972 176.435 198.714 258.695 166.68C340.955 134.647 372.767 122.418 402.716 150.73C432 178.51 377.293 231.943 415.228 278.465C456.358 328.708 404.047 337.88 394.064 341.601H90.3147Z" fill="#EEF2FA"/>
<path d="M174.172 176.383C154.738 189.808 144.622 198.182 142.892 177.712C138.499 127.336 95.1064 100.753 63.427 100.885" stroke="#80A5F9" stroke-width="1.0183" stroke-miterlimit="10" stroke-linecap="round" stroke-linejoin="round" stroke-dasharray="2.04 2.04"/>
<path d="M47.1879 91.9798C47.0548 91.8469 55.1743 92.1128 55.1743 92.1128L59.5669 103.145L52.246 97.2966L43.5941 100.354L26.5564 96.4991L47.1879 91.9798Z" fill="#5B84F8"/>
<path d="M26.5564 96.4991L59.5669 103.145L52.246 97.2966L26.5564 96.4991Z" fill="#4174E5"/>
<path d="M26.5564 96.4991L58.7682 85.7327L55.1744 92.1128L26.5564 96.4991L52.246 97.2966L46.3893 108.462L26.5564 96.4991Z" fill="#80A5F9"/>
<path d="M320.744 53.7602H294.389C290.928 53.7602 288 50.9689 288 47.3801C288 43.9242 290.795 41 294.389 41H320.744C324.205 41 327.133 43.7913 327.133 47.3801C327.133 50.9689 324.205 53.7602 320.744 53.7602Z" fill="#06D2FF"/>
<path d="M300.518 48.9761C301.401 48.9734 302.114 48.257 302.111 47.3761C302.108 46.4952 301.391 45.7833 300.508 45.7861C299.626 45.7888 298.913 46.5052 298.916 47.3861C298.919 48.267 299.636 48.9789 300.518 48.9761Z" fill="white"/>
<path d="M307.573 48.9752C308.455 48.9724 309.168 48.2561 309.165 47.3752C309.163 46.4943 308.445 45.7824 307.563 45.7851C306.681 45.7878 305.968 46.5042 305.971 47.3851C305.974 48.266 306.691 48.9779 307.573 48.9752Z" fill="white"/>
<path d="M314.495 48.9754C315.377 48.9727 316.09 48.2563 316.087 47.3754C316.084 46.4945 315.367 45.7826 314.485 45.7854C313.603 45.7881 312.89 46.5044 312.893 47.3853C312.895 48.2662 313.613 48.9781 314.495 48.9754Z" fill="white"/>
<path d="M61.0311 192.466C77.5714 192.466 90.9801 179.077 90.9801 162.56C90.9801 146.043 77.5714 132.653 61.0311 132.653C44.4907 132.653 31.082 146.043 31.082 162.56C31.082 179.077 44.4907 192.466 61.0311 192.466Z" fill="#06D2FF"/>
<path d="M48.7852 169.87L55.7067 162.958L48.7852 157.908V169.87Z" fill="white"/>
<path d="M64.7579 164.288L61.0309 166.946L57.3039 164.155L50.9148 170.801H71.147L64.7579 164.288Z" fill="white"/>
<path d="M66.3552 162.958L73.2768 169.87V157.908L66.3552 162.958Z" fill="white"/>
<path d="M61.0302 164.686L73.276 155.648V152.591H48.9175V155.648L61.0302 164.686Z" fill="white"/>
<path d="M398.989 120.026H351.071C346.412 120.026 342.685 116.304 342.685 111.652V67.2569C342.685 63.801 345.48 60.8768 349.074 60.8768H398.989C402.45 60.8768 405.378 63.6681 405.378 67.2569V113.646C405.245 117.234 402.45 120.026 398.989 120.026Z" fill="#FCA70C"/>
<path d="M383.283 72.8395L388.873 73.637L373.033 83.8717L370.105 79.8842L358.259 86.7959" stroke="white" stroke-width="1.4507" stroke-miterlimit="10" stroke-linecap="round" stroke-linejoin="round"/>
<path d="M386.876 79.0866L388.873 73.637" stroke="white" stroke-width="1.4507" stroke-miterlimit="10" stroke-linecap="round" stroke-linejoin="round"/>
<path d="M365.047 94.6381H359.457V105.67H365.047V94.6381Z" fill="white"/>
<path d="M372.9 91.4481H367.31V105.67H372.9V91.4481Z" fill="white"/>
<path d="M380.754 87.9922H375.163V105.67H380.754V87.9922Z" fill="white"/>
<path d="M388.873 85.068H383.283V105.67H388.873V85.068Z" fill="white"/>
<path d="M425.211 208.151C440.355 208.151 452.631 195.892 452.631 180.77C452.631 165.647 440.355 153.388 425.211 153.388C410.068 153.388 397.791 165.647 397.791 180.77C397.791 195.892 410.068 208.151 425.211 208.151Z" fill="#007FFF"/>
<path d="M435.86 178.643L434.129 178.377C433.863 177.58 433.597 176.915 433.198 176.117L434.263 174.655C434.662 174.124 434.529 173.326 434.129 172.927L433.065 171.864C432.532 171.465 431.867 171.332 431.334 171.731L429.87 172.794C429.204 172.396 428.406 172.13 427.607 171.864L427.341 170.003C427.208 169.339 426.675 168.94 426.01 168.807H424.413C423.747 168.807 423.215 169.339 423.082 170.003L422.815 171.731C422.017 171.997 421.351 172.263 420.553 172.662L419.088 171.731C418.556 171.332 417.757 171.465 417.358 171.864L416.293 172.927C415.761 173.459 415.761 174.124 416.16 174.655L417.225 176.117C416.826 176.782 416.559 177.58 416.293 178.377L414.563 178.643C413.897 178.776 413.365 179.307 413.365 179.972V181.434C413.365 182.099 413.897 182.63 414.563 182.763L416.293 183.029C416.559 183.827 416.826 184.491 417.225 185.289L416.16 186.751C415.761 187.283 415.894 188.08 416.293 188.479L417.358 189.542C417.89 190.074 418.556 190.074 419.088 189.675L420.553 188.612C421.218 189.011 422.017 189.276 422.815 189.542L423.082 191.27C423.215 191.935 423.747 192.466 424.413 192.466H425.877C426.542 192.466 427.075 191.935 427.208 191.27L427.474 189.542C428.273 189.276 428.938 189.011 429.737 188.612L431.201 189.675C431.734 190.074 432.532 189.941 432.931 189.542L433.996 188.479C434.529 187.947 434.529 187.283 434.129 186.751L433.065 185.289C433.464 184.624 433.73 183.827 433.996 183.029L435.727 182.763C436.392 182.63 436.925 182.099 436.925 181.434V179.972C437.058 179.307 436.525 178.776 435.86 178.643ZM425.078 184.757C422.815 184.757 420.952 182.896 420.952 180.637C420.952 178.377 422.815 176.516 425.078 176.516C427.341 176.516 429.204 178.377 429.204 180.637C429.204 183.029 427.341 184.757 425.078 184.757Z" fill="white"/>
<path d="M222.618 87.6868H163.386C158.727 87.6868 155 83.965 155 79.3129V36.3801C155 32.9242 157.795 30 161.389 30H222.618C226.079 30 229.007 32.7913 229.007 36.3801V81.3066C229.007 84.8955 226.079 87.6868 222.618 87.6868Z" fill="#007FFF"/>
<path d="M210.505 44.754L207.178 44.0894C207.045 44.0894 207.045 43.9565 206.912 43.8235L206.246 40.5006C206.113 40.1018 205.847 39.9689 205.58 40.3677L200.789 45.1527C200.656 45.2857 200.522 45.5515 200.656 45.6844L201.188 48.0769L190.007 59.1092C189.475 59.6409 189.475 60.3055 190.007 60.8372C190.539 61.3688 191.205 61.3688 191.737 60.8372L202.918 49.8049L205.314 50.3366C205.447 50.3366 205.714 50.3366 205.847 50.2037L210.639 45.4186C210.905 45.1527 210.772 44.8869 210.505 44.754Z" fill="white"/>
<path d="M194.666 52.862L196.795 50.7353C196.929 50.6024 196.795 50.6024 196.795 50.4695C195.065 49.4061 193.068 48.8745 191.072 48.8745C188.143 48.8745 185.348 49.9378 183.085 52.1974C178.693 56.5837 178.693 63.7614 183.085 68.1477C185.348 70.4073 188.143 71.4706 191.072 71.4706C194 71.4706 196.795 70.4073 199.058 68.1477C202.785 64.4259 203.318 58.8434 200.789 54.457C200.789 54.3241 200.656 54.3241 200.522 54.457L198.393 56.5837C198.26 56.7167 198.26 56.8496 198.393 56.8496C198.925 57.9129 199.058 58.9763 199.058 60.1725C199.058 62.2992 198.26 64.293 196.662 65.8881C195.198 67.3502 193.068 68.2806 190.939 68.2806C188.809 68.2806 186.812 67.4831 185.215 65.8881C182.021 62.698 182.021 57.6471 185.215 54.457C186.679 52.9949 188.809 52.0645 190.939 52.0645C192.137 52.0645 193.202 52.3303 194.266 52.7291C194.399 52.862 194.533 52.862 194.666 52.862Z" fill="white"/>
<path d="M206.379 52.0645L204.249 54.1912C204.116 54.3241 204.116 54.4571 204.249 54.4571C205.048 56.185 205.447 58.1788 205.447 60.1726C205.447 64.0272 203.983 67.616 201.188 70.4073C198.526 73.0657 194.799 74.6607 190.939 74.6607C187.079 74.6607 183.485 73.1986 180.69 70.4073C175.099 64.8247 175.099 55.6533 180.69 50.0707C183.352 47.4124 187.079 45.8173 190.939 45.8173C192.935 45.8173 194.799 46.2161 196.662 47.0136C196.796 47.0136 196.929 47.0136 196.929 47.0136L199.058 44.8869C199.191 44.754 199.058 44.754 199.058 44.6211C196.529 43.2919 193.734 42.6273 190.939 42.6273C186.413 42.6273 181.888 44.3552 178.427 47.8111C171.505 54.7229 171.505 65.7552 178.427 72.6669C181.888 76.1228 186.413 77.8508 190.939 77.8508C195.464 77.8508 199.99 76.1228 203.451 72.6669C209.041 67.0843 210.106 58.8434 206.645 52.1974C206.645 52.0645 206.512 52.0645 206.379 52.0645Z" fill="white"/>
<path d="M75.9391 273.414H70.881C69.55 273.414 68.4851 272.351 68.4851 271.021V266.369C68.4851 265.04 69.55 263.977 70.881 263.977H75.9391C77.2702 263.977 78.335 265.04 78.335 266.369V271.021C78.335 272.351 77.2702 273.414 75.9391 273.414Z" fill="#4084FB"/>
<path d="M439.853 265.306H385.146C383.815 265.306 382.75 264.242 382.75 262.913C382.75 261.584 383.815 260.521 385.146 260.521H439.853C441.184 260.521 442.249 261.584 442.249 262.913C442.249 264.242 441.184 265.306 439.853 265.306Z" fill="#FFD943"/>
<path opacity="0.38" d="M284.287 105.443H260.727C258.73 105.443 257 103.848 257 101.722C257 99.7279 258.597 98 260.727 98H284.42C286.417 98 288.147 99.595 288.147 101.722C288.014 103.716 286.417 105.443 284.287 105.443Z" fill="#DEE2E7"/>
<path opacity="0.38" d="M190.935 131.443H156.727C154.73 131.443 153 129.848 153 127.722C153 125.728 154.597 124 156.727 124H190.935C192.932 124 194.662 125.595 194.662 127.722C194.662 129.848 192.932 131.443 190.935 131.443Z" fill="#DEE2E7"/>
<path d="M65.2906 235.266H26.4235C25.2255 235.266 24.1606 236.33 24.1606 237.526V237.792C24.1606 238.988 25.2255 240.051 26.4235 240.051H65.2906C66.4886 240.051 67.5534 238.988 67.5534 237.792V237.526C67.5534 236.197 66.4886 235.266 65.2906 235.266Z" fill="#FFD943"/>
<path d="M413.897 239.387H394.064C392.866 239.387 391.802 240.45 391.802 241.646V241.912C391.802 243.108 392.866 244.172 394.064 244.172H413.897C415.095 244.172 416.16 243.108 416.16 241.912V241.646C416.16 240.317 415.228 239.387 413.897 239.387Z" fill="#06D2FF"/>
<path d="M442.249 121.222C444.381 121.222 446.109 119.496 446.109 117.367C446.109 115.238 444.381 113.513 442.249 113.513C440.117 113.513 438.389 115.238 438.389 117.367C438.389 119.496 440.117 121.222 442.249 121.222Z" fill="#FFD943"/>
<path d="M271.207 7.70929C273.339 7.70929 275.067 5.98351 275.067 3.85464C275.067 1.72578 273.339 0 271.207 0C269.075 0 267.347 1.72578 267.347 3.85464C267.347 5.98351 269.075 7.70929 271.207 7.70929Z" fill="#5B84F8"/>
<path opacity="0.38" d="M426.942 41.0719C429.956 41.0719 432.399 38.632 432.399 35.6222C432.399 32.6124 429.956 30.1725 426.942 30.1725C423.928 30.1725 421.484 32.6124 421.484 35.6222C421.484 38.632 423.928 41.0719 426.942 41.0719Z" stroke="#CED3D8" stroke-width="2.0366" stroke-miterlimit="10"/>
<path opacity="0.38" d="M10.5 288C15.1944 288 19 284.194 19 279.5C19 274.806 15.1944 271 10.5 271C5.80558 271 2 274.806 2 279.5C2 284.194 5.80558 288 10.5 288Z" stroke="#CED3D8" stroke-width="2.0366" stroke-miterlimit="10"/>
<path opacity="0.38" d="M53.4441 54.3638C55.9435 54.3638 57.9697 52.3405 57.9697 49.8446C57.9697 47.3487 55.9435 45.3253 53.4441 45.3253C50.9447 45.3253 48.9185 47.3487 48.9185 49.8446C48.9185 52.3405 50.9447 54.3638 53.4441 54.3638Z" fill="#DEE2E7"/>
<path opacity="0.38" d="M461.682 234.336C464.182 234.336 466.208 232.313 466.208 229.817C466.208 227.321 464.182 225.297 461.682 225.297C459.183 225.297 457.157 227.321 457.157 229.817C457.157 232.313 459.183 234.336 461.682 234.336Z" fill="#DEE2E7"/>
<path d="M367.842 341.335L116.27 341.468C106.687 341.468 98.9666 333.758 98.9666 324.321L385.013 324.055C385.013 333.493 377.293 341.202 367.842 341.335Z" fill="#453087"/>
<path d="M367.842 335.354L116.27 335.487C108.816 335.487 102.56 330.835 100.031 324.189H98.9666C98.9666 333.759 106.687 341.468 116.27 341.335L367.842 341.203C377.426 341.203 385.146 333.493 385.013 323.923H383.948C381.552 330.569 375.163 335.354 367.842 335.354Z" fill="#7057D6"/>
<path d="M258.295 329.904H225.817C222.623 329.904 220.094 327.379 220.094 324.189H264.152C264.019 327.379 261.49 329.904 258.295 329.904Z" fill="#9393FE"/>
<path d="M370.371 324.056L242.056 324.189L113.742 324.322L113.608 169.737C113.608 160.832 120.796 153.654 129.714 153.654L354.132 153.521C363.05 153.521 370.238 160.699 370.238 169.604L370.371 324.056Z" fill="#7057D6"/>
<path d="M356.927 166.813H127.052V310.764H356.927V166.813Z" fill="white"/>
<path opacity="0.16" d="M356.927 297.073H127.052V310.897H356.927V297.073Z" fill="#D3D4DD"/>
<path opacity="0.16" d="M356.794 166.813H126.919V173.592H356.794V166.813Z" fill="#D3D4DD"/>
<g opacity="0.8">
<path d="M203.588 166.812L127.052 243.374V310.896H127.318L271.34 166.812H203.588Z" fill="#DDE1FF"/>
<path d="M148.482 310.897L190.544 310.764L334.699 166.68L292.637 166.813L148.482 310.897Z" fill="#DDE1FF"/>
<path d="M329.907 310.764L356.927 283.649V241.646L287.845 310.764H329.907Z" fill="#DDE1FF"/>
</g>
<path d="M15.3755 341.468H471" stroke="#555BE4" stroke-width="0.8763" stroke-miterlimit="10"/>
</svg>
