<svg width="244" height="78" viewBox="0 0 244 78" fill="none" xmlns="http://www.w3.org/2000/svg">
<path d="M93.8732 16.0323H92.9661C90.2451 16.0323 88.9458 14.9291 88.9458 11.9466V1.4218C88.9458 0.245116 89.338 0.245117 91.1521 0.245117H98.2857C99.1029 0.245117 99.1029 0.956027 99.1029 2.37785H91.1929V6.96201H93.5953C97.1744 6.96201 99.5033 8.06516 99.5033 11.2275C99.4624 14.5614 96.6923 16.0323 93.8732 16.0323ZM93.3829 9.04572H91.1929V11.7668C91.1929 13.1886 91.7568 13.9241 93.2276 13.9241H93.816C95.4502 13.9241 97.1499 13.3357 97.1499 11.4236C97.1499 9.5115 95.6137 9.04572 93.3829 9.04572Z" fill="white"/>
<path d="M103.948 16.0323V1.32377C103.948 0.147088 104.341 0.147086 106.179 0.147086V7.35427H110.126C110.224 2.59851 112.577 0 116.769 0C120.961 0 123.462 2.69657 123.462 7.67296C123.462 12.6493 120.961 16.2529 116.769 16.2529C113.117 16.2529 110.763 13.5073 110.232 9.43798H106.187V16.0323H103.948ZM116.769 2.0592C114.073 2.0592 112.528 3.89777 112.528 7.67296C112.528 11.7587 114.122 14.1447 116.769 14.1447C119.417 14.1447 121.108 11.7668 121.108 7.68113C121.108 3.89776 119.515 2.0592 116.769 2.0592Z" fill="white"/>
<path d="M131.674 10.7372H130.179V16.0323H127.964V1.4218C127.964 0.245116 128.357 0.245117 130.195 0.245117H132.05C135.899 0.245117 138.587 1.49534 138.587 5.19699C138.587 8.75155 135.662 10.7372 131.674 10.7372ZM132.05 2.2798H130.211V8.72704H131.731C134.371 8.72704 136.307 7.55036 136.307 5.19699C136.307 2.84362 134.068 2.2798 132.05 2.2798Z" fill="white"/>
<path d="M149.594 16.2775C145.255 16.2775 142.166 12.5268 142.166 7.67296C142.166 2.81914 145.182 0 149.594 0C154.007 0 157.063 2.84365 157.063 7.67296C157.063 12.5023 153.982 16.2775 149.594 16.2775ZM149.594 2.0592C146.53 2.0592 144.544 4.16742 144.544 7.67296C144.544 11.4481 146.595 14.1447 149.594 14.1447C152.593 14.1447 154.709 11.5707 154.709 7.67296C154.709 4.06937 152.699 2.0592 149.594 2.0592Z" fill="white"/>
<path d="M10.1244 57.8123H8.61267C4.07753 57.8123 1.91211 55.9737 1.91211 51.03V33.4533C1.91211 31.4922 2.56582 31.4922 5.58924 31.4922H17.4786C18.8269 31.4922 18.8269 32.677 18.8269 35.0467H5.58924V42.6952H9.59323C15.5584 42.6952 19.3989 44.5338 19.3989 49.8043C19.4398 55.3609 14.8229 57.8123 10.1244 57.8123ZM9.30724 46.168H5.58924V50.6623C5.58924 53.032 6.52895 54.2577 8.98038 54.2577H9.96095C12.6575 54.2577 15.5175 53.2772 15.5175 50.0903C15.5175 46.9035 13.0252 46.168 9.30724 46.168Z" fill="white"/>
<path d="M39.713 49.1506C38.4464 56.3006 35.3005 58.2209 31.991 58.2209C29.8256 58.2209 28.1096 57.4037 28.1096 55.606V54.2577C28.9458 54.5684 29.8325 54.7208 30.7245 54.7072C33.0533 54.7072 34.8102 53.7675 35.4639 50.9483C30.7245 44.4112 27.0473 38.4379 24.269 31.6148V31.4922H28.6407C30.925 36.752 33.7165 41.7767 36.9756 46.4949L42.4096 31.4922H46.9039L39.713 49.1506Z" fill="white"/>
<path d="M77.0891 57.9759V37.8661C74.7249 43.472 72.0234 48.9296 68.9994 54.2089C67.8395 54.6643 66.6088 54.9132 65.3631 54.9443C62.3368 49.4265 59.6091 43.7501 57.1917 37.9396V57.8452H53.678V32.3504C55.1401 31.7202 56.7043 31.3603 58.2948 31.2881C60.8883 37.8261 63.8483 44.2126 67.1608 50.4174C70.3248 44.5749 73.1885 38.5747 75.7408 32.4403C77.2513 31.6883 78.9155 31.2967 80.6028 31.2963V55.4836C80.5701 57.9759 80.5211 57.9759 77.0891 57.9759Z" fill="white"/>
<path d="M108.467 57.813L106.384 52.093H94.2901C93.6364 54.0133 93.0644 55.9336 92.4924 57.813H88.2024C90.7195 50.1026 93.8341 42.6003 97.5178 35.3743C97.7977 34.9442 97.9857 34.4608 98.0701 33.9546C98.1544 33.4484 98.1333 32.9303 98.0081 32.4326C99.3427 31.6661 100.842 31.2317 102.38 31.166L112.757 57.3145V57.8048L108.467 57.813ZM100.705 36.5673C98.7641 40.4936 97.0321 44.5195 95.5158 48.6283H105.158L100.705 36.5673Z" fill="white"/>
<path d="M145.566 54.9117L140.744 46.9037C140.377 46.9241 140.009 46.9241 139.641 46.9037H137.884V57.7717H134.207V46.9445H132.41C132.042 46.9665 131.674 46.9665 131.306 46.9445L126.485 54.9525C124.81 57.8125 123.258 58.2211 121.542 58.2211C120.03 58.2211 118.559 57.4857 118.559 55.6879V54.9525H119.213C120.888 54.9525 122.073 54.4214 123.298 52.6237L127.834 45.678C123.421 42.4911 125.382 34.3933 119.376 34.3933H118.723V33.5761C118.723 31.7784 120.112 31.043 121.909 31.043C129.141 31.043 125.913 43.4308 132.042 43.4308H134.248V33.2901C134.248 31.329 134.861 31.329 137.925 31.329V43.4717H140.091C146.26 43.4717 143.032 31.0838 150.428 31.0838C152.184 31.0838 153.451 31.8193 153.451 33.617V34.4341H152.797C146.75 34.4341 148.712 42.4911 144.34 45.7188L148.834 52.6645C149.226 53.3991 149.817 54.0077 150.54 54.4199C151.263 54.8321 152.088 55.0309 152.92 54.9934H153.574V55.7288C153.574 57.5265 151.817 58.2619 150.305 58.2619C148.466 58.2211 147.282 57.7717 145.566 54.9117Z" fill="white"/>
<path d="M173.724 55.1571L167.963 46.9857H164.899V57.8537H161.181V33.3395C161.181 31.3783 161.835 31.3783 164.899 31.3783V43.472H167.514C175.154 43.472 171.273 31.125 178.995 31.125C180.752 31.125 181.732 31.8196 181.732 33.5764V34.3936H181.079C175.359 34.3936 177.32 42.9735 171.722 45.9643L176.911 52.91C177.368 53.5932 177.999 54.1425 178.739 54.5015C179.478 54.8605 180.3 55.0163 181.119 54.9528H181.773V55.6883C181.773 57.486 180.016 58.2214 178.545 58.2214C176.821 58.2214 175.596 57.8537 173.724 55.1571Z" fill="white"/>
<path d="M207.464 57.9766V37.548L192.96 58.1809C191.702 58.0819 190.485 57.6902 189.405 57.0369V33.2907C189.405 31.3296 190.059 31.3296 193.082 31.3296V51.6846L207.587 31.207C208.847 31.2938 210.067 31.6865 211.141 32.351V56.0481C211.141 57.9766 210.61 57.9766 207.464 57.9766Z" fill="white"/>
<path d="M241.743 56.0146C241.743 57.9757 241.212 57.9757 238.066 57.9757V46.8217H224.297V57.8123H220.579V33.2981C220.579 31.3369 221.233 31.3369 224.297 31.3369V43.3489H238.066V31.4922H241.743V56.0146Z" fill="white"/>
<path d="M63.737 7.27246H0V10.7453H63.737V7.27246Z" fill="white"/>
<path d="M243.655 7.27246H178.316V10.7453H243.655V7.27246Z" fill="white"/>
<path d="M243.655 73.5752H0V77.048H243.655V73.5752Z" fill="white"/>
</svg>
