<svg xmlns="http://www.w3.org/2000/svg" viewBox="0 0 276.11 94.29">
    <defs>
        <style>.cls-1{fill:#fff;}</style>
    </defs>
    <title>Ресурс 1</title>
    <g id="Слой_2" data-name="Слой 2">
        <g id="Layer_1" data-name="Layer 1">
            <path class="cls-1" d="M101.55,19.62h-1.11c-3.33,0-4.92-1.35-4.92-5V1.74C95.52.3,96,.3,98.22.3H107c1,0,1,.87,1,2.61H98.22V8.52h2.94c4.38,0,7.23,1.35,7.23,5.22C108.39,17.82,105,19.62,101.55,19.62Zm-.6-8.55H98.22v3.3c0,1.74.69,2.64,2.49,2.64h.72c2,0,4.08-.72,4.08-3.06S103.68,11.07,101,11.07Z"/>
            <path class="cls-1" d="M113.88,19.62v-18c0-1.44.48-1.44,2.73-1.44V9h4.83c.12-5.82,3-9,8.13-9,5.25,0,8.19,3.3,8.19,9.39s-3.06,10.5-8.19,10.5c-4.47,0-7.35-3.36-8-8.34h-5v8.07Zm15.69-17.1c-3.3,0-5.19,2.25-5.19,6.87,0,5,2,7.92,5.19,7.92s5.31-2.91,5.31-7.92C134.88,4.77,132.93,2.52,129.57,2.52Z"/>
            <path class="cls-1" d="M147.81,13.14H146v6.48h-2.73V1.74C143.25.3,143.73.3,146,.3h2.28c4.71,0,8,1.53,8,6.06C156.3,10.71,152.7,13.14,147.81,13.14Zm.42-10.35H146v7.89h1.86c3.24,0,5.61-1.44,5.61-4.32S150.75,2.79,148.23,2.79Z"/>
            <path class="cls-1" d="M169.74,19.92c-5.31,0-9.09-4.59-9.09-10.53S164.34,0,169.74,0s9.15,3.48,9.15,9.39S175.11,19.92,169.74,19.92Zm0-17.4c-3.75,0-6.18,2.58-6.18,6.87,0,4.62,2.52,7.92,6.18,7.92S176,14.16,176,9.39C176,5,173.55,2.52,169.74,2.52Z"/>
            <path class="cls-1" d="M12.39,70.74H10.54c-5.55,0-8.2-2.25-8.2-8.3V40.94c0-2.4.8-2.4,4.5-2.4H21.39C23,38.54,23,40,23,42.89H6.84v9.35h4.9c7.3,0,12,2.25,12,8.7C23.79,67.74,18.14,70.74,12.39,70.74Zm-1-14.25H6.84V62c0,2.9,1.15,4.4,4.15,4.4h1.2c3.3,0,6.8-1.2,6.8-5.1S15.94,56.49,11.39,56.49Z"/>
            <path class="cls-1" d="M48.59,60.14c-1.55,8.75-5.4,11.1-9.45,11.1-2.65,0-4.75-1-4.75-3.2V66.39a8.8,8.8,0,0,0,3.2.55c2.85,0,4.95-1.15,5.8-4.6-5.8-8-10.3-15.3-13.7-23.65v-.15H35a107.89,107.89,0,0,0,10.2,18.35l6.65-18.35h5.5Z"/>
            <path class="cls-1" d="M94.34,70.94V46.34a185.15,185.15,0,0,1-9.9,20,13.07,13.07,0,0,1-4.45.9,216,216,0,0,1-10-20.8V70.74h-4.3V39.59a16.12,16.12,0,0,1,5.65-1.3,228.83,228.83,0,0,0,10.85,23.4,238.83,238.83,0,0,0,10.5-22,13.36,13.36,0,0,1,6-1.4v29.6C98.64,70.94,98.54,70.94,94.34,70.94Z"/>
            <path class="cls-1" d="M132.74,70.74l-2.55-7h-14.8c-.8,2.35-1.5,4.7-2.2,7h-5.25a190.78,190.78,0,0,1,11.4-27.45,4.56,4.56,0,0,0,.6-3.6,11.75,11.75,0,0,1,5.35-1.55l12.7,32v.6Zm-9.5-25.95a152.19,152.19,0,0,0-6.35,14.75h11.8Z"/>
            <path class="cls-1" d="M178.14,67.19l-5.9-9.8a12.18,12.18,0,0,1-1.35,0h-2.15v13.3h-4.5V57.44H162a11.31,11.31,0,0,1-1.35,0l-5.9,9.8c-2,3.5-3.95,4-6,4-1.85,0-3.65-.9-3.65-3.1v-.9h.8c2.05,0,3.5-.65,5-2.85l5.55-8.5c-5.4-3.9-3-13.8-10.35-13.8h-.8v-1c0-2.2,1.7-3.1,3.9-3.1,8.85,0,4.9,15.15,12.4,15.15h2.7V40.74c0-2.4.75-2.4,4.5-2.4V53.19h2.65C178.94,53.19,175,38,184,38c2.15,0,3.7.9,3.7,3.1v1h-.8c-7.4,0-5,9.85-10.35,13.8l5.5,8.5a5.39,5.39,0,0,0,5,2.85h.8v.9c0,2.2-2.15,3.1-4,3.1C181.69,71.24,180.24,70.69,178.14,67.19Z"/>
            <path class="cls-1" d="M212.59,67.49l-7.05-10h-3.75v13.3h-4.55v-30c0-2.4.8-2.4,4.55-2.4V53.19H205c9.35,0,4.6-15.1,14-15.1,2.15,0,3.35.85,3.35,3v1h-.8c-7,0-4.6,10.5-11.45,14.15l6.35,8.5a5.67,5.67,0,0,0,5.15,2.5h.8v.9c0,2.2-2.15,3.1-3.95,3.1C216.39,71.24,214.89,70.79,212.59,67.49Z"/>
            <path class="cls-1" d="M231.79,70.74v-30c0-2.4.8-2.4,4.55-2.4v32.4Z"/>
            <path class="cls-1" d="M273.74,68.54c0,2.4-.65,2.4-4.5,2.4V57.29H252.39V70.74h-4.55v-30c0-2.4.8-2.4,4.55-2.4V53h16.85V38.54h4.5Z"/>
            <rect class="cls-1" y="8.9" width="78" height="4.25"/>
            <rect class="cls-1" x="196.15" y="8.9" width="79.96" height="4.25"/>
            <rect class="cls-1" y="90.03" width="276.11" height="4.25"/>
        </g>
    </g>
</svg>