<svg width="280" height="34" viewBox="0 0 280 34" fill="none" xmlns="http://www.w3.org/2000/svg">
<path d="M0 33.4257C0.96869 33.4257 2.16802 33.4565 3.59799 33.518C5.02796 33.5795 6.70138 33.6103 8.61826 33.6103C10.9871 33.6649 13.3421 33.2332 15.5375 32.3417C17.3302 31.591 18.8472 30.3049 19.8812 28.6592C20.9362 26.8934 21.4693 24.8649 21.4188 22.8086C21.4583 20.9502 20.9905 19.1163 20.0657 17.5039C19.1553 15.9954 17.8174 14.7913 16.2217 14.0443C14.3548 13.1873 12.3172 12.7666 10.2635 12.8142C9.86372 12.8142 9.39475 12.8142 8.86428 12.8142L7.27286 12.9064C6.7347 12.9449 6.25035 12.9987 5.81214 13.0679V0.313477H0V33.4257ZM9.8099 18.265C10.9521 18.23 12.0874 18.4533 13.1311 18.9185C13.9315 19.2948 14.5932 19.9134 15.0224 20.6867C15.4441 21.4699 15.6535 22.3499 15.6297 23.2391C15.6568 24.1404 15.4418 25.0324 15.007 25.8223C14.5443 26.5943 13.8465 27.1978 13.0158 27.5444C11.906 27.9938 10.7145 28.2059 9.51776 28.1671C8.91041 28.1671 8.30305 28.1671 7.71108 28.1133L5.82751 27.9903V18.5494C6.57069 18.4521 7.28055 18.3803 7.95709 18.3342C8.63364 18.288 9.24868 18.265 9.80222 18.265H9.8099Z" fill="white"/>
<path d="M56.2839 0.313477H50.4026L42.4916 18.2419L31.6439 0.313477H25.0629L39.9469 24.7614L36.2336 33.4257H42.1534L56.2839 0.313477Z" fill="white"/>
<path d="M67.2701 33.4257V9.63135L78.1871 24.7383L89.1579 9.48528V33.4257H94.9393V0.313477H89.4423L78.6407 15.7818L67.3162 0.313477H61.4426V33.4257H67.2701Z" fill="white"/>
<path d="M148.209 16.1585L135.224 33.4257H141.905L154.46 16.2507V33.4257H160.241V16.2507L172.75 33.4257H179.477L166.492 16.1123L178.954 0.313477H172.227L160.241 16.1123V0.313477H154.46V16.1123L142.428 0.313477H135.747L148.209 16.1585Z" fill="white"/>
<path d="M220.146 33.4257L237.529 9.9158V33.4257H243.364V0.313477H238.244L220.854 23.8772V0.313477H215.034V33.4257H220.146Z" fill="white"/>
<path d="M273.539 33.4257H279.313V13.8136H258.379V0.313477H252.551V33.4257H258.379V19.2644H273.539V33.4257Z" fill="white"/>
<path fill-rule="evenodd" clip-rule="evenodd" d="M133.026 33.4257L115.182 0.313477L97.7146 33.4257H103.973L106.748 28.221L108.486 24.9459L115.22 12.2914L126.422 33.4257H133.026Z" fill="white"/>
<path fill-rule="evenodd" clip-rule="evenodd" d="M19.3738 0.313477H13.5847V6.10255H19.3738V0.313477Z" fill="white"/>
<path fill-rule="evenodd" clip-rule="evenodd" d="M279.313 0.313477H273.524V6.10255H279.313V0.313477Z" fill="white"/>
<path fill-rule="evenodd" clip-rule="evenodd" d="M188.987 0.313477H183.198V6.24623H188.987V0.313477Z" fill="white"/>
<path fill-rule="evenodd" clip-rule="evenodd" d="M209.96 33.4257L195.468 15.7356L209.106 0.313477H202.102L189.025 16.0201L202.571 33.4257H209.96Z" fill="white"/>
<path fill-rule="evenodd" clip-rule="evenodd" d="M117.773 27.6367H111.984V33.4257H117.773V27.6367Z" fill="white"/>
<path fill-rule="evenodd" clip-rule="evenodd" d="M189.025 15.8309H183.236V33.4017H189.025V15.8309Z" fill="white"/>
</svg>
