<svg width="158" height="158" viewBox="0 0 158 158" fill="none" xmlns="http://www.w3.org/2000/svg">
<circle cx="79" cy="79" r="79" fill="#EEF2FA"/>
<mask id="mask0" mask-type="alpha" maskUnits="userSpaceOnUse" x="0" y="0" width="158" height="158">
<circle cx="79" cy="79" r="79" fill="#EEF2FA"/>
</mask>
<g mask="url(#mask0)">
<path d="M115.242 237.328L122.231 96.055C122.231 91.774 118.468 89.0983 114.436 87.4929C107.716 84.8173 88.6325 78.9309 88.6325 78.9309L78.6875 91.2388L68.7424 78.9309C68.7424 78.9309 51.2715 84.2822 45.3582 87.4929C41.5952 89.6334 37.0259 92.5766 37.0259 94.4496L44.0143 237.328H115.242Z" fill="#E6E7E8"/>
<path d="M78.1491 97.6604C78.8913 97.6604 79.493 97.0614 79.493 96.3226C79.493 95.5837 78.8913 94.9847 78.1491 94.9847C77.4069 94.9847 76.8052 95.5837 76.8052 96.3226C76.8052 97.0614 77.4069 97.6604 78.1491 97.6604Z" fill="#BCBEC0"/>
<path d="M78.1491 122.811C78.8913 122.811 79.493 122.212 79.493 121.473C79.493 120.735 78.8913 120.136 78.1491 120.136C77.4069 120.136 76.8052 120.735 76.8052 121.473C76.8052 122.212 77.4069 122.811 78.1491 122.811Z" fill="#BCBEC0"/>
<path d="M78.1491 148.23C78.8913 148.23 79.493 147.631 79.493 146.892C79.493 146.153 78.8913 145.554 78.1491 145.554C77.4069 145.554 76.8052 146.153 76.8052 146.892C76.8052 147.631 77.4069 148.23 78.1491 148.23Z" fill="#BCBEC0"/>
<path d="M113.898 86.4225C109.06 84.5496 96.9649 80.8037 89.4389 78.3956C89.4389 78.3956 88.6326 198.799 88.6326 232.78C88.6326 232.78 92.9331 235.723 101.534 238.934C105.566 240.271 119.274 240.271 119.274 240.271L121.962 95.5197C122.231 90.9711 118.199 88.2955 113.898 86.4225Z" fill="#34439E"/>
<path d="M45.0894 86.4225C49.9275 84.5496 62.0228 80.8037 69.5488 78.3956C69.5488 78.3956 70.3552 198.799 70.3552 232.78C70.3552 232.78 66.0546 235.723 57.4535 238.934C53.4217 240.271 39.7137 240.271 39.7137 240.271L37.0259 95.5197C37.0259 90.9711 41.0576 88.2955 45.0894 86.4225Z" fill="#34439E"/>
<path d="M89.4396 78.6633L78.4194 90.9712L68.4744 78.6633V68.4959H89.4396V78.6633Z" fill="#F8A899"/>
<path d="M102.071 56.4554C102.071 61.004 90.5135 74.3822 78.9558 74.3822C67.6669 74.3822 55.8403 61.8067 55.8403 56.4554V39.3314C55.8403 26.4883 66.3229 16.3209 78.9558 16.3209C91.8575 16.3209 102.071 26.7559 102.071 39.3314V56.4554Z" fill="#F9B4A8"/>
<path d="M106.204 49.0075C107.057 46.4868 106.266 43.9463 104.437 43.3333C102.608 42.7204 100.434 44.2669 99.5814 46.7877C98.7288 49.3084 99.5202 51.8489 101.349 52.4619C103.178 53.0749 105.352 51.5283 106.204 49.0075Z" fill="#F8A899"/>
<path d="M56.5844 52.4804C58.4133 51.8674 59.2047 49.327 58.352 46.8062C57.4994 44.2855 55.3256 42.7389 53.4967 43.3519C51.6679 43.9649 50.8765 46.5053 51.7291 49.0261C52.5818 51.5469 54.7556 53.0934 56.5844 52.4804Z" fill="#F8A899"/>
<path d="M40.5199 89.098C40.5199 89.098 11.4912 108.898 11.4912 186.491H34.6067C34.6067 186.491 37.8321 145.286 37.8321 136.992C37.8321 112.376 40.5199 89.098 40.5199 89.098Z" fill="#34439E"/>
<path d="M119.005 89.366C119.005 89.366 147.228 108.898 147.228 186.491H124.381C124.381 186.491 121.156 145.287 121.156 136.992C120.887 112.376 119.005 89.366 119.005 89.366Z" fill="#34439E"/>
<path d="M78.4189 90.971C78.4189 90.971 80.3004 87.4927 82.7195 83.7468C84.0634 81.6063 87.5576 79.7333 89.4391 78.3955C89.4391 78.3955 90.783 78.6631 91.5894 78.9306C92.3957 79.1982 94.8148 80.2684 94.8148 80.2684C94.8148 80.2684 92.9333 88.0278 92.3957 89.3656C92.6645 89.6332 85.6761 84.0143 78.4189 90.971Z" fill="#D1D3D4"/>
<path d="M78.419 90.9711C78.419 90.9711 76.5375 87.4928 74.1185 83.7469C72.7746 81.6064 70.3555 79.7334 68.474 78.3956C68.474 78.3956 65.7862 78.6632 64.9798 78.6632C64.1735 78.9308 61.7544 80.001 61.7544 80.001C61.7544 80.001 63.6359 87.7604 64.1735 89.0982C64.1735 89.6333 71.1619 84.0145 78.419 90.9711Z" fill="#D1D3D4"/>
<path d="M56.6471 48.4286H59.335C59.6037 45.753 61.754 38.2612 66.3234 35.0505H90.514C90.514 35.0505 98.3087 37.4585 98.3087 48.4286H101.265C102.609 45.2179 102.878 38.5288 102.609 32.3748C102.34 28.0938 101.265 24.883 96.4272 23.5452C96.4272 23.5452 102.072 13.6454 87.5573 13.6454C87.5573 13.6454 77.6123 13.6454 71.699 13.6454C66.5921 13.6454 54.7656 19.2642 54.7656 37.4585C55.0344 40.6693 56.6471 48.4286 56.6471 48.4286Z" fill="#2C2825"/>
</g>
</svg>
