<svg width="158" height="156" viewBox="0 0 158 156" fill="none" xmlns="http://www.w3.org/2000/svg">
<circle cx="79.7053" cy="78.2947" r="77.5893" fill="#EEF2FA"/>
<mask id="mask0" mask-type="alpha" maskUnits="userSpaceOnUse" x="2" y="0" width="157" height="156">
<circle cx="80.4108" cy="77.5893" r="77.5893" fill="#EEF2FA"/>
</mask>
<g mask="url(#mask0)">
<path d="M52.3925 90.1348C52.3925 90.1348 38.518 94.1372 31.188 129.626C28.3084 143.501 26.9995 144.568 26.9995 164.848H41.1358L48.4657 127.224C48.7275 104.811 52.3925 90.1348 52.3925 90.1348Z" fill="#555BE4"/>
<path d="M86.9483 15.9557C82.7598 13.2874 76.477 9.28489 63.3878 14.6215C52.3929 19.1577 42.9687 37.8359 57.105 81.3295C61.0318 93.6037 58.4139 117.352 52.3929 130.16C52.3929 130.16 97.4197 101.609 100.561 73.0577C102.132 54.6463 99.5139 23.9606 86.9483 15.9557Z" fill="#310072"/>
<path d="M112.603 91.4691C106.32 88.5339 91.1368 81.3295 91.1368 81.3295H72.5502C72.5502 81.3295 61.5553 87.4666 55.2725 90.4017C55.2725 90.4017 47.419 122.422 52.1311 142.434C56.5814 161.913 58.1521 188.329 58.1521 188.329H105.011C105.011 188.329 103.964 161.646 109.985 142.968C118.362 117.619 112.603 91.4691 112.603 91.4691Z" fill="#ECE5E5"/>
<path d="M81.9743 90.1351C82.2361 98.4069 82.4979 106.412 82.4979 114.684L82.7597 139.232L82.4979 163.781C82.4979 172.052 82.2361 180.057 81.9743 188.329C81.7125 180.057 81.4507 172.052 81.4507 163.781L81.189 139.232L81.4507 114.684C81.4507 106.412 81.7125 98.4069 81.9743 90.1351Z" fill="#DAD8D5"/>
<path d="M90.8754 81.3297L81.9747 90.1351L72.5505 81.3297V65.5866H90.8754V81.3297Z" fill="#F8A899"/>
<path d="M101.346 54.6465C99.7757 61.5842 90.0897 74.9258 81.4509 74.9258C74.1209 74.9258 62.0789 63.9857 61.5553 56.5144C61.5553 56.5144 59.7228 43.4396 59.4611 39.1703C58.6757 26.3624 70.456 15.6891 81.4509 15.6891C92.4458 15.6891 104.75 26.0955 103.964 39.1703C103.441 43.7064 102.132 50.3772 101.346 54.6465Z" fill="#F9B4A8"/>
<path d="M90.8751 81.3296L111.294 90.135C111.294 90.135 113.388 91.736 114.174 95.7385C114.697 98.6737 118.362 134.963 107.367 173.387C104.226 184.594 115.221 193.933 116.792 207.274L81.7126 211.81V145.102L90.8751 81.3296Z" fill="#555BE4"/>
<path d="M72.2886 81.3296L51.8695 90.135C51.8695 90.135 49.7753 91.736 48.9899 95.7385C48.4663 98.6737 44.8014 134.963 55.7963 173.387C58.9377 184.594 47.9428 193.933 46.3721 207.274L81.451 211.81V145.102L72.2886 81.3296Z" fill="#555BE4"/>
<path d="M81.9741 90.1349C81.9741 90.1349 91.6601 85.332 97.1576 86.933C97.1576 86.933 96.634 80.7958 90.8748 79.7285V81.3295L81.9741 90.1349Z" fill="#DAD8D5"/>
<path d="M81.9742 90.1349C81.9742 90.1349 72.2882 85.332 66.7908 86.933C66.7908 86.933 66.7908 80.7958 72.55 79.7285V81.3295L81.9742 90.1349Z" fill="#DAD8D5"/>
<g opacity="0.7">
<path opacity="0.7" d="M81.4507 15.4222C74.6443 16.4895 68.6233 19.9583 64.4348 25.0281C62.3405 27.6964 61.0316 30.6316 59.9845 33.8335C59.4609 35.4345 59.1991 37.0355 59.1991 38.9034C58.9373 40.7712 58.9373 42.3722 59.4609 43.9732C58.4138 42.639 58.152 40.5043 57.8902 38.9034C57.6284 37.0355 57.6284 35.1677 57.8902 33.5667C58.4138 29.8311 59.9845 26.3623 62.3405 23.4271C64.6965 20.492 67.5762 18.0905 70.9793 16.7563C74.3825 15.4222 78.0475 14.8885 81.4507 15.4222Z" fill="#391617"/>
</g>
<path d="M81.7128 15.4219C68.3619 15.4219 58.1524 26.6288 58.9377 39.1699C58.9377 40.2372 58.9377 41.8382 59.9848 43.706C61.032 43.706 63.6498 43.9729 64.6969 47.4417C64.6969 47.4417 61.032 33.0328 68.3619 30.3645C72.8122 28.7635 77.5243 34.6338 81.7128 34.6338C90.6135 34.6338 89.8281 27.963 94.5402 29.2971C102.394 31.165 98.467 47.4417 98.467 47.4417C99.5141 43.706 102.132 43.706 103.179 43.706C103.441 41.8382 103.441 40.2372 103.703 39.1699C104.75 26.6288 95.5874 15.4219 81.7128 15.4219Z" fill="#310072"/>
<path d="M104.49 49.5163C105.413 46.7231 104.829 44.0011 103.184 43.4367C101.54 42.8722 99.459 44.6789 98.536 47.4721C97.613 50.2653 98.1976 52.9873 99.8419 53.5517C101.486 54.1162 103.567 52.3095 104.49 49.5163Z" fill="#F9B4A8"/>
<path d="M63.2727 53.599C64.9169 53.0345 65.5015 50.3126 64.5786 47.5194C63.6556 44.7262 61.5744 42.9194 59.9302 43.4839C58.286 44.0484 57.7014 46.7703 58.6243 49.5635C59.5473 52.3567 61.6285 54.1634 63.2727 53.599Z" fill="#F9B4A8"/>
<path d="M101.87 68.5217H99.2522L100.561 59.9831L101.87 51.7113L103.441 59.9831L104.75 68.5217H101.87Z" fill="#FCA70C"/>
<path d="M60.508 68.5216H57.6284L59.1991 59.983L60.508 51.7112L61.817 59.983L63.3876 68.5216H60.508Z" fill="#FCA70C"/>
<path d="M111.556 90.6687C111.556 90.6687 142.185 118.152 159.462 132.828L144.017 145.102L116.53 126.424C116.53 126.157 105.011 98.4068 111.556 90.6687Z" fill="#555BE4"/>
<path d="M159.462 132.828C159.462 132.828 167.839 145.103 161.295 156.576L144.017 144.836L159.462 132.828Z" fill="#555BE4"/>
<path d="M143.755 144.836L116.792 192.599C116.792 192.599 118.624 202.205 125.692 204.339L161.295 156.576L143.755 144.836Z" fill="#555BE4"/>
</g>
</svg>
