<svg width="37" height="37" viewBox="0 0 37 37" fill="none" xmlns="http://www.w3.org/2000/svg">
<circle cx="18.5" cy="18.5" r="18.5" fill="#39C0F8" fill-opacity="0.2"/>
<path d="M21.3574 21.7093C20.8836 21.7093 20.498 21.3756 20.498 20.9655C20.498 20.5553 20.8836 20.2216 21.3574 20.2216C21.8313 20.2216 22.2168 20.5553 22.2168 20.9655C22.2168 21.1812 22.3917 21.3561 22.6074 21.3561C22.8231 21.3561 22.998 21.1812 22.998 20.9655C22.998 20.2496 22.4647 19.6478 21.748 19.4844V19.2812C21.748 19.0655 21.5731 18.8906 21.3574 18.8906C21.1417 18.8906 20.9668 19.0655 20.9668 19.2812V19.4844C20.2502 19.6478 19.7168 20.2496 19.7168 20.9655C19.7168 21.8064 20.4528 22.4905 21.3574 22.4905C21.8313 22.4905 22.2168 22.8242 22.2168 23.2343C22.2168 23.6445 21.8313 23.9782 21.3574 23.9782C20.8836 23.9782 20.498 23.6445 20.498 23.2343C20.498 23.0186 20.3231 22.8437 20.1074 22.8437C19.8917 22.8437 19.7168 23.0186 19.7168 23.2343C19.7168 23.9501 20.2502 24.552 20.9668 24.7154V24.8841C20.9668 25.0998 21.1417 25.2748 21.3574 25.2748C21.5731 25.2748 21.748 25.0998 21.748 24.8841V24.7154C22.4647 24.552 22.998 23.9501 22.998 23.2343C22.998 22.3934 22.2621 21.7093 21.3574 21.7093Z" fill="#39C0F8"/>
<path d="M25.636 19.3858C25.1258 18.5906 24.4069 17.9544 23.5571 17.5459C23.3626 17.4524 23.1292 17.5342 23.0357 17.7287C22.9423 17.9231 23.0241 18.1565 23.2185 18.25C24.6994 18.9619 25.6563 20.4829 25.6563 22.125C25.6563 22.8277 25.4831 23.5245 25.1555 24.1403C25.0541 24.3307 25.1264 24.5673 25.3168 24.6686C25.3753 24.6997 25.4381 24.7145 25.5 24.7145C25.6397 24.7145 25.7749 24.6392 25.8451 24.5072C26.2327 23.779 26.4375 22.9552 26.4375 22.125C26.4375 21.15 26.1604 20.2028 25.636 19.3858Z" fill="#39C0F8"/>
<path d="M21.9716 17.0469L21.9453 17.0469C21.7296 17.0469 21.5547 17.2218 21.5547 17.4375C21.5547 17.6532 21.7296 17.8281 21.9453 17.8281L21.9679 17.8282C21.9686 17.8282 21.9691 17.8282 21.9698 17.8282C22.1847 17.8282 22.3594 17.6545 22.3604 17.4394C22.3614 17.2236 22.1873 17.0479 21.9716 17.0469Z" fill="#39C0F8"/>
<path d="M19.5002 26.0001C18.0193 25.2882 17.0625 23.7672 17.0625 22.1251C17.0625 21.4224 17.2357 20.7256 17.5633 20.1098C17.6646 19.9194 17.5924 19.6828 17.4019 19.5815C17.2116 19.4802 16.9749 19.5524 16.8736 19.7429C16.4861 20.4712 16.2812 21.2949 16.2812 22.1251C16.2812 23.1001 16.5584 24.0473 17.0827 24.8643C17.593 25.6595 18.3119 26.2957 19.1617 26.7043C19.2163 26.7305 19.2739 26.7429 19.3307 26.7429C19.4762 26.7429 19.6158 26.6613 19.683 26.5214C19.7764 26.327 19.6946 26.0936 19.5002 26.0001Z" fill="#39C0F8"/>
<path d="M20.7734 26.4218L20.7508 26.4218C20.5341 26.4214 20.3594 26.5948 20.3584 26.8105C20.3574 27.0263 20.5315 27.202 20.7472 27.203L20.7734 27.2031C20.9891 27.2031 21.164 27.0282 21.164 26.8125C21.164 26.5968 20.9891 26.4218 20.7734 26.4218Z" fill="#39C0F8"/>
<path d="M23.1331 15.7253C23.0856 15.612 23.0274 15.5053 22.9596 15.4062H23.9765C24.9673 15.4062 25.7734 14.6001 25.7734 13.6094C25.7734 12.6186 24.9673 11.8125 23.9765 11.8125H20.8484C21.0473 11.5234 21.164 11.1736 21.164 10.7969C21.164 9.80609 20.3579 9 19.3672 9H9.79687C8.80609 9 8 9.80609 8 10.7969C8 11.7877 8.80609 12.5937 9.79687 12.5937H12.925C12.7261 12.8829 12.6094 13.2327 12.6094 13.6094C12.6094 13.986 12.7261 14.3358 12.925 14.625H11.9062C10.9155 14.625 10.1094 15.4311 10.1094 16.4219C10.1094 16.9909 10.3755 17.4987 10.7896 17.8281C10.3755 18.1576 10.1094 18.6653 10.1094 19.2344C10.1094 19.8034 10.3755 20.3112 10.7896 20.6406C10.3755 20.9701 10.1094 21.4778 10.1094 22.0469C10.1094 22.6159 10.3755 23.1236 10.7896 23.4531C10.3755 23.7825 10.1094 24.2903 10.1094 24.8593C10.1094 25.8501 10.9155 26.6562 11.9062 26.6562H16.5097C17.7225 27.9534 19.4477 28.7656 21.3594 28.7656C25.021 28.7656 28 25.7866 28 22.125C28 19.0775 25.9363 16.5032 23.1331 15.7253ZM23.9765 12.5937C24.5366 12.5937 24.9922 13.0494 24.9922 13.6094C24.9922 14.1694 24.5366 14.625 23.9765 14.625H21.4765H14.4062C13.8462 14.625 13.3906 14.1694 13.3906 13.6094C13.3906 13.0494 13.8462 12.5937 14.4062 12.5937H23.9765ZM9.79687 11.8125C9.23683 11.8125 8.78125 11.3569 8.78125 10.7969C8.78125 10.2369 9.23683 9.78125 9.79687 9.78125H19.3672C19.9272 9.78125 20.3828 10.2369 20.3828 10.7969C20.3828 11.3569 19.9272 11.8125 19.3672 11.8125H9.79687ZM11.9062 15.4062H21.4765C21.6339 15.4062 21.7845 15.4428 21.9197 15.5083C21.7349 15.4928 21.5481 15.4844 21.3594 15.4844C19.5256 15.4844 17.8631 16.2316 16.6602 17.4375H11.9062C11.3462 17.4375 10.8906 16.9819 10.8906 16.4219C10.8906 15.8619 11.3462 15.4062 11.9062 15.4062ZM11.9062 18.2187H15.9928C15.5493 18.8263 15.2065 19.5115 14.9887 20.25H11.9062C11.3462 20.25 10.8906 19.7944 10.8906 19.2344C10.8906 18.6744 11.3462 18.2187 11.9062 18.2187ZM11.9062 21.0312H14.8094C14.7501 21.3872 14.7188 21.7525 14.7188 22.125C14.7188 22.4432 14.7418 22.7561 14.7853 23.0625H11.9062C11.3462 23.0625 10.8906 22.6069 10.8906 22.0469C10.8906 21.4868 11.3462 21.0312 11.9062 21.0312ZM11.9062 25.875C11.3462 25.875 10.8906 25.4194 10.8906 24.8593C10.8906 24.2993 11.3462 23.8437 11.9062 23.8437H14.9448C15.1419 24.5786 15.4621 25.2635 15.882 25.875H11.9062ZM21.3594 27.9844C18.1285 27.9844 15.5 25.3559 15.5 22.125C15.5 18.8942 18.1285 16.2657 21.3594 16.2657C24.5902 16.2657 27.2188 18.8942 27.2188 22.125C27.2188 25.3559 24.5902 27.9844 21.3594 27.9844Z" fill="#39C0F8"/>
</svg>
