<svg width="138" height="160" viewBox="0 0 138 160" fill="none" xmlns="http://www.w3.org/2000/svg">
<circle cx="68" cy="68" r="68" fill="#EEF2FA"/>
<g>
<path d="M79.1131 139.736L76.0912 127.601H60.0478L57.0259 139.736H79.1131Z" fill="#D1D6DE"/>
<path d="M77.2715 132.342L76.091 127.601H60.0476L58.8669 132.342H77.2715Z" fill="#A2ADBC"/>
<path d="M110.648 53.3242H25.4908C21.9118 53.3242 19 56.2362 19 59.8151V122.854C19 126.433 21.9118 129.345 25.4908 129.345H110.648C114.227 129.345 117.139 126.433 117.139 122.854V59.8151C117.139 56.2362 114.227 53.3242 110.648 53.3242Z" fill="#5C9CEE"/>
<path d="M110.648 53.3242H102.754C106.333 53.3242 109.245 56.236 109.245 59.8151V122.854C109.245 126.433 106.333 129.345 102.754 129.345H110.648C114.227 129.345 117.139 126.433 117.139 122.854V59.8151C117.139 56.2362 114.227 53.3242 110.648 53.3242Z" fill="#3580D3"/>
<path d="M19 116.684V122.854C19 126.433 21.9118 129.345 25.4908 129.345H110.648C114.227 129.345 117.139 126.433 117.139 122.854V116.684H19Z" fill="#EBEEF2"/>
<path d="M109.245 122.854C109.245 126.433 106.333 129.345 102.754 129.345H110.648C114.227 129.345 117.139 126.433 117.139 122.854V116.684H109.245V122.854Z" fill="#D1D6DE"/>
<path d="M34.2769 67.2515V72.5574H84.4229C84.8081 72.5574 85.1202 72.2453 85.1202 71.8601V67.9487C85.1202 67.5636 84.8081 67.2515 84.4229 67.2515H34.2769Z" fill="#9FD479"/>
<path d="M34.2769 76.8694C33.3142 76.8694 32.5337 76.0891 32.5337 75.1262V64.6821C32.5337 63.7192 33.3142 62.939 34.2769 62.939C35.2395 62.939 36.02 63.7192 36.02 64.6821V75.1262C36.02 76.0894 35.2398 76.8694 34.2769 76.8694Z" fill="#1B3D66"/>
<path d="M34.2769 84.1055V89.4114H64.8881C65.2733 89.4114 65.5854 89.0993 65.5854 88.7142V84.8027C65.5854 84.4176 65.2733 84.1055 64.8881 84.1055H34.2769Z" fill="#ED5575"/>
<path d="M34.2769 93.7234C33.3142 93.7234 32.5337 92.9431 32.5337 91.9802V81.5361C32.5337 80.5732 33.3142 79.793 34.2769 79.793C35.2395 79.793 36.02 80.5732 36.02 81.5361V91.9802C36.02 92.9429 35.2398 93.7234 34.2769 93.7234Z" fill="#1B3D66"/>
<path d="M34.2769 100.959V106.265H75.8891C76.2742 106.265 76.5864 105.953 76.5864 105.568V101.657C76.5864 101.272 76.2742 100.959 75.8891 100.959H34.2769Z" fill="#F2DF33"/>
<path d="M34.2769 110.577C33.3142 110.577 32.5337 109.797 32.5337 108.834V98.3901C32.5337 97.4272 33.3142 96.647 34.2769 96.647C35.2395 96.647 36.02 97.4272 36.02 98.3901V108.834C36.02 109.797 35.2398 110.577 34.2769 110.577Z" fill="#1B3D66"/>
<path d="M112.244 70.1646C98.0419 70.1646 86.4878 81.7187 86.4878 95.9206C86.4878 110.122 98.0419 121.677 112.244 121.677C126.446 121.677 138 110.123 138 95.9208C138 81.7187 126.446 70.1646 112.244 70.1646Z" fill="#48CFB7"/>
<path d="M120.116 71.3975C127.835 75.8507 133.041 84.1906 133.041 93.7239C133.041 107.926 121.487 119.48 107.285 119.48C104.541 119.48 101.895 119.047 99.4126 118.248C103.193 120.428 107.575 121.677 112.244 121.677C126.446 121.677 138 110.123 138 95.9214C138 84.4642 130.479 74.732 120.116 71.3975Z" fill="#35B5A0"/>
<path d="M112.244 84.7363C104.454 84.7363 97.7363 89.3122 94.6233 95.9209C97.7363 102.53 104.454 107.105 112.244 107.105C120.033 107.105 126.751 102.53 129.864 95.9209C126.751 89.3125 120.033 84.7363 112.244 84.7363Z" fill="#EBEEF2"/>
<path d="M112.244 86.7832C110.618 86.7832 109.093 87.2095 107.77 87.9537C108.963 88.6942 109.761 90.012 109.761 91.5195C109.761 93.8381 107.881 95.7177 105.562 95.7177C104.667 95.7177 103.838 95.4349 103.157 94.957C103.123 95.274 103.106 95.5957 103.106 95.9213C103.106 100.968 107.197 105.059 112.244 105.059C117.291 105.059 121.382 100.968 121.382 95.9213C121.382 90.8745 117.291 86.7832 112.244 86.7832Z" fill="#2E344C"/>
<path d="M86.2286 137.993H49.9102C47.0168 137.993 44.6626 140.347 44.6626 143.24V145.933C44.6626 146.896 45.4431 147.676 46.4058 147.676H89.7331C90.696 147.676 91.4762 146.896 91.4762 145.933V143.24C91.4762 140.346 89.122 137.993 86.2286 137.993Z" fill="#EBEEF2"/>
<path d="M86.2287 137.993H80.0972C82.9906 137.993 85.3448 140.347 85.3448 143.24V145.933C85.3448 146.896 84.5645 147.676 83.6016 147.676H89.7331C90.6961 147.676 91.4763 146.896 91.4763 145.933V143.24C91.4763 140.346 89.1221 137.993 86.2287 137.993Z" fill="#D1D6DE"/>
</g>
<defs>
</defs>
</svg>
