<svg width="70" height="71" viewBox="0 0 70 71" fill="none" xmlns="http://www.w3.org/2000/svg">
<circle cx="35" cy="35.8711" r="35" fill="#7057D6" fill-opacity="0.2"/>
<path d="M25.6876 22.8711C27.9068 22.8711 29.7296 23.5858 31.1562 25.0152C32.5828 26.3917 33.296 28.2182 33.296 30.4946C33.296 31.5534 33.1639 32.6123 32.8998 33.6711C32.6356 34.7299 32.0808 36.3182 31.2354 38.4358L26.6387 49.8711H18.7925L22.2005 37.324C20.8796 36.7417 19.8493 35.8682 19.1096 34.7035C18.3699 33.5387 18 32.1358 18 30.4946C18 28.2182 18.7133 26.3917 20.1399 25.0152C21.6193 23.5858 23.4685 22.8711 25.6876 22.8711ZM44.3916 22.8711C46.6107 22.8711 48.4336 23.5858 49.8601 25.0152C51.2867 26.3917 52 28.2182 52 30.4946C52 31.5534 51.8679 32.6123 51.6037 33.6711C51.3396 34.7299 50.7848 36.3182 49.9394 38.4358L45.3427 49.8711H37.4965L40.9044 37.324C39.5835 36.7417 38.5532 35.8682 37.8135 34.7035C37.0738 33.5387 36.704 32.1358 36.704 30.4946C36.704 28.2182 37.4173 26.3917 38.8438 25.0152C40.3232 23.5858 42.1725 22.8711 44.3916 22.8711Z" fill="white"/>
</svg>
