<svg width="627" height="361" viewBox="0 0 627 361" fill="none" xmlns="http://www.w3.org/2000/svg">
<path d="M74.0704 0C65.2416 0 57.8843 7.35877 57.8843 16.1893V344.811C57.8843 353.641 65.2416 361 74.0704 361H551.455C560.284 361 567.641 353.641 567.641 344.811V16.1893C567.641 7.35877 560.284 0 551.455 0H74.0704Z" fill="#EEF2FA"/>
<path d="M490.413 353.531H135.735H0C0 353.531 6.72374 361 27.3152 361H135.525H490.413H598.833C619.424 361 626.148 353.531 626.148 353.531H490.413Z" fill="#5A77D1"/>
<path d="M626.148 341.083H0V353.531H626.148V341.083Z" fill="#DCDEE2"/>
<path d="M357.266 342.95H269.505C269.505 345.631 272.025 347.93 274.964 347.93H351.807C354.746 347.93 357.266 345.823 357.266 342.95Z" fill="#5A77D1"/>
<rect x="71" y="24" width="487" height="303" fill="white"/>
<path d="M508.6 116.3H369.3C362.9 116.3 357.7 121.5 357.7 127.9V175.1C357.7 181.5 362.9 186.7 369.3 186.7H508.6C515 186.7 520.2 181.5 520.2 175.1V127.9C520.2 121.6 515 116.3 508.6 116.3Z" fill="#D4EEFF"/>
<path d="M347 116.3H375.5L363 132.4L347 116.3Z" fill="#D4EEFF"/>
<path d="M373.09 130H378.37V130.85H374.08V132.85H376.26C377.093 132.85 377.727 133.023 378.16 133.37C378.593 133.716 378.81 134.216 378.81 134.87C378.81 135.556 378.573 136.083 378.1 136.45C377.633 136.816 376.963 137 376.09 137H373.09V130ZM376.05 136.21C376.623 136.21 377.06 136.1 377.36 135.88C377.66 135.66 377.81 135.336 377.81 134.91C377.81 134.063 377.223 133.64 376.05 133.64H374.08V136.21H376.05ZM384.838 131.7L382.268 137.53C382.041 138.07 381.774 138.45 381.468 138.67C381.168 138.89 380.804 139 380.378 139C380.118 139 379.864 138.956 379.618 138.87C379.378 138.79 379.178 138.67 379.018 138.51L379.428 137.79C379.701 138.05 380.018 138.18 380.378 138.18C380.611 138.18 380.804 138.116 380.958 137.99C381.118 137.87 381.261 137.66 381.388 137.36L381.558 136.99L379.218 131.7H380.218L382.068 135.94L383.898 131.7H384.838ZM388.828 137L387.298 134.97L385.748 137H384.678L386.768 134.29L384.778 131.7H385.848L387.308 133.61L388.758 131.7H389.808L387.808 134.29L389.918 137H388.828ZM394.828 132.54H391.888V137H390.928V131.7H394.828V132.54ZM397.701 131.65C398.434 131.65 398.994 131.83 399.381 132.19C399.774 132.55 399.971 133.086 399.971 133.8V137H399.061V136.3C398.901 136.546 398.671 136.736 398.371 136.87C398.078 136.996 397.728 137.06 397.321 137.06C396.728 137.06 396.251 136.916 395.891 136.63C395.538 136.343 395.361 135.966 395.361 135.5C395.361 135.033 395.531 134.66 395.871 134.38C396.211 134.093 396.751 133.95 397.491 133.95H399.011V133.76C399.011 133.346 398.891 133.03 398.651 132.81C398.411 132.59 398.058 132.48 397.591 132.48C397.278 132.48 396.971 132.533 396.671 132.64C396.371 132.74 396.118 132.876 395.911 133.05L395.511 132.33C395.784 132.11 396.111 131.943 396.491 131.83C396.871 131.71 397.274 131.65 397.701 131.65ZM397.481 136.32C397.848 136.32 398.164 136.24 398.431 136.08C398.698 135.913 398.891 135.68 399.011 135.38V134.64H397.531C396.718 134.64 396.311 134.913 396.311 135.46C396.311 135.726 396.414 135.936 396.621 136.09C396.828 136.243 397.114 136.32 397.481 136.32ZM406.25 131.7V137H405.29V132.54H403.01L402.95 133.72C402.916 134.433 402.853 135.03 402.76 135.51C402.666 135.983 402.513 136.363 402.3 136.65C402.086 136.936 401.79 137.08 401.41 137.08C401.236 137.08 401.04 137.05 400.82 136.99L400.88 136.18C400.966 136.2 401.046 136.21 401.12 136.21C401.386 136.21 401.586 136.093 401.72 135.86C401.853 135.626 401.94 135.35 401.98 135.03C402.02 134.71 402.056 134.253 402.09 133.66L402.18 131.7H406.25ZM412.056 132.54H410.116V137H409.156V132.54H407.216V131.7H412.056V132.54ZM417.593 134.38C417.593 134.453 417.586 134.55 417.573 134.67H413.273C413.333 135.136 413.536 135.513 413.883 135.8C414.236 136.08 414.673 136.22 415.193 136.22C415.826 136.22 416.336 136.006 416.723 135.58L417.253 136.2C417.013 136.48 416.713 136.693 416.353 136.84C416 136.986 415.603 137.06 415.163 137.06C414.603 137.06 414.106 136.946 413.673 136.72C413.24 136.486 412.903 136.163 412.663 135.75C412.43 135.336 412.313 134.87 412.313 134.35C412.313 133.836 412.426 133.373 412.653 132.96C412.886 132.546 413.203 132.226 413.603 132C414.01 131.766 414.466 131.65 414.973 131.65C415.48 131.65 415.93 131.766 416.323 132C416.723 132.226 417.033 132.546 417.253 132.96C417.48 133.373 417.593 133.846 417.593 134.38ZM414.973 132.46C414.513 132.46 414.126 132.6 413.813 132.88C413.506 133.16 413.326 133.526 413.273 133.98H416.673C416.62 133.533 416.436 133.17 416.123 132.89C415.816 132.603 415.433 132.46 414.973 132.46ZM421.892 131.65C422.406 131.65 422.866 131.763 423.272 131.99C423.679 132.216 423.996 132.533 424.222 132.94C424.456 133.346 424.572 133.816 424.572 134.35C424.572 134.883 424.456 135.356 424.222 135.77C423.996 136.176 423.679 136.493 423.272 136.72C422.866 136.946 422.406 137.06 421.892 137.06C421.512 137.06 421.162 136.986 420.842 136.84C420.529 136.693 420.262 136.48 420.042 136.2V138.94H419.082V131.7H420.002V132.54C420.216 132.246 420.486 132.026 420.812 131.88C421.139 131.726 421.499 131.65 421.892 131.65ZM421.812 136.22C422.152 136.22 422.456 136.143 422.722 135.99C422.996 135.83 423.209 135.61 423.362 135.33C423.522 135.043 423.602 134.716 423.602 134.35C423.602 133.983 423.522 133.66 423.362 133.38C423.209 133.093 422.996 132.873 422.722 132.72C422.456 132.566 422.152 132.49 421.812 132.49C421.479 132.49 421.176 132.57 420.902 132.73C420.636 132.883 420.422 133.1 420.262 133.38C420.109 133.66 420.032 133.983 420.032 134.35C420.032 134.716 420.109 135.043 420.262 135.33C420.416 135.61 420.629 135.83 420.902 135.99C421.176 136.143 421.479 136.22 421.812 136.22Z" fill="#5E9EEB"/>
<path d="M326.5 163.3C338.153 163.3 347.6 153.853 347.6 142.2C347.6 130.547 338.153 121.1 326.5 121.1C314.847 121.1 305.4 130.547 305.4 142.2C305.4 153.853 314.847 163.3 326.5 163.3Z" fill="#D4EEFF"/>
<path d="M508.436 235H369.564C363.184 235 358 241.362 358 249.191V289.809C358 297.638 363.184 304 369.564 304H508.436C514.816 304 520 297.638 520 289.809V249.191C520 241.484 514.816 235 508.436 235Z" fill="#D4EEFF"/>
<path d="M347 235.3H375.5L363 251.4L347 235.3Z" fill="#D4EEFF"/>
<path d="M398.828 271.724L391.103 264H374V296H398.828V271.724Z" fill="white"/>
<path d="M379.517 276.69H393.31C393.615 276.69 393.862 276.443 393.862 276.138C393.862 275.833 393.615 275.586 393.31 275.586H379.517C379.213 275.586 378.965 275.833 378.965 276.138C378.965 276.443 379.213 276.69 379.517 276.69Z" fill="#D5D0BB"/>
<path d="M379.517 272.276H385.034C385.339 272.276 385.586 272.029 385.586 271.724C385.586 271.419 385.339 271.172 385.034 271.172H379.517C379.213 271.172 378.965 271.419 378.965 271.724C378.965 272.029 379.213 272.276 379.517 272.276Z" fill="#D5D0BB"/>
<path d="M393.31 280H379.517C379.213 280 378.965 280.247 378.965 280.552C378.965 280.857 379.213 281.103 379.517 281.103H393.31C393.615 281.103 393.862 280.857 393.862 280.552C393.862 280.247 393.615 280 393.31 280Z" fill="#D5D0BB"/>
<path d="M393.31 284.414H379.517C379.213 284.414 378.965 284.66 378.965 284.965C378.965 285.271 379.213 285.517 379.517 285.517H393.31C393.615 285.517 393.862 285.271 393.862 284.965C393.862 284.66 393.615 284.414 393.31 284.414Z" fill="#D5D0BB"/>
<path d="M393.31 288.828H379.517C379.213 288.828 378.965 289.074 378.965 289.379C378.965 289.684 379.213 289.931 379.517 289.931H393.31C393.615 289.931 393.862 289.684 393.862 289.379C393.862 289.074 393.615 288.828 393.31 288.828Z" fill="#D5D0BB"/>
<path d="M391.104 264V271.724H398.828L391.104 264Z" fill="#D5D0BB"/>
<path d="M404.345 283.862H392.207V296H404.345V283.862Z" fill="#21AE5E"/>
<path d="M398.828 284.737H397.724V293.565H398.828V284.737Z" fill="white"/>
<path d="M398.276 294.345L394.414 290.644L395.228 289.864L398.276 292.785L401.324 289.864L402.138 290.644L398.276 294.345Z" fill="white"/>
<path d="M326.5 282.3C338.153 282.3 347.6 272.853 347.6 261.2C347.6 249.547 338.153 240.1 326.5 240.1C314.847 240.1 305.4 249.547 305.4 261.2C305.4 272.853 314.847 282.3 326.5 282.3Z" fill="#D4EEFF"/>
<path d="M291.2 60.9998H268.9H262.7H129.6C123.2 60.9998 118 66.1998 118 72.5998V99.7998C118 106.2 123.2 111.4 129.6 111.4H268.9C275.3 111.4 280.5 106.2 280.5 99.7998V72.5998C280.5 72.2998 280.5 71.9998 280.5 71.7998L291.2 60.9998Z" fill="#5E9EEB"/>
<path d="M139.64 79.2495H135.92L135.15 80.9995H134.12L137.29 73.9995H138.28L141.46 80.9995H140.41L139.64 79.2495ZM139.29 78.4495L137.78 75.0195L136.27 78.4495H139.29ZM142.508 75.6995H143.468V77.9495H146.488V75.6995H147.448V80.9995H146.488V78.7795H143.468V80.9995H142.508V75.6995ZM149.315 75.6995H150.275V77.9495H153.295V75.6995H154.255V80.9995H153.295V78.7795H150.275V80.9995H149.315V75.6995ZM158.011 75.6495C158.745 75.6495 159.305 75.8295 159.691 76.1895C160.085 76.5495 160.281 77.0862 160.281 77.7995V80.9995H159.371V80.2995C159.211 80.5462 158.981 80.7362 158.681 80.8695C158.388 80.9962 158.038 81.0595 157.631 81.0595C157.038 81.0595 156.561 80.9162 156.201 80.6295C155.848 80.3428 155.671 79.9662 155.671 79.4995C155.671 79.0328 155.841 78.6595 156.181 78.3795C156.521 78.0928 157.061 77.9495 157.801 77.9495H159.321V77.7595C159.321 77.3462 159.201 77.0295 158.961 76.8095C158.721 76.5895 158.368 76.4795 157.901 76.4795C157.588 76.4795 157.281 76.5328 156.981 76.6395C156.681 76.7395 156.428 76.8762 156.221 77.0495L155.821 76.3295C156.095 76.1095 156.421 75.9428 156.801 75.8295C157.181 75.7095 157.585 75.6495 158.011 75.6495ZM157.791 80.3195C158.158 80.3195 158.475 80.2395 158.741 80.0795C159.008 79.9128 159.201 79.6795 159.321 79.3795V78.6395H157.841C157.028 78.6395 156.621 78.9128 156.621 79.4595C156.621 79.7262 156.725 79.9362 156.931 80.0895C157.138 80.2428 157.425 80.3195 157.791 80.3195ZM171.526 80.1295V82.5295H170.596V80.9995H164.836L164.826 82.5295H163.896L163.906 80.1295H164.246C164.686 80.1028 164.996 79.7562 165.176 79.0895C165.356 78.4162 165.466 77.4695 165.506 76.2495L165.576 73.9995H170.496V80.1295H171.526ZM166.386 76.3395C166.352 77.3262 166.272 78.1428 166.146 78.7895C166.026 79.4362 165.829 79.8828 165.556 80.1295H169.506V74.8695H166.436L166.386 76.3395ZM177.406 78.3795C177.406 78.4528 177.399 78.5495 177.386 78.6695H173.086C173.146 79.1362 173.349 79.5128 173.696 79.7995C174.049 80.0795 174.486 80.2195 175.006 80.2195C175.639 80.2195 176.149 80.0062 176.536 79.5795L177.066 80.1995C176.826 80.4795 176.526 80.6928 176.166 80.8395C175.812 80.9862 175.416 81.0595 174.976 81.0595C174.416 81.0595 173.919 80.9462 173.486 80.7195C173.052 80.4862 172.716 80.1628 172.476 79.7495C172.242 79.3362 172.126 78.8695 172.126 78.3495C172.126 77.8362 172.239 77.3728 172.466 76.9595C172.699 76.5462 173.016 76.2262 173.416 75.9995C173.822 75.7662 174.279 75.6495 174.786 75.6495C175.292 75.6495 175.742 75.7662 176.136 75.9995C176.536 76.2262 176.846 76.5462 177.066 76.9595C177.292 77.3728 177.406 77.8462 177.406 78.3795ZM174.786 76.4595C174.326 76.4595 173.939 76.5995 173.626 76.8795C173.319 77.1595 173.139 77.5262 173.086 77.9795H176.486C176.432 77.5328 176.249 77.1695 175.936 76.8895C175.629 76.6028 175.246 76.4595 174.786 76.4595ZM178.895 75.6995H179.855V77.9495H182.875V75.6995H183.835V80.9995H182.875V78.7795H179.855V80.9995H178.895V75.6995ZM185.701 75.6995H186.661V79.5595L189.911 75.6995H190.781V80.9995H189.821V77.1395L186.581 80.9995H185.701V75.6995ZM194.955 81.0595C194.415 81.0595 193.932 80.9428 193.505 80.7095C193.085 80.4762 192.755 80.1562 192.515 79.7495C192.275 79.3362 192.155 78.8695 192.155 78.3495C192.155 77.8295 192.275 77.3662 192.515 76.9595C192.755 76.5462 193.085 76.2262 193.505 75.9995C193.932 75.7662 194.415 75.6495 194.955 75.6495C195.435 75.6495 195.862 75.7462 196.235 75.9395C196.615 76.1328 196.908 76.4128 197.115 76.7795L196.385 77.2495C196.218 76.9962 196.012 76.8062 195.765 76.6795C195.518 76.5528 195.245 76.4895 194.945 76.4895C194.598 76.4895 194.285 76.5662 194.005 76.7195C193.732 76.8728 193.515 77.0928 193.355 77.3795C193.202 77.6595 193.125 77.9828 193.125 78.3495C193.125 78.7228 193.202 79.0528 193.355 79.3395C193.515 79.6195 193.732 79.8362 194.005 79.9895C194.285 80.1428 194.598 80.2195 194.945 80.2195C195.245 80.2195 195.518 80.1562 195.765 80.0295C196.012 79.9028 196.218 79.7128 196.385 79.4595L197.115 79.9195C196.908 80.2862 196.615 80.5695 196.235 80.7695C195.862 80.9628 195.435 81.0595 194.955 81.0595ZM200.55 81.0595C200.023 81.0595 199.55 80.9428 199.13 80.7095C198.71 80.4762 198.38 80.1562 198.14 79.7495C197.906 79.3362 197.79 78.8695 197.79 78.3495C197.79 77.8295 197.906 77.3662 198.14 76.9595C198.38 76.5462 198.71 76.2262 199.13 75.9995C199.55 75.7662 200.023 75.6495 200.55 75.6495C201.076 75.6495 201.546 75.7662 201.96 75.9995C202.38 76.2262 202.706 76.5462 202.94 76.9595C203.18 77.3662 203.3 77.8295 203.3 78.3495C203.3 78.8695 203.18 79.3362 202.94 79.7495C202.706 80.1562 202.38 80.4762 201.96 80.7095C201.546 80.9428 201.076 81.0595 200.55 81.0595ZM200.55 80.2195C200.89 80.2195 201.193 80.1428 201.46 79.9895C201.733 79.8295 201.946 79.6095 202.1 79.3295C202.253 79.0428 202.33 78.7162 202.33 78.3495C202.33 77.9828 202.253 77.6595 202.1 77.3795C201.946 77.0928 201.733 76.8728 201.46 76.7195C201.193 76.5662 200.89 76.4895 200.55 76.4895C200.21 76.4895 199.903 76.5662 199.63 76.7195C199.363 76.8728 199.15 77.0928 198.99 77.3795C198.836 77.6595 198.76 77.9828 198.76 78.3495C198.76 78.7162 198.836 79.0428 198.99 79.3295C199.15 79.6095 199.363 79.8295 199.63 79.9895C199.903 80.1428 200.21 80.2195 200.55 80.2195ZM208.296 78.2495C208.983 78.4228 209.326 78.8528 209.326 79.5395C209.326 80.0062 209.149 80.3662 208.796 80.6195C208.449 80.8728 207.929 80.9995 207.236 80.9995H204.686V75.6995H207.146C207.773 75.6995 208.263 75.8195 208.616 76.0595C208.969 76.2928 209.146 76.6262 209.146 77.0595C209.146 77.3395 209.069 77.5828 208.916 77.7895C208.769 77.9895 208.563 78.1428 208.296 78.2495ZM205.626 77.9795H207.066C207.433 77.9795 207.709 77.9128 207.896 77.7795C208.089 77.6462 208.186 77.4528 208.186 77.1995C208.186 76.6928 207.813 76.4395 207.066 76.4395H205.626V77.9795ZM207.166 80.2595C207.566 80.2595 207.866 80.1962 208.066 80.0695C208.266 79.9428 208.366 79.7462 208.366 79.4795C208.366 79.2062 208.273 79.0028 208.086 78.8695C207.906 78.7362 207.619 78.6695 207.226 78.6695H205.626V80.2595H207.166ZM212.718 75.6495C213.452 75.6495 214.012 75.8295 214.398 76.1895C214.792 76.5495 214.988 77.0862 214.988 77.7995V80.9995H214.078V80.2995C213.918 80.5462 213.688 80.7362 213.388 80.8695C213.095 80.9962 212.745 81.0595 212.338 81.0595C211.745 81.0595 211.268 80.9162 210.908 80.6295C210.555 80.3428 210.378 79.9662 210.378 79.4995C210.378 79.0328 210.548 78.6595 210.888 78.3795C211.228 78.0928 211.768 77.9495 212.508 77.9495H214.028V77.7595C214.028 77.3462 213.908 77.0295 213.668 76.8095C213.428 76.5895 213.075 76.4795 212.608 76.4795C212.295 76.4795 211.988 76.5328 211.688 76.6395C211.388 76.7395 211.135 76.8762 210.928 77.0495L210.528 76.3295C210.802 76.1095 211.128 75.9428 211.508 75.8295C211.888 75.7095 212.292 75.6495 212.718 75.6495ZM212.498 80.3195C212.865 80.3195 213.182 80.2395 213.448 80.0795C213.715 79.9128 213.908 79.6795 214.028 79.3795V78.6395H212.548C211.735 78.6395 211.328 78.9128 211.328 79.4595C211.328 79.7262 211.432 79.9362 211.638 80.0895C211.845 80.2428 212.132 80.3195 212.498 80.3195Z" fill="white"/>
<path d="M260.2 89.4998H134.2V92.9998H260.2V89.4998Z" fill="white"/>
<path d="M210.2 101H134.2V97.4998H210.2V101Z" fill="white"/>
<path d="M291.2 181H268.9H262.7H129.6C123.2 181 118 186.2 118 192.6V219.8C118 226.2 123.2 231.4 129.6 231.4H268.9C275.3 231.4 280.5 226.2 280.5 219.8V192.6C280.5 192.3 280.5 192 280.5 191.8L291.2 181Z" fill="#5E9EEB"/>
<path d="M139.64 199.25H135.92L135.15 201H134.12L137.29 194H138.28L141.46 201H140.41L139.64 199.25ZM139.29 198.45L137.78 195.02L136.27 198.45H139.29ZM142.508 195.7H143.468V197.95H146.488V195.7H147.448V201H146.488V198.78H143.468V201H142.508V195.7ZM149.315 195.7H150.275V197.95H153.295V195.7H154.255V201H153.295V198.78H150.275V201H149.315V195.7ZM158.011 195.65C158.745 195.65 159.305 195.83 159.691 196.19C160.085 196.55 160.281 197.086 160.281 197.8V201H159.371V200.3C159.211 200.546 158.981 200.736 158.681 200.87C158.388 200.996 158.038 201.06 157.631 201.06C157.038 201.06 156.561 200.916 156.201 200.63C155.848 200.343 155.671 199.966 155.671 199.5C155.671 199.033 155.841 198.66 156.181 198.38C156.521 198.093 157.061 197.95 157.801 197.95H159.321V197.76C159.321 197.346 159.201 197.03 158.961 196.81C158.721 196.59 158.368 196.48 157.901 196.48C157.588 196.48 157.281 196.533 156.981 196.64C156.681 196.74 156.428 196.876 156.221 197.05L155.821 196.33C156.095 196.11 156.421 195.943 156.801 195.83C157.181 195.71 157.585 195.65 158.011 195.65ZM157.791 200.32C158.158 200.32 158.475 200.24 158.741 200.08C159.008 199.913 159.201 199.68 159.321 199.38V198.64H157.841C157.028 198.64 156.621 198.913 156.621 199.46C156.621 199.726 156.725 199.936 156.931 200.09C157.138 200.243 157.425 200.32 157.791 200.32ZM171.526 200.13V202.53H170.596V201H164.836L164.826 202.53H163.896L163.906 200.13H164.246C164.686 200.103 164.996 199.756 165.176 199.09C165.356 198.416 165.466 197.47 165.506 196.25L165.576 194H170.496V200.13H171.526ZM166.386 196.34C166.352 197.326 166.272 198.143 166.146 198.79C166.026 199.436 165.829 199.883 165.556 200.13H169.506V194.87H166.436L166.386 196.34ZM177.406 198.38C177.406 198.453 177.399 198.55 177.386 198.67H173.086C173.146 199.136 173.349 199.513 173.696 199.8C174.049 200.08 174.486 200.22 175.006 200.22C175.639 200.22 176.149 200.006 176.536 199.58L177.066 200.2C176.826 200.48 176.526 200.693 176.166 200.84C175.812 200.986 175.416 201.06 174.976 201.06C174.416 201.06 173.919 200.946 173.486 200.72C173.052 200.486 172.716 200.163 172.476 199.75C172.242 199.336 172.126 198.87 172.126 198.35C172.126 197.836 172.239 197.373 172.466 196.96C172.699 196.546 173.016 196.226 173.416 196C173.822 195.766 174.279 195.65 174.786 195.65C175.292 195.65 175.742 195.766 176.136 196C176.536 196.226 176.846 196.546 177.066 196.96C177.292 197.373 177.406 197.846 177.406 198.38ZM174.786 196.46C174.326 196.46 173.939 196.6 173.626 196.88C173.319 197.16 173.139 197.526 173.086 197.98H176.486C176.432 197.533 176.249 197.17 175.936 196.89C175.629 196.603 175.246 196.46 174.786 196.46ZM178.895 195.7H179.855V197.95H182.875V195.7H183.835V201H182.875V198.78H179.855V201H178.895V195.7ZM185.701 195.7H186.661V199.56L189.911 195.7H190.781V201H189.821V197.14L186.581 201H185.701V195.7ZM194.955 201.06C194.415 201.06 193.932 200.943 193.505 200.71C193.085 200.476 192.755 200.156 192.515 199.75C192.275 199.336 192.155 198.87 192.155 198.35C192.155 197.83 192.275 197.366 192.515 196.96C192.755 196.546 193.085 196.226 193.505 196C193.932 195.766 194.415 195.65 194.955 195.65C195.435 195.65 195.862 195.746 196.235 195.94C196.615 196.133 196.908 196.413 197.115 196.78L196.385 197.25C196.218 196.996 196.012 196.806 195.765 196.68C195.518 196.553 195.245 196.49 194.945 196.49C194.598 196.49 194.285 196.566 194.005 196.72C193.732 196.873 193.515 197.093 193.355 197.38C193.202 197.66 193.125 197.983 193.125 198.35C193.125 198.723 193.202 199.053 193.355 199.34C193.515 199.62 193.732 199.836 194.005 199.99C194.285 200.143 194.598 200.22 194.945 200.22C195.245 200.22 195.518 200.156 195.765 200.03C196.012 199.903 196.218 199.713 196.385 199.46L197.115 199.92C196.908 200.286 196.615 200.57 196.235 200.77C195.862 200.963 195.435 201.06 194.955 201.06ZM200.55 201.06C200.023 201.06 199.55 200.943 199.13 200.71C198.71 200.476 198.38 200.156 198.14 199.75C197.906 199.336 197.79 198.87 197.79 198.35C197.79 197.83 197.906 197.366 198.14 196.96C198.38 196.546 198.71 196.226 199.13 196C199.55 195.766 200.023 195.65 200.55 195.65C201.076 195.65 201.546 195.766 201.96 196C202.38 196.226 202.706 196.546 202.94 196.96C203.18 197.366 203.3 197.83 203.3 198.35C203.3 198.87 203.18 199.336 202.94 199.75C202.706 200.156 202.38 200.476 201.96 200.71C201.546 200.943 201.076 201.06 200.55 201.06ZM200.55 200.22C200.89 200.22 201.193 200.143 201.46 199.99C201.733 199.83 201.946 199.61 202.1 199.33C202.253 199.043 202.33 198.716 202.33 198.35C202.33 197.983 202.253 197.66 202.1 197.38C201.946 197.093 201.733 196.873 201.46 196.72C201.193 196.566 200.89 196.49 200.55 196.49C200.21 196.49 199.903 196.566 199.63 196.72C199.363 196.873 199.15 197.093 198.99 197.38C198.836 197.66 198.76 197.983 198.76 198.35C198.76 198.716 198.836 199.043 198.99 199.33C199.15 199.61 199.363 199.83 199.63 199.99C199.903 200.143 200.21 200.22 200.55 200.22ZM208.296 198.25C208.983 198.423 209.326 198.853 209.326 199.54C209.326 200.006 209.149 200.366 208.796 200.62C208.449 200.873 207.929 201 207.236 201H204.686V195.7H207.146C207.773 195.7 208.263 195.82 208.616 196.06C208.969 196.293 209.146 196.626 209.146 197.06C209.146 197.34 209.069 197.583 208.916 197.79C208.769 197.99 208.563 198.143 208.296 198.25ZM205.626 197.98H207.066C207.433 197.98 207.709 197.913 207.896 197.78C208.089 197.646 208.186 197.453 208.186 197.2C208.186 196.693 207.813 196.44 207.066 196.44H205.626V197.98ZM207.166 200.26C207.566 200.26 207.866 200.196 208.066 200.07C208.266 199.943 208.366 199.746 208.366 199.48C208.366 199.206 208.273 199.003 208.086 198.87C207.906 198.736 207.619 198.67 207.226 198.67H205.626V200.26H207.166ZM212.718 195.65C213.452 195.65 214.012 195.83 214.398 196.19C214.792 196.55 214.988 197.086 214.988 197.8V201H214.078V200.3C213.918 200.546 213.688 200.736 213.388 200.87C213.095 200.996 212.745 201.06 212.338 201.06C211.745 201.06 211.268 200.916 210.908 200.63C210.555 200.343 210.378 199.966 210.378 199.5C210.378 199.033 210.548 198.66 210.888 198.38C211.228 198.093 211.768 197.95 212.508 197.95H214.028V197.76C214.028 197.346 213.908 197.03 213.668 196.81C213.428 196.59 213.075 196.48 212.608 196.48C212.295 196.48 211.988 196.533 211.688 196.64C211.388 196.74 211.135 196.876 210.928 197.05L210.528 196.33C210.802 196.11 211.128 195.943 211.508 195.83C211.888 195.71 212.292 195.65 212.718 195.65ZM212.498 200.32C212.865 200.32 213.182 200.24 213.448 200.08C213.715 199.913 213.908 199.68 214.028 199.38V198.64H212.548C211.735 198.64 211.328 198.913 211.328 199.46C211.328 199.726 211.432 199.936 211.638 200.09C211.845 200.243 212.132 200.32 212.498 200.32Z" fill="white"/>
<mask id="mask0" mask-type="alpha" maskUnits="userSpaceOnUse" x="305" y="120" width="43" height="44">
<path d="M326.1 163.2C337.753 163.2 347.2 153.753 347.2 142.1C347.2 130.447 337.753 121 326.1 121C314.447 121 305 130.447 305 142.1C305 153.753 314.447 163.2 326.1 163.2Z" fill="#D4EEFF"/>
</mask>
<g mask="url(#mask0)">
<path d="M336.591 136.27C337.751 140.905 335.045 148.341 331.952 154.617C329.343 159.832 337.654 168.523 330.889 178.179C324.125 187.836 324.704 192.953 318.713 192.953C313.688 192.953 313.108 190.926 311.078 184.552C308.856 178.083 308.952 164.853 310.498 160.604C312.045 156.355 316.103 149.982 315.717 144.092C315.234 138.298 318.23 132.697 318.23 132.697C318.23 132.697 322.482 124.875 329.633 127.579C335.721 129.8 335.915 133.566 336.591 136.27Z" fill="#5D3F1C"/>
<path d="M317.359 153.555C317.359 153.555 312.237 155.003 309.532 167.846C308.469 172.868 307.985 174.896 307.985 182.235H313.204C313.204 182.235 315.33 167.75 315.33 165.046C315.523 157.031 317.359 153.555 317.359 153.555Z" fill="#FCA70C"/>
<path d="M338.234 154.714C335.914 153.652 330.309 151.044 330.309 151.044H323.448C323.448 151.044 319.389 153.265 317.069 154.328C317.069 154.328 314.17 165.915 315.91 173.158C317.553 180.207 318.133 189.767 318.133 189.767H335.431C335.431 189.767 335.044 180.11 337.267 173.351C340.36 164.177 338.234 154.714 338.234 154.714Z" fill="#E6E7E8"/>
<path d="M330.31 151.044L326.927 154.231L323.448 151.044V145.347H330.31V151.044Z" fill="#F7A898"/>
<path d="M334.079 141.388C333.499 143.899 329.923 148.727 326.734 148.727C324.028 148.727 319.583 144.768 319.389 142.064C319.389 142.064 318.713 137.332 318.616 135.787C318.326 131.152 322.675 127.29 326.734 127.29C330.793 127.29 335.335 131.056 335.045 135.787C334.948 137.429 334.465 139.843 334.079 141.388Z" fill="#F8B4A7"/>
<path d="M331.179 150.562C331.179 150.562 333.788 145.444 333.788 143.705C333.788 142.643 333.788 142.064 333.788 138.008C333.788 135.594 331.855 133.566 331.855 133.566C331.566 133.566 331.179 136.56 326.54 137.815C323.738 138.588 320.355 137.042 320.355 142.643C320.355 145.25 320.742 148.244 322.095 150.272C322.095 150.272 316.586 147.182 316.586 138.105C316.683 135.787 319.196 127 326.154 127C331.179 127 336.687 130.38 336.687 138.201C336.687 142.643 335.045 149.306 331.179 150.562Z" fill="#5E3F1C"/>
<path d="M330.309 151.044L337.846 154.231C337.846 154.231 338.62 154.81 338.909 156.259C339.103 157.321 340.456 170.454 336.397 184.359C335.237 188.415 339.296 191.795 339.876 196.623C339.876 196.623 338.909 197.685 336.494 198.361C335.43 198.651 332.338 198.264 332.338 198.264L330.309 151.044Z" fill="#FCA70C"/>
<path d="M323.447 151.044L317.069 153.652C317.069 153.652 316.296 154.231 316.006 155.679C315.813 156.742 313.977 168.619 316.779 183.393C317.649 188.125 314.266 193.05 313.977 196.623C313.977 196.623 315.04 197.685 317.456 197.878C318.422 197.975 321.514 197.492 321.514 197.492L323.447 151.044Z" fill="#FCA70C"/>
<path d="M330.212 151.044L333.691 155.293L332.048 156.935L335.527 163.598L331.565 183.297L330.212 151.044Z" fill="#F98011"/>
<path d="M323.64 151.141L319.871 155.197L321.707 157.031L319.098 163.694L322.191 183.393L323.64 151.141Z" fill="#F98011"/>
<path d="M326.927 154.231C326.927 154.231 330.502 152.493 332.532 153.072C332.532 153.072 332.339 150.851 330.212 150.465V150.948L326.927 154.231Z" fill="#C8CACB"/>
<path d="M326.926 154.231C326.926 154.231 323.351 152.493 321.321 153.072C321.321 153.072 321.321 150.851 323.447 150.465V150.948L326.926 154.231Z" fill="#C8CACB"/>
<path d="M326.928 154.231C327.024 157.225 327.121 160.122 327.121 163.115L327.218 171.999L327.121 180.883C327.121 183.876 327.024 186.773 326.928 189.767C326.831 186.773 326.734 183.876 326.734 180.883L326.638 171.999L326.734 163.115C326.734 160.122 326.831 157.225 326.928 154.231Z" fill="#C8CACB"/>
<path d="M333.42 160.74L318.487 170.027L334.317 195.442L349.25 186.155L333.42 160.74Z" fill="#C0373F"/>
<path d="M349.251 173.544C349.927 175.186 349.154 177.02 347.511 177.696C345.868 178.372 344.032 177.6 343.356 175.958L339.2 167.46C338.91 166.978 337.267 153.845 337.75 154.231C343.549 158.866 349.251 173.544 349.251 173.544Z" fill="#FCA70C"/>
</g>
<mask id="mask1" mask-type="alpha" maskUnits="userSpaceOnUse" x="305" y="240" width="43" height="43">
<path d="M326.1 282.2C337.753 282.2 347.2 272.753 347.2 261.1C347.2 249.447 337.753 240 326.1 240C314.447 240 305 249.447 305 261.1C305 272.753 314.447 282.2 326.1 282.2Z" fill="#D4EEFF"/>
</mask>
<g mask="url(#mask1)">
<path d="M336.591 255.27C337.751 259.905 335.045 267.341 331.952 273.618C329.343 278.832 337.654 287.523 330.889 297.179C324.125 306.836 324.704 311.954 318.713 311.954C313.688 311.954 313.108 309.926 311.078 303.553C308.856 297.083 308.952 283.853 310.498 279.605C312.045 275.356 316.103 268.982 315.717 263.092C315.234 257.298 318.23 251.697 318.23 251.697C318.23 251.697 322.482 243.876 329.633 246.579C335.721 248.8 335.915 252.566 336.591 255.27Z" fill="#5D3F1C"/>
<path d="M317.359 272.555C317.359 272.555 312.237 274.004 309.532 286.847C308.469 291.868 307.985 293.896 307.985 301.235H313.204C313.204 301.235 315.33 286.75 315.33 284.046C315.523 276.032 317.359 272.555 317.359 272.555Z" fill="#FCA70C"/>
<path d="M338.234 273.714C335.914 272.652 330.309 270.045 330.309 270.045H323.448C323.448 270.045 319.389 272.266 317.069 273.328C317.069 273.328 314.17 284.916 315.91 292.158C317.553 299.207 318.133 308.767 318.133 308.767H335.431C335.431 308.767 335.044 299.111 337.267 292.351C340.36 283.177 338.234 273.714 338.234 273.714Z" fill="#E6E7E8"/>
<path d="M330.31 270.045L326.927 273.231L323.448 270.045V264.347H330.31V270.045Z" fill="#F7A898"/>
<path d="M334.079 260.388C333.499 262.899 329.923 267.727 326.734 267.727C324.028 267.727 319.583 263.768 319.389 261.064C319.389 261.064 318.713 256.333 318.616 254.787C318.326 250.152 322.675 246.29 326.734 246.29C330.793 246.29 335.335 250.056 335.045 254.787C334.948 256.429 334.465 258.843 334.079 260.388Z" fill="#F8B4A7"/>
<path d="M331.179 269.562C331.179 269.562 333.788 264.444 333.788 262.706C333.788 261.643 333.788 261.064 333.788 257.008C333.788 254.594 331.855 252.566 331.855 252.566C331.566 252.566 331.179 255.56 326.54 256.815C323.738 257.588 320.355 256.043 320.355 261.643C320.355 264.251 320.742 267.244 322.095 269.272C322.095 269.272 316.586 266.182 316.586 257.105C316.683 254.787 319.196 246 326.154 246C331.179 246 336.687 249.38 336.687 257.202C336.687 261.643 335.045 268.306 331.179 269.562Z" fill="#5E3F1C"/>
<path d="M330.309 270.045L337.846 273.231C337.846 273.231 338.62 273.811 338.909 275.259C339.103 276.321 340.456 289.454 336.397 303.359C335.237 307.415 339.296 310.795 339.876 315.623C339.876 315.623 338.909 316.685 336.494 317.361C335.43 317.651 332.338 317.265 332.338 317.265L330.309 270.045Z" fill="#FCA70C"/>
<path d="M323.447 270.045L317.069 272.652C317.069 272.652 316.296 273.231 316.006 274.68C315.813 275.742 313.977 287.619 316.779 302.394C317.649 307.125 314.266 312.05 313.977 315.623C313.977 315.623 315.04 316.685 317.456 316.878C318.422 316.975 321.514 316.492 321.514 316.492L323.447 270.045Z" fill="#FCA70C"/>
<path d="M330.212 270.045L333.691 274.293L332.048 275.935L335.527 282.598L331.565 302.297L330.212 270.045Z" fill="#F98011"/>
<path d="M323.64 270.141L319.871 274.197L321.707 276.032L319.098 282.695L322.191 302.394L323.64 270.141Z" fill="#F98011"/>
<path d="M326.927 273.231C326.927 273.231 330.502 271.493 332.532 272.072C332.532 272.072 332.339 269.851 330.212 269.465V269.948L326.927 273.231Z" fill="#C8CACB"/>
<path d="M326.926 273.231C326.926 273.231 323.351 271.493 321.321 272.072C321.321 272.072 321.321 269.851 323.447 269.465V269.948L326.926 273.231Z" fill="#C8CACB"/>
<path d="M326.928 273.231C327.024 276.225 327.121 279.122 327.121 282.115L327.218 290.999L327.121 299.883C327.121 302.877 327.024 305.774 326.928 308.767C326.831 305.774 326.734 302.877 326.734 299.883L326.638 290.999L326.734 282.115C326.734 279.122 326.831 276.225 326.928 273.231Z" fill="#C8CACB"/>
<path d="M333.42 279.74L318.487 289.027L334.317 314.442L349.25 305.155L333.42 279.74Z" fill="#C0373F"/>
<path d="M349.251 292.544C349.927 294.186 349.154 296.021 347.511 296.697C345.868 297.373 344.032 296.6 343.356 294.958L339.2 286.461C338.91 285.978 337.267 272.845 337.75 273.231C343.549 277.866 349.251 292.544 349.251 292.544Z" fill="#FCA70C"/>
</g>
<path d="M373.09 249H378.37V249.85H374.08V251.85H376.26C377.093 251.85 377.727 252.023 378.16 252.37C378.593 252.716 378.81 253.216 378.81 253.87C378.81 254.556 378.573 255.083 378.1 255.45C377.633 255.816 376.963 256 376.09 256H373.09V249ZM376.05 255.21C376.623 255.21 377.06 255.1 377.36 254.88C377.66 254.66 377.81 254.336 377.81 253.91C377.81 253.063 377.223 252.64 376.05 252.64H374.08V255.21H376.05ZM384.838 250.7L382.268 256.53C382.041 257.07 381.774 257.45 381.468 257.67C381.168 257.89 380.804 258 380.378 258C380.118 258 379.864 257.956 379.618 257.87C379.378 257.79 379.178 257.67 379.018 257.51L379.428 256.79C379.701 257.05 380.018 257.18 380.378 257.18C380.611 257.18 380.804 257.116 380.958 256.99C381.118 256.87 381.261 256.66 381.388 256.36L381.558 255.99L379.218 250.7H380.218L382.068 254.94L383.898 250.7H384.838ZM388.828 256L387.298 253.97L385.748 256H384.678L386.768 253.29L384.778 250.7H385.848L387.308 252.61L388.758 250.7H389.808L387.808 253.29L389.918 256H388.828ZM394.828 251.54H391.888V256H390.928V250.7H394.828V251.54ZM397.701 250.65C398.434 250.65 398.994 250.83 399.381 251.19C399.774 251.55 399.971 252.086 399.971 252.8V256H399.061V255.3C398.901 255.546 398.671 255.736 398.371 255.87C398.078 255.996 397.728 256.06 397.321 256.06C396.728 256.06 396.251 255.916 395.891 255.63C395.538 255.343 395.361 254.966 395.361 254.5C395.361 254.033 395.531 253.66 395.871 253.38C396.211 253.093 396.751 252.95 397.491 252.95H399.011V252.76C399.011 252.346 398.891 252.03 398.651 251.81C398.411 251.59 398.058 251.48 397.591 251.48C397.278 251.48 396.971 251.533 396.671 251.64C396.371 251.74 396.118 251.876 395.911 252.05L395.511 251.33C395.784 251.11 396.111 250.943 396.491 250.83C396.871 250.71 397.274 250.65 397.701 250.65ZM397.481 255.32C397.848 255.32 398.164 255.24 398.431 255.08C398.698 254.913 398.891 254.68 399.011 254.38V253.64H397.531C396.718 253.64 396.311 253.913 396.311 254.46C396.311 254.726 396.414 254.936 396.621 255.09C396.828 255.243 397.114 255.32 397.481 255.32ZM406.25 250.7V256H405.29V251.54H403.01L402.95 252.72C402.916 253.433 402.853 254.03 402.76 254.51C402.666 254.983 402.513 255.363 402.3 255.65C402.086 255.936 401.79 256.08 401.41 256.08C401.236 256.08 401.04 256.05 400.82 255.99L400.88 255.18C400.966 255.2 401.046 255.21 401.12 255.21C401.386 255.21 401.586 255.093 401.72 254.86C401.853 254.626 401.94 254.35 401.98 254.03C402.02 253.71 402.056 253.253 402.09 252.66L402.18 250.7H406.25ZM412.056 251.54H410.116V256H409.156V251.54H407.216V250.7H412.056V251.54ZM417.593 253.38C417.593 253.453 417.586 253.55 417.573 253.67H413.273C413.333 254.136 413.536 254.513 413.883 254.8C414.236 255.08 414.673 255.22 415.193 255.22C415.826 255.22 416.336 255.006 416.723 254.58L417.253 255.2C417.013 255.48 416.713 255.693 416.353 255.84C416 255.986 415.603 256.06 415.163 256.06C414.603 256.06 414.106 255.946 413.673 255.72C413.24 255.486 412.903 255.163 412.663 254.75C412.43 254.336 412.313 253.87 412.313 253.35C412.313 252.836 412.426 252.373 412.653 251.96C412.886 251.546 413.203 251.226 413.603 251C414.01 250.766 414.466 250.65 414.973 250.65C415.48 250.65 415.93 250.766 416.323 251C416.723 251.226 417.033 251.546 417.253 251.96C417.48 252.373 417.593 252.846 417.593 253.38ZM414.973 251.46C414.513 251.46 414.126 251.6 413.813 251.88C413.506 252.16 413.326 252.526 413.273 252.98H416.673C416.62 252.533 416.436 252.17 416.123 251.89C415.816 251.603 415.433 251.46 414.973 251.46ZM421.892 250.65C422.406 250.65 422.866 250.763 423.272 250.99C423.679 251.216 423.996 251.533 424.222 251.94C424.456 252.346 424.572 252.816 424.572 253.35C424.572 253.883 424.456 254.356 424.222 254.77C423.996 255.176 423.679 255.493 423.272 255.72C422.866 255.946 422.406 256.06 421.892 256.06C421.512 256.06 421.162 255.986 420.842 255.84C420.529 255.693 420.262 255.48 420.042 255.2V257.94H419.082V250.7H420.002V251.54C420.216 251.246 420.486 251.026 420.812 250.88C421.139 250.726 421.499 250.65 421.892 250.65ZM421.812 255.22C422.152 255.22 422.456 255.143 422.722 254.99C422.996 254.83 423.209 254.61 423.362 254.33C423.522 254.043 423.602 253.716 423.602 253.35C423.602 252.983 423.522 252.66 423.362 252.38C423.209 252.093 422.996 251.873 422.722 251.72C422.456 251.566 422.152 251.49 421.812 251.49C421.479 251.49 421.176 251.57 420.902 251.73C420.636 251.883 420.422 252.1 420.262 252.38C420.109 252.66 420.032 252.983 420.032 253.35C420.032 253.716 420.109 254.043 420.262 254.33C420.416 254.61 420.629 254.83 420.902 254.99C421.176 255.143 421.479 255.22 421.812 255.22Z" fill="#5E9EEB"/>
<path d="M415.57 283.28H414.24V285H413.27V283.28H409.38V282.58L412.96 278H414.04L410.61 282.42H413.3V280.9H414.24V282.42H415.57V283.28ZM418.14 280.79C419.14 280.79 419.873 280.98 420.34 281.36C420.813 281.733 421.05 282.247 421.05 282.9C421.05 283.313 420.95 283.687 420.75 284.02C420.557 284.347 420.26 284.607 419.86 284.8C419.467 284.987 418.98 285.08 418.4 285.08C417.907 285.08 417.43 285.007 416.97 284.86C416.51 284.707 416.13 284.497 415.83 284.23L416.29 283.44C416.53 283.667 416.837 283.85 417.21 283.99C417.583 284.123 417.977 284.19 418.39 284.19C418.917 284.19 419.323 284.08 419.61 283.86C419.903 283.633 420.05 283.327 420.05 282.94C420.05 282.52 419.89 282.203 419.57 281.99C419.25 281.77 418.703 281.66 417.93 281.66H416.34L416.71 278H420.66V278.87H417.55L417.36 280.79H418.14ZM423.834 280.79C424.834 280.79 425.567 280.98 426.034 281.36C426.507 281.733 426.744 282.247 426.744 282.9C426.744 283.313 426.644 283.687 426.444 284.02C426.25 284.347 425.954 284.607 425.554 284.8C425.16 284.987 424.674 285.08 424.094 285.08C423.6 285.08 423.124 285.007 422.664 284.86C422.204 284.707 421.824 284.497 421.524 284.23L421.984 283.44C422.224 283.667 422.53 283.85 422.904 283.99C423.277 284.123 423.67 284.19 424.084 284.19C424.61 284.19 425.017 284.08 425.304 283.86C425.597 283.633 425.744 283.327 425.744 282.94C425.744 282.52 425.584 282.203 425.264 281.99C424.944 281.77 424.397 281.66 423.624 281.66H422.034L422.404 278H426.354V278.87H423.244L423.054 280.79H423.834ZM432.751 282.53L431.651 283.55V285H430.691V277.58H431.651V282.34L434.541 279.7H435.701L433.471 281.89L435.921 285H434.741L432.751 282.53ZM439.663 279.65C440.177 279.65 440.637 279.763 441.043 279.99C441.45 280.217 441.767 280.533 441.993 280.94C442.227 281.347 442.343 281.817 442.343 282.35C442.343 282.883 442.227 283.357 441.993 283.77C441.767 284.177 441.45 284.493 441.043 284.72C440.637 284.947 440.177 285.06 439.663 285.06C439.27 285.06 438.91 284.983 438.583 284.83C438.257 284.677 437.987 284.453 437.773 284.16V285H436.853V277.58H437.813V280.5C438.027 280.22 438.293 280.01 438.613 279.87C438.933 279.723 439.283 279.65 439.663 279.65ZM439.583 284.22C439.923 284.22 440.227 284.143 440.493 283.99C440.767 283.83 440.98 283.61 441.133 283.33C441.293 283.043 441.373 282.717 441.373 282.35C441.373 281.983 441.293 281.66 441.133 281.38C440.98 281.093 440.767 280.873 440.493 280.72C440.227 280.567 439.923 280.49 439.583 280.49C439.25 280.49 438.947 280.567 438.673 280.72C438.4 280.873 438.187 281.093 438.033 281.38C437.88 281.66 437.803 281.983 437.803 282.35C437.803 282.717 437.88 283.043 438.033 283.33C438.187 283.61 438.4 283.83 438.673 283.99C438.947 284.143 439.25 284.22 439.583 284.22Z" fill="#5E9EEB"/>
<path d="M306.7 109.4C317.58 109.4 326.4 100.58 326.4 89.7C326.4 78.82 317.58 70 306.7 70C295.82 70 287 78.82 287 89.7C287 100.58 295.82 109.4 306.7 109.4Z" fill="#A77CFA"/>
<mask id="mask2" mask-type="alpha" maskUnits="userSpaceOnUse" x="287" y="70" width="40" height="40">
<path d="M306.7 109.4C317.58 109.4 326.4 100.58 326.4 89.7C326.4 78.82 317.58 70 306.7 70C295.82 70 287 78.82 287 89.7C287 100.58 295.82 109.4 306.7 109.4Z" fill="#A77CFA"/>
</mask>
<g mask="url(#mask2)">
<path d="M316 98.3002C314.4 98.3002 313 99.8002 314 103.7C316.3 112.5 316.4 115.6 316.4 115.6H320.9C320.9 115.6 319.8 110.3 319.6 105.7C319.4 101.1 317.2 98.4002 316 98.3002Z" fill="#F2D290"/>
<path d="M297.4 98.3002C299 98.3002 300.4 99.8002 299.4 103.7C297.1 112.5 297 115.6 297 115.6H292.5C292.5 115.6 293.7 110.3 293.8 105.7C294 101 296.1 98.3002 297.4 98.3002Z" fill="#F2D290"/>
<path d="M311.8 96.2002C311.8 96.2002 308.2 99.9002 306.6 99.9002C305 99.9002 301.5 96.2002 301.5 96.2002C297.2 96.2002 293.6 99.5002 293.6 103.7C293.6 103.8 293.6 104 293.6 104C293.6 104.1 293.7 104.2 293.8 104.2C295 104.4 298.3 106.7 298.3 106.7V110.5V115.7H314.8V110.5V106.7C314.8 106.7 318.2 104.5 319.3 104.2C319.4 104.2 319.5 104.1 319.5 104C319.5 104 319.5 103.8 319.5 103.7C319.9 99.5002 316.1 96.2002 311.8 96.2002Z" fill="#E8A14F"/>
<path d="M310.2 94.8001C310.2 94.1001 310.2 89.9001 310.2 89.9001H306.5H302.8C302.8 89.9001 302.8 94.0001 302.8 94.8001C302.8 95.9001 301.4 96.1001 300.9 96.3001C300.4 99.1001 303.9 101.3 306.5 101.3C309.1 101.3 312.5 98.8001 312.2 96.3001C311.6 96.1001 310.2 95.9001 310.2 94.8001Z" fill="#F2D290"/>
<path d="M310.2 95.2001C310.2 95.1001 310.1 95.0001 310.1 94.8001C310.1 94.1001 310.1 89.9001 310.1 89.9001H306.4H302.7C302.7 89.9001 302.7 91.9001 302.7 93.3001C303.8 95.1001 305.3 95.8001 307.5 95.9001C308.6 95.9001 309.5 95.6001 310.2 95.2001Z" fill="#E7C27A"/>
<path d="M311.9 79.5001C309.8 78.0001 303.5 78.0001 301.4 79.5001C299.8 80.7001 299 84.9001 300 88.2001C301.2 92.2001 303.1 94.8001 306.7 94.8001C310.3 94.7001 312.2 92.1001 313.4 88.2001C314.3 84.9001 313.5 80.7001 311.9 79.5001Z" fill="#F2D290"/>
<path d="M309 80.7002C309 80.7002 311.6 83.1002 311.9 84.1002C312.4 85.6002 312.3 90.3002 312.3 90.3002L314.5 86.2002C314.5 86.2002 314.9 84.4002 314.6 82.5002C313.1 72.2002 299.1 73.7002 298.6 82.5002C298.5 83.8002 298.7 86.2002 298.7 86.2002L300.8 89.8002C300.8 89.8002 299.3 84.3002 300.8 84.0002C304.5 83.4002 309 80.7002 309 80.7002Z" fill="#82613A"/>
<path d="M298.7 81.7002C298.7 81.7002 297.2 88.0002 297 90.3002C296.6 96.4002 303.2 94.6002 302.5 93.0002C299.8 87.5002 298.7 81.7002 298.7 81.7002Z" fill="#82613A"/>
<path d="M314.3 81.7002C314.3 81.7002 315.8 88.0002 316 90.3002C316.4 96.4002 309.6 94.8002 310.5 93.3002C313.6 87.9002 314.3 81.7002 314.3 81.7002Z" fill="#82613A"/>
</g>
<path d="M306.7 226.4C317.58 226.4 326.4 217.58 326.4 206.7C326.4 195.82 317.58 187 306.7 187C295.82 187 287 195.82 287 206.7C287 217.58 295.82 226.4 306.7 226.4Z" fill="#A77CFA"/>
<mask id="mask3" mask-type="alpha" maskUnits="userSpaceOnUse" x="287" y="187" width="40" height="40">
<path d="M306.7 226.4C317.58 226.4 326.4 217.58 326.4 206.7C326.4 195.82 317.58 187 306.7 187C295.82 187 287 195.82 287 206.7C287 217.58 295.82 226.4 306.7 226.4Z" fill="#A77CFA"/>
</mask>
<g mask="url(#mask3)">
<path d="M316 215.3C314.4 215.3 313 216.8 314 220.7C316.3 229.5 316.4 232.6 316.4 232.6H320.9C320.9 232.6 319.8 227.3 319.6 222.7C319.4 218.1 317.2 215.4 316 215.3Z" fill="#F2D290"/>
<path d="M297.4 215.3C299 215.3 300.4 216.8 299.4 220.7C297.1 229.5 297 232.6 297 232.6H292.5C292.5 232.6 293.7 227.3 293.8 222.7C294 218 296.1 215.3 297.4 215.3Z" fill="#F2D290"/>
<path d="M311.8 213.2C311.8 213.2 308.2 216.9 306.6 216.9C305 216.9 301.5 213.2 301.5 213.2C297.2 213.2 293.6 216.5 293.6 220.7C293.6 220.8 293.6 221 293.6 221C293.6 221.1 293.7 221.2 293.8 221.2C295 221.4 298.3 223.7 298.3 223.7V227.5V232.7H314.8V227.5V223.7C314.8 223.7 318.2 221.5 319.3 221.2C319.4 221.2 319.5 221.1 319.5 221C319.5 221 319.5 220.8 319.5 220.7C319.9 216.5 316.1 213.2 311.8 213.2Z" fill="#E8A14F"/>
<path d="M310.2 211.8C310.2 211.1 310.2 206.9 310.2 206.9H306.5H302.8C302.8 206.9 302.8 211 302.8 211.8C302.8 212.9 301.4 213.1 300.9 213.3C300.4 216.1 303.9 218.3 306.5 218.3C309.1 218.3 312.5 215.8 312.2 213.3C311.6 213.1 310.2 212.9 310.2 211.8Z" fill="#F2D290"/>
<path d="M310.2 212.2C310.2 212.1 310.1 212 310.1 211.8C310.1 211.1 310.1 206.9 310.1 206.9H306.4H302.7C302.7 206.9 302.7 208.9 302.7 210.3C303.8 212.1 305.3 212.8 307.5 212.9C308.6 212.9 309.5 212.6 310.2 212.2Z" fill="#E7C27A"/>
<path d="M311.9 196.5C309.8 195 303.5 195 301.4 196.5C299.8 197.7 299 201.9 300 205.2C301.2 209.2 303.1 211.8 306.7 211.8C310.3 211.7 312.2 209.1 313.4 205.2C314.3 201.9 313.5 197.7 311.9 196.5Z" fill="#F2D290"/>
<path d="M309 197.7C309 197.7 311.6 200.1 311.9 201.1C312.4 202.6 312.3 207.3 312.3 207.3L314.5 203.2C314.5 203.2 314.9 201.4 314.6 199.5C313.1 189.2 299.1 190.7 298.6 199.5C298.5 200.8 298.7 203.2 298.7 203.2L300.8 206.8C300.8 206.8 299.3 201.3 300.8 201C304.5 200.4 309 197.7 309 197.7Z" fill="#82613A"/>
<path d="M298.7 198.7C298.7 198.7 297.2 205 297 207.3C296.6 213.4 303.2 211.6 302.5 210C299.8 204.5 298.7 198.7 298.7 198.7Z" fill="#82613A"/>
<path d="M314.3 198.7C314.3 198.7 315.8 205 316 207.3C316.4 213.4 309.6 211.8 310.5 210.3C313.6 204.9 314.3 198.7 314.3 198.7Z" fill="#82613A"/>
</g>
<circle cx="467" cy="160" r="16" fill="#FC8E0C"/>
<path d="M474.1 159.749C474.962 159.749 475.66 160.448 475.66 161.309C475.66 161.739 475.485 162.129 475.203 162.412C474.921 162.695 474.531 162.869 474.1 162.869H469.096C467.862 162.869 467.076 164.197 467.68 165.273C468.476 166.69 468.759 168.227 468.689 168.964C468.578 170.127 467.839 171.113 466.672 171.069L466.638 171.068C465.973 171.042 465.44 170.512 465.402 169.846C465.288 167.888 463.726 165.928 462.331 164.307C461.916 163.825 461.568 163.289 461.297 162.713C461.187 162.479 461.014 162.287 460.804 162.154C460.595 162.021 460.348 161.946 460.089 161.946H458.489V151.543C459.508 151.543 460.522 151.398 461.499 151.112C462.188 150.911 462.901 150.809 463.619 150.809H470.427H472.457C472.83 150.809 473.168 150.96 473.413 151.204C473.661 151.453 473.814 151.799 473.808 152.181C473.796 152.923 473.17 153.51 472.427 153.51L473.16 153.51C474.021 153.51 474.72 154.208 474.72 155.07C474.72 155.931 474.021 156.63 473.16 156.63H473.825C474.686 156.63 475.385 157.328 475.385 158.189C475.385 159.051 474.686 159.749 473.825 159.749L474.1 159.749Z" fill="#FCD09F"/>
<circle r="16" transform="matrix(1 0 0 -1 409 160)" fill="#0BCCC9"/>
<path d="M416.1 160.251C416.962 160.251 417.66 159.552 417.66 158.691C417.66 158.261 417.485 157.871 417.203 157.588C416.921 157.305 416.531 157.131 416.1 157.131H411.096C409.862 157.131 409.076 155.803 409.68 154.727C410.476 153.31 410.759 151.773 410.689 151.036C410.578 149.873 409.839 148.887 408.672 148.931L408.638 148.932C407.973 148.958 407.44 149.488 407.402 150.154C407.288 152.112 405.726 154.072 404.331 155.693C403.916 156.175 403.568 156.711 403.297 157.287C403.187 157.521 403.014 157.713 402.804 157.846C402.595 157.979 402.348 158.054 402.089 158.054H400.489V168.457C401.508 168.457 402.522 168.602 403.499 168.888C404.188 169.089 404.901 169.191 405.619 169.191H412.427H414.457C414.83 169.191 415.168 169.04 415.413 168.796C415.661 168.547 415.814 168.201 415.808 167.819C415.796 167.077 415.17 166.49 414.427 166.49L415.16 166.49C416.021 166.49 416.72 165.792 416.72 164.93C416.72 164.069 416.021 163.37 415.16 163.37H415.825C416.686 163.37 417.385 162.672 417.385 161.811C417.385 160.949 416.686 160.251 415.825 160.251L416.1 160.251Z" fill="#FCD09F"/>
<path d="M141 208L143.163 212.279L148 212.966L144.5 216.296L145.326 221L141 218.779L136.674 221L137.5 216.296L134 212.966L138.837 212.279L141 208Z" fill="#EFCE4A"/>
<path d="M157 208L159.163 212.279L164 212.966L160.5 216.296L161.326 221L157 218.779L152.674 221L153.5 216.296L150 212.966L154.837 212.279L157 208Z" fill="#EFCE4A"/>
<path d="M173.5 208L175.509 212.279L180 212.966L176.75 216.296L177.517 221L173.5 218.779L169.483 221L170.25 216.296L167 212.966L171.491 212.279L173.5 208Z" fill="#EFCE4A"/>
<path d="M190 208L192.163 212.279L197 212.966L193.5 216.296L194.326 221L190 218.779L185.674 221L186.5 216.296L183 212.966L187.837 212.279L190 208Z" fill="#EFCE4A"/>
<path d="M206 208L208.163 212.279L213 212.966L209.5 216.296L210.326 221L206 218.779L201.674 221L202.5 216.296L199 212.966L203.837 212.279L206 208Z" fill="#EFCE4A"/>
</svg>
