<svg width="504" height="375" viewBox="0 0 504 375" fill="none" xmlns="http://www.w3.org/2000/svg">
<path d="M57.8978 332.349C57.8978 332.349 -32.6794 269.661 14.4028 210.257C61.485 150.853 154.603 171.898 246.974 135.928C339.345 99.9569 375.067 86.2253 408.698 118.017C441.58 149.211 380.149 209.212 422.748 261.452C468.933 317.871 410.192 328.17 398.982 332.349H57.8978Z" fill="#EEF2FA"/>
<path d="M454.273 122.359C455.263 122.356 456.064 121.551 456.061 120.562C456.058 119.573 455.252 118.774 454.261 118.777C453.271 118.78 452.47 119.584 452.473 120.574C452.477 121.563 453.282 122.362 454.273 122.359Z" fill="white"/>
<path d="M462.195 122.359C463.186 122.356 463.986 121.552 463.983 120.563C463.98 119.573 463.175 118.774 462.184 118.777C461.194 118.78 460.393 119.585 460.396 120.574C460.399 121.563 461.205 122.362 462.195 122.359Z" fill="white"/>
<path d="M469.967 122.36C470.957 122.356 471.758 121.552 471.755 120.563C471.752 119.574 470.946 118.774 469.956 118.777C468.965 118.78 468.165 119.585 468.168 120.574C468.171 121.563 468.976 122.363 469.967 122.36Z" fill="white"/>
<path d="M79.5374 110.814C96.5424 110.814 110.328 97.0484 110.328 80.0674C110.328 63.0864 96.5424 49.3206 79.5374 49.3206C62.5324 49.3206 48.7471 63.0864 48.7471 80.0674C48.7471 97.0484 62.5324 110.814 79.5374 110.814Z" fill="#007FFF"/>
<path d="M91.4944 77.6793L89.5513 77.3808C89.2524 76.4853 88.9534 75.739 88.505 74.8434L89.7008 73.2016C90.1492 72.6046 89.9997 71.7091 89.5513 71.2613L88.3556 70.0672C87.7577 69.6195 87.0103 69.4702 86.4125 69.918L84.7684 71.112C84.021 70.6643 83.1242 70.3658 82.2274 70.0672L81.9284 67.9776C81.779 67.2314 81.1811 66.7836 80.4338 66.6343H78.6402C77.8929 66.6343 77.295 67.2314 77.1455 67.9776L76.8466 69.918C75.9498 70.2165 75.2025 70.515 74.3056 70.9628L72.6615 69.918C72.0636 69.4702 71.1668 69.6195 70.7184 70.0672L69.5227 71.2613C68.9248 71.8583 68.9248 72.6046 69.3732 73.2016L70.569 74.8434C70.1206 75.5897 69.8216 76.4853 69.5227 77.3808L67.5796 77.6793C66.8323 77.8286 66.2344 78.4256 66.2344 79.1719V80.8137C66.2344 81.56 66.8323 82.157 67.5796 82.3063L69.5227 82.6048C69.8216 83.5003 70.1206 84.2466 70.569 85.1421L69.3732 86.7839C68.9248 87.381 69.0743 88.2765 69.5227 88.7243L70.7184 89.9183C71.3163 90.5154 72.0636 90.5154 72.6615 90.0676L74.3056 88.8735C75.053 89.3213 75.9498 89.6198 76.8466 89.9183L77.1455 91.8587C77.295 92.6049 77.8929 93.202 78.6402 93.202H80.2843C81.0317 93.202 81.6295 92.6049 81.779 91.8587L82.0779 89.9183C82.9747 89.6198 83.7221 89.3213 84.6189 88.8735L86.263 90.0676C86.8609 90.5154 87.7577 90.3661 88.2061 89.9183L89.4018 88.7243C89.9997 88.1273 89.9997 87.381 89.5513 86.7839L88.3556 85.1421C88.804 84.3958 89.1029 83.5003 89.4018 82.6048L91.3449 82.3063C92.0923 82.157 92.6901 81.56 92.6901 80.8137V79.1719C92.8396 78.4256 92.2417 77.8286 91.4944 77.6793ZM79.3875 84.5451C76.8466 84.5451 74.754 82.4555 74.754 79.9181C74.754 77.3808 76.8466 75.2912 79.3875 75.2912C81.9285 75.2912 84.021 77.3808 84.021 79.9181C84.021 82.6048 81.9285 84.5451 79.3875 84.5451Z" fill="white"/>
<path opacity="0.38" d="M155.962 57.1675C164.557 57.1675 171.525 50.2001 171.525 41.6054C171.525 33.0107 164.557 26.0433 155.962 26.0433C147.368 26.0433 140.4 33.0107 140.4 41.6054C140.4 50.2001 147.368 57.1675 155.962 57.1675Z" stroke="white" stroke-width="5" stroke-miterlimit="10"/>
<path d="M200.182 333.514C143.78 333.514 92.1512 333.536 52.2256 333.59C52.2363 333.74 52.247 333.89 52.247 334.041C92.1727 334.084 143.791 334.116 200.182 334.116C326.771 334.116 429.363 333.987 429.363 333.815C429.363 333.654 326.771 333.514 200.182 333.514Z" fill="#263238"/>
<path d="M201.598 127.132C191.594 110.654 189.158 89.8383 195.07 71.4826C195.784 69.2488 196.694 66.9827 198.512 65.4935C200.331 64.0043 203.287 63.6806 204.878 65.3964C214.005 55.8462 226.12 49.3392 238.982 46.199C241.548 45.5839 244.211 45.0659 246.809 45.4868C249.408 45.9076 251.974 47.3968 253.045 49.7924C254.117 52.188 253.208 55.4901 250.772 56.4937C255.676 54.5513 260.613 52.5765 265.81 51.8319C267.694 51.573 269.837 51.5406 271.266 52.7708C273.215 54.4542 272.858 57.7239 271.234 59.6663C269.61 61.6411 267.109 62.6123 264.706 63.5511C266.265 63.1302 267.889 62.7094 269.513 62.8389C271.136 62.9684 272.793 63.8101 273.475 65.2669C274.774 68.051 272.046 71.0293 269.415 72.5833C262.692 76.5652 254.702 77.9572 246.907 78.54C239.112 79.1551 231.219 79.0579 223.489 80.4176C220.923 80.8708 218.26 81.5507 216.344 83.2988C213.096 86.2772 213.031 91.2951 213.258 95.6655C213.615 101.881 214.168 108.194 212.836 114.248C211.504 120.334 207.996 126.291 202.313 128.848" fill="#310072"/>
<path d="M396.508 203.534C396.508 203.534 401.412 180.289 405.245 177.894C409.045 175.498 423.953 162.775 424.408 165.495C424.862 168.214 417.23 175.369 418.334 178.477C419.438 181.552 427.493 182.135 427.493 182.135C427.493 182.135 436.522 182.653 438.958 181.196C441.394 179.739 457.017 164.524 455.815 168.344C454.614 172.196 445.389 191.491 439.835 194.275C434.281 197.059 419.406 200.685 418.659 200.782C417.912 200.879 413.007 212.857 413.007 212.857L396.508 203.534Z" fill="#F0BFAC"/>
<path d="M269.351 240.439C269.351 240.439 327.359 314.283 357.695 302.693C388.03 291.136 417.489 207.515 417.489 207.515L393.39 191.491L343.436 247.723L279.744 165.398L269.351 240.439Z" fill="#007FFF"/>
<path d="M170.418 162.905C170.418 162.905 52.4853 261.805 56.0581 282.265C59.6308 302.725 138.151 356.801 138.151 356.801L162.251 332.78L105.135 284.92C105.135 284.92 175.647 232.443 177.434 224.446C179.22 216.45 170.418 162.905 170.418 162.905Z" fill="#007FFF"/>
<path d="M149.761 202.368C149.761 202.368 172.399 295.474 171.522 303.956C170.645 312.438 160.835 334.482 160.835 334.482L295.397 334.212L288.285 185.113C286.921 170.027 275.716 157.531 260.775 154.812C246.549 152.222 225.6 150.571 195.882 152.804C177.336 154.196 161.486 166.693 155.704 184.304L149.761 202.368Z" fill="#007FFF"/>
<path d="M191.042 153.387C189.061 154.358 232.616 248.985 232.616 248.985L251.714 153.387C251.714 153.387 204.359 146.977 191.042 153.387Z" fill="white"/>
<path d="M200.266 156.851L202.443 119.395C202.443 119.395 195.07 120.269 192.894 114.636C190.717 109.003 197.246 96.0212 208.094 105.118L207.022 73.8778H259.347C259.347 73.8778 268.831 146.2 236.741 146.2V161.351C236.708 161.351 215.467 177.829 200.266 156.851Z" fill="#F0BFAC"/>
<path d="M241.418 145.909C241.418 145.941 240.931 146.071 240.054 146.2C239.177 146.362 237.878 146.492 236.287 146.524C233.104 146.589 228.654 146.071 224.074 144.355C219.495 142.607 215.825 140.049 213.486 137.88C212.317 136.812 211.44 135.873 210.888 135.161C210.336 134.481 210.043 134.06 210.076 134.06C210.173 133.963 211.407 135.485 213.811 137.524C216.182 139.564 219.82 141.992 224.302 143.708C228.784 145.391 233.136 145.974 236.287 146.038C239.47 146.103 241.418 145.779 241.418 145.909Z" fill="#310072"/>
<path d="M141.413 352.981C141.413 352.981 143.589 366.513 150.767 366.513C157.945 366.513 170.222 364.83 170.222 364.83C170.222 364.83 181.038 377.876 181.753 373.667C182.467 369.459 179.089 360.2 179.089 360.2C179.089 360.2 184.578 373.247 186.689 366.934C188.801 360.621 179.511 350.488 179.511 350.488C179.511 350.488 196.011 358.484 196.433 355.118C196.856 351.751 181.915 342.913 181.785 342.913C181.655 342.913 164.733 342.913 164.733 342.913L160.186 334.269L141.413 352.981Z" fill="#F0BFAC"/>
<path d="M164.701 342.913C164.701 342.913 166.942 321.546 168.924 324.266C170.872 326.985 171.262 344.531 171.262 344.531L164.701 342.913Z" fill="#F0BFAC"/>
<path d="M237.942 335.081C237.747 335.081 236.415 315.804 234.954 292.03C233.492 268.255 232.453 248.954 232.648 248.954C232.842 248.954 234.174 268.206 235.636 292.005C237.065 315.804 238.104 335.081 237.942 335.081Z" fill="#310072"/>
<path d="M231.058 248.985C231.058 248.985 229.629 248.338 227.258 246.816C224.887 245.295 221.639 242.705 218.358 238.852C215.078 235 211.862 229.755 209.784 223.345C207.673 216.968 206.893 209.393 208.387 201.688L208.614 202.076C208.192 201.947 207.705 201.785 207.25 201.655C199.618 199.13 193.479 193.983 189.647 188.253C185.749 182.523 184.19 176.242 183.963 171.062C183.703 165.85 184.677 161.674 185.587 158.922C186.496 156.171 187.34 154.779 187.34 154.779C187.373 154.779 187.211 155.167 186.951 155.879C186.658 156.592 186.269 157.628 185.879 159.02C185.067 161.771 184.19 165.915 184.482 171.062C184.775 176.177 186.334 182.296 190.199 187.929C193.999 193.497 200.04 198.547 207.51 201.04C207.965 201.17 208.42 201.332 208.842 201.461L209.134 201.558L209.069 201.85C207.608 209.393 208.355 216.871 210.401 223.184C212.415 229.529 215.533 234.741 218.748 238.561C221.964 242.413 225.114 245.036 227.42 246.622C228.524 247.464 229.531 247.949 230.116 248.37C230.765 248.726 231.09 248.953 231.058 248.985Z" fill="#310072"/>
<path d="M232.616 248.985C232.616 248.953 232.876 248.726 233.428 248.273C233.98 247.82 234.825 247.172 235.767 246.266C237.748 244.485 240.541 241.701 243.14 237.655C245.77 233.64 248.109 228.331 249.246 222.115C249.83 219.008 250.188 215.706 250.253 212.242C250.253 211.368 250.253 210.526 250.253 209.652C250.22 208.842 249.928 208.001 249.635 207.191C248.953 205.573 248.011 204.051 246.94 202.562C245.835 201.008 244.634 199.551 243.464 198.224L243.237 197.997L243.464 197.771C245.803 195.375 248.011 192.979 250.058 190.616C252.071 188.221 254.02 185.89 255.254 183.397C257.333 178.152 257.625 172.908 257.301 168.699C256.976 164.459 255.904 161.156 255.092 158.955C254.637 157.854 254.312 157.013 254.02 156.462C253.76 155.912 253.63 155.588 253.663 155.588C253.663 155.588 254.377 156.689 255.319 158.858C256.229 161.059 257.333 164.361 257.755 168.667C258.145 172.94 257.918 178.217 255.807 183.656C254.507 186.311 252.559 188.641 250.545 191.069C248.499 193.465 246.29 195.861 243.919 198.289V197.835C245.121 199.195 246.323 200.652 247.459 202.238C248.531 203.76 249.505 205.314 250.22 207.029C250.545 207.904 250.837 208.778 250.87 209.716C250.87 210.591 250.87 211.497 250.87 212.371C250.772 215.867 250.415 219.202 249.798 222.342C248.596 228.655 246.16 234.029 243.464 238.043C240.769 242.09 237.91 244.842 235.864 246.59C233.883 248.176 232.616 248.985 232.616 248.985Z" fill="#310072"/>
<path d="M243.366 291.977C243.171 292.009 242.911 291.038 242.781 289.873C242.651 288.675 242.684 287.704 242.879 287.704C243.073 287.671 243.333 288.643 243.463 289.808C243.593 290.974 243.528 291.945 243.366 291.977Z" fill="#310072"/>
<path d="M247.263 333.448C247.068 333.48 246.808 332.509 246.679 331.344C246.549 330.146 246.581 329.175 246.776 329.175C246.971 329.142 247.231 330.114 247.361 331.279C247.49 332.477 247.458 333.448 247.263 333.448Z" fill="#310072"/>
<path d="M294.067 277.733C293.872 277.733 292.475 262.809 290.949 244.389C289.422 225.968 288.318 211.012 288.513 210.979C288.707 210.947 290.104 225.903 291.631 244.324C293.157 262.777 294.261 277.733 294.067 277.733Z" fill="#310072"/>
<path d="M171.523 233.349C171.556 233.382 171.134 233.738 170.387 234.385C169.315 235.227 168.243 236.101 167.106 236.975C164.345 239.176 160.513 242.187 156.355 245.619C152.198 249.05 148.495 252.223 145.832 254.521C144.76 255.46 143.689 256.334 142.649 257.241C141.902 257.888 141.447 258.212 141.415 258.18C141.382 258.147 141.772 257.759 142.454 257.047C143.461 256.108 144.468 255.137 145.507 254.165C148.106 251.77 151.776 248.532 155.933 245.101C160.091 241.669 163.956 238.691 166.814 236.619C167.983 235.777 169.087 235 170.224 234.191C171.004 233.608 171.491 233.317 171.523 233.349Z" fill="#310072"/>
<path d="M155.28 327.079C155.313 327.111 154.956 327.467 154.274 328.05L151.383 330.445C148.265 332.938 145.082 335.431 141.639 338.183C138.131 340.87 134.948 343.33 131.765 345.758L128.712 347.992C127.998 348.51 127.576 348.769 127.543 348.736C127.511 348.704 127.868 348.348 128.55 347.798L131.441 345.402C134.591 342.909 137.742 340.384 141.184 337.665C144.692 334.978 147.875 332.517 151.058 330.057L154.079 327.823C154.858 327.305 155.28 327.046 155.28 327.079Z" fill="#310072"/>
<path d="M132.191 373.915C132.029 374.012 131.639 373.591 131.347 373.008C131.054 372.425 130.957 371.875 131.119 371.81C131.282 371.713 131.671 372.134 131.931 372.717C132.256 373.3 132.353 373.818 132.191 373.915Z" fill="#310072"/>
<path d="M416.32 217.357C416.288 217.389 415.801 217.228 414.956 216.904C413.754 216.418 412.553 215.933 411.318 215.447C408.265 214.184 404.043 212.469 399.333 210.688C394.624 208.875 390.337 207.321 387.219 206.221C385.984 205.767 384.75 205.347 383.548 204.893C382.672 204.57 382.217 204.375 382.217 204.343C382.217 204.311 382.736 204.408 383.613 204.667C384.848 205.055 386.114 205.411 387.381 205.8C390.532 206.803 394.851 208.293 399.593 210.105C404.303 211.918 408.525 213.699 411.546 215.059C412.747 215.609 413.917 216.159 415.086 216.742C415.898 217.066 416.353 217.325 416.32 217.357Z" fill="#310072"/>
<path d="M392.122 197.868C392.252 197.997 391.667 198.904 390.79 199.94C389.913 200.943 389.101 201.688 388.939 201.558C388.809 201.429 389.394 200.522 390.271 199.487C391.148 198.483 391.96 197.738 392.122 197.868Z" fill="#310072"/>
<path d="M342.559 260.931C342.364 260.931 342.234 257.758 342.234 253.841C342.234 249.924 342.397 246.751 342.559 246.751C342.754 246.751 342.884 249.924 342.884 253.841C342.884 257.758 342.754 260.931 342.559 260.931Z" fill="#310072"/>
<path d="M351.004 263.035C350.809 263.1 349.543 259.766 347.496 255.848C345.483 251.931 343.469 248.953 343.631 248.856C343.761 248.759 346.035 251.575 348.113 255.557C350.16 259.474 351.167 262.97 351.004 263.035Z" fill="#310072"/>
<path d="M105.848 284.628C105.815 284.823 103.087 284.596 99.7414 284.175C96.396 283.754 93.7002 283.236 93.7327 283.042C93.7652 282.848 96.4935 283.074 99.8388 283.495C103.152 283.949 105.848 284.434 105.848 284.628Z" fill="#310072"/>
<path d="M106.369 282.492C106.272 282.686 103.608 281.164 99.9381 280.42C96.2679 279.675 93.2149 280.031 93.2149 279.805C93.1499 279.643 96.3004 278.963 100.1 279.74C103.868 280.517 106.466 282.362 106.369 282.492Z" fill="#310072"/>
<path d="M199.388 155.491C199.063 154.164 199.388 144.419 199.388 144.419C199.388 144.419 224.137 146.329 226.8 167.534C226.8 167.534 231.315 149.955 237.941 148.919L239.045 160.509L235.537 172.908L221.376 175.821L206.208 170.804L199.388 155.491Z" fill="white"/>
<path d="M226.575 171.581L223.749 180.224L228.166 186.602L229.985 177.926L226.575 171.581Z" fill="#310072"/>
<path d="M226.965 184.853L222.093 225.968L233.201 250.28L241.418 210.817L228.784 183.623L226.965 184.853Z" fill="#310072"/>
<path d="M343.907 36.2904L328.525 58.2601L319.333 52.9741L321.957 48.3893L319.719 45.7724L312.658 49.1665L297.105 40.2169L297.131 33.1099L302.26 33.6655L296.829 29.521L300.5 23.1522L305.66 25.4252L299.066 20.9553L303.62 13.0729L319.455 22.1553C319.455 22.1553 322.381 9.97684 328.715 7.8588L332.275 9.91128C332.275 9.91128 329.703 13.1707 329.056 15.4907C328.408 17.8106 328.121 29.5123 328.121 29.5123L332.505 33.7346L334.923 30.7129L343.907 36.2904Z" fill="#ECF1FE"/>
<path d="M293.952 98.5312L291.289 147.026H348.713L351.019 158.843L354.137 147.026H398.309L401.329 101.866L293.952 98.5312Z" fill="#F4D532"/>
<path d="M324.809 121.225C324.809 126.825 320.262 131.358 314.643 131.358C309.024 131.358 304.477 126.825 304.477 121.225C304.477 115.624 309.024 111.092 314.643 111.092C320.229 111.092 324.809 115.624 324.809 121.225Z" fill="white"/>
<path d="M333.223 114.103C350.826 115.236 368.463 114.848 386.067 116.402C387.333 116.499 387.366 114.459 386.067 114.427C368.495 113.715 350.826 112.128 333.223 113.164C332.605 113.197 332.605 114.071 333.223 114.103Z" fill="white"/>
<path d="M333.223 121.419C350.826 122.553 368.463 122.164 386.067 123.718C387.333 123.815 387.366 121.776 386.067 121.743C368.495 121.031 350.826 119.445 333.223 120.481C332.605 120.513 332.605 121.387 333.223 121.419Z" fill="white"/>
<path d="M333.223 129.74C350.826 130.873 368.463 130.484 386.067 132.038C387.333 132.135 387.366 130.096 386.067 130.063C368.495 129.351 350.794 127.765 333.223 128.801C332.605 128.833 332.605 129.707 333.223 129.74Z" fill="white"/>
<g opacity="0.48">
<path opacity="0.48" d="M320.749 130.905C322.828 129.966 319.872 126.308 318.118 124.851C316.364 123.394 313.896 122.844 311.655 123.394C309.446 123.945 307.53 125.628 306.686 127.732C306.718 127.732 311.038 135.308 320.749 130.905Z" fill="#EDC483"/>
</g>
<path opacity="0.48" d="M318.313 118.182C318.313 120.221 316.657 121.84 314.643 121.84C312.597 121.84 310.973 120.189 310.973 118.182C310.973 116.142 312.629 114.523 314.643 114.523C316.657 114.523 318.313 116.175 318.313 118.182Z" fill="#EDC483"/>
<path d="M386.277 43.8682L389.46 77.148L436.978 71.8712L441.59 86.86L446.04 69.605L469.295 67.5655L463.351 23.214L386.277 43.8682Z" fill="#ECF1FE"/>
<path d="M400.99 54.4543C419.601 51.7997 438.114 48.5624 456.433 44.3215C457.342 44.1272 456.952 42.7352 456.043 42.9294C437.692 46.879 419.276 50.5695 400.763 53.645C400.243 53.7745 400.471 54.5515 400.99 54.4543Z" fill="#9AA4BC"/>
<path d="M400.99 60.864C419.601 58.2094 438.114 54.9721 456.433 50.7312C457.342 50.5369 456.952 49.1449 456.043 49.3391C437.692 53.2887 419.276 56.9792 400.763 60.0547C400.243 60.1518 400.471 60.9288 400.99 60.864Z" fill="#9AA4BC"/>
<path d="M426.42 159.408C426.745 159.246 427.004 159.052 427.264 158.826C425.51 158.696 423.757 158.502 422.035 158.275C423.367 159.02 424.861 159.441 426.42 159.408Z" fill="#0674B7"/>
<path d="M426.941 159.44C426.746 159.44 426.584 159.408 426.39 159.408C426.358 159.408 426.358 159.44 426.325 159.44H426.941Z" fill="#0674B7"/>
<rect y="169.926" width="111.515" height="7.16093" rx="3.58047" fill="#06D2FF"/>
<rect x="392.141" y="292.017" width="111.515" height="7.16093" rx="3.58047" fill="#FF8E5E"/>
<rect x="64.0244" y="142.949" width="87.5364" height="7.16093" rx="3.58047" fill="#FCA70C"/>
<circle cx="47.6156" cy="226.386" r="9.93984" fill="#F4D532"/>
</svg>
