<svg viewBox="0 0 107 107" xmlns="http://www.w3.org/2000/svg" xmlns:xlink="http://www.w3.org/1999/xlink"><svg fill="none" viewBox="0 0 37 37" id="arhiv" xmlns="http://www.w3.org/2000/svg"><circle cx="18.5" cy="18.5" r="18.5" fill="#FCA70C" fill-opacity=".2"/><g clip-path="url(#aaclip0)" fill="#FCA70C"><path d="M28.898 16.811a.424.424 0 0 0-.322-.148h-.882v-4.751a.59.59 0 0 0-.59-.59H16.867l-.83-1.383a.593.593 0 0 0-.506-.287h-4.606a.591.591 0 0 0-.59.59v6.42h-.91a.424.424 0 0 0-.42.489l1.641 10.836c.033.209.209.36.42.36h15.868c.21 0 .387-.152.42-.361l1.64-10.834a.423.423 0 0 0-.096-.341zm-17.895-6.49h4.485l.83 1.382a.59.59 0 0 0 .505.287h10.204v4.673h-.334v-1.335h-.334v-1.002h-.334v-1.001h-14.02v1.001h-.335v1.002h-.333v1.335h-.334V10.32zm1.001 5.674h14.021v.668h-14.02v-.668zm.334-1.001h13.353v.334H12.338v-.334zm13.02-.668H12.672v-.334h12.686v.334zm1.367 13.353h-15.45L9.707 17.331h18.586l-1.568 10.348z"/><path d="M17.998 26.01h7.01v-4.673h-7.01v4.674zm.668-4.005h5.675v3.338h-5.675v-3.338z"/><path d="M19.668 23.34h1.335a.334.334 0 1 0 0-.668h-1.335a.333.333 0 1 0 0 .668zm2.67 0h.334a.333.333 0 1 0 0-.668h-.334a.334.334 0 1 0 0 .668zm1.002.667h-3.672a.334.334 0 1 0 0 .668h3.672a.334.334 0 1 0 0-.668z"/></g><defs><clipPath id="aaclip0"/></defs></svg><svg fill="none" viewBox="0 0 16 16" id="arrow" xmlns="http://www.w3.org/2000/svg"><path d="M1 8h14M8 1l7 7-7 7" stroke="#fff" stroke-width="2" stroke-linecap="round" stroke-linejoin="round"/></svg><svg fill="none" viewBox="0 0 16 16" id="arrow2" xmlns="http://www.w3.org/2000/svg"><path d="M1.682 8h13.233M8.299 1l6.617 7-6.617 7" stroke="#fff" stroke-width="2" stroke-linecap="round" stroke-linejoin="round"/></svg><svg fill="none" viewBox="0 0 70 70" id="compensation" xmlns="http://www.w3.org/2000/svg"><circle cx="35" cy="35" r="35" fill="#7057D6" fill-opacity=".2"/><g clip-path="url(#adclip0)" fill="#7057D6"><path d="M20.646 50.541a.787.787 0 0 0-.552-.228.787.787 0 0 0-.552.228.787.787 0 0 0-.23.553.787.787 0 0 0 .781.781.787.787 0 0 0 .553-.229.787.787 0 0 0 .23-.552.787.787 0 0 0-.23-.553zm30.035-21.249a.785.785 0 0 0-.552-.229.787.787 0 0 0-.552.23.788.788 0 0 0-.23.552.787.787 0 0 0 .781.781.786.786 0 0 0 .783-.781.785.785 0 0 0-.23-.553z"/><path d="M53.77 15.229a.781.781 0 0 0-.552-.229L34 15.001a.781.781 0 0 0-.781.781v2.234l-7.406 1.985a.781.781 0 0 0-.552.956l3.838 14.324-3.32 3.32a2.343 2.343 0 0 0-1.935-1.023h-7.5A2.346 2.346 0 0 0 14 39.922v12.734A2.346 2.346 0 0 0 16.345 55h7.5a2.35 2.35 0 0 0 2.275-1.78l.928.81c.718.626 1.636.97 2.588.97h23.583a.78.78 0 0 0 .781-.781V15.78a.782.782 0 0 0-.228-.552zM24.626 52.656c0 .431-.35.782-.781.782h-7.5a.782.782 0 0 1-.781-.782V39.922c0-.43.35-.781.781-.781h2.969v9a.781.781 0 0 0 1.562 0v-9h2.969c.43 0 .781.35.781.781v12.734zm2.347-31.348l6.247-1.674v2.895l-.524.14a.781.781 0 0 0-.552.957 2.106 2.106 0 0 1-1.488 2.576.781.781 0 0 0-.552.959l3.045 11.276H31.58l-.808-3.161a.778.778 0 0 0-.13-.274l-3.67-13.694zm6.247 4.804v6.592l-1.425-5.276a3.66 3.66 0 0 0 1.425-1.316zm11.223 27.326H29.635a2.374 2.374 0 0 1-1.56-.585l-1.887-1.646V40.402l3.41-3.41.619 2.42a.78.78 0 0 0 .757.587l15.36.001a1.095 1.095 0 0 1 0 2.188h-7.87a.781.781 0 0 0 0 1.562h10.315a1.095 1.095 0 0 1 0 2.188H38.463a.781.781 0 0 0 0 1.562h8.644a1.095 1.095 0 0 1 0 2.188h-8.644a.781.781 0 0 0 0 1.562h5.98a1.095 1.095 0 0 1-.001 2.187zm7.995 0h-5.575a2.64 2.64 0 0 0 0-2.188h.245a2.66 2.66 0 0 0 2.656-2.656 2.64 2.64 0 0 0-.282-1.189 2.66 2.66 0 0 0 1.954-2.561c0-.593-.195-1.14-.524-1.583V33.36a.781.781 0 0 0-1.563 0v8.89a2.658 2.658 0 0 0-.57-.062h-.025a2.66 2.66 0 0 0-2.42-3.75h-1.255A3.744 3.744 0 0 0 47.348 35a3.743 3.743 0 0 0-3.74-3.739A3.743 3.743 0 0 0 39.87 35c0 1.54.937 2.866 2.27 3.438h-4.27V23.583a3.678 3.678 0 0 0 2.8-2.801h5.877a3.678 3.678 0 0 0 2.801 2.801v2.429a.781.781 0 0 0 1.563 0v-3.127a.781.781 0 0 0-.782-.78A2.106 2.106 0 0 1 48.026 20a.781.781 0 0 0-.781-.782h-7.272a.781.781 0 0 0-.781.782c0 1.16-.944 2.103-2.104 2.103a.781.781 0 0 0-.78.782v15.552H34.78V16.563h17.656v36.874zM43.61 37.176c-1.2 0-2.176-.976-2.176-2.176 0-1.2.976-2.176 2.176-2.176 1.2 0 2.176.976 2.176 2.176 0 1.2-.976 2.176-2.176 2.176z"/></g><defs><clipPath id="adclip0"/></defs></svg><svg fill="none" viewBox="0 0 70 70" id="comunication" xmlns="http://www.w3.org/2000/svg"><circle cx="35" cy="35" r="35" fill="#7057D6" fill-opacity=".2"/><g fill="#7057D6"><path d="M42.667 21.334H29.333v1.333h13.334v-1.334zM49 43a2.336 2.336 0 0 0-2.333-2.333h-1.334v-9.334H44v9.334h-1.667A2.336 2.336 0 0 0 40 43c0 .653.272 1.243.706 1.667A2.324 2.324 0 0 0 40 46.333c0 .45.134.866.355 1.223A2.331 2.331 0 0 0 39 49.666c0 .36.089.697.234 1H34a5.997 5.997 0 0 0-2.58-4.926A4.007 4.007 0 0 0 34 42a.667.667 0 0 0-.667-.666H28v-6.667h-1.333v6.666c-1.103 0-2 .898-2 2V58H26V43.334c0-.368.299-.667.667-.667h5.915a2.67 2.67 0 0 1-2.582 2h-2A.667.667 0 1 0 28 46a4.672 4.672 0 0 1 4.667 4.667v.666c0 .369.298.667.666.667h3.901c-.145.304-.234.64-.234 1a2.336 2.336 0 0 0 2.333 2.334V58h1.334v-2.666h3A2.336 2.336 0 0 0 46 53c0-.363-.09-.703-.24-1.01A2.332 2.332 0 0 0 48 49.668c0-.45-.134-.866-.355-1.223A2.331 2.331 0 0 0 49 46.334c0-.654-.271-1.243-.705-1.667A2.324 2.324 0 0 0 49 43zm-5.333 11h-4.334a1.001 1.001 0 0 1 0-2h4.334a1.001 1.001 0 0 1 0 2zm2-3.333h-4.334a1.001 1.001 0 0 1 0-2h4.334a1.001 1.001 0 0 1 0 2zm1-3.334h-4.334a1.001 1.001 0 0 1 0-2h4.334a1.001 1.001 0 0 1 0 2zm0-3.333h-4.334a1.001 1.001 0 0 1 0-2h4.334a1.001 1.001 0 0 1 0 2zM25.998 26.486a.666.666 0 0 0-.262-.484l-.694-.526A1.827 1.827 0 0 0 23.257 24a1.83 1.83 0 0 0-1.82 1.809 3.87 3.87 0 0 1-1.498-.605l-.233-.157a.666.666 0 0 0-1.04.553v.547c0 .803.243 1.57.692 2.213l-.498.505A.666.666 0 0 0 19.332 30h3.23a2.524 2.524 0 0 0 2.498-2.242l.746-.756a.667.667 0 0 0 .191-.516zm-2.062.512a.665.665 0 0 0-.192.469c0 .661-.53 1.2-1.18 1.2h-1.696a.668.668 0 0 0-.137-.736 2.549 2.549 0 0 1-.647-1.139c.636.269 1.32.408 2.019.408a.666.666 0 0 0 .667-.667v-.7c0-.275.218-.5.487-.5.268 0 .487.225.487.5 0 .209.097.406.263.532l.318.24-.389.393z"/><path d="M38 29.333V28h-2a.667.667 0 0 0-.667.667v2H34V32h1.333v2.667h1.334V32H38v-1.333h-1.333v-1.334H38z"/><path d="M40 25.334h-8c-1.103 0-2 .897-2 2v8c0 1.102.897 2 2 2h8c1.103 0 2-.898 2-2v-8c0-1.103-.897-2-2-2zm.667 10A.667.667 0 0 1 40 36h-8a.667.667 0 0 1-.667-.666v-8c0-.368.3-.667.667-.667h8c.368 0 .667.299.667.666v8zM26 21.334h-8c-1.103 0-2 .897-2 2v8c0 1.102.897 2 2 2h8c1.103 0 2-.898 2-2v-8c0-1.103-.897-2-2-2zm.667 10A.667.667 0 0 1 26 32h-8a.667.667 0 0 1-.667-.666v-8c0-.368.3-.667.667-.667h8c.368 0 .667.299.667.666v8zM54 18h-8c-1.103 0-2 .897-2 2v8c0 1.103.897 2 2 2h8c1.103 0 2-.897 2-2v-8c0-1.103-.897-2-2-2zm.667 10a.667.667 0 0 1-.667.667h-8a.667.667 0 0 1-.667-.667v-3.333h1.401A3.339 3.339 0 0 0 50 27.333a3.339 3.339 0 0 0 3.266-2.666h1.4V28zM48 24c0-1.103.897-2 2-2s2 .897 2 2-.897 2-2 2-2-.897-2-2zm6.667-.667h-1.401A3.339 3.339 0 0 0 50 20.667a3.339 3.339 0 0 0-3.266 2.666h-1.4V20c0-.367.298-.667.666-.667h8c.368 0 .667.3.667.667v3.333zm-18 22.001h-1.334v1.333h1.334v-1.334z"/></g></svg><svg fill="none" viewBox="0 0 37 37" id="control" xmlns="http://www.w3.org/2000/svg"><circle cx="18.5" cy="18.5" r="18.5" fill="#FCA70C" fill-opacity=".2"/><path d="M29.102 16.53H27.86a9.132 9.132 0 0 0-.852-2.048l.88-.88a.898.898 0 0 0 0-1.268l-2.222-2.223a.898.898 0 0 0-1.268 0l-.88.88a9.132 9.132 0 0 0-2.049-.851V8.898A.899.899 0 0 0 20.571 8H17.43a.899.899 0 0 0-.898.898v1.242c-.718.2-1.405.486-2.049.852l-.88-.88a.898.898 0 0 0-1.268 0l-2.223 2.222a.898.898 0 0 0 0 1.268l.88.88a9.132 9.132 0 0 0-.851 2.049H8.898a.899.899 0 0 0-.898.898v3.142c0 .496.403.898.898.898h1.242c.2.718.486 1.405.852 2.049l-.88.88a.898.898 0 0 0 0 1.268l2.222 2.223c.35.35.918.35 1.268 0l.88-.88a9.13 9.13 0 0 0 2.049.851v1.242c0 .495.402.898.898.898h3.143a.899.899 0 0 0 .897-.898V27.86a9.132 9.132 0 0 0 2.049-.852l.88.88c.35.35.919.35 1.268 0l2.223-2.222a.898.898 0 0 0 0-1.268l-.88-.88c.365-.644.65-1.33.851-2.049h1.242a.899.899 0 0 0 .898-.898V17.43a.899.899 0 0 0-.898-.898zm0 4.041h-1.59a.45.45 0 0 0-.436.345 8.24 8.24 0 0 1-1.013 2.436.449.449 0 0 0 .064.554l1.127 1.125-2.221 2.223-1.127-1.127a.449.449 0 0 0-.554-.064 8.24 8.24 0 0 1-2.436 1.013.45.45 0 0 0-.345.437v1.589H17.43v-1.59a.449.449 0 0 0-.345-.436 8.244 8.244 0 0 1-2.436-1.013.448.448 0 0 0-.554.064l-1.125 1.127-2.223-2.221 1.127-1.127a.449.449 0 0 0 .065-.554 8.241 8.241 0 0 1-1.014-2.436.45.45 0 0 0-.437-.345h-1.59V17.43h1.59a.449.449 0 0 0 .436-.345 8.244 8.244 0 0 1 1.013-2.436.449.449 0 0 0-.064-.554l-1.127-1.125 2.221-2.223 1.127 1.127a.449.449 0 0 0 .554.065 8.241 8.241 0 0 1 2.436-1.014.45.45 0 0 0 .345-.437v-1.59h3.142v1.59c0 .207.143.388.345.436a8.243 8.243 0 0 1 2.436 1.013c.177.11.407.084.554-.064l1.125-1.127 2.223 2.221-1.127 1.127a.449.449 0 0 0-.064.554 8.24 8.24 0 0 1 1.013 2.436.45.45 0 0 0 .437.345h1.589v3.142z" fill="#FCA70C"/><path d="M19 13.612A5.394 5.394 0 0 0 13.612 19 5.394 5.394 0 0 0 19 24.388 5.394 5.394 0 0 0 24.388 19 5.394 5.394 0 0 0 19 13.612zm0 9.878A4.495 4.495 0 0 1 14.51 19 4.495 4.495 0 0 1 19 14.51 4.495 4.495 0 0 1 23.49 19 4.495 4.495 0 0 1 19 23.49z" fill="#FCA70C"/><path d="M19 16.306A2.697 2.697 0 0 0 16.306 19 2.697 2.697 0 0 0 19 21.694 2.697 2.697 0 0 0 21.694 19 2.697 2.697 0 0 0 19 16.306zm0 4.49c-.99 0-1.796-.806-1.796-1.796s.806-1.796 1.796-1.796 1.796.806 1.796 1.796-.806 1.796-1.796 1.796z" fill="#FCA70C"/></svg><svg fill="none" viewBox="0 0 23 24" id="controlFinance" xmlns="http://www.w3.org/2000/svg"><path d="M10.151 16.278a.5.5 0 0 0 0-.663.407.407 0 0 0-.609 0 .5.5 0 0 0 0 .663.408.408 0 0 0 .61 0zM8.113 5.155c0 2.842 2.124 5.155 4.735 5.155 2.61 0 4.734-2.313 4.734-5.155C17.582 2.312 15.458 0 12.848 0S8.113 2.312 8.113 5.155zm8.608 0c0 2.325-1.737 4.217-3.873 4.217S8.974 7.48 8.974 5.155c0-2.326 1.738-4.218 3.874-4.218S16.72 2.83 16.72 5.155z" fill="#7057D6"/><path d="M4.98 23.862a.406.406 0 0 0 .607.003l2.086-2.238c.355-.386.463-.957.307-1.454l.449-.471a1.23 1.23 0 0 1 .896-.395h5.722c1.015 0 1.974-.424 2.701-1.195.03-.031-.227.298 3.904-5.077.613-.79.521-1.974-.204-2.642-.721-.662-1.802-.566-2.416.21l-2.54 2.841c-.32-.43-.81-.697-1.338-.697h-4.8a5.163 5.163 0 0 0-2.155-.469c-2.072 0-3.882 1.042-4.853 2.996a1.22 1.22 0 0 0-1.151.389L.147 17.899a.499.499 0 0 0 0 .66l4.832 5.303zM8.2 13.215c.658 0 1.296.145 1.894.43a.4.4 0 0 0 .173.039h4.887c.467 0 .861.414.861.937 0 .517-.386.938-.86.938h-3.512c-.238 0-.43.21-.43.468 0 .259.192.469.43.469h3.511c.95 0 1.722-.841 1.722-1.875 0-.082-.006-.164-.015-.245 2.456-2.75 2.803-3.136 2.818-3.155a.816.816 0 0 1 1.213-.112.998.998 0 0 1 .101 1.323l-3.86 5.025c-.564.589-1.304.913-2.086.913H9.325c-.561 0-1.092.234-1.494.657l-.366.385-3.372-3.671c.788-1.61 2.267-2.526 4.106-2.526zm-5.396 3.11a.404.404 0 0 1 .533-.066c.074.05-.14-.162 3.728 4.042a.5.5 0 0 1 .002.66l-1.779 1.91-4.23-4.64 1.746-1.906zm9.527-13.982v.55c-.5.193-.86.714-.86 1.325 0 .775.579 1.406 1.29 1.406.238 0 .431.21.431.468 0 .259-.193.469-.43.469-.184 0-.383-.126-.56-.355a.407.407 0 0 0-.606-.057.498.498 0 0 0-.052.66c.23.298.5.506.787.61v.548c0 .259.193.468.43.468.238 0 .431-.21.431-.468v-.55c.501-.193.86-.714.86-1.325 0-.775-.578-1.406-1.29-1.406-.238 0-.43-.21-.43-.468 0-.259.192-.469.43-.469.152 0 .313.085.465.245.171.18.444.175.609-.01a.499.499 0 0 0-.01-.663 1.646 1.646 0 0 0-.634-.432v-.546c0-.259-.193-.468-.43-.468-.238 0-.43.21-.43.468z" fill="#7057D6"/></svg><svg fill="none" viewBox="0 0 37 37" id="controlMoney" xmlns="http://www.w3.org/2000/svg"><circle cx="18.5" cy="18.5" r="18.5" fill="#555BE4" fill-opacity=".2"/><path d="M17.151 22.278a.5.5 0 0 0 0-.663.407.407 0 0 0-.609 0 .5.5 0 0 0 0 .663.408.408 0 0 0 .61 0zm-2.038-11.123c0 2.842 2.124 5.155 4.735 5.155 2.61 0 4.734-2.313 4.734-5.155C24.582 8.312 22.458 6 19.848 6s-4.735 2.312-4.735 5.155zm8.608 0c0 2.325-1.737 4.217-3.873 4.217s-3.874-1.892-3.874-4.217c0-2.326 1.738-4.218 3.874-4.218s3.873 1.892 3.873 4.218z" fill="#7057D6"/><path d="M11.98 29.862a.406.406 0 0 0 .606.003l2.087-2.238c.355-.386.463-.957.307-1.454l.448-.471a1.23 1.23 0 0 1 .897-.395h5.722c1.015 0 1.974-.424 2.701-1.195.03-.031-.227.298 3.904-5.077.613-.79.521-1.974-.204-2.642-.721-.662-1.802-.567-2.416.21l-2.54 2.841c-.32-.43-.81-.697-1.338-.697h-4.8a5.163 5.163 0 0 0-2.155-.469c-2.072 0-3.882 1.042-4.853 2.997a1.22 1.22 0 0 0-1.151.388l-2.048 2.236a.499.499 0 0 0 0 .66l4.832 5.303zm3.22-10.647c.658 0 1.296.145 1.894.43a.4.4 0 0 0 .172.039h4.888c.467 0 .861.414.861.937 0 .517-.386.938-.86.938h-3.513c-.237 0-.43.21-.43.468 0 .259.193.469.43.469h3.512c.95 0 1.722-.841 1.722-1.875 0-.082-.006-.164-.015-.245 2.456-2.75 2.803-3.136 2.818-3.155a.816.816 0 0 1 1.213-.112.998.998 0 0 1 .101 1.323l-3.86 5.025c-.564.589-1.304.913-2.086.913h-5.722c-.561 0-1.092.234-1.494.657l-.366.385-3.372-3.671c.788-1.61 2.267-2.526 4.106-2.526zm-5.396 3.11a.404.404 0 0 1 .533-.066c.074.05-.14-.162 3.728 4.042a.5.5 0 0 1 .002.66l-1.779 1.91-4.23-4.64 1.746-1.906zm9.527-13.982v.55c-.5.193-.86.714-.86 1.325 0 .775.579 1.406 1.29 1.406.238 0 .431.21.431.468s-.193.469-.43.469c-.184 0-.383-.126-.56-.355a.407.407 0 0 0-.606-.057.498.498 0 0 0-.052.66c.23.298.5.506.787.61v.548c0 .258.193.468.43.468.238 0 .431-.21.431-.468v-.55c.501-.193.86-.714.86-1.325 0-.775-.578-1.406-1.29-1.406-.238 0-.43-.21-.43-.468 0-.259.192-.469.43-.469.152 0 .313.085.465.245.171.18.444.175.609-.01a.499.499 0 0 0-.01-.664 1.646 1.646 0 0 0-.634-.43v-.547c0-.259-.193-.468-.43-.468-.238 0-.43.21-.43.468z" fill="#7057D6"/></svg><svg viewBox="0 0 45 45" id="cooperate-commerce" xmlns="http://www.w3.org/2000/svg"><path d="M22.5 29.531a.88.88 0 1 0 0 1.759.88.88 0 0 0 0-1.759zM13.71 13.71h1.038l1.334 6.67a2.645 2.645 0 0 0 2.586 2.12h7.664c1.253 0 2.34-.892 2.586-2.12l1.334-6.67h1.037a.879.879 0 0 0 0-1.757h-4.64l-1.557-4.672a.879.879 0 1 0-1.668.555l1.372 4.117h-4.592l1.372-4.117a.879.879 0 1 0-1.668-.555l-1.557 4.672h-4.64a.879.879 0 1 0 0 1.758zm14.75 0l-1.265 6.325a.882.882 0 0 1-.863.707h-7.664a.882.882 0 0 1-.863-.707l-1.264-6.324h11.918z" fill="#fff"/><path d="M20.742 18.984a.879.879 0 0 0 .88-.879v-1.757a.879.879 0 1 0-1.759 0v1.758c0 .485.394.878.88.878zm3.516 0a.879.879 0 0 0 .879-.879v-1.757a.879.879 0 1 0-1.758 0v1.758c0 .485.393.878.879.878z" fill="#fff"/><path d="M2.637 34.805h15.468v3.515H15.47a4.365 4.365 0 0 0-3.107 1.288 4.365 4.365 0 0 0-1.288 3.107.88.88 0 0 0 .88.879h21.093a.879.879 0 0 0 .879-.88 4.4 4.4 0 0 0-4.395-4.394h-2.636v-3.515h15.468a2.62 2.62 0 0 0 1.864-.773c.499-.498.773-1.16.773-1.864V4.043c0-.704-.274-1.366-.773-1.864a2.619 2.619 0 0 0-1.864-.773H2.637c-.704 0-1.366.275-1.865.773A2.619 2.619 0 0 0 0 4.043v28.125c0 .704.274 1.366.772 1.864.499.498 1.16.773 1.865.773zm29.38 7.03H12.982c.129-.365.34-.701.623-.984a2.618 2.618 0 0 1 1.864-.773H29.53a2.64 2.64 0 0 1 2.486 1.758zm-6.88-3.515h-5.274v-3.515h5.274v3.515zm17.848-5.53a.873.873 0 0 1-.622.257H2.637a.873.873 0 0 1-.622-.258.873.873 0 0 1-.257-.621v-4.395h41.484v4.395a.873.873 0 0 1-.257.621zM2.015 3.421a.873.873 0 0 1 .622-.258h39.726a.87.87 0 0 1 .622.258.873.873 0 0 1 .257.621v21.973H1.758V4.043c0-.235.091-.455.257-.621z" fill="#fff"/></svg><svg fill="none" viewBox="0 0 45 45" id="cooperate-it" xmlns="http://www.w3.org/2000/svg"><path d="M42 .75H3c-1.654 0-3 1.346-3 3V28.5c0 .414.336.75.75.75h43.5a.75.75 0 0 0 .75-.75V3.75c0-1.654-1.346-3-3-3zm1.5 27h-42v-24c0-.827.674-1.5 1.5-1.5h39c.827 0 1.5.673 1.5 1.5v24z" fill="#fff"/><path d="M44.25 27.75H.75a.75.75 0 0 0-.75.75v3.75c0 1.654 1.346 3 3 3h39c1.654 0 3-1.346 3-3V28.5a.75.75 0 0 0-.75-.75zm-.75 4.5c0 .827-.673 1.5-1.5 1.5H3c-.826 0-1.5-.673-1.5-1.5v-3h42v3z" fill="#fff"/><path d="M24.75 30.75h-4.5a.75.75 0 0 0 0 1.5h4.5a.75.75 0 0 0 0-1.5zm16.5-27H3.75A.75.75 0 0 0 3 4.5v24c0 .414.336.75.75.75h37.5a.75.75 0 0 0 .75-.75v-24a.75.75 0 0 0-.75-.75zm-.75 24h-36V5.25h36v22.5zm-8.25 12h-19.5c-1.24 0-2.25 1.01-2.25 2.25s1.01 2.25 2.25 2.25h19.5c1.24 0 2.25-1.01 2.25-2.25s-1.01-2.25-2.25-2.25zm0 3h-19.5a.75.75 0 0 1 0-1.5h19.5a.75.75 0 0 1 0 1.5z" fill="#fff"/><path d="M30.75 39.75c-2.489 0-3.75-1.766-3.75-5.25a.75.75 0 0 0-.75-.75h-7.5a.75.75 0 0 0-.75.75c0 3.484-1.262 5.25-3.75 5.25a.75.75 0 0 0 0 1.5h16.5a.75.75 0 0 0 0-1.5zm-12.847 0c.923-1.023 1.467-2.546 1.577-4.5h6.04c.11 1.954.653 3.477 1.577 4.5h-9.194zm17.935-16.902l-1.81-1.81 1.007-1.008a.75.75 0 0 0-.314-1.248l-7.5-2.25a.749.749 0 0 0-.934.933l2.25 7.5a.749.749 0 0 0 1.249.315l1.06-1.061 1.81 1.811a.749.749 0 0 0 1.061 0l2.121-2.122a.75.75 0 0 0 0-1.06zm-2.65 1.591l-1.65-1.649a.978.978 0 0 0-1.384 0l-.541.54-1.49-4.962 4.964 1.489-.58.58a.845.845 0 0 0-.248.6c0 .228.088.442.249.601l1.74 1.74-1.06 1.061zM31.5 6.75h-21a.75.75 0 0 0-.75.75v3.75c0 .414.336.75.75.75h21a.75.75 0 0 0 .75-.75V7.5a.75.75 0 0 0-.75-.75zm-.75 3.75h-19.5V8.25h19.5v2.25zM19.5 15h-6a.75.75 0 0 0-.75.75v3c0 .414.336.75.75.75h6a.75.75 0 0 0 .75-.75v-3a.75.75 0 0 0-.75-.75zm-.75 3h-4.5v-1.5h4.5V18z" fill="#fff"/><path d="M31.5 6.75h-21a.75.75 0 0 0-.75.75v14.25c0 .414.336.75.75.75h17.855a.75.75 0 0 0 .718-.966l-.95-3.166 3.162.949a.748.748 0 0 0 .965-.719V7.5a.75.75 0 0 0-.75-.75zm-.75 10.84l-3.53-1.058a.749.749 0 0 0-.934.934L27.346 21H11.25V8.25h19.5v9.34z" fill="#fff"/></svg><svg fill="none" viewBox="0 0 45 45" id="cooperate-press" xmlns="http://www.w3.org/2000/svg"><g fill="#fff"><path d="M42.729 1.67H9.805a2.274 2.274 0 0 0-2.271 2.27v3.45H2.27A2.274 2.274 0 0 0 0 9.661v29.227a4.43 4.43 0 0 0 4.394 4.425h23.35a.66.66 0 1 0 0-1.318H7.574a4.412 4.412 0 0 0 1.278-3.107V23.473a.66.66 0 0 0-1.318 0v15.415a3.111 3.111 0 0 1-3.091 3.107h-.017a3.111 3.111 0 0 1-3.108-3.107V9.66c0-.526.428-.953.953-.953h5.263v12.304a.659.659 0 1 0 1.318 0V3.942c0-.526.428-.954.953-.954h32.924c.525 0 .953.428.953.953v34.947a3.111 3.111 0 0 1-3.108 3.107H30.205a.66.66 0 1 0 0 1.319h10.369A4.43 4.43 0 0 0 45 38.888V3.94a2.274 2.274 0 0 0-2.271-2.271z"/><path d="M14.442 27.972h9.04c.86 0 1.56-.7 1.56-1.56v-9.04c0-.86-.7-1.56-1.56-1.56h-9.04c-.86 0-1.56.7-1.56 1.56v9.04c0 .86.7 1.56 1.56 1.56zm-.241-10.6c0-.134.108-.242.241-.242h9.04c.134 0 .242.108.242.242v9.04a.242.242 0 0 1-.241.242h-9.041a.242.242 0 0 1-.241-.242v-9.04zm13.238-.242h12.234a.66.66 0 1 0 0-1.318H27.44a.66.66 0 1 0 0 1.318zm0 5.422h12.234a.66.66 0 0 0 0-1.319H27.44a.66.66 0 1 0 0 1.319zm0 5.42h12.234a.66.66 0 0 0 0-1.318H27.44a.66.66 0 1 0 0 1.318zm-13.898 5.421h26.132a.66.66 0 1 0 0-1.318H13.54a.66.66 0 0 0 0 1.318zm0 5.421h26.132a.66.66 0 1 0 0-1.318H13.54a.66.66 0 1 0 0 1.318zM12.9 12.439V5.474c0-.144.067-.253.203-.328a1.01 1.01 0 0 1 .494-.113c.258 0 .454.047.59.14.136.093.287.294.451.601l2.072 4.003V5.463c0-.143.068-.25.203-.322.136-.072.301-.108.494-.108.194 0 .358.036.494.108.136.072.204.179.204.322v6.976c0 .136-.07.243-.21.322a.974.974 0 0 1-.488.118c-.38 0-.648-.146-.805-.44l-2.307-4.315v4.315c0 .136-.07.243-.21.322a.976.976 0 0 1-.488.118.966.966 0 0 1-.493-.118c-.137-.079-.205-.186-.205-.322zm6.493 0V5.474c0-.136.06-.243.182-.322a.772.772 0 0 1 .43-.119h3.82c.143 0 .253.062.327.183a.78.78 0 0 1 .113.419.8.8 0 0 1-.118.44.366.366 0 0 1-.322.182h-3.037v2.146h1.631c.136 0 .243.056.322.167.079.11.118.241.118.392a.639.639 0 0 1-.113.37.37.37 0 0 1-.327.166h-1.631v2.158h3.037c.136 0 .243.06.322.182a.795.795 0 0 1 .118.44.78.78 0 0 1-.113.419.361.361 0 0 1-.327.182h-3.82a.772.772 0 0 1-.43-.118.366.366 0 0 1-.182-.322zm5.57-6.847c0-.15.096-.281.29-.392a1.19 1.19 0 0 1 .6-.167c.258 0 .412.093.462.28l1.696 5.817.912-3.735c.064-.258.293-.387.687-.387.386 0 .612.129.676.387l.912 3.735 1.696-5.817c.05-.187.204-.28.462-.28.207 0 .407.056.6.167.194.11.29.241.29.392a.413.413 0 0 1-.02.128L32.1 12.471c-.108.315-.412.473-.912.473a1.33 1.33 0 0 1-.58-.124c-.172-.082-.276-.198-.311-.349l-.687-2.897-.697 2.897c-.037.15-.14.267-.312.349a1.323 1.323 0 0 1-.58.124c-.221 0-.418-.042-.59-.124-.172-.082-.279-.198-.322-.349l-2.125-6.75a.402.402 0 0 1-.021-.13zm9.637 6.053c0-.165.063-.331.188-.5.125-.167.267-.251.424-.251.093 0 .199.044.317.133.118.09.232.188.343.296.111.107.27.206.478.295.207.09.436.134.687.134.343 0 .63-.079.858-.236.23-.158.344-.39.344-.698a.936.936 0 0 0-.188-.574 1.494 1.494 0 0 0-.494-.419 7.825 7.825 0 0 0-.67-.322c-.244-.103-.489-.22-.736-.348a4.28 4.28 0 0 1-.676-.435 1.735 1.735 0 0 1-.493-.644 2.143 2.143 0 0 1-.188-.917c0-.385.077-.725.23-1.02.154-.293.36-.522.617-.685a2.87 2.87 0 0 1 .827-.36 3.7 3.7 0 0 1 .934-.115 5.275 5.275 0 0 1 1.25.166c.233.059.422.15.569.275.146.125.22.272.22.441 0 .16-.05.325-.15.495-.1.17-.236.255-.408.255-.065 0-.24-.068-.526-.204a2.198 2.198 0 0 0-.955-.204c-.387 0-.685.074-.896.22a.7.7 0 0 0-.317.606c0 .208.086.389.258.543.171.153.384.279.638.375.254.097.53.219.827.365.296.147.572.306.826.478.254.171.467.42.639.745.171.326.257.707.257 1.144 0 .733-.234 1.3-.703 1.698-.469.399-1.086.598-1.851.598-.68 0-1.263-.14-1.75-.418-.486-.279-.73-.583-.73-.912z"/></g></svg><svg viewBox="0 0 45 45" id="cooperate-services" xmlns="http://www.w3.org/2000/svg"><g fill="#fff"><path d="M42.75 27H36V15.75h6.75a.75.75 0 0 0 .75-.75v-3.697L44.992.857a.75.75 0 0 0-.742-.856h-21a.75.75 0 0 0-.743.856L24 11.303v3.698c0 .414.336.75.75.75h6.75V27h-.75a2.25 2.25 0 1 0 0 4.5h.75V33h-5.25l.7-10.5h.8a.75.75 0 0 0 .75-.75v-3a.75.75 0 0 0-.75-.75h-5.306a5.26 5.26 0 0 0-2.657-3.842 5.25 5.25 0 1 0-9.99-2.863A7.488 7.488 0 0 0 1.54 18H.75a.75.75 0 0 0-.75.75v3c0 .414.336.75.75.75h.799L3 44.301a.75.75 0 0 0 .75.7h40.5a.75.75 0 0 0 .75-.75v-15A2.25 2.25 0 0 0 42.75 27zM24.115 1.502H27v4.5h1.5V1.5H30V3h1.5V1.5H36v2.25h1.5V1.5H39V6h1.5V1.5h2.885l-1.285 9H25.4l-1.285-9zm1.385 12.75V12H42v2.25H25.5zm9 1.5V27H33V15.75h1.5zM27 19.5V21H15.75v-1.5H27zM9.728 12.798c.206.026.41.062.613.109h.025a6.02 6.02 0 0 1 2.405 1.177l.943-1.167a7.536 7.536 0 0 0-2.425-1.3 3.74 3.74 0 1 1 6.825 2.475.75.75 0 0 0 .375 1.125A3.75 3.75 0 0 1 20.914 18H15a.75.75 0 0 0-.75.75v6.75a.75.75 0 0 1-1.5 0V24a2.25 2.25 0 1 0-4.5 0v5.25a.75.75 0 0 1-1.5 0v-10.5A.75.75 0 0 0 6 18H3.05a5.986 5.986 0 0 1 6.678-5.203zM1.5 21.001v-1.5h3.75V21H1.5zM21 35.25v8.25H4.452l-1.4-21H5.25v6.75a2.25 2.25 0 0 0 4.5 0V24a.75.75 0 0 1 1.5 0v1.5a2.25 2.25 0 1 0 4.5 0v-3h9.698L24.75 33h-1.5A2.25 2.25 0 0 0 21 35.25zm22.5 8.25h-2.25v-3.75h-1.5v3.75H37.5v-3.75H36v3.75h-2.25v-3.75h-1.5v3.75H30v-3.75h-1.5v3.75h-2.25v-3.75h-1.5v3.75H22.5v-6h21v6zm0-7.5h-21v-.75a.75.75 0 0 1 .75-.75h16.5a2.25 2.25 0 1 0 0-4.5h-9a.75.75 0 0 1 0-1.5h12a.75.75 0 0 1 .75.75V36zM33 33v-1.5h1.5V33H33zm3 0v-1.5h3.75a.75.75 0 0 1 0 1.5H36zM3 7.5V6H1.5v1.5H0V9h1.5v1.5H3V9h1.5V7.5H3z"/><path d="M42.75 21v-1.5h-1.5V21h-1.5v1.5h1.5V24h1.5v-1.5h1.5V21h-1.5zM14.25 1.5V0h-1.5v1.5h-1.5V3h1.5v1.5h1.5V3h1.5V1.5h-1.5zm14.25 6H27V9h1.5V7.5z"/></g></svg><svg viewBox="0 0 45 45" id="cooperate-star" xmlns="http://www.w3.org/2000/svg"><path d="M44.938 16.237a1.255 1.255 0 0 0-1.006-.85l-14.04-1.995-6.317-12.7a1.244 1.244 0 0 0-2.235.01l-6.234 12.736-14.039 2.088a1.255 1.255 0 0 0-1.007.85c-.147.452-.018.95.324 1.274l10.187 9.873-2.355 13.984c-.083.47.11.942.499 1.219a1.233 1.233 0 0 0 1.311.092l12.533-6.64 12.57 6.566c.185.093.38.139.573.139.684 0 1.247-.564 1.247-1.247a.975.975 0 0 0-.037-.286l-2.429-13.9 10.123-9.93c.36-.332.48-.83.332-1.283zm-12.653 9.892a1.233 1.233 0 0 0-.351 1.108l2.115 12.127-10.917-5.699a1.263 1.263 0 0 0-1.164 0l-10.88 5.764 2.041-12.146a1.246 1.246 0 0 0-.36-1.099l-8.83-8.57 12.183-1.811a1.24 1.24 0 0 0 .933-.684l5.412-11.055 5.486 11.028c.185.37.536.618.942.683l12.192 1.737-8.802 8.617z" fill="#fff"/></svg><svg fill="none" viewBox="0 0 48 48" id="cooperate-startup" xmlns="http://www.w3.org/2000/svg"><path d="M25.187 22.814a.938.938 0 1 0-1.326 1.326.938.938 0 0 0 1.326-1.326zm11.932-11.932a4.686 4.686 0 0 0-6.63 0 4.694 4.694 0 0 0 0 6.63 4.694 4.694 0 0 0 6.63-.001 4.685 4.685 0 0 0 0-6.63zm-1.326 5.303a2.816 2.816 0 0 1-3.977 0 2.811 2.811 0 1 1 3.978-3.978 2.811 2.811 0 0 1 0 3.978z" fill="#fff"/><path d="M47.725.275A.934.934 0 0 0 47.03 0c-.212.007-5.26.21-11.259 2.33-4.807 1.698-8.815 4.128-11.91 7.224a35.678 35.678 0 0 0-2.015 2.194c-3.06-1.802-5.513-1.237-7.064-.408-3.57 1.911-5.78 7.099-5.78 10.81a.938.938 0 0 0 1.601.663c1.883-1.883 4.205-1.765 4.964-1.666l.328.329a32.984 32.984 0 0 0-1.548 4.553 2.653 2.653 0 0 0 .113 1.628 8.88 8.88 0 0 0-2.531 1.785c-2.414 2.414-2.904 8.295-2.923 8.544a.937.937 0 0 0 1.008 1.009c.25-.02 6.13-.51 8.544-2.923a8.878 8.878 0 0 0 1.785-2.531 2.648 2.648 0 0 0 1.629.112 32.962 32.962 0 0 0 4.553-1.548l.328.329c.1.758.217 3.08-1.665 4.963a.937.937 0 0 0 .663 1.6c3.71 0 8.898-2.21 10.809-5.78.83-1.55 1.394-4.003-.407-7.063.764-.646 1.5-1.32 2.193-2.015 3.096-3.096 5.526-7.103 7.223-11.91C47.79 6.23 47.992 1.183 48 .971a.938.938 0 0 0-.274-.696zm-36.628 19.86c.583-2.82 2.274-5.912 4.57-7.14 1.533-.821 3.21-.74 4.992.235a37.896 37.896 0 0 0-3.939 6.42c-.014-.008-.183-.22-.496-.29-.13-.03-2.61-.563-5.127.774zm6.134 14.612c-1.289 1.289-4.313 1.969-6.224 2.246.277-1.91.957-4.935 2.246-6.224.722-.722 1.56-1.269 2.4-1.577l3.156 3.155c-.309.841-.856 1.678-1.578 2.4zm4.274-2.909c-.271.07-.585-.032-.819-.266l-1.836-1.836-2.421-2.421c-.234-.234-.336-.549-.267-.82.3-1.169.693-2.369 1.17-3.58l7.753 7.753c-1.211.477-2.41.87-3.58 1.17zm13.5.496c-1.228 2.295-4.32 3.986-7.139 4.569.899-1.691 1.097-3.844.769-5.15-.076-.302-.274-.455-.285-.473a37.922 37.922 0 0 0 6.42-3.939c.976 1.783 1.056 3.46.236 4.993zm2.114-9.52a34.027 34.027 0 0 1-2.703 2.426 36.02 36.02 0 0 1-7.474 4.633l-8.814-8.815a36.011 36.011 0 0 1 4.632-7.473 34 34 0 0 1 2.426-2.704c2.777-2.778 6.362-4.988 10.657-6.58l7.855 7.856c-1.59 4.295-3.8 7.88-6.579 10.657zm7.254-12.634L37.82 3.627a42.15 42.15 0 0 1 8.227-1.673 42.152 42.152 0 0 1-1.674 8.226z" fill="#fff"/><path d="M22.535 38.724a.938.938 0 0 0-1.326 0l-2.651 2.652a.938.938 0 0 0 1.326 1.326l2.651-2.652a.938.938 0 0 0 0-1.326zM9.277 25.466a.938.938 0 0 0-1.326 0l-2.652 2.65a.937.937 0 1 0 1.325 1.327l2.652-2.651a.938.938 0 0 0 0-1.326zm6.629 14.584a.938.938 0 0 0-1.326 0L8.23 46.4a.937.937 0 1 0 1.325 1.326l6.35-6.35a.937.937 0 0 0 0-1.325zm-7.5 0a.938.938 0 0 0-1.326 0L.73 46.4a.937.937 0 1 0 1.325 1.326l6.35-6.35a.937.937 0 0 0 0-1.325zm-.456-7.955a.938.938 0 0 0-1.326 0l-6.35 6.35A.938.938 0 0 0 1.6 39.771l6.35-6.35a.938.938 0 0 0 0-1.326zm21.214-13.259a.938.938 0 0 0-1.326 0l-1.325 1.326a.938.938 0 0 0 1.326 1.326l1.325-1.326a.938.938 0 0 0 0-1.326z" fill="#fff"/></svg><svg fill="none" viewBox="0 0 37 37" id="documents" xmlns="http://www.w3.org/2000/svg"><circle cx="18.5" cy="18.5" r="18.5" fill="#DF1818" fill-opacity=".2"/><g fill="red"><path d="M12 11.667h2A.333.333 0 0 0 14 11h-2a.333.333 0 1 0 0 .667zm3.667 0h3a.333.333 0 0 0 0-.667h-3a.333.333 0 1 0 0 .667zM12 15.334h10.667a.333.333 0 0 0 0-.667H12a.333.333 0 1 0 0 .667zm0 1.333h4.667a.333.333 0 0 0 0-.667H12a.333.333 0 1 0 0 .667zm0 2.666h4.667a.333.333 0 0 0 0-.666H12a.333.333 0 1 0 0 .666zM12 22h4.667a.333.333 0 0 0 0-.667H12A.333.333 0 1 0 12 22zm0 2.667h4.667a.333.333 0 0 0 0-.667H12a.333.333 0 1 0 0 .667z"/><path d="M29.8 17.71L26 16.069V9a1 1 0 0 0-1-1H12.333a1 1 0 0 0-1 1v.333H11a1 1 0 0 0-1 1V27a1 1 0 0 0 1 1h12.667c.27 0 .527-.11.715-.304l.273.194a.596.596 0 0 0 .69 0l3.225-2.296A3.395 3.395 0 0 0 30 22.836v-4.82a.333.333 0 0 0-.2-.306zM12 9c0-.184.15-.333.333-.333H25c.184 0 .333.149.333.333v6.781l-.2-.087a.334.334 0 0 0-.264 0l-.2.087v-2.114c0-.008-.003-.015-.004-.022a.314.314 0 0 0-.016-.082c-.002-.008-.002-.016-.005-.023-.003-.007-.005-.007-.007-.011a.332.332 0 0 0-.067-.098l-4-4a.334.334 0 0 0-.097-.067l-.012-.007c-.004-.001-.015-.002-.022-.005a.335.335 0 0 0-.083-.016c-.009.001-.015-.003-.023-.003H12V9zm8.667 1.471l2.862 2.862H21a.333.333 0 0 1-.333-.333v-2.529zm3 16.862H11a.333.333 0 0 1-.333-.333V10.333c0-.184.149-.333.333-.333h9v3a1 1 0 0 0 1 1h3v2.069l-1.073.464a.325.325 0 0 0 .073-.2.333.333 0 0 0-.333-.333H18a.333.333 0 1 0 0 .667h4.616l-1.543.666H12A.333.333 0 0 0 12 18h8.002l-.002.016v.65h-2a.333.333 0 1 0 0 .667h2V20h-8a.333.333 0 1 0 0 .667h8v.666h-2A.333.333 0 0 0 18 22h2v.667h-8a.333.333 0 1 0 0 .666h8.042c.033.228.09.451.168.667H18a.333.333 0 1 0 0 .667h2.547a3.4 3.4 0 0 0 .56.666H12A.333.333 0 0 0 12 26h10l1.816 1.293a.326.326 0 0 1-.15.04zm5.666-4.497a2.727 2.727 0 0 1-1.15 2.215L25 27.317l-3.184-2.266a2.727 2.727 0 0 1-1.15-2.215v-4.6l.604-.26.006-.003L25 16.363l4.333 1.872v4.601z"/><path d="M24.867 17.146l-3.334 1.44a.333.333 0 0 0-.2.306v3.945a2.06 2.06 0 0 0 .87 1.67l2.604 1.854a.33.33 0 0 0 .386 0l2.604-1.853a2.06 2.06 0 0 0 .87-1.671v-3.945a.333.333 0 0 0-.2-.305l-3.334-1.44a.333.333 0 0 0-.266 0zM28 19.113v3.724c-.003.45-.222.87-.59 1.13L25 25.68l-2.41-1.716a1.392 1.392 0 0 1-.59-1.128V19.11l3-1.295 3 1.297z"/><path d="M23.2 22.067a.334.334 0 0 0-.4.533l1.333 1a.333.333 0 0 0 .46-.058l2.667-3.334a.333.333 0 1 0-.52-.416l-2.465 3.081-1.075-.806z"/></g><defs><filter id="aofilter0_d" x="6" y="8" width="28" height="28" filterUnits="userSpaceOnUse" color-interpolation-filters="sRGB"><feFlood flood-opacity="0" result="BackgroundImageFix"/><feColorMatrix in="SourceAlpha" values="0 0 0 0 0 0 0 0 0 0 0 0 0 0 0 0 0 0 127 0"/><feOffset dy="4"/><feGaussianBlur stdDeviation="2"/><feColorMatrix values="0 0 0 0 0 0 0 0 0 0 0 0 0 0 0 0 0 0 0.25 0"/><feBlend in2="BackgroundImageFix" result="effect1_dropShadow"/><feBlend in="SourceGraphic" in2="effect1_dropShadow" result="shape"/></filter></defs></svg><svg fill="none" viewBox="0 0 37 37" id="done" xmlns="http://www.w3.org/2000/svg"><circle cx="18.5" cy="18.5" r="18.5" fill="#0BCCC9" fill-opacity=".2"/><path d="M25.071 11.929A9.935 9.935 0 0 0 18 9a9.935 9.935 0 0 0-7.071 2.929A9.935 9.935 0 0 0 8 19a9.935 9.935 0 0 0 2.929 7.071A9.935 9.935 0 0 0 18 29a9.935 9.935 0 0 0 7.071-2.929A9.935 9.935 0 0 0 28 19a9.935 9.935 0 0 0-2.929-7.071zM18 27.829c-4.868 0-8.828-3.961-8.828-8.829s3.96-8.828 8.828-8.828c4.868 0 8.828 3.96 8.828 8.828 0 4.868-3.96 8.828-8.828 8.828z" fill="#39C0F8"/><path d="M22.777 15.791a.586.586 0 0 0-.828 0l-5.174 5.174-2.724-2.723a.586.586 0 0 0-.829.828l3.138 3.138a.584.584 0 0 0 .829 0l5.588-5.588a.586.586 0 0 0 0-.829z" fill="#39C0F8"/></svg><svg fill="none" viewBox="0 0 107 107" id="done-icons" xmlns="http://www.w3.org/2000/svg"><circle cx="53.5" cy="53.5" r="53.5" fill="#EEF2FA"/><path class="aqtask__fill" d="M63.167 46.702c.702.702.702 1.84 0 2.541L51.113 61.298a1.797 1.797 0 0 1-2.542 0l-5.738-5.739a1.796 1.796 0 1 1 2.54-2.54l4.469 4.467 10.784-10.784a1.797 1.797 0 0 1 2.541 0zM76 54c0 12.713-10.288 23-23 23-12.713 0-23-10.288-23-23 0-12.713 10.288-23 23-23 12.713 0 23 10.288 23 23zm-3.594 0c0-10.727-8.68-19.406-19.406-19.406-10.727 0-19.406 8.68-19.406 19.406 0 10.727 8.68 19.406 19.406 19.406 10.727 0 19.406-8.68 19.406-19.406z"/></svg><svg fill="none" viewBox="0 0 107 107" id="done-icons1" xmlns="http://www.w3.org/2000/svg"><circle cx="53.5" cy="53.5" r="53.5" fill="#EEF2FA"/><path d="M63.167 46.702c.702.702.702 1.84 0 2.541L51.113 61.298a1.797 1.797 0 0 1-2.542 0l-5.738-5.739a1.796 1.796 0 1 1 2.54-2.54l4.469 4.467 10.784-10.784a1.797 1.797 0 0 1 2.541 0zM76 54c0 12.713-10.288 23-23 23-12.713 0-23-10.288-23-23 0-12.713 10.288-23 23-23 12.713 0 23 10.288 23 23zm-3.594 0c0-10.727-8.68-19.406-19.406-19.406-10.727 0-19.406 8.68-19.406 19.406 0 10.727 8.68 19.406 19.406 19.406 10.727 0 19.406-8.68 19.406-19.406z" fill="#7057D6"/></svg><svg fill="none" viewBox="0 0 107 107" id="done-icons2" xmlns="http://www.w3.org/2000/svg"><circle cx="53.5" cy="53.5" r="53.5" fill="#EEF2FA"/><path d="M63.167 46.702c.702.702.702 1.84 0 2.541L51.113 61.298a1.797 1.797 0 0 1-2.542 0l-5.738-5.739a1.796 1.796 0 1 1 2.54-2.54l4.469 4.467 10.784-10.784a1.797 1.797 0 0 1 2.541 0zM76 54c0 12.713-10.288 23-23 23-12.713 0-23-10.288-23-23 0-12.713 10.288-23 23-23 12.713 0 23 10.288 23 23zm-3.594 0c0-10.727-8.68-19.406-19.406-19.406-10.727 0-19.406 8.68-19.406 19.406 0 10.727 8.68 19.406 19.406 19.406 10.727 0 19.406-8.68 19.406-19.406z" fill="#0BCCC9"/></svg><svg fill="none" viewBox="0 0 107 107" id="done-icons3" xmlns="http://www.w3.org/2000/svg"><circle cx="53.5" cy="53.5" r="53.5" fill="#EEF2FA"/><path d="M63.167 46.702c.702.702.702 1.84 0 2.541L51.113 61.298a1.797 1.797 0 0 1-2.542 0l-5.738-5.739a1.796 1.796 0 1 1 2.54-2.54l4.469 4.467 10.784-10.784a1.797 1.797 0 0 1 2.541 0zM76 54c0 12.713-10.288 23-23 23-12.713 0-23-10.288-23-23 0-12.713 10.288-23 23-23 12.713 0 23 10.288 23 23zm-3.594 0c0-10.727-8.68-19.406-19.406-19.406-10.727 0-19.406 8.68-19.406 19.406 0 10.727 8.68 19.406 19.406 19.406 10.727 0 19.406-8.68 19.406-19.406z" fill="#39C0F8"/></svg><svg fill="none" viewBox="0 0 107 107" id="done-icons4" xmlns="http://www.w3.org/2000/svg"><circle cx="53.5" cy="53.5" r="53.5" fill="#EEF2FA"/><path d="M63.167 46.702c.702.702.702 1.84 0 2.541L51.113 61.298a1.797 1.797 0 0 1-2.542 0l-5.738-5.739a1.796 1.796 0 1 1 2.54-2.54l4.469 4.467 10.784-10.784a1.797 1.797 0 0 1 2.541 0zM76 54c0 12.713-10.288 23-23 23-12.713 0-23-10.288-23-23 0-12.713 10.288-23 23-23 12.713 0 23 10.288 23 23zm-3.594 0c0-10.727-8.68-19.406-19.406-19.406-10.727 0-19.406 8.68-19.406 19.406 0 10.727 8.68 19.406 19.406 19.406 10.727 0 19.406-8.68 19.406-19.406z" fill="#FC0C0C"/></svg><svg fill="none" viewBox="0 0 107 107" id="done-icons5" xmlns="http://www.w3.org/2000/svg"><circle cx="53.5" cy="53.5" r="53.5" fill="#EEF2FA"/><path d="M63.167 46.702c.702.702.702 1.84 0 2.541L51.113 61.298a1.797 1.797 0 0 1-2.542 0l-5.738-5.739a1.796 1.796 0 1 1 2.54-2.54l4.469 4.467 10.784-10.784a1.797 1.797 0 0 1 2.541 0zM76 54c0 12.713-10.288 23-23 23-12.713 0-23-10.288-23-23 0-12.713 10.288-23 23-23 12.713 0 23 10.288 23 23zm-3.594 0c0-10.727-8.68-19.406-19.406-19.406-10.727 0-19.406 8.68-19.406 19.406 0 10.727 8.68 19.406 19.406 19.406 10.727 0 19.406-8.68 19.406-19.406z" fill="#F8A899"/></svg><svg fill="none" viewBox="0 0 107 107" id="done-icons6" xmlns="http://www.w3.org/2000/svg"><circle cx="53.5" cy="53.5" r="53.5" fill="#EEF2FA"/><path d="M41.492 58.7c-.767 0-1.433-.283-2-.85s-.85-1.233-.85-2v-.7c0-.767.283-1.433.85-2s1.233-.85 2-.85h8.15c.3 0 .45-.15.45-.45v-8c0-.767.267-1.433.8-2 .566-.567 1.233-.85 2-.85h1.2c.767 0 1.416.283 1.95.85.566.567.85 1.233.85 2v8c0 .3.15.45.45.45h8.15c.766 0 1.433.283 2 .85.566.567.85 1.233.85 2v.7c0 .767-.284 1.433-.85 2-.567.567-1.234.85-2 .85h-8.15c-.3 0-.45.15-.45.45v8c0 .767-.284 1.433-.85 2-.534.567-1.184.85-1.95.85h-1.2c-.767 0-1.434-.283-2-.85a2.823 2.823 0 0 1-.8-2v-8c0-.3-.15-.45-.45-.45h-8.15z" fill="#FCA70C"/></svg><svg fill="none" viewBox="0 0 45 45" id="fb" xmlns="http://www.w3.org/2000/svg"><path d="M27.883 17.592a.7.7 0 0 0 .698-.7V12.7a.7.7 0 0 0-.698-.699h-4.194a4.898 4.898 0 0 0-4.893 4.893v3.495h-2.097a.7.7 0 0 0-.699.699v4.194a.7.7 0 0 0 .699.699h2.097v9.18a.7.7 0 0 0 .699.698h4.194a.7.7 0 0 0 .699-.699v-9.18h2.796a.7.7 0 0 0 .69-.583l.698-4.194a.7.7 0 0 0-.69-.814h-3.494v-2.796h3.495zm-4.194 4.194h3.368l-.466 2.795H23.69a.7.7 0 0 0-.7.7v9.18h-2.795v-9.18a.7.7 0 0 0-.7-.7h-2.096v-2.795h2.097a.7.7 0 0 0 .699-.7v-4.193a3.5 3.5 0 0 1 3.495-3.495h3.495v2.796H23.69a.7.7 0 0 0-.7.699v4.194a.7.7 0 0 0 .7.699z" fill="#fff"/><circle cx="22.5" cy="22.5" r="21.5" stroke="#fff" stroke-width="2"/></svg><svg fill="none" viewBox="0 0 70 70" id="freeTime" xmlns="http://www.w3.org/2000/svg"><circle cx="35" cy="35" r="35" fill="#7057D6" fill-opacity=".2"/><g fill="#7057D6"><path d="M36 16a.666.666 0 0 0-.667.667v8.861a.666.666 0 1 0 1.334 0v-8.183c9.986.352 18 8.586 18 18.655 0 10.293-8.374 18.667-18.667 18.667-10.293 0-18.667-8.374-18.667-18.667 0-4.973 1.934-9.653 5.444-13.176a.666.666 0 1 0-.944-.941A19.87 19.87 0 0 0 16 36c0 11.028 8.972 20 20 20s20-8.972 20-20-8.972-20-20-20z"/><path d="M35.037 38.355a2.37 2.37 0 0 0 1.921.979 2.37 2.37 0 0 0 1.68-.697 2.373 2.373 0 0 0-.285-3.602l-8.629-6.241a.667.667 0 1 0-.931.931l6.244 8.63zm2.533-2.24a1.043 1.043 0 1 1-1.455 1.458l-3.808-5.265 5.263 3.807z"/></g></svg><svg fill="none" viewBox="0 0 46 46" id="list" xmlns="http://www.w3.org/2000/svg"><path d="M33.167 15.702c.702.702.702 1.84 0 2.541L21.113 30.298a1.797 1.797 0 0 1-2.542 0l-5.738-5.739a1.796 1.796 0 1 1 2.54-2.54l4.469 4.467 10.784-10.784a1.797 1.797 0 0 1 2.541 0zM46 23c0 12.713-10.288 23-23 23C10.287 46 0 35.712 0 23 0 10.287 10.289 0 23 0c12.713 0 23 10.289 23 23zm-3.594 0c0-10.727-8.68-19.406-19.406-19.406-10.727 0-19.406 8.68-19.406 19.406 0 10.727 8.68 19.406 19.406 19.406 10.727 0 19.406-8.68 19.406-19.406z" fill="#FCA70C"/></svg><svg fill="none" viewBox="0 0 37 37" id="loop" xmlns="http://www.w3.org/2000/svg"><circle cx="18.5" cy="18.5" r="18.5" fill="#555BE4" fill-opacity=".2"/><path d="M28.825 27.98l-4.86-4.86a8.493 8.493 0 0 0 2.093-5.592C26.058 12.823 22.23 9 17.53 9c-4.705 0-8.528 3.827-8.528 8.528 0 4.7 3.827 8.527 8.528 8.527a8.493 8.493 0 0 0 5.592-2.093l4.86 4.86a.6.6 0 0 0 .422.178.6.6 0 0 0 .421-1.02zm-18.63-10.452c0-4.045 3.29-7.33 7.33-7.33 4.045 0 7.33 3.29 7.33 7.33s-3.285 7.335-7.33 7.335c-4.04 0-7.33-3.29-7.33-7.335z" fill="#7057D6"/></svg><svg fill="none" viewBox="0 0 24 24" id="map-pin" xmlns="http://www.w3.org/2000/svg"><path d="M21 10c0 7-9 13-9 13s-9-6-9-13a9 9 0 1 1 18 0z" stroke="#fff" stroke-width="2" stroke-linecap="round" stroke-linejoin="round"/><path d="M12 13a3 3 0 1 0 0-6 3 3 0 0 0 0 6z" stroke="#fff" stroke-width="2" stroke-linecap="round" stroke-linejoin="round"/></svg><svg fill="none" viewBox="0 0 70 70" id="mobility" xmlns="http://www.w3.org/2000/svg"><circle cx="35" cy="35" r="35" fill="#7057D6" fill-opacity=".2"/><path d="M53 35.334V20.666a3.337 3.337 0 0 0-3.333-3.334H20.333A3.337 3.337 0 0 0 17 20.668v10c-1.103 0-2 .897-2 2v20c0 1.102.897 2 2 2h14.667c1.102 0 2-.898 2-2h5.587c.629 0 1.208-.287 1.59-.786.38-.5.505-1.134.34-1.74l-1.311-4.807h3.794v7.333c0 1.102.897 2 2 2H53c1.103 0 2-.898 2-2V37.333c0-1.102-.897-2-2-2zM32.333 52.666a.667.667 0 0 1-.666.666H17a.668.668 0 0 1-.667-.666v-1.334h16v1.334zm0-2.667h-16V35.334h16V50zm0-16h-16v-1.333c0-.367.3-.667.667-.667h14.667c.367 0 .666.3.666.667V34zm7.564 16.492a.66.66 0 0 1-.113.58.661.661 0 0 1-.53.261h-5.587V50h6.096l.134.492zm-6.23-1.825v-3.334h4.824l.909 3.334h-5.733zm10-4.667h-10v-4h10v4zm0-6.666v1.333h-10v-6c0-1.103-.898-2-2-2H18.333v-10c0-1.103.898-2 2-2h29.334c1.102 0 2 .897 2 2v14.666h-6c-1.103 0-2 .898-2 2zm10 15.333c0 .367-.3.666-.667.666h-7.333a.668.668 0 0 1-.667-.666v-1.334h8.667v1.334zm0-2.667H45V40h8.667v10zm0-11.333H45v-1.334c0-.367.3-.666.667-.666H53c.367 0 .667.3.667.666v1.334z" fill="#7057D6"/><path d="M21.195 42.194l-2.667 2.666.943.943 2.667-2.667-.943-.942zm8-3.333l-8 8 .943.943 8-8-.943-.943zm-2.667-1.998l-4 4 .943.943 4-4-.943-.943zm23.332 4.666l-3.333 3.332.943.943 3.333-3.333-.943-.942zm1.333 2.67l-3.333 3.333.943.943 3.333-3.333-.943-.943zM36.528 24.863l-4 4 .943.943 4-4-.943-.943zm6-1.333l-4 4 .943.942 4-4-.943-.943zm-5.334 5.333l-2.666 2.666.942.943 2.667-2.667-.943-.942zm3.336-7.999l-2.673 2.673.943.943 2.673-2.673-.942-.943zM21 20h-1.333v1.333H21V20zm2.667 0h-1.334v1.333h1.334V20zm2.666 0H25v1.333h1.333V20z" fill="#7057D6"/></svg><svg fill="none" viewBox="0 0 22 20" id="pc" xmlns="http://www.w3.org/2000/svg"><path d="M19 1H3a2 2 0 0 0-2 2v10a2 2 0 0 0 2 2h16a2 2 0 0 0 2-2V3a2 2 0 0 0-2-2zM7 19h8m-4-4v4" stroke="#fff" stroke-width="2" stroke-linecap="round" stroke-linejoin="round"/></svg><svg viewBox="0 0 22 22" id="phone" xmlns="http://www.w3.org/2000/svg"><path d="M20.888 15.92v3a2 2 0 0 1-2.18 2 19.791 19.791 0 0 1-8.63-3.07 19.5 19.5 0 0 1-6-6 19.79 19.79 0 0 1-3.07-8.67A2 2 0 0 1 2.998 1h3a2 2 0 0 1 2 1.72c.127.96.362 1.903.7 2.81a2 2 0 0 1-.45 2.11l-1.27 1.27a16 16 0 0 0 6 6l1.27-1.27a2 2 0 0 1 2.11-.45c.907.339 1.85.574 2.81.7a2 2 0 0 1 1.72 2.03z" stroke="#fff" stroke-width="2" stroke-linecap="round" stroke-linejoin="round"/></svg><svg fill="none" viewBox="0 0 37 37" id="piggy" xmlns="http://www.w3.org/2000/svg"><circle cx="18.5" cy="18.5" r="18.5" fill="#39C0F8" fill-opacity=".2"/><path d="M18.712 23.197a.398.398 0 0 0-.398.398v.85a.398.398 0 1 0 .796 0v-.85a.398.398 0 0 0-.398-.398z" fill="#39C0F8"/><path d="M30.759 17.494a.817.817 0 0 0-.582-.241h-1.022c-.013 0-.022-.014-.024-.028a8.466 8.466 0 0 0-5.088-6.136c-.203-.856-.63-1.74-1.475-2.403-.818-.642-1.642-.766-1.676-.77a.398.398 0 0 0-.455.393v2.15h-1.444a2.95 2.95 0 0 0-2.828-2.123c-1.368 0-2.52.936-2.85 2.201a8.447 8.447 0 0 0-5.124 2.705A8.447 8.447 0 0 0 6 18.925c0 4.727 2.454 8.572 3.206 9.639.232.329.613.526 1.018.526h1.694a1.25 1.25 0 0 0 1.248-1.248v-.55c.428.065.864.099 1.3.099h3.848v.451c0 .688.56 1.248 1.248 1.248h1.86c.585 0 1.098-.415 1.22-.986l.205-.954a8.472 8.472 0 0 0 5.755-4.854h1.575a.824.824 0 0 0 .823-.823v-3.397a.817.817 0 0 0-.241-.582zM16.165 9.132a2.152 2.152 0 0 1 1.962 3.026h-3.925a2.152 2.152 0 0 1 1.963-3.025zm14.039 12.34a.027.027 0 0 1-.027.027h-1.276c.217-.679.35-1.393.389-2.129a.398.398 0 1 0-.795-.041 7.675 7.675 0 0 1-5.46 6.946l.555-2.596a.398.398 0 1 0-.778-.166l-.948 4.424a.453.453 0 0 1-.441.356h-1.861a.452.452 0 0 1-.452-.45v-1.7a.398.398 0 0 0-.796 0v.452h-3.848a7.83 7.83 0 0 1-1.3-.11v-2.89a.398.398 0 1 0-.797 0v4.247a.452.452 0 0 1-.45.451h-1.695a.443.443 0 0 1-.367-.188c-.718-1.018-3.06-4.688-3.06-9.18 0-1.908.704-3.736 1.984-5.149a7.653 7.653 0 0 1 4.439-2.42c.007.273.051.543.132.801h-.16a.398.398 0 0 0 0 .797h5.945a.398.398 0 0 0 0-.797h-.16c.088-.282.133-.577.133-.875v-.027h1.327v.876a.398.398 0 1 0 .796 0v-3.3c.756.287 2.177 1.165 2.177 3.725a.398.398 0 1 0 .796 0c0-.17-.006-.347-.02-.531a7.668 7.668 0 0 1 4.165 5.36.828.828 0 0 0 .804.664h1.022c.003 0 .011 0 .02.008a.027.027 0 0 1 .007.019v3.397z" fill="#39C0F8"/><path d="M26.729 17.512a1.734 1.734 0 0 0-1.628-1.109c-.726 0-1.38.446-1.627 1.109a.398.398 0 0 0 .746.278.935.935 0 0 1 .881-.59c.396 0 .75.237.882.59a.398.398 0 1 0 .746-.278zm-10.166 1.109v-2.034c.78.095 1.327.456 1.327.785a.398.398 0 0 0 .796 0c0-.814-.905-1.468-2.123-1.586v-.046a.398.398 0 1 0-.796 0v.046c-1.219.118-2.124.772-2.124 1.586 0 1.163 1.149 1.582 2.123 1.856v2.034c-.78-.094-1.326-.456-1.326-.785a.398.398 0 0 0-.797 0c0 .814.905 1.468 2.123 1.587v.045a.398.398 0 1 0 .797 0v-.045c1.218-.119 2.123-.773 2.123-1.587 0-1.162-1.149-1.582-2.123-1.856zm-.796-.226c-.981-.308-1.327-.587-1.327-1.023 0-.329.546-.69 1.327-.785v1.808zm.796 2.868v-1.808c.98.307 1.327.587 1.327 1.022 0 .329-.546.69-1.327.786z" fill="#39C0F8"/></svg><svg fill="none" viewBox="0 0 41 39" id="plus" xmlns="http://www.w3.org/2000/svg"><g filter="url(#bgfilter0_d)"><path d="M8.492 18.7c-.767 0-1.434-.283-2-.85-.567-.567-.85-1.233-.85-2v-.7c0-.767.283-1.433.85-2 .566-.567 1.233-.85 2-.85h8.15c.3 0 .45-.15.45-.45v-8c0-.767.267-1.433.8-2 .567-.567 1.233-.85 2-.85h1.2c.767 0 1.417.283 1.95.85.566.567.85 1.233.85 2v8c0 .3.15.45.45.45h8.15c.767 0 1.433.283 2 .85s.85 1.233.85 2v.7c0 .767-.283 1.433-.85 2s-1.233.85-2 .85h-8.15c-.3 0-.45.15-.45.45v8c0 .767-.284 1.433-.85 2-.534.567-1.184.85-1.95.85h-1.2c-.767 0-1.433-.283-2-.85a2.823 2.823 0 0 1-.8-2v-8c0-.3-.15-.45-.45-.45h-8.15z" fill="#FCA70C"/><path d="M6.492 17.85l.707-.707-.707.707zm0-4.7l.707.707-.707-.707zm11.4-11.3l-.707-.707-.011.01-.01.012.728.685zm5.15 0l-.728.685.01.011.01.011.708-.707zm11.45 11.3l-.707.707.707-.707zm0 4.7l-.707-.707.707.707zm-11.45 11.3l-.707-.707-.011.01-.01.012.728.685zm-5.15 0l-.728.685.01.011.01.011.708-.707zm-9.4-11.45c-.489 0-.905-.168-1.293-.557l-1.414 1.414c.744.745 1.662 1.143 2.707 1.143v-2zm-1.293-.557c-.389-.389-.557-.805-.557-1.293h-2c0 1.045.398 1.962 1.143 2.707l1.414-1.414zm-.557-1.293v-.7h-2v.7h2zm0-.7c0-.488.168-.904.557-1.293l-1.414-1.414c-.745.745-1.143 1.662-1.143 2.707h2zm.557-1.293c.389-.388.804-.557 1.293-.557v-2c-1.045 0-1.963.398-2.707 1.143l1.414 1.414zm1.293-.557h8.15v-2h-8.15v2zm8.15 0c.304 0 .716-.077 1.044-.405.33-.33.406-.74.406-1.045h-2a.57.57 0 0 1 .18-.37.57.57 0 0 1 .37-.18v2zm1.45-1.45v-8h-2v8h2zm0-8c0-.508.166-.93.528-1.315l-1.456-1.37a3.822 3.822 0 0 0-1.072 2.685h2zm.507-1.293c.389-.388.804-.557 1.293-.557V0c-1.045 0-1.963.398-2.707 1.143l1.414 1.414zM19.892 2h1.2V0h-1.2v2zm1.2 0c.486 0 .874.166 1.222.535l1.456-1.37C23.05.4 22.139 0 21.092 0v2zm1.243.557c.388.389.557.805.557 1.293h2c0-1.045-.398-1.962-1.143-2.707l-1.414 1.414zm.557 1.293v8h2v-8h-2zm0 8c0 .304.076.716.405 1.045.329.328.74.405 1.045.405v-2a.57.57 0 0 1 .37.18.57.57 0 0 1 .18.37h-2zm1.45 1.45h8.15v-2h-8.15v2zm8.15 0c.488 0 .904.168 1.293.557l1.414-1.414c-.745-.745-1.662-1.143-2.707-1.143v2zm1.293.557c.388.389.557.805.557 1.293h2c0-1.045-.398-1.962-1.143-2.707l-1.414 1.414zm.557 1.293v.7h2v-.7h-2zm0 .7c0 .488-.169.904-.557 1.293l1.414 1.414c.745-.745 1.143-1.662 1.143-2.707h-2zm-.557 1.293c-.389.389-.805.557-1.293.557v2c1.045 0 1.962-.398 2.707-1.143l-1.414-1.414zm-1.293.557h-8.15v2h8.15v-2zm-8.15 0c-.304 0-.716.077-1.045.405-.329.33-.405.74-.405 1.045h2a.57.57 0 0 1-.18.37.57.57 0 0 1-.37.18v-2zm-1.45 1.45v8h2v-8h-2zm0 8c0 .488-.169.904-.557 1.293l1.414 1.414c.745-.745 1.143-1.662 1.143-2.707h-2zm-.578 1.315c-.348.369-.736.535-1.222.535v2c1.047 0 1.959-.4 2.678-1.165l-1.456-1.37zM21.092 29h-1.2v2h1.2v-2zm-1.2 0c-.489 0-.904-.169-1.293-.557l-1.414 1.414c.744.745 1.662 1.143 2.707 1.143v-2zm-1.272-.535a1.824 1.824 0 0 1-.528-1.315h-2a3.82 3.82 0 0 0 1.072 2.685l1.456-1.37zm-.528-1.315v-8h-2v8h2zm0-8c0-.304-.077-.716-.406-1.045-.328-.328-.74-.405-1.044-.405v2a.57.57 0 0 1-.37-.18.57.57 0 0 1-.18-.37h2zm-1.45-1.45h-8.15v2h8.15v-2z" fill="#000"/></g><defs><filter id="bgfilter0_d" x=".642" y="0" width="39.7" height="39" filterUnits="userSpaceOnUse" color-interpolation-filters="sRGB"><feFlood flood-opacity="0" result="BackgroundImageFix"/><feColorMatrix in="SourceAlpha" values="0 0 0 0 0 0 0 0 0 0 0 0 0 0 0 0 0 0 127 0"/><feOffset dy="4"/><feGaussianBlur stdDeviation="2"/><feColorMatrix values="0 0 0 0 0 0 0 0 0 0 0 0 0 0 0 0 0 0 0.25 0"/><feBlend in2="BackgroundImageFix" result="effect1_dropShadow"/><feBlend in="SourceGraphic" in2="effect1_dropShadow" result="shape"/></filter></defs></svg><svg fill="none" viewBox="0 0 70 70" id="postPaid" xmlns="http://www.w3.org/2000/svg"><circle cx="35" cy="35" r="35" fill="#7057D6" fill-opacity=".2"/><path d="M48.453 44.422l-2.237-2.277a.66.66 0 0 0-.858-.073l-9.747 7.18-3.452-1.623 3.03-.337a.66.66 0 0 0 .58-.66v-2.85a.66.66 0 0 0-.66-.66h-3.3l-5.557-.568a.66.66 0 0 0-.33.053l-3.788 1.623H15v1.32h7.273a.67.67 0 0 0 .264-.053l3.755-1.643 5.418.554h2.765v1.637l-2.442.304-3.544-.377a.66.66 0 0 0-.35 1.254l7.32 3.366a.66.66 0 0 0 .66-.066l9.595-7.048 1.32 1.372-11.028 9.636h-2.99l-10.525-3.914a.66.66 0 0 0-.232-.046H15v1.32h7.147l10.52 3.92a.66.66 0 0 0 .231.04h3.353a.66.66 0 0 0 .435-.165L48.42 45.385a.66.66 0 0 0 .033-.963zm1.756-11.715l-3.485-3.623a.66.66 0 0 0-.422-.205l-7.128-.66h-2.719l.132-1.98 2.58-.521 3.604.805a.66.66 0 0 0 .224 0l3.505-.416-.159-1.32-3.392.364-3.63-.806a.542.542 0 0 0-.27 0l-3.214.66a.66.66 0 0 0-.535.607l-.21 3.214a.66.66 0 0 0 .66.7h3.365l6.824.62 3.51 3.676a.66.66 0 0 0 .476.205h4.672v-1.32H50.21zm-1.149-13.74a.587.587 0 0 0-.25-.119l-11.22-2.64a.66.66 0 0 0-.54.126l-7.26 5.28.778 1.069 7.016-5.102 10.783 2.534 5.828 4.534.805-1.062-5.94-4.62z" fill="#7057D6"/><path d="M38.343 20.24a.66.66 0 0 0-.542 0l-3.96 1.98.595 1.175 3.696-1.841 3.022 1.234.488-1.227-3.3-1.32zm-6.824 7.313l-1.162-.172c-.528-.079-.838-.284-.838-.614s.462-.66 1.083-.627h.475c.62 0 1.082.33 1.082.627v.179h1.32v-.179c0-1.122-1.056-1.98-2.402-1.98H30.6c-1.346 0-2.402.858-2.402 1.98a2.112 2.112 0 0 0 1.98 1.888l1.142.171c.528.08.838.317.838.614s-.462.627-1.082.627H30.6c-.62 0-1.082-.33-1.082-.627v-.178H28.2v.178c0 1.09 1.082 1.947 2.402 1.947h.476c1.346 0 2.402-.858 2.422-1.914a2.112 2.112 0 0 0-1.98-1.92z" fill="#7057D6"/><path d="M36.072 28.78a5.28 5.28 0 1 1-.435-2.903l1.194-.554a6.6 6.6 0 1 0-5.992 9.364 6.6 6.6 0 0 0 6.553-5.728l-1.32-.178z" fill="#7057D6"/><path d="M31.499 24.128h-1.32v1.32h1.32v-1.32z" fill="#7057D6"/></svg><svg fill="none" viewBox="0 0 31 25" id="quote1" xmlns="http://www.w3.org/2000/svg"><path d="M6.808.5c1.96 0 3.57.63 4.83 1.89 1.26 1.213 1.89 2.823 1.89 4.83 0 .933-.116 1.867-.35 2.8-.233.933-.723 2.333-1.47 4.2L7.648 24.3H.718l3.01-11.06c-1.166-.513-2.076-1.283-2.73-2.31-.653-1.027-.98-2.263-.98-3.71 0-2.007.63-3.617 1.89-4.83C3.215 1.13 4.848.5 6.808.5zm16.52 0c1.96 0 3.57.63 4.83 1.89 1.26 1.213 1.89 2.823 1.89 4.83 0 .933-.116 1.867-.35 2.8-.233.933-.723 2.333-1.47 4.2l-4.06 10.08h-6.93l3.01-11.06c-1.166-.513-2.076-1.283-2.73-2.31-.653-1.027-.98-2.263-.98-3.71 0-2.007.63-3.617 1.89-4.83 1.307-1.26 2.94-1.89 4.9-1.89z" fill="#EEF2FA"/></svg><svg fill="none" viewBox="0 0 31 24" id="quote2" xmlns="http://www.w3.org/2000/svg"><path d="M10.248 11.19c1.167.513 2.077 1.283 2.73 2.31.654 1.027.98 2.24.98 3.64 0 2.007-.63 3.64-1.89 4.9-1.26 1.213-2.87 1.82-4.83 1.82s-3.593-.63-4.9-1.89c-1.26-1.26-1.89-2.87-1.89-4.83 0-.933.117-1.867.35-2.8.234-.933.747-2.333 1.54-4.2L6.398.06h6.93l-3.08 11.13zm16.52 0c1.167.513 2.077 1.283 2.73 2.31.654 1.027.98 2.24.98 3.64 0 2.007-.63 3.64-1.89 4.9-1.26 1.213-2.87 1.82-4.83 1.82s-3.593-.63-4.9-1.89c-1.26-1.26-1.89-2.87-1.89-4.83 0-.933.117-1.867.35-2.8.234-.933.747-2.333 1.54-4.2L22.918.06h6.93l-3.08 11.13z" fill="#EEF2FA"/></svg><svg fill="none" viewBox="0 0 70 70" id="safeData" xmlns="http://www.w3.org/2000/svg"><circle cx="35" cy="35" r="35" fill="#7057D6" fill-opacity=".2"/><path d="M47.852 28.898v-4.157C47.852 18.819 42.535 14 36 14s-11.852 4.819-11.852 10.74v4.16c-2.52.434-4.444 2.63-4.444 5.271v14.476A5.36 5.36 0 0 0 25.058 54h21.883a5.36 5.36 0 0 0 5.355-5.355V34.17c0-2.642-1.925-4.837-4.444-5.272zM25.63 24.741c0-5.106 4.651-9.26 10.37-9.26 5.718 0 10.37 4.154 10.37 9.26v4.074H25.63V24.74zm25.185 23.904a3.878 3.878 0 0 1-3.874 3.873H25.058a3.878 3.878 0 0 1-3.873-3.873V34.17a3.878 3.878 0 0 1 3.873-3.874h21.883a3.878 3.878 0 0 1 3.874 3.874v14.475z" fill="#7057D6"/><path d="M36 34.74a2.966 2.966 0 0 0-2.963 2.964v4.444A2.966 2.966 0 0 0 36 45.111a2.966 2.966 0 0 0 2.963-2.963v-4.444A2.966 2.966 0 0 0 36 34.74zm1.481 7.408c0 .817-.664 1.482-1.481 1.482a1.483 1.483 0 0 1-1.482-1.482v-4.444a1.483 1.483 0 0 1 2.963 0v4.444z" fill="#7057D6"/></svg><svg fill="none" viewBox="0 0 70 70" id="support" xmlns="http://www.w3.org/2000/svg"><circle cx="35" cy="35" r="35" fill="#7057D6" fill-opacity=".2"/><g clip-path="url(#blclip0)"><path d="M56 33.774h-1.45l-2.16 1.137a3.21 3.21 0 0 0-.77-.316l-2.717-.68v-.31a4.53 4.53 0 0 0 1.936-3.702v-1.127c0-2.507-1.964-4.604-4.378-4.677a4.805 4.805 0 0 0-.364.007l.704-1.65-3.416-3.415-2.014 1.31a10.92 10.92 0 0 0-2.415-1.001L38.46 17h-4.917l-.498 2.35c-.84.236-1.65.571-2.414 1.002l-2.014-1.31-3.414 3.413.693 1.65c-.027 0-.052-.005-.078-.006a4.483 4.483 0 0 0-3.284 1.273 4.475 4.475 0 0 0-1.372 3.24v1.291c0 1.477.733 2.863 1.936 3.702v.31l-1.773.443-3.214-1.874H16v13.368l6.347 2.116h1.236l.155-.54 1.945 1.167a2.009 2.009 0 0 0 1.937 1.946 2.008 2.008 0 0 0 1.936 1.936 2.009 2.009 0 0 0 1.935 1.935 2.012 2.012 0 0 0 2.007 1.943 2.03 2.03 0 0 0 1.13-.35l.572.505c.358.315.82.49 1.298.49h.12a1.964 1.964 0 0 0 1.96-1.938 1.962 1.962 0 0 0 1.936-1.935 1.962 1.962 0 0 0 1.935-1.938 1.984 1.984 0 0 0 1.928-2.173L56 43.206v-9.432zm-6.452-4.998v1.127a3.238 3.238 0 0 1-1.614 2.792l-.323.186.003 2.042 3.223.805-7.095 3.734v-1.738a3.21 3.21 0 0 0-.924-2.248l2.214-.553V32.88l-.322-.186a3.235 3.235 0 0 1-1.613-2.79v-1.291c0-.88.348-1.703.98-2.316a3.182 3.182 0 0 1 2.345-.908c1.724.052 3.126 1.571 3.126 3.387zm-12.575 10.18l-2.92-.934a7.968 7.968 0 0 0-4.135-.188l-.37.081v-.19c0-.89.604-1.663 1.466-1.879l3.696-.923V32.88l-.322-.186a3.235 3.235 0 0 1-1.614-2.79v-1.291c0-.88.348-1.703.98-2.316a3.19 3.19 0 0 1 2.346-.908c1.723.052 3.126 1.571 3.126 3.387v1.127a3.238 3.238 0 0 1-1.615 2.792l-.323.186.003 2.042 3.695.923a1.934 1.934 0 0 1 1.466 1.879v2.417l-.16.084h-.395l-3.967-1.134a4.063 4.063 0 0 0-.957-.137zm-7.28-12.3A7.118 7.118 0 0 1 36 22.806a7.13 7.13 0 0 1 6.28 3.798 4.486 4.486 0 0 0-.474 2.009v1.29c0 1.477.733 2.863 1.936 3.702v.31l-2.58.646-2.582-.646v-.31a4.53 4.53 0 0 0 1.936-3.702v-1.127c0-2.507-1.964-4.604-4.377-4.677a4.481 4.481 0 0 0-3.284 1.273 4.479 4.479 0 0 0-1.371 3.24v1.291a4.53 4.53 0 0 0 1.935 3.702v.31l-2.58.646-2.582-.646v-.31a4.53 4.53 0 0 0 1.936-3.702v-1.127c0-.76-.182-1.48-.5-2.12zm-2.967-3.902l2.061-2.061 1.814 1.18.347-.212a9.627 9.627 0 0 1 2.794-1.159l.397-.095.449-2.117h2.825l.448 2.116.396.095a9.638 9.638 0 0 1 2.794 1.16l.347.212 1.814-1.18 2.059 2.059-.732 1.713a4.51 4.51 0 0 0-1.362.905c-.026.026-.049.054-.075.08A8.425 8.425 0 0 0 36 21.516a8.415 8.415 0 0 0-7.127 3.973 4.55 4.55 0 0 0-1.423-1.009l-.724-1.726zm-2.339 12.17V32.88l-.322-.186a3.235 3.235 0 0 1-1.613-2.79v-1.291c0-.88.347-1.703.98-2.316a3.185 3.185 0 0 1 2.345-.908c1.724.052 3.126 1.571 3.126 3.387v1.127a3.238 3.238 0 0 1-1.615 2.792l-.322.186.002 2.042 2.214.553a3.21 3.21 0 0 0-.924 2.248v.478l-2.012.448.052-.183.025-1.192-3.403-1.985 1.467-.367zm-7.097-1.15h.47l4.64 2.706-2.34 9.365-2.77-.923V33.774zm5.266 12.903l-1.27-.423 2.275-9.096 1.471.858v.184l-2.422 8.477h-.054zm4.412 1.858c0-.19.077-.377.211-.512l1.135-1.134a.724.724 0 0 1 1.023 1.023l-1.134 1.134a.724.724 0 0 1-1.235-.512zm1.935 1.935c0-.19.077-.377.212-.511l1.134-1.134a.724.724 0 0 1 1.023 1.023l-1.134 1.134a.724.724 0 0 1-1.235-.512zm1.936 1.936c0-.19.077-.377.211-.512l1.134-1.134a.724.724 0 0 1 1.023 1.023l-1.133 1.134a.724.724 0 0 1-1.235-.512zm2.659 2.659a.724.724 0 0 1-.512-1.235l1.134-1.134a.724.724 0 0 1 1.023 1.023l-1.134 1.134a.728.728 0 0 1-.511.212zm3.12.645h-.12a.668.668 0 0 1-.444-.169l-.483-.425.484-.485c.173-.173.308-.379.407-.6l.586.489a.671.671 0 0 1-.43 1.19zm5.785-5.807h-.111a.692.692 0 0 1-.444-.161l-3.499-2.916-.826.992 3.397 2.83a.673.673 0 0 1-.432 1.19h-.14a.673.673 0 0 1-.43-.156l-3.505-2.92-.827.992 3.398 2.831a.674.674 0 0 1-.431 1.189 1.07 1.07 0 0 1-.679-.245l-1.44-1.2a2.007 2.007 0 0 0-1.732-1.128 2.009 2.009 0 0 0-1.936-1.936 2.009 2.009 0 0 0-1.935-1.935 2.011 2.011 0 0 0-2.006-1.943c-.53 0-1.049.215-1.424.59l-1.134 1.134c-.068.068-.124.145-.18.22l-1.982-1.189 1.737-6.08 4.355-.968a6.646 6.646 0 0 1 3.462.156l.95.304-3.222 1.611a2.15 2.15 0 0 0-1.194 1.933v.128a2.164 2.164 0 0 0 3.274 1.853l2.402-1.44a1.332 1.332 0 0 1 1.547.148l5.451 4.906a.694.694 0 0 1-.464 1.21zm12.307-7.495l-10.87 5.435a1.766 1.766 0 0 0-.11-.108l-5.45-4.906a2.59 2.59 0 0 0-3.075-.297L32.8 43.973a.871.871 0 0 1-1.317-.747v-.128c0-.332.184-.63.481-.779l3.599-1.799a2.804 2.804 0 0 1 2.01-.187l4.055 1.159.982.024 12.099-6.368v7.26z" fill="#7057D6"/></g><defs><clipPath id="blclip0"/></defs></svg><svg fill="none" viewBox="0 0 37 37" id="tax" xmlns="http://www.w3.org/2000/svg"><circle cx="18.5" cy="18.5" r="18.5" fill="#0BCCC9" fill-opacity=".2"/><path d="M24.623 9.813a.413.413 0 0 0 .082-.002.832.832 0 0 1 .816.831.373.373 0 0 0 .745 0 1.58 1.58 0 0 0-1.24-1.54v-.359a.373.373 0 1 0-.745 0v.375a1.578 1.578 0 0 0 .408 3.102.833.833 0 1 1-.833.833.373.373 0 1 0-.745 0 1.58 1.58 0 0 0 1.17 1.524v.408a.373.373 0 1 0 .745 0v-.391a1.577 1.577 0 0 0-.337-3.119.832.832 0 0 1-.066-1.662z" fill="#39C0F8"/><path d="M24.71 6.548c-2.293 0-4.249 1.496-4.982 3.5H10.48c-.204 0-.37.184-.372.388l-.088 13.073H7.382c-.205 0-.382.149-.382.355v1.659a2.927 2.927 0 0 0 2.795 2.915v.008H21.3v-.011c.093.004.131.011.19.011h.008a2.927 2.927 0 0 0 2.923-2.927v-8.387A5.302 5.302 0 0 0 30 11.844a5.3 5.3 0 0 0-5.291-5.296zM9.937 27.701h-.003a2.192 2.192 0 0 1-2.189-2.182v-1.265h10.807v1.26c0 .777.31 1.523.863 2.07.039.04.087.07.128.117H9.937zm13.738-2.182c0 1.203-.974 2.18-2.177 2.182h-.007a2.198 2.198 0 0 1-2.194-2.187v-1.65a.344.344 0 0 0-.356-.355h-8.177l.086-12.717h8.671a5.255 5.255 0 0 0 .348 3.167h-3.52a.373.373 0 1 0 0 .746h3.924a5.259 5.259 0 0 0 3.402 2.334v8.48zm1.035-9.124a4.545 4.545 0 1 1 0-9.09 4.545 4.545 0 0 1 0 9.09z" fill="#39C0F8"/><path d="M13.957 16.44c-.657 0-1.192.518-1.192 1.155s.535 1.155 1.192 1.155c.658 0 1.193-.518 1.193-1.155s-.535-1.155-1.193-1.155zm0 1.565c-.247 0-.447-.184-.447-.41 0-.226.2-.41.447-.41s.448.184.448.41c0 .226-.2.41-.448.41zm2.02-.412c0 .206.166.373.372.373h4.968a.373.373 0 0 0 0-.745H16.35a.373.373 0 0 0-.372.372zm-2.02-4.393c-.657 0-1.192.519-1.192 1.156 0 .636.535 1.155 1.192 1.155.658 0 1.193-.518 1.193-1.155s-.535-1.155-1.193-1.155zm0 1.565c-.247 0-.447-.184-.447-.41 0-.225.2-.409.447-.409s.448.184.448.41c0 .226-.2.41-.448.41zm0 4.915c-.657 0-1.192.517-1.192 1.154 0 .637.535 1.155 1.192 1.155.658 0 1.193-.518 1.193-1.155s-.535-1.155-1.193-1.155zm0 1.564c-.247 0-.447-.184-.447-.41 0-.226.2-.41.447-.41s.448.184.448.41c0 .226-.2.41-.448.41zm7.36-.763H16.35a.373.373 0 1 0 0 .745h4.968a.373.373 0 1 0 0-.745z" fill="#39C0F8"/></svg><svg fill="none" viewBox="0 0 37 37" id="team" xmlns="http://www.w3.org/2000/svg"><circle cx="18.5" cy="18.5" r="18.5" fill="#09C911" fill-opacity=".2"/><path d="M17.965 10.541a.393.393 0 0 0 .394-.393V8.393a.393.393 0 0 0-.787 0v1.755c0 .217.176.393.393.393zm9.616 10.974l-.695-.693a1.304 1.304 0 0 0-.927-.383c-.225 0-.44.056-.631.16l-1.31-1.308.064-.063a1.365 1.365 0 0 0-.685-2.299 1.372 1.372 0 0 0-.345-1.346 1.351 1.351 0 0 0-.685-.37 1.351 1.351 0 0 0-.345-1.347 1.357 1.357 0 0 0-.684-.37c.134-.463.02-.983-.345-1.348a1.365 1.365 0 0 0-1.11-.39l-2.595-.49c-.396-.076-.89-.126-1.202.16a.734.734 0 0 0-.06.06 1.368 1.368 0 0 0-1.435.316 1.353 1.353 0 0 0-.344 1.348 1.35 1.35 0 0 0-.684.369 1.352 1.352 0 0 0-.346 1.347c-.258.053-.494.18-.684.37-.258.257-.4.6-.4.964 0 .28.084.546.239.771a1.365 1.365 0 0 0-.524 2.255l.064.064-1.31 1.307a1.315 1.315 0 0 0-1.488.258l-.696.694a1.302 1.302 0 0 0-.383.927c0 .352.136.681.383.928l.868.867a.393.393 0 1 0 .556-.556l-.868-.867a.52.52 0 0 1-.152-.372.52.52 0 0 1 .152-.37l.696-.694c.173-.174.44-.2.641-.079a.402.402 0 0 0 .163.14l3.988 3.982a.39.39 0 0 0 .19.191.52.52 0 0 1 .13.347.52.52 0 0 1-.152.371l-.695.695a.529.529 0 0 1-.744 0l-.868-.868a.394.394 0 0 0-.556.556l.868.869a1.316 1.316 0 0 0 1.856 0l.695-.695c.247-.247.383-.576.383-.928 0-.25-.07-.49-.2-.696l1.475-1.473.005-.005c.168-.174.639-.141 1.093-.11.323.023.683.048 1.035.007l1.614 1.613c-.104.19-.16.405-.16.63 0 .35.136.68.383.927l.695.694c.248.247.577.383.928.383.351 0 .68-.136.928-.383l4.216-4.211a1.3 1.3 0 0 0 .384-.928c0-.351-.136-.68-.384-.928zm-10.44-9.475l1.707.323-1.021 1.021a2.482 2.482 0 0 1-.613-.444c-.325-.312-.557-.67-.579-.895a.33.33 0 0 1-.002-.039c.052-.013.189-.026.508.034zm-1.994.321a.58.58 0 0 1 .734-.07c.128.535.584 1.02.79 1.217.152.146.64.582 1.133.702.067.096.103.21.103.33a.572.572 0 0 1-.577.576c-.155 0-.3-.06-.409-.168l-1.774-1.772a.571.571 0 0 1-.168-.407c0-.155.06-.3.168-.408zm-1.028 1.717a.572.572 0 0 1 .408-.168c.155 0 .3.06.41.168l1.428 1.426a.576.576 0 1 1-.409.985.576.576 0 0 1-.41-.168l-1.083-1.084-.005-.005-.34-.338a.573.573 0 0 1-.168-.409.57.57 0 0 1 .169-.407zm-1.03 1.716a.574.574 0 0 1 .409-.168c.154 0 .298.059.406.165l1.087 1.087a.57.57 0 0 1 .168.407.57.57 0 0 1-.577.576c-.155 0-.3-.06-.41-.168l-.393-.394-.69-.689a.573.573 0 0 1-.168-.408c0-.154.06-.3.168-.408zm-.685 2.062a.575.575 0 0 1 .41-.169c.154 0 .3.06.409.169l.394.394a.57.57 0 0 1 .168.407.571.571 0 0 1-.577.577c-.155 0-.3-.06-.41-.17l-.049-.049-.002-.002-.002-.002-.34-.34a.578.578 0 0 1-.001-.815zm8.017 4.471a.393.393 0 0 0-.556 0l-.35.35c-.333.332-.936.29-1.518.25-.633-.044-1.288-.09-1.711.345l-1.45 1.447-3.623-3.618 1.283-1.28c.211.13.456.2.712.2.366 0 .708-.142.964-.399.258-.256.4-.6.4-.965v-.01h.01c.365 0 .708-.14.964-.397.258-.257.4-.6.4-.965v-.01h.01a1.36 1.36 0 0 0 1.364-1.372h.01c.366 0 .709-.142.965-.399.257-.256.399-.599.399-.964 0-.255-.07-.5-.2-.711l1.125-1.124a.577.577 0 0 1 .33-.162.579.579 0 0 1 .489.162.579.579 0 0 1 0 .816l-.342.341-.003.003-.395.394a.393.393 0 1 0 .556.556l.344-.343.052-.052a.58.58 0 0 1 .985.41.57.57 0 0 1-.17.408l-.343.345-.395.393a.393.393 0 0 0 .555.557l.396-.395a.573.573 0 0 1 .409-.168.574.574 0 0 1 .577.577c0 .154-.06.299-.169.408l-.686.686a.393.393 0 0 0 .557.556l.336-.336.006-.006a.573.573 0 0 1 .408-.168.578.578 0 0 1 .409.984l-.342.342-.543.543a.394.394 0 0 0 .556.557l.265-.266 1.273 1.271-3.624 3.62-1.298-1.297c.09-.059.177-.127.259-.208l.35-.35a.393.393 0 0 0 0-.556zm6.605.487l-4.217 4.212a.522.522 0 0 1-.372.152.522.522 0 0 1-.372-.152l-.695-.695a.52.52 0 0 1-.152-.37.52.52 0 0 1 .152-.371l4.217-4.212a.522.522 0 0 1 .372-.152c.14 0 .273.054.372.153l.695.693a.52.52 0 0 1 .152.371.521.521 0 0 1-.152.371zM12.741 10.21a.392.392 0 0 0 .557 0 .393.393 0 0 0 0-.557l-1.434-1.43a.393.393 0 1 0-.556.556l1.433 1.431zm10.17.115c.1 0 .201-.038.278-.115l1.432-1.43a.393.393 0 1 0-.556-.558l-1.432 1.431a.393.393 0 0 0 .278.672z" fill="#20AA38"/><path d="M10.454 24.922a.393.393 0 0 0 .005.557.39.39 0 0 0 .557-.005.394.394 0 0 0-.562-.552zm10.929-3.162a.394.394 0 1 0-.177-.745l-.002.002a.392.392 0 0 0 .18.743z" fill="#20AA38"/></svg><svg fill="none" viewBox="0 0 45 45" id="telegram" xmlns="http://www.w3.org/2000/svg"><path d="M32.821 11.23a.716.716 0 0 0-.806-.173L9.42 20.708a.686.686 0 0 0-.42.614.684.684 0 0 0 .392.63l5.395 2.589 1.344 7.87a.695.695 0 0 0 .597.582.712.712 0 0 0 .604-.201l4.259-4.156 6.077 4.236a.719.719 0 0 0 .668.08.691.691 0 0 0 .43-.504l4.22-20.628a.673.673 0 0 0-.166-.59zM15.345 23.28l-3.973-1.907 15.695-6.704-11.722 8.61zm2.2 2.039l-.654 3.19-.705-4.13 8.623-6.335-7.072 6.925a.691.691 0 0 0-.192.35zm.428 4.907l.738-3.598 1.72 1.2-2.458 2.398zm9.628.912l-8.284-5.773 11.835-11.586-3.55 17.36z" fill="#fff"/><circle cx="22.5" cy="22.5" r="21.5" stroke="#fff" stroke-width="2"/></svg><svg fill="none" viewBox="0 0 39 39" id="x-circle" xmlns="http://www.w3.org/2000/svg"><path d="M19.25 35.292c8.86 0 16.042-7.182 16.042-16.042 0-8.86-7.182-16.041-16.042-16.041-8.86 0-16.041 7.182-16.041 16.041 0 8.86 7.182 16.042 16.041 16.042zm4.813-20.854l-9.625 9.624m0-9.624l9.624 9.624" stroke="#393939" stroke-width="2" stroke-linecap="round" stroke-linejoin="round"/></svg></svg>