<svg width="70" height="70" viewBox="0 0 70 70" fill="none" xmlns="http://www.w3.org/2000/svg">
<circle cx="35" cy="35" r="35" fill="#7057D6" fill-opacity="0.2"/>
<g>
<path d="M42.6666 21.3335H29.3333V22.6668H42.6666V21.3335Z" fill="#7057D6"/>
<path d="M49.0001 43.0002C49.0001 41.7137 47.9532 40.6668 46.6667 40.6668H45.3334V31.3335H44.0001V40.6668H42.3334C41.0469 40.6668 40.0001 41.7137 40.0001 43.0002C40.0001 43.6533 40.2716 44.2428 40.7056 44.6668C40.2716 45.0908 40.0001 45.6803 40.0001 46.3335C40.0001 46.7829 40.1338 47.1993 40.355 47.5558C39.5575 47.9272 39.0001 48.7308 39.0001 49.6668C39.0001 50.0261 39.0885 50.3626 39.2342 50.6668H34.0001C34.0001 48.6284 32.9786 46.8244 31.4207 45.7397C32.9272 45.1655 34.0001 43.7059 34.0001 42.0002C34.0001 41.632 33.7019 41.3335 33.3334 41.3335H28.0001V34.6668H26.6667V41.3335C25.5639 41.3335 24.6667 42.2307 24.6667 43.3335V58.0002H26.0001V43.3335C26.0001 42.966 26.2989 42.6668 26.6667 42.6668H32.5821C32.2858 43.8156 31.2402 44.6668 30.0001 44.6668H28.0001C27.6316 44.6668 27.3334 44.9653 27.3334 45.3335C27.3334 45.7017 27.6316 46.0002 28.0001 46.0002C30.573 46.0002 32.6667 48.0936 32.6667 50.6668V51.3335C32.6667 51.7017 32.9649 52.0002 33.3334 52.0002H37.2342C37.0885 52.3044 37.0001 52.6409 37.0001 53.0002C37.0001 54.2867 38.047 55.3335 39.3334 55.3335V58.0002H40.6667V55.3335H43.3334H43.6667C44.9532 55.3335 46.0001 54.2866 46.0001 53.0002C46.0001 52.6371 45.9095 52.2974 45.7608 51.9907C47.0029 51.94 48.0001 50.9211 48.0001 49.6668C48.0001 49.2174 47.8663 48.801 47.6452 48.4445C48.4427 48.0731 49.0001 47.2695 49.0001 46.3335C49.0001 45.6803 48.7286 45.0908 48.2946 44.6668C48.7286 44.2428 49.0001 43.6533 49.0001 43.0002ZM43.6667 54.0002H43.3334H40.0001H39.3334C38.782 54.0002 38.3334 53.5516 38.3334 53.0002C38.3334 52.4487 38.782 52.0002 39.3334 52.0002H41.3334H43.6667C44.2182 52.0002 44.6667 52.4487 44.6667 53.0002C44.6667 53.5516 44.2182 54.0002 43.6667 54.0002ZM45.6667 50.6668H43.6667H41.3334C40.782 50.6668 40.3334 50.2182 40.3334 49.6668C40.3334 49.1154 40.782 48.6668 41.3334 48.6668H42.3334H45.6667C46.2182 48.6668 46.6667 49.1154 46.6667 49.6668C46.6667 50.2182 46.2182 50.6668 45.6667 50.6668ZM46.6667 47.3335H45.6667H42.3334C41.782 47.3335 41.3334 46.8849 41.3334 46.3335C41.3334 45.7821 41.782 45.3335 42.3334 45.3335H46.6667C47.2182 45.3335 47.6667 45.7821 47.6667 46.3335C47.6667 46.8849 47.2182 47.3335 46.6667 47.3335ZM46.6667 44.0002H42.3334C41.782 44.0002 41.3334 43.5516 41.3334 43.0002C41.3334 42.4487 41.782 42.0002 42.3334 42.0002H46.6667C47.2182 42.0002 47.6667 42.4487 47.6667 43.0002C47.6667 43.5516 47.2182 44.0002 46.6667 44.0002Z" fill="#7057D6"/>
<path d="M25.9982 26.4857C25.9845 26.2943 25.8894 26.1178 25.7364 26.0019L25.0424 25.4758C24.8764 24.6354 24.1388 24 23.2566 24C22.2612 24 21.4493 24.8093 21.4363 25.8089C20.9037 25.7158 20.3946 25.5114 19.9388 25.2044L19.7064 25.0475C19.5027 24.9098 19.2383 24.8948 19.0203 25.0113C18.8028 25.1269 18.6668 25.3535 18.6668 25.5999V26.1468C18.6668 26.9503 18.9089 27.7165 19.3582 28.3601L18.8595 28.8647C18.6701 29.0558 18.6147 29.3419 18.7183 29.5902C18.8217 29.8382 19.0645 30 19.3334 30H22.5639C23.8523 30 24.9174 29.0179 25.0607 27.7575L25.8074 27.002C25.9422 26.8656 26.0118 26.6774 25.9982 26.4857ZM23.9363 26.9981C23.8126 27.1227 23.7435 27.2914 23.7435 27.4668C23.7435 28.1283 23.2142 28.6667 22.5638 28.6667H20.8679C20.9734 28.4238 20.9278 28.1308 20.7306 27.9313C20.4194 27.6163 20.1968 27.2198 20.0841 26.7923C20.7202 27.0606 21.4038 27.1999 22.103 27.1999C22.4715 27.1999 22.7697 26.9014 22.7697 26.5333V25.8333C22.7697 25.5576 22.9884 25.3333 23.2567 25.3333C23.5249 25.3333 23.7437 25.5576 23.7437 25.8333C23.7437 26.042 23.8413 26.2386 24.0073 26.3646L24.3251 26.6052L23.9363 26.9981Z" fill="#7057D6"/>
<path d="M38 29.3333V28H36C35.6315 28 35.3333 28.2985 35.3333 28.6667V30.6667H34V32H35.3333V34.6667H36.6667V32H38V30.6667H36.6667V29.3333H38Z" fill="#7057D6"/>
<path d="M40 25.3335H32C30.8972 25.3335 30 26.2307 30 27.3335V35.3335C30 36.4363 30.8972 37.3335 32 37.3335H40C41.1028 37.3335 42 36.4363 42 35.3335V27.3335C42 26.2307 41.1028 25.3335 40 25.3335ZM40.6667 35.3335C40.6667 35.701 40.3678 36.0002 40 36.0002H32C31.6322 36.0002 31.3333 35.701 31.3333 35.3335V27.3335C31.3333 26.966 31.6322 26.6668 32 26.6668H40C40.3678 26.6668 40.6667 26.966 40.6667 27.3335V35.3335Z" fill="#7057D6"/>
<path d="M26 21.3335H18C16.8972 21.3335 16 22.2307 16 23.3335V31.3335C16 32.4363 16.8972 33.3335 18 33.3335H26C27.1028 33.3335 28 32.4363 28 31.3335V23.3335C28 22.2307 27.1028 21.3335 26 21.3335ZM26.6667 31.3335C26.6667 31.701 26.3678 32.0002 26 32.0002H18C17.6322 32.0002 17.3333 31.701 17.3333 31.3335V23.3335C17.3333 22.966 17.6322 22.6668 18 22.6668H26C26.3678 22.6668 26.6667 22.966 26.6667 23.3335V31.3335Z" fill="#7057D6"/>
<path d="M54 18H46C44.8972 18 44 18.8972 44 20V28C44 29.1028 44.8972 30 46 30H54C55.1028 30 56 29.1028 56 28V20C56 18.8972 55.1028 18 54 18ZM54.6667 28C54.6667 28.3675 54.3678 28.6667 54 28.6667H46C45.6322 28.6667 45.3333 28.3675 45.3333 28V24.6667H46.7341C47.0438 26.1862 48.3904 27.3333 50 27.3333C51.6096 27.3333 52.9562 26.1862 53.2659 24.6667H54.6667V28ZM48 24C48 22.8972 48.8972 22 50 22C51.1028 22 52 22.8972 52 24C52 25.1028 51.1028 26 50 26C48.8972 26 48 25.1028 48 24ZM54.6667 23.3333H53.2659C52.9562 21.8138 51.6096 20.6667 50 20.6667C48.3904 20.6667 47.0438 21.8138 46.7341 23.3333H45.3333V20C45.3333 19.6325 45.6322 19.3333 46 19.3333H54C54.3678 19.3333 54.6667 19.6325 54.6667 20V23.3333Z" fill="#7057D6"/>
<path d="M36.6666 45.3335H35.3333V46.6668H36.6666V45.3335Z" fill="#7057D6"/>
</g>
</svg>
