<svg width="23" height="24" viewBox="0 0 23 24" fill="none" xmlns="http://www.w3.org/2000/svg">
<path d="M10.1513 16.2783C10.3194 16.095 10.3194 15.7984 10.1513 15.6151C9.98317 15.4323 9.71073 15.4323 9.54238 15.6151C9.37454 15.7984 9.37454 16.095 9.54238 16.2783C9.71073 16.461 9.98317 16.461 10.1513 16.2783Z" fill="#7057D6"/>
<path d="M8.11328 5.15479C8.11328 7.99714 10.2372 10.3098 12.8477 10.3098C15.4583 10.3098 17.5822 7.99714 17.5822 5.15479C17.5822 2.31244 15.4583 0 12.8477 0C10.2372 0 8.11328 2.31244 8.11328 5.15479ZM16.7215 5.15479C16.7215 7.48041 14.9837 9.37244 12.8477 9.37244C10.7118 9.37244 8.974 7.48041 8.974 5.15479C8.974 2.82935 10.7118 0.937317 12.8477 0.937317C14.9837 0.937317 16.7215 2.82935 16.7215 5.15479Z" fill="#7057D6"/>
<path d="M4.97908 23.8616C5.14591 24.0447 5.41751 24.0467 5.58653 23.8654L7.67324 21.6271C8.02776 21.2411 8.13556 20.6697 7.97966 20.1729L8.42852 19.7016C8.67019 19.4474 8.98837 19.3074 9.32472 19.3074H15.0465C16.0617 19.3074 17.0211 18.8829 17.7484 18.1122C17.7784 18.0806 17.5212 18.4103 21.652 13.0351C22.2646 12.2459 22.173 11.0608 21.4475 10.3931C20.7265 9.73149 19.6465 9.82653 19.0321 10.6022L16.4923 13.4443C16.1716 13.0146 15.6826 12.7467 15.1542 12.7467H10.3546C9.67167 12.4356 8.947 12.2781 8.1993 12.2781C6.1267 12.2781 4.31697 13.3204 3.34576 15.2745C2.93659 15.1901 2.50505 15.3248 2.1946 15.6628L0.147069 17.8987C-0.0200967 18.0813 -0.020433 18.3766 0.146397 18.5597L4.97908 23.8616ZM8.19913 13.2153C8.85837 13.2153 9.49576 13.3597 10.094 13.6446C10.1484 13.6706 10.2071 13.684 10.2665 13.684H15.1542C15.6209 13.684 16.0151 14.0984 16.0151 14.6211C16.0151 15.1381 15.6289 15.5585 15.1542 15.5585H11.6425C11.4049 15.5585 11.2122 15.7683 11.2122 16.027C11.2122 16.2859 11.4049 16.4956 11.6425 16.4956H15.1542C16.1035 16.4956 16.8758 15.6548 16.8758 14.6211C16.8758 14.5387 16.8704 14.4571 16.8607 14.3762C19.3175 11.6265 19.664 11.2401 19.6788 11.2209C19.9855 10.8266 20.5301 10.7767 20.8923 11.1092C21.2549 11.443 21.3008 12.0355 20.9932 12.4319L17.1328 17.4567C16.569 18.046 15.8289 18.3702 15.0465 18.3702H9.32472C8.76403 18.3702 8.23327 18.6037 7.83066 19.0272L7.46487 19.4116L4.09296 15.7405C4.88103 14.1308 6.3598 13.2153 8.19913 13.2153ZM2.80373 16.3251C2.94567 16.1706 3.16363 16.1428 3.33668 16.2592C3.41118 16.3086 3.19726 16.0966 7.06462 20.3014C7.23666 20.4888 7.22741 20.7872 7.06697 20.9619L5.28802 22.8701L1.05892 18.2303L2.80373 16.3251Z" fill="#7057D6"/>
<path d="M12.3313 2.34326V2.8924C11.8303 3.08576 11.4704 3.60669 11.4704 4.21771C11.4704 4.9928 12.0496 5.6236 12.7616 5.6236C12.9989 5.6236 13.192 5.8338 13.192 6.09217C13.192 6.35053 12.9989 6.56073 12.7616 6.56073C12.5778 6.56073 12.3792 6.43494 12.2028 6.20624C12.0497 6.00812 11.7783 5.98267 11.5963 6.14911C11.4144 6.31574 11.3908 6.61127 11.5439 6.80939C11.7739 7.1073 12.0445 7.31494 12.3313 7.41968V7.96662C12.3313 8.22553 12.524 8.43518 12.7616 8.43518C12.9993 8.43518 13.192 8.22553 13.192 7.96662V7.41748C13.693 7.22394 14.0529 6.70301 14.0529 6.09217C14.0529 5.3169 13.4737 4.68628 12.7616 4.68628C12.5243 4.68628 12.3313 4.47608 12.3313 4.21771C12.3313 3.95935 12.5243 3.74896 12.7616 3.74896C12.9142 3.74896 13.0751 3.83374 13.2271 3.99396C13.398 4.17395 13.6705 4.16901 13.8358 3.98316C14.0011 3.79712 13.9965 3.50049 13.8258 3.3205C13.6074 3.09033 13.3888 2.96014 13.192 2.8891V2.34326C13.192 2.08435 12.9993 1.87451 12.7616 1.87451C12.524 1.87451 12.3313 2.08435 12.3313 2.34326Z" fill="#7057D6"/>
</svg>
