<svg width="37" height="37" viewBox="0 0 37 37" fill="none" xmlns="http://www.w3.org/2000/svg">
<circle cx="18.5" cy="18.5" r="18.5" fill="#555BE4" fill-opacity="0.2"/>
<path d="M17.1513 22.2783C17.3194 22.095 17.3194 21.7984 17.1513 21.6151C16.9832 21.4323 16.7107 21.4323 16.5424 21.6151C16.3745 21.7984 16.3745 22.095 16.5424 22.2783C16.7107 22.461 16.9832 22.461 17.1513 22.2783Z" fill="#7057D6"/>
<path d="M15.1133 11.1548C15.1133 13.9971 17.2372 16.3098 19.8477 16.3098C22.4583 16.3098 24.5822 13.9971 24.5822 11.1548C24.5822 8.31244 22.4583 6 19.8477 6C17.2372 6 15.1133 8.31244 15.1133 11.1548ZM23.7215 11.1548C23.7215 13.4804 21.9837 15.3724 19.8477 15.3724C17.7118 15.3724 15.974 13.4804 15.974 11.1548C15.974 8.82935 17.7118 6.93732 19.8477 6.93732C21.9837 6.93732 23.7215 8.82935 23.7215 11.1548Z" fill="#7057D6"/>
<path d="M11.9791 29.8616C12.1459 30.0447 12.4175 30.0467 12.5865 29.8654L14.6732 27.6271C15.0278 27.2411 15.1356 26.6697 14.9797 26.1729L15.4285 25.7016C15.6702 25.4474 15.9884 25.3074 16.3247 25.3074H22.0465C23.0617 25.3074 24.0211 24.8829 24.7484 24.1122C24.7784 24.0806 24.5212 24.4103 28.652 19.0351C29.2646 18.2459 29.173 17.0608 28.4475 16.3931C27.7265 15.7315 26.6465 15.8265 26.0321 16.6022L23.4923 19.4443C23.1716 19.0146 22.6826 18.7467 22.1542 18.7467H17.3546C16.6717 18.4356 15.947 18.2781 15.1993 18.2781C13.1267 18.2781 11.317 19.3204 10.3458 21.2745C9.93659 21.1901 9.50505 21.3248 9.1946 21.6628L7.14707 23.8987C6.9799 24.0813 6.97957 24.3766 7.1464 24.5597L11.9791 29.8616ZM15.1991 19.2153C15.8584 19.2153 16.4958 19.3597 17.094 19.6446C17.1484 19.6706 17.2071 19.684 17.2665 19.684H22.1542C22.6209 19.684 23.0151 20.0984 23.0151 20.6211C23.0151 21.1381 22.6289 21.5585 22.1542 21.5585H18.6425C18.4049 21.5585 18.2122 21.7683 18.2122 22.027C18.2122 22.2859 18.4049 22.4956 18.6425 22.4956H22.1542C23.1035 22.4956 23.8758 21.6548 23.8758 20.6211C23.8758 20.5387 23.8704 20.4571 23.8607 20.3762C26.3175 17.6265 26.664 17.2401 26.6788 17.2209C26.9855 16.8266 27.5301 16.7767 27.8923 17.1092C28.2549 17.443 28.3008 18.0355 27.9932 18.4319L24.1328 23.4567C23.569 24.046 22.8289 24.3702 22.0465 24.3702H16.3247C15.764 24.3702 15.2333 24.6037 14.8307 25.0272L14.4649 25.4116L11.093 21.7405C11.881 20.1308 13.3598 19.2153 15.1991 19.2153ZM9.80373 22.3251C9.94567 22.1706 10.1636 22.1428 10.3367 22.2592C10.4112 22.3086 10.1973 22.0966 14.0646 26.3014C14.2367 26.4888 14.2274 26.7872 14.067 26.9619L12.288 28.8701L8.05892 24.2303L9.80373 22.3251Z" fill="#7057D6"/>
<path d="M19.3313 8.34326V8.8924C18.8303 9.08576 18.4704 9.60669 18.4704 10.2177C18.4704 10.9928 19.0496 11.6236 19.7616 11.6236C19.9989 11.6236 20.192 11.8338 20.192 12.0922C20.192 12.3505 19.9989 12.5607 19.7616 12.5607C19.5778 12.5607 19.3792 12.4349 19.2028 12.2062C19.0497 12.0081 18.7783 11.9827 18.5963 12.1491C18.4144 12.3157 18.3908 12.6113 18.5439 12.8094C18.7739 13.1073 19.0445 13.3149 19.3313 13.4197V13.9666C19.3313 14.2255 19.524 14.4352 19.7616 14.4352C19.9993 14.4352 20.192 14.2255 20.192 13.9666V13.4175C20.693 13.2239 21.0529 12.703 21.0529 12.0922C21.0529 11.3169 20.4737 10.6863 19.7616 10.6863C19.5243 10.6863 19.3313 10.4761 19.3313 10.2177C19.3313 9.95935 19.5243 9.74896 19.7616 9.74896C19.9142 9.74896 20.0751 9.83374 20.2271 9.99396C20.398 10.174 20.6705 10.169 20.8358 9.98316C21.0011 9.79712 20.9965 9.50049 20.8258 9.3205C20.6074 9.09033 20.3888 8.96014 20.192 8.8891V8.34326C20.192 8.08435 19.9993 7.87451 19.7616 7.87451C19.524 7.87451 19.3313 8.08435 19.3313 8.34326Z" fill="#7057D6"/>
</svg>
