<svg width="45" height="45" viewBox="0 0 45 45" xmlns="http://www.w3.org/2000/svg">

<path d="M44.9383 16.237C44.7905 15.7844 44.4026 15.4611 43.9316 15.3872L29.8928 13.3923L23.5753 0.692703C23.3629 0.267845 22.9288 0 22.4578 0C21.9867 0 21.5527 0.267845 21.3402 0.701939L15.1059 13.4384L1.06713 15.5258C0.596088 15.5997 0.208174 15.9229 0.0603977 16.3755C-0.0873789 16.8281 0.0419256 17.3268 0.383659 17.6501L10.571 27.5234L8.21582 41.5067C8.13269 41.9778 8.32665 42.4488 8.71456 42.7259C8.92699 42.8829 9.1856 42.966 9.44421 42.966C9.6474 42.966 9.84136 42.9199 10.0261 42.8183L22.5594 36.1776L35.1296 42.7444C35.3144 42.8367 35.5083 42.8829 35.7023 42.8829C36.3857 42.8829 36.9491 42.3195 36.9491 41.6361C36.9491 41.5345 36.9399 41.4421 36.9122 41.3497L34.4831 27.4495L44.6058 17.5208C44.966 17.1883 45.0861 16.6895 44.9383 16.237ZM32.2849 26.1287C31.9894 26.4151 31.8601 26.8307 31.934 27.2371L34.049 39.364L23.132 33.6654C22.7718 33.4714 22.3377 33.4806 21.9683 33.6654L11.0882 39.4286L13.1294 27.2833C13.194 26.8769 13.0647 26.4705 12.7692 26.1842L3.93953 17.6131L16.1219 15.8029C16.5283 15.7382 16.8792 15.4888 17.0547 15.1194L22.467 4.06386L27.9532 15.0917C28.1379 15.4611 28.4889 15.7105 28.8953 15.7752L41.0869 17.5115L32.2849 26.1287Z" fill="white"/>
</svg>
