<svg width="48" height="48" viewBox="0 0 48 48" fill="none" xmlns="http://www.w3.org/2000/svg">
<path d="M25.1872 22.8142C24.8207 22.4477 24.2272 22.4477 23.8606 22.8142C23.495 23.1799 23.495 23.7733 23.8606 24.1399C24.2272 24.5055 24.8207 24.5055 25.1872 24.1399C25.5529 23.7733 25.5529 23.1799 25.1872 22.8142Z" fill="white"/>
<path d="M37.1189 10.8817C35.287 9.0499 32.3215 9.0498 30.4895 10.8817C28.6624 12.7088 28.6623 15.6826 30.4898 17.5112C32.3175 19.3378 35.2913 19.3386 37.1189 17.511C38.9506 15.6793 38.951 12.7137 37.1189 10.8817ZM35.7931 16.1851C34.6968 17.2814 32.9124 17.2814 31.8156 16.1853C30.7192 15.0882 30.7191 13.3038 31.8154 12.2075C32.9144 11.1085 34.6938 11.1083 35.7931 12.2075C36.8921 13.3065 36.8923 15.086 35.7931 16.1851Z" fill="white"/>
<path d="M47.7255 0.274606C47.5414 0.0905726 47.2901 -0.00917841 47.0289 0.000665445C46.8169 0.00825927 41.7699 0.211136 35.7703 2.33169C30.9627 4.02914 26.9555 6.45945 23.86 9.55511C23.1663 10.2488 22.4913 10.9843 21.8454 11.7485C18.7847 9.9468 16.3319 10.5117 14.7814 11.3415C11.2113 13.2522 9.00146 18.44 9.00146 22.1506C9.00175 22.5298 9.23022 22.8717 9.58047 23.0167C9.69644 23.0648 9.81832 23.0882 9.93907 23.0882C10.1831 23.0882 10.4228 22.9928 10.6022 22.8136C12.485 20.9308 14.8073 21.0485 15.5659 21.1483L15.8942 21.4766C15.2481 23.0141 14.7276 24.543 14.3458 26.03C14.208 26.5681 14.2545 27.1375 14.4594 27.6584C13.5567 28.0744 12.6859 28.6852 11.9276 29.4434C9.51438 31.8568 9.02434 37.7381 9.00465 37.9873C8.98309 38.2608 9.08228 38.5301 9.27625 38.724C9.45278 38.9005 9.69157 38.9986 9.93907 38.9986C9.96363 38.9986 9.98829 38.9977 10.0129 38.9957C10.2621 38.9761 16.1437 38.4861 18.5569 36.0728C19.3149 35.3149 19.9256 34.4441 20.3416 33.5417C20.893 33.7585 21.4606 33.7852 21.971 33.6544C23.4573 33.2728 24.986 32.7525 26.5237 32.1062L26.852 32.4346C26.9517 33.1933 27.0694 35.5156 25.1867 37.3982C24.9187 37.6663 24.8384 38.0696 24.9836 38.4198C25.1286 38.7702 25.4704 38.9985 25.8496 38.9985C29.5603 38.9985 34.748 36.7887 36.6586 33.2186C37.4884 31.6682 38.0534 29.2155 36.2517 26.1546C37.0155 25.5091 37.7511 24.8341 38.4451 24.1401C41.5407 21.0445 43.9709 17.0373 45.6684 12.2301C47.789 6.23023 47.9918 1.18305 47.9994 0.971175C48.0088 0.711016 47.9095 0.458733 47.7255 0.274606ZM11.0975 20.1341C11.6799 17.3157 13.3715 14.223 15.6665 12.9946C17.2002 12.1739 18.8765 12.2544 20.6589 13.2301C19.1404 15.2271 17.8203 17.3787 16.72 19.6508C16.706 19.6421 16.5373 19.43 16.2238 19.3593C16.0948 19.3301 13.6143 18.7966 11.0975 20.1341ZM17.2311 34.7469C15.942 36.036 12.9181 36.7159 11.0068 36.9935C11.2845 35.0821 11.9645 32.0582 13.2534 30.7693C13.9753 30.0474 14.8123 29.5001 15.6537 29.1918L18.8086 32.3467C18.5003 33.188 17.9531 34.025 17.2311 34.7469ZM21.5052 31.8381C21.2339 31.9076 20.9196 31.8056 20.686 31.5723C19.4732 30.3595 18.9987 29.885 18.8498 29.7362C18.5768 29.4632 17.9073 28.7937 16.4286 27.3149C16.1948 27.0806 16.0928 26.7665 16.1621 26.4956C16.4624 25.3262 16.8551 24.1263 17.3326 22.915L25.0854 30.6677C23.8738 31.1454 22.6742 31.538 21.5052 31.8381ZM35.0057 32.3339C33.7774 34.6288 30.6847 36.3204 27.8664 36.9027C28.765 35.2117 28.9631 33.0591 28.6348 31.7538C28.5586 31.4506 28.3608 31.2982 28.3497 31.2803C30.6216 30.1799 32.773 28.8598 34.7703 27.3413C35.746 29.1239 35.8263 30.8005 35.0057 32.3339ZM37.1194 22.8143C36.2746 23.659 35.365 24.4751 34.4157 25.2398C32.1336 27.0773 29.6218 28.6338 26.942 29.8728L18.1276 21.0585C19.3666 18.3786 20.923 15.8668 22.7604 13.585C23.5257 12.635 24.3417 11.7253 25.1862 10.8809C27.9635 8.10347 31.548 5.89301 35.8429 4.30187L43.6985 12.1574C42.1075 16.4523 39.8971 20.0367 37.1194 22.8143ZM44.373 10.1801L37.8202 3.62733C41.3904 2.51844 44.4962 2.10322 46.0465 1.95397C45.8972 3.50451 45.4818 6.61039 44.373 10.1801Z" fill="white"/>
<path d="M22.5348 38.7237C22.1686 38.3576 21.5749 38.3578 21.2089 38.7239L18.5576 41.3761C18.1916 41.7423 18.1917 42.3359 18.5578 42.7019C18.9241 43.0679 19.5178 43.0679 19.8838 42.7017L22.535 40.0495C22.901 39.6833 22.9009 39.0897 22.5348 38.7237Z" fill="white"/>
<path d="M9.27668 25.4658C8.91068 25.0996 8.31714 25.0996 7.95085 25.4656L5.29864 28.1169C4.93245 28.4829 4.93235 29.0766 5.29836 29.4427C5.66427 29.8087 6.25781 29.8091 6.62418 29.4429L9.2764 26.7917C9.64259 26.4257 9.64268 25.832 9.27668 25.4658Z" fill="white"/>
<path d="M15.9058 40.0505C15.5399 39.6844 14.9461 39.6844 14.5799 40.0504L8.22924 46.4001C7.86305 46.7662 7.86305 47.3599 8.22915 47.7259C8.59506 48.092 9.18879 48.0922 9.55498 47.726L15.9057 41.3763C16.2719 41.0102 16.2719 40.4166 15.9058 40.0505Z" fill="white"/>
<path d="M8.40576 40.0505C8.03976 39.6844 7.44603 39.6844 7.07994 40.0504L0.729245 46.4001C0.363054 46.7662 0.363054 47.3599 0.729151 47.7259C1.09506 48.092 1.68879 48.0922 2.05498 47.726L8.40567 41.3763C8.77186 41.0102 8.77186 40.4166 8.40576 40.0505Z" fill="white"/>
<path d="M7.95014 32.0946C7.58414 31.7286 6.99041 31.7286 6.62431 32.0947L0.274561 38.4453C-0.0915361 38.8115 -0.0915361 39.4051 0.274655 39.7713C0.640753 40.1374 1.23438 40.1374 1.60048 39.7712L7.95023 33.4205C8.31633 33.0543 8.31633 32.4608 7.95014 32.0946Z" fill="white"/>
<path d="M29.1644 18.8363C28.7982 18.4702 28.2048 18.4702 27.8385 18.8363L26.5129 20.162C26.1468 20.5281 26.1468 21.1217 26.5129 21.4879C26.879 21.854 27.4726 21.854 27.8388 21.4879L29.1644 20.1623C29.5305 19.7962 29.5305 19.2025 29.1644 18.8363Z" fill="white"/>
</svg>
