<svg width="45" height="45" viewBox="0 0 45 45" fill="none" xmlns="http://www.w3.org/2000/svg">
<path d="M41.9992 0.75H3.00076C1.34622 0.75 0 2.09631 0 3.75076V28.5C0 28.9139 0.336006 29.2499 0.749971 29.2499H44.2499C44.6639 29.2499 44.9999 28.9139 44.9999 28.5V3.75076C45 2.09631 43.6538 0.75 41.9992 0.75ZM43.5 27.75H1.50003V3.75076C1.50003 2.92274 2.17354 2.25003 3.00076 2.25003H41.9992C42.8265 2.25003 43.5 2.92274 43.5 3.75076V27.75Z" fill="white"/>
<path d="M44.25 27.75H0.749971C0.336006 27.75 0 28.086 0 28.5V32.2492C0 33.9038 1.34622 35.25 3.00076 35.25H41.9992C43.6538 35.25 45 33.9038 45 32.2492V28.5C45 28.086 44.664 27.75 44.25 27.75ZM43.5 32.2493C43.5 33.0773 42.8265 33.75 41.9992 33.75H3.00076C2.17354 33.75 1.50003 33.0773 1.50003 32.2493V29.25H43.5001V32.2493H43.5Z" fill="white"/>
<path d="M24.75 30.75H20.25C19.836 30.75 19.5 31.086 19.5 31.5C19.5 31.9139 19.836 32.2499 20.25 32.2499H24.75C25.1639 32.2499 25.4999 31.9139 25.4999 31.5C25.4999 31.086 25.1639 30.75 24.75 30.75Z" fill="white"/>
<path d="M41.2504 3.75H3.75046C3.33649 3.75 3.00049 4.08601 3.00049 4.49997V28.5C3.00049 28.914 3.33649 29.25 3.75046 29.25H41.2505C41.6645 29.25 42.0005 28.914 42.0005 28.5V4.49997C42.0005 4.08601 41.6645 3.75 41.2504 3.75ZM40.5004 27.7499H4.50043V5.24994H40.5004V27.7499Z" fill="white"/>
<path d="M32.2499 39.75H12.75C11.5095 39.75 10.5 40.7595 10.5 42C10.5 43.2405 11.5095 44.25 12.75 44.25H32.25C33.4905 44.25 34.5 43.2405 34.5 42C34.5 40.7595 33.4904 39.75 32.2499 39.75ZM32.2499 42.75H12.75C12.336 42.75 12 42.4133 12 42C12 41.5867 12.336 41.25 12.75 41.25H32.25C32.664 41.25 33 41.5867 33 42C33 42.4133 32.664 42.75 32.2499 42.75Z" fill="white"/>
<path d="M30.7499 39.7499C28.2614 39.7499 26.9999 37.9837 26.9999 34.5C26.9999 34.086 26.6639 33.75 26.2499 33.75H18.75C18.336 33.75 18 34.086 18 34.5C18 37.9837 16.7385 39.7499 14.25 39.7499C13.836 39.7499 13.5 40.0859 13.5 40.4999C13.5 40.9139 13.836 41.2499 14.25 41.2499H30.7499C31.1639 41.2499 31.4999 40.9139 31.4999 40.4999C31.4999 40.0859 31.1639 39.7499 30.7499 39.7499ZM17.9031 39.7499C18.8264 38.727 19.3701 37.2037 19.4796 35.2499H25.5209C25.6296 37.2037 26.1734 38.727 27.0974 39.7499H17.9031Z" fill="white"/>
<path d="M35.8384 22.8479L34.0279 21.0374L35.0352 20.0302C35.2219 19.8434 35.2969 19.572 35.2324 19.3162C35.1679 19.0604 34.9736 18.8579 34.7209 18.7815L27.2209 16.5315C26.9562 16.4519 26.6704 16.5247 26.4754 16.7197C26.2797 16.9148 26.2077 17.2012 26.2872 17.4652L28.5372 24.9652C28.6129 25.2187 28.8161 25.4129 29.0719 25.4774C29.3269 25.5404 29.5991 25.4669 29.7859 25.2802L30.8464 24.2189L32.6568 26.0302C32.7971 26.1711 32.9884 26.2499 33.1871 26.2499C33.3858 26.2499 33.5771 26.1711 33.7173 26.0302L35.8383 23.9084C36.1316 23.6152 36.1316 23.1412 35.8384 22.8479ZM33.1871 24.4394L31.5386 22.7902C31.3474 22.5989 31.0969 22.5036 30.8464 22.5036C30.5951 22.5036 30.3446 22.5996 30.1542 22.7894L29.6127 23.3309L28.1239 18.3681L33.0866 19.8569L32.5061 20.4374C32.3463 20.5979 32.2586 20.8109 32.2586 21.0374C32.2586 21.2647 32.3471 21.4792 32.5076 21.6382L34.2476 23.3781L33.1871 24.4394Z" fill="white"/>
<path d="M31.4999 6.75H10.5C10.086 6.75 9.75 7.08601 9.75 7.49997V11.25C9.75 11.664 10.086 12 10.5 12H31.4999C31.9139 12 32.2499 11.664 32.2499 11.25V7.49997C32.2499 7.08601 31.9139 6.75 31.4999 6.75ZM30.75 10.5H11.2499V8.25003H30.75V10.5Z" fill="white"/>
<path d="M19.5 15H13.5C13.086 15 12.75 15.336 12.75 15.75V18.7499C12.75 19.1639 13.086 19.4999 13.5 19.4999H19.5C19.914 19.4999 20.25 19.1639 20.25 18.7499V15.75C20.25 15.336 19.914 15 19.5 15ZM18.7499 18H14.2499V16.4999H18.7499V18Z" fill="white"/>
<path d="M31.4999 6.75H10.5C10.086 6.75 9.75 7.08601 9.75 7.49997V21.7499C9.75 22.1639 10.086 22.4999 10.5 22.4999H28.3545C28.5923 22.4999 28.815 22.3882 28.956 22.1977C29.0978 22.0072 29.1413 21.7612 29.073 21.5339L28.1235 18.3682L31.2848 19.317C31.5121 19.3852 31.7581 19.3417 31.9477 19.2C32.1382 19.059 32.25 18.8355 32.25 18.5984V7.49997C32.2499 7.08601 31.9139 6.75 31.4999 6.75ZM30.75 17.5905L27.2197 16.5315C26.9549 16.452 26.6692 16.5248 26.4742 16.7198C26.2784 16.9155 26.2065 17.2013 26.2859 17.4661L27.3464 21.0001H11.2499V8.25003H30.75V17.5905Z" fill="white"/>
</svg>
