<svg width="107" height="107" viewBox="0 0 107 107" fill="none" xmlns="http://www.w3.org/2000/svg">
<circle cx="53.5" cy="53.5" r="53.5" fill="#EEF2FA"/>
<path d="M63.1671 46.702C63.869 47.4039 63.869 48.5416 63.1671 49.2432L51.1126 61.298C50.4107 61.9996 49.2732 61.9996 48.5713 61.298L42.8329 55.5593C42.131 54.8577 42.131 53.7199 42.8329 53.0184C43.5345 52.3165 44.6723 52.3165 45.3738 53.0184L49.8418 57.4864L60.6258 46.702C61.3277 46.0004 62.4655 46.0004 63.1671 46.702ZM76 54C76 66.7132 65.7115 77 53 77C40.2868 77 30 66.7115 30 54C30 41.2868 40.2885 31 53 31C65.7132 31 76 41.2885 76 54ZM72.4062 54C72.4062 43.2731 63.7254 34.5938 53 34.5938C42.2731 34.5938 33.5938 43.2746 33.5938 54C33.5938 64.7269 42.2746 73.4062 53 73.4062C63.7269 73.4062 72.4062 64.7254 72.4062 54Z" fill="#0BCCC9"/>
</svg>
