<svg width="37" height="37" viewBox="0 0 37 37" fill="none" xmlns="http://www.w3.org/2000/svg">
<circle cx="18.5" cy="18.5" r="18.5" fill="#0BCCC9" fill-opacity="0.2"/>
<path d="M25.0711 11.9289C23.1823 10.0402 20.6711 9 18 9C15.3289 9 12.8176 10.0402 10.9289 11.9289C9.04016 13.8177 8 16.3289 8 19C8 21.6711 9.04016 24.1823 10.9289 26.0711C12.8177 27.9598 15.3289 29 18 29C20.6711 29 23.1823 27.9598 25.0711 26.0711C26.9598 24.1823 28 21.6711 28 19C28 16.3289 26.9598 13.8177 25.0711 11.9289ZM18 27.8281C13.1321 27.8281 9.17188 23.8679 9.17188 19C9.17188 14.1321 13.1321 10.1719 18 10.1719C22.8679 10.1719 26.8281 14.1321 26.8281 19C26.8281 23.8679 22.8679 27.8281 18 27.8281Z" fill="#39C0F8"/>
<path d="M22.7775 15.7912C22.5487 15.5624 22.1777 15.5624 21.9489 15.7912L16.7748 20.9654L14.051 18.2417C13.8222 18.0129 13.4512 18.0129 13.2224 18.2417C12.9936 18.4705 12.9936 18.8415 13.2224 19.0703L16.3604 22.2083C16.4748 22.3227 16.6248 22.3799 16.7747 22.3799C16.9246 22.3799 17.0746 22.3227 17.189 22.2083L22.7775 16.6198C23.0064 16.391 23.0064 16.02 22.7775 15.7912Z" fill="#39C0F8"/>
</svg>
