<svg width="45" height="45" viewBox="0 0 45 45" fill="none" xmlns="http://www.w3.org/2000/svg">
<path d="M27.8826 17.5918C28.2684 17.5918 28.5815 17.2787 28.5815 16.8928V12.699C28.5815 12.3131 28.2684 12 27.8826 12H23.6887C20.9907 12 18.7959 14.1948 18.7959 16.8928V20.3877H16.699C16.3131 20.3877 16 20.7008 16 21.0867V25.2805C16 25.6663 16.3131 25.9795 16.699 25.9795H18.7959V35.1593C18.7959 35.5452 19.109 35.8583 19.4949 35.8583H23.6887C24.0745 35.8583 24.3877 35.5452 24.3877 35.1593V25.9795H27.1836C27.5251 25.9795 27.8169 25.7325 27.8732 25.3956L28.5722 21.2018C28.6058 20.9991 28.5489 20.7917 28.4161 20.6347C28.2833 20.4781 28.0881 20.3877 27.8826 20.3877H24.3877V17.5918H27.8826ZM23.6887 21.7856H27.0573L26.5913 24.5815H23.6887C23.3029 24.5815 22.9897 24.8947 22.9897 25.2805V34.4604H20.1938V25.2805C20.1938 24.8947 19.8807 24.5815 19.4949 24.5815H17.3979V21.7856H19.4949C19.8807 21.7856 20.1938 21.4725 20.1938 21.0867V16.8928C20.1938 14.966 21.7619 13.3979 23.6887 13.3979H27.1836V16.1938H23.6887C23.3029 16.1938 22.9897 16.507 22.9897 16.8928V21.0867C22.9897 21.4725 23.3029 21.7856 23.6887 21.7856Z" fill="white"/>
<circle cx="22.5" cy="22.5" r="21.5" stroke="white" stroke-width="2"/>
</svg>
