<svg width="37" height="37" viewBox="0 0 37 37" fill="none" xmlns="http://www.w3.org/2000/svg">
<circle cx="18.5" cy="18.5" r="18.5" fill="#555BE4" fill-opacity="0.2"/>
<path d="M28.8248 27.98L23.9645 23.1197C25.2683 21.6208 26.0576 19.6652 26.0576 17.5277C26.0576 12.8226 22.2306 9 17.5299 9C12.8248 9 9.0022 12.8271 9.0022 17.5277C9.0022 22.2284 12.8292 26.0554 17.5299 26.0554C19.6674 26.0554 21.623 25.2661 23.1219 23.9623L27.9822 28.8226C28.0975 28.9379 28.2527 29 28.4035 29C28.5543 29 28.7095 28.9424 28.8248 28.8226C29.0554 28.592 29.0554 28.2106 28.8248 27.98ZM10.1951 17.5277C10.1951 13.4834 13.4856 10.1973 17.5255 10.1973C21.5698 10.1973 24.8559 13.4878 24.8559 17.5277C24.8559 21.5676 21.5698 24.8625 17.5255 24.8625C13.4856 24.8625 10.1951 21.5721 10.1951 17.5277Z" fill="#7057D6"/>
</svg>
