<svg width="70" height="70" viewBox="0 0 70 70" fill="none" xmlns="http://www.w3.org/2000/svg">
<circle cx="35" cy="35" r="35" fill="#7057D6" fill-opacity="0.2"/>
<path d="M53 35.3335V20.6668C53 18.8288 51.5047 17.3335 49.6667 17.3335H20.3333C18.4953 17.3335 17 18.8288 17 20.6668V30.6668C15.8973 30.6668 15 31.5642 15 32.6668V52.6668C15 53.7695 15.8973 54.6668 17 54.6668H31.6667C32.7693 54.6668 33.6667 53.7695 33.6667 52.6668H39.254C39.8827 52.6668 40.462 52.3802 40.8433 51.8808C41.2247 51.3815 41.3487 50.7468 41.1833 50.1408L39.8727 45.3335H43.6667V52.6668C43.6667 53.7695 44.564 54.6668 45.6667 54.6668H53C54.1027 54.6668 55 53.7695 55 52.6668V37.3335C55 36.2308 54.1027 35.3335 53 35.3335ZM32.3333 52.6668C32.3333 53.0342 32.034 53.3335 31.6667 53.3335H17C16.6327 53.3335 16.3333 53.0342 16.3333 52.6668V51.3335H32.3333V52.6668ZM32.3333 50.0002H16.3333V35.3335H32.3333V50.0002ZM32.3333 34.0002H16.3333V32.6668C16.3333 32.2995 16.6327 32.0002 17 32.0002H31.6667C32.034 32.0002 32.3333 32.2995 32.3333 32.6668V34.0002ZM39.8973 50.4915C39.9527 50.6935 39.9113 50.9048 39.784 51.0715C39.6567 51.2382 39.464 51.3335 39.254 51.3335H33.6667V50.0002H39.7633L39.8973 50.4915ZM33.6667 48.6668V45.3335H38.4907L39.4 48.6668H33.6667ZM43.6667 44.0002H33.6667V40.0002H43.6667V44.0002ZM43.6667 37.3335V38.6668H33.6667V32.6668C33.6667 31.5642 32.7693 30.6668 31.6667 30.6668H18.3333V20.6668C18.3333 19.5642 19.2307 18.6668 20.3333 18.6668H49.6667C50.7693 18.6668 51.6667 19.5642 51.6667 20.6668V35.3335H45.6667C44.564 35.3335 43.6667 36.2308 43.6667 37.3335ZM53.6667 52.6668C53.6667 53.0342 53.3673 53.3335 53 53.3335H45.6667C45.2993 53.3335 45 53.0342 45 52.6668V51.3335H53.6667V52.6668ZM53.6667 50.0002H45V40.0002H53.6667V50.0002ZM53.6667 38.6668H45V37.3335C45 36.9662 45.2993 36.6668 45.6667 36.6668H53C53.3673 36.6668 53.6667 36.9662 53.6667 37.3335V38.6668Z" fill="#7057D6"/>
<path d="M21.195 42.1936L18.5283 44.8604L19.4711 45.8032L22.1378 43.1364L21.195 42.1936Z" fill="#7057D6"/>
<path d="M29.1949 38.8612L21.1948 46.8613L22.1376 47.8041L30.1377 39.804L29.1949 38.8612Z" fill="#7057D6"/>
<path d="M26.5278 36.863L22.5281 40.8628L23.4709 41.8056L27.4706 37.8058L26.5278 36.863Z" fill="#7057D6"/>
<path d="M49.8598 41.5286L46.5271 44.8613L47.4699 45.8041L50.8026 42.4714L49.8598 41.5286Z" fill="#7057D6"/>
<path d="M51.1931 44.199L47.8604 47.5317L48.8032 48.4745L52.1359 45.1418L51.1931 44.199Z" fill="#7057D6"/>
<path d="M36.5276 24.863L32.5278 28.8628L33.4706 29.8056L37.4704 25.8058L36.5276 24.863Z" fill="#7057D6"/>
<path d="M42.5279 23.5295L38.5281 27.5293L39.4709 28.4721L43.4707 24.4723L42.5279 23.5295Z" fill="#7057D6"/>
<path d="M37.1943 28.8626L34.5276 31.5293L35.4704 32.4721L38.1371 29.8054L37.1943 28.8626Z" fill="#7057D6"/>
<path d="M40.5305 20.8638L37.8572 23.5371L38.8 24.4799L41.4733 21.8066L40.5305 20.8638Z" fill="#7057D6"/>
<path d="M21.0001 20H19.6667V21.3333H21.0001V20Z" fill="#7057D6"/>
<path d="M23.6666 20H22.3333V21.3333H23.6666V20Z" fill="#7057D6"/>
<path d="M26.3333 20H25V21.3333H26.3333V20Z" fill="#7057D6"/>
</svg>
