<svg width="44" height="34" viewBox="0 0 44 34" fill="none" xmlns="http://www.w3.org/2000/svg">
<path d="M10.2 -5.96046e-06C13 -5.96046e-06 15.3 0.899994 17.1 2.7C18.9 4.43333 19.8 6.73333 19.8 9.6C19.8 10.9333 19.6333 12.2667 19.3 13.6C18.9667 14.9333 18.2667 16.9333 17.2 19.6L11.4 34H1.5L5.8 18.2C4.13333 17.4667 2.83333 16.3667 1.9 14.9C0.966667 13.4333 0.5 11.6667 0.5 9.6C0.5 6.73333 1.4 4.43333 3.2 2.7C5.06667 0.899994 7.4 -5.96046e-06 10.2 -5.96046e-06ZM33.8 -5.96046e-06C36.6 -5.96046e-06 38.9 0.899994 40.7 2.7C42.5 4.43333 43.4 6.73333 43.4 9.6C43.4 10.9333 43.2333 12.2667 42.9 13.6C42.5667 14.9333 41.8667 16.9333 40.8 19.6L35 34H25.1L29.4 18.2C27.7333 17.4667 26.4333 16.3667 25.5 14.9C24.5667 13.4333 24.1 11.6667 24.1 9.6C24.1 6.73333 25 4.43333 26.8 2.7C28.6667 0.899994 31 -5.96046e-06 33.8 -5.96046e-06Z" fill="#EEF2FA"/>
</svg>
