<svg width="70" height="70" viewBox="0 0 70 70" fill="none" xmlns="http://www.w3.org/2000/svg">
<circle cx="35" cy="35" r="35" fill="#7057D6" fill-opacity="0.2"/>
<g clip-path="url(#clip0)">
<path d="M56 33.7742H54.5503L52.3896 34.9111C52.1464 34.7769 51.8934 34.6632 51.6206 34.5948L48.9026 33.9147V33.6057C50.105 32.7664 50.8387 31.38 50.8387 29.9032V28.7755C50.8387 26.2692 48.8749 24.1717 46.4612 24.0987C46.3386 24.0955 46.218 24.0999 46.0967 24.1059L46.8014 22.4561L43.385 19.0407L41.3711 20.3515C40.6059 19.9206 39.7966 19.5851 38.9561 19.3497L38.4587 17H33.5419L33.0445 19.3504C32.204 19.5857 31.3941 19.9212 30.6295 20.3521L28.6156 19.0413L25.2021 22.4549L25.8948 24.1059C25.8683 24.1046 25.8431 24.0999 25.8167 24.0993C24.5811 24.0634 23.4175 24.5142 22.5335 25.3723C21.6483 26.2298 21.1613 27.3805 21.1613 28.6129V29.9032C21.1613 31.38 21.8943 32.7658 23.0968 33.605V33.9147L21.3238 34.3579L18.1103 32.4839H16V45.8524L22.347 47.9677H23.5832L23.7375 47.4272L25.6831 48.5949C25.7149 49.6528 26.5633 50.504 27.6201 50.5411C27.6573 51.5936 28.5031 52.4395 29.5556 52.4766C29.5928 53.5291 30.4386 54.3749 31.4911 54.4121C31.5295 55.4892 32.4116 56.3548 33.4975 56.3548C33.9007 56.3548 34.2961 56.2291 34.6284 56.0052L35.1998 56.5098C35.558 56.8252 36.0192 57 36.498 57H36.6174C37.691 57 38.5646 56.1321 38.5781 55.062C39.6401 55.0485 40.5001 54.1884 40.5136 53.1265C41.5762 53.113 42.4368 52.2517 42.4491 51.1891C43.5214 51.1639 44.3871 50.2879 44.3871 49.2095C44.3871 49.1447 44.3839 49.0807 44.3773 49.0161L56 43.2053V33.7742ZM49.5484 28.7755V29.9032C49.5484 31.0483 48.9297 32.1181 47.9336 32.6949L47.611 32.8814L47.6135 34.9231L50.8368 35.7283L43.7419 39.4625V37.7245C43.7419 36.8573 43.3916 36.0631 42.818 35.4762L45.0323 34.9231V32.8799L44.7103 32.6937C43.7148 32.1181 43.0968 31.0483 43.0968 29.9032V28.6129C43.0968 27.7331 43.4446 26.9102 44.0768 26.2975C44.7084 25.6851 45.5464 25.355 46.4224 25.389C48.1459 25.4406 49.5484 26.96 49.5484 28.7755ZM36.9728 38.9553L34.0522 38.0219C32.7213 37.5954 31.2807 37.5318 29.9182 37.8335L29.5484 37.9154V37.7245C29.5484 36.8349 30.1517 36.0625 31.0142 35.8464L34.7097 34.9231V32.8799L34.3877 32.6937C33.3923 32.1181 32.7742 31.0483 32.7742 29.9032V28.6129C32.7742 27.7331 33.122 26.9102 33.7542 26.2975C34.3858 25.6851 35.2291 25.355 36.0999 25.389C37.8233 25.4406 39.2258 26.96 39.2258 28.7755V29.9032C39.2258 31.0483 38.6071 32.1181 37.611 32.6949L37.2884 32.8814L37.291 34.9231L40.9858 35.8464C41.8483 36.0625 42.4516 36.8349 42.4516 37.7245V40.142L42.2922 40.2258H41.8969L37.9304 39.0924C37.6179 39.0038 37.296 38.9676 36.9728 38.9553ZM29.693 26.656C30.9045 24.3085 33.3431 22.8065 36 22.8065C38.6317 22.8065 41.0599 24.2883 42.2806 26.604C41.9734 27.2199 41.8064 27.9019 41.8064 28.6129V29.9032C41.8064 31.38 42.5395 32.7658 43.7419 33.605V33.9147L41.1613 34.5608L38.58 33.9147V33.6057C39.7824 32.7664 40.5161 31.38 40.5161 29.9032V28.7755C40.5161 26.2692 38.5523 24.1717 36.1386 24.0987C34.9037 24.0624 33.7394 24.5135 32.8555 25.3717C31.9709 26.2298 31.4839 27.3805 31.4839 28.6129V29.9032C31.4839 31.38 32.2169 32.7658 33.4194 33.605V33.9147L30.8387 34.5608L28.2574 33.9147V33.6057C29.4599 32.7664 30.1935 31.38 30.1935 29.9032V28.7755C30.1935 28.0163 30.0108 27.2955 29.693 26.656ZM26.7258 22.7542L28.787 20.693L30.6012 21.8737L30.9483 21.6607C31.8181 21.1277 32.7581 20.7374 33.7419 20.5021L34.1389 20.4069L34.5878 18.2903H37.4129L37.8605 20.4063L38.2574 20.5011C39.2412 20.7368 40.1813 21.1271 41.051 21.6601L41.3982 21.873L43.2124 20.6924L45.271 22.7516L44.5393 24.465C44.0412 24.6792 43.5794 24.9807 43.1774 25.3704C43.151 25.3962 43.1283 25.424 43.1024 25.4504C41.5825 23.0342 38.8953 21.5161 36 21.5161C33.0839 21.5161 30.3892 23.0484 28.873 25.4892C28.4672 25.0645 27.9846 24.7205 27.4497 24.4802L26.7258 22.7542ZM24.3871 34.9231V32.8799L24.0651 32.6937C23.0697 32.1181 22.4516 31.0483 22.4516 29.9032V28.6129C22.4516 27.7331 22.7994 26.9102 23.4316 26.2975C24.0633 25.6851 24.9031 25.355 25.7773 25.389C27.5008 25.4406 28.9032 26.96 28.9032 28.7755V29.9032C28.9032 31.0483 28.2845 32.1181 27.2884 32.6949L26.9659 32.8814L26.9684 34.9231L29.182 35.4762C28.6084 36.0631 28.2581 36.8573 28.2581 37.7245V38.2024L26.2457 38.6498L26.298 38.467L26.3226 37.2747L22.92 35.2898L24.3871 34.9231ZM17.2903 33.7742H17.7606L22.4006 36.4805L20.0593 45.8451L17.2903 44.9218V33.7742ZM22.5562 46.6774L21.2864 46.2543L23.5608 37.1575L25.0323 38.0156V38.1999L22.6104 46.6774H22.5562ZM26.9677 48.5348C26.9677 48.3445 27.0446 48.158 27.1794 48.0232L28.3135 46.8891C28.4483 46.7543 28.6348 46.6774 28.8251 46.6774C29.2239 46.6774 29.5484 47.0019 29.5484 47.4007C29.5484 47.591 29.4715 47.7775 29.3367 47.9123L28.2026 49.0464C28.0678 49.1812 27.8813 49.2581 27.691 49.2581C27.2922 49.2581 26.9677 48.9336 26.9677 48.5348ZM28.9032 50.4703C28.9032 50.28 28.9801 50.0935 29.1149 49.9587L30.249 48.8246C30.3838 48.6898 30.5703 48.6129 30.7606 48.6129C31.1594 48.6129 31.4839 48.9374 31.4839 49.3362C31.4839 49.5265 31.407 49.713 31.2722 49.8478L30.1381 50.9819C30.0033 51.1167 29.8168 51.1935 29.6265 51.1935C29.2277 51.1935 28.9032 50.8691 28.9032 50.4703ZM30.8387 52.4057C30.8387 52.2155 30.9156 52.029 31.0504 51.8942L32.1845 50.7601C32.3193 50.6253 32.5058 50.5484 32.6961 50.5484C33.0949 50.5484 33.4194 50.8729 33.4194 51.2717C33.4194 51.4619 33.3425 51.6484 33.2077 51.7833L32.0736 52.9173C31.9388 53.0522 31.7523 53.129 31.562 53.129C31.1632 53.129 30.8387 52.8046 30.8387 52.4057ZM33.4975 55.0645C33.0987 55.0645 32.7742 54.74 32.7742 54.3412C32.7742 54.151 32.8511 53.9645 32.9859 53.8296L34.12 52.6956C34.2548 52.5607 34.4413 52.4839 34.6316 52.4839C35.0304 52.4839 35.3548 52.8083 35.3548 53.2072C35.3548 53.3974 35.278 53.5839 35.1431 53.7188L34.0091 54.8528C33.8742 54.9877 33.6878 55.0645 33.4975 55.0645ZM36.6174 55.7097H36.498C36.3336 55.7097 36.1761 55.6498 36.0536 55.5411L35.5709 55.1155L36.0554 54.631C36.2284 54.4581 36.3626 54.2524 36.4618 54.0316L37.0484 54.5198C37.2018 54.6477 37.2903 54.8361 37.2903 55.0368C37.2903 55.4079 36.9885 55.7097 36.6174 55.7097ZM42.4031 49.9032H42.2916C42.1297 49.9032 41.9715 49.8459 41.8477 49.7419L38.3491 46.8264L37.5225 47.8181L40.92 50.6489C41.0728 50.7768 41.1613 50.9652 41.1613 51.1658C41.1613 51.5369 40.8595 51.8387 40.4884 51.8387H40.3476C40.191 51.8387 40.0379 51.7833 39.9173 51.6825L36.413 48.7625L35.5864 49.7542L38.9839 52.5853C39.1373 52.7123 39.2258 52.9006 39.2258 53.1013C39.2258 53.4724 38.924 53.7742 38.5529 53.7742C38.3053 53.7742 38.064 53.6863 37.8741 53.5285L36.4341 52.3283C36.1169 51.6799 35.4651 51.2279 34.7018 51.2008C34.6646 50.1483 33.8188 49.3025 32.7663 49.2653C32.7291 48.2128 31.8833 47.367 30.8308 47.3298C30.793 46.2528 29.911 45.3871 28.8251 45.3871C28.2949 45.3871 27.7761 45.6019 27.4012 45.9768L26.2671 47.1109C26.1994 47.1786 26.1433 47.2555 26.0863 47.3317L24.1045 46.1425L25.8419 40.062L30.1973 39.0936C31.3399 38.8381 32.5445 38.8936 33.6588 39.2502L34.6092 39.5542L31.3872 41.1652C30.651 41.5341 30.1935 42.2747 30.1935 43.0982V43.2257C30.1935 44.4175 31.1632 45.3871 32.3549 45.3871C32.7465 45.3871 33.1317 45.2806 33.4666 45.0787L35.869 43.6381C36.3516 43.3489 36.9992 43.4122 37.416 43.7871L42.8671 48.6929C43.013 48.8252 43.0968 49.013 43.0968 49.2095C43.0968 49.5923 42.7858 49.9032 42.4031 49.9032ZM54.7097 42.4076L43.8405 47.8427C43.8053 47.8052 43.7684 47.7696 43.7296 47.7349L38.2795 42.8291C37.8019 42.3982 37.1845 42.1613 36.5412 42.1613C36.0709 42.1613 35.6091 42.2892 35.2046 42.5318L32.8013 43.973C32.6665 44.0542 32.5124 44.0968 32.3549 44.0968C31.8742 44.0968 31.4839 43.7065 31.4839 43.2257V43.0982C31.4839 42.7658 31.6685 42.4678 31.9652 42.3194L35.564 40.52C36.1799 40.2116 36.911 40.1426 37.5748 40.3335L41.6291 41.4916L42.611 41.5161L54.7097 35.1483V42.4076Z" fill="#7057D6"/>
</g>
<defs>
<clipPath id="clip0">
</clipPath>
</defs>
</svg>
