<svg width="45" height="45" viewBox="0 0 45 45" fill="none" xmlns="http://www.w3.org/2000/svg">
<path d="M32.8214 11.2292C32.6137 11.0024 32.2861 10.9415 32.0147 11.0573L9.42111 20.7081C9.1708 20.8151 9.00627 21.0543 9.00018 21.3215C8.99408 21.5881 9.14736 21.8342 9.39298 21.9522L14.7878 24.541L16.1321 32.4108C16.1757 32.7095 16.4162 32.9496 16.7293 32.993C16.9543 33.0246 17.1779 32.9473 17.3326 32.7918L21.5916 28.636L27.6694 32.8723C27.8644 33.0077 28.1156 33.0374 28.3369 32.9519C28.5586 32.8663 28.7208 32.6765 28.7677 32.4483L32.9864 11.8202C33.0281 11.6157 32.9742 11.3966 32.8214 11.2292ZM15.3447 23.2791L11.372 21.3727L27.0666 14.6688L15.3447 23.2791ZM17.5449 25.3186L16.891 28.5088L16.1856 24.3786L24.8091 18.0443L17.7367 24.9687C17.6373 25.0656 17.5712 25.1919 17.5449 25.3186ZM17.9729 30.2263L18.7107 26.6281L20.4315 27.8273L17.9729 30.2263ZM27.6014 31.1383L19.3173 25.3648L31.1517 13.7787L27.6014 31.1383Z" fill="white"/>
<circle cx="22.5" cy="22.5" r="21.5" stroke="white" stroke-width="2"/>
</svg>
