<svg width="52" height="53" viewBox="0 0 52 53" fill="none" xmlns="http://www.w3.org/2000/svg">
<circle cx="26" cy="26.0168" r="26" fill="#0BCCC9" fill-opacity="0.2"/>
<path d="M35.6477 15.3693C32.8037 12.5253 29.0223 10.959 25.0002 10.959C20.9781 10.959 17.1967 12.5253 14.3527 15.3693C11.5086 18.2133 9.94238 21.9948 9.94238 26.0168C9.94238 30.0389 11.5086 33.8203 14.3527 36.6643C17.1967 39.5084 20.9781 41.0747 25.0002 41.0747C29.0223 41.0747 32.8037 39.5084 35.6477 36.6643C38.4918 33.8203 40.0581 30.0389 40.0581 26.0168C40.0581 21.9948 38.4918 18.2134 35.6477 15.3693ZM25.0002 39.3101C17.6703 39.3101 11.707 33.3468 11.707 26.0168C11.707 18.6869 17.6703 12.7236 25.0002 12.7236C32.3302 12.7236 38.2935 18.6869 38.2935 26.0168C38.2935 33.3468 32.3302 39.3101 25.0002 39.3101Z" fill="#39C0F8"/>
<path d="M32.1942 21.1851C31.8497 20.8406 31.291 20.8406 30.9465 21.1851L23.1553 28.9763L19.054 24.875C18.7095 24.5305 18.1508 24.5305 17.8062 24.875C17.4617 25.2195 17.4617 25.7782 17.8062 26.1228L22.5314 30.8479C22.7037 31.0202 22.9295 31.1063 23.1553 31.1063C23.381 31.1063 23.6069 31.0201 23.7791 30.8479L32.1942 22.4328C32.5388 22.0883 32.5388 21.5297 32.1942 21.1851Z" fill="#39C0F8"/>
</svg>
