<svg width="408" height="349" viewBox="0 0 408 349" fill="none" xmlns="http://www.w3.org/2000/svg"><path d="M280.885 16.735c2.051 8.198-2.734 21.347-8.203 32.448-4.615 9.222 10.083 24.591-1.88 41.669-11.964 17.078-10.938 26.129-21.535 26.129-8.887 0-9.912-3.587-13.501-14.858-3.931-11.442-3.76-34.838-1.026-42.352 2.735-7.514 9.913-18.786 9.229-29.203-.854-10.246 4.444-20.151 4.444-20.151s7.52-13.833 20.167-9.052c10.767 3.928 11.109 10.588 12.305 15.37z" fill="#5E3F1C"/><path d="M246.875 47.304s-9.058 2.562-13.844 25.275c-1.88 8.88-2.734 12.467-2.734 25.446h9.229s3.76-25.617 3.76-30.399c.342-14.174 3.589-20.322 3.589-20.322z" fill="#FCA70C"/><path d="M239.013 132.378l-8.716 1.196.171-36.205h9.229l-.684 35.009z" fill="#FCA70C"/><path d="M238.329 148.602l-.341-.342c-1.709-1.366-2.735-2.391-2.906-3.586-.171-.854-.171-1.537-.342-2.562-.171-1.024.684-3.586 1.368-3.586.683 0 2.221 2.049 2.563 2.562 0 0 .171 0 .171.17-.854.342-2.393 1.366-.854 4.782.341.512 1.538 1.537.341 2.562z" fill="#E2877C"/><path d="M231.493 133.403s-.683 4.44 0 10.588c.342 2.391 2.222 5.806 5.64 6.319.342 0 1.368-.171 1.538-.513.171-.341.171-.854-.683-1.537-1.709-1.366-2.735-2.391-2.906-3.586-.171-.854-.171-1.537-.341-2.562-.171-1.024.683-3.586 1.367-3.586.683 0 2.222 2.049 2.563 2.562 1.368 1.366 3.248.683 2.051-.854-3.076-3.757-2.734-7.514-2.734-7.514l-6.495.683z" fill="#F7A898"/><path d="M283.791 49.354c-4.101-1.879-14.014-6.49-14.014-6.49h-12.135s-7.178 3.928-11.28 5.807c0 0-5.127 20.493-2.05 33.3 2.905 12.468 3.93 29.374 3.93 29.374h30.593s-.684-17.077 3.247-29.031c5.469-16.224 1.709-32.96 1.709-32.96z" fill="#E6E7E8"/><path d="M269.777 42.864l-5.982 5.636-6.153-5.636V32.79h12.135v10.075z" fill="#F7A898"/><path d="M276.442 25.787c-1.026 4.44-7.349 12.979-12.989 12.979-4.786 0-12.647-7.002-12.989-11.784 0 0-1.197-8.368-1.367-11.1-.513-8.197 7.178-15.028 14.356-15.028s15.211 6.66 14.698 15.028c-.171 2.903-1.026 7.172-1.709 9.905z" fill="#F8B4A7"/><path d="M271.315 42.01s4.614-9.051 4.614-12.125V19.809c0-4.27-3.418-7.855-3.418-7.855-.513 0-1.196 5.294-9.4 7.514-4.956 1.366-10.938-1.366-10.938 8.538 0 4.611.684 9.905 3.076 13.492 0 0-9.741-5.465-9.741-21.518.17-4.099 4.614-19.64 16.919-19.64 8.888 0 18.629 5.978 18.629 19.81 0 7.857-2.905 19.64-9.741 21.86z" fill="#5E3F1C"/><path d="M279.86 202.368l5.298 71.213c.171 1.879-.683 3.074-2.221 3.586-1.368.513-3.76-.341-4.444-1.878-4.444-12.637-9.742-47.305-12.989-72.921h14.356zM261.573 202.709s-2.051 49.696-2.905 72.922c0 2.049-4.102 4.952-6.324 0 0 0-4.443-34.497-4.443-43.377 0-9.393-.855-29.545-.855-29.545h14.527z" fill="#F8B4A7"/><path d="M279.006 111.345h-30.764c-1.367 1.537-10.767 13.491-8.203 39.62 2.393 23.226 6.665 61.65 6.665 61.65s10.938 2.562 16.749 2.562c6.153 0 17.433-2.562 17.433-2.562s3.76-38.254 6.152-61.65c2.735-26.129-6.836-38.083-8.032-39.62z" fill="#555BE4"/><path d="M258.838 274.437s.171 1.537 0 2.391c-1.196 3.415-4.614 11.271-6.494 14.345-1.367 2.22-6.665 5.465-9.058 4.44-2.051-.854-2.564-4.782-1.196-7.855 1.538-3.074 10.254-13.321 10.254-13.321h6.494z" fill="#F8B4A7"/><path d="M258.839 274.606c0 .342.17 1.537-.171 2.221-.855 2.561-3.248 7.855-4.786 11.442-1.196 2.561-5.64 3.415-7.349 2.561-2.051-.854-2.734-4.782-1.196-7.856v-.17c-1.538 1.878-2.735 3.757-3.247 4.781-1.539 3.074-.855 7.173 1.367 8.027.342.171.513.171.854.171 2.564.683 7.179-2.05 9.4-5.294 1.88-3.074 4.615-9.393 5.64-12.809.513-1.537-.512-3.074-.512-3.074z" fill="#622A4E"/><path d="M278.151 274.266s-.171 1.537 0 2.391c1.196 3.415 4.614 11.271 6.494 14.345 1.368 2.22 6.666 5.465 9.059 4.44 2.05-.854 2.734-4.782 1.196-7.856s-9.742-13.32-9.742-13.32h-7.007z" fill="#F8B4A7"/><path d="M295.071 287.586c-.513-1.025-1.709-2.903-3.247-4.952.171.341.512.683.512 1.024 1.539 3.074 1.026 7.002-1.196 7.856-1.88.683-6.323 0-7.52-2.562-1.538-3.244-4.273-9.392-5.298-12.295-.342-.854 0-2.391 0-2.391s-.854 2.22-.342 3.415c1.367 3.416 3.931 9.222 5.64 12.467 1.538 2.903 6.324 5.806 9.058 5.465.513 0 1.026 0 1.368-.171 1.88-.854 2.392-4.782 1.025-7.856z" fill="#622A4E"/><path d="M269.777 42.863l13.33 5.636s1.368 1.024 1.88 3.586c.342 1.879 2.735 25.104-4.443 49.696-2.051 7.173 5.127 13.15 6.152 21.688 0 0-1.709 1.879-5.981 3.074-1.88.513-7.349-.17-7.349-.17l-3.589-83.51zM257.642 42.864l-11.28 4.61s-1.367 1.025-1.88 3.587c-.341 1.879-3.589 22.884 1.368 49.013 1.538 8.368-4.444 17.077-4.957 23.396 0 0 1.88 1.878 6.153 2.22 1.709.171 7.178-.683 7.178-.683l3.418-82.143z" fill="#FCA70C"/><path d="M269.606 42.863l6.153 7.514-2.906 2.904 6.153 11.783-7.007 34.838-2.393-57.039zM257.984 43.034l-6.665 7.172 3.247 3.245-4.615 11.783 5.469 34.839 2.564-57.04z" fill="#F98011"/><path d="M263.795 48.5s6.323-3.075 9.912-2.05c0 0-.341-3.928-4.101-4.611v.854l-5.811 5.806zM263.795 48.5s-6.324-3.074-9.913-2.05c0 0 0-3.927 3.76-4.61v.854l6.153 5.806z" fill="#C8CACB"/><path d="M263.795 48.5c.171 5.294.342 10.417.342 15.71l.17 15.712-.17 15.712c0 5.294-.171 10.417-.342 15.711-.171-5.294-.342-10.417-.342-15.711l-.171-15.712.171-15.711c0-5.294.171-10.417.342-15.712z" fill="#C8CACB"/><path d="M275.277 60.01l-26.409 16.424 27.996 44.947 26.408-16.424-27.995-44.946z" fill="#C0373F"/><path d="M303.274 82.654c1.197 2.904-.171 6.148-3.076 7.344-2.905 1.195-6.153-.171-7.349-3.074L285.5 71.895c-.513-.853-3.418-24.079-2.564-23.396 10.255 8.197 20.338 34.155 20.338 34.155z" fill="#FCA70C"/><path d="M285.5 99.903l-5.469-5.806-7.862 8.197c-.684-.17-1.709-.17-2.905.342-1.88.854-2.735 1.537-4.786 2.732-1.196.683-.683 1.879.684 1.537 0 0 1.538-.683 1.709-.17 0 .17-.171.512-.342.683-.342.683-.342 1.024-.171 1.537.684 1.707 3.589 6.318 6.495 3.757.854-.683 2.222-2.22 2.905-3.074.513-.683 1.196-1.708 1.538-3.074.684-2.562 8.204-6.66 8.204-6.66z" fill="#F7A898"/><path d="M282.253 103.831c-2.222 2.22-8.546-4.44-6.324-6.66l18.287-16.395a5.677 5.677 0 0 1 8.033 0 5.666 5.666 0 0 1 0 8.027l-19.996 15.028z" fill="#FCA70C"/><path d="M114.805 158.18s-5.085 12.445 6.137 18.405c1.578.876 4.559.876 3.332-4.558-1.228-5.433-1.754-8.063-.176-7.011 1.754 1.052 2.806 2.279 2.28-.175-.526-2.454-2.455-6.486-2.455-6.486l-9.118-.175z" fill="#F8A899"/><path d="M123.572 118.567c2.104-11.043 4.91-19.631 8.767-26.117l.702-28.395c-8.066 5.96-17.009 25.416-24.374 46.8l-.526 1.227v1.402c0 .876-1.578 24.714 4.209 44.871h14.203c-4.384-15.249-4.384-35.757-2.981-39.788z" fill="#FCA70C"/><path d="M166.532 297.176s-1.227 1.577-1.227 6.66c0 2.279 2.981 2.805 5.786 2.805 3.682 0 5.261 10.867 16.307 10.867 6.313 0 7.54-4.382 4.559-7.186-5.961-5.609-12.274-9.991-16.307-13.146h-9.118z" fill="#492B32"/><path d="M166.532 299.455s.877 2.278 4.559 2.278c2.981 0 4.559-2.278 4.559-2.278v-7.538h-9.293v7.538h.175z" fill="#C79C81"/><path d="M151.452 297.176s1.228 1.577 1.228 6.66c0 2.279-2.981 2.805-5.787 2.805-3.682 0-5.26 10.867-16.307 10.867-6.312 0-7.54-4.382-4.559-7.186 5.962-5.609 12.274-9.991 16.307-13.146h9.118z" fill="#492B32"/><path d="M151.453 299.455s-.877 2.278-4.56 2.278c-2.98 0-4.559-2.278-4.559-2.278v-7.538h9.294v7.538h-.175z" fill="#C79C81"/><path d="M185.294 153.272h-52.253l5.962 142.327s4.559 2.454 8.241 2.454c4.91 0 7.189-2.278 7.189-2.278l5.085-125.676 9.82 58.894-4.033 65.555s.701 2.979 6.137 2.979c4.208 0 8.066-1.051 8.066-1.051l12.449-67.483-6.663-75.721z" fill="#310072"/><path d="M186.522 160.284v-93.95c0-2.98-2.631-4.732-5.261-5.959-4.559-1.753-14.729-5.96-14.729-5.96h-13.677s-10.871 3.681-14.729 5.96c-2.63 1.402-5.261 2.98-5.261 5.96v93.774h53.657v.175z" fill="#DAD8D5"/><path d="M186.521 160.284v-93.95c0-2.98-2.63-4.732-5.26-5.959-4.559-1.753-14.729-5.96-14.729-5.96l-6.839 37.51-6.838-37.51s-10.872 3.681-14.729 5.96c-2.63 1.402-5.611 3.506-5.611 4.908l.35 95.001h53.656z" fill="#007FFF"/><path d="M166.532 54.591l-7.014 7.362-6.663-7.362v-6.66h13.677v6.66z" fill="#F8A899"/><path d="M174.773 40.043c0 2.98-7.54 11.744-15.08 11.744-7.364 0-15.079-8.239-15.079-11.744V28.825c0-8.413 6.838-15.074 15.079-15.074 8.417 0 15.08 6.836 15.08 15.074v11.218z" fill="#F8A899"/><path d="M177.312 35.257c.556-1.652.04-3.316-1.154-3.717-1.193-.401-2.611.612-3.167 2.264-.556 1.651-.039 3.315 1.154 3.717 1.194.4 2.612-.613 3.167-2.264zM145.081 37.41c1.193-.4 1.71-2.065 1.154-3.716-.555-1.652-1.973-2.665-3.166-2.264-1.193.401-1.71 2.065-1.155 3.717.556 1.651 1.974 2.665 3.167 2.264z" fill="#F8A899"/><path d="M159.518 61.952l7.014-7.186 3.507 1.402s4.384 4.557 4.734 9.64l-5.085-2.98-10.17-.876zM159.518 61.952l-6.663-7.186-3.858 1.227s-4.208 4.732-4.734 9.815l5.085-2.98 10.17-.876z" fill="#ECE5E5"/><path d="M144.438 34.434s1.578-5.785 5.261-8.414l2.104-3.155s2.279-.7 7.715 1.578c5.436 2.103 6.839 5.433 12.099 4.206 0 0 2.279 4.558 2.63 6.31 0 0 1.228-3.856 1.578-7.537.351-3.68 1.052-12.97-10.345-15.95-11.924-3.155-16.833 4.382-16.833 4.382s-1.053-1.227-4.033 3.506c-2.105 3.33-2.28 8.939 0 15.6" fill="#310072"/><path d="M174.773 35.485c0-2.279-2.454-5.258-2.454-5.258s1.052 6.835-1.579 10.166c-2.279 2.98-9.293 7.361-11.397 7.361-2.104 0-9.118-4.557-11.398-7.361-2.455-3.506-1.402-11.043-1.402-11.043s-2.455 3.856-2.455 6.135c0 0-.877 4.732 1.052 7.712 2.104 3.155 9.118 7.888 9.118 7.888s2.981 1.752 5.085 1.752c2.104-.175 5.085-1.752 5.085-1.752s7.189-4.382 9.293-7.537c2.105-2.98 1.052-8.063 1.052-8.063z" fill="#310072"/><path d="M168.285 44.775l-1.578-2.279c-.526-.35-3.156-2.103-6.663-2.103-4.734 0-7.54 1.051-8.241 1.753-.877.876-1.754 2.453-1.754 2.453l-2.805-1.402s1.052-1.928 2.279-3.33c1.578-1.578 5.787-2.63 10.521-2.63 5.26 0 8.767 2.805 8.943 2.98l.175.176 1.753 2.804-2.63 1.578z" fill="#310072"/><path d="M183.541 91.224h-36.999v56.965h36.999V91.224z" fill="#E6E7E8"/><path d="M165.831 140.126c26.302-1.928 48.921-23.487 48.921-23.487 0-30.148-24.022-50.48-30.685-54.512 0 0 2.455 2.63 2.455 4.382V92.45c5.435 5.784 7.364 10.517 9.994 18.93-9.118 7.362-17.184 13.146-34.718 16.126l4.033 12.62z" fill="#FCA70C"/><path d="M165.305 138.724s-11.047 8.414-19.814-.701c-1.228-1.227-2.105-4.206 3.506-4.557 5.612-.35 8.242-.526 6.839-1.928-1.578-1.227-2.981-1.928-.351-2.279 2.455-.175 7.189.351 7.189.351l2.631 9.114z" fill="#F8A899"/><path d="M126.553 177.46c0 1.578-1.403 2.98-2.981 2.98-1.578 0-2.981-1.402-2.981-2.98v-10.867c0-1.577 1.403-2.98 2.981-2.98 1.578 0 2.981 1.403 2.981 2.98v10.867z" fill="#492B32"/><path d="M120.591 174.481v2.804c0 1.578 1.403 2.98 2.981 2.98 1.578 0 2.981-1.402 2.981-2.98v-2.804h-5.962z" fill="#71787D"/><path d="M133.041 252.479c0 2.454-1.929 4.382-4.384 4.382h-10.521c-2.455 0-4.384-1.928-4.384-4.382v-71.864c0-2.454 1.929-4.382 4.384-4.382h10.521c2.455 0 4.384 1.928 4.384 4.382v71.864z" fill="#492B32"/><path d="M126.553 176.41h-5.962v80.453h5.962V176.41z" fill="#180001"/><path d="M20.576 99.295s-8.939 2.579-13.661 25.443c-1.855 8.939-2.699 9.627-2.699 22.692h9.108l4.722-24.239c.169-14.441 2.53-23.896 2.53-23.896zM12.818 185.766l-8.77 1.032.169-39.368h9.107l-.506 38.336z" fill="#555BE4"/><path d="M11.975 202.098c0-.172-.169-.172-.337-.344-1.687-1.375-2.699-2.407-2.867-3.61-.17-.86-.17-1.547-.338-2.579-.168-1.031.675-3.61 1.35-3.61.674 0 2.192 2.063 2.53 2.579.168.172.168.172.337.172-.844.172-2.362 1.375-.844 4.813.169.516 1.518 1.375.169 2.579z" fill="#E3887B"/><path d="M5.397 186.626s-.674 4.47 0 10.659c.338 2.406 2.024 5.844 5.566 6.36.337 0 1.35-.172 1.518-.516.168-.515.168-.859-.675-1.547-1.686-1.375-2.698-2.406-2.867-3.61-.169-.859-.169-1.547-.337-2.578-.169-1.032.674-3.611 1.349-3.611.675 0 2.192 2.063 2.53 2.579 1.35 1.375 3.204.688 2.024-.859-3.036-3.783-2.699-7.565-2.699-7.565l-6.409.688z" fill="#F8A899"/><path d="M42.84 51.505c-2.7-1.72-6.747-4.298-15.18-.86-7.084 2.922-13.155 14.956-4.048 42.977 2.53 7.908.844 23.208-3.035 31.46 0 0 29.009-18.395 31.032-36.789 1.012-11.862-.674-31.631-8.77-36.789z" fill="#310072"/><path d="M59.368 100.155c-4.048-1.89-13.83-6.532-13.83-6.532H33.563s-7.083 3.953-11.131 5.844c0 0-5.06 20.63-2.024 33.523 2.867 12.549 3.88 29.568 3.88 29.568h30.189s-.675-17.191 3.204-29.224c5.397-16.332 1.687-33.179 1.687-33.179z" fill="#ECE5E5"/><path d="M39.635 99.295c.168 5.33.337 10.487.337 15.816l.169 15.816-.17 15.815c0 5.33-.168 10.487-.336 15.816-.169-5.329-.338-10.486-.338-15.816l-.168-15.815.168-15.816c0-5.329.169-10.486.338-15.816z" fill="#DAD8D5"/><path d="M45.369 93.623l-5.734 5.673-6.072-5.673V83.48h11.806v10.143z" fill="#F8A899"/><path d="M52.115 76.431c-1.012 4.47-7.252 13.066-12.818 13.066-4.722 0-12.48-7.049-12.818-11.862 0 0-1.18-8.424-1.349-11.174-.506-8.252 7.084-15.128 14.167-15.128 7.084 0 15.01 6.704 14.505 15.128-.337 2.922-1.18 7.22-1.687 9.97zM55.489 254.187l5.228 71.686c.169 1.891-.675 3.094-2.193 3.61-1.349.516-3.71-.344-4.385-1.891-4.385-12.721-9.613-47.619-12.818-73.405H55.49zM37.442 254.53s-2.024 50.026-2.867 73.405c0 2.063-4.048 4.986-6.24 0 0 0-4.386-34.726-4.386-43.665 0-9.455-.843-29.74-.843-29.74h14.336z" fill="#F9B4A8"/><path d="M54.477 162.558h-30.19c-1.35 1.547-10.794 13.581-8.095 39.883 2.36 23.38 6.577 62.06 6.577 62.06s10.794 2.578 16.529 2.578c6.071 0 17.203-2.578 17.203-2.578s3.71-38.508 6.071-62.06c2.699-26.302-6.746-38.336-8.095-39.883z" fill="#007FFF"/><path d="M34.744 326.732s.168 1.548 0 2.407c-1.18 3.438-4.554 11.346-6.41 14.441-1.349 2.234-6.577 5.501-8.938 4.469-2.024-.859-2.699-4.813-1.18-7.908 1.517-3.094 10.119-13.409 10.119-13.409h6.409z" fill="#F9B4A8"/><path d="M34.743 326.732c0 .344.17 1.548-.168 2.235-.843 2.579-3.205 7.908-4.723 11.518-1.18 2.579-5.565 3.438-7.252 2.579-2.024-.86-2.53-4.814-1.18-7.908v-.172c-1.518 1.891-2.699 3.782-3.205 4.814-1.518 3.094-.843 7.22 1.35 8.079.337.172.505.172.843.172 2.53.688 7.083-2.063 9.276-5.329 1.855-3.094 4.553-9.455 5.565-12.893.506-1.375-.506-3.095-.506-3.095z" fill="#493151"/><path d="M53.802 326.561s-.169 1.547 0 2.406c1.18 3.438 4.554 11.346 6.409 14.441 1.35 2.235 6.578 5.501 8.939 4.469 2.024-.859 2.698-4.813 1.18-7.907-1.517-3.095-9.613-13.409-9.613-13.409h-6.915z" fill="#F9B4A8"/><path d="M70.33 339.97c-.506-1.032-1.686-2.923-3.204-4.986.168.344.506.688.506 1.032 1.518 3.094 1.012 7.048-1.18 7.907-1.856.688-6.241 0-7.422-2.578-1.518-3.266-4.216-9.455-5.228-12.378-.337-.859 0-2.406 0-2.406s-.843 2.234-.337 3.438c1.349 3.438 3.879 9.283 5.397 12.549 1.518 2.923 6.24 5.845 8.938 5.501.507 0 1.012 0 1.35-.172 2.192-.859 2.698-4.813 1.18-7.907z" fill="#493151"/><path d="M45.37 93.622l13.155 5.673s1.349 1.032 1.855 3.61c.337 1.891 2.698 25.271-4.385 50.026-2.024 7.22 5.06 13.237 6.071 21.832l-22.6 2.923v-42.978l5.903-41.086zM33.394 93.623L20.24 99.296s-1.35 1.032-1.855 3.61c-.337 1.891-2.699 25.271 4.385 50.026 2.024 7.22-5.06 13.237-6.072 21.832l22.6 2.923v-42.978l-5.903-41.086z" fill="#555BE4"/><path d="M39.635 99.294s6.24-3.094 9.782-2.063c0 0-.338-3.953-4.048-4.641v1.031l-5.734 5.673zM39.635 99.296s-6.24-3.094-9.782-2.063c0 0 0-3.954 3.71-4.641v1.031l6.072 5.673z" fill="#DAD8D5"/><path opacity=".7" d="M39.298 51.16c-4.386.688-8.265 2.923-10.963 6.19-1.35 1.718-2.193 3.61-2.867 5.672a10.186 10.186 0 0 0-.506 3.267c-.169 1.203-.169 2.234.168 3.266-.674-.86-.843-2.235-1.012-3.266-.168-1.204-.168-2.407 0-3.439.338-2.406 1.35-4.641 2.868-6.532 1.517-1.891 3.373-3.438 5.565-4.298 2.193-.86 4.554-1.203 6.747-.86z" fill="#391617"/><path d="M39.466 51.16c-8.601 0-15.179 7.22-14.673 15.3 0 .688 0 1.72.675 2.923.674 0 2.36.172 3.035 2.407 0 0-2.36-9.283 2.362-11.002 2.867-1.032 5.903 2.75 8.601 2.75 5.734 0 5.228-4.298 8.264-3.438 5.06 1.203 2.53 11.69 2.53 11.69.675-2.407 2.361-2.407 3.036-2.407.169-1.203.169-2.235.337-2.922.675-8.08-5.228-15.3-14.167-15.3z" fill="#310072"/><path d="M54.141 73.125c.595-1.8.218-3.553-.841-3.917-1.06-.364-2.4.8-2.995 2.6-.595 1.8-.218 3.553.841 3.917 1.06.364 2.4-.8 2.995-2.6zM27.586 75.757c1.06-.364 1.436-2.118.842-3.917-.595-1.8-1.936-2.964-2.995-2.6-1.06.364-1.436 2.117-.841 3.917.594 1.8 1.935 2.963 2.994 2.6z" fill="#F9B4A8"/><path d="M52.452 85.372h-1.686l.843-5.501.843-5.33 1.012 5.33.844 5.5h-1.856zM25.805 85.372H23.95l1.011-5.501.844-5.33.843 5.33 1.012 5.5h-1.855z" fill="#FCA70C"/><path d="M12.819 203.815c0 1.375-1.012 2.407-2.362 2.407-1.349 0-2.36-1.032-2.36-2.407v-8.595c0-1.376 1.011-2.407 2.36-2.407 1.35 0 2.362 1.031 2.362 2.407v8.595z" fill="#F9B7B3"/><path d="M8.265 200.205v3.61c0 1.375 1.012 2.407 2.361 2.407 1.35 0 2.361-1.032 2.361-2.407v-3.61H8.265z" fill="#F6958F"/><path d="M21.083 228.227c.506 4.985-6.072 6.017-9.951 6.017C3.71 234.244 0 232.353 0 228.227c0-4.642 2.024-20.801 2.024-20.801 0-2.579 1.687-4.814 3.88-4.814h9.276c2.192 0 3.879 2.063 3.879 4.814 0 0 1.518 16.159 2.024 20.801z" fill="#C0373F"/><path d="M58.693 99.64s19.733 17.706 30.864 27.161l-9.95 7.908-17.71-12.034c0-.172-7.42-18.05-3.204-23.036z" fill="#555BE4"/><path d="M89.557 126.801s5.397 7.908 1.18 15.3l-11.13-7.564 9.95-7.736z" fill="#555BE4"/><path d="M65.27 166.513c-.337 0-8.432.343-17.54 4.125-.674.172-1.012 1.032-.674 1.719.168.516.674.86 1.18.86.169 0 .338 0 .506-.172 2.361-1.031 3.88-1.375 6.072-1.891-1.687.86-2.53 1.032-4.385 2.407-.506.344-.675 1.203-.337 1.719.168.344.674.516 1.011.516.17 0 .506 0 .675-.172 2.193-1.376 3.036-1.719 4.891-2.579-1.35 1.203-1.855 1.547-3.204 3.438-.338.516-.338 1.376.337 1.719.169.172.506.172.675.172.337 0 .843-.172 1.012-.515 1.18-1.719 1.349-1.719 2.698-2.751-.675 1.032-.843 1.032-1.518 2.407-.337.687 0 1.375.675 1.719.168 0 .337.172.506.172.506 0 .843-.344 1.18-.688.506-1.031.506-.859 1.012-1.719.506-.859 2.867-2.751 4.554-3.438 1.687-.86 2.361-2.235 2.361-2.235.844-2.235-.843-4.985-1.686-4.813z" fill="#F8A899"/><path d="M62.74 166.512s-2.192-.688-3.71-.516l.338 1.203s2.53-.172 3.373-.516v-.171z" fill="#F8A899"/><path d="M79.438 134.538l-17.372 30.771s1.18 6.189 5.734 7.564l22.938-30.771-11.3-7.564z" fill="#555BE4"/><path d="M387.157 183.558l4.554-92.062c0-2.79-2.452-4.533-5.08-5.58-4.379-1.743-16.815-5.579-16.815-5.579l-6.48 8.02-6.481-8.02s-11.385 3.488-15.238 5.58c-2.453 1.395-5.43 3.313-5.43 4.533l4.554 93.108h46.416z" fill="#E6E7E8"/><path d="M362.985 92.542c.484 0 .876-.39.876-.871a.874.874 0 0 0-.876-.872.874.874 0 0 0-.876.872c0 .481.392.871.876.871zM362.985 108.932c.484 0 .876-.39.876-.872a.874.874 0 0 0-.876-.872.874.874 0 0 0-.876.872c0 .482.392.872.876.872zM362.985 125.497a.874.874 0 0 0 .876-.872.874.874 0 0 0-.876-.872.874.874 0 0 0-.876.872c0 .481.392.872.876.872zM362.985 141.886c.484 0 .876-.39.876-.872a.873.873 0 0 0-.876-.871.873.873 0 0 0-.876.871c0 .482.392.872.876.872zM362.985 158.45c.484 0 .876-.39.876-.872a.873.873 0 0 0-.876-.871.873.873 0 0 0-.876.871c0 .482.392.872.876.872zM362.985 175.015a.874.874 0 0 0 .876-.872.874.874 0 0 0-.876-.872.874.874 0 0 0-.876.872c0 .481.392.872.876.872z" fill="#BCBEC0"/><path d="M339.69 179.373l2.627 76.718 7.532 63.641s1.226.523 4.729.523 3.853-.349 3.853-.349l6.131-114.205 4.379 114.205s.35.349 3.853.349 4.729-.523 4.729-.523l7.532-63.641 1.751-76.718H339.69z" fill="#34439E"/><path d="M387.157 185.476l.175-6.103H339.69l.35 6.103h47.117z" fill="#040000"/><path d="M369.115 179.548H357.03v6.102h12.085v-6.102z" fill="#BCBEC0"/><path d="M386.281 85.22c-3.153-1.221-11.035-3.662-15.939-5.231 0 0-.526 78.461-.526 100.605 0 0 2.803 1.918 8.408 4.01 2.627.872 11.56.872 11.56.872l1.752-94.328c.175-2.964-2.453-4.708-5.255-5.928zM341.441 85.22c3.153-1.221 11.035-3.662 15.939-5.231 0 0 .526 78.461.526 100.605 0 0-2.803 1.918-8.407 4.01-2.628.872-11.561.872-11.561.872l-1.751-94.328c0-2.964 2.627-4.708 5.254-5.928z" fill="#34439E"/><path d="M370.342 80.163l-7.181 8.02-6.481-8.02v-6.626h13.662v6.626z" fill="#F8A899"/><path d="M378.574 65.691c0 2.965-7.532 11.683-15.064 11.683-7.356 0-15.063-8.195-15.063-11.683V54.532c0-8.369 6.831-14.994 15.063-14.994 8.408 0 15.064 6.8 15.064 14.995V65.69z" fill="#F8B4A7"/><path d="M381.267 60.838c.556-1.643.04-3.298-1.152-3.698-1.192-.4-2.608.609-3.164 2.251-.556 1.643-.04 3.299 1.152 3.698 1.192.4 2.608-.608 3.164-2.251zM348.932 63.101c1.192-.4 1.707-2.055 1.152-3.697-.556-1.643-1.972-2.65-3.164-2.251-1.192.4-1.708 2.055-1.152 3.697.556 1.643 1.972 2.65 3.164 2.251z" fill="#F8A899"/><path d="M350.024 319.907c-.526 1.22-1.051 3.836-1.752 5.405-1.751 4.01-4.379 5.928-6.656 9.938-1.401 2.267-.875 7.846 5.605 8.544 6.306.697 8.933-4.01 9.284-6.626.875-5.928.7-10.287 2.101-16.041.526-2.266-2.101-3.138-4.554-3.138-1.751.174-3.328.523-4.028 1.918zM377.698 319.907c.525 1.22 1.051 3.836 1.751 5.405 1.752 4.01 4.379 5.928 6.656 9.938 1.401 2.267.876 7.846-5.605 8.544-6.305.697-8.933-4.01-9.283-6.626-.876-5.928-.701-10.287-2.102-16.041-.525-2.266 2.102-3.138 4.554-3.138 1.752.174 3.328.523 4.029 1.918z" fill="#040000"/><path d="M338.464 86.962s-18.917 12.903-18.917 63.467h15.063s2.102-26.851 2.102-32.256c0-16.041 1.752-31.21 1.752-31.21zM334.435 197.506H323.05l-3.503-47.077h15.063l-.175 47.077z" fill="#34439E"/><path d="M330.757 218.604c-.175-.174-.175-.349-.351-.349-1.576-1.743-2.802-3.138-2.802-4.533v-2.964c0-1.046 1.226-3.836 1.927-3.836.7 0 2.102 2.615 2.627 3.138l.35.349c-1.051.174-2.977 1.221-1.576 5.231.175.697 1.401 1.918-.175 2.964z" fill="#E3887B"/><path d="M325.327 200.645s-1.401 4.882-1.401 11.856c0 2.616 1.576 6.8 5.43 7.847.35.174 1.576 0 1.751-.349.175-.523.175-.872-.525-1.744-1.577-1.743-2.803-3.138-2.803-4.533v-2.964c0-1.046 1.226-3.836 1.927-3.836.701 0 2.102 2.615 2.627 3.138 1.401 1.57 3.503 1.221 2.452-.697-2.977-4.533-2.101-8.718-2.101-8.718h-7.357z" fill="#F8A899"/><path d="M333.734 197.506h-9.808v4.533h9.808v-4.533z" fill="#E6E7E8"/><path d="M389.609 87.137S408 99.865 408 150.43h-14.888s-2.102-26.851-2.102-32.256c-.175-16.041-1.401-31.036-1.401-31.036zM393.112 197.507h11.385L408 150.43h-14.888v47.077z" fill="#34439E"/><path d="M396.79 218.605c.176-.174.176-.349.351-.349 1.576-1.743 2.802-3.138 2.802-4.533v-2.964c0-1.046-1.226-3.836-1.927-3.836-.7 0-2.101 2.615-2.627 3.138l-.35.349c1.051.174 2.977 1.221 1.576 5.231 0 .697-1.401 1.918.175 2.964z" fill="#E3887B"/><path d="M402.395 200.646s1.401 4.882 1.401 11.856c0 2.616-1.576 6.8-5.43 7.847-.35.174-1.576 0-1.751-.349-.175-.523-.175-.872.525-1.744 1.577-1.743 2.803-3.138 2.803-4.533v-2.964c0-1.046-1.226-3.836-1.927-3.836-.701 0-2.102 2.615-2.627 3.138-1.401 1.57-3.503 1.221-2.452-.697 2.802-4.533 2.101-8.718 2.101-8.718h7.357z" fill="#F8A899"/><path d="M403.796 197.507h-9.808v4.534h9.808v-4.534z" fill="#E6E7E8"/><path d="M363.161 88.184s1.226-2.267 2.803-4.708c.875-1.395 3.152-2.615 4.378-3.487 0 0 .876.174 1.402.349.525.174 2.102.871 2.102.871s-1.227 5.057-1.577 5.928c.175.175-4.379-3.487-9.108 1.047z" fill="#D1D3D4"/><path d="M363.161 88.184s-1.226-2.267-2.803-4.708c-.876-1.395-2.452-2.615-3.678-3.487 0 0-1.752.174-2.277.174-.526.175-2.102.872-2.102.872s1.226 5.056 1.576 5.928c0 .349 4.554-3.313 9.284 1.22z" fill="#D1D3D4"/><path d="M348.973 60.46h1.751c.176-1.743 1.577-6.625 4.554-8.717h15.764s5.08 1.569 5.08 8.718h1.927c.875-2.093 1.05-6.452.875-10.462-.175-2.79-.875-4.882-4.028-5.754 0 0 3.678-6.451-5.78-6.451h-10.334c-3.328 0-11.035 3.662-11.035 15.518.175 2.092 1.226 7.149 1.226 7.149z" fill="#2C2825"/><path d="M333.734 219.127c0 .872-1.401 1.744-2.978 1.744-1.576 0-2.977-.698-2.977-1.744v-6.277c0-.872 1.401-1.744 2.977-1.744 1.577 0 2.978.698 2.978 1.744v6.277z" fill="#492B32"/><path d="M327.779 217.384v1.569c0 .872 1.401 1.744 2.977 1.744 1.577 0 2.978-.698 2.978-1.744v-1.569h-5.955z" fill="#71787D"/><path d="M340.215 261.67c0 1.395-1.927 2.441-4.379 2.441h-10.509c-2.452 0-4.379-1.046-4.379-2.441v-40.625c0-1.395 1.927-2.441 4.379-2.441h10.509c2.452 0 4.379 1.046 4.379 2.441v40.625z" fill="#492B32"/><path d="M333.734 218.43h-5.955v45.507h5.955V218.43z" fill="#180001"/></svg>