<svg width="1920" height="1421" viewBox="0 0 1920 1421" fill="none" xmlns="http://www.w3.org/2000/svg"><path d="M-1 0h1920v1080H-1V0z" fill="#7057D6"/><path fill="url(#a)" d="M0 0h1922v498H0z"/><path opacity=".2" d="M695.98-38c-73.883 0-52.207 23.307-35.848 114.341C702.57 312.504 1003.33 124.073 1113.98 278c42.14 58.743 37.53 176.341 83.65 232.767 15.63 19.134 39.31 30.748 64.67 37.193 21.91 5.572 63.71-2.853 81.14 6.008 40.08 20.409 1.96 82.441 42.15 104.361 120.02 65.288-68.84 395.451 518.39 369.671 0 0 44.74-1042.054 18.02-1052-26.72-9.946-1152.137-14-1226.02-14z" fill="url(#b)"/><path opacity=".2" d="M482-64c-85.161 0 48.542 281.95 67.398 386.849 48.916 272.13 395.588 55.001 523.122 232.371 48.58 67.689 43.26 203.198 96.43 268.218 18.01 22.047 45.3 35.43 74.54 42.856 25.26 6.421 73.43-3.287 93.53 6.924 297.43 151.432 52.4 572.282 646.1 546.222 0 0 13.48-1425.886-17.32-1437.346C1935.01-29.367 567.161-64 482-64z" fill="url(#c)"/><path d="M1250 867c-332-112-514 16-762 0C2.97 835.708 0 609 0 667v495l1922-18V699c-166-87-320.72 286.505-672 168z" fill="#fff"/><defs><linearGradient id="a" x1="961" x2="961" y2="498" gradientUnits="userSpaceOnUse"><stop stop-color="#3E26A3"/><stop offset="1" stop-color="#7057D6" stop-opacity="0"/></linearGradient><linearGradient id="b" x1="1499.52" y1="5.566" x2="1247.81" y2="870.178" gradientUnits="userSpaceOnUse"><stop stop-color="#C5B3FF"/><stop offset="1" stop-color="#AA90FA" stop-opacity="0"/></linearGradient><linearGradient id="c" x1="1516.92" y1="241.295" x2="1226.95" y2="1237.63" gradientUnits="userSpaceOnUse"><stop stop-color="#C5B3FF"/><stop offset="1" stop-color="#AA90FA" stop-opacity="0"/></linearGradient></defs></svg>