<svg xmlns="http://www.w3.org/2000/svg" viewBox="0 0 408.98 167.49"><defs><style>.cls-1{fill:#fff;stroke:#212d3e;stroke-miterlimit:10;stroke-width:4px}.cls-2{fill:#212d3e}</style></defs><title>Ресурс 2</title><g id="Слой_2" data-name="Слой 2"><g id="Layer_1" data-name="Layer 1"><path class="cls-1" d="M2 2h404.98v163.49H2z"/><path class="cls-2" d="M168 56.22h-1.11c-3.33 0-4.92-1.35-4.92-5V38.34c0-1.44.48-1.44 2.7-1.44h8.73c1 0 1 .87 1 2.61h-9.72v5.61h2.94c4.38 0 7.23 1.35 7.23 5.22-.03 4.08-3.42 5.88-6.85 5.88zm-.6-8.55h-2.73V51c0 1.74.69 2.64 2.49 2.64h.72c2 0 4.08-.72 4.08-3.06s-1.85-2.91-4.58-2.91zM180.32 56.22v-18c0-1.44.47-1.44 2.72-1.44v8.82h4.83c.13-5.82 3-9 8.13-9 5.25 0 8.19 3.3 8.19 9.39s-3.06 10.5-8.19 10.5c-4.46 0-7.34-3.36-8-8.34h-5v8.07zM196 39.12c-3.3 0-5.19 2.25-5.19 6.87 0 5 1.95 7.92 5.19 7.92s5.31-2.91 5.31-7.91c0-4.63-1.95-6.88-5.31-6.88zM214.24 49.74h-1.83v6.48h-2.73V38.34c0-1.44.48-1.44 2.73-1.44h2.28c4.71 0 8 1.53 8 6.06.04 4.35-3.56 6.78-8.45 6.78zm.42-10.35h-2.25v7.89h1.86c3.24 0 5.61-1.44 5.61-4.32s-2.7-3.57-5.22-3.57zM236.17 56.52c-5.31 0-9.09-4.59-9.09-10.53s3.69-9.39 9.09-9.39 9.15 3.48 9.15 9.39-3.78 10.53-9.15 10.53zm0-17.4c-3.75 0-6.18 2.58-6.18 6.87 0 4.62 2.52 7.92 6.18 7.92s6.27-3.15 6.27-7.92c0-4.41-2.44-6.87-6.27-6.87zM78.83 107.35H77c-5.55 0-8.2-2.25-8.2-8.3V77.54c0-2.4.8-2.4 4.5-2.4h14.53c1.65 0 1.65 1.45 1.65 4.36h-16.2v9.35h4.9c7.3 0 12 2.25 12 8.7.05 6.8-5.6 9.8-11.35 9.8zm-1-14.25h-4.55v5.5c0 2.9 1.15 4.4 4.15 4.4h1.2c3.3 0 6.8-1.2 6.8-5.1s-3.05-4.8-7.6-4.8zM115 96.75c-1.55 8.75-5.4 11.1-9.45 11.1-2.65 0-4.75-1-4.75-3.2V103a8.8 8.8 0 0 0 3.2.55c2.85 0 5-1.15 5.8-4.6-5.8-8-10.3-15.31-13.7-23.66v-.15h5.35a107.59 107.59 0 0 0 10.2 18.36l6.65-18.36h5.5zM160.78 107.55V83a185.15 185.15 0 0 1-9.9 20 13.07 13.07 0 0 1-4.45.9 216 216 0 0 1-10-20.8v24.35h-4.3V76.19a16.12 16.12 0 0 1 5.65-1.3 228 228 0 0 0 10.85 23.41 238.94 238.94 0 0 0 10.5-22 13.36 13.36 0 0 1 6-1.4v29.6c-.05 3.05-.13 3.05-4.35 3.05zM199.18 107.35l-2.55-7h-14.8c-.8 2.35-1.5 4.7-2.2 7h-5.25a191.39 191.39 0 0 1 11.4-27.46 4.56 4.56 0 0 0 .6-3.6 11.75 11.75 0 0 1 5.35-1.55l12.7 32v.6zm-9.5-26a153.46 153.46 0 0 0-6.35 14.76h11.8zM244.58 103.8l-5.9-9.8a12.18 12.18 0 0 1-1.35 0h-2.15v13.3h-4.5V94.05h-2.2a11.31 11.31 0 0 1-1.35 0l-5.9 9.8c-2 3.5-3.95 4-6 4-1.85 0-3.65-.9-3.65-3.1v-.9h.8c2 0 3.5-.65 4.95-2.85l5.55-8.5c-5.4-3.9-3-13.81-10.35-13.81h-.8v-.94c0-2.21 1.7-3.11 3.9-3.11 8.85 0 4.9 15.16 12.4 15.16h2.7V77.34c0-2.4.75-2.4 4.5-2.4V89.8h2.65c7.55 0 3.6-15.16 12.65-15.16 2.15 0 3.7.9 3.7 3.11v.94h-.8c-7.4 0-5 9.86-10.35 13.81l5.5 8.5a5.39 5.39 0 0 0 5 2.85h.8v.9c0 2.2-2.15 3.1-4 3.1-2.25 0-3.7-.55-5.8-4.05zM279 104.1l-7-10h-3.75v13.3h-4.55v-30c0-2.4.8-2.4 4.55-2.4v14.8h3.2c9.35 0 4.6-15.11 14.05-15.11 2.15 0 3.35.85 3.35 3.06v.94H288c-7 0-4.6 10.51-11.45 14.16l6.35 8.5a5.67 5.67 0 0 0 5.15 2.5h.8v.9c0 2.2-2.15 3.1-3.95 3.1-2.07 0-3.57-.45-5.9-3.75zM298.23 107.35v-30c0-2.4.8-2.4 4.55-2.4v32.41zM340.18 105.15c0 2.4-.65 2.4-4.5 2.4V93.9h-16.85v13.45h-4.55v-30c0-2.4.8-2.4 4.55-2.4v14.7h16.85V75.14h4.5zM66.43 45.5h78v4.25h-78zM262.58 45.5h79.96v4.25h-79.96zM66.43 126.64h276.11v4.25H66.43z"/></g></g></svg>