<svg width="258" height="740" viewBox="0 0 258 740" fill="none" xmlns="http://www.w3.org/2000/svg"><path d="M16.545 355.711s-12.265 30.017 14.803 44.39c3.806 2.114 10.996 2.114 8.035-10.991-2.96-13.106-4.23-19.447-.423-16.911 4.23 2.537 6.767 5.496 5.498-.423-1.268-5.918-5.92-15.642-5.92-15.642l-21.993-.423z" fill="#F8A899"/><path d="M37.691 260.168c5.076-26.634 11.842-47.349 21.147-62.992l1.691-68.487c-19.454 14.374-41.023 61.3-58.786 112.877l-1.269 2.96v3.382c0 2.114-3.806 59.609 10.15 108.227h34.257c-10.573-36.781-10.573-86.244-7.19-95.967z" fill="#FCA70C"/><path d="M141.308 690.96s-2.961 3.805-2.961 16.065c0 5.496 7.19 6.764 13.957 6.764 8.881 0 12.688 26.211 39.332 26.211 15.225 0 18.186-10.569 10.996-17.333-14.379-13.528-29.605-24.097-39.332-31.707h-21.992z" fill="#492B32"/><path d="M141.308 696.457s2.115 5.496 10.996 5.496c7.19 0 10.996-5.496 10.996-5.496v-18.179h-22.415v18.179h.423z" fill="#C79C81"/><path d="M104.937 690.96s2.961 3.805 2.961 16.065c0 5.496-7.19 6.764-13.957 6.764C85.06 713.789 81.253 740 54.61 740c-15.225 0-18.186-10.569-10.996-17.333 14.38-13.528 29.605-24.097 39.332-31.707h21.992z" fill="#492B32"/><path d="M104.938 696.457s-2.115 5.496-10.996 5.496c-7.19 0-10.996-5.496-10.996-5.496v-18.179h22.415v18.179h-.423z" fill="#C79C81"/><path d="M186.561 343.875H60.529l14.38 343.283s10.996 5.918 19.877 5.918c11.842 0 17.34-5.496 17.34-5.496l12.265-303.12 23.684 142.048-9.727 158.113s1.691 7.187 14.802 7.187c10.15 0 19.455-2.537 19.455-2.537l30.027-162.763-16.071-182.633z" fill="#310072"/><path d="M189.522 360.786v-226.6c0-7.187-6.344-11.415-12.688-14.374-10.996-4.228-35.525-14.374-35.525-14.374H108.32s-26.22 8.878-35.525 14.374c-6.344 3.382-12.688 7.187-12.688 14.374v226.177h129.415v.423z" fill="#DAD8D5"/><path d="M189.521 360.786v-226.6c0-7.187-6.344-11.415-12.687-14.374-10.997-4.228-35.526-14.374-35.526-14.374l-16.494 90.471-16.494-90.471s-26.222 8.878-35.526 14.374c-6.344 3.382-13.533 8.455-13.533 11.837l.845 229.137h129.415z" fill="#007FFF"/><path d="M141.309 105.862l-16.917 17.756-16.072-17.756V89.797h32.989v16.065z" fill="#F8A899"/><path d="M161.185 70.772c0 7.187-18.186 28.325-36.372 28.325-17.763 0-36.371-19.87-36.371-28.325V43.715c0-20.292 16.494-36.357 36.371-36.357 20.301 0 36.372 16.488 36.372 36.357v27.057z" fill="#F8A899"/><path d="M167.311 59.229c1.34-3.983.094-7.997-2.784-8.965-2.878-.968-6.298 1.476-7.639 5.46-1.34 3.983-.094 7.997 2.784 8.965 2.878.968 6.298-1.477 7.639-5.46zM89.57 64.424c2.879-.968 4.125-4.981 2.785-8.965-1.34-3.983-4.76-6.428-7.638-5.46s-4.124 4.981-2.784 8.965c1.34 3.983 4.76 6.427 7.638 5.46z" fill="#F8A899"/><path d="M124.391 123.615l16.917-17.333 8.459 3.382s10.573 10.992 11.419 23.252l-12.265-7.187-24.53-2.114zM124.39 123.616l-16.071-17.333-9.304 2.96s-10.15 11.414-11.42 23.674l12.266-7.187 24.529-2.114z" fill="#ECE5E5"/><path d="M88.02 57.243s3.806-13.95 12.688-20.292l5.075-7.61s5.498-1.69 18.609 3.805c13.11 5.073 16.494 13.106 29.181 10.146 0 0 5.498 10.992 6.344 15.22 0 0 2.961-9.301 3.806-18.18.846-8.877 2.538-31.283-24.952-38.47-28.759-7.61-40.6 10.569-40.6 10.569s-2.538-2.96-9.728 8.455c-5.075 8.032-5.498 21.56 0 37.626" fill="#310072"/><path d="M161.187 59.78c0-5.497-5.921-12.684-5.921-12.684s2.537 16.488-3.806 24.52c-5.498 7.187-22.415 17.756-27.491 17.756-5.075 0-21.992-10.991-27.49-17.756-5.92-8.455-3.383-26.634-3.383-26.634s-5.92 9.301-5.92 14.797c0 0-2.116 11.415 2.537 18.602 5.075 7.61 21.992 19.024 21.992 19.024s7.189 4.227 12.264 4.227c5.076-.422 12.265-4.227 12.265-4.227s17.34-10.57 22.415-18.179c5.075-7.187 2.538-19.447 2.538-19.447z" fill="#310072"/><path d="M145.537 82.186l-3.806-5.496c-1.269-.845-7.613-5.073-16.071-5.073-11.419 0-18.186 2.537-19.878 4.228-2.114 2.114-4.229 5.918-4.229 5.918l-6.767-3.382s2.538-4.65 5.498-8.032c3.806-3.805 13.957-6.342 25.376-6.342 12.687 0 21.146 6.764 21.569 7.187l.423.423 4.229 6.764-6.344 3.805z" fill="#310072"/><path d="M182.332 194.217H93.095v137.398h89.237V194.217z" fill="#E6E7E8"/><path d="M139.617 312.167c63.439-4.651 117.996-56.651 117.996-56.651 0-72.715-57.941-121.755-74.012-131.478 0 0 5.921 6.341 5.921 10.569v62.568c13.111 13.951 17.763 25.366 24.107 45.659-21.992 17.756-41.447 31.707-83.739 38.894l9.727 30.439z" fill="#FCA70C"/><path d="M138.348 308.786s-26.644 20.293-47.79-1.691c-2.96-2.959-5.075-10.146 8.458-10.992 13.534-.845 19.878-1.268 16.495-4.65-3.807-2.96-7.19-4.651-.846-5.496 5.921-.423 17.34.845 17.34.845l6.343 21.984z" fill="#F8A899"/><path d="M44.88 402.214c0 3.805-3.384 7.187-7.19 7.187-3.806 0-7.19-3.382-7.19-7.187v-26.211c0-3.805 3.384-7.187 7.19-7.187 3.806 0 7.19 3.382 7.19 7.187v26.211z" fill="#492B32"/><path d="M30.5 395.028v6.765c0 3.804 3.384 7.187 7.19 7.187 3.806 0 7.19-3.383 7.19-7.187v-6.765H30.5z" fill="#71787D"/><path d="M60.529 583.155c0 5.918-4.652 10.569-10.573 10.569H24.58c-5.92 0-10.573-4.651-10.573-10.569V409.822c0-5.918 4.652-10.569 10.573-10.569h25.376c5.92 0 10.573 4.651 10.573 10.569v173.333z" fill="#492B32"/><path d="M44.88 399.68H30.5v194.048h14.38V399.68z" fill="#180001"/></svg>