<svg width="1920" height="1153" viewBox="0 0 1920 1153" fill="none" xmlns="http://www.w3.org/2000/svg"><ellipse rx="104.744" ry="104" transform="matrix(-1 0 0 1 1362.94 301)" fill="#0BCCC9"/><ellipse rx="104.744" ry="104" transform="matrix(-1 0 0 1 949 202)" fill="#39C0F8"/><ellipse rx="104.744" ry="104" transform="matrix(-1 0 0 1 534.051 235)" fill="#555BE4"/><path d="M904.685 190.57c181.285 0 342.435 168 533.795 94 191.36-74 358.38-137.88 495.52-14v858l-1970 20 10.071-1122s292.732-82.513 410.921 67.999c226.149 288 338.405 96.001 519.693 96.001z" fill="url(#a)" stroke="url(#b)" stroke-width="8"/><g filter="url(#c)"><ellipse rx="19.136" ry="19" transform="matrix(-1 0 0 1 1362.94 301)" fill="#0BCCC9"/><path d="M1347.81 301c0 8.257 6.75 15 15.13 15 8.39 0 15.14-6.743 15.14-15s-6.75-15-15.14-15c-8.38 0-15.13 6.743-15.13 15z" stroke="#fff" stroke-width="8"/></g><g filter="url(#d)"><ellipse rx="19.136" ry="19" transform="matrix(-1 0 0 1 949 192)" fill="#39C0F8"/><path d="M933.864 192c0 8.257 6.75 15 15.136 15s15.136-6.743 15.136-15-6.75-15-15.136-15-15.136 6.743-15.136 15z" stroke="#fff" stroke-width="8"/></g><g filter="url(#e)"><ellipse rx="19.136" ry="19" transform="matrix(-1 0 0 1 533.044 228)" fill="#555BE4"/><path d="M517.908 228c0 8.257 6.75 15 15.136 15 8.387 0 15.136-6.743 15.136-15s-6.749-15-15.136-15c-8.386 0-15.136 6.743-15.136 15z" stroke="#fff" stroke-width="8"/></g><defs><filter id="c" x="1333.81" y="282" width="58.272" height="58" filterUnits="userSpaceOnUse" color-interpolation-filters="sRGB"><feFlood flood-opacity="0" result="BackgroundImageFix"/><feColorMatrix in="SourceAlpha" values="0 0 0 0 0 0 0 0 0 0 0 0 0 0 0 0 0 0 127 0"/><feOffset dy="10"/><feGaussianBlur stdDeviation="5"/><feColorMatrix values="0 0 0 0 0.363614 0 0 0 0 0.264396 0 0 0 0 0.768424 0 0 0 0.3 0"/><feBlend in2="BackgroundImageFix" result="effect1_dropShadow"/><feBlend in="SourceGraphic" in2="effect1_dropShadow" result="shape"/></filter><filter id="d" x="919.864" y="173" width="58.272" height="58" filterUnits="userSpaceOnUse" color-interpolation-filters="sRGB"><feFlood flood-opacity="0" result="BackgroundImageFix"/><feColorMatrix in="SourceAlpha" values="0 0 0 0 0 0 0 0 0 0 0 0 0 0 0 0 0 0 127 0"/><feOffset dy="10"/><feGaussianBlur stdDeviation="5"/><feColorMatrix values="0 0 0 0 0.363614 0 0 0 0 0.264396 0 0 0 0 0.768424 0 0 0 0.3 0"/><feBlend in2="BackgroundImageFix" result="effect1_dropShadow"/><feBlend in="SourceGraphic" in2="effect1_dropShadow" result="shape"/></filter><filter id="e" x="503.908" y="209" width="58.272" height="58" filterUnits="userSpaceOnUse" color-interpolation-filters="sRGB"><feFlood flood-opacity="0" result="BackgroundImageFix"/><feColorMatrix in="SourceAlpha" values="0 0 0 0 0 0 0 0 0 0 0 0 0 0 0 0 0 0 127 0"/><feOffset dy="10"/><feGaussianBlur stdDeviation="5"/><feColorMatrix values="0 0 0 0 0.363614 0 0 0 0 0.264396 0 0 0 0 0.768424 0 0 0 0.3 0"/><feBlend in2="BackgroundImageFix" result="effect1_dropShadow"/><feBlend in="SourceGraphic" in2="effect1_dropShadow" result="shape"/></filter><linearGradient id="a" x1="949" y1="204.569" x2="949" y2="1038.57" gradientUnits="userSpaceOnUse"><stop offset=".174" stop-color="#DFE1F4"/><stop offset="1" stop-color="#F7F9FC"/></linearGradient><linearGradient id="b" x1="949" y1="232.569" x2="949" y2="1148.57" gradientUnits="userSpaceOnUse"><stop stop-color="#fff"/><stop offset="1" stop-color="#fff" stop-opacity="0"/></linearGradient></defs></svg>