<svg width="647" height="480" viewBox="0 0 647 480" fill="none" xmlns="http://www.w3.org/2000/svg"><path d="M4.53 430.76c0 8.238 104.199 14.869 232.697 14.869s232.697-6.672 232.697-14.869c0-8.196-104.199-14.868-232.697-14.868S4.53 422.543 4.53 430.76z" fill="#CDCCFF" fill-opacity=".5"/><path d="M87.477 461.328c32.629 0 59.08-4.168 59.08-9.309 0-5.141-26.451-9.308-59.08-9.308-32.63 0-59.08 4.167-59.08 9.308s26.45 9.309 59.08 9.309zM539.568 458.438c54.749 0 99.133-3.301 99.133-7.372 0-4.072-44.384-7.373-99.133-7.373-54.75 0-99.133 3.301-99.133 7.373 0 4.071 44.383 7.372 99.133 7.372z" fill="#CDCCFF" fill-opacity=".5"/><path d="M369.246 387.925H266.097v27.74h103.149v-27.74z" fill="#ABADF5"/><path d="M477.666 139.729H158.769c-10.68 0-19.337 8.658-19.337 19.337v218.583c0 10.68 8.657 19.337 19.337 19.337h318.897c10.68 0 19.337-8.657 19.337-19.337V159.066c0-10.679-8.657-19.337-19.337-19.337z" fill="#C1CAFF"/><path d="M474.042 149.12h-312.74c-6.563 0-11.882 5.32-11.882 11.882v199.43c0 6.563 5.319 11.883 11.882 11.883h312.74c6.562 0 11.882-5.32 11.882-11.883v-199.43c0-6.562-5.32-11.882-11.882-11.882z" fill="#DDE1FF"/><path d="M236.835 413.297h161.653a15.073 15.073 0 0 1 15.073 15.074v2.41h-191.8v-2.41a15.078 15.078 0 0 1 15.074-15.074z" fill="#9393FE"/><path opacity=".35" d="M454.912 164.524H240.089c-5.698 0-10.317 4.619-10.317 10.317V312.47c0 5.698 4.619 10.317 10.317 10.317h214.823c5.697 0 10.317-4.619 10.317-10.317V174.841c0-5.698-4.62-10.317-10.317-10.317z" fill="#C1CAFF"/><path d="M392.372 199.533H177.549c-5.698 0-10.317 4.62-10.317 10.318v137.628c0 5.698 4.619 10.317 10.317 10.317h214.823c5.697 0 10.316-4.619 10.316-10.317V209.851c0-5.698-4.619-10.318-10.316-10.318z" fill="#C4C3FC" style="mix-blend-mode:multiply" opacity=".55"/><path d="M397.149 193.376H182.327c-5.698 0-10.317 4.619-10.317 10.317v137.628c0 5.699 4.619 10.318 10.317 10.318h214.822c5.698 0 10.317-4.619 10.317-10.318V203.693c0-5.698-4.619-10.317-10.317-10.317z" fill="#fff"/><path d="M204.649 308.989h-10.255v25.742h10.255v-25.742z" fill="#FCA70C"/><path d="M227.754 286.398h-10.255v48.354h10.255v-48.354z" fill="#B1AFFD"/><path d="M250.859 291.382h-10.255v43.349h10.255v-43.349z" fill="#FCA70C"/><path d="M273.985 266.916h-10.256v67.836h10.256v-67.836z" fill="#B1AFFD"/><g opacity=".15"><path d="M222.214 286.398h-4.715v48.354h4.715v-48.354z" fill="#000" style="mix-blend-mode:multiply" opacity=".26"/></g><g opacity=".15"><path d="M199.11 308.989h-4.716v25.742h4.716v-25.742z" fill="#000" style="mix-blend-mode:multiply" opacity=".26"/></g><g opacity=".62"><path d="M268.445 266.916h-4.716v67.836h4.716v-67.836z" fill="#000" style="mix-blend-mode:multiply" opacity=".26"/></g><g opacity=".15"><path d="M245.32 291.382h-4.716v43.349h4.716v-43.349z" fill="#000" style="mix-blend-mode:multiply" opacity=".26"/></g><path d="M279.4 341.836h-91.781v-89.027h1.4v87.627H279.4v1.4z" fill="#D5DBDA"/><path d="M197.05 296.942l-.947-1.05 24.011-21.562 22.24 4.839 24.094-26.813 1.05.927-24.629 27.431-22.343-4.86-23.476 21.088z" fill="#D5DBDA"/><path d="M269.372 257.258l-6.796-6.529 8.773-2.327-1.977 8.856z" fill="#D5DBDA"/><path d="M295.133 307.177h-7.042v7.043h7.042v-7.043z" fill="#B1AFFD"/><path d="M295.133 319.513h-7.042v7.043h7.042v-7.043z" fill="#FCA70C"/><path d="M319.412 322.561h-22.323v3.995h22.323v-3.995zM319.412 310.204h-22.323v3.995h22.323v-3.995z" fill="#EFEFEF"/><path d="M336.566 307.177h-7.043v7.043h7.043v-7.043z" fill="#B1AFFD"/><path d="M336.566 319.513h-7.043v7.043h7.043v-7.043z" fill="#FCA70C"/><path d="M360.824 322.561h-22.323v3.995h22.323v-3.995zM360.824 310.204h-22.323v3.995h22.323v-3.995z" fill="#EFEFEF"/><path d="M373.859 307.177h-7.043v7.043h7.043v-7.043z" fill="#B1AFFD"/><path d="M373.859 319.513h-7.043v7.043h7.043v-7.043z" fill="#FCA70C"/><path d="M390.477 322.561h-14.682v3.995h14.682v-3.995zM390.477 310.204h-14.682v3.995h14.682v-3.995zM390.477 239.876H289.408v1.833h101.069v-1.833zM390.498 217.306H187.619v4.201h202.879v-4.201zM390.498 245.581H289.12v1.833h101.378v-1.833zM390.498 234.151H289.12v1.833h101.378v-1.833zM390.498 251.306H289.12v1.833h101.378v-1.833zM390.498 257.01H289.12v1.833h101.378v-1.833zM390.498 262.736H289.12v1.832h101.378v-1.832zM390.498 268.44H289.12v1.833h101.378v-1.833zM390.498 274.165H289.12v1.833h101.378v-1.833zM390.498 279.87H289.12v1.832h101.378v-1.832zM390.477 285.595h-88.96v1.833h88.96v-1.833z" fill="#EFEFEF"/><path d="M397.149 193.376H182.327a10.297 10.297 0 0 0-10.297 10.297v9.02h235.436v-9.02a10.298 10.298 0 0 0-10.317-10.297z" fill="#66D3FF"/><path d="M374.209 206.37a2.965 2.965 0 1 0 0-5.93 2.965 2.965 0 0 0 0 5.93zM386.338 206.37a2.965 2.965 0 1 0 0-5.932 2.965 2.965 0 0 0 0 5.932zM398.446 206.37a2.965 2.965 0 1 0 .002-5.93 2.965 2.965 0 0 0-.002 5.93z" fill="#007AFF"/><path d="M476.616 139.914H421.49c.37 17.848.672 35.696.906 53.544a21.286 21.286 0 0 1-.989 8.093c-.72 0-.412.186-.659 1.504a16.477 16.477 0 0 1-10.811 6.569 1.082 1.082 0 0 0 0 .597 1.362 1.362 0 0 0-.432 1.668c.247.598 3.418 1.401 7.722.948a20.63 20.63 0 0 0 4.778-1.318 7.461 7.461 0 0 0 1.75-1.195 6.133 6.133 0 0 0 1.606-.391l.165.165 4.942-2.06s-.535-3.109-.968-4.736a2.787 2.787 0 0 0-.329-.762 226.287 226.287 0 0 0 9.678-34.412c-.906 14.518-6.178 44.029-6.507 45.038a7.574 7.574 0 0 1-6.178 4.407c-1.174 0-6.919-.226-6.301 2.41.144.638 3.13 2.059 7.454 2.265a20.526 20.526 0 0 0 4.943-.473 9.153 9.153 0 0 0 3.068-1.669l.659.886 5.23-1.256v-3.007a6.66 6.66 0 0 0-1.112-3.192v-2.966l2.904-.35s5.828-18.843 8.587-25.248a56.47 56.47 0 0 0 3.13-8.031 57.88 57.88 0 0 0 1.195-10.05 88.817 88.817 0 0 1 3.377-18.122c.086-.382.254-.741.494-1.051a2.8 2.8 0 0 1 1.915-.659c7.413-.679 10.811.577 15.445-.865 6.177-1.894 6.754-4.674 7.063-4.798a19.237 19.237 0 0 0-7.599-1.483zM496.961 263.333v-63.944c-9.534 12.48-18.965 23.662-28.5 36.163-4.118 5.416-20.345 23.353-9.287 30.561 2.821 1.833 7.743 1.75 10.193 1.936 8.814.618 17.566-1.813 26.132-4.243l1.462-.473zM496.962 277.089l-5.313.412v-.309l-4.119.33-1.235-3.522a5.331 5.331 0 0 0-5.21-3.315 2.838 2.838 0 0 0-2.85 2.578c-.044.469.03.942.214 1.376l1.236 3.48-4.345.33v.308l-8.958.701c-1.421 0-3.501 1.833-3.048 3.109v.186c-.01.109-.01.22 0 .329l7.743 21.85-.206 92.054h8.978l17.113-66.126v-53.771zM483 276.41a2.987 2.987 0 0 1-2.924-1.854 1.587 1.587 0 0 1 .717-2.044 1.59 1.59 0 0 1 .765-.18 2.99 2.99 0 0 1 2.925 1.854 1.606 1.606 0 0 1-1.462 2.224H483zM161.919 239.156a44.91 44.91 0 0 0-5.312 8.917 8.879 8.879 0 0 1-4.963 4.469c-3.934 1.791-8.237 3.521-12.191 5.107v10.441c8.237-4.963 15.691-9.576 15.815-9.617 6.301 2.409 11.552-2.822 13.241-6.611.762-1.689-.371-2.389-.432-3.192 0-.412.514-2.863.432-3.192-.494-2.204-6.404-.268-5.91-1.318a7.513 7.513 0 0 1 2.471-3.686c2.904-2.06 5.128-4.119 5.128-5.005-.021-1.421-7.599 2.945-8.279 3.687z" fill="#5851BC" style="mix-blend-mode:multiply" opacity=".35"/><path d="M605.608 292.246H495.211c-7.904 0-14.312 6.408-14.312 14.313v132.15c0 7.905 6.408 14.313 14.312 14.313h110.397c7.905 0 14.312-6.408 14.312-14.313v-132.15c0-7.905-6.407-14.313-14.312-14.313z" fill="#BCC3FC"/><path d="M607.668 309.072H497.394a3.645 3.645 0 0 0-3.645 3.645v25.742a3.645 3.645 0 0 0 3.645 3.645h110.274a3.644 3.644 0 0 0 3.644-3.645v-25.742a3.644 3.644 0 0 0-3.644-3.645zM520.334 353.801h-22.94a3.645 3.645 0 0 0-3.645 3.645v13.675a3.645 3.645 0 0 0 3.645 3.645h22.94a3.645 3.645 0 0 0 3.645-3.645v-13.675a3.645 3.645 0 0 0-3.645-3.645zM564.011 353.801h-22.94a3.645 3.645 0 0 0-3.645 3.645v13.675a3.645 3.645 0 0 0 3.645 3.645h22.94a3.645 3.645 0 0 0 3.645-3.645v-13.675a3.645 3.645 0 0 0-3.645-3.645zM607.688 353.801h-22.94a3.645 3.645 0 0 0-3.645 3.645v13.675a3.645 3.645 0 0 0 3.645 3.645h22.94a3.645 3.645 0 0 0 3.645-3.645v-13.675a3.645 3.645 0 0 0-3.645-3.645zM520.334 387.493h-22.94a3.645 3.645 0 0 0-3.645 3.645v13.674a3.645 3.645 0 0 0 3.645 3.645h22.94a3.645 3.645 0 0 0 3.645-3.645v-13.674a3.645 3.645 0 0 0-3.645-3.645zM564.011 387.493h-22.94a3.645 3.645 0 0 0-3.645 3.645v13.674a3.645 3.645 0 0 0 3.645 3.645h22.94a3.645 3.645 0 0 0 3.645-3.645v-13.674a3.645 3.645 0 0 0-3.645-3.645zM520.334 421.205h-22.94a3.645 3.645 0 0 0-3.645 3.645v13.674a3.645 3.645 0 0 0 3.645 3.645h22.94a3.645 3.645 0 0 0 3.645-3.645V424.85a3.645 3.645 0 0 0-3.645-3.645zM564.011 421.205h-22.94a3.645 3.645 0 0 0-3.645 3.645v13.674a3.645 3.645 0 0 0 3.645 3.645h22.94a3.645 3.645 0 0 0 3.645-3.645V424.85a3.645 3.645 0 0 0-3.645-3.645zM607.688 387.493h-22.94a3.645 3.645 0 0 0-3.645 3.645v47.366a3.645 3.645 0 0 0 3.645 3.645h22.94a3.645 3.645 0 0 0 3.645-3.645v-47.366a3.645 3.645 0 0 0-3.645-3.645z" fill="#9090F4"/><g opacity=".45" fill="#E2DEFF"><path opacity=".45" d="M491.628 310.575a3.645 3.645 0 0 1 3.645-3.645h110.274a3.648 3.648 0 0 1 3.645 3.645v25.722a3.645 3.645 0 0 1-3.645 3.645H495.273M518.213 351.66h-22.94a3.644 3.644 0 0 0-3.645 3.645v13.674a3.645 3.645 0 0 0 3.645 3.645h22.94a3.645 3.645 0 0 0 3.645-3.645v-13.674a3.644 3.644 0 0 0-3.645-3.645zM561.87 351.66h-22.94a3.644 3.644 0 0 0-3.645 3.645v13.674a3.645 3.645 0 0 0 3.645 3.645h22.94a3.645 3.645 0 0 0 3.645-3.645v-13.674a3.644 3.644 0 0 0-3.645-3.645zM605.547 351.66h-22.94a3.644 3.644 0 0 0-3.645 3.645v13.674a3.645 3.645 0 0 0 3.645 3.645h22.94a3.645 3.645 0 0 0 3.645-3.645v-13.674a3.644 3.644 0 0 0-3.645-3.645zM518.213 385.351h-22.94a3.645 3.645 0 0 0-3.645 3.645v13.674a3.645 3.645 0 0 0 3.645 3.646h22.94a3.645 3.645 0 0 0 3.645-3.646v-13.674a3.645 3.645 0 0 0-3.645-3.645zM561.87 385.351h-22.94a3.645 3.645 0 0 0-3.645 3.645v13.674a3.645 3.645 0 0 0 3.645 3.646h22.94a3.645 3.645 0 0 0 3.645-3.646v-13.674a3.645 3.645 0 0 0-3.645-3.645zM518.213 419.063h-22.94a3.645 3.645 0 0 0-3.645 3.645v13.674a3.644 3.644 0 0 0 3.645 3.645h22.94a3.644 3.644 0 0 0 3.645-3.645v-13.674a3.645 3.645 0 0 0-3.645-3.645zM561.87 419.063h-22.94a3.645 3.645 0 0 0-3.645 3.645v13.674a3.644 3.644 0 0 0 3.645 3.645h22.94a3.644 3.644 0 0 0 3.645-3.645v-13.674a3.645 3.645 0 0 0-3.645-3.645z"/></g><path d="M605.546 385.351h-22.94a3.645 3.645 0 0 0-3.645 3.645v47.366a3.645 3.645 0 0 0 3.645 3.645h22.94a3.645 3.645 0 0 0 3.645-3.645v-47.366a3.645 3.645 0 0 0-3.645-3.645z" fill="#FCA70C"/><path d="M581.103 438.503v-47.365a3.645 3.645 0 0 1 3.645-3.645h22.92c.437.004.869.088 1.276.247a3.648 3.648 0 0 0-3.418-2.368h-22.92a3.648 3.648 0 0 0-3.645 3.645v47.365a3.652 3.652 0 0 0 2.369 3.419 3.615 3.615 0 0 1-.227-1.298z" fill="#F9C110"/><path d="M480.899 330.139l3.728 9.803h15.588s-1.091 42.382-1.153 50.31c-.062 7.929 6.528 62.811 6.528 62.811h9.02l-.948-69.092 12.809-35.442s9.617 47.366 13.612 55.398c3.995 8.031 25.452 49.136 25.452 49.136h8.237l-21.21-90.921-9.123-31.571-46.004-21.499-16.474 1.626" fill="#5851BC" style="mix-blend-mode:multiply" opacity=".35"/><path d="M99.524 195.765c2.759 4.777.37 11.285 3.171 16.042 1.112 1.895 3.007 3.398 3.542 5.54a4.844 4.844 0 0 1-1.717 4.955 4.843 4.843 0 0 1-5.223.482 5.95 5.95 0 0 0-1.07-.536c-1.38-.412-2.616.824-3.81 1.627a5.806 5.806 0 0 1-5.025.886 7.442 7.442 0 0 1-4.118-5.005c-2.06-5.992-.577-12.541 1.256-18.534.926-3.007 2.285-6.364 5.23-7.455" fill="#24005A"/><path d="M163.628 246.508c0 .659 1.051 1.235.392 2.636-1.504 3.109-6.178 7.434-11.759 5.436-.247 0-30.889 17.793-33.236 17.793-2.348 0-18.534-15.218-23.702-34.041-1.256-4.49-.762-9.782 3.439-12.047a9.947 9.947 0 0 1 5.786 5.148c3.48 6.569 13.9 28.337 16.227 29.161 2.883-1.915 16.907-6.178 28.274-10.915a7.684 7.684 0 0 0 4.407-3.686 36.58 36.58 0 0 1 4.715-7.352c.618-.618 7.331-4.222 7.331-3.048 0 .68-2.059 2.492-4.551 4.119a6.176 6.176 0 0 0-2.182 3.048c-.433.865 4.818-.721 5.251 1.091.062.288-.433 2.307-.392 2.657z" fill="#FFB9B0"/><path d="M97.465 225.729a13.802 13.802 0 0 1 9.144 7.084c.469.93.889 1.886 1.255 2.862 1.627 4.119 3.871 7.908 5.498 12.048a24.446 24.446 0 0 1-7.207 3.48 15.365 15.365 0 0 1-6.714.906 3.392 3.392 0 0 1-1.132-.247 3.717 3.717 0 0 1-1.174-1.009 71.068 71.068 0 0 1-2.06-2.451 6.735 6.735 0 0 1-1.358-2.347 7.103 7.103 0 0 1 .33-3.645" fill="#007FFF"/><path d="M101.583 237.076a1.396 1.396 0 0 0-.515-.453.948.948 0 0 0-1.091.494 2.513 2.513 0 0 0-.227 1.277c.02 1.683.283 3.355.783 4.963l-.515 8.752a15.345 15.345 0 0 0 6.178-.906c.947-.35 2.059-.721 3.006-1.133-1.029-5.004-4.386-9.123-7.619-12.994z" fill="#3E29BB" style="mix-blend-mode:multiply" opacity=".35"/><path d="M87.971 217.038s-.123 5.478.721 5.849c1.147.465 2.332.83 3.542 1.091v11.347l-15.115-2.286-10.4-5.787s10.812-3.583 10.915-4.654c.103-1.071-.597-7.146-.597-7.146M64.722 381.191c-4.118 19.626-2.162 46.563-3.089 61.328.227 0 5.622.742 5.622.742s12.788-62.255 15.115-74.138a16.94 16.94 0 0 0 .288-2.306c.556-8.979-7.516-9.432-12.088-2.06a31.472 31.472 0 0 0-2.059 3.995 54.478 54.478 0 0 0-.741 1.813 58.1 58.1 0 0 0-2.06 6.178v.226c-.185.618-.35 1.257-.494 1.895v.144c-.206.824-.35 1.483-.494 2.183z" fill="#FFB9B0"/><path d="M88.96 310.781c-.145 1.627-1.01 9.349-2.06 18.534-.885 7.661-1.853 16.29-2.615 23.127-.556 5.128-.968 9.226-1.153 11.141a24.946 24.946 0 0 1-.453 3.316c-1.957 8.958-8.237 9.473-11.903 7.393a7.516 7.516 0 0 1-1.42-.968 4.798 4.798 0 0 1-1.607-2.636c-.247-1.833-.474-4.345-.7-7.331-.453-5.828-.844-13.304-1.194-20.594-.412-8.958-.68-17.587-.742-22.468v-.803c0-14.93 13.653-24.507 22.179-19.873l.308.144.33.185c.968.659 1.297 2.884 1.318 5.437-.02 1.668-.165 3.707-.288 5.396z" fill="#FFB9B0"/><path d="M68.079 367.105l-1.05-3.913a62.434 62.434 0 0 1-1.298 13.654v.226a32.074 32.074 0 0 1-.494 1.895v.144c-.213.67-.358 1.36-.433 2.059 0 1.771 3.769-6.178 4.634-7.949l.165-.37-1.03-4.119-.494-1.627zM97.63 384.939c-.392 20.594 5.95 44.689 7.618 59.619.206 0 5.19-.659 5.19-.659s.947-62.934 1.009-75.373a19.315 19.315 0 0 0-.124-2.368c-1.029-9.062-8.36-7.517-11.202 1.009a36.846 36.846 0 0 0-1.194 4.489 67.081 67.081 0 0 0-.371 2.059 67.7 67.7 0 0 0-.742 6.735v.247c0 .679 0 1.338-.123 2.059v.144c-.02.618-.041 1.318-.062 2.039z" fill="#FFB9B0"/><path d="M101.912 376.557a5.403 5.403 0 0 1-1.441-.638 4.118 4.118 0 0 1-1.895-2.224c-.535-1.771-1.173-4.242-1.894-7.167-1.38-5.663-3.027-13.015-4.572-20.182-1.894-8.814-3.583-17.34-4.468-22.179 0-.268-.824-3.789-.886-4.119-2.636-15.013 9.06-24.712 17.566-21.912l.329.124c1.709.679 2.183 6.693 2.574 10.77.392 4.078 3.274 46.192 3.995 53.812.112 1.136.16 2.277.144 3.419-.226 9.349-5.663 11.408-9.452 10.296z" fill="#FFB9B0"/><path d="M98.267 370.112l-1.606-3.625a69.905 69.905 0 0 1 1.153 13.901v.247c0 .659 0 1.339-.123 2.059v.145a12.1 12.1 0 0 0 0 2.059c.288 1.771 2.347-7.002 2.821-9.041v-.412l-1.606-3.83-.639-1.503z" fill="#FFB9B0"/><path d="M72.197 281.95s-11.017 13.983-9.884 28.048c.473 5.849 1.194 11.018 1.853 16.887 0 .845 1.421 13.201 1.05 13.221 0 0 22.652 7.023 44.625-2.183 0-1.503 1.75-30.272-10.09-57.662a191.017 191.017 0 0 1-27.554 1.689z" fill="#555BE4"/><path d="M106.669 249.638c0 4.016-2.224 6.446-5.271 9.823a119.369 119.369 0 0 0-1.668 15.466c-.165 3.089 1.153 5.025 0 5.293-4.407 3.83-20.264 6.96-27.553 1.709.761-6.467-2.06-20.594-4.119-27.925-.309-1.112-.577-2.06-.824-2.78-1.812-5.499-5.107-23.127-2.677-23.889l2.06-.618c3.81-1.153 9.431-3.11 9.431-3.11s3.295 9.762 11.861 10.936c4.675-1.936 4.263-7.847 4.119-10.565 1.524.433 2.203.844 6.94 2.245 1.338 1.915.185 5.91 2.327 11.882.741 1.483 5.477 6.652 5.374 11.533z" fill="#007FFF"/><path d="M98.906 194.652s.865 10.606-.948 16.146a13.18 13.18 0 0 1-11.428 7.908c-12.644 0-14.93-17.196-14.848-18.02.083-.823 18.657-8.052 18.657-8.052l8.567 2.018z" fill="#FFB9B0"/><path d="M122.999 450.53c-4.51.803-9.308-.453-11.285-.123-1.626.267-5.827 1.338-7.392 0-1.565-1.339-1.318-6.384.494-7.043.382.131.774.228 1.174.288 1.788.247 3.608.1 5.333-.432a28.4 28.4 0 0 0 7.455 2.821c1.701.33 3.364.834 4.963 1.503 1.668.7 1.791 2.533-.742 2.986zM74.38 452.507c-4.51-.762-7.372-3.253-9.349-3.604-1.627-.288-5.725-1.091-6.178-2.78-.33-1.256.927-6.446 2.842-6.466.316.25.653.47 1.009.659 1.6.839 3.364 1.317 5.169 1.4a28.375 28.375 0 0 0 6.054 5.169 25.45 25.45 0 0 1 4.119 3.089c1.4 1.298-1.174 2.966-3.666 2.533z" fill="#DA446E"/><path d="M8.628 242.08l4.118-4.922 25.288 22.653s12.356-16.475 15.733-21.561c3.727-5.643 7.104-10.462 12.561-11.409 1.256.782-.432 21.026-1.091 21.52-7.62 5.705-22.467 24.115-27.182 25.063-5.437 1.071-29.427-31.344-29.427-31.344z" fill="#FFB9B0"/><path d="M68.223 225.893s-5.169 0-7.393 1.895S48 246.425 48 246.425a7.475 7.475 0 0 0 2.78 5.849 15.479 15.479 0 0 0 7.64 3.315s5.334-5.292 8.238-7.722c1.874-1.504 2.059 2.224 2.059 2.224l9.39-9.164-9.884-15.034z" fill="#007FFF"/><path d="M65.093 226.099l-.824-.473a6.962 6.962 0 0 1-3.398-3.419 11.35 11.35 0 0 1 0-8.238 32.971 32.971 0 0 1 3.48-3.974 12.358 12.358 0 0 0 2.06-6.92c-.03-2.439.135-4.877.494-7.29.885-4.119 2.06-7.97 5.19-10.606 5.044-4.118 15.135-6.713 20.592-2.059 1.009.844 1.194 1.545 2.553 1.668a9.943 9.943 0 0 1 4.613 1.339c1.812 1.05 3.995 2.512 3.727 4.88a8.467 8.467 0 0 1-3.439 5.005 4.12 4.12 0 0 1-1.935.432c-2.06 0-3.913-1.359-6.013-1.133a3.998 3.998 0 0 0-2.636 1.463c-.762.926-.66 2.244-1.545 3.109-1.42 1.401-3.624 1.277-5.292 2.204-.29.131-.538.337-.72.597-.136.282-.2.593-.186.906v2.657c-.824-.371-.927-1.545-1.606-2.06a1.917 1.917 0 0 0-2.41.165 4.12 4.12 0 0 0-1.153 2.307 6.65 6.65 0 0 0 .474 3.171c.556 1.812 2.06 3.419 3.336 2.245.906 1.338 0 3.563-.124 5.066 0 1.194 0 3.563 1.112 4.345 1.112.783 2.657.165 2.719 2.06a3.582 3.582 0 0 1-3.336 3.233 12.504 12.504 0 0 1-4.984-.865 7.817 7.817 0 0 0-5.004-.247c-.889.512-1.827.933-2.8 1.256a4.383 4.383 0 0 1-2.945-.824z" fill="#310072"/><path d="M19.212 242.904s-5.951-4.757-6.342-6.075c-.391-1.318-.494-2.698-.989-3.975a7.443 7.443 0 0 0-4.118-4.119c-1.483-.618-.762-1.112-2.348-.803-2.41.474-3.542 2.821-4.51 4.675-4.118 7.867 7.126 9.349 7.537 9.37.824 0 5.004 4.778 5.004 4.778M392.66 73.21s-4.798-3.376-4.963-4.797a32.95 32.95 0 0 0-4.592-8.238 25.766 25.766 0 0 0-7.887-3.274c-1.195-.165-8.093.411-7.228 1.359.865.947 5.313.597 6.178 1.112l.865.515s-.865 1.153-.515 1.874c.35.72-1.462 1.791-.783 2.986.68 1.194-.268 1.112.33 2.368 1.009 2.06 3.603 3.213 4.283 2.657.515 1.215 2.492 3.727 4.324 3.542 1.833-.185 6.322 4.119 6.322 4.119M465.826 49.137c.164 3.212 0 8.834.864 9.658.865.824 3.892.7 3.892.7s-10.646 13.469-11.593 12.727c-.947-.74-13.55-10.997-10.708-11.532 2.841-.535 5.601-.412 5.518-1.874l-.247-4.387" fill="#FFB9B0"/><path d="M477.954 121.03s-20.778 2.368-25.555 2.45c-4.778.083-4.551-2.389-4.551-2.389a190.355 190.355 0 0 0-2.059-21.87c-.927-3.934-1.339-5.375-2.06-9.103-1.791-8.237-1.709-9.864-3.603-20.1l12.355-9.967a6.55 6.55 0 0 0 6.487 3.893 9.45 9.45 0 0 0 9.123-4.778l16.927 11.244 1.585 27.328-2.059 22.509" fill="#FCA70C"/><path d="M466.073 46.212a35.889 35.889 0 0 1-1.463 4.778 5.417 5.417 0 0 1-5.724 3.954l-6.363.144a7.268 7.268 0 0 1-4.963-1.05 7.412 7.412 0 0 1-1.627-4.613 88.903 88.903 0 0 1-.906-6.054 89.227 89.227 0 0 1-.556-11.965 8.67 8.67 0 0 1 .144-1.648c.031-.22.124-.427.268-.597.218-.173.484-.274.762-.289a65.244 65.244 0 0 1 12.026-.761 13.674 13.674 0 0 1 8.093 2.059 15.248 15.248 0 0 1 4.304 7.29c.164.433.267 1.01-.103 1.277" fill="#FFB9B0"/><path d="M419.472 195.126a45.212 45.212 0 0 0 1.235 5.54c.556 1.421 5.19.103 5.499-.803a42.527 42.527 0 0 0-1.463-7.641" fill="#ED9C80"/><path d="M427.812 201.037c.391 1.523.906 4.448.906 4.448l-4.634 2.059-.762-.721a8.58 8.58 0 0 1-2.574 2.06 19.198 19.198 0 0 1-4.489 1.235c-4.118.433-7.022-.329-7.269-.885-1.009-2.348 4.366-2.966 5.436-3.254a7.102 7.102 0 0 0 5.087-5.087c.226-1.235 0-1.441.618-1.4a1.622 1.622 0 0 1 1.153.535 2.918 2.918 0 0 0 3.295.762 3.495 3.495 0 0 0 1.647-1.359 2.063 2.063 0 0 1 1.586 1.607z" fill="#38287C"/><path d="M439.941 141.109a78.517 78.517 0 0 1-23.641.556c1.03 2.924 3.542 6.693 4.49 10.832 3.15 13.633 4.242 31.962 5.045 43.247 0 0-1.524 2.904-6.363.7-7.249-17.916-19.914-54.223-19.79-62.09.144-10.029 25.185-12.356 43.512-14.91" fill="#453087"/><path d="M471.9 121.05c5.766 4.119-31.959 20.079-31.959 20.079a62.728 62.728 0 0 1-12.356 1.174 9.058 9.058 0 0 1-.927-2.348c-.226-1.091-.103-2.244-.288-3.336a7.764 7.764 0 0 0-3.768-5.086 16.983 16.983 0 0 0-6.178-2.06 82.897 82.897 0 0 0-14.003-.247c11.346-8.361 34.554-9.453 45.304-10.132 2.1 3.46 23.352 1.338 24.175 1.956z" fill="#38287C"/><path d="M431.415 204.661c-.03 1.898.06 3.797.268 5.684.288 1.483 5.086 1.009 5.539.165a42.484 42.484 0 0 0-.123-7.764" fill="#ED9C80"/><path d="M438.623 211.931c.123 1.565.123 4.53.123 4.53l-4.901 1.174-.617-.844a8.607 8.607 0 0 1-2.883 1.565c-1.521.338-3.077.49-4.634.453-4.118-.268-6.857-1.545-7.001-2.059-.577-2.472 4.818-2.163 5.91-2.266a7.104 7.104 0 0 0 5.889-4.118c.453-1.174.186-1.442.845-1.277a1.617 1.617 0 0 1 1.05.741 2.922 2.922 0 0 0 3.109 1.318 3.501 3.501 0 0 0 1.854-1.071 2.059 2.059 0 0 1 1.256 1.854z" fill="#38287C"/><path d="M484.483 120.206a234.142 234.142 0 0 1-25.556.824c-3.274 0-27.965 4.633-30.333 8.814-3.892 6.878 2.533 47.118 1.936 75.929 0 0 2.965 2.471 8.237.144 1.297-14.148 9.658-47.53 3.892-63.12 13.612 1.813 24.608 3.604 37.067-.494a9.878 9.878 0 0 0 6.363-6.755 23.665 23.665 0 0 0-1.606-15.342z" fill="#453087"/><path d="M452.399 60.03l-3.542.207a27.309 27.309 0 0 0-7.331 1.38c-3.356 1.256-5.745 4.366-8.484 6.816s-16.309 15.384-18.863 15.857c-2.553.474-24.937-14.868-24.937-14.868l-5.54 5.498s24.279 22.447 31.527 22.489c3.522 0 22.9-10.194 29.098-14.148l8.072-23.23z" fill="#FCA70C"/><path d="M415.373 93.084c-4.983.288-27.861-17.196-30.518-19.235l-1.05 1.071s24.279 22.447 31.527 22.489c2.924 0 16.866-7.064 25.041-11.718l2.059-1.215-1.277-7.538s-20.386 15.858-25.782 16.146z" fill="#CE4A30" style="mix-blend-mode:multiply" opacity=".25"/><path d="M392.083 124.695h55.6l-9.966-32.497a4.284 4.284 0 0 0-4.119-3.027h-48.66a2.78 2.78 0 0 0-2.657 3.583l9.802 31.941z" fill="#A4A4F7"/><path d="M391.383 124.695h54.756l-9.967-32.497a4.265 4.265 0 0 0-4.118-3.027h-48.661a2.78 2.78 0 0 0-2.656 3.583l9.555 31.138a1.13 1.13 0 0 0 1.091.803z" fill="#7A74D1"/><path d="M476.863 75.682a217.31 217.31 0 0 0-4.118 31.241c-9.72 3.769-13.674 9.391-23.167 13.612 0 0-7.496-1.256-8.237 1.586-.453 1.627 8.793 2.924 8.793 2.924 8.814 0 32.042-6.404 33.607-6.837 1.565-.432 6.178-29.964 6.343-45.986a10.076 10.076 0 0 0-1.483-6.528 8.557 8.557 0 0 0-2.862-2.06 39.972 39.972 0 0 0-17.731-4.468" fill="#CE4A30" style="mix-blend-mode:multiply" opacity=".25"/><path d="M450.958 122.492a5.555 5.555 0 0 0-4.634-1.462c-1.24.028-2.477.124-3.706.288-.556 0-1.215.206-1.257.824-.041.618 2.719 0 4.119.412a73.682 73.682 0 0 1-8.587.226 2.458 2.458 0 0 0-.989 0 .821.821 0 0 0-.556.762c.041.262.181.498.392.659a5.825 5.825 0 0 0 2.965 1.195c4.371.903 8.911.502 13.056-1.154" fill="#FFB9B0"/><path d="M476.266 75.456c-.227 13.365-1.174 19.502-.927 32.95-6.713 1.441-16 9.04-25.514 13.262a5.021 5.021 0 0 0 .309 3.48c.721.268 32.063-7.372 34.554-9.658 2.492-2.286 5.21-27.143 5.396-43.247a10.076 10.076 0 0 0-1.483-6.528 8.551 8.551 0 0 0-2.863-2.06 39.966 39.966 0 0 0-17.73-4.468" fill="#FCA70C"/><path opacity=".45" d="M419.636 107.5c.206 2.842-3.171 5.169-7.516 5.169-4.345 0-8.052-2.307-8.237-5.169-.185-2.863 3.171-5.169 7.516-5.169 4.345 0 8.032 2.306 8.237 5.169z" stroke="#A4A4F7" stroke-miterlimit="10"/><path d="M416.753 107.5c.124 1.585-2.059 2.862-4.777 2.862s-5.107-1.277-5.231-2.862c-.123-1.586 2.06-2.863 4.778-2.863 2.718 0 5.127 1.277 5.23 2.863z" fill="#A4A4F7"/><path d="M456.27 37.666c-.102-.494-1.215-.597-2.327-.453a17.797 17.797 0 0 0-4.695.989c-.617.473-.576.823-.906.844-.329.02-.35-.31-1.05-.618a9.41 9.41 0 0 0-3.542 0c-1.112.144-2.183.391-2.059.906 0 .548.157 1.084.453 1.545.226.144.226.123 1.112 2.059a2.048 2.048 0 0 0 1.015 1.324 2.058 2.058 0 0 0 1.662.138c1.833-.391 1.956-2.492 2.059-3.357.103-.864.268-1.009.556-1.03.289-.02.474 0 .824.866.35.865.618 2.677 2.492 2.78 2.471.144 3.521-.7 3.871-2.286.453-2.06.35-2.06.535-2.348.615.007 1.228.062 1.833.165v-.638a13.856 13.856 0 0 1-1.833-.886zm-8.937 4.304a2.06 2.06 0 0 1-1.812 2.245c-1.132.144-1.647-.453-2.265-1.895a3.725 3.725 0 0 1-.371-2.615c.186-.35.803-.33 2.204-.433 1.4-.103 1.874-.123 2.059.495a7.63 7.63 0 0 1 .185 2.203zm8.031-1.174c-.226 1.545-.803 2.307-2.347 2.492-2.183.268-2.615-.597-2.945-1.647a7.664 7.664 0 0 1-.412-2.06c0-.659.536-.741 1.915-1.009 1.38-.268 3.233-.577 3.501-.288.374.775.469 1.655.268 2.492l.02.02z" fill="#483A99"/><path d="M471.118 34.247a24.098 24.098 0 0 0-.618-3.295 10.519 10.519 0 0 0-5.127-6.734 16.475 16.475 0 0 0-11.615-1.153c-2.059.597-2.924 1.71-4.015 1.689a12.104 12.104 0 0 1-2.966-.989c-8.237-2.986-6.919 5.149-6.033 7.393.391.989 2.286 1.71 2.533 2.06.203 1.095.334 2.203.391 3.315a1.747 1.747 0 0 0 1.03 1.215v-2.965a3.287 3.287 0 0 1 1.235-2.45 7.618 7.618 0 0 1 2.986-.845c2.096.049 4.175.388 6.178 1.009 1.544 1.339 1.956 4.366 2.389 6.178.205.844.411 1.4.762 1.38.267-2.45 1.112-2.513 2.574-1.689a4.294 4.294 0 0 1 1.256 3.336 3.52 3.52 0 0 1-2.471 3.625c-.598.123 1.173 3.48 2.059 4.325.254.29.545.546.865.762.318.169.657.293 1.009.37l1.194.33a3.09 3.09 0 0 0 1.627.144c.885-.247 1.339-1.174 1.73-2.06.659-1.338 1.4-2.656 1.935-4.118a24.094 24.094 0 0 0 1.092-10.833z" fill="#3B2E7A"/><path d="M230.019 93.887h134.059l-16.063-11.883V8.65A8.753 8.753 0 0 0 339.263 0H230.019a8.75 8.75 0 0 0-8.751 8.752v76.465a8.75 8.75 0 0 0 8.751 8.67z" fill="#D5D2FF"/><g opacity=".45" fill="#fff"><path opacity=".45" d="M232.923 19.358h61.263v-5.87h-61.263v5.87zM232.923 28.131h61.263v-5.87h-61.263v5.87zM232.923 36.883h61.263v-5.869h-61.263v5.87zM232.923 45.41h61.263v-5.87h-61.263v5.87zM232.923 53.956h61.263v-5.87h-61.263v5.87zM232.923 69.463h61.263v-5.87h-61.263v5.87zM232.923 78.71h104.569v-5.87H232.923v5.87z"/></g><path d="M307.88 58.507h20.737a8.876 8.876 0 0 0 8.875-8.876V22.385a8.876 8.876 0 0 0-8.875-8.876H307.88a8.875 8.875 0 0 0-8.875 8.876v27.246a8.875 8.875 0 0 0 8.875 8.876z" fill="#C4C4F7"/><path opacity=".45" d="M299.005 68.948h38.487v-4.84h-38.487v4.84z" fill="#fff"/><path d="M314.428 42.712h13.962a1.751 1.751 0 0 0 1.689-1.277l2.677-9.927a1.76 1.76 0 0 0-.302-1.517 1.75 1.75 0 0 0-1.387-.686h-19.336a1.753 1.753 0 0 0-1.689 2.204l2.677 9.926a1.75 1.75 0 0 0 1.709 1.276z" fill="#fff"/><path d="M311.978 44.936h16.824a.351.351 0 0 0 .248-.598.352.352 0 0 0-.248-.102h-16.474l-5.848-20.409a.354.354 0 0 0-.33-.247h-3.665a.352.352 0 0 0-.35.35.352.352 0 0 0 .35.35h3.398l5.745 20.408a.348.348 0 0 0 .35.248zM328.246 49.713a2.039 2.039 0 1 0 0-4.078 2.039 2.039 0 0 0 0 4.078zM313.461 49.713a2.039 2.039 0 1 0-.002-4.077 2.039 2.039 0 0 0 .002 4.077z" fill="#fff"/><path d="M540.083 480c32.629 0 59.08-2.785 59.08-6.219 0-3.435-26.451-6.22-59.08-6.22s-59.081 2.785-59.081 6.22c0 3.434 26.452 6.219 59.081 6.219z" fill="#EAE6FF" fill-opacity=".5"/><path d="M508.391 464.946a14.861 14.861 0 0 1-6.178 4.675c-3.295 1.462-10.297 2.059-6.384 3.46 3.503.877 7.162.926 10.688.144a46.076 46.076 0 0 1 7.207-.433c3.563 0 3.583-.247 3.11-4.263-.659-5.539-6.837-6.713-8.443-3.583zM572.887 462.928c-.206 1.112 1.38 4.489-1.442 6.981-2.821 2.492-9.266 5.087-5.004 5.19a24.7 24.7 0 0 0 10.523-2.06c2.162-1.071.433-2.759 3.13-3.604 3.542-1.112 2.801-3.727.968-5.333-2.368-5.211-7.537-4.86-8.175-1.174z" fill="#9AA3F4"/><path d="M559.316 350.465s8.484-24.939-15.589-45.492c0 0-12.891 5.128-23.228 5.767a57.36 57.36 0 0 1-12.356-.268s-.679 22.159-.72 34.103l51.893 5.89zM505.569 391.9c-.473-11.162 11.635-9.7 16.083-1.359 9.225 17.237-3.398 56.9-5.066 75.702a9.57 9.57 0 0 1-6.383.392 4.467 4.467 0 0 1-1.854-2.06c.268-23.044-2.286-60.751-2.78-72.675z" fill="#007FFF"/><path d="M521.241 393.589c-1.401 4.551-16.825 9.349-15.568-7.229.556-7.352 2.059-47.942 2.326-51.855.268-3.913.948-9.638 2.822-10.297 9.452-3.563 26.193 8.794 23.702 23.498-1.668 9.761-10.399 36.451-13.282 45.883zM545.54 399.931c-3.728-10.523 8.402-12.356 15.259-5.889 16.103 15.177 16.721 50.949 20.593 69.401a14.093 14.093 0 0 1-7.043 2.059 2.504 2.504 0 0 1-1.915-.989c-6.466-22.179-22.899-53.337-26.894-64.582z" fill="#007FFF"/><path d="M561.458 396.492c.412 4.737-12.356 14.539-17.504-1.297-2.244-7.023-11.861-48.519-13.076-52.247-1.215-3.727-.865-11.45.618-12.809 7.433-6.858 24.196-.824 27.388 13.736 2.162 9.72 1.709 42.773 2.574 52.617z" fill="#007FFF"/><path d="M495.191 214.814c.432-.453.885-.927 1.277-1.421 3.047-3.892 3.5-7.352 6.322-11.883a34.922 34.922 0 0 1 2.059-3.933 16.495 16.495 0 0 1 4.592-3.769c1.318-.7.185 2.224.185 2.224s1.112-1.627 2.204-1.503c.412 0 .494 2.533.494 2.945a20.828 20.828 0 0 1-2.306 9.844 5.082 5.082 0 0 0-.783 2.244 4.998 4.998 0 0 0 2.657-1.318 3.213 3.213 0 0 1 2.78-.803 7.404 7.404 0 0 1-.536 1.153 12.19 12.19 0 0 1-4.88 5.767c-1.38.659-2.986.782-4.345 1.482-2.43 1.298-3.625 4.305-6.178 5.52" fill="#F2A181"/><path d="M517.151 197.776l-7.257-3.035a1.337 1.337 0 0 0-1.751.718l-6.453 15.427a1.338 1.338 0 0 0 .718 1.751l7.257 3.036a1.34 1.34 0 0 0 1.752-.718l6.453-15.427a1.34 1.34 0 0 0-.719-1.752z" fill="#5E5DBB"/><path d="M517.431 199.065l-8.15-3.41-6.683 15.978 8.15 3.409 6.683-15.977z" fill="#B4B4DB"/><path d="M517.554 230.65a57.7 57.7 0 0 0-11.779 2.06c-8.381 2.512-11.264 6.404-14.167 8.011 5.621-7.146 11.902-22.303 11.902-22.303s-7.557-6.178-8.422-4.737c-.865 1.442-32.599 38.613-31.61 44.627.412 2.471 4.118 4.922 7.331 4.819 8.999-.309 19.439-3.584 30.395-7.167 4.818-1.586 6.301 1.812 6.301 1.812" fill="#7A74D1"/><path d="M491.525 240.577s-3.995 8.052-5.189 8.587c-1.195.536 2.903-1.668 5.169-3.995a47.614 47.614 0 0 0 5.333-8.423 46.36 46.36 0 0 0-5.313 3.831z" fill="#6960C4"/><path d="M504.066 201.551a1.821 1.821 0 0 1 .556 1.277 9.963 9.963 0 0 1-.144 5.334 7.676 7.676 0 0 1-2.059 2.739c-1 .874-2.099 1.628-3.274 2.245" fill="#F2A181"/><path d="M517.657 188.145c-2.059.618-3.233 3.357-3.954 5.231a29.127 29.127 0 0 0-1.585 7.043 9.657 9.657 0 0 0 .35 4.963c.376.739.839 1.43 1.38 2.059.271.401.605.755.988 1.051a1.555 1.555 0 0 0 1.38.226c.659-.247.926-1.03 1.112-1.709a45.158 45.158 0 0 1 5.066-12.83" fill="#170D54"/><path d="M515.31 202.231c0-1.421-1.524-2.348-2.822-.865a9.057 9.057 0 0 0-1.42 5.231c0 2.059 1.503 2.451 2.8 2.718" fill="#F2A181"/><path d="M501.08 237.899c2.615-3.006 10.914-7.949 22.014-7.599 7.64.247 28.479 1.504 30.889 6.611 1.194 2.615 2.471 29.387.72 38.634-1.317 6.94-4.653 24.136-4.653 28.296s2.224 5.931 1.194 7.146c-2.327 2.698-18.266 3.83-25.741 3.83-6.651 0-17.998-1.771-18.533-3.913-.845-3.171 1.297-3.047 1.585-6.363.289-3.316 1.133-24.877 0-28.399-2.203-6.363-3.274-16.743-5.024-21.459-1.483-3.583-5.004-13.736-2.451-16.784z" fill="#7A74D1"/><path d="M548.834 259.482c.803 1.647 6.178 10.297 6.178 10.297l.227 1.029a43.428 43.428 0 0 1-.556 4.634c-1.318 6.94-4.654 24.136-4.654 28.296s2.059 5.848 1.194 7.146c-1.833 2.492-31.877 8.093-30.415 1.132.123-.638 25.226-19.77 25.349-20.408 1.154-5.498 2.163-9.452 2.677-13.448 1.236-9.555-.782-20.243 0-18.678z" fill="#6960C4"/><path d="M517.122 220.724a82.076 82.076 0 0 1-.412 9.061c-.651.45-1.34.843-2.059 1.174 0 0 1.235 7.579 3.13 7.002 1.894-.576 14.415-6.899 14.415-6.899s-1.771-.721-1.771-1.421c0-.7 1.688-14.415 1.688-14.415" fill="#FFBE9D"/><path d="M525.791 189.072c-1.832.494-6.63-.495-7.969 1.503a45.308 45.308 0 0 0-2.986 8.134c-.988 2.636-1.627 5.478-2.347 8.238-.948 3.542-2.492 10.05.988 13.015a4.63 4.63 0 0 0 2.677 1.359l4.922.927c2.583.696 5.297.753 7.907.165 3.377-1.092 5.231-5.746 6.178-8.897l4.984-18.081-14.354-6.363z" fill="#FFBE9D"/><path d="M516.813 241.359s-.741 34.001-2.059 54.677l5.004 6.899 3.439-8.629a262.975 262.975 0 0 0-3.254-52.7l-3.13-.247zM515.66 238.373l.123.474a9.493 9.493 0 0 0 1.03 2.512l3.068.227s2.059-1.092 2.368-2.266c.309-1.173-3.418-3.089-3.418-3.089l-.453.186a6.646 6.646 0 0 0-2.677 1.915l-.041.041z" fill="#3B2E7A"/><path d="M530.61 227.52a12.844 12.844 0 0 1 3.501 3.542c-1.586 3.604-5.148 10.009-9.061 12.933a17.73 17.73 0 0 0-6.178-7.784s10.647-1.895 11.738-8.691zM518.811 236.231a13.178 13.178 0 0 0-6.178 5.808 29.175 29.175 0 0 1 .824-10.771s2.512-3.212 3.377-3.274a16.861 16.861 0 0 0 1.977 8.237z" fill="#fff"/><path d="M519.305 312.119a11.31 11.31 0 0 0-7.352 4.119.783.783 0 0 0-.329.639c0 .309.411.432.7.494 1.771.288 2.059-.844 3.706-1.524l3.336-1.421" fill="#F2A181"/><path d="M506.393 284.421l13.468 43.247a1.55 1.55 0 0 1-.125 1.466 1.538 1.538 0 0 1-1.296.696l-28.089 2.471a2.596 2.596 0 0 1-2.347-1.812l-14.415-42.485c-.371-1.153 1.318-2.821 2.43-2.821l28.088-2.471a2.588 2.588 0 0 1 2.286 1.709z" fill="#E9E6FF"/><path d="M505.487 285.553l13.282 42.485a1.54 1.54 0 0 1-.125 1.466 1.542 1.542 0 0 1-1.296.697l-28.088 2.471a2.591 2.591 0 0 1-2.348-1.812l-13.303-42.547a1.55 1.55 0 0 1 .125-1.466 1.538 1.538 0 0 1 1.296-.696l28.089-2.472a2.597 2.597 0 0 1 2.368 1.874z" fill="#DDE1FF"/><path d="M483.041 284.174l.988 3.727 13.139-1.153-1.071-3.707-13.056 1.133z" fill="#fff"/><path d="M485.533 280.714l1.318 4.119 6.177-.577-1.317-4.119a4.262 4.262 0 0 0-4.119-3.006 2.572 2.572 0 0 0-2.059 3.583zm1.379 0a1.443 1.443 0 0 1 1.174-2.059 2.384 2.384 0 0 1 2.327 1.688 1.444 1.444 0 0 1-1.174 2.06 2.394 2.394 0 0 1-2.327-1.771v.082z" fill="#fff"/><path d="M529.91 309.113c-2.945.618-10.791 2.965-11.635 3.357a34.573 34.573 0 0 0-5.004 3.706c-2.965 2.966-1.441 4.346-2.615 8.362-.03.211-.03.426 0 .638 0 .412.556.782 1.132.391.309.515 1.215.206 1.668-.37 0 .391.556.659 1.462.144.495-.268.392-.247 1.524-1.257a11.905 11.905 0 0 1 3.192-1.935 23.377 23.377 0 0 0 3.11-1.421c1.194-.783 3.315-.968 4.365-4.387a3.385 3.385 0 0 1 1.648-1.627l4.798-3.006" fill="#FFBE9D"/><path d="M548.114 253.818c1.256 4.449 6.445 35.339 6.445 35.339l-29.282 21.212 2.43 6.405s35.007-11.759 37.787-19.812c2.78-8.052 2.636-44.359-7.104-57.106a22.216 22.216 0 0 0-9.308-6.178" fill="#7A74D1"/><path d="M518.09 320.213l-.742.679c-.558.44-1.069.937-1.523 1.483-.495.597-.989 1.215-1.401 1.648a6.19 6.19 0 0 1-.741.679 14.205 14.205 0 0 1 1.791-2.636 6.786 6.786 0 0 1 1.751-1.379l.865-.474zM516.463 318.277c-.318.268-.595.58-.824.927-.226.288-.473.659-.721 1.029l-.391.598c-.132.193-.242.4-.329.617a15.192 15.192 0 0 1-2.06 3.44s.165-.474.474-1.174c.309-.7.741-1.586 1.153-2.472a9.165 9.165 0 0 1 1.689-2.244 4.11 4.11 0 0 1 1.009-.721zM514.61 316.712c-.215.342-.449.672-.701.988-.226.289-.514.618-.741.968-.226.35-.371.845-.556 1.257-.371.885-.7 1.791-.947 2.471-.247.679-.433 1.132-.433 1.132.007-.407.048-.814.124-1.215.162-.89.439-1.755.824-2.574.197-.448.438-.876.72-1.277.275-.321.571-.624.886-.906.29-.266.565-.548.824-.844z" fill="#F2A181"/><path d="M536.973 210.345c-1.153-.68-2.059-1.38-2.78-.288-.391.576-.638 1.379-1.318 1.585a1.355 1.355 0 0 1-1.544-1.091 3.937 3.937 0 0 1 .247-2.059l1.38-4.449a6.693 6.693 0 0 0 .329-4.448 4.869 4.869 0 0 0-1.318-1.895 14.894 14.894 0 0 0-6.836-2.924 72.72 72.72 0 0 1-7.352-1.503 7.964 7.964 0 0 1-2.801-1.401 6.04 6.04 0 0 1-2.059-4.53 9.343 9.343 0 0 1 1.442-4.819c.183.582.431 1.142.741 1.668a6.191 6.191 0 0 1 1.338-2.06c.721 3.975 17.484 2.657 21.417 4.408 2.718 1.215 4.963 2.059 4.88 6.425.11.279.295.521.536.7a12.367 12.367 0 0 1 3.748 8.896c.37 4.881-2.472 10.174-5.272 14.21a9.086 9.086 0 0 1-2.059 2.471 5.495 5.495 0 0 1-3.892.886c-1.215-.227-3.604-.124-3.625-1.359 0-.886 1.874-2.451 2.389-3.172" fill="#24005A"/><path d="M532.587 214.958a1.541 1.541 0 0 0 .545 1.677 1.546 1.546 0 0 0 1.761.073 5.304 5.304 0 0 0 3.357-4.118c.391-2.06-.741-4.222-2.677-3.687a2.863 2.863 0 0 0-1.833 2.78" fill="#FFBE9D"/><path d="M517.122 221.466l5.375.988a7.481 7.481 0 0 1-5.457 2.059" fill="#F2A181"/></svg>