<svg width="187" height="153" viewBox="0 0 187 153" fill="none" xmlns="http://www.w3.org/2000/svg"><circle cx="87.278" cy="71.306" r="71.306" fill="#EEF2FA"/><g clip-path="url(#a)"><path d="M71.241 48.97c.302-.3.71-.47 1.135-.47h46.569c4.586 0 8.258 3.716 8.258 8.258v86.484c0 4.586-3.716 8.258-8.258 8.258H59.071c-4.552 0-8.258-3.706-8.258-8.258V70.063c0-.425.169-.834.47-1.135l19.958-19.957z" fill="#EEF2FA" stroke="#9BB9E6" stroke-width="3"/><path d="M69.05 70.284a3.551 3.551 0 0 0 3.547-3.547V47h-.221c-.824 0-1.614.328-2.196.91L50.222 67.867a3.106 3.106 0 0 0-.91 2.196v.221H69.05zM108.965 86.916H69.05a3.105 3.105 0 1 0 0 6.21h39.915a3.105 3.105 0 0 0 0-6.21zM108.965 100.221H69.05a3.105 3.105 0 1 0 0 6.211h39.915a3.105 3.105 0 0 0 0-6.211zM108.965 113.526H69.05a3.106 3.106 0 0 0 0 6.211h39.915a3.105 3.105 0 0 0 0-6.211zM85.902 126.832H69.05a3.105 3.105 0 1 0 0 6.21h16.852a3.106 3.106 0 0 0 0-6.21z" fill="#9BB9E6"/><path d="M112.07 90.021a3.105 3.105 0 0 1-3.105 3.106H89.007v-6.211h19.958a3.105 3.105 0 0 1 3.105 3.105zM112.07 103.327a3.105 3.105 0 0 1-3.105 3.106H89.007v-6.211h19.958a3.104 3.104 0 0 1 3.105 3.105zM112.07 116.63a3.104 3.104 0 0 1-3.105 3.106H89.007v-6.211h19.958a3.105 3.105 0 0 1 3.105 3.105z" fill="#9BB9E6"/><path d="M148.66 129.937c0 12.737-10.326 23.063-23.063 23.063-12.738 0-23.064-10.326-23.064-23.063 0-12.738 10.326-23.064 23.064-23.064 12.737 0 23.063 10.326 23.063 23.064z" fill="#29CCB1"/><path d="M135.776 122.463a3.105 3.105 0 0 0-4.348.621l-7.83 10.44-4.121-4.12a3.106 3.106 0 0 0-4.392 4.391l6.653 6.653c.249.249 1.003.91 2.189.91 1.438 0 2.245-.914 2.491-1.242l9.979-13.305a3.106 3.106 0 0 0-.621-4.348z" fill="#EFF6FE"/><path d="M135.776 122.463a3.105 3.105 0 0 0-4.348.621l-5.831 7.775v10.015a3.21 3.21 0 0 0 .821-.758l9.979-13.305a3.106 3.106 0 0 0-.621-4.348z" fill="#D9E4EF"/></g><defs><clipPath id="a"><path fill="#fff" d="M46 47h106v106H46z"/></clipPath></defs></svg>