<svg width="183" height="151" viewBox="0 0 183 151" fill="none" xmlns="http://www.w3.org/2000/svg"><circle cx="109.278" cy="71.306" r="71.306" fill="#EEF2FA"/><path d="M74.87 127.799c-4.08 0-9.374 2.714-9.374 9.373 0 7.073 5.293 9.374 9.374 9.374h68.668v-7.729l-1.973-1.645 1.973-1.644v-7.729H74.87z" fill="#E4EEF9"/><path d="M67.738 135.2s-2.242 0-2.242 1.972c0 4.081 2.733 9.374 9.374 9.374h68.668v-5.918H74.87c-3.398-.001-6.266-2.303-7.132-5.428z" fill="#D5E0F2"/><path d="M147.774 149.027H74.87c-13.727 0-13.793-12.981-13.727-13.53.83-6.837 6.67-12.152 13.727-12.152l32.784-1.973 32.719 1.973h7.401a3.208 3.208 0 0 1 2.741 1.536c.3.488-.966 2.918-2.741 2.918H74.87c-4.081 0-7.401 5.293-7.401 9.374 0 4.08 3.32 7.401 7.4 7.401h72.905c1.109 0 2.087.561 2.664 1.416.347.513-.89 3.037-2.664 3.037z" fill="#86DCFF"/><path d="M147.774 147.649H74.87c-7.057 0-12.892-5.315-13.722-12.152-.067.55-.105 1.108-.105 1.676 0 7.624 6.202 13.827 13.827 13.827h72.904a3.214 3.214 0 0 0 3.214-3.213 3.19 3.19 0 0 0-.476-1.676 3.208 3.208 0 0 1-2.738 1.538zM147.774 126.421H74.87c-4.08 0-7.4 3.32-7.4 7.4a7.4 7.4 0 0 0 .193 1.676c.761-3.276 3.703-5.725 7.207-5.725h72.904a3.213 3.213 0 0 0 3.213-3.214c0-.614-.175-1.187-.475-1.675a3.208 3.208 0 0 1-2.738 1.538z" fill="#56CAED"/><path d="M140.373 100.144c4.081 0 9.374 2.714 9.374 9.374 0 7.072-5.293 9.373-9.374 9.373H71.705v-7.729l1.973-1.644-1.973-1.645v-7.729h68.668z" fill="#E4EEF9"/><path d="M147.505 107.545s2.242 0 2.242 1.973c0 4.08-2.733 9.373-9.374 9.373H71.705v-5.918h68.668c3.398-.001 6.266-2.303 7.132-5.428z" fill="#D5E0F2"/><path d="M67.47 121.372h72.904c13.727 0 13.793-12.981 13.726-13.531-.83-6.837-6.669-12.151-13.726-12.151H67.47a3.21 3.21 0 0 0-2.742 1.536c-.299.488.967 2.918 2.742 2.918h72.903c4.081 0 7.401 5.293 7.401 9.373 0 4.081-3.32 7.401-7.401 7.401H67.47a3.21 3.21 0 0 0-2.665 1.417c-.346.513.89 3.037 2.665 3.037z" fill="#FFCF4D"/><path d="M67.47 119.994h72.903c7.057 0 12.893-5.315 13.723-12.152.066.549.105 1.108.105 1.675 0 7.625-6.203 13.828-13.828 13.828H67.469a3.214 3.214 0 0 1-3.213-3.214c0-.614.176-1.187.475-1.675a3.208 3.208 0 0 0 2.738 1.538zM67.47 98.766h72.903c4.081 0 7.401 3.32 7.401 7.4 0 .577-.068 1.137-.194 1.676-.761-3.276-3.702-5.725-7.207-5.725H67.469a3.214 3.214 0 0 1-3.213-3.214c0-.615.176-1.187.475-1.675a3.207 3.207 0 0 0 2.738 1.538z" fill="#FFB629"/><path d="M71.705 107.873h60.909a1.644 1.644 0 0 1 0 3.289H71.705v-3.289z" fill="#BDCDE5"/><path d="M107.654 48.543c11.672 0 21.89 4.896 23.979 14.62.252 1.173.415 2.395.496 3.647.833 12.824-6.884 26.907-15.247 26.907-5.853 0-9.228-6.034-9.228-6.034s-3.376 6.034-9.228 6.034c-8.363 0-16.08-14.083-15.248-26.907.082-1.252.245-2.474.497-3.648 2.088-9.723 12.306-14.619 23.979-14.619z" fill="#FF5876"/><path d="M116.882 91.744c-4.11 0-6.998-2.975-8.354-4.747a1.098 1.098 0 0 0-1.748 0c-1.356 1.772-4.245 4.747-8.354 4.747-7.522 0-14.521-12.99-15.246-24.933-.833 12.823 6.883 28.879 15.246 28.879 5.852 0 9.228-6.034 9.228-6.034s3.375 6.034 9.228 6.034c8.363 0 16.079-16.056 15.246-28.88-.726 11.944-7.724 24.934-15.246 24.934z" fill="#E6485D"/><path d="M105.247 43.953c-3.904-3.903-11.461-2.674-11.461-2.674s-.019.113-.044.318c-.18 1.476.284 7.302 3.71 10.728 3.904 3.903 10.757 1.323 10.612-.943-.154-2.421-.801-5.413-2.817-7.429z" fill="#A0E557"/><path d="M96.616 48.528c-1.892-1.893-2.625-4.603-2.874-6.93-.18 1.472-.71 7.715 2.718 11.142 3.903 3.903 11.461 2.675 11.461 2.675s.286-1.768.142-4.033c-1.142.14-7.806.785-11.447-2.854z" fill="#87D654"/><path d="M115.132 58.266a1.646 1.646 0 0 0-3.107-.757c-.061.1-.811 1.287-2.895 1.74.213-3.34 1.029-10.589 4.16-15.87a1.644 1.644 0 1 0-2.828-1.677c-3.589 6.054-4.435 14.046-4.633 17.574-2.191-.43-2.972-1.67-3.031-1.768a1.645 1.645 0 1 0-2.862 1.618c.149.264.667 1.083 1.75 1.88 1.055.778 2.905 1.704 5.726 1.704 2.82 0 4.67-.926 5.725-1.704 1.086-.8 1.604-1.62 1.752-1.882.153-.25.243-.543.243-.858z" fill="#FFBE7C"/><path d="M143.538 135.528H82.629a1.644 1.644 0 0 0 0 3.288h60.909v-3.288z" fill="#BDCDE5"/></svg>