<svg width="206" height="151" viewBox="0 0 206 151" fill="none" xmlns="http://www.w3.org/2000/svg"><circle cx="105.278" cy="71.306" r="71.306" fill="#EEF2FA"/><path d="M134.274 94.969v1.485c0 1.821.294 3.629.869 5.356l3.366 10.096h6.351v-23.29h-4.234a6.352 6.352 0 0 0-6.352 6.353z" fill="#5A4146"/><path d="M163.263 99.367l-3.582 12.539-16.938-14.82a4.234 4.234 0 0 1-4.234-4.234 6.351 6.351 0 0 1 6.351-6.352h14.82a4.235 4.235 0 0 1 4.235 4.235v3.98c0 1.573-.219 3.138-.652 4.652z" fill="#694B4B"/><path d="M155.445 118.259h-12.703v9.371h12.703v-9.371z" fill="#E6AF78"/><path d="M142.743 122.147a16.829 16.829 0 0 0 6.351 1.247 16.83 16.83 0 0 0 6.352-1.247v-3.889h-12.703v3.889z" fill="#D29B6E"/><path d="M165.66 126.312l-10.214-2.918-6.352 4.215-6.351-4.215-10.214 2.918a6.352 6.352 0 0 0-4.606 6.108v15.479c0 1.169.947 2.117 2.117 2.117h38.109c1.17 0 2.118-.948 2.118-2.117V132.42a6.353 6.353 0 0 0-4.607-6.108z" fill="#D5DCED"/><path d="M151.212 150.016h-4.235l1.059-22.388h2.117l1.059 22.388z" fill="#AFB9D2"/><path d="M149.094 120.375c-7.015 0-12.703-5.687-12.703-12.703v-2.48c0-1.123.446-2.2 1.24-2.995l3.84-3.839c.813-.813 1.924-1.28 3.073-1.244 6.768.213 12.759 1.663 16.034 4.862.801.783 1.22 1.878 1.22 2.998v2.698c0 7.016-5.688 12.703-12.704 12.703z" fill="#F0C087"/><path d="M142.743 105.717c0-2.443 2.051-4.384 4.488-4.228 4.274.272 10.617.987 14.508 2.858-.127-.893-.511-1.736-1.161-2.372-3.275-3.198-9.266-4.648-16.034-4.861-1.149-.037-2.261.431-3.073 1.244l-3.839 3.839a4.23 4.23 0 0 0-1.241 2.994v2.481c0 5.793 3.882 10.67 9.184 12.198a12.596 12.596 0 0 1-2.832-7.964v-6.189z" fill="#E6AF78"/><path d="M161.798 138.728c0-1.684.669-3.3 1.86-4.491l5.45-5.45a6.33 6.33 0 0 1 1.159 3.633v15.479c0 1.17-.948 2.117-2.118 2.117h-6.351v-11.288z" fill="#C7CFE2"/><path d="M150.153 131.863h-2.117a1.059 1.059 0 0 1-1.059-1.059v-3.176h4.235v3.176c0 .585-.474 1.059-1.059 1.059z" fill="#959CB5"/><path d="M149.095 127.609l-3.589 2.741a1.27 1.27 0 0 1-1.885-.399l-3.22-5.879 1.296-1.976a.847.847 0 0 1 1.284-.157l6.114 5.67zM149.095 127.609l3.588 2.741a1.27 1.27 0 0 0 1.886-.399l3.219-5.879-1.296-1.976a.847.847 0 0 0-1.284-.157l-6.113 5.67z" fill="#C7CFE2"/><path d="M76.898 119.491c-1.809-4.794-3.244-13.034-3.554-17.325-.59-8.165-6.742-14.82-15.06-14.82-8.317 0-14.47 6.656-15.06 14.82-.31 4.29-1.745 12.531-3.554 17.325-.399 1.057.062 2.222 1.102 2.694 1.939.879 6.073 2.6 11.058 3.27h12.908c4.962-.672 9.125-2.394 11.058-3.27 1.041-.472 1.501-1.637 1.102-2.694z" fill="#5A4146"/><path d="M75.796 122.185c1.04-.471 1.501-1.637 1.102-2.693-1.809-4.794-3.244-13.035-3.554-17.326-.589-8.164-6.742-14.82-15.06-14.82h-.062c-6.382.026-8.638 8.73-3.144 11.978.33.195.542.289.542.289l4.812 25.843h4.307c4.962-.673 9.124-2.395 11.057-3.271z" fill="#694B4B"/><path d="M73.599 129.706l-6.852-3.425a4.235 4.235 0 0 1-2.34-3.788v-6.352H51.703v6.352c0 1.604-.906 3.07-2.34 3.787l-6.852 3.426A6.351 6.351 0 0 0 39 135.387v12.512c0 1.169.948 2.117 2.117 2.117h33.875c1.17 0 2.118-.948 2.118-2.117v-12.512a6.351 6.351 0 0 0-3.511-5.681z" fill="#E6AF78"/><path d="M58.055 124.61c2.28 0 4.463-.47 6.465-1.307-.052-.267-.114-.532-.114-.81v-6.352H51.704v6.352c0 .28-.061.546-.114.814a16.823 16.823 0 0 0 6.466 1.303z" fill="#D29B6E"/><path d="M73.599 129.706l-4.882-2.44c-2.263 3.495-6.188 5.813-10.662 5.813-4.474 0-8.4-2.318-10.663-5.814l-4.88 2.441A6.351 6.351 0 0 0 39 135.387v12.512c0 1.169.948 2.117 2.117 2.117h33.875c1.17 0 2.118-.948 2.118-2.117v-12.512a6.351 6.351 0 0 0-3.511-5.681z" fill="#D5DCED"/><path d="M58.055 120.375c-6.459 0-11.791-4.82-12.598-11.059-.117-.904.318-1.79 1.132-2.201a17.615 17.615 0 0 0 3.747-2.531 12.22 12.22 0 0 0 2.897-3.811c.431-.899 1.422-1.407 2.387-1.16 7.455 1.901 12.53 5.779 14.371 7.362.494.426.78 1.052.728 1.703-.513 6.545-5.987 11.697-12.664 11.697z" fill="#F0C087"/><path d="M69.99 106.975c-1.84-1.583-6.916-5.461-14.37-7.363-.966-.246-1.956.262-2.387 1.16-.38.791-1.006 1.797-1.935 2.825l-.001.007c-.289.327-.596.654-.96.98a17.61 17.61 0 0 1-3.748 2.531c-.814.411-1.248 1.298-1.132 2.202.724 5.603 5.11 10.063 10.672 10.913-2.535-1.724-4.426-4.096-4.426-8.323v-3.019c.481-.356.966-.71 1.452-1.144a16.838 16.838 0 0 0 3.028-3.572c5.703 1.78 9.569 4.744 11.035 6.004.401.352 1.397 1.269 2.562 2.362a12.6 12.6 0 0 0 .939-3.86c.05-.651-.234-1.277-.728-1.703z" fill="#E6AF78"/><path d="M40.29 131.57a6.342 6.342 0 0 0-1.29 3.817v12.512c0 1.169.948 2.117 2.117 2.117h6.352v-10.668a4.237 4.237 0 0 0-1.59-3.307l-5.588-4.471z" fill="#C7CFE2"/><path d="M135.051 126.817l-17.715-6.442-12.703 4.235-12.703-4.235-17.714 6.442a8.47 8.47 0 0 0-5.575 7.959v13.123c0 1.169.948 2.117 2.117 2.117h67.751a2.117 2.117 0 0 0 2.117-2.117v-13.123a8.468 8.468 0 0 0-5.575-7.959z" fill="#FF507D"/><path d="M102.415 128.844l-2.016 21.172h8.469l-2.017-21.172h-4.436z" fill="#707487"/><path d="M106.856 131.753h-4.445a1.483 1.483 0 0 1-1.483-1.482v-5.661h7.41v5.661c0 .818-.663 1.482-1.482 1.482z" fill="#5B5D6E"/><path d="M138.347 129.005a8.465 8.465 0 0 1 2.279 5.771v13.123a2.117 2.117 0 0 1-2.117 2.117h-10.586v-7.078a8.47 8.47 0 0 1 2.48-5.989l7.944-7.944z" fill="#D23C69"/><path d="M127.923 76.713V58.976a4.235 4.235 0 0 0-4.235-4.234H98.282c-9.355 0-16.938 7.583-16.938 16.938v5.033c0 2.275.367 4.536 1.087 6.695l.704 2.114a6.35 6.35 0 0 1 .326 2.009v1.086h42.344v-1.086c0-.683.11-1.361.326-2.009l.705-2.114a21.163 21.163 0 0 0 1.087-6.695z" fill="#5A4146"/><path d="M91.93 63.343c0 4.75 3.851 8.601 8.601 8.601h1.191l.575 16.673h23.508V87.53c0-.682.11-1.36.326-2.008l.705-2.114a21.188 21.188 0 0 0 1.086-6.696V58.976a4.234 4.234 0 0 0-4.234-4.234h-23.157c-4.75 0-8.6 3.85-8.6 8.601z" fill="#694B4B"/><path d="M117.337 105.556H91.93v19.054h25.407v-19.054z" fill="#E6AF78"/><path d="M91.93 112.714a25.257 25.257 0 0 0 25.406 0v-7.159H91.93v7.159z" fill="#D29B6E"/><path d="M104.633 124.61l-6.752 6.752a2.117 2.117 0 0 1-3.184-.217l-7.001-9.226 1.831-3.859a2.117 2.117 0 0 1 3.023-.895l12.083 7.445zM104.633 124.61l6.753 6.752a2.117 2.117 0 0 0 3.183-.217l7.002-9.226-1.832-3.859a2.117 2.117 0 0 0-3.023-.895l-12.083 7.445z" fill="#D23C69"/><path d="M104.633 111.906c-11.693 0-21.172-9.479-21.172-21.172v-2.48c0-1.123.446-2.2 1.24-2.994l1.754-1.754a4.235 4.235 0 0 0 1.24-2.995v-5.075a2.1 2.1 0 0 1 1.613-2.057c5.007-1.183 20.589-3.985 31.193 3.815.689.506 1.07 1.338 1.07 2.193v1.124c0 1.123.446 2.2 1.24 2.995l1.754 1.754a4.234 4.234 0 0 1 1.24 2.994v2.48c.001 11.693-9.479 21.172-21.172 21.172z" fill="#F0C087"/><path d="M120.502 77.194c-7.459-5.485-17.365-5.723-24.337-4.972-2.941.317-5.371.806-6.857 1.157a2.1 2.1 0 0 0-1.612 2.057v5.075c0 1.124-.446 2.2-1.24 2.995l-1.754 1.754a4.235 4.235 0 0 0-1.24 2.994v2.48c0 10.826 8.13 19.738 18.613 21.003-3.653-3.804-5.91-8.96-5.91-14.65V81.61a4.237 4.237 0 0 1 3.724-4.206c5.081-.637 14.387-1.02 21.682 3.107v-1.125c0-.855-.381-1.687-1.069-2.193z" fill="#E6AF78"/><path d="M70.92 129.005a8.463 8.463 0 0 0-2.28 5.771v13.123c0 1.169.949 2.117 2.118 2.117h10.586v-7.078a8.47 8.47 0 0 0-2.48-5.989l-7.944-7.944z" fill="#D23C69"/></svg>