<svg width="70" height="70" viewBox="0 0 70 70" fill="none" xmlns="http://www.w3.org/2000/svg"><circle cx="35" cy="35" r="35" fill="#7057D6" fill-opacity=".2"/><path d="M25.688 22c2.219 0 4.042.715 5.468 2.144 1.427 1.377 2.14 3.203 2.14 5.48 0 1.058-.132 2.117-.396 3.176-.264 1.059-.82 2.647-1.665 4.765L26.64 49h-7.846L22.2 36.453c-1.321-.582-2.352-1.456-3.091-2.62-.74-1.165-1.11-2.568-1.11-4.21 0-2.276.713-4.102 2.14-5.479C21.62 22.714 23.468 22 25.688 22zm18.704 0c2.219 0 4.042.715 5.468 2.144 1.427 1.377 2.14 3.203 2.14 5.48 0 1.058-.132 2.117-.396 3.176-.264 1.059-.82 2.647-1.665 4.765L45.343 49h-7.847l3.408-12.547c-1.32-.582-2.35-1.456-3.09-2.62-.74-1.165-1.11-2.568-1.11-4.21 0-2.276.713-4.102 2.14-5.479 1.48-1.43 3.328-2.144 5.548-2.144z" fill="#fff"/></svg>