<svg width="471" height="342" viewBox="0 0 471 342" fill="none" xmlns="http://www.w3.org/2000/svg"><path d="M90.315 341.601S9.652 285.775 51.58 232.874c41.928-52.902 124.854-34.16 207.114-66.194 82.26-32.033 114.072-44.262 144.021-15.95 29.284 27.78-25.423 81.213 12.512 127.735 41.13 50.243-11.181 59.415-21.164 63.136H90.314z" fill="#EEF2FA"/><path d="M174.172 176.383c-19.434 13.425-29.55 21.799-31.28 1.329-4.393-50.376-47.786-76.959-79.465-76.827" stroke="#80A5F9" stroke-width="1.018" stroke-miterlimit="10" stroke-linecap="round" stroke-linejoin="round" stroke-dasharray="2.04 2.04"/><path d="M47.188 91.98c-.133-.133 7.986.133 7.986.133l4.393 11.032-7.321-5.848-8.652 3.057-17.038-3.855 20.632-4.52z" fill="#5B84F8"/><path d="M26.556 96.5l33.01 6.645-7.32-5.848-25.69-.798z" fill="#4174E5"/><path d="M26.556 96.5l32.212-10.767-3.594 6.38-28.618 4.386 25.69.798-5.857 11.165-19.833-11.963z" fill="#80A5F9"/><path d="M320.744 53.76h-26.355c-3.461 0-6.389-2.791-6.389-6.38 0-3.456 2.795-6.38 6.389-6.38h26.355c3.461 0 6.389 2.791 6.389 6.38s-2.928 6.38-6.389 6.38z" fill="#06D2FF"/><path d="M300.518 48.976a1.596 1.596 0 1 0-.01-3.19 1.596 1.596 0 1 0 .01 3.19zM307.573 48.975a1.596 1.596 0 1 0-1.602-1.59c.003.881.72 1.593 1.602 1.59zM314.495 48.975a1.596 1.596 0 1 0-1.602-1.59c.002.881.72 1.593 1.602 1.59z" fill="#fff"/><path d="M61.031 192.466c16.54 0 29.95-13.389 29.95-29.906s-13.41-29.907-29.95-29.907-29.949 13.39-29.949 29.907 13.409 29.906 29.95 29.906z" fill="#06D2FF"/><path d="M48.785 169.87l6.922-6.912-6.922-5.05v11.962zM64.758 164.288l-3.727 2.658-3.727-2.791-6.39 6.646h20.233l-6.39-6.513zM66.355 162.958l6.922 6.912v-11.962l-6.922 5.05z" fill="#fff"/><path d="M61.03 164.686l12.246-9.038v-3.057H48.918v3.057l12.112 9.038z" fill="#fff"/><path d="M398.989 120.026h-47.918a8.345 8.345 0 0 1-8.386-8.374V67.257c0-3.456 2.795-6.38 6.389-6.38h49.915c3.461 0 6.389 2.791 6.389 6.38v46.389c-.133 3.588-2.928 6.38-6.389 6.38z" fill="#FCA70C"/><path d="M383.283 72.84l5.59.797-15.84 10.235-2.928-3.988-11.846 6.912M386.876 79.087l1.997-5.45" stroke="#fff" stroke-width="1.451" stroke-miterlimit="10" stroke-linecap="round" stroke-linejoin="round"/><path d="M365.047 94.638h-5.59v11.032h5.59V94.638zM372.9 91.448h-5.59v14.222h5.59V91.448zM380.754 87.992h-5.591v17.678h5.591V87.992zM388.873 85.068h-5.59v20.602h5.59V85.068z" fill="#fff"/><path d="M425.211 208.151c15.144 0 27.42-12.259 27.42-27.381 0-15.123-12.276-27.382-27.42-27.382-15.143 0-27.42 12.259-27.42 27.382 0 15.122 12.277 27.381 27.42 27.381z" fill="#007FFF"/><path d="M435.86 178.643l-1.731-.266a16.263 16.263 0 0 0-.931-2.26l1.065-1.462c.399-.531.266-1.329-.134-1.728l-1.064-1.063c-.533-.399-1.198-.532-1.731-.133l-1.464 1.063c-.666-.398-1.464-.664-2.263-.93l-.266-1.861c-.133-.664-.666-1.063-1.331-1.196h-1.597c-.666 0-1.198.532-1.331 1.196l-.267 1.728c-.798.266-1.464.532-2.262.931l-1.465-.931c-.532-.399-1.331-.266-1.73.133l-1.065 1.063c-.532.532-.532 1.197-.133 1.728l1.065 1.462c-.399.665-.666 1.463-.932 2.26l-1.73.266c-.666.133-1.198.664-1.198 1.329v1.462c0 .665.532 1.196 1.198 1.329l1.73.266c.266.798.533 1.462.932 2.26l-1.065 1.462c-.399.532-.266 1.329.133 1.728l1.065 1.063c.532.532 1.198.532 1.73.133l1.465-1.063c.665.399 1.464.664 2.262.93l.267 1.728c.133.665.665 1.196 1.331 1.196h1.464c.665 0 1.198-.531 1.331-1.196l.266-1.728a16.24 16.24 0 0 0 2.263-.93l1.464 1.063c.533.399 1.331.266 1.73-.133l1.065-1.063c.533-.532.533-1.196.133-1.728l-1.064-1.462c.399-.665.665-1.462.931-2.26l1.731-.266c.665-.133 1.198-.664 1.198-1.329v-1.462c.133-.665-.4-1.196-1.065-1.329zm-10.782 6.114c-2.263 0-4.126-1.861-4.126-4.12 0-2.26 1.863-4.121 4.126-4.121 2.263 0 4.126 1.861 4.126 4.121 0 2.392-1.863 4.12-4.126 4.12z" fill="#fff"/><path d="M222.618 87.687h-59.232A8.345 8.345 0 0 1 155 79.313V36.38c0-3.456 2.795-6.38 6.389-6.38h61.229c3.461 0 6.389 2.791 6.389 6.38v44.927c0 3.588-2.928 6.38-6.389 6.38z" fill="#007FFF"/><path d="M210.505 44.754l-3.327-.665c-.133 0-.133-.133-.266-.265l-.666-3.323c-.133-.4-.399-.532-.666-.133l-4.791 4.785c-.133.133-.267.398-.133.531l.532 2.393-11.181 11.032c-.532.532-.532 1.197 0 1.728.532.532 1.198.532 1.73 0l11.181-11.032 2.396.532c.133 0 .4 0 .533-.133l4.792-4.785c.266-.266.133-.532-.134-.665z" fill="#fff"/><path d="M194.666 52.862l2.129-2.127c.134-.133 0-.133 0-.266a10.943 10.943 0 0 0-5.723-1.595c-2.929 0-5.724 1.064-7.987 3.323-4.392 4.387-4.392 11.564 0 15.95 2.263 2.26 5.058 3.324 7.987 3.324 2.928 0 5.723-1.064 7.986-3.323 3.727-3.722 4.26-9.305 1.731-13.691 0-.133-.133-.133-.267 0l-2.129 2.127c-.133.133-.133.266 0 .266.532 1.063.665 2.126.665 3.322 0 2.127-.798 4.121-2.396 5.716-1.464 1.462-3.594 2.393-5.723 2.393-2.13 0-4.127-.798-5.724-2.393-3.194-3.19-3.194-8.24 0-11.431 1.464-1.462 3.594-2.392 5.724-2.392 1.198 0 2.263.265 3.327.664.133.133.267.133.4.133z" fill="#fff"/><path d="M206.379 52.065l-2.13 2.126c-.133.133-.133.266 0 .266.799 1.728 1.198 3.722 1.198 5.716 0 3.854-1.464 7.443-4.259 10.234-2.662 2.659-6.389 4.254-10.249 4.254-3.86 0-7.454-1.462-10.249-4.254-5.591-5.582-5.591-14.754 0-20.336 2.662-2.659 6.389-4.254 10.249-4.254 1.996 0 3.86.4 5.723 1.197h.267l2.129-2.127c.133-.133 0-.133 0-.266a17.456 17.456 0 0 0-8.119-1.994 17.651 17.651 0 0 0-12.512 5.184c-6.922 6.912-6.922 17.944 0 24.856a17.651 17.651 0 0 0 12.512 5.184c4.525 0 9.051-1.728 12.512-5.184 5.59-5.583 6.655-13.824 3.194-20.47 0-.133-.133-.133-.266-.133z" fill="#fff"/><path d="M75.94 273.414H70.88a2.384 2.384 0 0 1-2.396-2.393v-4.652a2.384 2.384 0 0 1 2.396-2.392h5.058a2.384 2.384 0 0 1 2.396 2.392v4.652a2.384 2.384 0 0 1-2.396 2.393z" fill="#4084FB"/><path d="M439.853 265.306h-54.707a2.385 2.385 0 0 1-2.396-2.393 2.384 2.384 0 0 1 2.396-2.392h54.707a2.384 2.384 0 0 1 2.396 2.392 2.385 2.385 0 0 1-2.396 2.393z" fill="#FFD943"/><path opacity=".38" d="M284.287 105.443h-23.56c-1.997 0-3.727-1.595-3.727-3.721A3.718 3.718 0 0 1 260.727 98h23.693c1.997 0 3.727 1.595 3.727 3.722-.133 1.994-1.73 3.721-3.86 3.721zM190.935 131.443h-34.208c-1.997 0-3.727-1.595-3.727-3.721a3.718 3.718 0 0 1 3.727-3.722h34.208c1.997 0 3.727 1.595 3.727 3.722 0 2.126-1.73 3.721-3.727 3.721z" fill="#DEE2E7"/><path d="M65.29 235.266H26.424c-1.197 0-2.262 1.064-2.262 2.26v.266c0 1.196 1.064 2.259 2.262 2.259h38.868c1.198 0 2.262-1.063 2.262-2.259v-.266c0-1.329-1.064-2.26-2.262-2.26z" fill="#FFD943"/><path d="M413.897 239.387h-19.833c-1.198 0-2.262 1.063-2.262 2.259v.266c0 1.196 1.064 2.26 2.262 2.26h19.833c1.198 0 2.263-1.064 2.263-2.26v-.266c0-1.329-.932-2.259-2.263-2.259z" fill="#06D2FF"/><path d="M442.249 121.222a3.857 3.857 0 0 0 3.86-3.855 3.857 3.857 0 0 0-3.86-3.854 3.857 3.857 0 0 0-3.86 3.854 3.857 3.857 0 0 0 3.86 3.855z" fill="#FFD943"/><path d="M271.207 7.71a3.857 3.857 0 0 0 3.86-3.855A3.857 3.857 0 0 0 271.207 0a3.857 3.857 0 0 0-3.86 3.855 3.857 3.857 0 0 0 3.86 3.854z" fill="#5B84F8"/><path opacity=".38" d="M426.942 41.072a5.453 5.453 0 0 0 5.457-5.45c0-3.01-2.443-5.45-5.457-5.45a5.454 5.454 0 0 0-5.458 5.45c0 3.01 2.444 5.45 5.458 5.45zM10.5 288a8.5 8.5 0 1 0 0-17 8.5 8.5 0 0 0 0 17z" stroke="#CED3D8" stroke-width="2.037" stroke-miterlimit="10"/><path opacity=".38" d="M53.444 54.364c2.5 0 4.526-2.023 4.526-4.52a4.522 4.522 0 0 0-4.526-4.519 4.522 4.522 0 0 0-4.526 4.52 4.522 4.522 0 0 0 4.526 4.519zM461.682 234.336c2.5 0 4.526-2.023 4.526-4.519a4.523 4.523 0 0 0-4.526-4.52 4.523 4.523 0 0 0-4.525 4.52 4.522 4.522 0 0 0 4.525 4.519z" fill="#DEE2E7"/><path d="M367.842 341.335l-251.572.133c-9.583 0-17.303-7.71-17.303-17.147l286.046-.266c0 9.438-7.72 17.147-17.171 17.28z" fill="#453087"/><path d="M367.842 335.354l-251.572.133c-7.454 0-13.71-4.652-16.239-11.298h-1.064c0 9.57 7.72 17.279 17.303 17.146l251.572-.132c9.584 0 17.304-7.71 17.171-17.28h-1.065c-2.396 6.646-8.785 11.431-16.106 11.431z" fill="#7057D6"/><path d="M258.295 329.904h-32.478c-3.194 0-5.723-2.525-5.723-5.715h44.058c-.133 3.19-2.662 5.715-5.857 5.715z" fill="#9393FE"/><path d="M370.371 324.056l-128.315.133-128.314.133-.134-154.585c0-8.905 7.188-16.083 16.106-16.083l224.418-.133c8.918 0 16.106 7.178 16.106 16.083l.133 154.452z" fill="#7057D6"/><path d="M356.927 166.813H127.052v143.951h229.875V166.813z" fill="#fff"/><path opacity=".16" d="M356.927 297.073H127.052v13.824h229.875v-13.824zM356.794 166.813H126.919v6.779h229.875v-6.779z" fill="#D3D4DD"/><g opacity=".8" fill="#DDE1FF"><path d="M203.588 166.812l-76.536 76.562v67.522h.266L271.34 166.812h-67.752zM148.482 310.897l42.062-.133L334.699 166.68l-42.062.133-144.155 144.084zM329.907 310.764l27.02-27.115v-42.003l-69.082 69.118h42.062z"/></g><path d="M15.376 341.468H471" stroke="#555BE4" stroke-width=".876" stroke-miterlimit="10"/></svg>