<svg width="262" height="108" viewBox="0 0 262 108" fill="none" xmlns="http://www.w3.org/2000/svg"><path d="M260.447 2H2v104.445h258.447V2z" stroke="#fff" stroke-width="3" stroke-miterlimit="10"/><path d="M109.399 36.623h-.702c-2.106 0-3.127-.83-3.127-3.194v-8.24c0-.895.319-.895 1.723-.895h5.552c.638 0 .638.575.638 1.661h-6.19v3.578h1.851c2.808 0 4.595.83 4.595 3.321 0 2.62-2.17 3.77-4.34 3.77zm-.383-5.43h-1.723v2.108c0 1.086.447 1.661 1.596 1.661h.446c1.277 0 2.617-.447 2.617-1.98-.064-1.405-1.213-1.789-2.936-1.789zM117.248 36.623V25.125c0-.895.319-.895 1.723-.895v5.622h3.063c.064-3.705 1.915-5.75 5.169-5.75 3.319 0 5.233 2.109 5.233 6.005 0 3.897-1.978 6.708-5.233 6.708-2.871 0-4.658-2.172-5.105-5.302h-3.191v5.174h-1.659v-.064zM127.267 25.7c-2.106 0-3.318 1.469-3.318 4.407 0 3.194 1.276 5.047 3.318 5.047 2.106 0 3.382-1.853 3.382-5.047 0-2.938-1.212-4.407-3.382-4.407zM138.881 32.471h-1.148v4.152h-1.723V25.19c0-.895.319-.895 1.723-.895h1.467c3 0 5.106.959 5.106 3.897 0 2.747-2.298 4.28-5.425 4.28zm.319-6.58h-1.467v5.047h1.212c2.042 0 3.574-.894 3.574-2.747 0-1.852-1.723-2.3-3.319-2.3zM152.92 36.815c-3.382 0-5.807-2.939-5.807-6.708 0-3.768 2.361-6.004 5.807-6.004 3.51 0 5.807 2.235 5.807 6.004 0 3.77-2.424 6.708-5.807 6.708zm0-11.115c-2.425 0-3.956 1.66-3.956 4.407 0 2.939 1.595 5.047 3.956 5.047 2.362 0 4.021-2.044 4.021-5.047-.064-2.81-1.596-4.407-4.021-4.407zM43.99 69.266h-1.213c-3.573 0-5.233-1.469-5.233-5.302V50.23c0-1.533.51-1.533 2.872-1.533h9.317c1.085 0 1.085.958 1.085 2.81H40.416v6.005h3.127c4.658 0 7.721 1.47 7.721 5.558 0 4.28-3.637 6.196-7.274 6.196zm-.639-9.07h-2.935v3.513c0 1.852.702 2.81 2.617 2.81h.765c2.106 0 4.34-.766 4.34-3.257.063-2.428-1.915-3.067-4.786-3.067zM67.09 62.495c-.957 5.622-3.446 7.09-6.062 7.09-1.723 0-3-.638-3-2.043v-1.023c.511.256 1.468.384 2.043.384 1.787 0 3.19-.767 3.701-2.939-3.701-5.11-6.573-9.837-8.742-15.14v-.127h3.382c1.595 3.896 4.02 7.985 6.509 11.754l4.275-11.754h3.51L67.09 62.495zM96.253 69.394V53.679a118.83 118.83 0 0 1-6.317 12.776c-.894.384-1.978.512-2.872.576a159.784 159.784 0 0 1-6.381-13.288V69.33h-2.744V49.4c1.085-.575 2.36-.703 3.637-.831 1.787 4.344 4.34 10.285 6.956 14.948 2.808-5.11 4.722-9.454 6.7-14.054 1.213-.639 2.425-.83 3.83-.894v18.909c-.065 1.916-.128 1.916-2.809 1.916zM120.758 69.266l-1.659-4.471h-9.445c-.51 1.469-.957 3.002-1.403 4.471h-3.383c2.042-6.132 4.595-12.393 7.275-17.567.511-.958.638-1.725.383-2.3 1.149-.638 2.234-.958 3.382-1.022l8.105 20.442v.383h-3.255v.064zm-6.062-16.545a97.801 97.801 0 0 0-4.084 9.455h7.53l-3.446-9.455zM149.73 67.03l-3.765-6.26h-2.298v8.496h-2.871V60.77h-2.234l-3.765 6.26c-1.34 2.236-2.552 2.556-3.892 2.556-1.149 0-2.362-.575-2.362-1.98v-.575h.511c1.276 0 2.233-.448 3.191-1.853l3.509-5.43c-3.446-2.491-1.914-8.816-6.636-8.816h-.511v-.574c0-1.406 1.085-1.98 2.489-1.98 5.679 0 3.127 9.71 7.913 9.71h1.723v-7.986c0-1.533.51-1.533 2.872-1.533v9.518h1.723c4.849 0 2.297-9.71 8.104-9.71 1.34 0 2.361.575 2.361 1.98v.575h-.51c-4.723 0-3.191 6.325-6.637 8.816l3.51 5.43c.957 1.405 1.914 1.853 3.19 1.853h.511v.574c0 1.406-1.404 1.98-2.553 1.98-1.276 0-2.233-.319-3.573-2.554zM171.746 67.222l-4.467-6.452h-2.361v8.496h-2.936V50.102c0-1.533.511-1.533 2.936-1.533v9.518h2.042c5.998 0 2.935-9.646 8.997-9.646 1.341 0 2.106.575 2.106 1.98v.575h-.574c-4.467 0-2.935 6.708-7.339 9.071l4.085 5.43c1.021 1.278 1.978 1.597 3.318 1.597h.51v.575c0 1.406-1.34 1.98-2.552 1.98-1.34-.063-2.298-.319-3.765-2.427zM198.101 69.394v-15.97l-11.359 16.162c-1.021-.128-1.915-.32-2.808-.895V50.102c0-1.533.511-1.533 2.872-1.533v15.906l11.359-16.034c1.021.064 1.914.32 2.807.895V67.86c0 1.533-.446 1.533-2.871 1.533zM224.839 67.86c0 1.534-.383 1.534-2.872 1.534v-8.688h-10.784v8.624h-2.936V50.166c0-1.533.511-1.533 2.936-1.533v9.39h10.784v-9.326h2.872V67.86zM85.852 29.788H36.077v2.747h49.775v-2.747zM226.371 29.788h-51.052v2.747h51.052v-2.747zM226.371 81.595H36.077v2.747H226.37v-2.747z" fill="#fff"/></svg>