<svg width="244" height="78" viewBox="0 0 244 78" fill="none" xmlns="http://www.w3.org/2000/svg"><path d="M93.873 16.032h-.907c-2.72 0-4.02-1.103-4.02-4.085V1.422c0-1.177.392-1.177 2.206-1.177h7.134c.817 0 .817.711.817 2.133h-7.91v4.584h2.402c3.58 0 5.908 1.103 5.908 4.265-.04 3.334-2.81 4.805-5.63 4.805zm-.49-6.986h-2.19v2.72c0 1.423.564 2.158 2.035 2.158h.588c1.634 0 3.334-.588 3.334-2.5s-1.536-2.378-3.767-2.378zM103.948 16.032V1.324c0-1.177.393-1.177 2.231-1.177v7.207h3.947C110.224 2.6 112.577 0 116.769 0s6.693 2.697 6.693 7.673-2.501 8.58-6.693 8.58c-3.652 0-6.006-2.746-6.537-6.815h-4.045v6.594h-2.239zM116.769 2.06c-2.696 0-4.241 1.839-4.241 5.614 0 4.086 1.594 6.472 4.241 6.472 2.648 0 4.339-2.378 4.339-6.464 0-3.783-1.593-5.622-4.339-5.622zM131.674 10.737h-1.495v5.295h-2.215V1.422c0-1.177.393-1.177 2.231-1.177h1.855c3.849 0 6.537 1.25 6.537 4.952 0 3.555-2.925 5.54-6.913 5.54zm.376-8.457h-1.839v6.447h1.52c2.64 0 4.576-1.177 4.576-3.53 0-2.353-2.239-2.917-4.257-2.917zM149.594 16.277c-4.339 0-7.428-3.75-7.428-8.604 0-4.854 3.016-7.673 7.428-7.673 4.413 0 7.469 2.844 7.469 7.673 0 4.83-3.081 8.604-7.469 8.604zm0-14.218c-3.064 0-5.05 2.108-5.05 5.614 0 3.775 2.051 6.472 5.05 6.472 2.999 0 5.115-2.574 5.115-6.472 0-3.604-2.01-5.614-5.115-5.614zM10.124 57.812H8.613c-4.535 0-6.7-1.838-6.7-6.782V33.453c0-1.96.653-1.96 3.676-1.96h11.89c1.348 0 1.348 1.184 1.348 3.554H5.589v7.648h4.004c5.965 0 9.806 1.839 9.806 7.11.04 5.556-4.576 8.007-9.275 8.007zm-.817-11.644H5.59v4.494c0 2.37.94 3.596 3.391 3.596h.981c2.697 0 5.556-.98 5.556-4.168 0-3.187-2.492-3.922-6.21-3.922zM39.713 49.15c-1.267 7.15-4.413 9.07-7.722 9.07-2.165 0-3.881-.816-3.881-2.614v-1.348c.836.31 1.723.463 2.614.45 2.33 0 4.086-.94 4.74-3.76-4.74-6.537-8.417-12.51-11.195-19.333v-.123h4.372a88.254 88.254 0 0 0 8.335 15.003l5.434-15.003h4.494l-7.191 17.659zM77.09 57.976v-20.11A150.698 150.698 0 0 1 69 54.21a10.68 10.68 0 0 1-3.637.735 175.74 175.74 0 0 1-8.171-17.004v19.905h-3.514V32.35c1.462-.63 3.026-.99 4.617-1.062a187.136 187.136 0 0 0 8.866 19.13 195.271 195.271 0 0 0 8.58-17.978 10.915 10.915 0 0 1 4.862-1.144v24.188c-.033 2.492-.082 2.492-3.514 2.492zM108.467 57.813l-2.083-5.72H94.29c-.654 1.92-1.226 3.84-1.798 5.72h-4.29a156.002 156.002 0 0 1 9.316-22.439 3.727 3.727 0 0 0 .49-2.941 9.6 9.6 0 0 1 4.372-1.267l10.377 26.149v.49l-4.29.008zm-7.762-21.246a124.427 124.427 0 0 0-5.19 12.061h9.643l-4.453-12.06zM145.566 54.912l-4.822-8.008c-.367.02-.735.02-1.103 0h-1.757v10.868h-3.677V46.944h-1.797a9.242 9.242 0 0 1-1.104 0l-4.821 8.008c-1.675 2.86-3.227 3.27-4.943 3.27-1.512 0-2.983-.736-2.983-2.534v-.736h.654c1.675 0 2.86-.53 4.085-2.328l4.536-6.946c-4.413-3.187-2.452-11.285-8.458-11.285h-.653v-.817c0-1.798 1.389-2.533 3.186-2.533 7.232 0 4.004 12.388 10.133 12.388h2.206V33.29c0-1.962.613-1.962 3.677-1.962v12.143h2.166c6.169 0 2.941-12.388 10.337-12.388 1.756 0 3.023.735 3.023 2.533v.817h-.654c-6.047 0-4.085 8.057-8.457 11.285l4.494 6.945a4.41 4.41 0 0 0 4.086 2.33h.654v.735c0 1.797-1.757 2.533-3.269 2.533-1.839-.04-3.023-.49-4.739-3.35zM173.724 55.157l-5.761-8.171h-3.064v10.868h-3.718V33.34c0-1.962.654-1.962 3.718-1.962v12.094h2.615c7.64 0 3.759-12.347 11.481-12.347 1.757 0 2.737.695 2.737 2.451v.818h-.653c-5.72 0-3.759 8.58-9.357 11.57l5.189 6.946a4.63 4.63 0 0 0 4.208 2.043h.654v.735c0 1.798-1.757 2.533-3.228 2.533-1.724 0-2.949-.367-4.821-3.064zM207.464 57.977V37.548L192.96 58.181a8.095 8.095 0 0 1-3.555-1.144V33.29c0-1.961.654-1.961 3.677-1.961v20.355l14.505-20.478a7.77 7.77 0 0 1 3.554 1.144v23.697c0 1.929-.531 1.929-3.677 1.929zM241.743 56.015c0 1.96-.531 1.96-3.677 1.96V46.823h-13.769v10.99h-3.718V33.298c0-1.961.654-1.961 3.718-1.961v12.012h13.769V31.492h3.677v24.523zM63.737 7.272H0v3.473h63.737V7.272zM243.655 7.272h-65.339v3.473h65.339V7.272zM243.655 73.575H0v3.473h243.655v-3.473z" fill="#fff"/></svg>