<svg width="158" height="156" viewBox="0 0 158 156" fill="none" xmlns="http://www.w3.org/2000/svg"><circle cx="80.063" cy="77.937" r="77.937" fill="#EEF2FA"/><mask id="a" maskUnits="userSpaceOnUse" x="0" y="0" width="156" height="156"><circle cx="77.937" cy="77.937" r="77.937" fill="#EEF2FA"/></mask><g mask="url(#a)"><path d="M105.766 39.472c3.253 13.005-4.339 33.867-13.015 51.477-7.321 14.631 15.997 39.015-2.983 66.109-18.98 27.093-17.353 41.453-34.164 41.453-14.1 0-15.727-5.69-21.42-23.571-6.237-18.153-5.966-55.271-1.628-67.193 4.339-11.92 15.727-29.802 14.642-46.33-1.355-16.256 7.05-31.97 7.05-31.97s11.93-21.946 31.995-14.36c17.082 6.232 17.625 16.798 19.523 24.385z" fill="#5D3F1C"/><path d="M51.808 87.97s-14.371 4.063-21.963 40.098c-2.983 14.088-4.338 19.778-4.338 40.369h14.641s5.966-40.64 5.966-48.226c.542-22.488 5.694-32.242 5.694-32.242z" fill="#FCA70C"/><path d="M110.375 91.22c-6.508-2.98-22.234-10.295-22.234-10.295H68.89s-11.388 6.231-17.896 9.212c0 0-8.134 32.512-3.254 52.832 4.61 19.779 6.237 46.601 6.237 46.601h48.535s-1.085-27.093 5.151-46.059c8.677-25.739 2.712-52.29 2.712-52.29z" fill="#E6E7E8"/><path d="M88.14 80.925l-9.49 8.94-9.76-8.94V64.94h19.25v15.985z" fill="#F7A898"/><path d="M98.716 53.831c-1.627 7.045-11.66 20.591-20.607 20.591-7.593 0-20.065-11.108-20.608-18.694 0 0-1.898-13.276-2.169-17.61C54.52 25.111 66.72 14.274 78.11 14.274c11.388 0 24.131 10.566 23.318 23.842-.271 4.606-1.627 11.38-2.712 15.714z" fill="#F8B4A7"/><path d="M90.581 79.57s7.321-14.36 7.321-19.236V44.348c0-6.773-5.423-12.462-5.423-12.462-.813 0-1.898 8.399-14.913 11.92-7.863 2.168-17.353-2.167-17.353 13.547 0 7.316 1.085 15.715 4.88 21.404 0 0-15.455-8.67-15.455-34.138.272-6.502 7.321-31.157 26.844-31.157 14.1 0 29.555 9.483 29.555 31.428 0 12.463-4.61 31.158-15.456 34.68z" fill="#5E3F1C"/><path d="M88.14 80.925l21.15 8.94s2.169 1.627 2.983 5.69c.542 2.98 4.338 39.828-7.05 78.843-3.254 11.379 8.134 20.862 9.761 34.409 0 0-2.711 2.98-9.49 4.876-2.982.813-11.66-.27-11.66-.27L88.142 80.925zM68.89 80.925L50.994 88.24s-2.169 1.626-2.982 5.69c-.543 2.98-5.694 36.305 2.169 77.758 2.44 13.276-7.05 27.094-7.863 37.119 0 0 2.982 2.98 9.76 3.522 2.712.271 11.389-1.084 11.389-1.084l5.423-130.32z" fill="#FCA70C"/><path d="M87.87 80.925l9.761 11.921-4.61 4.606 9.762 18.695-11.117 55.271-3.796-90.493zM69.432 81.196l-10.575 11.38 5.152 5.147-7.32 18.695 8.676 55.27 4.067-90.492z" fill="#F98011"/><path d="M78.651 89.866s10.032-4.877 15.727-3.251c0 0-.543-6.232-6.508-7.316v1.355l-9.219 9.212zM78.651 89.866s-10.032-4.877-15.726-3.251c0 0 0-6.232 5.965-7.316v1.355l9.761 9.212z" fill="#C8CACB"/><path d="M78.651 89.866c.272 8.399.543 16.527.543 24.926l.27 24.926-.27 24.926c0 8.399-.272 16.527-.543 24.926-.27-8.399-.542-16.527-.542-24.926l-.271-24.926.271-24.926c0-8.399.271-16.527.542-24.926z" fill="#C8CACB"/><path d="M96.867 108.129L54.97 134.184l44.415 71.308 41.897-26.056-44.415-71.307z" fill="#C0373F"/><path d="M141.285 144.053c1.898 4.606-.271 9.754-4.88 11.65-4.61 1.897-9.762-.271-11.66-4.877l-11.659-23.842c-.813-1.355-5.423-38.202-4.067-37.118 16.269 13.005 32.266 54.187 32.266 54.187z" fill="#FCA70C"/><path d="M107.934 177.649c-3.525 3.522-13.557-7.044-10.032-10.567l29.013-26.009a9.003 9.003 0 0 1 12.743 0 8.989 8.989 0 0 1 0 12.734l-31.724 23.842z" fill="#FCA70C"/></g></svg>