<svg width="158" height="157" viewBox="0 0 158 157" fill="none" xmlns="http://www.w3.org/2000/svg"><circle cx="80.063" cy="78.646" r="77.937" fill="#EEF2FA"/><mask id="a" maskUnits="userSpaceOnUse" x="2" y="0" width="156" height="156"><circle cx="80.063" cy="77.937" r="77.937" fill="#EEF2FA"/></mask><g mask="url(#a)"><path d="M26.811 172.02c3.038-15.942 7.088-28.341 12.657-37.704l1.013-40.993c-11.645 8.604-24.555 36.691-35.187 67.563l-.759 1.771v2.024c0 1.266-2.278 35.68 6.075 64.779h20.505c-6.329-22.014-6.329-51.62-4.304-57.44z" fill="#FCA70C"/><path d="M117.689 232.244V96.613c0-4.302-3.797-6.832-7.594-8.604-6.582-2.53-21.264-8.603-21.264-8.603H69.086s-15.695 5.314-21.264 8.603c-3.797 2.025-7.594 4.302-7.594 8.604V231.99h77.461v.253z" fill="#DAD8D5"/><path d="M117.689 232.244V96.613c0-4.302-3.797-6.832-7.594-8.604-6.582-2.53-21.264-8.603-21.264-8.603l-9.873 54.151-9.872-54.151S53.39 84.72 47.822 88.009c-3.797 2.025-8.1 5.061-8.1 7.086l.506 137.149h77.461z" fill="#007FFF"/><path d="M88.83 79.659L78.706 90.287l-9.62-10.628v-9.616h19.746v9.616z" fill="#F8A899"/><path d="M100.729 58.656c0 4.302-10.885 16.954-21.77 16.954-10.632 0-21.77-11.893-21.77-16.954V42.462c0-12.147 9.872-21.762 21.77-21.762 12.15 0 21.77 9.869 21.77 21.762v16.194z" fill="#F8A899"/><path d="M104.394 51.746c.803-2.384.057-4.786-1.666-5.366-1.723-.579-3.77.884-4.572 3.268-.803 2.384-.057 4.787 1.666 5.366 1.723.58 3.77-.883 4.572-3.268zM57.863 54.856c1.723-.58 2.47-2.982 1.667-5.366-.802-2.384-2.85-3.848-4.572-3.268-1.722.579-2.468 2.981-1.666 5.365.802 2.385 2.849 3.848 4.571 3.269z" fill="#F8A899"/><path d="M78.705 90.287l10.126-10.375 5.063 2.024s6.328 6.58 6.835 13.918l-7.341-4.302-14.683-1.265zM78.705 90.287l-9.619-10.375-5.57 1.771s-6.074 6.832-6.834 14.17l7.341-4.301 14.682-1.265z" fill="#ECE5E5"/><path d="M56.935 50.559s2.279-8.35 7.594-12.146l3.038-4.555s3.291-1.012 11.138 2.277c7.848 3.037 9.873 7.845 17.467 6.074 0 0 3.29 6.579 3.797 9.109 0 0 1.772-5.567 2.278-10.88.507-5.315 1.519-18.726-14.935-23.028-17.213-4.555-24.301 6.326-24.301 6.326s-1.52-1.771-5.823 5.061c-3.037 4.808-3.29 12.905 0 22.521" fill="#310072"/><path d="M100.729 52.077c0-3.29-3.544-7.591-3.544-7.591s1.519 9.869-2.279 14.676C91.616 63.464 81.49 69.79 78.452 69.79c-3.037 0-13.163-6.579-16.454-10.628-3.544-5.06-2.025-15.941-2.025-15.941s-3.544 5.567-3.544 8.856c0 0-1.266 6.832 1.519 11.134 3.038 4.555 13.163 11.387 13.163 11.387s4.304 2.53 7.341 2.53c3.038-.252 7.341-2.53 7.341-2.53s10.38-6.326 13.417-10.88c3.038-4.303 1.519-11.64 1.519-11.64z" fill="#310072"/><path d="M91.362 65.489l-2.278-3.29c-.76-.506-4.557-3.037-9.62-3.037-6.834 0-10.884 1.519-11.897 2.53-1.266 1.266-2.531 3.544-2.531 3.544l-4.05-2.025s1.518-2.783 3.29-4.808c2.279-2.277 8.354-3.795 15.189-3.795 7.594 0 12.657 4.048 12.91 4.301l.253.253 2.531 4.05-3.797 2.276z" fill="#310072"/><path d="M113.386 132.545H59.973v82.239h53.413v-82.239z" fill="#E6E7E8"/><path d="M87.819 203.144c37.971-2.784 70.626-33.908 70.626-33.908 0-43.523-34.68-72.876-44.3-78.696 0 0 3.544 3.795 3.544 6.326v37.45c7.848 8.351 10.632 15.183 14.429 27.329-13.163 10.628-24.807 18.978-50.121 23.28l5.822 18.219z" fill="#FCA70C"/></g></svg>