<svg width="158" height="156" viewBox="0 0 158 156" fill="none" xmlns="http://www.w3.org/2000/svg"><circle cx="79.705" cy="78.295" r="77.589" fill="#EEF2FA"/><mask id="a" maskUnits="userSpaceOnUse" x="2" y="0" width="157" height="156"><circle cx="80.411" cy="77.589" r="77.589" fill="#EEF2FA"/></mask><g mask="url(#a)"><path d="M52.392 90.135s-13.874 4.002-21.204 39.491C28.308 143.501 27 144.568 27 164.848h14.136l7.33-37.624c.261-22.413 3.926-37.09 3.926-37.09z" fill="#555BE4"/><path d="M86.948 15.956c-4.188-2.669-10.471-6.671-23.56-1.335-10.995 4.537-20.42 23.215-6.283 66.709 3.927 12.274 1.309 36.022-4.712 48.83 0 0 45.027-28.551 48.168-57.102 1.571-18.412-1.047-49.097-13.613-57.102z" fill="#310072"/><path d="M112.603 91.47c-6.283-2.936-21.466-10.14-21.466-10.14H72.55s-10.995 6.137-17.277 9.072c0 0-7.854 32.02-3.142 52.032 4.45 19.479 6.021 45.895 6.021 45.895h46.859s-1.047-26.683 4.974-45.361c8.377-25.349 2.618-51.499 2.618-51.499z" fill="#ECE5E5"/><path d="M81.974 90.135c.262 8.272.524 16.277.524 24.549l.262 24.548-.262 24.549c0 8.271-.262 16.276-.524 24.548-.261-8.272-.523-16.277-.523-24.548l-.262-24.549.262-24.548c0-8.272.262-16.277.523-24.549z" fill="#DAD8D5"/><path d="M90.875 81.33l-8.9 8.805-9.424-8.805V65.587h18.324V81.33z" fill="#F8A899"/><path d="M101.346 54.647c-1.57 6.937-11.256 20.279-19.895 20.279-7.33 0-19.372-10.94-19.896-18.412 0 0-1.832-13.074-2.094-17.344-.785-12.808 10.995-23.48 21.99-23.48s23.299 10.406 22.513 23.48c-.523 4.536-1.832 11.207-2.618 15.477z" fill="#F9B4A8"/><path d="M90.875 81.33l20.419 8.805s2.094 1.601 2.88 5.603c.523 2.936 4.188 39.225-6.807 77.649-3.141 11.207 7.854 20.546 9.425 33.887l-35.08 4.536v-66.708l9.163-63.772zM72.289 81.33l-20.42 8.805s-2.094 1.601-2.88 5.603c-.523 2.936-4.188 39.225 6.807 77.649 3.142 11.207-7.853 20.546-9.424 33.887l35.079 4.536v-66.708L72.289 81.33z" fill="#555BE4"/><path d="M81.974 90.135s9.686-4.803 15.184-3.202c0 0-.524-6.137-6.283-7.205v1.602l-8.9 8.805zM81.974 90.135s-9.686-4.803-15.183-3.202c0 0 0-6.137 5.759-7.205v1.602l9.424 8.805z" fill="#DAD8D5"/><path opacity=".7" d="M81.45 15.422c-6.806 1.067-12.827 4.536-17.015 9.606-2.095 2.668-3.403 5.604-4.45 8.806-.524 1.6-.786 3.201-.786 5.07-.262 1.867-.262 3.468.262 5.07-1.047-1.335-1.309-3.47-1.57-5.07-.263-1.869-.263-3.736 0-5.337.523-3.736 2.093-7.205 4.45-10.14 2.355-2.935 5.235-5.337 8.638-6.67 3.403-1.335 7.069-1.869 10.472-1.335z" fill="#391617"/><path d="M81.713 15.422c-13.351 0-23.56 11.207-22.775 23.748 0 1.067 0 2.668 1.047 4.536 1.047 0 3.665.267 4.712 3.736 0 0-3.665-14.41 3.665-17.078 4.45-1.6 9.162 4.27 13.35 4.27 8.901 0 8.116-6.671 12.828-5.337 7.854 1.868 3.927 18.145 3.927 18.145 1.047-3.736 3.665-3.736 4.712-3.736.262-1.868.262-3.469.524-4.536 1.047-12.541-8.116-23.748-21.99-23.748z" fill="#310072"/><path d="M104.49 49.516c.923-2.793.339-5.515-1.306-6.08-1.644-.564-3.725 1.243-4.648 4.036-.923 2.793-.338 5.515 1.306 6.08 1.644.564 3.725-1.242 4.648-4.036zM63.273 53.599c1.644-.564 2.228-3.286 1.306-6.08-.923-2.793-3.005-4.6-4.649-4.035-1.644.564-2.229 3.286-1.306 6.08.923 2.793 3.005 4.6 4.649 4.035z" fill="#F9B4A8"/><path d="M101.87 68.522h-2.618l1.309-8.539 1.309-8.272 1.571 8.272 1.309 8.539h-2.88zM60.508 68.522h-2.88l1.571-8.539 1.309-8.272 1.309 8.272 1.57 8.539h-2.879z" fill="#FCA70C"/><path d="M111.556 90.669s30.629 27.483 47.906 42.159l-15.445 12.274-27.487-18.678c0-.267-11.519-28.017-4.974-35.755z" fill="#555BE4"/><path d="M159.462 132.828s8.377 12.275 1.833 23.748l-17.278-11.74 15.445-12.008zM143.755 144.836l-26.963 47.763s1.832 9.606 8.9 11.74l35.603-47.763-17.54-11.74z" fill="#555BE4"/></g></svg>