<svg width="158" height="158" viewBox="0 0 158 158" fill="none" xmlns="http://www.w3.org/2000/svg"><circle cx="79" cy="79" r="79" fill="#EEF2FA"/><mask id="a" maskUnits="userSpaceOnUse" x="0" y="0" width="158" height="158"><circle cx="79" cy="79" r="79" fill="#EEF2FA"/></mask><g mask="url(#a)"><path d="M115.242 237.328l6.989-141.273c0-4.281-3.763-6.957-7.795-8.562-6.72-2.676-25.804-8.562-25.804-8.562l-9.945 12.308-9.945-12.308s-17.47 5.351-23.384 8.562c-3.763 2.14-8.332 5.084-8.332 6.957l6.988 142.878h71.228z" fill="#E6E7E8"/><path d="M78.15 97.66a1.34 1.34 0 0 0 1.343-1.337 1.34 1.34 0 0 0-1.344-1.338 1.34 1.34 0 0 0-1.344 1.338 1.34 1.34 0 0 0 1.344 1.337zM78.15 122.811a1.34 1.34 0 0 0 1.343-1.338 1.34 1.34 0 0 0-1.344-1.337 1.34 1.34 0 0 0-1.344 1.337 1.34 1.34 0 0 0 1.344 1.338zM78.15 148.23a1.34 1.34 0 0 0 1.343-1.338 1.34 1.34 0 0 0-1.344-1.338 1.34 1.34 0 0 0-1.344 1.338 1.34 1.34 0 0 0 1.344 1.338z" fill="#BCBEC0"/><path d="M113.898 86.422c-4.838-1.872-16.933-5.618-24.46-8.026 0 0-.805 120.403-.805 154.384 0 0 4.3 2.943 12.901 6.154 4.032 1.337 17.74 1.337 17.74 1.337l2.688-144.751c.269-4.549-3.763-7.224-8.064-9.097zM45.09 86.422c4.837-1.872 16.933-5.618 24.459-8.026 0 0 .806 120.403.806 154.384 0 0-4.3 2.943-12.902 6.154-4.031 1.337-17.74 1.337-17.74 1.337L37.027 95.52c0-4.549 4.032-7.224 8.063-9.097z" fill="#34439E"/><path d="M89.44 78.663L78.42 90.971l-9.946-12.308V68.496H89.44v10.167z" fill="#F8A899"/><path d="M102.071 56.455c0 4.549-11.558 17.927-23.115 17.927-11.29 0-23.116-12.575-23.116-17.927V39.331c0-12.843 10.483-23.01 23.116-23.01 12.901 0 23.115 10.435 23.115 23.01v17.124z" fill="#F9B4A8"/><path d="M106.204 49.008c.853-2.521.062-5.062-1.767-5.675-1.829-.613-4.003.934-4.856 3.455-.852 2.52-.06 5.06 1.768 5.674 1.829.613 4.003-.934 4.855-3.455zM56.584 52.48c1.83-.613 2.62-3.153 1.768-5.674-.853-2.52-3.026-4.067-4.855-3.454-1.83.613-2.62 3.153-1.768 5.674.853 2.52 3.027 4.067 4.855 3.454z" fill="#F8A899"/><path d="M40.52 89.098s-29.029 19.8-29.029 97.393h23.116s3.225-41.205 3.225-49.499c0-24.616 2.688-47.894 2.688-47.894zM119.005 89.366s28.223 19.532 28.223 97.125h-22.847s-3.225-41.204-3.225-49.499c-.269-24.616-2.151-47.626-2.151-47.626z" fill="#34439E"/><path d="M78.419 90.971s1.881-3.478 4.3-7.224c1.344-2.14 4.839-4.014 6.72-5.352 0 0 1.344.268 2.15.536.807.267 3.226 1.337 3.226 1.337s-1.882 7.76-2.42 9.098c.27.267-6.719-5.352-13.976 1.605z" fill="#D1D3D4"/><path d="M78.419 90.971s-1.882-3.478-4.3-7.224c-1.344-2.14-3.763-4.014-5.645-5.351 0 0-2.688.267-3.494.267-.806.268-3.226 1.338-3.226 1.338s1.882 7.76 2.42 9.097c0 .535 6.988-5.084 14.245 1.873z" fill="#D1D3D4"/><path d="M56.647 48.429h2.688c.269-2.676 2.419-10.168 6.988-13.379h24.191s7.795 2.409 7.795 13.379h2.956c1.344-3.211 1.613-9.9 1.344-16.054-.269-4.281-1.344-7.492-6.182-8.83 0 0 5.645-9.9-8.87-9.9H71.7c-5.107 0-16.933 5.62-16.933 23.813.268 3.211 1.881 10.97 1.881 10.97z" fill="#2C2825"/></g></svg>