<svg width="37" height="37" viewBox="0 0 37 37" fill="none" xmlns="http://www.w3.org/2000/svg"><circle cx="18.5" cy="18.5" r="18.5" fill="#7057D6" fill-opacity=".2"/><path d="M26.047 9.719h-1.862v-.547c0-.646-.526-1.172-1.172-1.172-.646 0-1.172.526-1.172 1.172v.547H15.28v-.547c0-.646-.526-1.172-1.172-1.172-.646 0-1.172.526-1.172 1.172v.561a.39.39 0 0 0-.104-.014h-1.557a1.955 1.955 0 0 0-1.953 1.953v6.654a.39.39 0 1 0 .781 0v-4.584h14.083a.39.39 0 0 0 0-.781H10.103v-1.29c0-.645.525-1.171 1.171-1.171h1.557a.389.389 0 0 0 .104-.014v.502c0 .646.526 1.172 1.172 1.172.646 0 1.172-.526 1.172-1.172V10.5h6.562v.488c0 .646.526 1.172 1.172 1.172.646 0 1.172-.526 1.172-1.172V10.5h1.862c.646 0 1.172.526 1.172 1.172v14.843a.704.704 0 0 1-1.407 0v-1.01a.39.39 0 0 0-.39-.39h-4.544a.39.39 0 1 0 0 .78h4.153v.62c0 .255.064.494.177.704H9.484a.704.704 0 0 1-.703-.703v-.62h8.743a.39.39 0 0 0 0-.782h-3.903a3.196 3.196 0 0 0 1.117-2.427 3.207 3.207 0 0 0-3.204-3.203 3.207 3.207 0 0 0-3.203 3.203c0 .97.434 1.84 1.116 2.427H8.391a.39.39 0 0 0-.391.39v1.012C8 27.334 8.666 28 9.484 28h17.031c.819 0 1.485-.666 1.485-1.485V11.672a1.955 1.955 0 0 0-1.953-1.953zm-11.55 1.27a.391.391 0 0 1-.78 0V9.171a.391.391 0 0 1 .78 0v1.816zm8.907 0a.391.391 0 0 1-.782 0V9.171a.391.391 0 0 1 .782 0v1.816zM9.112 22.686a2.425 2.425 0 0 1 2.422-2.421 2.425 2.425 0 0 1 2.422 2.422 2.425 2.425 0 0 1-2.422 2.421 2.425 2.425 0 0 1-2.422-2.422z" fill="#7057D6"/><path d="M26.293 13.075a.393.393 0 0 0-.552 0 .394.394 0 0 0 0 .553.393.393 0 0 0 .552 0 .393.393 0 0 0 0-.553zM19.666 25.229a.393.393 0 0 0-.553 0 .394.394 0 0 0 0 .552.393.393 0 0 0 .553 0 .394.394 0 0 0 0-.553zM16.837 19.875c-.818 0-1.484.666-1.484 1.484 0 .819.666 1.485 1.484 1.485.819 0 1.485-.666 1.485-1.485 0-.818-.666-1.484-1.485-1.484zm0 2.188a.704.704 0 1 1 .002-1.408.704.704 0 0 1-.002 1.407zM20.483 19.875c-.818 0-1.484.666-1.484 1.484 0 .819.666 1.485 1.484 1.485.819 0 1.485-.666 1.485-1.485 0-.818-.666-1.484-1.485-1.484zm0 2.188a.704.704 0 1 1 .002-1.408.704.704 0 0 1-.002 1.407zM24.13 19.875c-.82 0-1.485.666-1.485 1.484 0 .819.666 1.485 1.484 1.485.819 0 1.485-.666 1.485-1.485 0-.818-.666-1.484-1.485-1.484zm0 2.188a.704.704 0 1 1 .001-1.408.704.704 0 0 1-.002 1.407zM13.192 15.813c-.819 0-1.485.665-1.485 1.484 0 .818.666 1.484 1.485 1.484.818 0 1.484-.666 1.484-1.484 0-.819-.666-1.485-1.484-1.485zm0 2.187a.704.704 0 1 1 .001-1.408.704.704 0 0 1-.001 1.408zM20.483 15.813c-.818 0-1.484.665-1.484 1.484 0 .818.666 1.484 1.484 1.484.819 0 1.485-.666 1.485-1.484 0-.819-.666-1.485-1.485-1.485zm0 2.187a.704.704 0 1 1 .002-1.408.704.704 0 0 1-.002 1.408zM24.13 15.813c-.82 0-1.485.665-1.485 1.484 0 .818.666 1.484 1.484 1.484.819 0 1.485-.666 1.485-1.484 0-.819-.666-1.485-1.485-1.485zm0 2.187a.704.704 0 1 1 .001-1.408.704.704 0 0 1-.002 1.408zM16.837 15.813c-.818 0-1.484.665-1.484 1.484 0 .818.666 1.484 1.484 1.484.819 0 1.485-.666 1.485-1.484 0-.819-.666-1.485-1.485-1.485zm0 2.187a.704.704 0 1 1 .002-1.408.704.704 0 0 1-.002 1.408zM12.926 21.736a.39.39 0 0 0-.553 0l-1.272 1.272-.435-.435a.39.39 0 0 0-.552.552l.71.711a.39.39 0 0 0 .553 0l1.549-1.548a.39.39 0 0 0 0-.552z" fill="#7057D6"/></svg>