<svg width="138" height="160" viewBox="0 0 138 160" fill="none" xmlns="http://www.w3.org/2000/svg"><circle cx="68" cy="68" r="68" fill="#EEF2FA"/><path d="M79.113 139.736l-3.022-12.135H60.048l-3.022 12.135h22.087z" fill="#D1D6DE"/><path d="M77.272 132.342l-1.181-4.741H60.048l-1.181 4.741h18.405z" fill="#A2ADBC"/><path d="M110.648 53.324H25.491A6.498 6.498 0 0 0 19 59.815v63.039a6.498 6.498 0 0 0 6.49 6.491h85.158a6.499 6.499 0 0 0 6.491-6.491V59.815a6.499 6.499 0 0 0-6.491-6.49z" fill="#5C9CEE"/><path d="M110.648 53.324h-7.894a6.498 6.498 0 0 1 6.491 6.491v63.039a6.499 6.499 0 0 1-6.491 6.491h7.894a6.499 6.499 0 0 0 6.491-6.491V59.815a6.499 6.499 0 0 0-6.491-6.49z" fill="#3580D3"/><path d="M19 116.684v6.17a6.498 6.498 0 0 0 6.49 6.491h85.158a6.499 6.499 0 0 0 6.491-6.491v-6.17H19z" fill="#EBEEF2"/><path d="M109.245 122.854a6.499 6.499 0 0 1-6.491 6.491h7.894a6.499 6.499 0 0 0 6.491-6.491v-6.17h-7.894v6.17z" fill="#D1D6DE"/><path d="M34.277 67.251v5.306h50.146a.697.697 0 0 0 .697-.697V67.95a.697.697 0 0 0-.697-.698H34.277z" fill="#9FD479"/><path d="M34.277 76.87c-.963 0-1.743-.78-1.743-1.744V64.682a1.743 1.743 0 1 1 3.486 0v10.444c0 .963-.78 1.743-1.743 1.743z" fill="#1B3D66"/><path d="M34.277 84.106v5.305h30.611a.697.697 0 0 0 .697-.697v-3.911a.697.697 0 0 0-.697-.697H34.277z" fill="#ED5575"/><path d="M34.277 93.723c-.963 0-1.743-.78-1.743-1.743V81.536a1.743 1.743 0 1 1 3.486 0V91.98c0 .963-.78 1.743-1.743 1.743z" fill="#1B3D66"/><path d="M34.277 100.959v5.306h41.612a.697.697 0 0 0 .697-.697v-3.911a.698.698 0 0 0-.697-.698H34.277z" fill="#F2DF33"/><path d="M34.277 110.577c-.963 0-1.743-.78-1.743-1.743V98.39a1.743 1.743 0 1 1 3.486 0v10.444c0 .963-.78 1.743-1.743 1.743z" fill="#1B3D66"/><path d="M112.244 70.165c-14.202 0-25.756 11.554-25.756 25.756 0 14.201 11.554 25.756 25.756 25.756S138 110.123 138 95.921s-11.554-25.756-25.756-25.756z" fill="#48CFB7"/><path d="M120.116 71.397c7.719 4.454 12.925 12.794 12.925 22.327 0 14.202-11.554 25.756-25.756 25.756-2.744 0-5.39-.433-7.872-1.232a25.608 25.608 0 0 0 12.831 3.429c14.202 0 25.756-11.554 25.756-25.756 0-11.457-7.521-21.189-17.884-24.524z" fill="#35B5A0"/><path d="M112.244 84.736c-7.79 0-14.508 4.576-17.62 11.185 3.112 6.609 9.83 11.184 17.62 11.184 7.789 0 14.507-4.575 17.62-11.184-3.113-6.609-9.831-11.185-17.62-11.185z" fill="#EBEEF2"/><path d="M112.244 86.783a9.095 9.095 0 0 0-4.474 1.17 4.192 4.192 0 0 1 1.991 3.566 4.199 4.199 0 0 1-4.199 4.199 4.173 4.173 0 0 1-2.405-.761 9.138 9.138 0 0 0 9.087 10.102 9.138 9.138 0 0 0 0-18.276z" fill="#2E344C"/><path d="M86.229 137.993H49.91a5.253 5.253 0 0 0-5.247 5.247v2.693c0 .963.78 1.743 1.743 1.743h43.327c.963 0 1.743-.78 1.743-1.743v-2.693a5.253 5.253 0 0 0-5.247-5.247z" fill="#EBEEF2"/><path d="M86.229 137.993h-6.132a5.253 5.253 0 0 1 5.248 5.247v2.693c0 .963-.78 1.743-1.743 1.743h6.131c.963 0 1.743-.78 1.743-1.743v-2.693a5.253 5.253 0 0 0-5.247-5.247z" fill="#D1D6DE"/></svg>