<svg width="136" height="150" viewBox="0 0 136 150" fill="none" xmlns="http://www.w3.org/2000/svg"><circle cx="68" cy="68" r="68" fill="#EEF2FA"/><path d="M30.175 95.205H19.646c-.933 0-1.844-.395-2.722-.21C10.998 96.25 6.55 101.51 6.55 107.81v12.662c0 .565.457 1.022 1.022 1.022h34.677c.564 0 1.022-.457 1.022-1.022v-12.662c0-6.3-4.448-11.56-10.375-12.813-.878-.186-1.788.209-2.721.209z" fill="#ED5575"/><path d="M42.786 77.056v-9.76c0-9.873-8.003-17.876-17.876-17.876-9.872 0-17.876 8.003-17.876 17.876v9.76c0 2.628-.845 5.837-1.914 7.865a1.02 1.02 0 0 0 .902 1.5h37.777c.77 0 1.26-.818.902-1.5-1.069-2.028-1.915-5.237-1.915-7.865z" fill="#444966"/><path d="M38.166 72.186v2.785c0 7.32-5.936 13.253-13.256 13.253s-13.255-5.933-13.255-13.253v-8.628c0-.466.027-.927.078-1.38h1.694c1.8 0 3.41 1.122 4.036 2.812a6.754 6.754 0 0 0 6.334 4.412h14.369z" fill="#FCD0AE"/><path d="M32.896 94.998a13.135 13.135 0 0 0-2.721-.285H19.646c-.933 0-1.843.1-2.721.285.63 4.777 3.735 8.773 7.985 10.659 4.252-1.886 7.357-5.882 7.986-10.66z" fill="#EBEEF2"/><path d="M124.404 84.913a6.596 6.596 0 1 0 0-13.191 6.596 6.596 0 0 0 0 13.191z" fill="#2E344C"/><path d="M111.149 88.226c-7.321 0-13.255-5.935-13.255-13.255v-8.627c0-6.787 5.501-12.289 12.288-12.289h1.933c6.787 0 12.289 5.502 12.289 12.289v8.627c0 7.32-5.935 13.255-13.255 13.255z" fill="#FCD0AE"/><path d="M116.413 94.713h-10.529c-7.233 0-13.096 5.863-13.096 13.096v12.663c0 .564.457 1.021 1.022 1.021h34.677c.565 0 1.022-.457 1.022-1.021v-12.663c0-7.233-5.863-13.096-13.096-13.096z" fill="#5C9CEE"/><path d="M124.404 66.344v8.667c-18.96-1.672-20.561-11.899-20.561-11.899v6.54h-5.95v-3.308c0-6.787 5.501-12.288 12.289-12.288h1.933c6.787 0 12.289 5.501 12.289 12.288z" fill="#444966"/><path d="M119.134 94.998a13.13 13.13 0 0 0-2.721-.285h-10.529c-.933 0-1.843.1-2.721.285.629 4.777 3.735 8.773 7.986 10.659 4.251-1.886 7.356-5.882 7.985-10.66z" fill="#EBEEF2"/><path d="M93.147 112.159c-6.163-22.486-6.026-24.033-1.699-45.02.387-1.728.592-3.524.592-5.368 0-13.533-10.97-24.503-24.503-24.503S43.033 48.238 43.033 61.77c0 1.844.206 3.64.592 5.367 4.328 20.987 4.464 22.535-1.698 45.021a26.703 26.703 0 0 0-1.086 7.555c0 14.744 11.952 11.184 26.696 11.184 14.744 0 26.696 3.56 26.696-11.184 0-2.624-.38-5.159-1.086-7.555z" fill="#FCAB29"/><path d="M93.147 112.159c-6.163-22.486-6.026-24.034-1.699-45.02.387-1.728.592-3.524.592-5.368 0-13.533-10.97-24.503-24.503-24.503-.634 0-1.261.024-1.882.07 10.987.962 19.642 11.533 19.642 24.433 0 1.844-.178 3.64-.513 5.367-3.758 20.988-3.876 22.535 1.474 45.021.613 2.396.943 4.931.943 7.555 0 8.896-3.779 11.127-9.588 11.499 9.749.336 16.62-.321 16.62-11.499 0-2.624-.38-5.159-1.086-7.555z" fill="#DD8D19"/><path d="M75.191 98.286H59.882c-2.926 0-5.698.168-8.176 1.347-6.425 3.06-10.865 9.612-10.865 17.202v17.344a2.554 2.554 0 0 0 2.553 2.554H91.68a2.554 2.554 0 0 0 2.554-2.554v-17.343c0-7.643-4.502-14.233-10.999-17.265-2.443-1.14-5.169-1.285-8.043-1.285z" fill="#656D88"/><path d="M75.191 98.286h-3.86c3.986 0 7.65 1.063 10.54 3.665 3.877 3.489 6.36 8.86 6.36 14.885v17.343c0 1.41-1.014 2.554-2.266 2.554h5.714a2.554 2.554 0 0 0 2.554-2.554v-17.343c0-7.643-4.502-14.233-10.998-17.265-2.444-1.14-5.17-1.285-8.044-1.285z" fill="#444966"/><path d="M85.366 74.423c-.996 8.961-8.6 15.932-17.83 15.932-9.908 0-17.942-8.035-17.942-17.943V60.735c0-4.34 1.663-8.293 4.386-11.254 4.09 9.444 14.74 20.625 31.386 24.942z" fill="#FCD0AE"/><path d="M78.698 72.21a12.07 12.07 0 0 1-.095 2.212c-.753 8.35-6.158 14.97-12.947 15.834a18.18 18.18 0 0 0 1.88.098c9.23 0 16.833-6.97 17.83-15.932a52.997 52.997 0 0 1-6.668-2.211z" fill="#E59F6A"/><path d="M67.537 128.117l15.648-28.563a18.963 18.963 0 0 0-7.994-1.76H59.882c-2.856 0-5.562.633-7.994 1.76l15.649 28.563z" fill="#EBEEF2"/><path d="M70.318 104.803a7.542 7.542 0 0 0 4.76-7.01H59.995a7.542 7.542 0 0 0 4.76 7.01l-2.49 13.689 5.272 9.625 5.273-9.625-2.492-13.689z" fill="#ED5575"/></svg>