<svg width="37" height="37" viewBox="0 0 37 37" fill="none" xmlns="http://www.w3.org/2000/svg"><circle cx="18.5" cy="18.5" r="18.5" fill="#39C0F8" fill-opacity=".2"/><path d="M21.357 21.71c-.473 0-.859-.334-.859-.745 0-.41.386-.743.86-.743.473 0 .859.333.859.743a.39.39 0 0 0 .781 0c0-.715-.533-1.317-1.25-1.48v-.204a.39.39 0 0 0-.781 0v.203c-.717.164-1.25.766-1.25 1.481 0 .841.736 1.526 1.64 1.526.474 0 .86.333.86.743s-.386.744-.86.744c-.473 0-.859-.334-.859-.744a.39.39 0 0 0-.781 0c0 .716.533 1.318 1.25 1.481v.17a.39.39 0 0 0 .781 0v-.17c.717-.163 1.25-.765 1.25-1.48 0-.842-.736-1.526-1.64-1.526zM25.636 19.386a5.088 5.088 0 0 0-2.079-1.84.39.39 0 1 0-.338.704 4.323 4.323 0 0 1 2.437 3.875c0 .703-.173 1.4-.5 2.015a.39.39 0 1 0 .69.367 5.087 5.087 0 0 0-.21-5.121zM21.972 17.047h-.027a.39.39 0 0 0 0 .781h.025a.39.39 0 0 0 .002-.781zM19.5 26a4.323 4.323 0 0 1-2.438-3.875c0-.703.174-1.4.501-2.015a.39.39 0 1 0-.69-.367 5.089 5.089 0 0 0 .21 5.121 5.09 5.09 0 0 0 2.079 1.84.39.39 0 0 0 .521-.183.39.39 0 0 0-.183-.52zM20.773 26.422h-.022a.39.39 0 1 0-.004.781h.026a.39.39 0 0 0 0-.781z" fill="#39C0F8"/><path d="M23.133 15.725a1.79 1.79 0 0 0-.173-.319h1.017c.99 0 1.796-.806 1.796-1.797 0-.99-.806-1.796-1.796-1.796h-3.129A1.799 1.799 0 0 0 19.367 9h-9.57C8.807 9 8 9.806 8 10.797c0 .99.806 1.797 1.797 1.797h3.128a1.787 1.787 0 0 0 0 2.031h-1.019c-.99 0-1.797.806-1.797 1.797 0 .569.267 1.077.68 1.406a1.794 1.794 0 0 0 0 2.813 1.794 1.794 0 0 0 0 2.812c-.413.33-.68.837-.68 1.406 0 .991.806 1.797 1.797 1.797h4.604a6.623 6.623 0 0 0 4.85 2.11A6.648 6.648 0 0 0 28 22.125c0-3.047-2.064-5.622-4.867-6.4zm.844-3.131a1.017 1.017 0 0 1 0 2.031h-9.57a1.017 1.017 0 0 1 0-2.031h9.57zm-14.18-.781a1.017 1.017 0 0 1 0-2.032h9.57a1.017 1.017 0 0 1 0 2.031h-9.57zm2.11 3.593h9.57c.157 0 .308.037.443.102a6.62 6.62 0 0 0-5.26 1.93h-4.754a1.017 1.017 0 0 1 0-2.032zm0 2.813h4.086a6.623 6.623 0 0 0-1.004 2.031h-3.083a1.017 1.017 0 0 1 0-2.031zm0 2.812h2.902a6.652 6.652 0 0 0-.024 2.032h-2.879a1.017 1.017 0 0 1 0-2.032zm0 4.844a1.017 1.017 0 0 1 0-2.031h3.038c.197.735.517 1.42.937 2.031h-3.976zm9.452 2.11a5.866 5.866 0 0 1-5.859-5.86c0-3.23 2.628-5.86 5.86-5.86 3.23 0 5.859 2.63 5.859 5.86 0 3.23-2.629 5.86-5.86 5.86z" fill="#39C0F8"/></svg>