<svg width="136" height="148" viewBox="0 0 136 148" fill="none" xmlns="http://www.w3.org/2000/svg"><circle cx="68" cy="68" r="68" fill="#EEF2FA"/><path d="M102.041 61.06v70.215a5.02 5.02 0 0 1-5.021 5.021H36.98a5.02 5.02 0 0 1-5.021-5.021v-82.7a5.02 5.02 0 0 1 5.021-5.022h47.555l17.506 17.506z" fill="#EBEEF2"/><path d="M103.139 59.961L85.633 42.455A1.553 1.553 0 0 0 84.535 42H36.98a6.582 6.582 0 0 0-6.574 6.574v82.701a6.581 6.581 0 0 0 6.574 6.574h60.04a6.581 6.581 0 0 0 6.574-6.574V61.059c0-.412-.164-.807-.455-1.098zm-7.392-1.654v63.235c0 .524-.398.952-.918 1.016a7.502 7.502 0 0 0-6.526 6.526 1.03 1.03 0 0 1-1.016.918H46.713a1.03 1.03 0 0 1-1.016-.918 7.502 7.502 0 0 0-6.526-6.526 1.03 1.03 0 0 1-.918-1.016V58.307c0-.524.398-.953.918-1.016a7.503 7.503 0 0 0 6.526-6.526 1.03 1.03 0 0 1 1.016-.918h40.574c.524 0 .952.398 1.016.918a7.503 7.503 0 0 0 6.526 6.526c.52.064.918.492.918 1.016z" fill="#48CFB7"/><path d="M103.139 59.961l-11.61-11.61v5.072l6.538 6.538c.29.291.454.686.454 1.098v70.216a6.581 6.581 0 0 1-6.573 6.574h5.072a6.581 6.581 0 0 0 6.574-6.574V61.059c0-.412-.164-.807-.455-1.098z" fill="#35B5A0"/><path d="M103.139 59.961L85.633 42.455a1.553 1.553 0 0 0-2.651 1.098v12.485a6.581 6.581 0 0 0 6.574 6.574h12.485a1.552 1.552 0 0 0 1.098-2.65z" fill="#D1D6DE"/><path d="M79.525 65.038h-25.05a1.553 1.553 0 1 1 0-3.106h25.05a1.553 1.553 0 1 1 0 3.106z" fill="#1B3D66"/><path d="M86.483 81.484H47.517a1.553 1.553 0 1 1 0-3.106h38.966a1.553 1.553 0 1 1 0 3.106zM86.483 91.477H47.517a1.553 1.553 0 1 1 0-3.106h38.966a1.553 1.553 0 1 1 0 3.106zM86.483 101.47H47.517a1.553 1.553 0 1 1 0-3.105h38.966a1.553 1.553 0 1 1 0 3.105zM86.483 111.463H47.517a1.552 1.552 0 1 1 0-3.105h38.966a1.553 1.553 0 1 1 0 3.105z" fill="#656D88"/><path d="M81.722 123.688v22.759a1.552 1.552 0 0 1-2.994.58c-.894-2.219-2.155-3.782-3.542-4.457a3.493 3.493 0 0 0-1.553-.377c-.526 0-1.047.128-1.552.375-1.388.677-2.65 2.24-3.545 4.459a1.553 1.553 0 0 1-2.993-.58v-22.759c0-.857.695-1.552 1.552-1.552H80.17c.857 0 1.553.695 1.553 1.552z" fill="#5C9CEE"/><path d="M75.186 124.299v18.271a3.492 3.492 0 0 0-1.553-.377c-.526 0-1.047.128-1.552.375v-18.269a1.55 1.55 0 0 1 1.552-1.552c.857 0 1.553.693 1.553 1.552z" fill="#FFCE65"/><path d="M86.956 114.704l-1.274-1.021a1.183 1.183 0 0 1-.438-1.057l.178-1.623a4.274 4.274 0 0 0-1.231-3.506 4.275 4.275 0 0 0-3.507-1.232l-1.623.178a1.18 1.18 0 0 1-1.057-.438l-1.02-1.273a4.274 4.274 0 0 0-3.351-1.608c-1.31 0-2.531.586-3.35 1.608l-1.022 1.273a1.185 1.185 0 0 1-1.057.438l-1.623-.178a4.271 4.271 0 0 0-3.507 1.232 4.272 4.272 0 0 0-1.231 3.506l.178 1.623c.045.406-.119.801-.438 1.057l-1.274 1.021a4.275 4.275 0 0 0-1.608 3.351c0 1.31.587 2.531 1.608 3.35l1.274 1.022c.32.255.483.651.438 1.057l-.178 1.623a4.274 4.274 0 0 0 1.231 3.506 4.27 4.27 0 0 0 3.507 1.232l1.622-.178a1.18 1.18 0 0 1 1.058.438l1.021 1.273a4.278 4.278 0 0 0 3.35 1.609c1.31 0 2.531-.587 3.35-1.609l1.022-1.273c.256-.32.651-.484 1.057-.438l1.623.178a4.275 4.275 0 0 0 3.507-1.232 4.272 4.272 0 0 0 1.231-3.506l-.178-1.623c-.045-.406.119-.802.438-1.057l1.274-1.022a4.273 4.273 0 0 0 1.608-3.35c0-1.31-.586-2.531-1.608-3.351z" fill="#ED5575"/><path d="M86.956 114.705l-1.274-1.022a1.182 1.182 0 0 1-.438-1.057l.178-1.623a4.274 4.274 0 0 0-1.231-3.506 4.271 4.271 0 0 0-2.879-1.254 4.272 4.272 0 0 1 1.73 3.932l-.179 1.623c-.045.406.119.802.438 1.057l1.274 1.022a4.272 4.272 0 0 1 1.608 3.35c0 1.31-.586 2.531-1.608 3.351l-1.274 1.021a1.182 1.182 0 0 0-.438 1.057l.179 1.623a4.274 4.274 0 0 1-1.232 3.506 4.275 4.275 0 0 1-3.507 1.232l-1.622-.178a1.183 1.183 0 0 0-1.058.438l-1.02 1.273a4.272 4.272 0 0 1-3.351 1.609c-.054 0-.107-.003-.16-.005a4.268 4.268 0 0 0 2.54.833c1.31 0 2.532-.586 3.351-1.608l1.021-1.274a1.183 1.183 0 0 1 1.057-.438l1.623.179a4.281 4.281 0 0 0 3.507-1.232 4.276 4.276 0 0 0 1.231-3.507l-.178-1.622a1.184 1.184 0 0 1 .438-1.058l1.274-1.021a4.276 4.276 0 0 0 1.608-3.35 4.273 4.273 0 0 0-1.608-3.351z" fill="#CC3A60"/><path d="M73.633 124.299a6.244 6.244 0 1 0 .001-12.487 6.244 6.244 0 0 0 0 12.487z" fill="#FCAB29"/></svg>