<svg width="136" height="145" viewBox="0 0 136 145" fill="none" xmlns="http://www.w3.org/2000/svg"><circle cx="68" cy="68" r="68" fill="#EEF2FA"/><path d="M133.893 74.404a3.061 3.061 0 0 0-1.436-1.872l-40.04-23.117a3.062 3.062 0 0 0-2.34-.309 3.062 3.062 0 0 0-1.871 1.436L53.62 110.446a3.062 3.062 0 0 0-.308 2.339c.213.795.723 1.46 1.436 1.872l40.041 23.118a3.084 3.084 0 0 0 4.21-1.129l34.586-59.904c.411-.712.52-1.543.307-2.338z" fill="#EBEEF2"/><path d="M87.281 58.898h-3.9l-29.76 51.548a3.062 3.062 0 0 0-.309 2.339c.213.795.723 1.46 1.436 1.872l39.331 22.707V65.696a6.806 6.806 0 0 0-6.798-6.798z" fill="#D1D6DE"/><path d="M115.614 77.688a1.62 1.62 0 0 1-.812-.218L96.967 67.173a1.626 1.626 0 0 1 1.626-2.817l17.835 10.297a1.626 1.626 0 0 1-.814 3.035z" fill="#1B3D66"/><path d="M113.614 94.19c-.276 0-.555-.07-.811-.217L83.675 77.156a1.626 1.626 0 0 1 1.626-2.816l29.128 16.816a1.627 1.627 0 0 1-.815 3.035zM109.809 100.781c-.275 0-.555-.07-.811-.218L79.87 83.746a1.626 1.626 0 1 1 1.626-2.816l29.128 16.817a1.627 1.627 0 0 1-.815 3.034zM106.004 107.371c-.275 0-.555-.07-.811-.218L76.065 90.336a1.626 1.626 0 0 1 1.626-2.816l29.128 16.817a1.625 1.625 0 0 1-.815 3.034zM102.2 113.962c-.276 0-.556-.07-.812-.218L72.26 96.927a1.626 1.626 0 1 1 1.626-2.816l29.128 16.816a1.627 1.627 0 0 1-.814 3.035z" fill="#656D88"/><path d="M84.246 55.212H36.234a6.806 6.806 0 0 0-6.798 6.798v75.216a6.806 6.806 0 0 0 6.798 6.798h48.012a6.806 6.806 0 0 0 6.798-6.798V62.011a6.806 6.806 0 0 0-6.798-6.799z" fill="#48CFB7"/><path d="M84.246 55.212h-5.841a6.806 6.806 0 0 1 6.798 6.798v75.216a6.806 6.806 0 0 1-6.798 6.798h5.84a6.806 6.806 0 0 0 6.799-6.798V62.011a6.806 6.806 0 0 0-6.798-6.799z" fill="#35B5A0"/><path d="M23 67.288v5.098c0 .47.38.85.85.85h13.877c.47 0 .85-.381.85-.85v-5.098a.85.85 0 0 0-.85-.85H23.85a.85.85 0 0 0-.85.85zM23 93.855v5.098c0 .47.38.85.85.85h13.877c.47 0 .85-.381.85-.85v-5.099a.85.85 0 0 0-.85-.85H23.85a.85.85 0 0 0-.85.85zM23 120.421v5.098c0 .469.38.85.85.85h13.877a.85.85 0 0 0 .85-.85v-5.098a.85.85 0 0 0-.85-.85H23.85a.85.85 0 0 0-.85.85z" fill="#F2DF33"/><path d="M72.219 82.635H48.262a1.17 1.17 0 0 1-1.17-1.17v-8.45c0-.647.524-1.17 1.17-1.17H72.22c.646 0 1.17.523 1.17 1.17v8.45a1.17 1.17 0 0 1-1.17 1.17z" fill="#FCD0AE"/></svg>