<svg width="627" height="361" viewBox="0 0 627 361" fill="none" xmlns="http://www.w3.org/2000/svg"><path d="M74.07 0c-8.828 0-16.186 7.359-16.186 16.19V344.81c0 8.83 7.358 16.189 16.186 16.189h477.385c8.829 0 16.186-7.359 16.186-16.189V16.189C567.641 7.36 560.284 0 551.455 0H74.07z" fill="#EEF2FA"/><path d="M490.413 353.531H0S6.724 361 27.315 361H598.833c20.591 0 27.315-7.469 27.315-7.469H490.413z" fill="#5A77D1"/><path d="M626.148 341.083H0v12.448h626.148v-12.448z" fill="#DCDEE2"/><path d="M357.266 342.95h-87.761c0 2.681 2.52 4.98 5.459 4.98h76.843c2.939 0 5.459-2.107 5.459-4.98z" fill="#5A77D1"/><path fill="#fff" d="M71 24h487v303H71z"/><path d="M508.6 116.3H369.3c-6.4 0-11.6 5.2-11.6 11.6v47.2c0 6.4 5.2 11.6 11.6 11.6h139.3c6.4 0 11.6-5.2 11.6-11.6v-47.2c0-6.3-5.2-11.6-11.6-11.6z" fill="#D4EEFF"/><path d="M347 116.3h28.5L363 132.4l-16-16.1z" fill="#D4EEFF"/><path d="M373.09 130h5.28v.85h-4.29v2h2.18c.833 0 1.467.173 1.9.52.433.346.65.846.65 1.5 0 .686-.237 1.213-.71 1.58-.467.366-1.137.55-2.01.55h-3v-7zm2.96 6.21c.573 0 1.01-.11 1.31-.33.3-.22.45-.544.45-.97 0-.847-.587-1.27-1.76-1.27h-1.97v2.57h1.97zm8.788-4.51l-2.57 5.83c-.227.54-.494.92-.8 1.14-.3.22-.664.33-1.09.33a2.29 2.29 0 0 1-.76-.13c-.24-.08-.44-.2-.6-.36l.41-.72c.273.26.59.39.95.39a.886.886 0 0 0 .58-.19c.16-.12.303-.33.43-.63l.17-.37-2.34-5.29h1l1.85 4.24 1.83-4.24h.94zm3.99 5.3l-1.53-2.03-1.55 2.03h-1.07l2.09-2.71-1.99-2.59h1.07l1.46 1.91 1.45-1.91h1.05l-2 2.59 2.11 2.71h-1.09zm6-4.46h-2.94V137h-.96v-5.3h3.9v.84zm2.873-.89c.733 0 1.293.18 1.68.54.393.36.59.896.59 1.61v3.2h-.91v-.7c-.16.246-.39.436-.69.57-.293.126-.643.19-1.05.19-.593 0-1.07-.144-1.43-.43a1.387 1.387 0 0 1-.53-1.13c0-.467.17-.84.51-1.12.34-.287.88-.43 1.62-.43h1.52v-.19c0-.414-.12-.73-.36-.95-.24-.22-.593-.33-1.06-.33-.313 0-.62.053-.92.16-.3.1-.553.236-.76.41l-.4-.72c.273-.22.6-.387.98-.5.38-.12.783-.18 1.21-.18zm-.22 4.67c.367 0 .683-.08.95-.24.267-.167.46-.4.58-.7v-.74h-1.48c-.813 0-1.22.273-1.22.82 0 .266.103.476.31.63.207.153.493.23.86.23zm8.769-4.62v5.3h-.96v-4.46h-2.28l-.06 1.18c-.034.713-.097 1.31-.19 1.79-.094.473-.247.853-.46 1.14-.214.286-.51.43-.89.43-.174 0-.37-.03-.59-.09l.06-.81c.086.02.166.03.24.03a.65.65 0 0 0 .6-.35c.133-.234.22-.51.26-.83.04-.32.076-.777.11-1.37l.09-1.96h4.07zm5.806.84h-1.94V137h-.96v-4.46h-1.94v-.84h4.84v.84zm5.537 1.84c0 .073-.007.17-.02.29h-4.3c.06.466.263.843.61 1.13.353.28.79.42 1.31.42.633 0 1.143-.214 1.53-.64l.53.62c-.24.28-.54.493-.9.64-.353.146-.75.22-1.19.22-.56 0-1.057-.114-1.49-.34a2.537 2.537 0 0 1-1.01-.97 2.803 2.803 0 0 1-.35-1.4c0-.514.113-.977.34-1.39a2.47 2.47 0 0 1 .95-.96c.407-.234.863-.35 1.37-.35.507 0 .957.116 1.35.35.4.226.71.546.93.96.227.413.34.886.34 1.42zm-2.62-1.92c-.46 0-.847.14-1.16.42-.307.28-.487.646-.54 1.1h3.4a1.674 1.674 0 0 0-.55-1.09c-.307-.287-.69-.43-1.15-.43zm6.919-.81c.514 0 .974.113 1.38.34.407.226.724.543.95.95.234.406.35.876.35 1.41 0 .533-.116 1.006-.35 1.42a2.411 2.411 0 0 1-.95.95 2.79 2.79 0 0 1-1.38.34 2.5 2.5 0 0 1-1.05-.22 2.19 2.19 0 0 1-.8-.64v2.74h-.96v-7.24h.92v.84c.214-.294.484-.514.81-.66.327-.154.687-.23 1.08-.23zm-.08 4.57c.34 0 .644-.077.91-.23.274-.16.487-.38.64-.66.16-.287.24-.614.24-.98 0-.367-.08-.69-.24-.97a1.598 1.598 0 0 0-.64-.66 1.784 1.784 0 0 0-.91-.23c-.333 0-.636.08-.91.24-.266.153-.48.37-.64.65a1.99 1.99 0 0 0-.23.97c0 .366.077.693.23.98.154.28.367.5.64.66.274.153.577.23.91.23z" fill="#5E9EEB"/><path d="M326.5 163.3c11.653 0 21.1-9.447 21.1-21.1 0-11.653-9.447-21.1-21.1-21.1-11.653 0-21.1 9.447-21.1 21.1 0 11.653 9.447 21.1 21.1 21.1zM508.436 235H369.564c-6.38 0-11.564 6.362-11.564 14.191v40.618c0 7.829 5.184 14.191 11.564 14.191h138.872c6.38 0 11.564-6.362 11.564-14.191v-40.618c0-7.707-5.184-14.191-11.564-14.191z" fill="#D4EEFF"/><path d="M347 235.3h28.5L363 251.4l-16-16.1z" fill="#D4EEFF"/><path d="M398.828 271.724L391.103 264H374v32h24.828v-24.276z" fill="#fff"/><path d="M379.517 276.69h13.793a.552.552 0 1 0 0-1.104h-13.793a.552.552 0 0 0 0 1.104zM379.517 272.276h5.517a.552.552 0 1 0 0-1.104h-5.517a.552.552 0 0 0 0 1.104zM393.31 280h-13.793a.552.552 0 0 0 0 1.103h13.793a.551.551 0 1 0 0-1.103zM393.31 284.414h-13.793a.552.552 0 1 0 0 1.103h13.793a.551.551 0 1 0 0-1.103zM393.31 288.828h-13.793a.552.552 0 1 0 0 1.103h13.793a.552.552 0 1 0 0-1.103zM391.104 264v7.724h7.724L391.104 264z" fill="#D5D0BB"/><path d="M404.345 283.862h-12.138V296h12.138v-12.138z" fill="#21AE5E"/><path d="M398.828 284.737h-1.104v8.828h1.104v-8.828z" fill="#fff"/><path d="M398.276 294.345l-3.862-3.701.814-.78 3.048 2.921 3.048-2.921.814.78-3.862 3.701z" fill="#fff"/><path d="M326.5 282.3c11.653 0 21.1-9.447 21.1-21.1 0-11.653-9.447-21.1-21.1-21.1-11.653 0-21.1 9.447-21.1 21.1 0 11.653 9.447 21.1 21.1 21.1z" fill="#D4EEFF"/><path d="M291.2 61H129.6c-6.4 0-11.6 5.2-11.6 11.6v27.2c0 6.4 5.2 11.6 11.6 11.6h139.3c6.4 0 11.6-5.2 11.6-11.6V72.6v-.8L291.2 61z" fill="#5E9EEB"/><path d="M139.64 79.25h-3.72l-.77 1.75h-1.03l3.17-7h.99l3.18 7h-1.05l-.77-1.75zm-.35-.8l-1.51-3.43-1.51 3.43h3.02zm3.218-2.75h.96v2.25h3.02V75.7h.96V81h-.96v-2.22h-3.02V81h-.96v-5.3zm6.807 0h.96v2.25h3.02V75.7h.96V81h-.96v-2.22h-3.02V81h-.96v-5.3zm8.696-.05c.734 0 1.294.18 1.68.54.394.36.59.896.59 1.61V81h-.91v-.7c-.16.246-.39.436-.69.57-.293.126-.643.19-1.05.19-.593 0-1.07-.144-1.43-.43a1.385 1.385 0 0 1-.53-1.13c0-.467.17-.84.51-1.12.34-.287.88-.43 1.62-.43h1.52v-.19c0-.414-.12-.73-.36-.95-.24-.22-.593-.33-1.06-.33-.313 0-.62.053-.92.16-.3.1-.553.236-.76.41l-.4-.72c.274-.22.6-.387.98-.5.38-.12.784-.18 1.21-.18zm-.22 4.67c.367 0 .684-.08.95-.24.267-.167.46-.4.58-.7v-.74h-1.48c-.813 0-1.22.273-1.22.82 0 .266.104.476.31.63.207.153.494.23.86.23zm13.735-.19v2.4h-.93V81h-5.76l-.01 1.53h-.93l.01-2.4h.34c.44-.027.75-.374.93-1.04.18-.674.29-1.62.33-2.84l.07-2.25h4.92v6.13h1.03zm-5.14-3.79c-.034.986-.114 1.803-.24 2.45-.12.646-.317 1.093-.59 1.34h3.95v-5.26h-3.07l-.05 1.47zm11.02 2.04c0 .073-.007.17-.02.29h-4.3c.06.466.263.843.61 1.13.353.28.79.42 1.31.42.633 0 1.143-.214 1.53-.64l.53.62c-.24.28-.54.493-.9.64a3.08 3.08 0 0 1-1.19.22c-.56 0-1.057-.114-1.49-.34a2.523 2.523 0 0 1-1.01-.97 2.79 2.79 0 0 1-.35-1.4c0-.514.113-.977.34-1.39a2.48 2.48 0 0 1 .95-.96 2.7 2.7 0 0 1 1.37-.35c.506 0 .956.116 1.35.35.4.226.71.546.93.96.226.413.34.886.34 1.42zm-2.62-1.92c-.46 0-.847.14-1.16.42-.307.28-.487.646-.54 1.1h3.4a1.679 1.679 0 0 0-.55-1.09c-.307-.287-.69-.43-1.15-.43zm4.109-.76h.96v2.25h3.02V75.7h.96V81h-.96v-2.22h-3.02V81h-.96v-5.3zm6.806 0h.96v3.86l3.25-3.86h.87V81h-.96v-3.86l-3.24 3.86h-.88v-5.3zm9.254 5.36c-.54 0-1.023-.117-1.45-.35a2.585 2.585 0 0 1-.99-.96c-.24-.414-.36-.88-.36-1.4 0-.52.12-.984.36-1.39.24-.414.57-.734.99-.96.427-.234.91-.35 1.45-.35.48 0 .907.096 1.28.29.38.193.673.473.88.84l-.73.47a1.631 1.631 0 0 0-.62-.57 1.769 1.769 0 0 0-.82-.19c-.347 0-.66.076-.94.23-.273.153-.49.373-.65.66a1.99 1.99 0 0 0-.23.97c0 .373.077.703.23.99.16.28.377.496.65.65.28.153.593.23.94.23.3 0 .573-.064.82-.19.247-.127.453-.317.62-.57l.73.46c-.207.366-.5.65-.88.85-.373.193-.8.29-1.28.29zm5.595 0c-.527 0-1-.117-1.42-.35a2.585 2.585 0 0 1-.99-.96 2.79 2.79 0 0 1-.35-1.4c0-.52.116-.984.35-1.39.24-.414.57-.734.99-.96.42-.234.893-.35 1.42-.35.526 0 .996.116 1.41.35.42.226.746.546.98.96.24.406.36.87.36 1.39 0 .52-.12.986-.36 1.4-.234.406-.56.726-.98.96-.414.233-.884.35-1.41.35zm0-.84c.34 0 .643-.077.91-.23a1.7 1.7 0 0 0 .64-.66 2.05 2.05 0 0 0 .23-.98c0-.367-.077-.69-.23-.97a1.613 1.613 0 0 0-.64-.66 1.794 1.794 0 0 0-.91-.23c-.34 0-.647.076-.92.23-.267.153-.48.373-.64.66a1.98 1.98 0 0 0-.23.97c0 .366.076.693.23.98.16.28.373.5.64.66.273.153.58.23.92.23zm7.746-1.97c.687.173 1.03.603 1.03 1.29 0 .466-.177.826-.53 1.08-.347.253-.867.38-1.56.38h-2.55v-5.3h2.46c.627 0 1.117.12 1.47.36.353.233.53.566.53 1 0 .28-.077.523-.23.73-.147.2-.353.353-.62.46zm-2.67-.27h1.44c.367 0 .643-.067.83-.2a.662.662 0 0 0 .29-.58c0-.507-.373-.76-1.12-.76h-1.44v1.54zm1.54 2.28c.4 0 .7-.064.9-.19.2-.127.3-.324.3-.59 0-.274-.093-.477-.28-.61-.18-.134-.467-.2-.86-.2h-1.6v1.59h1.54zm5.552-4.61c.734 0 1.294.18 1.68.54.394.36.59.896.59 1.61V81h-.91v-.7c-.16.246-.39.436-.69.57-.293.126-.643.19-1.05.19-.593 0-1.07-.144-1.43-.43a1.385 1.385 0 0 1-.53-1.13c0-.467.17-.84.51-1.12.34-.287.88-.43 1.62-.43h1.52v-.19c0-.414-.12-.73-.36-.95-.24-.22-.593-.33-1.06-.33-.313 0-.62.053-.92.16-.3.1-.553.236-.76.41l-.4-.72c.274-.22.6-.387.98-.5.38-.12.784-.18 1.21-.18zm-.22 4.67c.367 0 .684-.08.95-.24.267-.167.46-.4.58-.7v-.74h-1.48c-.813 0-1.22.273-1.22.82 0 .266.104.476.31.63.207.153.494.23.86.23zM260.2 89.5h-126V93h126v-3.5zM210.2 101h-76v-3.5h76v3.5z" fill="#fff"/><path d="M291.2 181H129.6c-6.4 0-11.6 5.2-11.6 11.6v27.2c0 6.4 5.2 11.6 11.6 11.6h139.3c6.4 0 11.6-5.2 11.6-11.6v-27.2-.8l10.7-10.8z" fill="#5E9EEB"/><path d="M139.64 199.25h-3.72l-.77 1.75h-1.03l3.17-7h.99l3.18 7h-1.05l-.77-1.75zm-.35-.8l-1.51-3.43-1.51 3.43h3.02zm3.218-2.75h.96v2.25h3.02v-2.25h.96v5.3h-.96v-2.22h-3.02V201h-.96v-5.3zm6.807 0h.96v2.25h3.02v-2.25h.96v5.3h-.96v-2.22h-3.02V201h-.96v-5.3zm8.696-.05c.734 0 1.294.18 1.68.54.394.36.59.896.59 1.61v3.2h-.91v-.7c-.16.246-.39.436-.69.57-.293.126-.643.19-1.05.19-.593 0-1.07-.144-1.43-.43a1.387 1.387 0 0 1-.53-1.13c0-.467.17-.84.51-1.12.34-.287.88-.43 1.62-.43h1.52v-.19c0-.414-.12-.73-.36-.95-.24-.22-.593-.33-1.06-.33-.313 0-.62.053-.92.16-.3.1-.553.236-.76.41l-.4-.72c.274-.22.6-.387.98-.5.38-.12.784-.18 1.21-.18zm-.22 4.67c.367 0 .684-.08.95-.24.267-.167.46-.4.58-.7v-.74h-1.48c-.813 0-1.22.273-1.22.82 0 .266.104.476.31.63.207.153.494.23.86.23zm13.735-.19v2.4h-.93V201h-5.76l-.01 1.53h-.93l.01-2.4h.34c.44-.027.75-.374.93-1.04.18-.674.29-1.62.33-2.84l.07-2.25h4.92v6.13h1.03zm-5.14-3.79c-.034.986-.114 1.803-.24 2.45-.12.646-.317 1.093-.59 1.34h3.95v-5.26h-3.07l-.05 1.47zm11.02 2.04c0 .073-.007.17-.02.29h-4.3c.06.466.263.843.61 1.13.353.28.79.42 1.31.42.633 0 1.143-.214 1.53-.64l.53.62c-.24.28-.54.493-.9.64-.354.146-.75.22-1.19.22-.56 0-1.057-.114-1.49-.34a2.53 2.53 0 0 1-1.01-.97 2.793 2.793 0 0 1-.35-1.4c0-.514.113-.977.34-1.39a2.47 2.47 0 0 1 .95-.96c.406-.234.863-.35 1.37-.35.506 0 .956.116 1.35.35.4.226.71.546.93.96.226.413.34.886.34 1.42zm-2.62-1.92c-.46 0-.847.14-1.16.42-.307.28-.487.646-.54 1.1h3.4a1.678 1.678 0 0 0-.55-1.09c-.307-.287-.69-.43-1.15-.43zm4.109-.76h.96v2.25h3.02v-2.25h.96v5.3h-.96v-2.22h-3.02V201h-.96v-5.3zm6.806 0h.96v3.86l3.25-3.86h.87v5.3h-.96v-3.86l-3.24 3.86h-.88v-5.3zm9.254 5.36c-.54 0-1.023-.117-1.45-.35a2.595 2.595 0 0 1-.99-.96c-.24-.414-.36-.88-.36-1.4 0-.52.12-.984.36-1.39.24-.414.57-.734.99-.96.427-.234.91-.35 1.45-.35.48 0 .907.096 1.28.29.38.193.673.473.88.84l-.73.47a1.62 1.62 0 0 0-.62-.57 1.765 1.765 0 0 0-.82-.19c-.347 0-.66.076-.94.23-.273.153-.49.373-.65.66a1.99 1.99 0 0 0-.23.97c0 .373.077.703.23.99.16.28.377.496.65.65.28.153.593.23.94.23.3 0 .573-.064.82-.19.247-.127.453-.317.62-.57l.73.46c-.207.366-.5.65-.88.85-.373.193-.8.29-1.28.29zm5.595 0c-.527 0-1-.117-1.42-.35a2.595 2.595 0 0 1-.99-.96 2.793 2.793 0 0 1-.35-1.4c0-.52.116-.984.35-1.39.24-.414.57-.734.99-.96.42-.234.893-.35 1.42-.35.526 0 .996.116 1.41.35.42.226.746.546.98.96.24.406.36.87.36 1.39 0 .52-.12.986-.36 1.4-.234.406-.56.726-.98.96-.414.233-.884.35-1.41.35zm0-.84c.34 0 .643-.077.91-.23a1.7 1.7 0 0 0 .64-.66c.153-.287.23-.614.23-.98 0-.367-.077-.69-.23-.97a1.61 1.61 0 0 0-.64-.66 1.787 1.787 0 0 0-.91-.23c-.34 0-.647.076-.92.23-.267.153-.48.373-.64.66-.154.28-.23.603-.23.97 0 .366.076.693.23.98.16.28.373.5.64.66.273.153.58.23.92.23zm7.746-1.97c.687.173 1.03.603 1.03 1.29 0 .466-.177.826-.53 1.08-.347.253-.867.38-1.56.38h-2.55v-5.3h2.46c.627 0 1.117.12 1.47.36.353.233.53.566.53 1 0 .28-.077.523-.23.73-.147.2-.353.353-.62.46zm-2.67-.27h1.44c.367 0 .643-.067.83-.2a.663.663 0 0 0 .29-.58c0-.507-.373-.76-1.12-.76h-1.44v1.54zm1.54 2.28c.4 0 .7-.064.9-.19.2-.127.3-.324.3-.59 0-.274-.093-.477-.28-.61-.18-.134-.467-.2-.86-.2h-1.6v1.59h1.54zm5.552-4.61c.734 0 1.294.18 1.68.54.394.36.59.896.59 1.61v3.2h-.91v-.7c-.16.246-.39.436-.69.57-.293.126-.643.19-1.05.19-.593 0-1.07-.144-1.43-.43a1.387 1.387 0 0 1-.53-1.13c0-.467.17-.84.51-1.12.34-.287.88-.43 1.62-.43h1.52v-.19c0-.414-.12-.73-.36-.95-.24-.22-.593-.33-1.06-.33-.313 0-.62.053-.92.16-.3.1-.553.236-.76.41l-.4-.72c.274-.22.6-.387.98-.5.38-.12.784-.18 1.21-.18zm-.22 4.67c.367 0 .684-.08.95-.24.267-.167.46-.4.58-.7v-.74h-1.48c-.813 0-1.22.273-1.22.82 0 .266.104.476.31.63.207.153.494.23.86.23z" fill="#fff"/><mask id="a" maskUnits="userSpaceOnUse" x="305" y="120" width="43" height="44"><path d="M326.1 163.2c11.653 0 21.1-9.447 21.1-21.1 0-11.653-9.447-21.1-21.1-21.1-11.653 0-21.1 9.447-21.1 21.1 0 11.653 9.447 21.1 21.1 21.1z" fill="#D4EEFF"/></mask><g mask="url(#a)"><path d="M336.591 136.27c1.16 4.635-1.546 12.071-4.639 18.347-2.609 5.215 5.702 13.906-1.063 23.562-6.764 9.657-6.185 14.774-12.176 14.774-5.025 0-5.605-2.027-7.635-8.401-2.222-6.469-2.126-19.699-.58-23.948 1.547-4.249 5.605-10.622 5.219-16.512-.483-5.794 2.513-11.395 2.513-11.395s4.252-7.822 11.403-5.118c6.088 2.221 6.282 5.987 6.958 8.691z" fill="#5D3F1C"/><path d="M317.359 153.555s-5.122 1.448-7.827 14.291c-1.063 5.022-1.547 7.05-1.547 14.389h5.219s2.126-14.485 2.126-17.189c.193-8.015 2.029-11.491 2.029-11.491z" fill="#FCA70C"/><path d="M338.234 154.714c-2.32-1.062-7.925-3.67-7.925-3.67h-6.861s-4.059 2.221-6.379 3.284c0 0-2.899 11.587-1.159 18.83 1.643 7.049 2.223 16.609 2.223 16.609h17.298s-.387-9.657 1.836-16.416c3.093-9.174.967-18.637.967-18.637z" fill="#E6E7E8"/><path d="M330.31 151.044l-3.383 3.187-3.479-3.187v-5.697h6.862v5.697z" fill="#F7A898"/><path d="M334.079 141.388c-.58 2.511-4.156 7.339-7.345 7.339-2.706 0-7.151-3.959-7.345-6.663 0 0-.676-4.732-.773-6.277-.29-4.635 4.059-8.497 8.118-8.497s8.601 3.766 8.311 8.497c-.097 1.642-.58 4.056-.966 5.601z" fill="#F8B4A7"/><path d="M331.179 150.562s2.609-5.118 2.609-6.857v-5.697c0-2.414-1.933-4.442-1.933-4.442-.289 0-.676 2.994-5.315 4.249-2.802.773-6.185-.773-6.185 4.828 0 2.607.387 5.601 1.74 7.629 0 0-5.509-3.09-5.509-12.167.097-2.318 2.61-11.105 9.568-11.105 5.025 0 10.533 3.38 10.533 11.201 0 4.442-1.642 11.105-5.508 12.361z" fill="#5E3F1C"/><path d="M330.309 151.044l7.537 3.187s.774.579 1.063 2.028c.194 1.062 1.547 14.195-2.512 28.1-1.16 4.056 2.899 7.436 3.479 12.264 0 0-.967 1.062-3.382 1.738-1.064.29-4.156-.097-4.156-.097l-2.029-47.22zM323.447 151.044l-6.378 2.608s-.773.579-1.063 2.027c-.193 1.063-2.029 12.94.773 27.714.87 4.732-2.513 9.657-2.802 13.23 0 0 1.063 1.062 3.479 1.255.966.097 4.058-.386 4.058-.386l1.933-46.448z" fill="#FCA70C"/><path d="M330.212 151.044l3.479 4.249-1.643 1.642 3.479 6.663-3.962 19.699-1.353-32.253zM323.64 151.141l-3.769 4.056 1.836 1.834-2.609 6.663 3.093 19.699 1.449-32.252z" fill="#F98011"/><path d="M326.927 154.231s3.575-1.738 5.605-1.159c0 0-.193-2.221-2.32-2.607v.483l-3.285 3.283zM326.926 154.231s-3.575-1.738-5.605-1.159c0 0 0-2.221 2.126-2.607v.483l3.479 3.283zM326.928 154.231c.096 2.994.193 5.891.193 8.884l.097 8.884-.097 8.884c0 2.993-.097 5.89-.193 8.884-.097-2.994-.194-5.891-.194-8.884l-.096-8.884.096-8.884c0-2.993.097-5.89.194-8.884z" fill="#C8CACB"/><path d="M333.42 160.74l-14.933 9.287 15.83 25.415 14.933-9.287-15.83-25.415z" fill="#C0373F"/><path d="M349.251 173.544a3.16 3.16 0 0 1-1.74 4.152 3.163 3.163 0 0 1-4.155-1.738l-4.156-8.498c-.29-.482-1.933-13.615-1.45-13.229 5.799 4.635 11.501 19.313 11.501 19.313z" fill="#FCA70C"/></g><mask id="b" maskUnits="userSpaceOnUse" x="305" y="240" width="43" height="43"><path d="M326.1 282.2c11.653 0 21.1-9.447 21.1-21.1 0-11.653-9.447-21.1-21.1-21.1-11.653 0-21.1 9.447-21.1 21.1 0 11.653 9.447 21.1 21.1 21.1z" fill="#D4EEFF"/></mask><g mask="url(#b)"><path d="M336.591 255.27c1.16 4.635-1.546 12.071-4.639 18.348-2.609 5.214 5.702 13.905-1.063 23.561-6.764 9.657-6.185 14.775-12.176 14.775-5.025 0-5.605-2.028-7.635-8.401-2.222-6.47-2.126-19.7-.58-23.948 1.547-4.249 5.605-10.623 5.219-16.513-.483-5.794 2.513-11.395 2.513-11.395s4.252-7.821 11.403-5.118c6.088 2.221 6.282 5.987 6.958 8.691z" fill="#5D3F1C"/><path d="M317.359 272.555s-5.122 1.449-7.827 14.292c-1.063 5.021-1.547 7.049-1.547 14.388h5.219s2.126-14.485 2.126-17.189c.193-8.014 2.029-11.491 2.029-11.491z" fill="#FCA70C"/><path d="M338.234 273.714c-2.32-1.062-7.925-3.669-7.925-3.669h-6.861s-4.059 2.221-6.379 3.283c0 0-2.899 11.588-1.159 18.83 1.643 7.049 2.223 16.609 2.223 16.609h17.298s-.387-9.656 1.836-16.416c3.093-9.174.967-18.637.967-18.637z" fill="#E6E7E8"/><path d="M330.31 270.045l-3.383 3.186-3.479-3.186v-5.698h6.862v5.698z" fill="#F7A898"/><path d="M334.079 260.388c-.58 2.511-4.156 7.339-7.345 7.339-2.706 0-7.151-3.959-7.345-6.663 0 0-.676-4.731-.773-6.277-.29-4.635 4.059-8.497 8.118-8.497s8.601 3.766 8.311 8.497c-.097 1.642-.58 4.056-.966 5.601z" fill="#F8B4A7"/><path d="M331.179 269.562s2.609-5.118 2.609-6.856v-5.698c0-2.414-1.933-4.442-1.933-4.442-.289 0-.676 2.994-5.315 4.249-2.802.773-6.185-.772-6.185 4.828 0 2.608.387 5.601 1.74 7.629 0 0-5.509-3.09-5.509-12.167.097-2.318 2.61-11.105 9.568-11.105 5.025 0 10.533 3.38 10.533 11.202 0 4.441-1.642 11.104-5.508 12.36z" fill="#5E3F1C"/><path d="M330.309 270.045l7.537 3.186s.774.58 1.063 2.028c.194 1.062 1.547 14.195-2.512 28.1-1.16 4.056 2.899 7.436 3.479 12.264 0 0-.967 1.062-3.382 1.738-1.064.29-4.156-.096-4.156-.096l-2.029-47.22zM323.447 270.045l-6.378 2.607s-.773.579-1.063 2.028c-.193 1.062-2.029 12.939.773 27.714.87 4.731-2.513 9.656-2.802 13.229 0 0 1.063 1.062 3.479 1.255.966.097 4.058-.386 4.058-.386l1.933-46.447z" fill="#FCA70C"/><path d="M330.212 270.045l3.479 4.248-1.643 1.642 3.479 6.663-3.962 19.699-1.353-32.252zM323.64 270.141l-3.769 4.056 1.836 1.835-2.609 6.663 3.093 19.699 1.449-32.253z" fill="#F98011"/><path d="M326.927 273.231s3.575-1.738 5.605-1.159c0 0-.193-2.221-2.32-2.607v.483l-3.285 3.283zM326.926 273.231s-3.575-1.738-5.605-1.159c0 0 0-2.221 2.126-2.607v.483l3.479 3.283zM326.928 273.231c.096 2.994.193 5.891.193 8.884l.097 8.884-.097 8.884c0 2.994-.097 5.891-.193 8.884-.097-2.993-.194-5.89-.194-8.884l-.096-8.884.096-8.884c0-2.993.097-5.89.194-8.884z" fill="#C8CACB"/><path d="M333.42 279.74l-14.933 9.287 15.83 25.415 14.933-9.287-15.83-25.415z" fill="#C0373F"/><path d="M349.251 292.544a3.161 3.161 0 0 1-1.74 4.153 3.164 3.164 0 0 1-4.155-1.739l-4.156-8.497c-.29-.483-1.933-13.616-1.45-13.23 5.799 4.635 11.501 19.313 11.501 19.313z" fill="#FCA70C"/></g><path d="M373.09 249h5.28v.85h-4.29v2h2.18c.833 0 1.467.173 1.9.52.433.346.65.846.65 1.5 0 .686-.237 1.213-.71 1.58-.467.366-1.137.55-2.01.55h-3v-7zm2.96 6.21c.573 0 1.01-.11 1.31-.33.3-.22.45-.544.45-.97 0-.847-.587-1.27-1.76-1.27h-1.97v2.57h1.97zm8.788-4.51l-2.57 5.83c-.227.54-.494.92-.8 1.14-.3.22-.664.33-1.09.33a2.29 2.29 0 0 1-.76-.13c-.24-.08-.44-.2-.6-.36l.41-.72c.273.26.59.39.95.39a.886.886 0 0 0 .58-.19c.16-.12.303-.33.43-.63l.17-.37-2.34-5.29h1l1.85 4.24 1.83-4.24h.94zm3.99 5.3l-1.53-2.03-1.55 2.03h-1.07l2.09-2.71-1.99-2.59h1.07l1.46 1.91 1.45-1.91h1.05l-2 2.59 2.11 2.71h-1.09zm6-4.46h-2.94V256h-.96v-5.3h3.9v.84zm2.873-.89c.733 0 1.293.18 1.68.54.393.36.59.896.59 1.61v3.2h-.91v-.7c-.16.246-.39.436-.69.57-.293.126-.643.19-1.05.19-.593 0-1.07-.144-1.43-.43a1.387 1.387 0 0 1-.53-1.13c0-.467.17-.84.51-1.12.34-.287.88-.43 1.62-.43h1.52v-.19c0-.414-.12-.73-.36-.95-.24-.22-.593-.33-1.06-.33-.313 0-.62.053-.92.16-.3.1-.553.236-.76.41l-.4-.72c.273-.22.6-.387.98-.5.38-.12.783-.18 1.21-.18zm-.22 4.67c.367 0 .683-.08.95-.24.267-.167.46-.4.58-.7v-.74h-1.48c-.813 0-1.22.273-1.22.82 0 .266.103.476.31.63.207.153.493.23.86.23zm8.769-4.62v5.3h-.96v-4.46h-2.28l-.06 1.18c-.034.713-.097 1.31-.19 1.79-.094.473-.247.853-.46 1.14-.214.286-.51.43-.89.43-.174 0-.37-.03-.59-.09l.06-.81c.086.02.166.03.24.03a.65.65 0 0 0 .6-.35c.133-.234.22-.51.26-.83.04-.32.076-.777.11-1.37l.09-1.96h4.07zm5.806.84h-1.94V256h-.96v-4.46h-1.94v-.84h4.84v.84zm5.537 1.84c0 .073-.007.17-.02.29h-4.3c.06.466.263.843.61 1.13.353.28.79.42 1.31.42.633 0 1.143-.214 1.53-.64l.53.62c-.24.28-.54.493-.9.64-.353.146-.75.22-1.19.22-.56 0-1.057-.114-1.49-.34a2.537 2.537 0 0 1-1.01-.97 2.803 2.803 0 0 1-.35-1.4c0-.514.113-.977.34-1.39a2.47 2.47 0 0 1 .95-.96c.407-.234.863-.35 1.37-.35.507 0 .957.116 1.35.35.4.226.71.546.93.96.227.413.34.886.34 1.42zm-2.62-1.92c-.46 0-.847.14-1.16.42-.307.28-.487.646-.54 1.1h3.4a1.674 1.674 0 0 0-.55-1.09c-.307-.287-.69-.43-1.15-.43zm6.919-.81c.514 0 .974.113 1.38.34.407.226.724.543.95.95.234.406.35.876.35 1.41 0 .533-.116 1.006-.35 1.42a2.411 2.411 0 0 1-.95.95 2.79 2.79 0 0 1-1.38.34 2.5 2.5 0 0 1-1.05-.22 2.19 2.19 0 0 1-.8-.64v2.74h-.96v-7.24h.92v.84c.214-.294.484-.514.81-.66.327-.154.687-.23 1.08-.23zm-.08 4.57c.34 0 .644-.077.91-.23.274-.16.487-.38.64-.66.16-.287.24-.614.24-.98 0-.367-.08-.69-.24-.97a1.598 1.598 0 0 0-.64-.66 1.784 1.784 0 0 0-.91-.23c-.333 0-.636.08-.91.24-.266.153-.48.37-.64.65a1.99 1.99 0 0 0-.23.97c0 .366.077.693.23.98.154.28.367.5.64.66.274.153.577.23.91.23zM415.57 283.28h-1.33V285h-.97v-1.72h-3.89v-.7l3.58-4.58h1.08l-3.43 4.42h2.69v-1.52h.94v1.52h1.33v.86zm2.57-2.49c1 0 1.733.19 2.2.57.473.373.71.887.71 1.54 0 .413-.1.787-.3 1.12-.193.327-.49.587-.89.78-.393.187-.88.28-1.46.28a4.67 4.67 0 0 1-1.43-.22c-.46-.153-.84-.363-1.14-.63l.46-.79c.24.227.547.41.92.55.373.133.767.2 1.18.2.527 0 .933-.11 1.22-.33.293-.227.44-.533.44-.92 0-.42-.16-.737-.48-.95-.32-.22-.867-.33-1.64-.33h-1.59l.37-3.66h3.95v.87h-3.11l-.19 1.92h.78zm5.694 0c1 0 1.733.19 2.2.57.473.373.71.887.71 1.54 0 .413-.1.787-.3 1.12-.194.327-.49.587-.89.78-.394.187-.88.28-1.46.28-.494 0-.97-.073-1.43-.22-.46-.153-.84-.363-1.14-.63l.46-.79c.24.227.546.41.92.55.373.133.766.2 1.18.2.526 0 .933-.11 1.22-.33.293-.227.44-.533.44-.92 0-.42-.16-.737-.48-.95-.32-.22-.867-.33-1.64-.33h-1.59l.37-3.66h3.95v.87h-3.11l-.19 1.92h.78zm8.917 1.74l-1.1 1.02V285h-.96v-7.42h.96v4.76l2.89-2.64h1.16l-2.23 2.19 2.45 3.11h-1.18l-1.99-2.47zm6.912-2.88c.514 0 .974.113 1.38.34.407.227.724.543.95.95.234.407.35.877.35 1.41 0 .533-.116 1.007-.35 1.42a2.405 2.405 0 0 1-.95.95c-.406.227-.866.34-1.38.34-.393 0-.753-.077-1.08-.23a2.088 2.088 0 0 1-.81-.67v.84h-.92v-7.42h.96v2.92c.214-.28.48-.49.8-.63.32-.147.67-.22 1.05-.22zm-.08 4.57c.34 0 .644-.077.91-.23.274-.16.487-.38.64-.66.16-.287.24-.613.24-.98s-.08-.69-.24-.97a1.598 1.598 0 0 0-.64-.66 1.794 1.794 0 0 0-.91-.23c-.333 0-.636.077-.91.23a1.61 1.61 0 0 0-.64.66 1.99 1.99 0 0 0-.23.97c0 .367.077.693.23.98.154.28.367.5.64.66.274.153.577.23.91.23z" fill="#5E9EEB"/><path d="M306.7 109.4c10.88 0 19.7-8.82 19.7-19.7 0-10.88-8.82-19.7-19.7-19.7-10.88 0-19.7 8.82-19.7 19.7 0 10.88 8.82 19.7 19.7 19.7z" fill="#A77CFA"/><mask id="c" maskUnits="userSpaceOnUse" x="287" y="70" width="40" height="40"><path d="M306.7 109.4c10.88 0 19.7-8.82 19.7-19.7 0-10.88-8.82-19.7-19.7-19.7-10.88 0-19.7 8.82-19.7 19.7 0 10.88 8.82 19.7 19.7 19.7z" fill="#A77CFA"/></mask><g mask="url(#c)"><path d="M316 98.3c-1.6 0-3 1.5-2 5.4 2.3 8.8 2.4 11.9 2.4 11.9h4.5s-1.1-5.3-1.3-9.9c-.2-4.6-2.4-7.3-3.6-7.4zM297.4 98.3c1.6 0 3 1.5 2 5.4-2.3 8.8-2.4 11.9-2.4 11.9h-4.5s1.2-5.3 1.3-9.9c.2-4.7 2.3-7.4 3.6-7.4z" fill="#F2D290"/><path d="M311.8 96.2s-3.6 3.7-5.2 3.7-5.1-3.7-5.1-3.7c-4.3 0-7.9 3.3-7.9 7.5v.3c0 .1.1.2.2.2 1.2.2 4.5 2.5 4.5 2.5v9h16.5v-9s3.4-2.2 4.5-2.5c.1 0 .2-.1.2-.2v-.3c.4-4.2-3.4-7.5-7.7-7.5z" fill="#E8A14F"/><path d="M310.2 94.8v-4.9h-7.4v4.9c0 1.1-1.4 1.3-1.9 1.5-.5 2.8 3 5 5.6 5 2.6 0 6-2.5 5.7-5-.6-.2-2-.4-2-1.5z" fill="#F2D290"/><path d="M310.2 95.2c0-.1-.1-.2-.1-.4v-4.9h-7.4v3.4c1.1 1.8 2.6 2.5 4.8 2.6 1.1 0 2-.3 2.7-.7z" fill="#E7C27A"/><path d="M311.9 79.5c-2.1-1.5-8.4-1.5-10.5 0-1.6 1.2-2.4 5.4-1.4 8.7 1.2 4 3.1 6.6 6.7 6.6 3.6-.1 5.5-2.7 6.7-6.6.9-3.3.1-7.5-1.5-8.7z" fill="#F2D290"/><path d="M309 80.7s2.6 2.4 2.9 3.4c.5 1.5.4 6.2.4 6.2l2.2-4.1s.4-1.8.1-3.7c-1.5-10.3-15.5-8.8-16 0-.1 1.3.1 3.7.1 3.7l2.1 3.6s-1.5-5.5 0-5.8c3.7-.6 8.2-3.3 8.2-3.3z" fill="#82613A"/><path d="M298.7 81.7s-1.5 6.3-1.7 8.6c-.4 6.1 6.2 4.3 5.5 2.7-2.7-5.5-3.8-11.3-3.8-11.3zM314.3 81.7s1.5 6.3 1.7 8.6c.4 6.1-6.4 4.5-5.5 3 3.1-5.4 3.8-11.6 3.8-11.6z" fill="#82613A"/></g><path d="M306.7 226.4c10.88 0 19.7-8.82 19.7-19.7 0-10.88-8.82-19.7-19.7-19.7-10.88 0-19.7 8.82-19.7 19.7 0 10.88 8.82 19.7 19.7 19.7z" fill="#A77CFA"/><mask id="d" maskUnits="userSpaceOnUse" x="287" y="187" width="40" height="40"><path d="M306.7 226.4c10.88 0 19.7-8.82 19.7-19.7 0-10.88-8.82-19.7-19.7-19.7-10.88 0-19.7 8.82-19.7 19.7 0 10.88 8.82 19.7 19.7 19.7z" fill="#A77CFA"/></mask><g mask="url(#d)"><path d="M316 215.3c-1.6 0-3 1.5-2 5.4 2.3 8.8 2.4 11.9 2.4 11.9h4.5s-1.1-5.3-1.3-9.9c-.2-4.6-2.4-7.3-3.6-7.4zM297.4 215.3c1.6 0 3 1.5 2 5.4-2.3 8.8-2.4 11.9-2.4 11.9h-4.5s1.2-5.3 1.3-9.9c.2-4.7 2.3-7.4 3.6-7.4z" fill="#F2D290"/><path d="M311.8 213.2s-3.6 3.7-5.2 3.7-5.1-3.7-5.1-3.7c-4.3 0-7.9 3.3-7.9 7.5v.3c0 .1.1.2.2.2 1.2.2 4.5 2.5 4.5 2.5v9h16.5v-9s3.4-2.2 4.5-2.5c.1 0 .2-.1.2-.2v-.3c.4-4.2-3.4-7.5-7.7-7.5z" fill="#E8A14F"/><path d="M310.2 211.8v-4.9h-7.4v4.9c0 1.1-1.4 1.3-1.9 1.5-.5 2.8 3 5 5.6 5 2.6 0 6-2.5 5.7-5-.6-.2-2-.4-2-1.5z" fill="#F2D290"/><path d="M310.2 212.2c0-.1-.1-.2-.1-.4v-4.9h-7.4v3.4c1.1 1.8 2.6 2.5 4.8 2.6 1.1 0 2-.3 2.7-.7z" fill="#E7C27A"/><path d="M311.9 196.5c-2.1-1.5-8.4-1.5-10.5 0-1.6 1.2-2.4 5.4-1.4 8.7 1.2 4 3.1 6.6 6.7 6.6 3.6-.1 5.5-2.7 6.7-6.6.9-3.3.1-7.5-1.5-8.7z" fill="#F2D290"/><path d="M309 197.7s2.6 2.4 2.9 3.4c.5 1.5.4 6.2.4 6.2l2.2-4.1s.4-1.8.1-3.7c-1.5-10.3-15.5-8.8-16 0-.1 1.3.1 3.7.1 3.7l2.1 3.6s-1.5-5.5 0-5.8c3.7-.6 8.2-3.3 8.2-3.3z" fill="#82613A"/><path d="M298.7 198.7s-1.5 6.3-1.7 8.6c-.4 6.1 6.2 4.3 5.5 2.7-2.7-5.5-3.8-11.3-3.8-11.3zM314.3 198.7s1.5 6.3 1.7 8.6c.4 6.1-6.4 4.5-5.5 3 3.1-5.4 3.8-11.6 3.8-11.6z" fill="#82613A"/></g><circle cx="467" cy="160" r="16" fill="#FC8E0C"/><path d="M474.1 159.749a1.56 1.56 0 0 1 0 3.12h-5.004c-1.234 0-2.02 1.328-1.416 2.404.796 1.417 1.079 2.954 1.009 3.691-.111 1.163-.85 2.149-2.017 2.105l-.034-.001a1.292 1.292 0 0 1-1.236-1.222c-.114-1.958-1.676-3.918-3.071-5.539a7.03 7.03 0 0 1-1.034-1.594 1.332 1.332 0 0 0-1.208-.767h-1.6v-10.403c1.019 0 2.033-.145 3.01-.431a7.566 7.566 0 0 1 2.12-.303h8.838a1.35 1.35 0 0 1 1.351 1.372c-.012.742-.638 1.329-1.381 1.329h.733a1.56 1.56 0 0 1 0 3.12h.665a1.56 1.56 0 1 1 0 3.119h.275z" fill="#FCD09F"/><circle r="16" transform="matrix(1 0 0 -1 409 160)" fill="#0BCCC9"/><path d="M416.1 160.251a1.56 1.56 0 0 0 0-3.12h-5.004c-1.234 0-2.02-1.328-1.416-2.404.796-1.417 1.079-2.954 1.009-3.691-.111-1.163-.85-2.149-2.017-2.105l-.034.001a1.292 1.292 0 0 0-1.236 1.222c-.114 1.958-1.676 3.918-3.071 5.539a7.03 7.03 0 0 0-1.034 1.594 1.332 1.332 0 0 1-1.208.767h-1.6v10.403c1.019 0 2.033.145 3.01.431a7.566 7.566 0 0 0 2.12.303h8.838a1.35 1.35 0 0 0 1.351-1.372c-.012-.742-.638-1.329-1.381-1.329h.733a1.56 1.56 0 0 0 0-3.12h.665a1.56 1.56 0 1 0 0-3.119h.275z" fill="#FCD09F"/><path d="M141 208l2.163 4.279 4.837.687-3.5 3.33.826 4.704-4.326-2.221-4.326 2.221.826-4.704-3.5-3.33 4.837-.687L141 208zM157 208l2.163 4.279 4.837.687-3.5 3.33.826 4.704-4.326-2.221-4.326 2.221.826-4.704-3.5-3.33 4.837-.687L157 208zM173.5 208l2.009 4.279 4.491.687-3.25 3.33.767 4.704-4.017-2.221-4.017 2.221.767-4.704-3.25-3.33 4.491-.687L173.5 208zM190 208l2.163 4.279 4.837.687-3.5 3.33.826 4.704-4.326-2.221-4.326 2.221.826-4.704-3.5-3.33 4.837-.687L190 208zM206 208l2.163 4.279 4.837.687-3.5 3.33.826 4.704-4.326-2.221-4.326 2.221.826-4.704-3.5-3.33 4.837-.687L206 208z" fill="#EFCE4A"/></svg>