<svg width="627" height="361" viewBox="0 0 627 361" fill="none" xmlns="http://www.w3.org/2000/svg"><path d="M74.07 0c-8.828 0-16.186 7.359-16.186 16.19V344.81c0 8.83 7.358 16.189 16.186 16.189h477.385c8.829 0 16.186-7.359 16.186-16.189V16.189C567.641 7.36 560.284 0 551.455 0H74.07z" fill="#EEF2FA"/><path d="M490.413 353.531H0S6.724 361 27.315 361H598.833c20.591 0 27.315-7.469 27.315-7.469H490.413z" fill="#5A77D1"/><path d="M626.148 341.083H0v12.448h626.148v-12.448z" fill="#DCDEE2"/><path d="M357.266 342.95h-87.761c0 2.681 2.52 4.98 5.459 4.98h76.843c2.939 0 5.459-2.107 5.459-4.98z" fill="#5A77D1"/><path fill="#fff" d="M71 24h487v303H71z"/><path fill="#5E9EEB" d="M71 24h487v30H71z"/><path fill="#D4EEFF" d="M71 56h487v37H71z"/><path d="M220.22 35v7h-.98v-2.04h-1.93c-.12 0-.21-.003-.27-.01l-1.4 2.05h-1.06l1.55-2.22c-.5-.167-.883-.443-1.15-.83-.267-.393-.4-.87-.4-1.43 0-.793.253-1.41.76-1.85.513-.447 1.203-.67 2.07-.67h2.81zm-4.63 2.51c0 .52.15.92.45 1.2.307.273.757.41 1.35.41h1.85v-3.25h-1.79c-.6 0-1.06.14-1.38.42-.32.28-.48.687-.48 1.22zm6.654-.81h.96v2.25h3.02V36.7h.96V42h-.96v-2.22h-3.02V42h-.96v-5.3zm10.417 2.55c.687.173 1.03.603 1.03 1.29 0 .467-.177.827-.53 1.08-.347.253-.867.38-1.56.38h-2.55v-5.3h2.46c.627 0 1.117.12 1.47.36.353.233.53.567.53 1 0 .28-.077.523-.23.73-.147.2-.353.353-.62.46zm-2.67-.27h1.44c.367 0 .643-.067.83-.2a.662.662 0 0 0 .29-.58c0-.507-.373-.76-1.12-.76h-1.44v1.54zm1.54 2.28c.4 0 .7-.063.9-.19.2-.127.3-.323.3-.59 0-.273-.093-.477-.28-.61-.18-.133-.467-.2-.86-.2h-1.6v1.59h1.54zm5.553-4.61c.733 0 1.293.18 1.68.54.393.36.59.897.59 1.61V42h-.91v-.7c-.16.247-.39.437-.69.57-.294.127-.644.19-1.05.19-.594 0-1.07-.143-1.43-.43a1.383 1.383 0 0 1-.53-1.13c0-.467.17-.84.51-1.12.34-.287.88-.43 1.62-.43h1.52v-.19c0-.413-.12-.73-.36-.95-.24-.22-.594-.33-1.06-.33-.314 0-.62.053-.92.16-.3.1-.554.237-.76.41l-.4-.72c.273-.22.6-.387.98-.5.38-.12.783-.18 1.21-.18zm-.22 4.67c.366 0 .683-.08.95-.24.266-.167.46-.4.58-.7v-.74h-1.48c-.814 0-1.22.273-1.22.82 0 .267.103.477.31.63.206.153.493.23.86.23zm7.028-4.67c.514 0 .974.113 1.38.34.407.227.724.543.95.95.234.407.35.877.35 1.41 0 .533-.116 1.007-.35 1.42a2.405 2.405 0 0 1-.95.95c-.406.227-.866.34-1.38.34-.38 0-.73-.073-1.05-.22a2.187 2.187 0 0 1-.8-.64v2.74h-.96V36.7h.92v.84c.214-.293.484-.513.81-.66.327-.153.687-.23 1.08-.23zm-.08 4.57c.34 0 .644-.077.91-.23.274-.16.487-.38.64-.66.16-.287.24-.613.24-.98s-.08-.69-.24-.97a1.601 1.601 0 0 0-.64-.66 1.791 1.791 0 0 0-.91-.23c-.333 0-.636.08-.91.24-.266.153-.48.37-.64.65a1.99 1.99 0 0 0-.23.97c0 .367.077.693.23.98.154.28.367.5.64.66.274.153.577.23.91.23zm6.605-2.72c.673.007 1.187.16 1.54.46.353.3.53.723.53 1.27 0 .573-.193 1.017-.58 1.33-.38.307-.927.457-1.64.45l-2.3-.01v-5.3h.96v1.79l1.49.01zm-.23 2.78c.433.007.76-.08.98-.26.227-.18.34-.447.34-.8 0-.347-.11-.6-.33-.76-.213-.16-.543-.243-.99-.25l-1.26-.02v2.08l1.26.01zm46.324-2.79c0 .927-.323 1.653-.97 2.18-.646.527-1.56.81-2.74.85v.74h-.93v-.74c-1.18-.047-2.096-.333-2.75-.86-.646-.527-.97-1.25-.97-2.17 0-.927.324-1.653.97-2.18.654-.527 1.57-.813 2.75-.86v-.71h.93v.71c1.174.047 2.084.337 2.73.87.654.527.98 1.25.98 2.17zm-3.71 2.25c.894-.053 1.574-.27 2.04-.65.474-.387.71-.923.71-1.61 0-.673-.24-1.2-.72-1.58-.473-.387-1.15-.607-2.03-.66v4.5zm-3.68-2.25c0 .68.237 1.213.71 1.6.48.38 1.16.597 2.04.65v-4.5c-.893.053-1.576.27-2.05.65-.466.38-.7.913-.7 1.6zm13.558.89c0 .073-.007.17-.02.29h-4.3c.06.467.263.843.61 1.13.353.28.79.42 1.31.42.633 0 1.143-.213 1.53-.64l.53.62c-.24.28-.54.493-.9.64-.353.147-.75.22-1.19.22-.56 0-1.057-.113-1.49-.34a2.53 2.53 0 0 1-1.01-.97 2.801 2.801 0 0 1-.35-1.4c0-.513.113-.977.34-1.39a2.48 2.48 0 0 1 .95-.96c.407-.233.863-.35 1.37-.35.507 0 .957.117 1.35.35.4.227.71.547.93.96.227.413.34.887.34 1.42zm-2.62-1.92c-.46 0-.847.14-1.16.42-.307.28-.487.647-.54 1.1h3.4a1.674 1.674 0 0 0-.55-1.09c-.307-.287-.69-.43-1.15-.43zm7.719 1.79c.687.173 1.03.603 1.03 1.29 0 .467-.176.827-.53 1.08-.346.253-.866.38-1.56.38h-2.55v-5.3h2.46c.627 0 1.117.12 1.47.36.354.233.53.567.53 1 0 .28-.076.523-.23.73-.146.2-.353.353-.62.46zm-2.67-.27h1.44c.367 0 .644-.067.83-.2.194-.133.29-.327.29-.58 0-.507-.373-.76-1.12-.76h-1.44v1.54zm1.54 2.28c.4 0 .7-.063.9-.19.2-.127.3-.323.3-.59 0-.273-.093-.477-.28-.61-.18-.133-.466-.2-.86-.2h-1.6v1.59h1.54zm6.473-4.61c.513 0 .973.113 1.38.34.407.227.723.543.95.95.233.407.35.877.35 1.41 0 .533-.117 1.007-.35 1.42a2.411 2.411 0 0 1-.95.95c-.407.227-.867.34-1.38.34-.38 0-.73-.073-1.05-.22a2.187 2.187 0 0 1-.8-.64v2.74h-.96V36.7h.92v.84c.213-.293.483-.513.81-.66.327-.153.687-.23 1.08-.23zm-.08 4.57c.34 0 .643-.077.91-.23.273-.16.487-.38.64-.66.16-.287.24-.613.24-.98s-.08-.69-.24-.97a1.607 1.607 0 0 0-.64-.66 1.794 1.794 0 0 0-.91-.23c-.333 0-.637.08-.91.24a1.71 1.71 0 0 0-.64.65 1.99 1.99 0 0 0-.23.97c0 .367.077.693.23.98.153.28.367.5.64.66.273.153.577.23.91.23zm5.996-4.57c.733 0 1.293.18 1.68.54.393.36.59.897.59 1.61V42h-.91v-.7c-.16.247-.39.437-.69.57-.294.127-.644.19-1.05.19-.594 0-1.07-.143-1.43-.43a1.383 1.383 0 0 1-.53-1.13c0-.467.17-.84.51-1.12.34-.287.88-.43 1.62-.43h1.52v-.19c0-.413-.12-.73-.36-.95-.24-.22-.594-.33-1.06-.33-.314 0-.62.053-.92.16-.3.1-.554.237-.76.41l-.4-.72c.273-.22.6-.387.98-.5.38-.12.783-.18 1.21-.18zm-.22 4.67c.366 0 .683-.08.95-.24.266-.167.46-.4.58-.7v-.74h-1.48c-.814 0-1.22.273-1.22.82 0 .267.103.477.31.63.206.153.493.23.86.23zm8.768-4.62V42h-.96v-4.46h-2.28l-.06 1.18c-.033.713-.096 1.31-.19 1.79-.093.473-.246.853-.46 1.14-.213.287-.51.43-.89.43-.173 0-.37-.03-.59-.09l.06-.81c.087.02.167.03.24.03a.648.648 0 0 0 .6-.35c.134-.233.22-.51.26-.83.04-.32.077-.777.11-1.37l.09-1.96h4.07zm4.307 1.8c.673.007 1.186.16 1.54.46.353.3.53.723.53 1.27 0 .573-.194 1.017-.58 1.33-.38.307-.927.457-1.64.45l-2.3-.01v-5.3h.96v1.79l1.49.01zm-.23 2.78c.433.007.76-.08.98-.26.226-.18.34-.447.34-.8 0-.347-.11-.6-.33-.76-.214-.16-.544-.243-.99-.25l-1.26-.02v2.08l1.26.01zm45.094.72l-.01-5.1-2.53 4.25h-.46l-2.53-4.22V42h-.96v-7h.82l2.92 4.92 2.88-4.92h.82l.01 7h-.96zm4.869-5.35c.733 0 1.293.18 1.68.54.393.36.59.897.59 1.61V42h-.91v-.7c-.16.247-.39.437-.69.57-.294.127-.644.19-1.05.19-.594 0-1.07-.143-1.43-.43a1.383 1.383 0 0 1-.53-1.13c0-.467.17-.84.51-1.12.34-.287.88-.43 1.62-.43h1.52v-.19c0-.413-.12-.73-.36-.95-.24-.22-.594-.33-1.06-.33-.314 0-.62.053-.92.16-.3.1-.554.237-.76.41l-.4-.72c.273-.22.6-.387.98-.5.38-.12.783-.18 1.21-.18zm-.22 4.67c.366 0 .683-.08.95-.24.266-.167.46-.4.58-.7v-.74h-1.48c-.814 0-1.22.273-1.22.82 0 .267.103.477.31.63.206.153.493.23.86.23zm7.028-4.67c.514 0 .974.113 1.38.34.407.227.724.543.95.95.234.407.35.877.35 1.41 0 .533-.116 1.007-.35 1.42a2.405 2.405 0 0 1-.95.95c-.406.227-.866.34-1.38.34-.38 0-.73-.073-1.05-.22a2.187 2.187 0 0 1-.8-.64v2.74h-.96V36.7h.92v.84c.214-.293.484-.513.81-.66.327-.153.687-.23 1.08-.23zm-.08 4.57c.34 0 .644-.077.91-.23.274-.16.487-.38.64-.66.16-.287.24-.613.24-.98s-.08-.69-.24-.97a1.601 1.601 0 0 0-.64-.66 1.791 1.791 0 0 0-.91-.23c-.333 0-.636.08-.91.24-.266.153-.48.37-.64.65a1.99 1.99 0 0 0-.23.97c0 .367.077.693.23.98.154.28.367.5.64.66.274.153.577.23.91.23zm7.91-3.68h-1.94V42h-.96v-4.46h-1.94v-.84h4.84v.84zm40.604 2.71h-3.72l-.77 1.75h-1.03l3.17-7h.99l3.18 7h-1.05l-.77-1.75zm-.35-.8l-1.51-3.43-1.51 3.43h3.02zm8.128-2.75V42h-.96v-4.46h-2.99V42h-.96v-5.3h4.91zm4.667-.05c.514 0 .974.113 1.38.34.407.227.724.543.95.95.234.407.35.877.35 1.41 0 .533-.116 1.007-.35 1.42a2.405 2.405 0 0 1-.95.95c-.406.227-.866.34-1.38.34-.38 0-.73-.073-1.05-.22a2.187 2.187 0 0 1-.8-.64v2.74h-.96V36.7h.92v.84c.214-.293.484-.513.81-.66.327-.153.687-.23 1.08-.23zm-.08 4.57c.34 0 .644-.077.91-.23.274-.16.487-.38.64-.66.16-.287.24-.613.24-.98s-.08-.69-.24-.97a1.601 1.601 0 0 0-.64-.66 1.791 1.791 0 0 0-.91-.23c-.333 0-.636.08-.91.24-.266.153-.48.37-.64.65a1.99 1.99 0 0 0-.23.97c0 .367.077.693.23.98.154.28.367.5.64.66.274.153.577.23.91.23zm8.945-1.84c0 .073-.007.17-.02.29h-4.3c.06.467.263.843.61 1.13.353.28.79.42 1.31.42.633 0 1.143-.213 1.53-.64l.53.62c-.24.28-.54.493-.9.64-.353.147-.75.22-1.19.22-.56 0-1.057-.113-1.49-.34a2.53 2.53 0 0 1-1.01-.97 2.801 2.801 0 0 1-.35-1.4c0-.513.113-.977.34-1.39a2.48 2.48 0 0 1 .95-.96c.407-.233.863-.35 1.37-.35.507 0 .957.117 1.35.35.4.227.71.547.93.96.227.413.34.887.34 1.42zm-2.62-1.92c-.46 0-.847.14-1.16.42-.307.28-.487.647-.54 1.1h3.4a1.674 1.674 0 0 0-.55-1.09c-.307-.287-.69-.43-1.15-.43zm8.571-.76V42h-.96v-4.46h-2.28l-.06 1.18c-.033.713-.096 1.31-.19 1.79-.093.473-.246.853-.46 1.14-.213.287-.51.43-.89.43-.173 0-.37-.03-.59-.09l.06-.81c.087.02.167.03.24.03a.648.648 0 0 0 .6-.35c.134-.233.22-.51.26-.83.04-.32.077-.777.11-1.37l.09-1.96h4.07zm4.307 1.8c.673.007 1.186.16 1.54.46.353.3.53.723.53 1.27 0 .573-.194 1.017-.58 1.33-.38.307-.927.457-1.64.45l-2.3-.01v-5.3h.96v1.79l1.49.01zm-.23 2.78c.433.007.76-.08.98-.26.226-.18.34-.447.34-.8 0-.347-.11-.6-.33-.76-.214-.16-.544-.243-.99-.25l-1.26-.02v2.08l1.26.01zM509.274 35h1.61v4.56l3.34-4.56h1.52v7h-1.6v-4.55l-3.34 4.55h-1.53v-7zm12.613 2.9h-1.82V42h-1.55v-4.1h-1.82v-1.28h5.19v1.28zm3.127 4.18a3.292 3.292 0 0 1-1.53-.35 2.678 2.678 0 0 1-1.05-.99 2.717 2.717 0 0 1-.38-1.43c0-.533.127-1.01.38-1.43.253-.42.603-.747 1.05-.98.453-.24.963-.36 1.53-.36.567 0 1.073.12 1.52.36.447.233.797.56 1.05.98.253.42.38.897.38 1.43 0 .533-.127 1.01-.38 1.43-.253.42-.603.75-1.05.99-.447.233-.953.35-1.52.35zm0-1.28c.4 0 .727-.133.98-.4.26-.273.39-.637.39-1.09 0-.453-.13-.813-.39-1.08-.253-.273-.58-.41-.98-.41s-.73.137-.99.41c-.26.267-.39.627-.39 1.08 0 .453.13.817.39 1.09.26.267.59.4.99.4zm8.333-2.9h-2.76V42h-1.55v-5.38h4.31v1.28zm3.122 4.18a3.298 3.298 0 0 1-1.53-.35 2.692 2.692 0 0 1-1.05-.99 2.717 2.717 0 0 1-.38-1.43c0-.533.127-1.01.38-1.43a2.62 2.62 0 0 1 1.05-.98c.454-.24.964-.36 1.53-.36.567 0 1.074.12 1.52.36.447.233.797.56 1.05.98.254.42.38.897.38 1.43 0 .533-.126 1.01-.38 1.43-.253.42-.603.75-1.05.99-.446.233-.953.35-1.52.35zm0-1.28c.4 0 .727-.133.98-.4.26-.273.39-.637.39-1.09 0-.453-.13-.813-.39-1.08-.253-.273-.58-.41-.98-.41s-.73.137-.99.41c-.26.267-.39.627-.39 1.08 0 .453.13.817.39 1.09.26.267.59.4.99.4z" fill="#fff"/><path d="M88.76 76.13v2.4h-.93V77h-5.76l-.01 1.53h-.93l.01-2.4h.34c.44-.027.75-.373.93-1.04.18-.673.29-1.62.33-2.84l.07-2.25h4.92v6.13h1.03zm-5.14-3.79c-.033.987-.113 1.803-.24 2.45-.12.647-.317 1.093-.59 1.34h3.95v-5.26h-3.07l-.05 1.47zm8.5 4.72c-.527 0-1-.117-1.42-.35a2.585 2.585 0 0 1-.99-.96 2.798 2.798 0 0 1-.35-1.4c0-.52.117-.983.35-1.39.24-.413.57-.733.99-.96.42-.233.893-.35 1.42-.35.527 0 .997.117 1.41.35.42.227.747.547.98.96.24.407.36.87.36 1.39 0 .52-.12.987-.36 1.4-.233.407-.56.727-.98.96-.413.233-.883.35-1.41.35zm0-.84c.34 0 .643-.077.91-.23.273-.16.487-.38.64-.66.153-.287.23-.613.23-.98s-.077-.69-.23-.97a1.607 1.607 0 0 0-.64-.66 1.793 1.793 0 0 0-.91-.23c-.34 0-.647.077-.92.23-.267.153-.48.373-.64.66-.153.28-.23.603-.23.97s.077.693.23.98c.16.28.373.5.64.66.273.153.58.23.92.23zm7.27.78l-1.53-2.03L96.31 77h-1.07l2.09-2.71-1.99-2.59h1.07l1.46 1.91 1.45-1.91h1.05l-2 2.59 2.11 2.71h-1.09zm4.195.06c-.527 0-1-.117-1.42-.35a2.585 2.585 0 0 1-.99-.96 2.79 2.79 0 0 1-.35-1.4c0-.52.116-.983.35-1.39.24-.413.57-.733.99-.96.42-.233.893-.35 1.42-.35.526 0 .996.117 1.41.35.42.227.746.547.98.96.24.407.36.87.36 1.39 0 .52-.12.987-.36 1.4-.234.407-.56.727-.98.96-.414.233-.884.35-1.41.35zm0-.84c.34 0 .643-.077.91-.23a1.7 1.7 0 0 0 .64-.66 2.05 2.05 0 0 0 .23-.98c0-.367-.077-.69-.23-.97a1.613 1.613 0 0 0-.64-.66 1.794 1.794 0 0 0-.91-.23c-.34 0-.647.077-.92.23-.267.153-.48.373-.64.66a1.98 1.98 0 0 0-.23.97c0 .367.076.693.23.98.16.28.373.5.64.66.273.153.58.23.92.23zm9.487-.06v2.07h-.9V77h-4.43v1.23h-.91v-2.07h.28c.34-.02.573-.26.7-.72.127-.46.213-1.11.26-1.95l.08-1.79h4.11v4.46h.81zm-4.12-2.6c-.027.667-.083 1.22-.17 1.66-.08.433-.23.747-.45.94h2.97v-3.62h-2.3l-.05 1.02zM216.65 72v7h-.99v-6.13h-1.58V72h2.57zm3.801-.08c.94 0 1.664.303 2.17.91.514.607.77 1.467.77 2.58 0 .78-.14 1.447-.42 2-.273.547-.66.963-1.16 1.25-.493.28-1.07.42-1.73.42-.34 0-.66-.033-.96-.1-.3-.073-.56-.177-.78-.31l.38-.78c.34.22.79.33 1.35.33.727 0 1.294-.223 1.7-.67.414-.453.62-1.11.62-1.97v-.25c-.2.3-.476.53-.83.69a2.96 2.96 0 0 1-1.19.23c-.46 0-.873-.087-1.24-.26a2.045 2.045 0 0 1-.85-.74c-.2-.327-.3-.7-.3-1.12 0-.44.107-.827.32-1.16.22-.333.517-.59.89-.77.374-.187.794-.28 1.26-.28zm.09 3.52c.314 0 .594-.06.84-.18a1.37 1.37 0 0 0 .57-.49c.14-.207.21-.437.21-.69 0-.247-.066-.47-.2-.67a1.288 1.288 0 0 0-.57-.49c-.246-.127-.546-.19-.9-.19-.46 0-.833.123-1.12.37-.28.247-.42.577-.42.99 0 .413.144.743.43.99.287.24.674.36 1.16.36zm6.394-.5c.687.067 1.21.28 1.57.64.36.353.54.807.54 1.36 0 .4-.1.763-.3 1.09-.2.32-.5.577-.9.77-.393.187-.876.28-1.45.28-.5 0-.98-.073-1.44-.22-.46-.153-.836-.363-1.13-.63l.46-.79c.24.227.547.41.92.55.374.133.77.2 1.19.2.52 0 .924-.11 1.21-.33.294-.22.44-.523.44-.91s-.143-.687-.43-.9c-.286-.213-.72-.32-1.3-.32h-.56v-.7l1.76-2.16h-3.37V72h4.62v.68l-1.83 2.26zm8.409 0c.686.067 1.21.28 1.57.64.36.353.54.807.54 1.36 0 .4-.1.763-.3 1.09-.2.32-.5.577-.9.77-.394.187-.877.28-1.45.28-.5 0-.98-.073-1.44-.22-.46-.153-.837-.363-1.13-.63l.46-.79c.24.227.546.41.92.55.373.133.77.2 1.19.2.52 0 .923-.11 1.21-.33.293-.22.44-.523.44-.91s-.144-.687-.43-.9c-.287-.213-.72-.32-1.3-.32h-.56v-.7l1.76-2.16h-3.37V72h4.62v.68l-1.83 2.26zm4.945-.15c1 0 1.733.19 2.2.57.473.373.71.887.71 1.54 0 .413-.1.787-.3 1.12-.194.327-.49.587-.89.78-.394.187-.88.28-1.46.28-.494 0-.97-.073-1.43-.22-.46-.153-.84-.363-1.14-.63l.46-.79c.24.227.546.41.92.55.373.133.766.2 1.18.2.526 0 .933-.11 1.22-.33.293-.227.44-.533.44-.92 0-.42-.16-.737-.48-.95-.32-.22-.867-.33-1.64-.33h-1.59l.37-3.66h3.95v.87h-3.11l-.19 1.92h.78zm8.715-2.79v.68l-2.83 6.32h-1.06l2.77-6.13h-3.2v1.25h-.96V72h5.28zM298.4 78.13V79h-5.03v-.68l2.85-2.75c.347-.333.58-.62.7-.86.12-.247.18-.493.18-.74 0-.367-.13-.65-.39-.85-.253-.207-.62-.31-1.1-.31-.773 0-1.37.253-1.79.76l-.68-.59c.273-.333.63-.593 1.07-.78.447-.187.943-.28 1.49-.28.733 0 1.317.177 1.75.53.433.347.65.82.65 1.42 0 .373-.08.727-.24 1.06-.16.333-.463.713-.91 1.14l-2.14 2.06h3.59zm2.822-3.34c1 0 1.734.19 2.2.57.474.373.71.887.71 1.54 0 .413-.1.787-.3 1.12-.193.327-.49.587-.89.78-.393.187-.88.28-1.46.28a4.68 4.68 0 0 1-1.43-.22c-.46-.153-.84-.363-1.14-.63l.46-.79c.24.227.547.41.92.55.374.133.767.2 1.18.2.527 0 .934-.11 1.22-.33.294-.227.44-.533.44-.92 0-.42-.16-.737-.48-.95-.32-.22-.866-.33-1.64-.33h-1.59l.37-3.66h3.95v.87h-3.11l-.19 1.92h.78zm8.715-2.79v.68l-2.83 6.32h-1.06l2.77-6.13h-3.2v1.25h-.96V72h5.28zm9.653 5.28h-1.33V79h-.97v-1.72h-3.89v-.7l3.58-4.58h1.08l-3.43 4.42h2.69V74.9h.94v1.52h1.33v.86zm5.49.85V79h-5.03v-.68l2.85-2.75c.346-.333.58-.62.7-.86.12-.247.18-.493.18-.74 0-.367-.13-.65-.39-.85-.254-.207-.62-.31-1.1-.31-.774 0-1.37.253-1.79.76l-.68-.59c.273-.333.63-.593 1.07-.78.446-.187.943-.28 1.49-.28.733 0 1.316.177 1.75.53.433.347.65.82.65 1.42 0 .373-.08.727-.24 1.06-.16.333-.464.713-.91 1.14l-2.14 2.06h3.59zm2.822-3.34c1 0 1.733.19 2.2.57.473.373.71.887.71 1.54 0 .413-.1.787-.3 1.12-.193.327-.49.587-.89.78-.393.187-.88.28-1.46.28a4.68 4.68 0 0 1-1.43-.22c-.46-.153-.84-.363-1.14-.63l.46-.79c.24.227.547.41.92.55.373.133.767.2 1.18.2.527 0 .933-.11 1.22-.33.293-.227.44-.533.44-.92 0-.42-.16-.737-.48-.95-.32-.22-.867-.33-1.64-.33h-1.59l.37-3.66h3.95v.87h-3.11l-.19 1.92h.78zM368.4 78.13V79h-5.03v-.68l2.85-2.75c.347-.333.58-.62.7-.86.12-.247.18-.493.18-.74 0-.367-.13-.65-.39-.85-.253-.207-.62-.31-1.1-.31-.773 0-1.37.253-1.79.76l-.68-.59c.273-.333.63-.593 1.07-.78.447-.187.943-.28 1.49-.28.733 0 1.317.177 1.75.53.433.347.65.82.65 1.42 0 .373-.08.727-.24 1.06-.16.333-.463.713-.91 1.14l-2.14 2.06h3.59zm3.502-3.19c.687.067 1.21.28 1.57.64.36.353.54.807.54 1.36 0 .4-.1.763-.3 1.09-.2.32-.5.577-.9.77-.393.187-.876.28-1.45.28-.5 0-.98-.073-1.44-.22-.46-.153-.836-.363-1.13-.63l.46-.79c.24.227.547.41.92.55.374.133.77.2 1.19.2.52 0 .924-.11 1.21-.33.294-.22.44-.523.44-.91s-.143-.687-.43-.9c-.286-.213-.72-.32-1.3-.32h-.56v-.7l1.76-2.16h-3.37V72h4.62v.68l-1.83 2.26zm7.914 3.19V79h-5.03v-.68l2.85-2.75c.347-.333.58-.62.7-.86.12-.247.18-.493.18-.74 0-.367-.13-.65-.39-.85-.253-.207-.62-.31-1.1-.31-.773 0-1.37.253-1.79.76l-.68-.59c.273-.333.63-.593 1.07-.78.447-.187.943-.28 1.49-.28.733 0 1.317.177 1.75.53.433.347.65.82.65 1.42 0 .373-.08.727-.24 1.06-.16.333-.463.713-.91 1.14l-2.14 2.06h3.59zm8.608-6.13v.68l-2.83 6.32h-1.06l2.77-6.13h-3.2v1.25h-.96V72h5.28zm5.796 6.13V79h-5.03v-.68l2.85-2.75c.347-.333.58-.62.7-.86.12-.247.18-.493.18-.74 0-.367-.13-.65-.39-.85-.253-.207-.62-.31-1.1-.31-.773 0-1.37.253-1.79.76l-.68-.59c.274-.333.63-.593 1.07-.78.447-.187.944-.28 1.49-.28.734 0 1.317.177 1.75.53.434.347.65.82.65 1.42 0 .373-.08.727-.24 1.06-.16.333-.463.713-.91 1.14l-2.14 2.06h3.59zm2.823-3.34c1 0 1.733.19 2.2.57.473.373.71.887.71 1.54 0 .413-.1.787-.3 1.12-.194.327-.49.587-.89.78-.394.187-.88.28-1.46.28-.494 0-.97-.073-1.43-.22-.46-.153-.84-.363-1.14-.63l.46-.79c.24.227.546.41.92.55.373.133.766.2 1.18.2.526 0 .933-.11 1.22-.33.293-.227.44-.533.44-.92 0-.42-.16-.737-.48-.95-.32-.22-.867-.33-1.64-.33h-1.59l.37-3.66h3.949v.87h-3.109l-.19 1.92h.78zM441.4 78.13V79h-5.03v-.68l2.85-2.75c.347-.333.58-.62.7-.86.12-.247.18-.493.18-.74 0-.367-.13-.65-.39-.85-.253-.207-.62-.31-1.1-.31-.773 0-1.37.253-1.79.76l-.68-.59c.273-.333.63-.593 1.07-.78.447-.187.943-.28 1.49-.28.733 0 1.317.177 1.75.53.433.347.65.82.65 1.42 0 .373-.08.727-.24 1.06-.16.333-.463.713-.91 1.14l-2.14 2.06h3.59zm3.653.95c-.553 0-1.047-.14-1.48-.42-.427-.287-.763-.7-1.01-1.24s-.37-1.18-.37-1.92.123-1.38.37-1.92.583-.95 1.01-1.23c.433-.287.927-.43 1.48-.43.547 0 1.033.143 1.46.43.433.28.773.69 1.02 1.23s.37 1.18.37 1.92-.123 1.38-.37 1.92-.587.953-1.02 1.24c-.427.28-.913.42-1.46.42zm0-.89c.56 0 1.007-.23 1.34-.69.34-.46.51-1.127.51-2s-.17-1.54-.51-2c-.333-.46-.78-.69-1.34-.69-.567 0-1.02.23-1.36.69-.333.46-.5 1.127-.5 2s.167 1.54.5 2c.34.46.793.69 1.36.69zm8.701-.06V79h-5.03v-.68l2.85-2.75c.346-.333.58-.62.7-.86.12-.247.18-.493.18-.74 0-.367-.13-.65-.39-.85-.254-.207-.62-.31-1.1-.31-.774 0-1.37.253-1.79.76l-.68-.59c.273-.333.63-.593 1.07-.78.446-.187.943-.28 1.49-.28.733 0 1.316.177 1.75.53.433.347.65.82.65 1.42 0 .373-.08.727-.24 1.06-.16.333-.464.713-.91 1.14l-2.14 2.06h3.59zm8.607-6.13v.68l-2.83 6.32h-1.06l2.77-6.13h-3.2v1.25h-.96V72h5.28zm4.981 3.33c.4.153.707.373.92.66.213.287.32.63.32 1.03 0 .42-.113.787-.34 1.1-.227.307-.55.543-.97.71-.42.167-.913.25-1.48.25-.56 0-1.05-.083-1.47-.25-.413-.167-.733-.403-.96-.71a1.825 1.825 0 0 1-.34-1.1c0-.4.103-.743.31-1.03.213-.287.52-.507.92-.66a1.755 1.755 0 0 1-.73-.61 1.597 1.597 0 0 1-.25-.9c0-.387.103-.723.31-1.01.213-.287.51-.507.89-.66.38-.153.82-.23 1.32-.23.507 0 .95.077 1.33.23.387.153.683.373.89.66.213.287.32.623.32 1.01 0 .34-.087.64-.26.9-.167.253-.41.457-.73.61zm-1.55-2.6c-.473 0-.847.103-1.12.31a.962.962 0 0 0-.41.82c0 .347.133.62.4.82.273.2.65.3 1.13.3.487 0 .867-.1 1.14-.3.28-.2.42-.473.42-.82a.947.947 0 0 0-.43-.82c-.28-.207-.657-.31-1.13-.31zm0 5.54c.553 0 .99-.113 1.31-.34.32-.233.48-.547.48-.94 0-.387-.16-.69-.48-.91-.32-.227-.757-.34-1.31-.34s-.987.113-1.3.34c-.313.22-.47.523-.47.91 0 .393.157.707.47.94.313.227.747.34 1.3.34zm5.706-3.48c1 0 1.733.19 2.2.57.473.373.71.887.71 1.54 0 .413-.1.787-.3 1.12-.194.327-.49.587-.89.78-.394.187-.88.28-1.46.28-.494 0-.97-.073-1.43-.22-.46-.153-.84-.363-1.14-.63l.46-.79c.24.227.546.41.92.55.373.133.766.2 1.18.2.526 0 .933-.11 1.22-.33.293-.227.44-.533.44-.92 0-.42-.16-.737-.48-.95-.32-.22-.867-.33-1.64-.33h-1.59l.37-3.66h3.95v.87h-3.11l-.19 1.92h.78zM512.76 75.33c.4.153.707.373.92.66.213.287.32.63.32 1.03 0 .42-.113.787-.34 1.1-.227.307-.55.543-.97.71-.42.167-.913.25-1.48.25-.56 0-1.05-.083-1.47-.25-.413-.167-.733-.403-.96-.71a1.825 1.825 0 0 1-.34-1.1c0-.4.103-.743.31-1.03.213-.287.52-.507.92-.66a1.755 1.755 0 0 1-.73-.61 1.597 1.597 0 0 1-.25-.9c0-.387.103-.723.31-1.01.213-.287.51-.507.89-.66.38-.153.82-.23 1.32-.23.507 0 .95.077 1.33.23.387.153.683.373.89.66.213.287.32.623.32 1.01 0 .34-.087.64-.26.9-.167.253-.41.457-.73.61zm-1.55-2.6c-.473 0-.847.103-1.12.31a.962.962 0 0 0-.41.82c0 .347.133.62.4.82.273.2.65.3 1.13.3.487 0 .867-.1 1.14-.3.28-.2.42-.473.42-.82a.947.947 0 0 0-.43-.82c-.28-.207-.657-.31-1.13-.31zm0 5.54c.553 0 .99-.113 1.31-.34.32-.233.48-.547.48-.94 0-.387-.16-.69-.48-.91-.32-.227-.757-.34-1.31-.34s-.987.113-1.3.34c-.313.22-.47.523-.47.91 0 .393.157.707.47.94.313.227.747.34 1.3.34zm5.706-3.48c1 0 1.733.19 2.2.57.473.373.71.887.71 1.54 0 .413-.1.787-.3 1.12-.194.327-.49.587-.89.78-.394.187-.88.28-1.46.28-.494 0-.97-.073-1.43-.22-.46-.153-.84-.363-1.14-.63l.46-.79c.24.227.546.41.92.55.373.133.766.2 1.18.2.526 0 .933-.11 1.22-.33.293-.227.44-.533.44-.92 0-.42-.16-.737-.48-.95-.32-.22-.867-.33-1.64-.33h-1.59l.37-3.66h3.95v.87h-3.11l-.19 1.92h.78zm8.613 3.34V79h-5.03v-.68l2.85-2.75c.347-.333.58-.62.7-.86.12-.247.18-.493.18-.74 0-.367-.13-.65-.39-.85-.253-.207-.62-.31-1.1-.31-.773 0-1.37.253-1.79.76l-.68-.59c.273-.333.63-.593 1.07-.78.447-.187.943-.28 1.49-.28.733 0 1.317.177 1.75.53.433.347.65.82.65 1.42 0 .373-.08.727-.24 1.06-.16.333-.463.713-.91 1.14l-2.14 2.06h3.59zm8.608-6.13v.68l-2.83 6.32h-1.06l2.77-6.13h-3.2v1.25h-.96V72h5.28zm3.701 2.75c.46 0 .87.087 1.23.26a1.998 1.998 0 0 1 1.17 1.86c0 .44-.11.827-.33 1.16a2.16 2.16 0 0 1-.89.78c-.373.18-.793.27-1.26.27-.94 0-1.667-.303-2.18-.91-.507-.607-.76-1.467-.76-2.58 0-.78.137-1.443.41-1.99.28-.553.667-.97 1.16-1.25.5-.287 1.08-.43 1.74-.43.34 0 .66.037.96.11.3.067.56.167.78.3l-.38.78c-.333-.22-.78-.33-1.34-.33-.727 0-1.297.227-1.71.68-.413.447-.62 1.1-.62 1.96 0 .107.003.19.01.25.2-.3.473-.527.82-.68.353-.16.75-.24 1.19-.24zm-.12 3.52c.46 0 .833-.123 1.12-.37.287-.247.43-.577.43-.99 0-.413-.147-.74-.44-.98-.287-.247-.673-.37-1.16-.37-.313 0-.593.06-.84.18-.24.12-.43.283-.57.49-.133.207-.2.437-.2.69 0 .247.063.473.19.68.133.2.323.363.57.49.253.12.553.18.9.18zm5.272-3.48c1 0 1.733.19 2.2.57.473.373.71.887.71 1.54 0 .413-.1.787-.3 1.12-.194.327-.49.587-.89.78-.394.187-.88.28-1.46.28-.494 0-.97-.073-1.43-.22-.46-.153-.84-.363-1.14-.63l.46-.79c.24.227.546.41.92.55.373.133.766.2 1.18.2.526 0 .933-.11 1.22-.33.293-.227.44-.533.44-.92 0-.42-.16-.737-.48-.95-.32-.22-.867-.33-1.64-.33h-1.59l.37-3.66h3.95v.87h-3.11l-.19 1.92h.78z" fill="#5E9EEB"/><path fill="#D4EEFF" d="M71 95h487v37H71z"/><path d="M88.12 108v7h-.98v-6.13h-4.06V115h-.99v-7h6.03zm4.833 1.65c.513 0 .973.113 1.38.34.407.227.723.543.95.95.233.407.35.877.35 1.41 0 .533-.117 1.007-.35 1.42a2.411 2.411 0 0 1-.95.95c-.407.227-.867.34-1.38.34-.38 0-.73-.073-1.05-.22a2.188 2.188 0 0 1-.8-.64v2.74h-.96v-7.24h.92v.84c.213-.293.483-.513.81-.66.327-.153.687-.23 1.08-.23zm-.08 4.57c.34 0 .643-.077.91-.23.273-.16.487-.38.64-.66.16-.287.24-.613.24-.98s-.08-.69-.24-.97a1.604 1.604 0 0 0-.64-.66 1.796 1.796 0 0 0-.91-.23c-.333 0-.637.08-.91.24a1.71 1.71 0 0 0-.64.65c-.153.28-.23.603-.23.97s.077.693.23.98c.153.28.367.5.64.66.273.153.577.23.91.23zm8.229-4.52v5.3h-.86v-1.68H98.592l-1.16 1.68h-1.03l1.29-1.81c-.4-.12-.707-.317-.92-.59-.214-.28-.32-.627-.32-1.04 0-.607.207-1.067.62-1.38.413-.32.983-.48 1.71-.48h2.32zm-3.67 1.89c0 .353.11.617.33.79.227.167.563.25 1.01.25h1.47v-2.09h-1.43c-.92 0-1.38.35-1.38 1.05zm11.653-1.89v5.3h-.87v-3.87l-1.98 3.27h-.42l-1.96-3.28V115h-.88v-5.3h.99l2.08 3.58 2.14-3.58h.9zm4.258 1.8c.667.007 1.177.16 1.53.46.354.3.53.723.53 1.27 0 .573-.193 1.017-.58 1.33-.38.307-.926.457-1.64.45l-2.23-.01v-5.3h.96v1.79l1.43.01zm2.85-1.8h.96v5.3h-.96v-5.3zm-3.08 4.58c.434.007.76-.08.98-.26.227-.18.34-.447.34-.8 0-.347-.11-.6-.33-.76-.22-.16-.55-.243-.99-.25l-1.2-.02v2.08l1.2.01zm10.697-1.9c0 .073-.007.17-.02.29h-4.3c.06.467.263.843.61 1.13.353.28.79.42 1.31.42.633 0 1.143-.213 1.53-.64l.53.62c-.24.28-.54.493-.9.64a3.07 3.07 0 0 1-1.19.22c-.56 0-1.057-.113-1.49-.34a2.53 2.53 0 0 1-1.01-.97 2.8 2.8 0 0 1-.35-1.4c0-.513.113-.977.34-1.39.233-.413.55-.733.95-.96.407-.233.863-.35 1.37-.35.507 0 .957.117 1.35.35.4.227.71.547.93.96.227.413.34.887.34 1.42zm-2.62-1.92c-.46 0-.847.14-1.16.42-.307.28-.487.647-.54 1.1h3.4a1.674 1.674 0 0 0-.55-1.09c-.307-.287-.69-.43-1.15-.43zm9.605-.81c.513 0 .973.113 1.38.34.406.227.723.543.95.95.233.407.35.877.35 1.41 0 .533-.117 1.007-.35 1.42a2.418 2.418 0 0 1-.95.95c-.407.227-.867.34-1.38.34-.38 0-.73-.073-1.05-.22a2.182 2.182 0 0 1-.8-.64v2.74h-.96v-7.24h.92v.84a2 2 0 0 1 .81-.66 2.51 2.51 0 0 1 1.08-.23zm-.08 4.57c.34 0 .643-.077.91-.23a1.7 1.7 0 0 0 .64-.66c.16-.287.24-.613.24-.98s-.08-.69-.24-.97a1.61 1.61 0 0 0-.64-.66 1.797 1.797 0 0 0-.91-.23c-.334 0-.637.08-.91.24-.267.153-.48.37-.64.65-.154.28-.23.603-.23.97s.076.693.23.98c.153.28.366.5.64.66.273.153.576.23.91.23zm5.996-4.57c.733 0 1.293.18 1.68.54.393.36.59.897.59 1.61v3.2h-.91v-.7a1.54 1.54 0 0 1-.69.57c-.294.127-.644.19-1.05.19-.594 0-1.07-.143-1.43-.43a1.383 1.383 0 0 1-.53-1.13c0-.467.17-.84.51-1.12.34-.287.88-.43 1.62-.43h1.52v-.19c0-.413-.12-.73-.36-.95-.24-.22-.594-.33-1.06-.33-.314 0-.62.053-.92.16a2.3 2.3 0 0 0-.76.41l-.4-.72c.273-.22.6-.387.98-.5.38-.12.783-.18 1.21-.18zm-.22 4.67c.366 0 .683-.08.95-.24.266-.167.46-.4.58-.7v-.74h-1.48c-.814 0-1.22.273-1.22.82a.74.74 0 0 0 .31.63c.206.153.493.23.86.23zm6.528.74c-.54 0-1.023-.117-1.45-.35a2.58 2.58 0 0 1-.99-.96c-.24-.413-.36-.88-.36-1.4 0-.52.12-.983.36-1.39.24-.413.57-.733.99-.96.427-.233.91-.35 1.45-.35.48 0 .907.097 1.28.29.38.193.674.473.88.84l-.73.47a1.629 1.629 0 0 0-.62-.57 1.762 1.762 0 0 0-.82-.19c-.346 0-.66.077-.94.23-.273.153-.49.373-.65.66a1.99 1.99 0 0 0-.23.97c0 .373.077.703.23.99.16.28.377.497.65.65.28.153.594.23.94.23.3 0 .574-.063.82-.19.247-.127.454-.317.62-.57l.73.46c-.206.367-.5.65-.88.85-.373.193-.8.29-1.28.29zm6.547-.06l-1.53-2.03-1.55 2.03h-1.07l2.09-2.71-1.99-2.59h1.07l1.46 1.91 1.45-1.91h1.05l-2 2.59 2.11 2.71h-1.09zm4.195.06c-.527 0-1-.117-1.42-.35a2.58 2.58 0 0 1-.99-.96 2.79 2.79 0 0 1-.35-1.4c0-.52.116-.983.35-1.39.24-.413.57-.733.99-.96.42-.233.893-.35 1.42-.35.526 0 .996.117 1.41.35.42.227.746.547.98.96.24.407.36.87.36 1.39 0 .52-.12.987-.36 1.4-.234.407-.56.727-.98.96-.414.233-.884.35-1.41.35zm0-.84c.34 0 .643-.077.91-.23a1.7 1.7 0 0 0 .64-.66 2.05 2.05 0 0 0 .23-.98c0-.367-.077-.69-.23-.97a1.61 1.61 0 0 0-.64-.66 1.797 1.797 0 0 0-.91-.23c-.34 0-.647.077-.92.23-.267.153-.48.373-.64.66-.154.28-.23.603-.23.97s.076.693.23.98c.16.28.373.5.64.66.273.153.58.23.92.23zm9.487-.06v2.07h-.9V115h-4.43v1.23h-.91v-2.07h.28c.34-.02.573-.26.7-.72.126-.46.213-1.11.26-1.95l.08-1.79h4.11v4.46h.81zm-4.12-2.6a11.25 11.25 0 0 1-.17 1.66c-.08.433-.23.747-.45.94h2.97v-3.62h-2.3l-.05 1.02zm7.76-.06c.667.007 1.177.16 1.53.46.354.3.53.723.53 1.27 0 .573-.193 1.017-.58 1.33-.38.307-.926.457-1.64.45l-2.23-.01v-5.3h.96v1.79l1.43.01zm2.85-1.8h.96v5.3h-.96v-5.3zm-3.08 4.58c.434.007.76-.08.98-.26.227-.18.34-.447.34-.8 0-.347-.11-.6-.33-.76-.22-.16-.55-.243-.99-.25l-1.2-.02v2.08l1.2.01z" fill="#5E9EEB"/><path fill="#D4EEFF" d="M71 134h487v37H71z"/><path d="M88.58 156l-.01-5.1-2.53 4.25h-.46l-2.53-4.22V156h-.96v-7h.82l2.92 4.92 2.88-4.92h.82l.01 7h-.96zm4.869-5.35c.733 0 1.293.18 1.68.54.393.36.59.897.59 1.61v3.2h-.91v-.7a1.54 1.54 0 0 1-.69.57c-.293.127-.643.19-1.05.19-.593 0-1.07-.143-1.43-.43a1.385 1.385 0 0 1-.53-1.13c0-.467.17-.84.51-1.12.34-.287.88-.43 1.62-.43h1.52v-.19c0-.413-.12-.73-.36-.95-.24-.22-.593-.33-1.06-.33-.313 0-.62.053-.92.16-.3.1-.553.237-.76.41l-.4-.72c.273-.22.6-.387.98-.5.38-.12.783-.18 1.21-.18zm-.22 4.67c.367 0 .683-.08.95-.24.267-.167.46-.4.58-.7v-.74h-1.48c-.813 0-1.22.273-1.22.82 0 .267.103.477.31.63.207.153.493.23.86.23zm7.029-4.67c.513 0 .973.113 1.38.34.406.227.723.543.95.95.233.407.35.877.35 1.41 0 .533-.117 1.007-.35 1.42a2.418 2.418 0 0 1-.95.95c-.407.227-.867.34-1.38.34-.38 0-.73-.073-1.05-.22a2.187 2.187 0 0 1-.8-.64v2.74h-.96v-7.24h.92v.84c.213-.293.483-.513.81-.66.326-.153.686-.23 1.08-.23zm-.08 4.57c.34 0 .643-.077.91-.23a1.7 1.7 0 0 0 .64-.66c.16-.287.24-.613.24-.98s-.08-.69-.24-.97a1.61 1.61 0 0 0-.64-.66 1.797 1.797 0 0 0-.91-.23c-.334 0-.637.08-.91.24a1.71 1.71 0 0 0-.64.65c-.154.28-.23.603-.23.97s.076.693.23.98c.153.28.366.5.64.66.273.153.576.23.91.23zm8.799-1.46h-1.03V156h-.96v-2.24h-1.03l-1.46 2.24h-1.14l1.82-2.74-1.68-2.56h1.02l1.43 2.24h1.04v-2.24h.96v2.24h1.04l1.43-2.24h1.03l-1.68 2.57 1.82 2.73h-1.14l-1.47-2.24zm5.458-3.11c.734 0 1.294.18 1.68.54.394.36.59.897.59 1.61v3.2h-.91v-.7a1.54 1.54 0 0 1-.69.57c-.293.127-.643.19-1.05.19-.593 0-1.07-.143-1.43-.43a1.385 1.385 0 0 1-.53-1.13c0-.467.17-.84.51-1.12.34-.287.88-.43 1.62-.43h1.52v-.19c0-.413-.12-.73-.36-.95-.24-.22-.593-.33-1.06-.33-.313 0-.62.053-.92.16-.3.1-.553.237-.76.41l-.4-.72c.274-.22.6-.387.98-.5.38-.12.784-.18 1.21-.18zm-.22 4.67c.367 0 .684-.08.95-.24.267-.167.46-.4.58-.7v-.74h-1.48c-.813 0-1.22.273-1.22.82 0 .267.104.477.31.63.207.153.494.23.86.23z" fill="#5E9EEB"/><path fill="#D4EEFF" d="M71 173h487v37H71z"/><path d="M88.58 195l-.01-5.1-2.53 4.25h-.46l-2.53-4.22V195h-.96v-7h.82l2.92 4.92 2.88-4.92h.82l.01 7h-.96zm4.869-5.35c.733 0 1.293.18 1.68.54.393.36.59.897.59 1.61v3.2h-.91v-.7a1.54 1.54 0 0 1-.69.57c-.293.127-.643.19-1.05.19-.593 0-1.07-.143-1.43-.43a1.385 1.385 0 0 1-.53-1.13c0-.467.17-.84.51-1.12.34-.287.88-.43 1.62-.43h1.52v-.19c0-.413-.12-.73-.36-.95-.24-.22-.593-.33-1.06-.33-.313 0-.62.053-.92.16-.3.1-.553.237-.76.41l-.4-.72c.273-.22.6-.387.98-.5.38-.12.783-.18 1.21-.18zm-.22 4.67c.367 0 .683-.08.95-.24.267-.167.46-.4.58-.7v-.74h-1.48c-.813 0-1.22.273-1.22.82 0 .267.103.477.31.63.207.153.493.23.86.23zm7.029-4.67c.513 0 .973.113 1.38.34.406.227.723.543.95.95.233.407.35.877.35 1.41 0 .533-.117 1.007-.35 1.42a2.418 2.418 0 0 1-.95.95c-.407.227-.867.34-1.38.34-.38 0-.73-.073-1.05-.22a2.187 2.187 0 0 1-.8-.64v2.74h-.96v-7.24h.92v.84c.213-.293.483-.513.81-.66.326-.153.686-.23 1.08-.23zm-.08 4.57c.34 0 .643-.077.91-.23a1.7 1.7 0 0 0 .64-.66c.16-.287.24-.613.24-.98s-.08-.69-.24-.97a1.61 1.61 0 0 0-.64-.66 1.797 1.797 0 0 0-.91-.23c-.334 0-.637.08-.91.24a1.71 1.71 0 0 0-.64.65c-.154.28-.23.603-.23.97s.076.693.23.98c.153.28.366.5.64.66.273.153.576.23.91.23zm8.799-1.46h-1.03V195h-.96v-2.24h-1.03l-1.46 2.24h-1.14l1.82-2.74-1.68-2.56h1.02l1.43 2.24h1.04v-2.24h.96v2.24h1.04l1.43-2.24h1.03l-1.68 2.57 1.82 2.73h-1.14l-1.47-2.24zm5.458-3.11c.734 0 1.294.18 1.68.54.394.36.59.897.59 1.61v3.2h-.91v-.7a1.54 1.54 0 0 1-.69.57c-.293.127-.643.19-1.05.19-.593 0-1.07-.143-1.43-.43a1.385 1.385 0 0 1-.53-1.13c0-.467.17-.84.51-1.12.34-.287.88-.43 1.62-.43h1.52v-.19c0-.413-.12-.73-.36-.95-.24-.22-.593-.33-1.06-.33-.313 0-.62.053-.92.16-.3.1-.553.237-.76.41l-.4-.72c.274-.22.6-.387.98-.5.38-.12.784-.18 1.21-.18zm-.22 4.67c.367 0 .684-.08.95-.24.267-.167.46-.4.58-.7v-.74h-1.48c-.813 0-1.22.273-1.22.82 0 .267.104.477.31.63.207.153.494.23.86.23zm7.974-2.56c-.486 0-.88-.177-1.18-.53-.3-.353-.45-.813-.45-1.38s.15-1.027.45-1.38c.3-.353.694-.53 1.18-.53.487 0 .877.177 1.17.53.3.347.45.807.45 1.38 0 .573-.15 1.037-.45 1.39-.293.347-.683.52-1.17.52zm4.22-3.76h.77l-4.78 7h-.77l4.78-7zm-4.22 3.19a.847.847 0 0 0 .72-.35c.174-.24.26-.57.26-.99 0-.42-.086-.747-.26-.98a.838.838 0 0 0-.72-.36c-.3 0-.54.12-.72.36-.173.24-.26.567-.26.98 0 .413.087.74.26.98.18.24.42.36.72.36zm4.43 3.87c-.486 0-.88-.173-1.18-.52-.293-.353-.44-.817-.44-1.39s.147-1.033.44-1.38c.3-.353.694-.53 1.18-.53.487 0 .88.177 1.18.53.3.353.45.813.45 1.38s-.15 1.027-.45 1.38c-.3.353-.693.53-1.18.53zm0-.57c.3 0 .537-.12.71-.36.18-.24.27-.567.27-.98 0-.413-.09-.74-.27-.98a.829.829 0 0 0-.71-.36.84.84 0 0 0-.72.36c-.173.233-.26.56-.26.98 0 .42.087.75.26.99a.85.85 0 0 0 .72.35z" fill="#5E9EEB"/><path fill="#D4EEFF" d="M71 212h487v37H71z"/><path d="M88.11 226v7h-1v-3.12h-4.02V233h-1v-7h1v3.01h4.02V226h1zm3.913 1.65c.734 0 1.294.18 1.68.54.394.36.59.897.59 1.61v3.2h-.91v-.7a1.54 1.54 0 0 1-.69.57c-.293.127-.643.19-1.05.19-.593 0-1.07-.143-1.43-.43a1.385 1.385 0 0 1-.53-1.13c0-.467.17-.84.51-1.12.34-.287.88-.43 1.62-.43h1.52v-.19c0-.413-.12-.73-.36-.95-.24-.22-.593-.33-1.06-.33-.313 0-.62.053-.92.16-.3.1-.553.237-.76.41l-.4-.72c.273-.22.6-.387.98-.5.38-.12.784-.18 1.21-.18zm-.22 4.67c.367 0 .684-.08.95-.24.267-.167.46-.4.58-.7v-.74h-1.48c-.813 0-1.22.273-1.22.82 0 .267.104.477.31.63.207.153.493.23.86.23zm8.769-4.62v5.3h-.96v-4.46h-2.28l-.06 1.18c-.034.713-.097 1.31-.19 1.79-.093.473-.247.853-.46 1.14-.213.287-.51.43-.89.43-.174 0-.37-.03-.59-.09l.06-.81c.087.02.166.03.24.03a.65.65 0 0 0 .6-.35c.133-.233.22-.51.26-.83.04-.32.076-.777.11-1.37l.09-1.96h4.07zm4.126 5.36c-.527 0-1-.117-1.42-.35a2.58 2.58 0 0 1-.99-.96 2.8 2.8 0 0 1-.35-1.4c0-.52.117-.983.35-1.39.24-.413.57-.733.99-.96.42-.233.893-.35 1.42-.35.527 0 .997.117 1.41.35.42.227.747.547.98.96.24.407.36.87.36 1.39 0 .52-.12.987-.36 1.4-.233.407-.56.727-.98.96a2.82 2.82 0 0 1-1.41.35zm0-.84c.34 0 .643-.077.91-.23.273-.16.487-.38.64-.66a2.05 2.05 0 0 0 .23-.98c0-.367-.077-.69-.23-.97a1.604 1.604 0 0 0-.64-.66 1.797 1.797 0 0 0-.91-.23c-.34 0-.647.077-.92.23-.267.153-.48.373-.64.66a1.99 1.99 0 0 0-.23.97c0 .367.077.693.23.98.16.28.373.5.64.66.273.153.58.23.92.23zm8.036-3.68h-2.94V233h-.96v-5.3h3.9v.84zm.983-.84h.96v3.86l3.25-3.86h.87v5.3h-.96v-3.86l-3.24 3.86h-.88v-5.3z" fill="#5E9EEB"/><path fill="#D4EEFF" d="M71 251h487v37H71z"/><path d="M88.76 273.13v2.4h-.93V274h-5.76l-.01 1.53h-.93l.01-2.4h.34c.44-.027.75-.373.93-1.04.18-.673.29-1.62.33-2.84l.07-2.25h4.92v6.13h1.03zm-5.14-3.79c-.033.987-.113 1.803-.24 2.45-.12.647-.317 1.093-.59 1.34h3.95v-5.26h-3.07l-.05 1.47zm9.157-.69c.513 0 .973.113 1.38.34.407.227.723.543.95.95.233.407.35.877.35 1.41 0 .533-.117 1.007-.35 1.42a2.411 2.411 0 0 1-.95.95c-.407.227-.867.34-1.38.34-.38 0-.73-.073-1.05-.22a2.188 2.188 0 0 1-.8-.64v2.74h-.96v-7.24h.92v.84c.213-.293.483-.513.81-.66.327-.153.687-.23 1.08-.23zm-.08 4.57c.34 0 .643-.077.91-.23.273-.16.487-.38.64-.66.16-.287.24-.613.24-.98s-.08-.69-.24-.97a1.604 1.604 0 0 0-.64-.66 1.796 1.796 0 0 0-.91-.23c-.333 0-.637.08-.91.24a1.71 1.71 0 0 0-.64.65c-.153.28-.23.603-.23.97s.077.693.23.98c.153.28.367.5.64.66.273.153.577.23.91.23zm8.738-4.52l-2.57 5.83c-.226.54-.493.92-.8 1.14-.3.22-.663.33-1.09.33-.26 0-.513-.043-.76-.13-.24-.08-.44-.2-.6-.36l.41-.72c.274.26.59.39.95.39a.879.879 0 0 0 .58-.19c.16-.12.304-.33.43-.63l.17-.37-2.34-5.29h1l1.85 4.24 1.83-4.24h.94zm4.883.84h-2.94V274h-.96v-5.3h3.9v.84zm.983-.84h.96v3.86l3.25-3.86h.87v5.3h-.96v-3.86l-3.24 3.86h-.88v-5.3zm11.733 2.68c0 .073-.006.17-.02.29h-4.3c.06.467.264.843.61 1.13.354.28.79.42 1.31.42.634 0 1.144-.213 1.53-.64l.53.62c-.24.28-.54.493-.9.64a3.07 3.07 0 0 1-1.19.22c-.56 0-1.056-.113-1.49-.34a2.53 2.53 0 0 1-1.01-.97 2.8 2.8 0 0 1-.35-1.4c0-.513.114-.977.34-1.39a2.49 2.49 0 0 1 .95-.96c.407-.233.864-.35 1.37-.35.507 0 .957.117 1.35.35.4.227.71.547.93.96.227.413.34.887.34 1.42zm-2.62-1.92c-.46 0-.846.14-1.16.42-.306.28-.486.647-.54 1.1h3.4a1.67 1.67 0 0 0-.55-1.09c-.306-.287-.69-.43-1.15-.43zm9.665 1.78c.354.093.627.243.82.45.194.207.29.463.29.77 0 .313-.106.593-.32.84-.213.24-.51.43-.89.57-.373.133-.793.2-1.26.2-.393 0-.78-.05-1.16-.15a3.635 3.635 0 0 1-1-.45l.29-.73c.254.16.544.287.87.38.327.087.657.13.99.13.454 0 .814-.077 1.08-.23.274-.16.41-.373.41-.64a.63.63 0 0 0-.33-.57c-.213-.133-.516-.2-.91-.2h-.97v-.69h.9c.36 0 .644-.063.85-.19.207-.127.31-.3.31-.52 0-.24-.123-.427-.37-.56-.24-.133-.566-.2-.98-.2-.526 0-1.083.137-1.67.41l-.26-.74a4.444 4.444 0 0 1 2.03-.49c.427 0 .81.06 1.15.18.34.12.607.29.8.51.194.22.29.47.29.75 0 .26-.086.493-.26.7a1.6 1.6 0 0 1-.7.47zm4.46-2.59c.733 0 1.293.18 1.68.54.393.36.59.897.59 1.61v3.2h-.91v-.7a1.54 1.54 0 0 1-.69.57c-.294.127-.644.19-1.05.19-.594 0-1.07-.143-1.43-.43a1.383 1.383 0 0 1-.53-1.13c0-.467.17-.84.51-1.12.34-.287.88-.43 1.62-.43h1.52v-.19c0-.413-.12-.73-.36-.95-.24-.22-.594-.33-1.06-.33-.314 0-.62.053-.92.16a2.3 2.3 0 0 0-.76.41l-.4-.72c.273-.22.6-.387.98-.5.38-.12.783-.18 1.21-.18zm-.22 4.67c.366 0 .683-.08.95-.24.266-.167.46-.4.58-.7v-.74h-1.48c-.814 0-1.22.273-1.22.82a.74.74 0 0 0 .31.63c.206.153.493.23.86.23zm8.168-3.78h-1.94V274h-.96v-4.46h-1.94v-.84h4.84v.84zm3.792-.89c.513 0 .973.113 1.38.34.407.227.723.543.95.95.233.407.35.877.35 1.41 0 .533-.117 1.007-.35 1.42a2.411 2.411 0 0 1-.95.95c-.407.227-.867.34-1.38.34-.38 0-.73-.073-1.05-.22a2.19 2.19 0 0 1-.8-.64v2.74h-.96v-7.24h.92v.84a2 2 0 0 1 .81-.66c.327-.153.687-.23 1.08-.23zm-.08 4.57c.34 0 .643-.077.91-.23.273-.16.487-.38.64-.66.16-.287.24-.613.24-.98s-.08-.69-.24-.97a1.604 1.604 0 0 0-.64-.66 1.797 1.797 0 0 0-.91-.23c-.333 0-.637.08-.91.24-.267.153-.48.37-.64.65a1.99 1.99 0 0 0-.23.97c0 .367.077.693.23.98.153.28.367.5.64.66.273.153.577.23.91.23zm5.996-4.57c.733 0 1.293.18 1.68.54.393.36.59.897.59 1.61v3.2h-.91v-.7a1.54 1.54 0 0 1-.69.57c-.293.127-.643.19-1.05.19-.593 0-1.07-.143-1.43-.43a1.385 1.385 0 0 1-.53-1.13c0-.467.17-.84.51-1.12.34-.287.88-.43 1.62-.43h1.52v-.19c0-.413-.12-.73-.36-.95-.24-.22-.593-.33-1.06-.33-.313 0-.62.053-.92.16-.3.1-.553.237-.76.41l-.4-.72c.273-.22.6-.387.98-.5.38-.12.783-.18 1.21-.18zm-.22 4.67c.367 0 .683-.08.95-.24.267-.167.46-.4.58-.7v-.74h-1.48c-.813 0-1.22.273-1.22.82a.74.74 0 0 0 .31.63c.207.153.493.23.86.23zm8.169-3.78h-1.94V274h-.96v-4.46h-1.94v-.84h4.84v.84zm3.371.96c.667.007 1.177.16 1.53.46.354.3.53.723.53 1.27 0 .573-.193 1.017-.58 1.33-.38.307-.926.457-1.64.45l-2.23-.01v-5.3h.96v1.79l1.43.01zm2.85-1.8h.96v5.3h-.96v-5.3zm-3.08 4.58c.434.007.76-.08.98-.26.227-.18.34-.447.34-.8 0-.347-.11-.6-.33-.76-.22-.16-.55-.243-.99-.25l-1.2-.02v2.08l1.2.01zM71 290h487v37H71z" fill="#5E9EEB"/><path d="M86.45 308.37c.473.113.83.317 1.07.61.247.287.37.657.37 1.11 0 .607-.223 1.077-.67 1.41-.44.333-1.083.5-1.93.5h-3.2v-7h3.01c.767 0 1.363.157 1.79.47.433.307.65.75.65 1.33 0 .38-.097.703-.29.97a1.677 1.677 0 0 1-.8.6zm-3.37-.29h1.95c.487 0 .857-.097 1.11-.29.26-.193.39-.477.39-.85s-.13-.657-.39-.85c-.26-.2-.63-.3-1.11-.3h-1.95v2.29zm2.19 3.13c1.073 0 1.61-.4 1.61-1.2 0-.4-.137-.693-.41-.88-.267-.193-.667-.29-1.2-.29h-2.19v2.37h2.19zm6.44.85c-.54 0-1.023-.117-1.45-.35a2.58 2.58 0 0 1-.99-.96c-.24-.413-.36-.88-.36-1.4 0-.52.12-.983.36-1.39.24-.413.57-.733.99-.96.427-.233.91-.35 1.45-.35.48 0 .907.097 1.28.29.38.193.674.473.88.84l-.73.47a1.636 1.636 0 0 0-.62-.57 1.764 1.764 0 0 0-.82-.19c-.346 0-.66.077-.94.23a1.67 1.67 0 0 0-.65.66c-.153.28-.23.603-.23.97 0 .373.077.703.23.99.16.28.377.497.65.65.28.153.594.23.94.23.3 0 .574-.063.82-.19.247-.127.454-.317.62-.57l.73.46c-.206.367-.5.65-.88.85-.373.193-.8.29-1.28.29zm8.116-2.68c0 .073-.007.17-.02.29h-4.3c.06.467.263.843.61 1.13.353.28.79.42 1.31.42.633 0 1.143-.213 1.53-.64l.53.62c-.24.28-.54.493-.9.64-.354.147-.75.22-1.19.22-.56 0-1.057-.113-1.49-.34a2.527 2.527 0 0 1-1.01-.97 2.796 2.796 0 0 1-.35-1.4c0-.513.113-.977.34-1.39.233-.413.55-.733.95-.96.406-.233.863-.35 1.37-.35.506 0 .956.117 1.35.35.4.227.71.547.93.96.226.413.34.887.34 1.42zm-2.62-1.92c-.46 0-.847.14-1.16.42-.307.28-.487.647-.54 1.1h3.4a1.674 1.674 0 0 0-.55-1.09c-.307-.287-.69-.43-1.15-.43zm8.009.08h-2.94V312h-.96v-5.3h3.9v.84zm3.018 4.52c-.526 0-1-.117-1.42-.35a2.58 2.58 0 0 1-.99-.96 2.8 2.8 0 0 1-.35-1.4c0-.52.117-.983.35-1.39.24-.413.57-.733.99-.96a2.88 2.88 0 0 1 1.42-.35c.527 0 .997.117 1.41.35.42.227.747.547.98.96.24.407.36.87.36 1.39 0 .52-.12.987-.36 1.4-.233.407-.56.727-.98.96a2.82 2.82 0 0 1-1.41.35zm0-.84c.34 0 .644-.077.91-.23.274-.16.487-.38.64-.66.154-.287.23-.613.23-.98s-.076-.69-.23-.97a1.598 1.598 0 0 0-.64-.66 1.794 1.794 0 0 0-.91-.23c-.34 0-.646.077-.92.23-.266.153-.48.373-.64.66a1.99 1.99 0 0 0-.23.97c0 .367.077.693.23.98.16.28.374.5.64.66.274.153.58.23.92.23zm9.692-1.98c.353.093.627.243.82.45.193.207.29.463.29.77 0 .313-.107.593-.32.84-.213.24-.51.43-.89.57-.373.133-.793.2-1.26.2-.393 0-.78-.05-1.16-.15a3.621 3.621 0 0 1-1-.45l.29-.73c.253.16.543.287.87.38.327.087.657.13.99.13.453 0 .813-.077 1.08-.23.273-.16.41-.373.41-.64a.63.63 0 0 0-.33-.57c-.213-.133-.517-.2-.91-.2h-.97v-.69h.9c.36 0 .643-.063.85-.19.207-.127.31-.3.31-.52 0-.24-.123-.427-.37-.56-.24-.133-.567-.2-.98-.2-.527 0-1.083.137-1.67.41l-.26-.74a4.441 4.441 0 0 1 2.03-.49c.427 0 .81.06 1.15.18.34.12.607.29.8.51.193.22.29.47.29.75 0 .26-.087.493-.26.7a1.606 1.606 0 0 1-.7.47zm4.459-2.59c.734 0 1.294.18 1.68.54.394.36.59.897.59 1.61v3.2h-.91v-.7a1.54 1.54 0 0 1-.69.57c-.293.127-.643.19-1.05.19-.593 0-1.07-.143-1.43-.43a1.385 1.385 0 0 1-.53-1.13c0-.467.17-.84.51-1.12.34-.287.88-.43 1.62-.43h1.52v-.19c0-.413-.12-.73-.36-.95-.24-.22-.593-.33-1.06-.33-.313 0-.62.053-.92.16-.3.1-.553.237-.76.41l-.4-.72c.274-.22.6-.387.98-.5.38-.12.784-.18 1.21-.18zm-.22 4.67c.367 0 .684-.08.95-.24.267-.167.46-.4.58-.7v-.74h-1.48c-.813 0-1.22.273-1.22.82 0 .267.104.477.31.63.207.153.494.23.86.23zm8.169-3.78h-1.94V312h-.96v-4.46h-1.94v-.84h4.84v.84zm3.792-.89c.513 0 .973.113 1.38.34.406.227.723.543.95.95.233.407.35.877.35 1.41 0 .533-.117 1.007-.35 1.42a2.418 2.418 0 0 1-.95.95c-.407.227-.867.34-1.38.34-.38 0-.73-.073-1.05-.22a2.182 2.182 0 0 1-.8-.64v2.74h-.96v-7.24h.92v.84a2 2 0 0 1 .81-.66 2.51 2.51 0 0 1 1.08-.23zm-.08 4.57c.34 0 .643-.077.91-.23a1.7 1.7 0 0 0 .64-.66c.16-.287.24-.613.24-.98s-.08-.69-.24-.97a1.61 1.61 0 0 0-.64-.66 1.797 1.797 0 0 0-.91-.23c-.334 0-.637.08-.91.24-.267.153-.48.37-.64.65-.154.28-.23.603-.23.97s.076.693.23.98c.153.28.366.5.64.66.273.153.576.23.91.23zm5.996-4.57c.733 0 1.293.18 1.68.54.393.36.59.897.59 1.61v3.2h-.91v-.7a1.54 1.54 0 0 1-.69.57c-.294.127-.644.19-1.05.19-.594 0-1.07-.143-1.43-.43a1.383 1.383 0 0 1-.53-1.13c0-.467.17-.84.51-1.12.34-.287.88-.43 1.62-.43h1.52v-.19c0-.413-.12-.73-.36-.95-.24-.22-.594-.33-1.06-.33-.314 0-.62.053-.92.16a2.3 2.3 0 0 0-.76.41l-.4-.72c.273-.22.6-.387.98-.5.38-.12.783-.18 1.21-.18zm-.22 4.67c.366 0 .683-.08.95-.24.266-.167.46-.4.58-.7v-.74h-1.48c-.814 0-1.22.273-1.22.82a.74.74 0 0 0 .31.63c.206.153.493.23.86.23zm8.168-3.78h-1.94V312h-.96v-4.46h-1.94v-.84h4.84v.84zm3.372.96c.667.007 1.177.16 1.53.46.353.3.53.723.53 1.27 0 .573-.193 1.017-.58 1.33-.38.307-.927.457-1.64.45l-2.23-.01v-5.3h.96v1.79l1.43.01zm2.85-1.8h.96v5.3h-.96v-5.3zm-3.08 4.58c.433.007.76-.08.98-.26.227-.18.34-.447.34-.8 0-.347-.11-.6-.33-.76-.22-.16-.55-.243-.99-.25l-1.2-.02v2.08l1.2.01zM191 54v273h-2V54zM275 54v273h-2V54zM349 54v273h-2V54zM418 54v273h-2V54zM492 54v273h-2V54z" fill="#fff"/><path d="M214.57 115.84h2.69v.83h-2.69v-.83zm8.74-3.84v.68l-2.83 6.32h-1.06l2.77-6.13h-3.2v1.25h-.96V112h5.28zm5.797 6.13v.87h-5.03v-.68l2.85-2.75c.347-.333.58-.62.7-.86.12-.247.18-.493.18-.74 0-.367-.13-.65-.39-.85-.253-.207-.62-.31-1.1-.31-.773 0-1.37.253-1.79.76l-.68-.59a2.74 2.74 0 0 1 1.07-.78c.447-.187.943-.28 1.49-.28.733 0 1.317.177 1.75.53.433.347.65.82.65 1.42 0 .373-.08.727-.24 1.06-.16.333-.463.713-.91 1.14l-2.14 2.06h3.59zm5.678-6.13v7h-.99v-6.13h-1.58V112h2.57zm3.531 2.79c1 0 1.733.19 2.2.57.473.373.71.887.71 1.54 0 .413-.1.787-.3 1.12-.193.327-.49.587-.89.78-.393.187-.88.28-1.46.28a4.67 4.67 0 0 1-1.43-.22c-.46-.153-.84-.363-1.14-.63l.46-.79c.24.227.547.41.92.55.373.133.767.2 1.18.2.527 0 .933-.11 1.22-.33.293-.227.44-.533.44-.92 0-.42-.16-.737-.48-.95-.32-.22-.867-.33-1.64-.33h-1.59l.37-3.66h3.95v.87h-3.11l-.19 1.92h.78zm6.012-2.87c.94 0 1.663.303 2.17.91.513.607.77 1.467.77 2.58 0 .78-.14 1.447-.42 2-.273.547-.66.963-1.16 1.25-.493.28-1.07.42-1.73.42-.34 0-.66-.033-.96-.1-.3-.073-.56-.177-.78-.31l.38-.78c.34.22.79.33 1.35.33.727 0 1.293-.223 1.7-.67.413-.453.62-1.11.62-1.97v-.25c-.2.3-.477.53-.83.69-.353.153-.75.23-1.19.23-.46 0-.873-.087-1.24-.26a2.043 2.043 0 0 1-.85-.74c-.2-.327-.3-.7-.3-1.12 0-.44.107-.827.32-1.16.22-.333.517-.59.89-.77.373-.187.793-.28 1.26-.28zm.09 3.52c.313 0 .593-.06.84-.18s.437-.283.57-.49c.14-.207.21-.437.21-.69 0-.247-.067-.47-.2-.67a1.298 1.298 0 0 0-.57-.49c-.247-.127-.547-.19-.9-.19-.46 0-.833.123-1.12.37-.28.247-.42.577-.42.99 0 .413.143.743.43.99.287.24.673.36 1.16.36zM295.57 115.84h2.69v.83h-2.69v-.83zm8.74-3.84v.68l-2.83 6.32h-1.06l2.77-6.13h-3.2v1.25h-.96V112h5.28zm5.977 0v.68l-2.83 6.32h-1.06l2.77-6.13h-3.2v1.25h-.96V112h5.28zm8.482 6.13v.87h-5.03v-.68l2.85-2.75c.347-.333.58-.62.7-.86.12-.247.18-.493.18-.74 0-.367-.13-.65-.39-.85-.253-.207-.62-.31-1.1-.31-.773 0-1.37.253-1.79.76l-.68-.59a2.74 2.74 0 0 1 1.07-.78c.447-.187.943-.28 1.49-.28.733 0 1.317.177 1.75.53.433.347.65.82.65 1.42 0 .373-.08.727-.24 1.06-.16.333-.463.713-.91 1.14l-2.14 2.06h3.59zm5.742 0v.87h-5.03v-.68l2.85-2.75c.347-.333.58-.62.7-.86.12-.247.18-.493.18-.74 0-.367-.13-.65-.39-.85-.253-.207-.62-.31-1.1-.31-.773 0-1.37.253-1.79.76l-.68-.59c.274-.333.63-.593 1.07-.78.447-.187.944-.28 1.49-.28.734 0 1.317.177 1.75.53.434.347.65.82.65 1.42 0 .373-.08.727-.24 1.06-.16.333-.463.713-.91 1.14l-2.14 2.06h3.59zm3.503-3.19c.686.067 1.21.28 1.57.64.36.353.54.807.54 1.36 0 .4-.1.763-.3 1.09-.2.32-.5.577-.9.77-.394.187-.877.28-1.45.28-.5 0-.98-.073-1.44-.22-.46-.153-.837-.363-1.13-.63l.46-.79c.24.227.546.41.92.55.373.133.77.2 1.19.2.52 0 .923-.11 1.21-.33.293-.22.44-.523.44-.91s-.144-.687-.43-.9c-.287-.213-.72-.32-1.3-.32h-.56v-.7l1.76-2.16h-3.37V112h4.62v.68l-1.83 2.26zM365.57 115.84h2.69v.83h-2.69v-.83zm8.74-3.84v.68l-2.83 6.32h-1.06l2.77-6.13h-3.2v1.25h-.96V112h5.28zm3.145 0v7h-.99v-6.13h-1.58V112h2.57zm10.306 5.28h-1.33V119h-.97v-1.72h-3.89v-.7l3.58-4.58h1.08l-3.43 4.42h2.69v-1.52h.94v1.52h1.33v.86zm4.978-1.95c.4.153.706.373.92.66.213.287.32.63.32 1.03 0 .42-.114.787-.34 1.1-.227.307-.55.543-.97.71-.42.167-.914.25-1.48.25-.56 0-1.05-.083-1.47-.25-.414-.167-.734-.403-.96-.71a1.824 1.824 0 0 1-.34-1.1c0-.4.103-.743.31-1.03.213-.287.52-.507.92-.66a1.749 1.749 0 0 1-.73-.61 1.596 1.596 0 0 1-.25-.9c0-.387.103-.723.31-1.01.213-.287.51-.507.89-.66.38-.153.82-.23 1.32-.23.506 0 .95.077 1.33.23.386.153.683.373.89.66.213.287.32.623.32 1.01 0 .34-.087.64-.26.9-.167.253-.41.457-.73.61zm-1.55-2.6c-.474 0-.847.103-1.12.31a.96.96 0 0 0-.41.82c0 .347.133.62.4.82.273.2.65.3 1.13.3.486 0 .866-.1 1.14-.3.28-.2.42-.473.42-.82a.949.949 0 0 0-.43-.82c-.28-.207-.657-.31-1.13-.31zm0 5.54c.553 0 .99-.113 1.31-.34.32-.233.48-.547.48-.94 0-.387-.16-.69-.48-.91-.32-.227-.757-.34-1.31-.34-.554 0-.987.113-1.3.34a1.05 1.05 0 0 0-.47.91c0 .393.156.707.47.94.313.227.746.34 1.3.34zm6.385-3.33c.687.067 1.21.28 1.57.64.36.353.54.807.54 1.36 0 .4-.1.763-.3 1.09-.2.32-.5.577-.9.77-.393.187-.877.28-1.45.28-.5 0-.98-.073-1.44-.22-.46-.153-.837-.363-1.13-.63l.46-.79c.24.227.547.41.92.55.373.133.77.2 1.19.2.52 0 .923-.11 1.21-.33.293-.22.44-.523.44-.91s-.143-.687-.43-.9c-.287-.213-.72-.32-1.3-.32h-.56v-.7l1.76-2.16h-3.37V112h4.62v.68l-1.83 2.26zM436.57 115.84h2.69v.83h-2.69v-.83zm6.826-1.09c.46 0 .87.087 1.23.26a1.997 1.997 0 0 1 1.17 1.86c0 .44-.11.827-.33 1.16-.213.333-.51.593-.89.78-.373.18-.793.27-1.26.27-.94 0-1.666-.303-2.18-.91-.506-.607-.76-1.467-.76-2.58 0-.78.137-1.443.41-1.99.28-.553.667-.97 1.16-1.25.5-.287 1.08-.43 1.74-.43.34 0 .66.037.96.11.3.067.56.167.78.3l-.38.78c-.333-.22-.78-.33-1.34-.33-.726 0-1.296.227-1.71.68-.413.447-.62 1.1-.62 1.96 0 .107.004.19.01.25.2-.3.474-.527.82-.68.354-.16.75-.24 1.19-.24zm-.12 3.52c.46 0 .834-.123 1.12-.37.287-.247.43-.577.43-.99 0-.413-.146-.74-.44-.98-.286-.247-.673-.37-1.16-.37-.313 0-.593.06-.84.18-.24.12-.43.283-.57.49a1.25 1.25 0 0 0-.2.69c0 .247.064.473.19.68.134.2.324.363.57.49.254.12.554.18.9.18zm7.552-2.94c.4.153.707.373.92.66.214.287.32.63.32 1.03 0 .42-.113.787-.34 1.1-.226.307-.55.543-.97.71-.42.167-.913.25-1.48.25-.56 0-1.05-.083-1.47-.25-.413-.167-.733-.403-.96-.71a1.83 1.83 0 0 1-.34-1.1c0-.4.104-.743.31-1.03.214-.287.52-.507.92-.66a1.755 1.755 0 0 1-.73-.61 1.604 1.604 0 0 1-.25-.9c0-.387.104-.723.31-1.01.214-.287.51-.507.89-.66.38-.153.82-.23 1.32-.23.507 0 .95.077 1.33.23.387.153.684.373.89.66.214.287.32.623.32 1.01 0 .34-.086.64-.26.9-.166.253-.41.457-.73.61zm-1.55-2.6c-.473 0-.846.103-1.12.31a.962.962 0 0 0-.41.82c0 .347.134.62.4.82.274.2.65.3 1.13.3.487 0 .867-.1 1.14-.3.28-.2.42-.473.42-.82a.947.947 0 0 0-.43-.82c-.28-.207-.656-.31-1.13-.31zm0 5.54c.554 0 .99-.113 1.31-.34.32-.233.48-.547.48-.94 0-.387-.16-.69-.48-.91-.32-.227-.756-.34-1.31-.34-.553 0-.986.113-1.3.34-.313.22-.47.523-.47.91 0 .393.157.707.47.94.314.227.747.34 1.3.34zm10.671-2.94c.4.153.707.373.92.66.214.287.32.63.32 1.03 0 .42-.113.787-.34 1.1-.226.307-.55.543-.97.71-.42.167-.913.25-1.48.25-.56 0-1.05-.083-1.47-.25-.413-.167-.733-.403-.96-.71a1.83 1.83 0 0 1-.34-1.1c0-.4.104-.743.31-1.03.214-.287.52-.507.92-.66a1.755 1.755 0 0 1-.73-.61 1.604 1.604 0 0 1-.25-.9c0-.387.104-.723.31-1.01.214-.287.51-.507.89-.66.38-.153.82-.23 1.32-.23.507 0 .95.077 1.33.23.387.153.684.373.89.66.214.287.32.623.32 1.01 0 .34-.086.64-.26.9-.166.253-.41.457-.73.61zm-1.55-2.6c-.473 0-.846.103-1.12.31a.962.962 0 0 0-.41.82c0 .347.134.62.4.82.274.2.65.3 1.13.3.487 0 .867-.1 1.14-.3.28-.2.42-.473.42-.82a.947.947 0 0 0-.43-.82c-.28-.207-.656-.31-1.13-.31zm0 5.54c.554 0 .99-.113 1.31-.34.32-.233.48-.547.48-.94 0-.387-.16-.69-.48-.91-.32-.227-.756-.34-1.31-.34-.553 0-.986.113-1.3.34-.313.22-.47.523-.47.91 0 .393.157.707.47.94.314.227.747.34 1.3.34zm6.386-3.33c.687.067 1.21.28 1.57.64.36.353.54.807.54 1.36 0 .4-.1.763-.3 1.09-.2.32-.5.577-.9.77-.393.187-.877.28-1.45.28-.5 0-.98-.073-1.44-.22-.46-.153-.837-.363-1.13-.63l.46-.79c.24.227.547.41.92.55.373.133.77.2 1.19.2.52 0 .923-.11 1.21-.33.293-.22.44-.523.44-.91s-.143-.687-.43-.9c-.287-.213-.72-.32-1.3-.32h-.56v-.7l1.76-2.16h-3.37V112h4.62v.68l-1.83 2.26zm7.323.39c.4.153.706.373.92.66.213.287.32.63.32 1.03 0 .42-.114.787-.34 1.1-.227.307-.55.543-.97.71-.42.167-.914.25-1.48.25-.56 0-1.05-.083-1.47-.25-.414-.167-.734-.403-.96-.71a1.824 1.824 0 0 1-.34-1.1c0-.4.103-.743.31-1.03.213-.287.52-.507.92-.66a1.749 1.749 0 0 1-.73-.61 1.596 1.596 0 0 1-.25-.9c0-.387.103-.723.31-1.01.213-.287.51-.507.89-.66.38-.153.82-.23 1.32-.23.506 0 .95.077 1.33.23.386.153.683.373.89.66.213.287.32.623.32 1.01 0 .34-.087.64-.26.9-.167.253-.41.457-.73.61zm-1.55-2.6c-.474 0-.847.103-1.12.31a.96.96 0 0 0-.41.82c0 .347.133.62.4.82.273.2.65.3 1.13.3.486 0 .866-.1 1.14-.3.28-.2.42-.473.42-.82a.949.949 0 0 0-.43-.82c-.28-.207-.657-.31-1.13-.31zm0 5.54c.553 0 .99-.113 1.31-.34.32-.233.48-.547.48-.94 0-.387-.16-.69-.48-.91-.32-.227-.757-.34-1.31-.34-.554 0-.987.113-1.3.34a1.05 1.05 0 0 0-.47.91c0 .393.156.707.47.94.313.227.746.34 1.3.34zM505.57 115.84h2.69v.83h-2.69v-.83zm6.223-.9c.686.067 1.21.28 1.57.64.36.353.54.807.54 1.36 0 .4-.1.763-.3 1.09-.2.32-.5.577-.9.77-.394.187-.877.28-1.45.28-.5 0-.98-.073-1.44-.22-.46-.153-.837-.363-1.13-.63l.46-.79c.24.227.546.41.92.55.373.133.77.2 1.19.2.52 0 .923-.11 1.21-.33.293-.22.44-.523.44-.91s-.144-.687-.43-.9c-.287-.213-.72-.32-1.3-.32h-.56v-.7l1.76-2.16h-3.37V112h4.62v.68l-1.83 2.26zm7.322.39c.4.153.707.373.92.66.214.287.32.63.32 1.03 0 .42-.113.787-.34 1.1-.226.307-.55.543-.97.71-.42.167-.913.25-1.48.25-.56 0-1.05-.083-1.47-.25-.413-.167-.733-.403-.96-.71a1.83 1.83 0 0 1-.34-1.1c0-.4.104-.743.31-1.03.214-.287.52-.507.92-.66a1.755 1.755 0 0 1-.73-.61 1.604 1.604 0 0 1-.25-.9c0-.387.104-.723.31-1.01.214-.287.51-.507.89-.66.38-.153.82-.23 1.32-.23.507 0 .95.077 1.33.23.387.153.684.373.89.66.214.287.32.623.32 1.01 0 .34-.086.64-.26.9-.166.253-.41.457-.73.61zm-1.55-2.6c-.473 0-.846.103-1.12.31a.962.962 0 0 0-.41.82c0 .347.134.62.4.82.274.2.65.3 1.13.3.487 0 .867-.1 1.14-.3.28-.2.42-.473.42-.82a.947.947 0 0 0-.43-.82c-.28-.207-.656-.31-1.13-.31zm0 5.54c.554 0 .99-.113 1.31-.34.32-.233.48-.547.48-.94 0-.387-.16-.69-.48-.91-.32-.227-.756-.34-1.31-.34-.553 0-.986.113-1.3.34-.313.22-.47.523-.47.91 0 .393.157.707.47.94.314.227.747.34 1.3.34zm5.706-3.48c1 0 1.733.19 2.2.57.473.373.71.887.71 1.54 0 .413-.1.787-.3 1.12-.193.327-.49.587-.89.78-.393.187-.88.28-1.46.28a4.67 4.67 0 0 1-1.43-.22c-.46-.153-.84-.363-1.14-.63l.46-.79c.24.227.547.41.92.55.373.133.767.2 1.18.2.527 0 .933-.11 1.22-.33.293-.227.44-.533.44-.92 0-.42-.16-.737-.48-.95-.32-.22-.867-.33-1.64-.33h-1.59l.37-3.66h3.95v.87h-3.11l-.19 1.92h.78zm11.528-2.79v.68l-2.83 6.32h-1.06l2.77-6.13h-3.2v1.25h-.96V112h5.28zm3.478 2.94c.687.067 1.21.28 1.57.64.36.353.54.807.54 1.36 0 .4-.1.763-.3 1.09-.2.32-.5.577-.9.77-.393.187-.876.28-1.45.28-.5 0-.98-.073-1.44-.22-.46-.153-.836-.363-1.13-.63l.46-.79c.24.227.547.41.92.55.374.133.77.2 1.19.2.52 0 .924-.11 1.21-.33.294-.22.44-.523.44-.91s-.143-.687-.43-.9c-.286-.213-.72-.32-1.3-.32h-.56v-.7l1.76-2.16h-3.37V112h4.62v.68l-1.83 2.26zm5.313-3.02c.94 0 1.663.303 2.17.91.513.607.77 1.467.77 2.58 0 .78-.14 1.447-.42 2-.273.547-.66.963-1.16 1.25-.493.28-1.07.42-1.73.42-.34 0-.66-.033-.96-.1-.3-.073-.56-.177-.78-.31l.38-.78c.34.22.79.33 1.35.33.727 0 1.293-.223 1.7-.67.413-.453.62-1.11.62-1.97v-.25c-.2.3-.477.53-.83.69-.353.153-.75.23-1.19.23-.46 0-.873-.087-1.24-.26a2.043 2.043 0 0 1-.85-.74c-.2-.327-.3-.7-.3-1.12 0-.44.107-.827.32-1.16.22-.333.517-.59.89-.77.373-.187.793-.28 1.26-.28zm.09 3.52c.313 0 .593-.06.84-.18s.437-.283.57-.49c.14-.207.21-.437.21-.69 0-.247-.067-.47-.2-.67a1.298 1.298 0 0 0-.57-.49c-.247-.127-.547-.19-.9-.19-.46 0-.833.123-1.12.37-.28.247-.42.577-.42.99 0 .413.143.743.43.99.287.24.673.36 1.16.36zM219.65 151v7h-.99v-6.13h-1.58V151h2.57zm6.451 6.13v.87h-5.03v-.68l2.85-2.75c.347-.333.58-.62.7-.86.12-.247.18-.493.18-.74 0-.367-.13-.65-.39-.85-.253-.207-.62-.31-1.1-.31-.773 0-1.37.253-1.79.76l-.68-.59c.274-.333.63-.593 1.07-.78.447-.187.944-.28 1.49-.28.734 0 1.317.177 1.75.53.434.347.65.82.65 1.42 0 .373-.08.727-.24 1.06-.16.333-.463.713-.91 1.14l-2.14 2.06h3.59zm2.992-6.13v7h-.99v-6.13h-1.58V151h2.57zm6.387 0v7h-.99v-6.13h-1.58V151h2.57zm3.801-.08c.94 0 1.664.303 2.17.91.514.607.77 1.467.77 2.58 0 .78-.14 1.447-.42 2-.273.547-.66.963-1.16 1.25-.493.28-1.07.42-1.73.42-.34 0-.66-.033-.96-.1-.3-.073-.56-.177-.78-.31l.38-.78c.34.22.79.33 1.35.33.727 0 1.294-.223 1.7-.67.414-.453.62-1.11.62-1.97v-.25c-.2.3-.476.53-.83.69-.353.153-.75.23-1.19.23-.46 0-.873-.087-1.24-.26a2.043 2.043 0 0 1-.85-.74c-.2-.327-.3-.7-.3-1.12 0-.44.107-.827.32-1.16.22-.333.517-.59.89-.77.374-.187.794-.28 1.26-.28zm.09 3.52c.314 0 .594-.06.84-.18.247-.12.437-.283.57-.49.14-.207.21-.437.21-.69 0-.247-.066-.47-.2-.67a1.287 1.287 0 0 0-.57-.49c-.246-.127-.546-.19-.9-.19-.46 0-.833.123-1.12.37-.28.247-.42.577-.42.99 0 .413.144.743.43.99.287.24.674.36 1.16.36zm8.844-3.44v.68l-2.83 6.32h-1.06l2.77-6.13h-3.2v1.25h-.96V151h5.28zM297.65 151v7h-.99v-6.13h-1.58V151h2.57zm4.551 2.75c.46 0 .87.087 1.23.26a1.997 1.997 0 0 1 1.17 1.86c0 .44-.11.827-.33 1.16-.213.333-.51.593-.89.78-.373.18-.793.27-1.26.27-.94 0-1.666-.303-2.18-.91-.506-.607-.76-1.467-.76-2.58 0-.78.137-1.443.41-1.99.28-.553.667-.97 1.16-1.25.5-.287 1.08-.43 1.74-.43.34 0 .66.037.96.11.3.067.56.167.78.3l-.38.78c-.333-.22-.78-.33-1.34-.33-.726 0-1.296.227-1.71.68-.413.447-.62 1.1-.62 1.96 0 .107.004.19.01.25.2-.3.474-.527.82-.68.354-.16.75-.24 1.19-.24zm-.12 3.52c.46 0 .834-.123 1.12-.37.287-.247.43-.577.43-.99 0-.413-.146-.74-.44-.98-.286-.247-.673-.37-1.16-.37-.313 0-.593.06-.84.18-.24.12-.43.283-.57.49a1.25 1.25 0 0 0-.2.69c0 .247.064.473.19.68.134.2.324.363.57.49.254.12.554.18.9.18zm6.132.81c-.553 0-1.047-.14-1.48-.42-.427-.287-.763-.7-1.01-1.24s-.37-1.18-.37-1.92.123-1.38.37-1.92.583-.95 1.01-1.23c.433-.287.927-.43 1.48-.43.547 0 1.033.143 1.46.43.433.28.773.69 1.02 1.23s.37 1.18.37 1.92-.123 1.38-.37 1.92-.587.953-1.02 1.24c-.427.28-.913.42-1.46.42zm0-.89c.56 0 1.007-.23 1.34-.69.34-.46.51-1.127.51-2s-.17-1.54-.51-2c-.333-.46-.78-.69-1.34-.69-.567 0-1.02.23-1.36.69-.333.46-.5 1.127-.5 2s.167 1.54.5 2c.34.46.793.69 1.36.69zm11.596-6.19v.68l-2.83 6.32h-1.06l2.77-6.13h-3.2v1.25h-.96V151h5.28zm2.7 2.79c1 0 1.734.19 2.2.57.474.373.71.887.71 1.54 0 .413-.1.787-.3 1.12-.193.327-.49.587-.89.78-.393.187-.88.28-1.46.28a4.67 4.67 0 0 1-1.43-.22c-.46-.153-.84-.363-1.14-.63l.46-.79c.24.227.547.41.92.55.374.133.767.2 1.18.2.527 0 .934-.11 1.22-.33.294-.227.44-.533.44-.92 0-.42-.16-.737-.48-.95-.32-.22-.866-.33-1.64-.33h-1.59l.37-3.66h3.95v.87h-3.11l-.19 1.92h.78zm8.022.54c.4.153.707.373.92.66.214.287.32.63.32 1.03 0 .42-.113.787-.34 1.1-.226.307-.55.543-.97.71-.42.167-.913.25-1.48.25-.56 0-1.05-.083-1.47-.25-.413-.167-.733-.403-.96-.71a1.83 1.83 0 0 1-.34-1.1c0-.4.104-.743.31-1.03.214-.287.52-.507.92-.66a1.755 1.755 0 0 1-.73-.61 1.604 1.604 0 0 1-.25-.9c0-.387.104-.723.31-1.01.214-.287.51-.507.89-.66.38-.153.82-.23 1.32-.23.507 0 .95.077 1.33.23.387.153.684.373.89.66.214.287.32.623.32 1.01 0 .34-.086.64-.26.9-.166.253-.41.457-.73.61zm-1.55-2.6c-.473 0-.846.103-1.12.31a.962.962 0 0 0-.41.82c0 .347.134.62.4.82.274.2.65.3 1.13.3.487 0 .867-.1 1.14-.3.28-.2.42-.473.42-.82a.947.947 0 0 0-.43-.82c-.28-.207-.656-.31-1.13-.31zm0 5.54c.554 0 .99-.113 1.31-.34.32-.233.48-.547.48-.94 0-.387-.16-.69-.48-.91-.32-.227-.756-.34-1.31-.34-.553 0-.986.113-1.3.34-.313.22-.47.523-.47.91 0 .393.157.707.47.94.314.227.747.34 1.3.34zM369.65 151v7h-.99v-6.13h-1.58V151h2.57zm5.811 3.33c.4.153.707.373.92.66.214.287.32.63.32 1.03 0 .42-.113.787-.34 1.1-.226.307-.55.543-.97.71-.42.167-.913.25-1.48.25-.56 0-1.05-.083-1.47-.25-.413-.167-.733-.403-.96-.71a1.83 1.83 0 0 1-.34-1.1c0-.4.104-.743.31-1.03.214-.287.52-.507.92-.66a1.755 1.755 0 0 1-.73-.61 1.604 1.604 0 0 1-.25-.9c0-.387.104-.723.31-1.01.214-.287.51-.507.89-.66.38-.153.82-.23 1.32-.23.507 0 .95.077 1.33.23.387.153.684.373.89.66.214.287.32.623.32 1.01 0 .34-.086.64-.26.9-.166.253-.41.457-.73.61zm-1.55-2.6c-.473 0-.846.103-1.12.31a.962.962 0 0 0-.41.82c0 .347.134.62.4.82.274.2.65.3 1.13.3.487 0 .867-.1 1.14-.3.28-.2.42-.473.42-.82a.947.947 0 0 0-.43-.82c-.28-.207-.656-.31-1.13-.31zm0 5.54c.554 0 .99-.113 1.31-.34.32-.233.48-.547.48-.94 0-.387-.16-.69-.48-.91-.32-.227-.756-.34-1.31-.34-.553 0-.986.113-1.3.34-.313.22-.47.523-.47.91 0 .393.157.707.47.94.314.227.747.34 1.3.34zm6.566.81c-.554 0-1.047-.14-1.48-.42-.427-.287-.764-.7-1.01-1.24-.247-.54-.37-1.18-.37-1.92s.123-1.38.37-1.92c.246-.54.583-.95 1.01-1.23.433-.287.926-.43 1.48-.43.546 0 1.033.143 1.46.43.433.28.773.69 1.02 1.23.246.54.37 1.18.37 1.92s-.124 1.38-.37 1.92c-.247.54-.587.953-1.02 1.24-.427.28-.914.42-1.46.42zm0-.89c.56 0 1.006-.23 1.34-.69.34-.46.51-1.127.51-2s-.17-1.54-.51-2c-.334-.46-.78-.69-1.34-.69-.567 0-1.02.23-1.36.69-.334.46-.5 1.127-.5 2s.166 1.54.5 2c.34.46.793.69 1.36.69zm8.665-6.19v7h-.99v-6.13h-1.58V151h2.57zm3.531 2.79c1 0 1.734.19 2.2.57.474.373.71.887.71 1.54 0 .413-.1.787-.3 1.12-.193.327-.49.587-.89.78-.393.187-.88.28-1.46.28a4.67 4.67 0 0 1-1.43-.22c-.46-.153-.84-.363-1.14-.63l.46-.79c.24.227.547.41.92.55.374.133.767.2 1.18.2.527 0 .934-.11 1.22-.33.294-.227.44-.533.44-.92 0-.42-.16-.737-.48-.95-.32-.22-.866-.33-1.64-.33h-1.59l.37-3.66h3.95v.87h-3.11l-.19 1.92h.78zm6.013-2.87c.94 0 1.663.303 2.17.91.513.607.77 1.467.77 2.58 0 .78-.14 1.447-.42 2-.274.547-.66.963-1.16 1.25-.494.28-1.07.42-1.73.42-.34 0-.66-.033-.96-.1-.3-.073-.56-.177-.78-.31l.38-.78c.34.22.79.33 1.35.33.726 0 1.293-.223 1.7-.67.413-.453.62-1.11.62-1.97v-.25c-.2.3-.477.53-.83.69-.354.153-.75.23-1.19.23a2.87 2.87 0 0 1-1.24-.26 2.037 2.037 0 0 1-.85-.74c-.2-.327-.3-.7-.3-1.12 0-.44.106-.827.32-1.16.22-.333.516-.59.89-.77.373-.187.793-.28 1.26-.28zm.09 3.52c.313 0 .593-.06.84-.18a1.38 1.38 0 0 0 .57-.49c.14-.207.21-.437.21-.69 0-.247-.067-.47-.2-.67a1.298 1.298 0 0 0-.57-.49c-.247-.127-.547-.19-.9-.19-.46 0-.834.123-1.12.37-.28.247-.42.577-.42.99 0 .413.143.743.43.99.286.24.673.36 1.16.36zM440.65 151v7h-.99v-6.13h-1.58V151h2.57zm4.211 2.94c.687.067 1.21.28 1.57.64.36.353.54.807.54 1.36 0 .4-.1.763-.3 1.09-.2.32-.5.577-.9.77-.393.187-.876.28-1.45.28-.5 0-.98-.073-1.44-.22-.46-.153-.836-.363-1.13-.63l.46-.79c.24.227.547.41.92.55.374.133.77.2 1.19.2.52 0 .924-.11 1.21-.33.294-.22.44-.523.44-.91s-.143-.687-.43-.9c-.286-.213-.72-.32-1.3-.32h-.56v-.7l1.76-2.16h-3.37V151h4.62v.68l-1.83 2.26zm5.674 0c.687.067 1.21.28 1.57.64.36.353.54.807.54 1.36 0 .4-.1.763-.3 1.09-.2.32-.5.577-.9.77-.393.187-.877.28-1.45.28-.5 0-.98-.073-1.44-.22-.46-.153-.837-.363-1.13-.63l.46-.79c.24.227.547.41.92.55.373.133.77.2 1.19.2.52 0 .923-.11 1.21-.33.293-.22.44-.523.44-.91s-.143-.687-.43-.9c-.287-.213-.72-.32-1.3-.32h-.56v-.7l1.76-2.16h-3.37V151h4.62v.68l-1.83 2.26zm10.828-2.94v.68l-2.83 6.32h-1.06l2.77-6.13h-3.2v1.25h-.96V151h5.28zm3.147-.08c.94 0 1.663.303 2.17.91.513.607.77 1.467.77 2.58 0 .78-.14 1.447-.42 2-.274.547-.66.963-1.16 1.25-.494.28-1.07.42-1.73.42-.34 0-.66-.033-.96-.1-.3-.073-.56-.177-.78-.31l.38-.78c.34.22.79.33 1.35.33.726 0 1.293-.223 1.7-.67.413-.453.62-1.11.62-1.97v-.25c-.2.3-.477.53-.83.69-.354.153-.75.23-1.19.23a2.87 2.87 0 0 1-1.24-.26 2.037 2.037 0 0 1-.85-.74c-.2-.327-.3-.7-.3-1.12 0-.44.106-.827.32-1.16.22-.333.516-.59.89-.77.373-.187.793-.28 1.26-.28zm.09 3.52c.313 0 .593-.06.84-.18a1.38 1.38 0 0 0 .57-.49c.14-.207.21-.437.21-.69 0-.247-.067-.47-.2-.67a1.298 1.298 0 0 0-.57-.49c-.247-.127-.547-.19-.9-.19-.46 0-.834.123-1.12.37-.28.247-.42.577-.42.99 0 .413.143.743.43.99.286.24.673.36 1.16.36zm6.394-.5c.687.067 1.21.28 1.57.64.36.353.54.807.54 1.36 0 .4-.1.763-.3 1.09-.2.32-.5.577-.9.77-.393.187-.877.28-1.45.28-.5 0-.98-.073-1.44-.22-.46-.153-.837-.363-1.13-.63l.46-.79c.24.227.547.41.92.55.373.133.77.2 1.19.2.52 0 .923-.11 1.21-.33.293-.22.44-.523.44-.91s-.143-.687-.43-.9c-.287-.213-.72-.32-1.3-.32h-.56v-.7l1.76-2.16h-3.37V151h4.62v.68l-1.83 2.26zM513.58 151v.68l-2.83 6.32h-1.06l2.77-6.13h-3.2v1.25h-.96V151h5.28zm3.701 2.75c.46 0 .87.087 1.23.26a1.997 1.997 0 0 1 1.17 1.86c0 .44-.11.827-.33 1.16-.213.333-.51.593-.89.78-.373.18-.793.27-1.26.27-.94 0-1.666-.303-2.18-.91-.506-.607-.76-1.467-.76-2.58 0-.78.137-1.443.41-1.99.28-.553.667-.97 1.16-1.25.5-.287 1.08-.43 1.74-.43.34 0 .66.037.96.11.3.067.56.167.78.3l-.38.78c-.333-.22-.78-.33-1.34-.33-.726 0-1.296.227-1.71.68-.413.447-.62 1.1-.62 1.96 0 .107.004.19.01.25.2-.3.474-.527.82-.68.354-.16.75-.24 1.19-.24zm-.12 3.52c.46 0 .834-.123 1.12-.37.287-.247.43-.577.43-.99 0-.413-.146-.74-.44-.98-.286-.247-.673-.37-1.16-.37-.313 0-.593.06-.84.18-.24.12-.43.283-.57.49a1.25 1.25 0 0 0-.2.69c0 .247.064.473.19.68.134.2.324.363.57.49.254.12.554.18.9.18zm8.192-.14v.87h-5.03v-.68l2.85-2.75c.347-.333.58-.62.7-.86.12-.247.18-.493.18-.74 0-.367-.13-.65-.39-.85-.253-.207-.62-.31-1.1-.31-.773 0-1.37.253-1.79.76l-.68-.59a2.74 2.74 0 0 1 1.07-.78c.447-.187.943-.28 1.49-.28.733 0 1.317.177 1.75.53.433.347.65.82.65 1.42 0 .373-.08.727-.24 1.06-.16.333-.463.713-.91 1.14l-2.14 2.06h3.59zm9.598-.85h-1.33V158h-.97v-1.72h-3.89v-.7l3.58-4.58h1.08l-3.43 4.42h2.69v-1.52h.94v1.52h1.33v.86zm4.977-1.95c.4.153.707.373.92.66.213.287.32.63.32 1.03 0 .42-.113.787-.34 1.1-.227.307-.55.543-.97.71-.42.167-.913.25-1.48.25-.56 0-1.05-.083-1.47-.25-.413-.167-.733-.403-.96-.71a1.824 1.824 0 0 1-.34-1.1c0-.4.103-.743.31-1.03.213-.287.52-.507.92-.66a1.755 1.755 0 0 1-.73-.61 1.596 1.596 0 0 1-.25-.9c0-.387.103-.723.31-1.01.213-.287.51-.507.89-.66.38-.153.82-.23 1.32-.23.507 0 .95.077 1.33.23.387.153.683.373.89.66.213.287.32.623.32 1.01 0 .34-.087.64-.26.9-.167.253-.41.457-.73.61zm-1.55-2.6c-.473 0-.847.103-1.12.31a.962.962 0 0 0-.41.82c0 .347.133.62.4.82.273.2.65.3 1.13.3.487 0 .867-.1 1.14-.3.28-.2.42-.473.42-.82a.947.947 0 0 0-.43-.82c-.28-.207-.657-.31-1.13-.31zm0 5.54c.553 0 .99-.113 1.31-.34.32-.233.48-.547.48-.94 0-.387-.16-.69-.48-.91-.32-.227-.757-.34-1.31-.34s-.987.113-1.3.34c-.313.22-.47.523-.47.91 0 .393.157.707.47.94.313.227.747.34 1.3.34zm5.976-6.35c.94 0 1.663.303 2.17.91.513.607.77 1.467.77 2.58 0 .78-.14 1.447-.42 2-.274.547-.66.963-1.16 1.25-.494.28-1.07.42-1.73.42-.34 0-.66-.033-.96-.1-.3-.073-.56-.177-.78-.31l.38-.78c.34.22.79.33 1.35.33.726 0 1.293-.223 1.7-.67.413-.453.62-1.11.62-1.97v-.25c-.2.3-.477.53-.83.69-.354.153-.75.23-1.19.23a2.87 2.87 0 0 1-1.24-.26 2.037 2.037 0 0 1-.85-.74c-.2-.327-.3-.7-.3-1.12 0-.44.106-.827.32-1.16.22-.333.516-.59.89-.77.373-.187.793-.28 1.26-.28zm.09 3.52c.313 0 .593-.06.84-.18a1.38 1.38 0 0 0 .57-.49c.14-.207.21-.437.21-.69 0-.247-.067-.47-.2-.67a1.298 1.298 0 0 0-.57-.49c-.247-.127-.547-.19-.9-.19-.46 0-.834.123-1.12.37-.28.247-.42.577-.42.99 0 .413.143.743.43.99.286.24.673.36 1.16.36zM221.5 190.75c.46 0 .87.087 1.23.26a2.003 2.003 0 0 1 1.17 1.86c0 .44-.11.827-.33 1.16-.213.333-.51.593-.89.78-.373.18-.793.27-1.26.27-.94 0-1.667-.303-2.18-.91-.507-.607-.76-1.467-.76-2.58 0-.78.137-1.443.41-1.99.28-.553.667-.97 1.16-1.25.5-.287 1.08-.43 1.74-.43.34 0 .66.037.96.11.3.067.56.167.78.3l-.38.78c-.333-.22-.78-.33-1.34-.33-.727 0-1.297.227-1.71.68-.413.447-.62 1.1-.62 1.96 0 .107.003.19.01.25.2-.3.473-.527.82-.68.353-.16.75-.24 1.19-.24zm-.12 3.52c.46 0 .833-.123 1.12-.37.287-.247.43-.577.43-.99 0-.413-.147-.74-.44-.98-.287-.247-.673-.37-1.16-.37-.313 0-.593.06-.84.18-.24.12-.43.283-.57.49a1.25 1.25 0 0 0-.2.69c0 .247.063.473.19.68.133.2.323.363.57.49.253.12.553.18.9.18zm5.952-3.33c.687.067 1.21.28 1.57.64.36.353.54.807.54 1.36 0 .4-.1.763-.3 1.09-.2.32-.5.577-.9.77-.393.187-.877.28-1.45.28-.5 0-.98-.073-1.44-.22-.46-.153-.837-.363-1.13-.63l.46-.79c.24.227.547.41.92.55.373.133.77.2 1.19.2.52 0 .923-.11 1.21-.33.293-.22.44-.523.44-.91s-.143-.687-.43-.9c-.287-.213-.72-.32-1.3-.32h-.56v-.7l1.76-2.16h-3.37V188h4.62v.68l-1.83 2.26zm4.465.82c-.487 0-.88-.177-1.18-.53-.3-.353-.45-.813-.45-1.38s.15-1.027.45-1.38c.3-.353.693-.53 1.18-.53s.877.177 1.17.53c.3.347.45.807.45 1.38 0 .573-.15 1.037-.45 1.39-.293.347-.683.52-1.17.52zm4.22-3.76h.77l-4.78 7h-.77l4.78-7zm-4.22 3.19a.847.847 0 0 0 .72-.35c.173-.24.26-.57.26-.99 0-.42-.087-.747-.26-.98a.838.838 0 0 0-.72-.36c-.3 0-.54.12-.72.36-.173.24-.26.567-.26.98 0 .413.087.74.26.98.18.24.42.36.72.36zm4.43 3.87c-.487 0-.88-.173-1.18-.52-.293-.353-.44-.817-.44-1.39s.147-1.033.44-1.38c.3-.353.693-.53 1.18-.53s.88.177 1.18.53c.3.353.45.813.45 1.38s-.15 1.027-.45 1.38c-.3.353-.693.53-1.18.53zm0-.57c.3 0 .537-.12.71-.36.18-.24.27-.567.27-.98 0-.413-.09-.74-.27-.98a.829.829 0 0 0-.71-.36.838.838 0 0 0-.72.36c-.173.233-.26.56-.26.98 0 .42.087.75.26.99.173.233.413.35.72.35zM306.5 190.75c.46 0 .87.087 1.23.26a2.003 2.003 0 0 1 1.17 1.86c0 .44-.11.827-.33 1.16-.213.333-.51.593-.89.78-.373.18-.793.27-1.26.27-.94 0-1.667-.303-2.18-.91-.507-.607-.76-1.467-.76-2.58 0-.78.137-1.443.41-1.99.28-.553.667-.97 1.16-1.25.5-.287 1.08-.43 1.74-.43.34 0 .66.037.96.11.3.067.56.167.78.3l-.38.78c-.333-.22-.78-.33-1.34-.33-.727 0-1.297.227-1.71.68-.413.447-.62 1.1-.62 1.96 0 .107.003.19.01.25.2-.3.473-.527.82-.68.353-.16.75-.24 1.19-.24zm-.12 3.52c.46 0 .833-.123 1.12-.37.287-.247.43-.577.43-.99 0-.413-.147-.74-.44-.98-.287-.247-.673-.37-1.16-.37-.313 0-.593.06-.84.18-.24.12-.43.283-.57.49a1.25 1.25 0 0 0-.2.69c0 .247.063.473.19.68.133.2.323.363.57.49.253.12.553.18.9.18zm7.552-2.94c.4.153.707.373.92.66.213.287.32.63.32 1.03 0 .42-.113.787-.34 1.1-.227.307-.55.543-.97.71-.42.167-.913.25-1.48.25-.56 0-1.05-.083-1.47-.25-.413-.167-.733-.403-.96-.71a1.824 1.824 0 0 1-.34-1.1c0-.4.103-.743.31-1.03.213-.287.52-.507.92-.66a1.755 1.755 0 0 1-.73-.61 1.596 1.596 0 0 1-.25-.9c0-.387.103-.723.31-1.01.213-.287.51-.507.89-.66.38-.153.82-.23 1.32-.23.507 0 .95.077 1.33.23.387.153.683.373.89.66.213.287.32.623.32 1.01 0 .34-.087.64-.26.9-.167.253-.41.457-.73.61zm-1.55-2.6c-.473 0-.847.103-1.12.31a.962.962 0 0 0-.41.82c0 .347.133.62.4.82.273.2.65.3 1.13.3.487 0 .867-.1 1.14-.3.28-.2.42-.473.42-.82a.947.947 0 0 0-.43-.82c-.28-.207-.657-.31-1.13-.31zm0 5.54c.553 0 .99-.113 1.31-.34.32-.233.48-.547.48-.94 0-.387-.16-.69-.48-.91-.32-.227-.757-.34-1.31-.34s-.987.113-1.3.34c-.313.22-.47.523-.47.91 0 .393.157.707.47.94.313.227.747.34 1.3.34zm5.128-2.51c-.487 0-.88-.177-1.18-.53-.3-.353-.45-.813-.45-1.38s.15-1.027.45-1.38c.3-.353.693-.53 1.18-.53.486 0 .876.177 1.17.53.3.347.45.807.45 1.38 0 .573-.15 1.037-.45 1.39-.294.347-.684.52-1.17.52zm4.22-3.76h.77l-4.78 7h-.77l4.78-7zm-4.22 3.19a.85.85 0 0 0 .72-.35c.173-.24.26-.57.26-.99 0-.42-.087-.747-.26-.98a.84.84 0 0 0-.72-.36c-.3 0-.54.12-.72.36-.174.24-.26.567-.26.98 0 .413.086.74.26.98.18.24.42.36.72.36zm4.43 3.87c-.487 0-.88-.173-1.18-.52-.294-.353-.44-.817-.44-1.39s.146-1.033.44-1.38c.3-.353.693-.53 1.18-.53.486 0 .88.177 1.18.53.3.353.45.813.45 1.38s-.15 1.027-.45 1.38c-.3.353-.694.53-1.18.53zm0-.57c.3 0 .536-.12.71-.36.18-.24.27-.567.27-.98 0-.413-.09-.74-.27-.98a.83.83 0 0 0-.71-.36.838.838 0 0 0-.72.36c-.174.233-.26.56-.26.98 0 .42.086.75.26.99.173.233.413.35.72.35zM377.58 188v.68l-2.83 6.32h-1.06l2.77-6.13h-3.2v1.25h-.96V188h5.28zm5.797 6.13v.87h-5.03v-.68l2.85-2.75c.346-.333.58-.62.7-.86.12-.247.18-.493.18-.74 0-.367-.13-.65-.39-.85-.254-.207-.62-.31-1.1-.31-.774 0-1.37.253-1.79.76l-.68-.59a2.74 2.74 0 0 1 1.07-.78c.446-.187.943-.28 1.49-.28.733 0 1.316.177 1.75.53.433.347.65.82.65 1.42 0 .373-.08.727-.24 1.06-.16.333-.464.713-.91 1.14l-2.14 2.06h3.59zm2.439-2.37c-.486 0-.88-.177-1.18-.53-.3-.353-.45-.813-.45-1.38s.15-1.027.45-1.38c.3-.353.694-.53 1.18-.53.487 0 .877.177 1.17.53.3.347.45.807.45 1.38 0 .573-.15 1.037-.45 1.39-.293.347-.683.52-1.17.52zm4.22-3.76h.77l-4.78 7h-.77l4.78-7zm-4.22 3.19a.847.847 0 0 0 .72-.35c.174-.24.26-.57.26-.99 0-.42-.086-.747-.26-.98a.838.838 0 0 0-.72-.36c-.3 0-.54.12-.72.36-.173.24-.26.567-.26.98 0 .413.087.74.26.98.18.24.42.36.72.36zm4.43 3.87c-.486 0-.88-.173-1.18-.52-.293-.353-.44-.817-.44-1.39s.147-1.033.44-1.38c.3-.353.694-.53 1.18-.53.487 0 .88.177 1.18.53.3.353.45.813.45 1.38s-.15 1.027-.45 1.38c-.3.353-.693.53-1.18.53zm0-.57c.3 0 .537-.12.71-.36.18-.24.27-.567.27-.98 0-.413-.09-.74-.27-.98a.829.829 0 0 0-.71-.36.84.84 0 0 0-.72.36c-.173.233-.26.56-.26.98 0 .42.087.75.26.99a.85.85 0 0 0 .72.35zM446.5 190.75c.46 0 .87.087 1.23.26a2.003 2.003 0 0 1 1.17 1.86c0 .44-.11.827-.33 1.16-.213.333-.51.593-.89.78-.373.18-.793.27-1.26.27-.94 0-1.667-.303-2.18-.91-.507-.607-.76-1.467-.76-2.58 0-.78.137-1.443.41-1.99.28-.553.667-.97 1.16-1.25.5-.287 1.08-.43 1.74-.43.34 0 .66.037.96.11.3.067.56.167.78.3l-.38.78c-.333-.22-.78-.33-1.34-.33-.727 0-1.297.227-1.71.68-.413.447-.62 1.1-.62 1.96 0 .107.003.19.01.25.2-.3.473-.527.82-.68.353-.16.75-.24 1.19-.24zm-.12 3.52c.46 0 .833-.123 1.12-.37.287-.247.43-.577.43-.99 0-.413-.147-.74-.44-.98-.287-.247-.673-.37-1.16-.37-.313 0-.593.06-.84.18-.24.12-.43.283-.57.49a1.25 1.25 0 0 0-.2.69c0 .247.063.473.19.68.133.2.323.363.57.49.253.12.553.18.9.18zm5.272-3.48c1 0 1.733.19 2.2.57.473.373.71.887.71 1.54 0 .413-.1.787-.3 1.12-.193.327-.49.587-.89.78-.393.187-.88.28-1.46.28a4.67 4.67 0 0 1-1.43-.22c-.46-.153-.84-.363-1.14-.63l.46-.79c.24.227.547.41.92.55.373.133.767.2 1.18.2.527 0 .933-.11 1.22-.33.293-.227.44-.533.44-.92 0-.42-.16-.737-.48-.95-.32-.22-.867-.33-1.64-.33h-1.59l.37-3.66h3.95v.87h-3.11l-.19 1.92h.78zm5.164.97c-.486 0-.88-.177-1.18-.53-.3-.353-.45-.813-.45-1.38s.15-1.027.45-1.38c.3-.353.694-.53 1.18-.53.487 0 .877.177 1.17.53.3.347.45.807.45 1.38 0 .573-.15 1.037-.45 1.39-.293.347-.683.52-1.17.52zm4.22-3.76h.77l-4.78 7h-.77l4.78-7zm-4.22 3.19a.847.847 0 0 0 .72-.35c.174-.24.26-.57.26-.99 0-.42-.086-.747-.26-.98a.838.838 0 0 0-.72-.36c-.3 0-.54.12-.72.36-.173.24-.26.567-.26.98 0 .413.087.74.26.98.18.24.42.36.72.36zm4.43 3.87c-.486 0-.88-.173-1.18-.52-.293-.353-.44-.817-.44-1.39s.147-1.033.44-1.38c.3-.353.694-.53 1.18-.53.487 0 .88.177 1.18.53.3.353.45.813.45 1.38s-.15 1.027-.45 1.38c-.3.353-.693.53-1.18.53zm0-.57c.3 0 .537-.12.71-.36.18-.24.27-.567.27-.98 0-.413-.09-.74-.27-.98a.829.829 0 0 0-.71-.36.84.84 0 0 0-.72.36c-.173.233-.26.56-.26.98 0 .42.087.75.26.99a.85.85 0 0 0 .72.35zM517.5 190.75c.46 0 .87.087 1.23.26a2.003 2.003 0 0 1 1.17 1.86c0 .44-.11.827-.33 1.16-.213.333-.51.593-.89.78-.373.18-.793.27-1.26.27-.94 0-1.667-.303-2.18-.91-.507-.607-.76-1.467-.76-2.58 0-.78.137-1.443.41-1.99.28-.553.667-.97 1.16-1.25.5-.287 1.08-.43 1.74-.43.34 0 .66.037.96.11.3.067.56.167.78.3l-.38.78c-.333-.22-.78-.33-1.34-.33-.727 0-1.297.227-1.71.68-.413.447-.62 1.1-.62 1.96 0 .107.003.19.01.25.2-.3.473-.527.82-.68.353-.16.75-.24 1.19-.24zm-.12 3.52c.46 0 .833-.123 1.12-.37.287-.247.43-.577.43-.99 0-.413-.147-.74-.44-.98-.287-.247-.673-.37-1.16-.37-.313 0-.593.06-.84.18-.24.12-.43.283-.57.49a1.25 1.25 0 0 0-.2.69c0 .247.063.473.19.68.133.2.323.363.57.49.253.12.553.18.9.18zm7.552-2.94c.4.153.707.373.92.66.213.287.32.63.32 1.03 0 .42-.113.787-.34 1.1-.227.307-.55.543-.97.71-.42.167-.913.25-1.48.25-.56 0-1.05-.083-1.47-.25-.413-.167-.733-.403-.96-.71a1.824 1.824 0 0 1-.34-1.1c0-.4.103-.743.31-1.03.213-.287.52-.507.92-.66a1.755 1.755 0 0 1-.73-.61 1.596 1.596 0 0 1-.25-.9c0-.387.103-.723.31-1.01.213-.287.51-.507.89-.66.38-.153.82-.23 1.32-.23.507 0 .95.077 1.33.23.387.153.683.373.89.66.213.287.32.623.32 1.01 0 .34-.087.64-.26.9-.167.253-.41.457-.73.61zm-1.55-2.6c-.473 0-.847.103-1.12.31a.962.962 0 0 0-.41.82c0 .347.133.62.4.82.273.2.65.3 1.13.3.487 0 .867-.1 1.14-.3.28-.2.42-.473.42-.82a.947.947 0 0 0-.43-.82c-.28-.207-.657-.31-1.13-.31zm0 5.54c.553 0 .99-.113 1.31-.34.32-.233.48-.547.48-.94 0-.387-.16-.69-.48-.91-.32-.227-.757-.34-1.31-.34s-.987.113-1.3.34c-.313.22-.47.523-.47.91 0 .393.157.707.47.94.313.227.747.34 1.3.34zm5.128-2.51c-.487 0-.88-.177-1.18-.53-.3-.353-.45-.813-.45-1.38s.15-1.027.45-1.38c.3-.353.693-.53 1.18-.53.486 0 .876.177 1.17.53.3.347.45.807.45 1.38 0 .573-.15 1.037-.45 1.39-.294.347-.684.52-1.17.52zm4.22-3.76h.77l-4.78 7h-.77l4.78-7zm-4.22 3.19a.85.85 0 0 0 .72-.35c.173-.24.26-.57.26-.99 0-.42-.087-.747-.26-.98a.84.84 0 0 0-.72-.36c-.3 0-.54.12-.72.36-.174.24-.26.567-.26.98 0 .413.086.74.26.98.18.24.42.36.72.36zm4.43 3.87c-.487 0-.88-.173-1.18-.52-.294-.353-.44-.817-.44-1.39s.146-1.033.44-1.38c.3-.353.693-.53 1.18-.53.486 0 .88.177 1.18.53.3.353.45.813.45 1.38s-.15 1.027-.45 1.38c-.3.353-.694.53-1.18.53zm0-.57c.3 0 .536-.12.71-.36.18-.24.27-.567.27-.98 0-.413-.09-.74-.27-.98a.83.83 0 0 0-.71-.36.838.838 0 0 0-.72.36c-.174.233-.26.56-.26.98 0 .42.086.75.26.99.173.233.413.35.72.35zM215.57 231.84h2.69v.83h-2.69v-.83zm9.896 1.44h-1.33V235h-.97v-1.72h-3.89v-.7l3.58-4.58h1.08l-3.43 4.42h2.69v-1.52h.94v1.52h1.33v.86zm5.965-2.34c.687.067 1.21.28 1.57.64.36.353.54.807.54 1.36 0 .4-.1.763-.3 1.09-.2.32-.5.577-.9.77-.393.187-.876.28-1.45.28-.5 0-.98-.073-1.44-.22-.46-.153-.836-.363-1.13-.63l.46-.79c.24.227.547.41.92.55.374.133.77.2 1.19.2.52 0 .924-.11 1.21-.33.294-.22.44-.523.44-.91s-.143-.687-.43-.9c-.286-.213-.72-.32-1.3-.32h-.56v-.7l1.76-2.16h-3.37V228h4.62v.68l-1.83 2.26zm5.313-3.02c.94 0 1.663.303 2.17.91.513.607.77 1.467.77 2.58 0 .78-.14 1.447-.42 2-.273.547-.66.963-1.16 1.25-.493.28-1.07.42-1.73.42-.34 0-.66-.033-.96-.1-.3-.073-.56-.177-.78-.31l.38-.78c.34.22.79.33 1.35.33.727 0 1.293-.223 1.7-.67.413-.453.62-1.11.62-1.97v-.25c-.2.3-.477.53-.83.69-.353.153-.75.23-1.19.23-.46 0-.873-.087-1.24-.26a2.043 2.043 0 0 1-.85-.74c-.2-.327-.3-.7-.3-1.12 0-.44.107-.827.32-1.16.22-.333.517-.59.89-.77.373-.187.793-.28 1.26-.28zm.09 3.52c.313 0 .593-.06.84-.18s.437-.283.57-.49c.14-.207.21-.437.21-.69 0-.247-.067-.47-.2-.67a1.298 1.298 0 0 0-.57-.49c-.247-.127-.547-.19-.9-.19-.46 0-.833.123-1.12.37-.28.247-.42.577-.42.99 0 .413.143.743.43.99.287.24.673.36 1.16.36zm6.082-3.52c.94 0 1.663.303 2.17.91.513.607.77 1.467.77 2.58 0 .78-.14 1.447-.42 2-.273.547-.66.963-1.16 1.25-.493.28-1.07.42-1.73.42-.34 0-.66-.033-.96-.1-.3-.073-.56-.177-.78-.31l.38-.78c.34.22.79.33 1.35.33.727 0 1.293-.223 1.7-.67.413-.453.62-1.11.62-1.97v-.25c-.2.3-.477.53-.83.69-.353.153-.75.23-1.19.23-.46 0-.873-.087-1.24-.26a2.043 2.043 0 0 1-.85-.74c-.2-.327-.3-.7-.3-1.12 0-.44.107-.827.32-1.16.22-.333.517-.59.89-.77.373-.187.793-.28 1.26-.28zm.09 3.52c.313 0 .593-.06.84-.18s.437-.283.57-.49c.14-.207.21-.437.21-.69 0-.247-.067-.47-.2-.67a1.298 1.298 0 0 0-.57-.49c-.247-.127-.547-.19-.9-.19-.46 0-.833.123-1.12.37-.28.247-.42.577-.42.99 0 .413.143.743.43.99.287.24.673.36 1.16.36zM293.57 231.84h2.69v.83h-2.69v-.83zm5.732-3.84v7h-.99v-6.13h-1.58V228h2.57zm4.552 2.75c.46 0 .87.087 1.23.26a2.006 2.006 0 0 1 1.17 1.86c0 .44-.11.827-.33 1.16a2.17 2.17 0 0 1-.89.78c-.374.18-.794.27-1.26.27-.94 0-1.667-.303-2.18-.91-.507-.607-.76-1.467-.76-2.58 0-.78.136-1.443.41-1.99.28-.553.666-.97 1.16-1.25.5-.287 1.08-.43 1.74-.43.34 0 .66.037.96.11.3.067.56.167.78.3l-.38.78c-.334-.22-.78-.33-1.34-.33-.727 0-1.297.227-1.71.68-.414.447-.62 1.1-.62 1.96 0 .107.003.19.01.25.2-.3.473-.527.82-.68.353-.16.75-.24 1.19-.24zm-.12 3.52c.46 0 .833-.123 1.12-.37.286-.247.43-.577.43-.99 0-.413-.147-.74-.44-.98-.287-.247-.674-.37-1.16-.37-.314 0-.594.06-.84.18-.24.12-.43.283-.57.49-.134.207-.2.437-.2.69 0 .247.063.473.19.68.133.2.323.363.57.49.253.12.553.18.9.18zm8.817.81c-.553 0-1.047-.14-1.48-.42-.427-.287-.763-.7-1.01-1.24s-.37-1.18-.37-1.92.123-1.38.37-1.92.583-.95 1.01-1.23c.433-.287.927-.43 1.48-.43.547 0 1.033.143 1.46.43.433.28.773.69 1.02 1.23s.37 1.18.37 1.92-.123 1.38-.37 1.92-.587.953-1.02 1.24c-.427.28-.913.42-1.46.42zm0-.89c.56 0 1.007-.23 1.34-.69.34-.46.51-1.127.51-2s-.17-1.54-.51-2c-.333-.46-.78-.69-1.34-.69-.567 0-1.02.23-1.36.69-.333.46-.5 1.127-.5 2s.167 1.54.5 2c.34.46.793.69 1.36.69zm6.392-3.25c.687.067 1.21.28 1.57.64.36.353.54.807.54 1.36 0 .4-.1.763-.3 1.09-.2.32-.5.577-.9.77-.393.187-.876.28-1.45.28-.5 0-.98-.073-1.44-.22-.46-.153-.836-.363-1.13-.63l.46-.79c.24.227.547.41.92.55.374.133.77.2 1.19.2.52 0 .924-.11 1.21-.33.294-.22.44-.523.44-.91s-.143-.687-.43-.9c-.286-.213-.72-.32-1.3-.32h-.56v-.7l1.76-2.16h-3.37V228h4.62v.68l-1.83 2.26zm5.674 0c.687.067 1.21.28 1.57.64.36.353.54.807.54 1.36 0 .4-.1.763-.3 1.09-.2.32-.5.577-.9.77-.393.187-.877.28-1.45.28-.5 0-.98-.073-1.44-.22-.46-.153-.837-.363-1.13-.63l.46-.79c.24.227.547.41.92.55.373.133.77.2 1.19.2.52 0 .923-.11 1.21-.33.293-.22.44-.523.44-.91s-.143-.687-.43-.9c-.287-.213-.72-.32-1.3-.32h-.56v-.7l1.76-2.16h-3.37V228h4.62v.68l-1.83 2.26zM380.34 235.08c-.553 0-1.047-.14-1.48-.42-.427-.287-.763-.7-1.01-1.24s-.37-1.18-.37-1.92.123-1.38.37-1.92.583-.95 1.01-1.23c.433-.287.927-.43 1.48-.43.547 0 1.033.143 1.46.43.433.28.773.69 1.02 1.23s.37 1.18.37 1.92-.123 1.38-.37 1.92-.587.953-1.02 1.24c-.427.28-.913.42-1.46.42zm0-.89c.56 0 1.007-.23 1.34-.69.34-.46.51-1.127.51-2s-.17-1.54-.51-2c-.333-.46-.78-.69-1.34-.69-.567 0-1.02.23-1.36.69-.333.46-.5 1.127-.5 2s.167 1.54.5 2c.34.46.793.69 1.36.69zM436.57 231.84h2.69v.83h-2.69v-.83zm8.531 2.29v.87h-5.03v-.68l2.85-2.75c.347-.333.58-.62.7-.86.12-.247.18-.493.18-.74 0-.367-.13-.65-.39-.85-.253-.207-.62-.31-1.1-.31-.773 0-1.37.253-1.79.76l-.68-.59c.274-.333.63-.593 1.07-.78.447-.187.944-.28 1.49-.28.734 0 1.317.177 1.75.53.434.347.65.82.65 1.42 0 .373-.08.727-.24 1.06-.16.333-.463.713-.91 1.14l-2.14 2.06h3.59zm8.608-6.13v.68l-2.83 6.32h-1.06l2.77-6.13h-3.2v1.25h-.96V228h5.28zm2.701 2.79c1 0 1.733.19 2.2.57.473.373.71.887.71 1.54 0 .413-.1.787-.3 1.12-.194.327-.49.587-.89.78-.394.187-.88.28-1.46.28-.494 0-.97-.073-1.43-.22-.46-.153-.84-.363-1.14-.63l.46-.79c.24.227.546.41.92.55.373.133.766.2 1.18.2.526 0 .933-.11 1.22-.33.293-.227.44-.533.44-.92 0-.42-.16-.737-.48-.95-.32-.22-.867-.33-1.64-.33h-1.59l.37-3.66h3.95v.87h-3.11l-.19 1.92h.78zm9.832 2.49h-1.33V235h-.97v-1.72h-3.89v-.7l3.58-4.58h1.08l-3.43 4.42h2.69v-1.52h.94v1.52h1.33v.86zM516.57 231.84h2.69v.83h-2.69v-.83zm8.531 2.29v.87h-5.03v-.68l2.85-2.75c.347-.333.58-.62.7-.86.12-.247.18-.493.18-.74 0-.367-.13-.65-.39-.85-.253-.207-.62-.31-1.1-.31-.773 0-1.37.253-1.79.76l-.68-.59c.274-.333.63-.593 1.07-.78.447-.187.944-.28 1.49-.28.734 0 1.317.177 1.75.53.434.347.65.82.65 1.42 0 .373-.08.727-.24 1.06-.16.333-.463.713-.91 1.14l-2.14 2.06h3.59zm3.092-6.21c.94 0 1.664.303 2.17.91.514.607.77 1.467.77 2.58 0 .78-.14 1.447-.42 2-.273.547-.66.963-1.16 1.25-.493.28-1.07.42-1.73.42-.34 0-.66-.033-.96-.1-.3-.073-.56-.177-.78-.31l.38-.78c.34.22.79.33 1.35.33.727 0 1.294-.223 1.7-.67.414-.453.62-1.11.62-1.97v-.25c-.2.3-.476.53-.83.69-.353.153-.75.23-1.19.23-.46 0-.873-.087-1.24-.26a2.043 2.043 0 0 1-.85-.74c-.2-.327-.3-.7-.3-1.12 0-.44.107-.827.32-1.16.22-.333.517-.59.89-.77.374-.187.794-.28 1.26-.28zm.09 3.52c.314 0 .594-.06.84-.18.247-.12.437-.283.57-.49.14-.207.21-.437.21-.69 0-.247-.066-.47-.2-.67a1.287 1.287 0 0 0-.57-.49c-.246-.127-.546-.19-.9-.19-.46 0-.833.123-1.12.37-.28.247-.42.577-.42.99 0 .413.144.743.43.99.287.24.674.36 1.16.36zm8.844-3.44v.68l-2.83 6.32h-1.06l2.77-6.13h-3.2v1.25h-.96V228h5.28zM229.34 275.08c-.553 0-1.047-.14-1.48-.42-.427-.287-.763-.7-1.01-1.24s-.37-1.18-.37-1.92.123-1.38.37-1.92.583-.95 1.01-1.23c.433-.287.927-.43 1.48-.43.547 0 1.033.143 1.46.43.433.28.773.69 1.02 1.23s.37 1.18.37 1.92-.123 1.38-.37 1.92-.587.953-1.02 1.24c-.427.28-.913.42-1.46.42zm0-.89c.56 0 1.007-.23 1.34-.69.34-.46.51-1.127.51-2s-.17-1.54-.51-2c-.333-.46-.78-.69-1.34-.69-.567 0-1.02.23-1.36.69-.333.46-.5 1.127-.5 2s.167 1.54.5 2c.34.46.793.69 1.36.69zM304.57 271.84h2.69v.83h-2.69v-.83zm6.826-1.09c.46 0 .87.087 1.23.26a1.997 1.997 0 0 1 1.17 1.86c0 .44-.11.827-.33 1.16-.213.333-.51.593-.89.78-.373.18-.793.27-1.26.27-.94 0-1.666-.303-2.18-.91-.506-.607-.76-1.467-.76-2.58 0-.78.137-1.443.41-1.99.28-.553.667-.97 1.16-1.25.5-.287 1.08-.43 1.74-.43.34 0 .66.037.96.11.3.067.56.167.78.3l-.38.78c-.333-.22-.78-.33-1.34-.33-.726 0-1.296.227-1.71.68-.413.447-.62 1.1-.62 1.96 0 .107.004.19.01.25.2-.3.474-.527.82-.68.354-.16.75-.24 1.19-.24zm-.12 3.52c.46 0 .834-.123 1.12-.37.287-.247.43-.577.43-.99 0-.413-.146-.74-.44-.98-.286-.247-.673-.37-1.16-.37-.313 0-.593.06-.84.18-.24.12-.43.283-.57.49a1.25 1.25 0 0 0-.2.69c0 .247.064.473.19.68.134.2.324.363.57.49.254.12.554.18.9.18zm5.272-3.48c1 0 1.734.19 2.2.57.474.373.71.887.71 1.54 0 .413-.1.787-.3 1.12-.193.327-.49.587-.89.78-.393.187-.88.28-1.46.28a4.67 4.67 0 0 1-1.43-.22c-.46-.153-.84-.363-1.14-.63l.46-.79c.24.227.547.41.92.55.374.133.767.2 1.18.2.527 0 .934-.11 1.22-.33.294-.227.44-.533.44-.92 0-.42-.16-.737-.48-.95-.32-.22-.866-.33-1.64-.33h-1.59l.37-3.66h3.95v.87h-3.11l-.19 1.92h.78zM381.34 275.08c-.553 0-1.047-.14-1.48-.42-.427-.287-.763-.7-1.01-1.24s-.37-1.18-.37-1.92.123-1.38.37-1.92.583-.95 1.01-1.23c.433-.287.927-.43 1.48-.43.547 0 1.033.143 1.46.43.433.28.773.69 1.02 1.23s.37 1.18.37 1.92-.123 1.38-.37 1.92-.587.953-1.02 1.24c-.427.28-.913.42-1.46.42zm0-.89c.56 0 1.007-.23 1.34-.69.34-.46.51-1.127.51-2s-.17-1.54-.51-2c-.333-.46-.78-.69-1.34-.69-.567 0-1.02.23-1.36.69-.333.46-.5 1.127-.5 2s.167 1.54.5 2c.34.46.793.69 1.36.69zM442.57 271.84h2.69v.83h-2.69v-.83zm5.732-3.84v7h-.99v-6.13h-1.58V268h2.57zm4.212 2.94c.686.067 1.21.28 1.57.64.36.353.54.807.54 1.36 0 .4-.1.763-.3 1.09-.2.32-.5.577-.9.77-.394.187-.877.28-1.45.28-.5 0-.98-.073-1.44-.22-.46-.153-.837-.363-1.13-.63l.46-.79c.24.227.546.41.92.55.373.133.77.2 1.19.2.52 0 .923-.11 1.21-.33.293-.22.44-.523.44-.91s-.144-.687-.43-.9c-.287-.213-.72-.32-1.3-.32h-.56v-.7l1.76-2.16h-3.37V268h4.62v.68l-1.83 2.26zm5.902 4.14a2.67 2.67 0 0 1-1.48-.42c-.426-.287-.763-.7-1.01-1.24-.246-.54-.37-1.18-.37-1.92s.124-1.38.37-1.92c.247-.54.584-.95 1.01-1.23.434-.287.927-.43 1.48-.43.547 0 1.034.143 1.46.43.434.28.774.69 1.02 1.23.247.54.37 1.18.37 1.92s-.123 1.38-.37 1.92c-.246.54-.586.953-1.02 1.24-.426.28-.913.42-1.46.42zm0-.89c.56 0 1.007-.23 1.34-.69.34-.46.51-1.127.51-2s-.17-1.54-.51-2c-.333-.46-.78-.69-1.34-.69-.566 0-1.02.23-1.36.69-.333.46-.5 1.127-.5 2s.167 1.54.5 2c.34.46.794.69 1.36.69zM514.57 271.84h2.69v.83h-2.69v-.83zm5.732-3.84v7h-.99v-6.13h-1.58V268h2.57zm3.802-.08c.94 0 1.663.303 2.17.91.513.607.77 1.467.77 2.58 0 .78-.14 1.447-.42 2-.274.547-.66.963-1.16 1.25-.494.28-1.07.42-1.73.42-.34 0-.66-.033-.96-.1-.3-.073-.56-.177-.78-.31l.38-.78c.34.22.79.33 1.35.33.726 0 1.293-.223 1.7-.67.413-.453.62-1.11.62-1.97v-.25c-.2.3-.477.53-.83.69-.354.153-.75.23-1.19.23a2.87 2.87 0 0 1-1.24-.26 2.037 2.037 0 0 1-.85-.74c-.2-.327-.3-.7-.3-1.12 0-.44.106-.827.32-1.16.22-.333.516-.59.89-.77.373-.187.793-.28 1.26-.28zm.09 3.52c.313 0 .593-.06.84-.18a1.38 1.38 0 0 0 .57-.49c.14-.207.21-.437.21-.69 0-.247-.067-.47-.2-.67a1.298 1.298 0 0 0-.57-.49c-.247-.127-.547-.19-.9-.19-.46 0-.834.123-1.12.37-.28.247-.42.577-.42.99 0 .413.143.743.43.99.286.24.673.36 1.16.36zm5.811-.65c1 0 1.734.19 2.2.57.474.373.71.887.71 1.54 0 .413-.1.787-.3 1.12-.193.327-.49.587-.89.78-.393.187-.88.28-1.46.28a4.67 4.67 0 0 1-1.43-.22c-.46-.153-.84-.363-1.14-.63l.46-.79c.24.227.547.41.92.55.374.133.767.2 1.18.2.527 0 .934-.11 1.22-.33.294-.227.44-.533.44-.92 0-.42-.16-.737-.48-.95-.32-.22-.866-.33-1.64-.33h-1.59l.37-3.66h3.95v.87h-3.11l-.19 1.92h.78z" fill="#5E9EEB"/><path d="M210.57 308.84h2.69v.83h-2.69v-.83zm5.732-3.84v7h-.99v-6.13h-1.58V305h2.57zm3.802-.08c.94 0 1.663.303 2.17.91.513.607.77 1.467.77 2.58 0 .78-.14 1.447-.42 2-.274.547-.66.963-1.16 1.25-.494.28-1.07.42-1.73.42-.34 0-.66-.033-.96-.1-.3-.073-.56-.177-.78-.31l.38-.78c.34.22.79.33 1.35.33.726 0 1.293-.223 1.7-.67.413-.453.62-1.11.62-1.97v-.25c-.2.3-.477.53-.83.69-.354.153-.75.23-1.19.23a2.87 2.87 0 0 1-1.24-.26 2.037 2.037 0 0 1-.85-.74c-.2-.327-.3-.7-.3-1.12 0-.44.106-.827.32-1.16.22-.333.516-.59.89-.77.373-.187.793-.28 1.26-.28zm.09 3.52c.313 0 .593-.06.84-.18a1.38 1.38 0 0 0 .57-.49c.14-.207.21-.437.21-.69 0-.247-.067-.47-.2-.67a1.298 1.298 0 0 0-.57-.49c-.247-.127-.547-.19-.9-.19-.46 0-.834.123-1.12.37-.28.247-.42.577-.42.99 0 .413.143.743.43.99.286.24.673.36 1.16.36zm8.843-3.44v.68l-2.83 6.32h-1.06l2.77-6.13h-3.2v1.25h-.96V305h5.28zm8.662 0v.68l-2.83 6.32h-1.06l2.77-6.13h-3.2v1.25h-.96V305h5.28zm5.797 6.13v.87h-5.03v-.68l2.85-2.75c.346-.333.58-.62.7-.86.12-.247.18-.493.18-.74 0-.367-.13-.65-.39-.85-.254-.207-.62-.31-1.1-.31-.774 0-1.37.253-1.79.76l-.68-.59a2.74 2.74 0 0 1 1.07-.78c.446-.187.943-.28 1.49-.28.733 0 1.316.177 1.75.53.433.347.65.82.65 1.42 0 .373-.08.727-.24 1.06-.16.333-.464.713-.91 1.14l-2.14 2.06h3.59zm3.502-3.19c.687.067 1.21.28 1.57.64.36.353.54.807.54 1.36 0 .4-.1.763-.3 1.09-.2.32-.5.577-.9.77-.393.187-.877.28-1.45.28-.5 0-.98-.073-1.44-.22-.46-.153-.837-.363-1.13-.63l.46-.79c.24.227.547.41.92.55.373.133.77.2 1.19.2.52 0 .923-.11 1.21-.33.293-.22.44-.523.44-.91s-.143-.687-.43-.9c-.287-.213-.72-.32-1.3-.32h-.56v-.7l1.76-2.16h-3.37V305h4.62v.68l-1.83 2.26zM291.57 308.84h2.69v.83h-2.69v-.83zm8.531 2.29v.87h-5.03v-.68l2.85-2.75c.347-.333.58-.62.7-.86.12-.247.18-.493.18-.74 0-.367-.13-.65-.39-.85-.253-.207-.62-.31-1.1-.31-.773 0-1.37.253-1.79.76l-.68-.59c.274-.333.63-.593 1.07-.78.447-.187.944-.28 1.49-.28.734 0 1.317.177 1.75.53.434.347.65.82.65 1.42 0 .373-.08.727-.24 1.06-.16.333-.463.713-.91 1.14l-2.14 2.06h3.59zm5.742 0v.87h-5.03v-.68l2.85-2.75c.347-.333.58-.62.7-.86.12-.247.18-.493.18-.74 0-.367-.13-.65-.39-.85-.253-.207-.62-.31-1.1-.31-.773 0-1.37.253-1.79.76l-.68-.59c.274-.333.63-.593 1.07-.78.447-.187.944-.28 1.49-.28.734 0 1.317.177 1.75.53.434.347.65.82.65 1.42 0 .373-.08.727-.24 1.06-.16.333-.463.713-.91 1.14l-2.14 2.06h3.59zm2.993-6.13v7h-.99v-6.13h-1.58V305h2.57zm8.496 3.33c.4.153.707.373.92.66.214.287.32.63.32 1.03 0 .42-.113.787-.34 1.1-.226.307-.55.543-.97.71-.42.167-.913.25-1.48.25-.56 0-1.05-.083-1.47-.25-.413-.167-.733-.403-.96-.71a1.83 1.83 0 0 1-.34-1.1c0-.4.104-.743.31-1.03.214-.287.52-.507.92-.66a1.755 1.755 0 0 1-.73-.61 1.604 1.604 0 0 1-.25-.9c0-.387.104-.723.31-1.01.214-.287.51-.507.89-.66.38-.153.82-.23 1.32-.23.507 0 .95.077 1.33.23.387.153.684.373.89.66.214.287.32.623.32 1.01 0 .34-.086.64-.26.9-.166.253-.41.457-.73.61zm-1.55-2.6c-.473 0-.846.103-1.12.31a.962.962 0 0 0-.41.82c0 .347.134.62.4.82.274.2.65.3 1.13.3.487 0 .867-.1 1.14-.3.28-.2.42-.473.42-.82a.947.947 0 0 0-.43-.82c-.28-.207-.656-.31-1.13-.31zm0 5.54c.554 0 .99-.113 1.31-.34.32-.233.48-.547.48-.94 0-.387-.16-.69-.48-.91-.32-.227-.756-.34-1.31-.34-.553 0-.986.113-1.3.34-.313.22-.47.523-.47.91 0 .393.157.707.47.94.314.227.747.34 1.3.34zm6.566.81c-.554 0-1.047-.14-1.48-.42-.427-.287-.764-.7-1.01-1.24-.247-.54-.37-1.18-.37-1.92s.123-1.38.37-1.92c.246-.54.583-.95 1.01-1.23.433-.287.926-.43 1.48-.43.546 0 1.033.143 1.46.43.433.28.773.69 1.02 1.23.246.54.37 1.18.37 1.92s-.124 1.38-.37 1.92c-.247.54-.587.953-1.02 1.24-.427.28-.914.42-1.46.42zm0-.89c.56 0 1.006-.23 1.34-.69.34-.46.51-1.127.51-2s-.17-1.54-.51-2c-.334-.46-.78-.69-1.34-.69-.567 0-1.02.23-1.36.69-.334.46-.5 1.127-.5 2s.166 1.54.5 2c.34.46.793.69 1.36.69zm8.841-6.19v.68l-2.83 6.32h-1.06l2.77-6.13h-3.2v1.25h-.96V305h5.28zM361.57 308.84h2.69v.83h-2.69v-.83zm8.531 2.29v.87h-5.03v-.68l2.85-2.75c.347-.333.58-.62.7-.86.12-.247.18-.493.18-.74 0-.367-.13-.65-.39-.85-.253-.207-.62-.31-1.1-.31-.773 0-1.37.253-1.79.76l-.68-.59c.274-.333.63-.593 1.07-.78.447-.187.944-.28 1.49-.28.734 0 1.317.177 1.75.53.434.347.65.82.65 1.42 0 .373-.08.727-.24 1.06-.16.333-.463.713-.91 1.14l-2.14 2.06h3.59zm2.992-6.13v7h-.99v-6.13h-1.58V305h2.57zm4.552 2.75c.46 0 .87.087 1.23.26a2.006 2.006 0 0 1 1.17 1.86c0 .44-.11.827-.33 1.16a2.17 2.17 0 0 1-.89.78c-.374.18-.794.27-1.26.27-.94 0-1.667-.303-2.18-.91-.507-.607-.76-1.467-.76-2.58 0-.78.136-1.443.41-1.99.28-.553.666-.97 1.16-1.25.5-.287 1.08-.43 1.74-.43.34 0 .66.037.96.11.3.067.56.167.78.3l-.38.78c-.334-.22-.78-.33-1.34-.33-.727 0-1.297.227-1.71.68-.414.447-.62 1.1-.62 1.96 0 .107.003.19.01.25.2-.3.473-.527.82-.68.353-.16.75-.24 1.19-.24zm-.12 3.52c.46 0 .833-.123 1.12-.37.286-.247.43-.577.43-.99 0-.413-.147-.74-.44-.98-.287-.247-.674-.37-1.16-.37-.314 0-.594.06-.84.18-.24.12-.43.283-.57.49-.134.207-.2.437-.2.69 0 .247.063.473.19.68.133.2.323.363.57.49.253.12.553.18.9.18zm8.977-3.52c.46 0 .87.087 1.23.26a2.003 2.003 0 0 1 1.17 1.86c0 .44-.11.827-.33 1.16-.213.333-.51.593-.89.78-.373.18-.793.27-1.26.27-.94 0-1.667-.303-2.18-.91-.507-.607-.76-1.467-.76-2.58 0-.78.137-1.443.41-1.99.28-.553.667-.97 1.16-1.25.5-.287 1.08-.43 1.74-.43.34 0 .66.037.96.11.3.067.56.167.78.3l-.38.78c-.333-.22-.78-.33-1.34-.33-.727 0-1.297.227-1.71.68-.413.447-.62 1.1-.62 1.96 0 .107.003.19.01.25.2-.3.473-.527.82-.68.353-.16.75-.24 1.19-.24zm-.12 3.52c.46 0 .833-.123 1.12-.37.287-.247.43-.577.43-.99 0-.413-.147-.74-.44-.98-.287-.247-.673-.37-1.16-.37-.313 0-.593.06-.84.18-.24.12-.43.283-.57.49a1.25 1.25 0 0 0-.2.69c0 .247.063.473.19.68.133.2.323.363.57.49.253.12.553.18.9.18zm5.542-6.35c.94 0 1.663.303 2.17.91.513.607.77 1.467.77 2.58 0 .78-.14 1.447-.42 2-.274.547-.66.963-1.16 1.25-.494.28-1.07.42-1.73.42-.34 0-.66-.033-.96-.1-.3-.073-.56-.177-.78-.31l.38-.78c.34.22.79.33 1.35.33.726 0 1.293-.223 1.7-.67.413-.453.62-1.11.62-1.97v-.25c-.2.3-.477.53-.83.69-.354.153-.75.23-1.19.23a2.87 2.87 0 0 1-1.24-.26 2.037 2.037 0 0 1-.85-.74c-.2-.327-.3-.7-.3-1.12 0-.44.106-.827.32-1.16.22-.333.516-.59.89-.77.373-.187.793-.28 1.26-.28zm.09 3.52c.313 0 .593-.06.84-.18a1.38 1.38 0 0 0 .57-.49c.14-.207.21-.437.21-.69 0-.247-.067-.47-.2-.67a1.298 1.298 0 0 0-.57-.49c-.247-.127-.547-.19-.9-.19-.46 0-.834.123-1.12.37-.28.247-.42.577-.42.99 0 .413.143.743.43.99.286.24.673.36 1.16.36zm8.843-3.44v.68l-2.83 6.32h-1.06l2.77-6.13h-3.2v1.25h-.96V305h5.28zM431.57 308.84h2.69v.83h-2.69v-.83zm8.531 2.29v.87h-5.03v-.68l2.85-2.75c.347-.333.58-.62.7-.86.12-.247.18-.493.18-.74 0-.367-.13-.65-.39-.85-.253-.207-.62-.31-1.1-.31-.773 0-1.37.253-1.79.76l-.68-.59c.274-.333.63-.593 1.07-.78.447-.187.944-.28 1.49-.28.734 0 1.317.177 1.75.53.434.347.65.82.65 1.42 0 .373-.08.727-.24 1.06-.16.333-.463.713-.91 1.14l-2.14 2.06h3.59zm3.653.95c-.553 0-1.047-.14-1.48-.42-.427-.287-.763-.7-1.01-1.24s-.37-1.18-.37-1.92.123-1.38.37-1.92.583-.95 1.01-1.23c.433-.287.927-.43 1.48-.43.547 0 1.033.143 1.46.43.433.28.773.69 1.02 1.23s.37 1.18.37 1.92-.123 1.38-.37 1.92-.587.953-1.02 1.24c-.427.28-.913.42-1.46.42zm0-.89c.56 0 1.007-.23 1.34-.69.34-.46.51-1.127.51-2s-.17-1.54-.51-2c-.333-.46-.78-.69-1.34-.69-.567 0-1.02.23-1.36.69-.333.46-.5 1.127-.5 2s.167 1.54.5 2c.34.46.793.69 1.36.69zm8.701-.06v.87h-5.03v-.68l2.85-2.75c.346-.333.58-.62.7-.86.12-.247.18-.493.18-.74 0-.367-.13-.65-.39-.85-.254-.207-.62-.31-1.1-.31-.774 0-1.37.253-1.79.76l-.68-.59a2.74 2.74 0 0 1 1.07-.78c.446-.187.943-.28 1.49-.28.733 0 1.316.177 1.75.53.433.347.65.82.65 1.42 0 .373-.08.727-.24 1.06-.16.333-.464.713-.91 1.14l-2.14 2.06h3.59zm7.787-2.8c.4.153.707.373.92.66.214.287.32.63.32 1.03 0 .42-.113.787-.34 1.1-.226.307-.55.543-.97.71-.42.167-.913.25-1.48.25-.56 0-1.05-.083-1.47-.25-.413-.167-.733-.403-.96-.71a1.83 1.83 0 0 1-.34-1.1c0-.4.104-.743.31-1.03.214-.287.52-.507.92-.66a1.755 1.755 0 0 1-.73-.61 1.604 1.604 0 0 1-.25-.9c0-.387.104-.723.31-1.01.214-.287.51-.507.89-.66.38-.153.82-.23 1.32-.23.507 0 .95.077 1.33.23.387.153.684.373.89.66.214.287.32.623.32 1.01 0 .34-.086.64-.26.9-.166.253-.41.457-.73.61zm-1.55-2.6c-.473 0-.846.103-1.12.31a.962.962 0 0 0-.41.82c0 .347.134.62.4.82.274.2.65.3 1.13.3.487 0 .867-.1 1.14-.3.28-.2.42-.473.42-.82a.947.947 0 0 0-.43-.82c-.28-.207-.656-.31-1.13-.31zm0 5.54c.554 0 .99-.113 1.31-.34.32-.233.48-.547.48-.94 0-.387-.16-.69-.48-.91-.32-.227-.756-.34-1.31-.34-.553 0-.986.113-1.3.34-.313.22-.47.523-.47.91 0 .393.157.707.47.94.314.227.747.34 1.3.34zm6.566.81c-.553 0-1.047-.14-1.48-.42-.427-.287-.763-.7-1.01-1.24s-.37-1.18-.37-1.92.123-1.38.37-1.92.583-.95 1.01-1.23c.433-.287.927-.43 1.48-.43.547 0 1.033.143 1.46.43.433.28.773.69 1.02 1.23s.37 1.18.37 1.92-.123 1.38-.37 1.92-.587.953-1.02 1.24c-.427.28-.913.42-1.46.42zm0-.89c.56 0 1.007-.23 1.34-.69.34-.46.51-1.127.51-2s-.17-1.54-.51-2c-.333-.46-.78-.69-1.34-.69-.567 0-1.02.23-1.36.69-.333.46-.5 1.127-.5 2s.167 1.54.5 2c.34.46.793.69 1.36.69zm8.09-2.86c.4.153.707.373.92.66.213.287.32.63.32 1.03 0 .42-.113.787-.34 1.1-.227.307-.55.543-.97.71-.42.167-.913.25-1.48.25-.56 0-1.05-.083-1.47-.25-.413-.167-.733-.403-.96-.71a1.824 1.824 0 0 1-.34-1.1c0-.4.103-.743.31-1.03.213-.287.52-.507.92-.66a1.755 1.755 0 0 1-.73-.61 1.596 1.596 0 0 1-.25-.9c0-.387.103-.723.31-1.01.213-.287.51-.507.89-.66.38-.153.82-.23 1.32-.23.507 0 .95.077 1.33.23.387.153.683.373.89.66.213.287.32.623.32 1.01 0 .34-.087.64-.26.9-.167.253-.41.457-.73.61zm-1.55-2.6c-.473 0-.847.103-1.12.31a.962.962 0 0 0-.41.82c0 .347.133.62.4.82.273.2.65.3 1.13.3.487 0 .867-.1 1.14-.3.28-.2.42-.473.42-.82a.947.947 0 0 0-.43-.82c-.28-.207-.657-.31-1.13-.31zm0 5.54c.553 0 .99-.113 1.31-.34.32-.233.48-.547.48-.94 0-.387-.16-.69-.48-.91-.32-.227-.757-.34-1.31-.34s-.987.113-1.3.34c-.313.22-.47.523-.47.91 0 .393.157.707.47.94.313.227.747.34 1.3.34zM498.57 308.84h2.69v.83h-2.69v-.83zm5.732-3.84v7h-.99v-6.13h-1.58V305h2.57zm10.307 5.28h-1.33V312h-.97v-1.72h-3.89v-.7l3.58-4.58h1.08l-3.43 4.42h2.69v-1.52h.94v1.52h1.33v.86zm4.977-1.95c.4.153.707.373.92.66.214.287.32.63.32 1.03 0 .42-.113.787-.34 1.1-.226.307-.55.543-.97.71-.42.167-.913.25-1.48.25-.56 0-1.05-.083-1.47-.25-.413-.167-.733-.403-.96-.71a1.83 1.83 0 0 1-.34-1.1c0-.4.104-.743.31-1.03.214-.287.52-.507.92-.66a1.755 1.755 0 0 1-.73-.61 1.604 1.604 0 0 1-.25-.9c0-.387.104-.723.31-1.01.214-.287.51-.507.89-.66.38-.153.82-.23 1.32-.23.507 0 .95.077 1.33.23.387.153.684.373.89.66.214.287.32.623.32 1.01 0 .34-.086.64-.26.9-.166.253-.41.457-.73.61zm-1.55-2.6c-.473 0-.846.103-1.12.31a.962.962 0 0 0-.41.82c0 .347.134.62.4.82.274.2.65.3 1.13.3.487 0 .867-.1 1.14-.3.28-.2.42-.473.42-.82a.947.947 0 0 0-.43-.82c-.28-.207-.656-.31-1.13-.31zm0 5.54c.554 0 .99-.113 1.31-.34.32-.233.48-.547.48-.94 0-.387-.16-.69-.48-.91-.32-.227-.756-.34-1.31-.34-.553 0-.986.113-1.3.34-.313.22-.47.523-.47.91 0 .393.157.707.47.94.314.227.747.34 1.3.34zm6.386-3.33c.686.067 1.21.28 1.57.64.36.353.54.807.54 1.36 0 .4-.1.763-.3 1.09-.2.32-.5.577-.9.77-.394.187-.877.28-1.45.28-.5 0-.98-.073-1.44-.22-.46-.153-.837-.363-1.13-.63l.46-.79c.24.227.546.41.92.55.373.133.77.2 1.19.2.52 0 .923-.11 1.21-.33.293-.22.44-.523.44-.91s-.144-.687-.43-.9c-.287-.213-.72-.32-1.3-.32h-.56v-.7l1.76-2.16h-3.37V305h4.62v.68l-1.83 2.26zm8.588 4.14c-.553 0-1.047-.14-1.48-.42-.427-.287-.763-.7-1.01-1.24s-.37-1.18-.37-1.92.123-1.38.37-1.92.583-.95 1.01-1.23c.433-.287.927-.43 1.48-.43.547 0 1.033.143 1.46.43.433.28.773.69 1.02 1.23s.37 1.18.37 1.92-.123 1.38-.37 1.92-.587.953-1.02 1.24c-.427.28-.913.42-1.46.42zm0-.89c.56 0 1.007-.23 1.34-.69.34-.46.51-1.127.51-2s-.17-1.54-.51-2c-.333-.46-.78-.69-1.34-.69-.567 0-1.02.23-1.36.69-.333.46-.5 1.127-.5 2s.167 1.54.5 2c.34.46.793.69 1.36.69zm6.67.89c-.553 0-1.047-.14-1.48-.42-.427-.287-.763-.7-1.01-1.24s-.37-1.18-.37-1.92.123-1.38.37-1.92.583-.95 1.01-1.23c.433-.287.927-.43 1.48-.43.547 0 1.033.143 1.46.43.433.28.773.69 1.02 1.23s.37 1.18.37 1.92-.123 1.38-.37 1.92-.587.953-1.02 1.24c-.427.28-.913.42-1.46.42zm0-.89c.56 0 1.007-.23 1.34-.69.34-.46.51-1.127.51-2s-.17-1.54-.51-2c-.333-.46-.78-.69-1.34-.69-.567 0-1.02.23-1.36.69-.333.46-.5 1.127-.5 2s.167 1.54.5 2c.34.46.793.69 1.36.69zm6.67.89c-.554 0-1.047-.14-1.48-.42-.427-.287-.764-.7-1.01-1.24-.247-.54-.37-1.18-.37-1.92s.123-1.38.37-1.92c.246-.54.583-.95 1.01-1.23.433-.287.926-.43 1.48-.43.546 0 1.033.143 1.46.43.433.28.773.69 1.02 1.23.246.54.37 1.18.37 1.92s-.124 1.38-.37 1.92c-.247.54-.587.953-1.02 1.24-.427.28-.914.42-1.46.42zm0-.89c.56 0 1.006-.23 1.34-.69.34-.46.51-1.127.51-2s-.17-1.54-.51-2c-.334-.46-.78-.69-1.34-.69-.567 0-1.02.23-1.36.69-.334.46-.5 1.127-.5 2s.166 1.54.5 2c.34.46.793.69 1.36.69z" fill="#fff"/></svg>