<svg width="627" height="361" viewBox="0 0 627 361" fill="none" xmlns="http://www.w3.org/2000/svg"><path d="M74.07 0c-8.828 0-16.186 7.359-16.186 16.189V344.81c0 8.831 7.358 16.19 16.186 16.19h477.385c8.829 0 16.186-7.359 16.186-16.19V16.189c0-8.83-7.357-16.19-16.186-16.19H74.07z" fill="#EEF2FA"/><path d="M490.413 353.531H0S6.724 361 27.315 361H598.833c20.591 0 27.315-7.469 27.315-7.469H490.413z" fill="#5A77D1"/><path d="M626.148 341.083H0v12.448h626.148v-12.448z" fill="#DCDEE2"/><path fill="#fff" d="M71 22h487v303H71z"/><path d="M357.266 342.95h-87.761c0 2.681 2.52 4.979 5.459 4.979h76.843c2.939 0 5.459-2.106 5.459-4.979z" fill="#5A77D1"/><path d="M206.934 66H98.066C93.064 66 89 72.795 89 81.159v61.682C89 151.204 93.064 158 98.066 158h108.868c5.002 0 9.066-6.796 9.066-15.159V81.159c0-8.364-4.064-15.16-9.066-15.16zM365.934 66H257.066C252.064 66 248 72.795 248 81.159v61.682c0 8.363 4.064 15.159 9.066 15.159h108.868c5.002 0 9.066-6.796 9.066-15.159V81.159c0-8.364-4.064-15.16-9.066-15.16zM525.934 66H417.066C412.064 66 408 72.795 408 81.159v61.682c0 8.363 4.064 15.159 9.066 15.159h108.868c5.002 0 9.066-6.796 9.066-15.159V81.159c0-8.364-4.064-15.16-9.066-15.16zM206.934 190H98.066C93.064 190 89 196.795 89 205.159v61.682C89 275.204 93.064 282 98.066 282h108.868c5.002 0 9.066-6.796 9.066-15.159v-61.682c0-8.364-4.064-15.159-9.066-15.159zM365.934 190H257.066c-5.002 0-9.066 6.795-9.066 15.159v61.682c0 8.363 4.064 15.159 9.066 15.159h108.868c5.002 0 9.066-6.796 9.066-15.159v-61.682c0-8.364-4.064-15.159-9.066-15.159zM525.934 190H417.066c-5.002 0-9.066 6.795-9.066 15.159v61.682c0 8.363 4.064 15.159 9.066 15.159h108.868c5.002 0 9.066-6.796 9.066-15.159v-61.682c0-8.364-4.064-15.159-9.066-15.159z" fill="#D4EEFF"/><path d="M224 112h14M233 105l7 7-7 7M384 112h14M393 105l7 7-7 7M472 166v14M465 175l7 7 7-7M240 236h-14M231 229l-7 7 7 7M400 236h-14M391 229l-7 7 7 7" stroke="#007FFF" stroke-width="2" stroke-linecap="round" stroke-linejoin="round"/><path d="M112.232 106.89c.57.196 1.013.504 1.33.924.327.41.49.891.49 1.442 0 .597-.196 1.115-.588 1.554-.392.438-.924.774-1.596 1.008-.662.233-1.39.35-2.184.35a8.285 8.285 0 0 1-2.016-.252 7.417 7.417 0 0 1-1.89-.77l.7-1.624c.43.261.901.462 1.414.602a6.32 6.32 0 0 0 1.526.196c.672 0 1.228-.122 1.666-.364.448-.243.672-.584.672-1.022a.906.906 0 0 0-.462-.826c-.298-.187-.709-.28-1.232-.28h-2.394v-1.708h2.226c.458 0 .812-.094 1.064-.28a.895.895 0 0 0 .392-.77c0-.383-.186-.682-.56-.896-.364-.215-.835-.322-1.414-.322-.429 0-.872.06-1.33.182a5.045 5.045 0 0 0-1.302.518l-.686-1.764a7.248 7.248 0 0 1 3.36-.798c.766 0 1.47.112 2.114.336.644.224 1.158.55 1.54.98.383.429.574.928.574 1.498 0 .466-.126.882-.378 1.246a2.434 2.434 0 0 1-1.036.84zm6.374-2.534c1.167 0 2.063.28 2.688.84.625.55.938 1.386.938 2.506V112h-2.044v-.938c-.411.7-1.176 1.05-2.296 1.05-.579 0-1.083-.098-1.512-.294a2.253 2.253 0 0 1-.966-.812 2.117 2.117 0 0 1-.336-1.176c0-.7.261-1.251.784-1.652.532-.402 1.349-.602 2.45-.602h1.736c0-.476-.145-.84-.434-1.092-.289-.262-.723-.392-1.302-.392-.401 0-.798.065-1.19.196a3.024 3.024 0 0 0-.98.504l-.784-1.526c.411-.29.901-.514 1.47-.672a6.68 6.68 0 0 1 1.778-.238zm-.168 6.286c.373 0 .705-.084.994-.252.289-.178.495-.434.616-.77v-.77h-1.498c-.896 0-1.344.294-1.344.882 0 .28.107.504.322.672.224.158.527.238.91.238zm9.009-1.498h-1.134V112h-2.184v-7.532h2.184v2.926h1.176l2.044-2.926h2.324l-2.632 3.612 2.814 3.92h-2.576l-2.016-2.856zm12.889-4.676V112h-2.184v-5.74h-2.38l-.07 1.33c-.038.989-.131 1.81-.28 2.464-.15.653-.392 1.166-.728 1.54-.336.373-.803.56-1.4.56-.318 0-.696-.056-1.134-.168l.112-1.792c.149.018.256.028.322.028.326 0 .569-.117.728-.35.168-.243.28-.546.336-.91.056-.374.098-.864.126-1.47l.112-3.024h6.44zm9.226-.112c.765 0 1.451.168 2.058.504a3.611 3.611 0 0 1 1.428 1.372c.345.588.518 1.255.518 2.002 0 .746-.173 1.414-.518 2.002a3.715 3.715 0 0 1-1.428 1.386c-.607.326-1.293.49-2.058.49-.663 0-1.27-.122-1.82-.364a3.745 3.745 0 0 1-1.372-1.05 3.672 3.672 0 0 1-.728-1.568h-1.036V112h-2.17v-7.532h2.17v2.772h1.05c.214-.878.672-1.578 1.372-2.1.7-.523 1.544-.784 2.534-.784zm0 5.964c.532 0 .97-.187 1.316-.56.354-.383.532-.892.532-1.526 0-.644-.178-1.153-.532-1.526-.346-.374-.784-.56-1.316-.56-.542 0-.99.186-1.344.56-.346.373-.518.882-.518 1.526 0 .634.172 1.143.518 1.526.354.373.802.56 1.344.56zm12.296-5.852V112h-2.184v-2.8a4.63 4.63 0 0 1-2.1.476c-1.017 0-1.787-.229-2.31-.686-.513-.467-.77-1.186-.77-2.156v-2.366h2.184v2.226c0 .457.117.788.35.994.243.205.588.308 1.036.308.57 0 1.106-.122 1.61-.364v-3.164h2.184zm9.419 3.794c0 .028-.014.224-.042.588h-5.698c.103.466.346.835.728 1.106.383.27.859.406 1.428.406.392 0 .738-.056 1.036-.168.308-.122.593-.308.854-.56l1.162 1.26c-.709.812-1.745 1.218-3.108 1.218-.849 0-1.6-.164-2.254-.49a3.694 3.694 0 0 1-1.512-1.386c-.354-.588-.532-1.256-.532-2.002 0-.738.173-1.4.518-1.988a3.673 3.673 0 0 1 1.442-1.386 4.227 4.227 0 0 1 2.058-.504c.738 0 1.405.158 2.002.476a3.407 3.407 0 0 1 1.4 1.372c.346.588.518 1.274.518 2.058zm-3.906-2.254c-.494 0-.91.14-1.246.42-.336.28-.541.662-.616 1.148h3.71c-.074-.476-.28-.854-.616-1.134-.336-.29-.746-.434-1.232-.434zm5.58-1.54h2.17v2.94h3.276v-2.94h2.184V112h-2.184v-2.814h-3.276V112h-2.17v-7.532zm9.721 0h2.17v4.48l3.668-4.48h2.002V112h-2.17v-4.48l-3.654 4.48h-2.016v-7.532zm17.262 3.794c0 .028-.014.224-.042.588h-5.698c.102.466.345.835.728 1.106.382.27.858.406 1.428.406.392 0 .737-.056 1.036-.168a2.62 2.62 0 0 0 .854-.56l1.162 1.26c-.71.812-1.746 1.218-3.108 1.218-.85 0-1.601-.164-2.254-.49-.654-.336-1.158-.798-1.512-1.386-.355-.588-.532-1.256-.532-2.002 0-.738.172-1.4.518-1.988a3.66 3.66 0 0 1 1.442-1.386 4.227 4.227 0 0 1 2.058-.504c.737 0 1.404.158 2.002.476a3.413 3.413 0 0 1 1.4 1.372c.345.588.518 1.274.518 2.058zm-3.906-2.254c-.495 0-.91.14-1.246.42-.336.28-.542.662-.616 1.148h3.71c-.075-.476-.28-.854-.616-1.134-.336-.29-.747-.434-1.232-.434zm-69.001 21.2v3.416h-2.03V129h-5.292v1.624h-2.03v-3.416h.308c.467-.01.789-.285.966-.826.177-.542.289-1.312.336-2.31l.098-2.604h6.566v5.74h1.078zm-5.768-2.982c-.028.765-.089 1.39-.182 1.876-.084.485-.247.854-.49 1.106h3.178v-3.948h-2.464l-.042.966zm10.671 4.886c-.794 0-1.508-.164-2.142-.49a3.747 3.747 0 0 1-1.47-1.386c-.355-.588-.532-1.256-.532-2.002 0-.747.177-1.414.532-2.002a3.644 3.644 0 0 1 1.47-1.372c.634-.336 1.348-.504 2.142-.504.793 0 1.502.168 2.128.504a3.657 3.657 0 0 1 1.47 1.372c.354.588.532 1.255.532 2.002 0 .746-.178 1.414-.532 2.002a3.76 3.76 0 0 1-1.47 1.386c-.626.326-1.335.49-2.128.49zm0-1.792c.56 0 1.017-.187 1.372-.56.364-.383.546-.892.546-1.526 0-.635-.182-1.139-.546-1.512-.355-.383-.812-.574-1.372-.574s-1.022.191-1.386.574c-.364.373-.546.877-.546 1.512 0 .634.182 1.143.546 1.526.364.373.826.56 1.386.56zm11.666-4.06h-3.864V129h-2.17v-7.532h6.034v1.792zm4.371 5.852c-.794 0-1.508-.164-2.142-.49a3.747 3.747 0 0 1-1.47-1.386c-.355-.588-.532-1.256-.532-2.002 0-.747.177-1.414.532-2.002a3.644 3.644 0 0 1 1.47-1.372c.634-.336 1.348-.504 2.142-.504.793 0 1.502.168 2.128.504a3.657 3.657 0 0 1 1.47 1.372c.354.588.532 1.255.532 2.002 0 .746-.178 1.414-.532 2.002a3.76 3.76 0 0 1-1.47 1.386c-.626.326-1.335.49-2.128.49zm0-1.792c.56 0 1.017-.187 1.372-.56.364-.383.546-.892.546-1.526 0-.635-.182-1.139-.546-1.512-.355-.383-.812-.574-1.372-.574s-1.022.191-1.386.574c-.364.373-.546.877-.546 1.512 0 .634.182 1.143.546 1.526.364.373.826.56 1.386.56zm11.386-2.254c.886.298 1.33.896 1.33 1.792 0 .681-.257 1.208-.77 1.582-.514.373-1.279.56-2.296.56h-4.018v-7.532h3.85c.942 0 1.68.172 2.212.518.532.336.798.812.798 1.428 0 .373-.098.704-.294.994-.187.28-.458.499-.812.658zm-3.752-.504h1.652c.765 0 1.148-.271 1.148-.812 0-.532-.383-.798-1.148-.798h-1.652v1.61zm1.834 2.954c.802 0 1.204-.276 1.204-.826 0-.29-.094-.5-.28-.63-.187-.14-.481-.21-.882-.21h-1.876v1.666h1.834zm8.401 1.596c-.794 0-1.508-.164-2.142-.49a3.747 3.747 0 0 1-1.47-1.386c-.355-.588-.532-1.256-.532-2.002 0-.747.177-1.414.532-2.002a3.644 3.644 0 0 1 1.47-1.372c.634-.336 1.348-.504 2.142-.504.793 0 1.502.168 2.128.504a3.657 3.657 0 0 1 1.47 1.372c.354.588.532 1.255.532 2.002 0 .746-.178 1.414-.532 2.002a3.76 3.76 0 0 1-1.47 1.386c-.626.326-1.335.49-2.128.49zm0-1.792c.56 0 1.017-.187 1.372-.56.364-.383.546-.892.546-1.526 0-.635-.182-1.139-.546-1.512-.355-.383-.812-.574-1.372-.574s-1.022.191-1.386.574c-.364.373-.546.877-.546 1.512 0 .634.182 1.143.546 1.526.364.373.826.56 1.386.56zm10.07-5.964c.7 0 1.335.163 1.904.49.579.317 1.031.77 1.358 1.358.327.578.49 1.255.49 2.03 0 .774-.163 1.456-.49 2.044a3.523 3.523 0 0 1-1.358 1.358 3.846 3.846 0 0 1-1.904.476c-.961 0-1.717-.304-2.268-.91v3.514h-2.184v-10.248h2.086v.868c.541-.654 1.33-.98 2.366-.98zm-.378 5.964c.56 0 1.017-.187 1.372-.56.364-.383.546-.892.546-1.526 0-.635-.182-1.139-.546-1.512-.355-.383-.812-.574-1.372-.574s-1.022.191-1.386.574c-.355.373-.532.877-.532 1.512 0 .634.177 1.143.532 1.526.364.373.826.56 1.386.56zm8.464-5.964c1.166 0 2.062.28 2.688.84.625.55.938 1.386.938 2.506V129h-2.044v-.938c-.411.7-1.176 1.05-2.296 1.05-.579 0-1.083-.098-1.512-.294a2.253 2.253 0 0 1-.966-.812 2.117 2.117 0 0 1-.336-1.176c0-.7.261-1.251.784-1.652.532-.402 1.348-.602 2.45-.602h1.736c0-.476-.145-.84-.434-1.092-.29-.262-.724-.392-1.302-.392-.402 0-.798.065-1.19.196-.383.121-.71.289-.98.504l-.784-1.526c.41-.29.9-.514 1.47-.672a6.674 6.674 0 0 1 1.778-.238zm-.168 6.286c.373 0 .704-.084.994-.252.289-.178.494-.434.616-.77v-.77h-1.498c-.896 0-1.344.294-1.344.882 0 .28.107.504.322.672.224.158.527.238.91.238zM135.15 224.2v9.8h-2.254v-7.952h-4.424V234h-2.254v-9.8h8.932zm5.789 9.912c-.793 0-1.507-.164-2.142-.49a3.76 3.76 0 0 1-1.47-1.386c-.354-.588-.532-1.256-.532-2.002 0-.747.178-1.414.532-2.002a3.657 3.657 0 0 1 1.47-1.372c.635-.336 1.349-.504 2.142-.504.794 0 1.503.168 2.128.504a3.644 3.644 0 0 1 1.47 1.372c.355.588.532 1.255.532 2.002 0 .746-.177 1.414-.532 2.002a3.747 3.747 0 0 1-1.47 1.386c-.625.326-1.334.49-2.128.49zm0-1.792c.56 0 1.018-.187 1.372-.56.364-.383.546-.892.546-1.526 0-.635-.182-1.139-.546-1.512-.354-.383-.812-.574-1.372-.574s-1.022.191-1.386.574c-.364.373-.546.877-.546 1.512 0 .634.182 1.143.546 1.526.364.373.826.56 1.386.56zm13.965-.112v3.416h-2.03V234h-5.292v1.624h-2.03v-3.416h.308c.467-.01.789-.285.966-.826.177-.542.289-1.312.336-2.31l.098-2.604h6.566v5.74h1.078zm-5.768-2.982c-.028.765-.089 1.39-.182 1.876-.084.485-.247.854-.49 1.106h3.178v-3.948h-2.464l-.042.966zm10.069-2.87c1.166 0 2.062.28 2.688.84.625.55.938 1.386.938 2.506V234h-2.044v-.938c-.411.7-1.176 1.05-2.296 1.05-.579 0-1.083-.098-1.512-.294a2.253 2.253 0 0 1-.966-.812 2.117 2.117 0 0 1-.336-1.176c0-.7.261-1.251.784-1.652.532-.402 1.348-.602 2.45-.602h1.736c0-.476-.145-.84-.434-1.092-.29-.262-.724-.392-1.302-.392-.402 0-.798.065-1.19.196-.383.121-.71.289-.98.504l-.784-1.526c.41-.29.9-.514 1.47-.672a6.674 6.674 0 0 1 1.778-.238zm-.168 6.286c.373 0 .704-.084.994-.252.289-.178.494-.434.616-.77v-.77h-1.498c-.896 0-1.344.294-1.344.882 0 .28.107.504.322.672.224.158.527.238.91.238zm12.467-6.174V234h-2.184v-2.8a4.636 4.636 0 0 1-2.1.476c-1.018 0-1.788-.229-2.31-.686-.514-.467-.77-1.186-.77-2.156v-2.366h2.184v2.226c0 .457.116.788.35.994.242.205.588.308 1.036.308.569 0 1.106-.122 1.61-.364v-3.164h2.184zm5.023-.112c1.166 0 2.062.28 2.688.84.625.55.938 1.386.938 2.506V234h-2.044v-.938c-.411.7-1.176 1.05-2.296 1.05-.579 0-1.083-.098-1.512-.294a2.253 2.253 0 0 1-.966-.812 2.117 2.117 0 0 1-.336-1.176c0-.7.261-1.251.784-1.652.532-.402 1.348-.602 2.45-.602h1.736c0-.476-.145-.84-.434-1.092-.29-.262-.724-.392-1.302-.392-.402 0-.798.065-1.19.196-.383.121-.71.289-.98.504l-.784-1.526c.41-.29.9-.514 1.47-.672a6.674 6.674 0 0 1 1.778-.238zm-.168 6.286c.373 0 .704-.084.994-.252.289-.178.494-.434.616-.77v-.77h-1.498c-.896 0-1.344.294-1.344.882 0 .28.107.504.322.672.224.158.527.238.91.238zm-48.299 18.47c-.793 0-1.507-.164-2.142-.49a3.76 3.76 0 0 1-1.47-1.386c-.354-.588-.532-1.256-.532-2.002 0-.747.178-1.414.532-2.002a3.657 3.657 0 0 1 1.47-1.372c.635-.336 1.349-.504 2.142-.504.794 0 1.503.168 2.128.504a3.644 3.644 0 0 1 1.47 1.372c.355.588.532 1.255.532 2.002 0 .746-.177 1.414-.532 2.002a3.747 3.747 0 0 1-1.47 1.386c-.625.326-1.334.49-2.128.49zm0-1.792c.56 0 1.018-.187 1.372-.56.364-.383.546-.892.546-1.526 0-.635-.182-1.139-.546-1.512-.354-.383-.812-.574-1.372-.574s-1.022.191-1.386.574c-.364.373-.546.877-.546 1.512 0 .634.182 1.143.546 1.526.364.373.826.56 1.386.56zm11.687-4.06h-2.548V251h-2.17v-5.74h-2.548v-1.792h7.266v1.792zm7.94-1.792V251h-2.184v-2.8a4.63 4.63 0 0 1-2.1.476c-1.017 0-1.787-.229-2.31-.686-.513-.467-.77-1.186-.77-2.156v-2.366h2.184v2.226c0 .457.117.788.35.994.243.205.588.308 1.036.308.57 0 1.106-.122 1.61-.364v-3.164h2.184zm9.419 3.794c0 .028-.014.224-.042.588h-5.698c.103.466.346.835.728 1.106.383.27.859.406 1.428.406.392 0 .738-.056 1.036-.168.308-.122.593-.308.854-.56l1.162 1.26c-.709.812-1.745 1.218-3.108 1.218-.849 0-1.6-.164-2.254-.49a3.694 3.694 0 0 1-1.512-1.386c-.354-.588-.532-1.256-.532-2.002 0-.738.173-1.4.518-1.988a3.673 3.673 0 0 1 1.442-1.386 4.227 4.227 0 0 1 2.058-.504c.738 0 1.405.158 2.002.476a3.407 3.407 0 0 1 1.4 1.372c.346.588.518 1.274.518 2.058zm-3.906-2.254c-.494 0-.91.14-1.246.42-.336.28-.541.662-.616 1.148h3.71c-.074-.476-.28-.854-.616-1.134-.336-.29-.746-.434-1.232-.434zm11.649.252h-2.548V251h-2.17v-5.74h-2.548v-1.792h7.266v1.792zm4.377 5.852c-.793 0-1.507-.164-2.142-.49a3.76 3.76 0 0 1-1.47-1.386c-.354-.588-.532-1.256-.532-2.002 0-.747.178-1.414.532-2.002a3.657 3.657 0 0 1 1.47-1.372c.635-.336 1.349-.504 2.142-.504.794 0 1.503.168 2.128.504a3.644 3.644 0 0 1 1.47 1.372c.355.588.532 1.255.532 2.002 0 .746-.177 1.414-.532 2.002a3.747 3.747 0 0 1-1.47 1.386c-.625.326-1.334.49-2.128.49zm0-1.792c.56 0 1.018-.187 1.372-.56.364-.383.546-.892.546-1.526 0-.635-.182-1.139-.546-1.512-.354-.383-.812-.574-1.372-.574s-1.022.191-1.386.574c-.364.373-.546.877-.546 1.512 0 .634.182 1.143.546 1.526.364.373.826.56 1.386.56zm11.387-2.254c.886.298 1.33.896 1.33 1.792 0 .681-.257 1.208-.77 1.582-.514.373-1.279.56-2.296.56h-4.018v-7.532h3.85c.942 0 1.68.172 2.212.518.532.336.798.812.798 1.428 0 .373-.098.704-.294.994-.187.28-.458.499-.812.658zm-3.752-.504h1.652c.765 0 1.148-.271 1.148-.812 0-.532-.383-.798-1.148-.798h-1.652v1.61zm1.834 2.954c.802 0 1.204-.276 1.204-.826 0-.29-.094-.5-.28-.63-.187-.14-.481-.21-.882-.21h-1.876v1.666h1.834zM290.352 234.168c-1.017 0-1.937-.22-2.758-.658a4.97 4.97 0 0 1-1.918-1.806c-.457-.775-.686-1.643-.686-2.604 0-.962.229-1.825.686-2.59a4.926 4.926 0 0 1 1.918-1.82c.821-.439 1.741-.658 2.758-.658s1.932.219 2.744.658a4.926 4.926 0 0 1 1.918 1.82c.467.765.7 1.628.7 2.59 0 .961-.233 1.829-.7 2.604a4.97 4.97 0 0 1-1.918 1.806c-.812.438-1.727.658-2.744.658zm0-1.932c.579 0 1.101-.131 1.568-.392a2.861 2.861 0 0 0 1.092-1.12c.271-.476.406-1.018.406-1.624 0-.607-.135-1.148-.406-1.624a2.761 2.761 0 0 0-1.092-1.106 3.065 3.065 0 0 0-1.568-.406c-.579 0-1.101.135-1.568.406a2.86 2.86 0 0 0-1.106 1.106c-.261.476-.392 1.017-.392 1.624 0 .606.131 1.148.392 1.624.271.476.639.849 1.106 1.12.467.261.989.392 1.568.392zm14.431-5.768V234h-2.184v-5.74h-3.136V234h-2.17v-7.532h7.49zm9.318 0V234h-2.184v-5.74h-2.38l-.07 1.33c-.037.989-.131 1.81-.28 2.464-.149.653-.392 1.166-.728 1.54-.336.373-.803.56-1.4.56-.317 0-.695-.056-1.134-.168l.112-1.792c.149.018.257.028.322.028.327 0 .569-.117.728-.35.168-.243.28-.546.336-.91.056-.374.098-.864.126-1.47l.112-3.024h6.44zm5.026-.112c1.167 0 2.063.28 2.688.84.626.55.938 1.386.938 2.506V234h-2.044v-.938c-.41.7-1.176 1.05-2.296 1.05-.578 0-1.082-.098-1.512-.294a2.253 2.253 0 0 1-.966-.812 2.117 2.117 0 0 1-.336-1.176c0-.7.262-1.251.784-1.652.532-.402 1.349-.602 2.45-.602h1.736c0-.476-.144-.84-.434-1.092-.289-.262-.723-.392-1.302-.392-.401 0-.798.065-1.19.196a3.034 3.034 0 0 0-.98.504l-.784-1.526c.411-.29.901-.514 1.47-.672a6.685 6.685 0 0 1 1.778-.238zm-.168 6.286c.374 0 .705-.084.994-.252.29-.178.495-.434.616-.77v-.77h-1.498c-.896 0-1.344.294-1.344.882 0 .28.108.504.322.672.224.158.528.238.91.238zm12.02-4.382h-2.548V234h-2.17v-5.74h-2.548v-1.792h7.266v1.792zm4.09-1.904c1.166 0 2.062.28 2.688.84.625.55.938 1.386.938 2.506V234h-2.044v-.938c-.411.7-1.176 1.05-2.296 1.05-.579 0-1.083-.098-1.512-.294a2.253 2.253 0 0 1-.966-.812 2.117 2.117 0 0 1-.336-1.176c0-.7.261-1.251.784-1.652.532-.402 1.348-.602 2.45-.602h1.736c0-.476-.145-.84-.434-1.092-.29-.262-.724-.392-1.302-.392-.402 0-.798.065-1.19.196-.383.121-.71.289-.98.504l-.784-1.526c.41-.29.9-.514 1.47-.672a6.674 6.674 0 0 1 1.778-.238zm-.168 6.286c.373 0 .704-.084.994-.252.289-.178.494-.434.616-.77v-.77h-1.498c-.896 0-1.344.294-1.344.882 0 .28.107.504.322.672.224.158.527.238.91.238zm-52.551 10.826h2.17v2.94h3.276v-2.94h2.184V251h-2.184v-2.814h-3.276V251h-2.17v-7.532zm12.647-.112c1.166 0 2.062.28 2.688.84.625.55.938 1.386.938 2.506V251h-2.044v-.938c-.411.7-1.176 1.05-2.296 1.05-.579 0-1.083-.098-1.512-.294a2.253 2.253 0 0 1-.966-.812 2.117 2.117 0 0 1-.336-1.176c0-.7.261-1.251.784-1.652.532-.402 1.348-.602 2.45-.602h1.736c0-.476-.145-.84-.434-1.092-.29-.262-.724-.392-1.302-.392-.402 0-.798.065-1.19.196-.383.121-.71.289-.98.504l-.784-1.526c.41-.29.9-.514 1.47-.672a6.674 6.674 0 0 1 1.778-.238zm-.168 6.286c.373 0 .704-.084.994-.252.289-.178.494-.434.616-.77v-.77h-1.498c-.896 0-1.344.294-1.344.882 0 .28.107.504.322.672.224.158.527.238.91.238zm12.915-6.174V251h-2.184v-5.74h-2.38l-.07 1.33c-.038.989-.131 1.81-.28 2.464-.15.653-.392 1.166-.728 1.54-.336.373-.803.56-1.4.56-.318 0-.696-.056-1.134-.168l.112-1.792c.149.018.256.028.322.028.326 0 .569-.117.728-.35.168-.243.28-.546.336-.91.056-.374.098-.864.126-1.47l.112-3.024h6.44zm5.628 7.644c-.793 0-1.507-.164-2.142-.49a3.76 3.76 0 0 1-1.47-1.386c-.355-.588-.532-1.256-.532-2.002 0-.747.177-1.414.532-2.002a3.657 3.657 0 0 1 1.47-1.372c.635-.336 1.349-.504 2.142-.504.793 0 1.503.168 2.128.504a3.657 3.657 0 0 1 1.47 1.372c.355.588.532 1.255.532 2.002 0 .746-.177 1.414-.532 2.002a3.76 3.76 0 0 1-1.47 1.386c-.625.326-1.335.49-2.128.49zm0-1.792c.56 0 1.017-.187 1.372-.56.364-.383.546-.892.546-1.526 0-.635-.182-1.139-.546-1.512-.355-.383-.812-.574-1.372-.574s-1.022.191-1.386.574c-.364.373-.546.877-.546 1.512 0 .634.182 1.143.546 1.526.364.373.826.56 1.386.56zm11.666-4.06h-3.864V251h-2.17v-7.532h6.034v1.792zm4.371 5.852c-.793 0-1.507-.164-2.142-.49a3.76 3.76 0 0 1-1.47-1.386c-.355-.588-.532-1.256-.532-2.002 0-.747.177-1.414.532-2.002a3.657 3.657 0 0 1 1.47-1.372c.635-.336 1.349-.504 2.142-.504.793 0 1.503.168 2.128.504a3.657 3.657 0 0 1 1.47 1.372c.355.588.532 1.255.532 2.002 0 .746-.177 1.414-.532 2.002a3.76 3.76 0 0 1-1.47 1.386c-.625.326-1.335.49-2.128.49zm0-1.792c.56 0 1.017-.187 1.372-.56.364-.383.546-.892.546-1.526 0-.635-.182-1.139-.546-1.512-.355-.383-.812-.574-1.372-.574s-1.022.191-1.386.574c-.364.373-.546.877-.546 1.512 0 .634.182 1.143.546 1.526.364.373.826.56 1.386.56zm11.386-2.254c.887.298 1.33.896 1.33 1.792 0 .681-.256 1.208-.77 1.582-.513.373-1.278.56-2.296.56h-4.018v-7.532h3.85c.943 0 1.68.172 2.212.518.532.336.798.812.798 1.428 0 .373-.098.704-.294.994-.186.28-.457.499-.812.658zm-3.752-.504h1.652c.766 0 1.148-.271 1.148-.812 0-.532-.382-.798-1.148-.798h-1.652v1.61zm1.834 2.954c.803 0 1.204-.276 1.204-.826 0-.29-.093-.5-.28-.63-.186-.14-.48-.21-.882-.21h-1.876v1.666h1.834zM462.043 240.9h-4.55l-.868 2.1h-2.324l4.368-9.8h2.24l4.382 9.8h-2.38l-.868-2.1zm-.714-1.722l-1.554-3.752-1.554 3.752h3.108zm8.412.966h-1.134V243h-2.184v-7.532h2.184v2.926h1.176l2.044-2.926h2.324l-2.632 3.612 2.814 3.92h-2.576l-2.016-2.856zm11.924-2.884h-2.548V243h-2.17v-5.74h-2.548v-1.792h7.266v1.792zm5.126.616c.98.009 1.722.228 2.226.658.504.429.756 1.045.756 1.848 0 .84-.284 1.488-.854 1.946-.569.457-1.376.686-2.422.686l-3.668-.014v-7.532h2.17v2.408h1.792zm3.794-2.408h2.17V243h-2.17v-7.532zm-4.284 5.992c.42.009.742-.08.966-.266.224-.187.336-.467.336-.84 0-.364-.112-.63-.336-.798-.214-.168-.536-.257-.966-.266l-1.302-.014v2.184h1.302zM276.277 110.2v9.8h-2.268v-4.018h-4.452V120h-2.268v-9.8h2.268v3.864h4.452V110.2h2.268zm5.214 2.156c1.166 0 2.062.28 2.688.84.625.55.938 1.386.938 2.506V120h-2.044v-.938c-.411.7-1.176 1.05-2.296 1.05-.579 0-1.083-.098-1.512-.294a2.253 2.253 0 0 1-.966-.812 2.117 2.117 0 0 1-.336-1.176c0-.7.261-1.251.784-1.652.532-.402 1.348-.602 2.45-.602h1.736c0-.476-.145-.84-.434-1.092-.29-.262-.724-.392-1.302-.392-.402 0-.798.065-1.19.196-.383.121-.71.289-.98.504l-.784-1.526c.41-.29.9-.514 1.47-.672a6.674 6.674 0 0 1 1.778-.238zm-.168 6.286c.373 0 .704-.084.994-.252.289-.178.494-.434.616-.77v-.77h-1.498c-.896 0-1.344.294-1.344.882 0 .28.107.504.322.672.224.158.527.238.91.238zm12.467-6.174V120h-2.184v-2.8a4.636 4.636 0 0 1-2.1.476c-1.017 0-1.787-.229-2.31-.686-.513-.467-.77-1.186-.77-2.156v-2.366h2.184v2.226c0 .457.117.788.35.994.243.205.588.308 1.036.308.569 0 1.106-.122 1.61-.364v-3.164h2.184zm2.097 0h2.17v4.48l3.668-4.48h2.002V120h-2.17v-4.48l-3.654 4.48h-2.016v-7.532zm13.523 7.644c-.802 0-1.526-.164-2.17-.49a3.838 3.838 0 0 1-1.498-1.386c-.354-.588-.532-1.256-.532-2.002 0-.747.178-1.414.532-2.002a3.733 3.733 0 0 1 1.498-1.372c.644-.336 1.368-.504 2.17-.504.794 0 1.484.168 2.072.504a2.896 2.896 0 0 1 1.302 1.414l-1.694.91c-.392-.691-.956-1.036-1.694-1.036-.569 0-1.04.186-1.414.56-.373.373-.56.882-.56 1.526s.187 1.152.56 1.526c.374.373.845.56 1.414.56.747 0 1.312-.346 1.694-1.036l1.694.924a2.993 2.993 0 0 1-1.302 1.4c-.588.336-1.278.504-2.072.504zm11.816-7.644V120h-2.184v-5.74h-2.38l-.07 1.33c-.037.989-.131 1.81-.28 2.464-.149.653-.392 1.166-.728 1.54-.336.373-.803.56-1.4.56-.317 0-.695-.056-1.134-.168l.112-1.792c.149.018.257.028.322.028.327 0 .569-.117.728-.35.168-.243.28-.546.336-.91.056-.374.098-.864.126-1.47l.112-3.024h6.44zm9.422 3.794c0 .028-.014.224-.042.588h-5.698c.103.466.346.835.728 1.106.383.27.859.406 1.428.406.392 0 .738-.056 1.036-.168.308-.122.593-.308.854-.56l1.162 1.26c-.709.812-1.745 1.218-3.108 1.218-.849 0-1.6-.164-2.254-.49a3.694 3.694 0 0 1-1.512-1.386c-.354-.588-.532-1.256-.532-2.002 0-.738.173-1.4.518-1.988a3.673 3.673 0 0 1 1.442-1.386 4.227 4.227 0 0 1 2.058-.504c.738 0 1.405.158 2.002.476a3.407 3.407 0 0 1 1.4 1.372c.346.588.518 1.274.518 2.058zm-3.906-2.254c-.494 0-.91.14-1.246.42-.336.28-.541.662-.616 1.148h3.71c-.074-.476-.28-.854-.616-1.134-.336-.29-.746-.434-1.232-.434zm5.58-1.54h2.17v2.94h3.276v-2.94h2.184V120h-2.184v-2.814h-3.276V120h-2.17v-7.532zm9.721 0h2.17v4.48l3.668-4.48h2.002V120h-2.17v-4.48l-3.654 4.48h-2.016v-7.532zm17.262 3.794c0 .028-.014.224-.042.588h-5.698c.102.466.345.835.728 1.106.382.27.858.406 1.428.406.392 0 .737-.056 1.036-.168a2.62 2.62 0 0 0 .854-.56l1.162 1.26c-.71.812-1.746 1.218-3.108 1.218-.85 0-1.601-.164-2.254-.49-.654-.336-1.158-.798-1.512-1.386-.355-.588-.532-1.256-.532-2.002 0-.738.172-1.4.518-1.988a3.66 3.66 0 0 1 1.442-1.386 4.227 4.227 0 0 1 2.058-.504c.737 0 1.404.158 2.002.476a3.413 3.413 0 0 1 1.4 1.372c.345.588.518 1.274.518 2.058zm-3.906-2.254c-.495 0-.91.14-1.246.42-.336.28-.542.662-.616 1.148h3.71c-.075-.476-.28-.854-.616-1.134-.336-.29-.747-.434-1.232-.434zM457.093 121.168c-.998 0-1.904-.215-2.716-.644a5.002 5.002 0 0 1-1.904-1.806c-.457-.775-.686-1.648-.686-2.618 0-.971.229-1.839.686-2.604a4.857 4.857 0 0 1 1.904-1.806c.812-.439 1.722-.658 2.73-.658.85 0 1.615.149 2.296.448.691.298 1.27.728 1.736 1.288l-1.456 1.344c-.662-.766-1.484-1.148-2.464-1.148-.606 0-1.148.135-1.624.406-.476.261-.849.63-1.12 1.106-.261.476-.392 1.017-.392 1.624 0 .606.131 1.148.392 1.624.271.476.644.849 1.12 1.12.476.261 1.018.392 1.624.392.98 0 1.802-.388 2.464-1.162l1.456 1.344a4.538 4.538 0 0 1-1.736 1.302c-.69.298-1.46.448-2.31.448zm11.941-7.7V121h-2.184v-2.8a4.636 4.636 0 0 1-2.1.476c-1.017 0-1.787-.229-2.31-.686-.513-.467-.77-1.186-.77-2.156v-2.366h2.184v2.226c0 .457.117.788.35.994.243.205.588.308 1.036.308.569 0 1.106-.122 1.61-.364v-3.164h2.184zm9.419 3.794c0 .028-.014.224-.042.588h-5.698c.103.466.345.835.728 1.106.383.27.859.406 1.428.406.392 0 .737-.056 1.036-.168.308-.122.593-.308.854-.56l1.162 1.26c-.709.812-1.745 1.218-3.108 1.218-.849 0-1.601-.164-2.254-.49a3.694 3.694 0 0 1-1.512-1.386c-.355-.588-.532-1.256-.532-2.002 0-.738.173-1.4.518-1.988a3.666 3.666 0 0 1 1.442-1.386 4.227 4.227 0 0 1 2.058-.504c.737 0 1.405.158 2.002.476a3.413 3.413 0 0 1 1.4 1.372c.345.588.518 1.274.518 2.058zm-3.906-2.254c-.495 0-.91.14-1.246.42-.336.28-.541.662-.616 1.148h3.71c-.075-.476-.28-.854-.616-1.134-.336-.29-.747-.434-1.232-.434zm11.648.252h-2.548V121h-2.17v-5.74h-2.548v-1.792h7.266v1.792zm4.091-1.904c1.166 0 2.062.28 2.688.84.625.55.938 1.386.938 2.506V121h-2.044v-.938c-.411.7-1.176 1.05-2.296 1.05-.579 0-1.083-.098-1.512-.294a2.253 2.253 0 0 1-.966-.812 2.117 2.117 0 0 1-.336-1.176c0-.7.261-1.251.784-1.652.532-.402 1.348-.602 2.45-.602h1.736c0-.476-.145-.84-.434-1.092-.29-.262-.724-.392-1.302-.392-.402 0-.798.065-1.19.196-.383.121-.71.289-.98.504l-.784-1.526c.41-.29.9-.514 1.47-.672a6.674 6.674 0 0 1 1.778-.238zm-.168 6.286c.373 0 .704-.084.994-.252.289-.178.494-.434.616-.77v-.77h-1.498c-.896 0-1.344.294-1.344.882 0 .28.107.504.322.672.224.158.527.238.91.238z" fill="#555BE4"/></svg>