<svg width="1194" height="1188" viewBox="0 0 1194 1188" fill="none" xmlns="http://www.w3.org/2000/svg"><path d="M553.989 717.157c-203.989-10.303-337.838 95.6-435.331-39.344-49.68-53.514-46.96-170.338-9.217-223.643 84.264-119.39 223.763-116.212 351.794-120.018 48.995-1.511 97.899-12.793 142.309-33.371 29.96-14.091 58.332-32.378 89.824-43.184 31.492-10.807 67.979-13.331 96.5 3.818 63.384 38.07 53.198 132.423 103.571 182.239 44.679 43.966 110.681 42.287 164.601 67.84 65.63 30.974 92.48 108.423 61.82 174.457-28.1 61.209-95.6 123.033-164.805 132.316-192.731 25.482-238.398-92.893-401.066-101.11z" fill="#7057D6"/></svg>