<svg width="403" height="350" viewBox="0 0 403 350" fill="none" xmlns="http://www.w3.org/2000/svg"><path d="M250.9 8H139.1c-15 0-27.1 12.1-27.1 27.1v287.7c0 15 12.1 27.1 27.1 27.1h111.8c15 0 27.1-12.1 27.1-27.1V35.1c0-15-12.1-27.1-27.1-27.1z" fill="#5A77D1"/><path d="M251 0H139.2c-15 0-27.1 12.1-27.1 27.1v287.7c0 15 12.1 27.1 27.1 27.1H251c15 0 27.1-12.1 27.1-27.1V27.1C278.1 12.1 266 0 251 0z" fill="#EEF2FA"/><path d="M202.4 14.3a2.4 2.4 0 1 0 0-4.8 2.4 2.4 0 0 0 0 4.8zM176.2 25.3a2.8 2.8 0 1 0 0-5.6 2.8 2.8 0 0 0 0 5.6zM215.4 21.1h-26c-.8 0-1.5.7-1.5 1.5s.7 1.5 1.5 1.5h26c.8 0 1.5-.7 1.5-1.5s-.7-1.5-1.5-1.5zM196.8 330.7c-7.2 0-13-5.8-13-13s5.8-13 13-13 13 5.8 13 13c0 7.1-5.8 13-13 13zm0-25.2c-6.7 0-12.1 5.4-12.1 12.1 0 6.7 5.4 12.1 12.1 12.1 6.7 0 12.1-5.4 12.1-12.1 0-6.6-5.4-12.1-12.1-12.1z" fill="#5E9EEB"/><path fill="#fff" stroke="#5A77D1" d="M122.5 39.5h144v259h-144z"/><path d="M186.7 222.4c10.88 0 19.7-8.82 19.7-19.7 0-10.88-8.82-19.7-19.7-19.7-10.88 0-19.7 8.82-19.7 19.7 0 10.88 8.82 19.7 19.7 19.7z" fill="#5E9EEB"/><mask id="a" maskUnits="userSpaceOnUse" x="167" y="183" width="40" height="40"><path d="M186.7 222.4c10.88 0 19.7-8.82 19.7-19.7 0-10.88-8.82-19.7-19.7-19.7-10.88 0-19.7 8.82-19.7 19.7 0 10.88 8.82 19.7 19.7 19.7z" fill="#5E9EEB"/></mask><g mask="url(#a)"><path d="M186.7 209.6c5.412 0 9.8-4.387 9.8-9.8 0-5.412-4.388-9.8-9.8-9.8-5.412 0-9.8 4.388-9.8 9.8 0 5.413 4.388 9.8 9.8 9.8z" fill="#213A7E"/><path d="M188.3 212.4h-3c-5.7 0-10.2 4.6-10.2 10.2v7.2h23.4v-7.2c0-5.7-4.6-10.2-10.2-10.2z" fill="#F2CF00"/><path d="M192.4 194.4c-6.6 2.9-11.3 0-11.3 0 .7 2 .9 5.2-2.2 9.8h-.2c0 4.5 3.6 8.1 8.1 8.1s8.1-3.6 8.1-8.1h-.2c-3.2-4.5-3-7.8-2.3-9.8z" fill="#E5BCA9"/><path d="M183.6 208v6.9c0 1.7 1.4 3.2 3.2 3.2 1.7 0 3.2-1.4 3.2-3.2V208h-6.4z" fill="#E5BCA9"/><path d="M184.1 206.8c.1 1.4 1.3 2.4 2.7 2.4 1.4 0 2.5-1.1 2.7-2.4h-5.4z" fill="#fff"/><path d="M178.6 206.1a2.4 2.4 0 1 0 .001-4.799 2.4 2.4 0 0 0-.001 4.799zM194.9 206.1a2.4 2.4 0 1 0 0-4.8 2.4 2.4 0 0 0 0 4.8z" fill="#E5BCA9"/></g><path d="M173.2 176H11.6C5.2 176 0 181.2 0 187.6v27.2c0 6.4 5.2 11.6 11.6 11.6h139.3c6.4 0 11.6-5.2 11.6-11.6v-27.2-.8l10.7-10.8z" fill="#5E9EEB"/><path d="M21.64 194.25h-3.72l-.77 1.75h-1.03l3.17-7h.99l3.18 7h-1.05l-.77-1.75zm-.35-.8l-1.51-3.43-1.51 3.43h3.02zm7.797-2.75v5.3h-.96v-4.46h-2.28l-.06 1.18c-.033.713-.096 1.31-.19 1.79-.093.473-.246.853-.46 1.14-.213.287-.51.43-.89.43-.173 0-.37-.03-.59-.09l.06-.81c.087.02.167.03.24.03a.65.65 0 0 0 .6-.35c.134-.233.22-.51.26-.83.04-.32.077-.777.11-1.37l.09-1.96h4.07zm6.647 2.68c0 .073-.007.17-.02.29h-4.3c.06.467.263.843.61 1.13.353.28.79.42 1.31.42.633 0 1.143-.213 1.53-.64l.53.62c-.24.28-.54.493-.9.64-.354.147-.75.22-1.19.22-.56 0-1.057-.113-1.49-.34a2.527 2.527 0 0 1-1.01-.97 2.796 2.796 0 0 1-.35-1.4c0-.513.113-.977.34-1.39.233-.413.55-.733.95-.96.406-.233.863-.35 1.37-.35.506 0 .956.117 1.35.35.4.227.71.547.93.96.226.413.34.887.34 1.42zm-2.62-1.92c-.46 0-.847.14-1.16.42-.307.28-.487.647-.54 1.1h3.4a1.674 1.674 0 0 0-.55-1.09c-.307-.287-.69-.43-1.15-.43zm6.169 2.3h-1.1V196h-.96v-5.3h.96v2.24h1.12l1.72-2.24h1.03l-2.01 2.55 2.15 2.75h-1.13l-1.78-2.24zm6.05 2.3c-.54 0-1.023-.117-1.45-.35a2.58 2.58 0 0 1-.99-.96c-.24-.413-.36-.88-.36-1.4 0-.52.12-.983.36-1.39.24-.413.57-.733.99-.96.427-.233.91-.35 1.45-.35.48 0 .907.097 1.28.29.38.193.674.473.88.84l-.73.47a1.637 1.637 0 0 0-.62-.57 1.764 1.764 0 0 0-.82-.19c-.346 0-.66.077-.94.23-.273.153-.49.373-.65.66-.153.28-.23.603-.23.97 0 .373.077.703.23.99.16.28.377.497.65.65.28.153.594.23.94.23.3 0 .574-.063.82-.19.247-.127.454-.317.62-.57l.73.46c-.206.367-.5.65-.88.85-.373.193-.8.29-1.28.29zm5.294-5.41c.733 0 1.293.18 1.68.54.393.36.59.897.59 1.61v3.2h-.91v-.7a1.54 1.54 0 0 1-.69.57c-.294.127-.644.19-1.05.19-.594 0-1.07-.143-1.43-.43a1.385 1.385 0 0 1-.53-1.13c0-.467.17-.84.51-1.12.34-.287.88-.43 1.62-.43h1.52v-.19c0-.413-.12-.73-.36-.95-.24-.22-.594-.33-1.06-.33-.314 0-.62.053-.92.16-.3.1-.554.237-.76.41l-.4-.72c.273-.22.6-.387.98-.5.38-.12.783-.18 1.21-.18zm-.22 4.67c.366 0 .683-.08.95-.24.266-.167.46-.4.58-.7v-.74h-1.48c-.814 0-1.22.273-1.22.82 0 .267.103.477.31.63.206.153.493.23.86.23zm4.218-4.62h.96v2.25h3.02v-2.25h.96v5.3h-.96v-2.22h-3.02V196h-.96v-5.3zm12.197 4.46v2.07h-.9V196h-4.43v1.23h-.91v-2.07h.28c.34-.02.573-.26.7-.72.127-.46.213-1.11.26-1.95l.08-1.79h4.11v4.46h.81zm-4.12-2.6c-.027.667-.083 1.22-.17 1.66-.08.433-.23.747-.45.94h2.97v-3.62h-2.3l-.05 1.02zm8.18-1.91c.514 0 .974.113 1.38.34.407.227.724.543.95.95.234.407.35.877.35 1.41 0 .533-.116 1.007-.35 1.42a2.412 2.412 0 0 1-.95.95c-.406.227-.866.34-1.38.34-.38 0-.73-.073-1.05-.22a2.187 2.187 0 0 1-.8-.64v2.74h-.96v-7.24h.92v.84c.214-.293.484-.513.81-.66.327-.153.687-.23 1.08-.23zm-.08 4.57c.34 0 .644-.077.91-.23.274-.16.487-.38.64-.66.16-.287.24-.613.24-.98s-.08-.69-.24-.97a1.604 1.604 0 0 0-.64-.66 1.796 1.796 0 0 0-.91-.23c-.333 0-.636.08-.91.24a1.71 1.71 0 0 0-.64.65c-.153.28-.23.603-.23.97s.077.693.23.98c.154.28.367.5.64.66.274.153.577.23.91.23zm12.18-6.22v7h-.99v-2.77c-.74.287-1.422.43-2.05.43-.852 0-1.516-.207-1.99-.62-.466-.413-.7-1.003-.7-1.77V189h.98v2.16c0 .52.158.92.47 1.2.32.28.77.42 1.35.42.648 0 1.294-.147 1.94-.44V189h.99zm6.814 4.38c0 .073-.007.17-.02.29h-4.3c.06.467.264.843.61 1.13.353.28.79.42 1.31.42.633 0 1.144-.213 1.53-.64l.53.62c-.24.28-.54.493-.9.64-.353.147-.75.22-1.19.22-.56 0-1.056-.113-1.49-.34a2.527 2.527 0 0 1-1.01-.97 2.796 2.796 0 0 1-.35-1.4c0-.513.113-.977.34-1.39.234-.413.55-.733.95-.96.407-.233.864-.35 1.37-.35.507 0 .957.117 1.35.35.4.227.71.547.93.96.227.413.34.887.34 1.42zm-2.62-1.92c-.46 0-.847.14-1.16.42-.306.28-.487.647-.54 1.1h3.4a1.674 1.674 0 0 0-.55-1.09c-.306-.287-.69-.43-1.15-.43zm6.92-.81c.513 0 .973.113 1.38.34.406.227.723.543.95.95.233.407.35.877.35 1.41 0 .533-.117 1.007-.35 1.42a2.412 2.412 0 0 1-.95.95c-.407.227-.867.34-1.38.34-.38 0-.73-.073-1.05-.22a2.187 2.187 0 0 1-.8-.64v2.74h-.96v-7.24h.92v.84c.213-.293.483-.513.81-.66.326-.153.686-.23 1.08-.23zm-.08 4.57c.34 0 .643-.077.91-.23.273-.16.486-.38.64-.66.16-.287.24-.613.24-.98s-.08-.69-.24-.97a1.604 1.604 0 0 0-.64-.66 1.796 1.796 0 0 0-.91-.23c-.334 0-.637.08-.91.24a1.71 1.71 0 0 0-.64.65c-.154.28-.23.603-.23.97s.076.693.23.98c.153.28.366.5.64.66.273.153.576.23.91.23zm4.154-4.52h.96v2.25h3.02v-2.25h.96v5.3h-.96v-2.22h-3.02V196h-.96v-5.3zm9.077 5.36c-.527 0-1-.117-1.42-.35a2.58 2.58 0 0 1-.99-.96 2.8 2.8 0 0 1-.35-1.4c0-.52.117-.983.35-1.39.24-.413.57-.733.99-.96.42-.233.893-.35 1.42-.35.527 0 .997.117 1.41.35.42.227.747.547.98.96.24.407.36.87.36 1.39 0 .52-.12.987-.36 1.4-.233.407-.56.727-.98.96a2.82 2.82 0 0 1-1.41.35zm0-.84c.34 0 .643-.077.91-.23.273-.16.487-.38.64-.66a2.05 2.05 0 0 0 .23-.98c0-.367-.077-.69-.23-.97a1.604 1.604 0 0 0-.64-.66 1.797 1.797 0 0 0-.91-.23c-.34 0-.647.077-.92.23-.267.153-.48.373-.64.66a1.99 1.99 0 0 0-.23.97c0 .367.077.693.23.98.16.28.373.5.64.66.273.153.58.23.92.23zm7.746-1.97c.687.173 1.03.603 1.03 1.29 0 .467-.177.827-.53 1.08-.347.253-.867.38-1.56.38h-2.55v-5.3h2.46c.627 0 1.117.12 1.47.36.353.233.53.567.53 1 0 .28-.077.523-.23.73-.147.2-.353.353-.62.46zm-2.67-.27h1.44c.367 0 .643-.067.83-.2a.662.662 0 0 0 .29-.58c0-.507-.373-.76-1.12-.76h-1.44v1.54zm1.54 2.28c.4 0 .7-.063.9-.19.2-.127.3-.323.3-.59 0-.273-.093-.477-.28-.61-.18-.133-.467-.2-.86-.2h-1.6v1.59h1.54zM142.2 204.5h-126v3.5h126v-3.5zM92.2 216h-76v-3.5h76v3.5z" fill="#fff"/><path d="M186.7 104.4c10.88 0 19.7-8.82 19.7-19.7 0-10.88-8.82-19.7-19.7-19.7-10.88 0-19.7 8.82-19.7 19.7 0 10.88 8.82 19.7 19.7 19.7z" fill="#5E9EEB"/><mask id="b" maskUnits="userSpaceOnUse" x="167" y="65" width="40" height="40"><path d="M186.7 104.4c10.88 0 19.7-8.82 19.7-19.7 0-10.88-8.82-19.7-19.7-19.7-10.88 0-19.7 8.82-19.7 19.7 0 10.88 8.82 19.7 19.7 19.7z" fill="#5E9EEB"/></mask><g mask="url(#b)"><path d="M186.7 91.6c5.412 0 9.8-4.387 9.8-9.8 0-5.412-4.388-9.8-9.8-9.8-5.412 0-9.8 4.388-9.8 9.8 0 5.413 4.388 9.8 9.8 9.8z" fill="#213A7E"/><path d="M188.3 94.4h-3c-5.7 0-10.2 4.6-10.2 10.2v7.2h23.4v-7.2c0-5.7-4.6-10.2-10.2-10.2z" fill="#F2CF00"/><path d="M192.4 76.4c-6.6 2.9-11.3 0-11.3 0 .7 2 .9 5.2-2.2 9.8h-.2c0 4.5 3.6 8.1 8.1 8.1s8.1-3.6 8.1-8.1h-.2c-3.2-4.5-3-7.8-2.3-9.8z" fill="#E5BCA9"/><path d="M183.6 90v6.9c0 1.7 1.4 3.2 3.2 3.2 1.7 0 3.2-1.4 3.2-3.2V90h-6.4z" fill="#E5BCA9"/><path d="M184.1 88.8c.1 1.4 1.3 2.4 2.7 2.4 1.4 0 2.5-1.1 2.7-2.4h-5.4z" fill="#fff"/><path d="M178.6 88.1a2.4 2.4 0 1 0 0-4.8 2.4 2.4 0 0 0 0 4.8zM194.9 88.1a2.4 2.4 0 1 0 0-4.8 2.4 2.4 0 0 0 0 4.8z" fill="#E5BCA9"/></g><path d="M173.2 57H11.6C5.2 57 0 62.2 0 68.6v27.2c0 6.4 5.2 11.6 11.6 11.6h139.3c6.4 0 11.6-5.2 11.6-11.6V68.6v-.8L173.2 57z" fill="#5E9EEB"/><path d="M21.64 75.25h-3.72L17.15 77h-1.03l3.17-7h.99l3.18 7h-1.05l-.77-1.75zm-.35-.8l-1.51-3.43-1.51 3.43h3.02zm7.797-2.75V77h-.96v-4.46h-2.28l-.06 1.18c-.033.713-.096 1.31-.19 1.79-.093.473-.246.853-.46 1.14-.213.286-.51.43-.89.43-.173 0-.37-.03-.59-.09l.06-.81c.087.02.167.03.24.03a.649.649 0 0 0 .6-.35c.134-.234.22-.51.26-.83.04-.32.077-.777.11-1.37l.09-1.96h4.07zm6.647 2.68c0 .073-.007.17-.02.29h-4.3c.06.466.263.843.61 1.13.353.28.79.42 1.31.42.633 0 1.143-.213 1.53-.64l.53.62c-.24.28-.54.493-.9.64-.354.147-.75.22-1.19.22-.56 0-1.057-.114-1.49-.34a2.527 2.527 0 0 1-1.01-.97 2.797 2.797 0 0 1-.35-1.4c0-.513.113-.977.34-1.39.233-.413.55-.733.95-.96.406-.234.863-.35 1.37-.35.506 0 .956.116 1.35.35.4.227.71.546.93.96.226.413.34.887.34 1.42zm-2.62-1.92c-.46 0-.847.14-1.16.42-.307.28-.487.647-.54 1.1h3.4a1.675 1.675 0 0 0-.55-1.09c-.307-.287-.69-.43-1.15-.43zm6.169 2.3h-1.1V77h-.96v-5.3h.96v2.24h1.12l1.72-2.24h1.03l-2.01 2.55 2.15 2.75h-1.13l-1.78-2.24zm6.05 2.3c-.54 0-1.023-.117-1.45-.35a2.585 2.585 0 0 1-.99-.96c-.24-.413-.36-.88-.36-1.4 0-.52.12-.983.36-1.39.24-.413.57-.733.99-.96.427-.234.91-.35 1.45-.35.48 0 .907.096 1.28.29.38.193.674.473.88.84l-.73.47a1.632 1.632 0 0 0-.62-.57 1.768 1.768 0 0 0-.82-.19c-.346 0-.66.077-.94.23-.273.153-.49.373-.65.66-.153.28-.23.603-.23.97 0 .373.077.703.23.99.16.28.377.496.65.65.28.153.594.23.94.23.3 0 .574-.064.82-.19.247-.127.454-.317.62-.57l.73.46c-.206.367-.5.65-.88.85-.373.193-.8.29-1.28.29zm5.294-5.41c.733 0 1.293.18 1.68.54.393.36.59.897.59 1.61V77h-.91v-.7c-.16.246-.39.437-.69.57-.294.126-.644.19-1.05.19-.594 0-1.07-.144-1.43-.43a1.385 1.385 0 0 1-.53-1.13c0-.467.17-.84.51-1.12.34-.287.88-.43 1.62-.43h1.52v-.19c0-.413-.12-.73-.36-.95-.24-.22-.594-.33-1.06-.33-.314 0-.62.053-.92.16-.3.1-.554.236-.76.41l-.4-.72c.273-.22.6-.387.98-.5.38-.12.783-.18 1.21-.18zm-.22 4.67c.366 0 .683-.08.95-.24.266-.167.46-.4.58-.7v-.74h-1.48c-.814 0-1.22.273-1.22.82 0 .267.103.477.31.63.206.153.493.23.86.23zm4.218-4.62h.96v2.25h3.02V71.7h.96V77h-.96v-2.22h-3.02V77h-.96v-5.3zm12.197 4.46v2.07h-.9V77h-4.43v1.23h-.91v-2.07h.28c.34-.02.573-.26.7-.72.127-.46.213-1.11.26-1.95l.08-1.79h4.11v4.46h.81zm-4.12-2.6c-.027.666-.083 1.22-.17 1.66-.08.433-.23.746-.45.94h2.97v-3.62h-2.3l-.05 1.02zm8.18-1.91c.514 0 .974.113 1.38.34.407.227.724.543.95.95.234.407.35.877.35 1.41 0 .533-.116 1.007-.35 1.42a2.412 2.412 0 0 1-.95.95c-.406.227-.866.34-1.38.34-.38 0-.73-.073-1.05-.22a2.184 2.184 0 0 1-.8-.64v2.74h-.96V71.7h.92v.84c.214-.294.484-.514.81-.66a2.51 2.51 0 0 1 1.08-.23zm-.08 4.57c.34 0 .644-.077.91-.23.274-.16.487-.38.64-.66.16-.287.24-.614.24-.98 0-.367-.08-.69-.24-.97a1.608 1.608 0 0 0-.64-.66 1.793 1.793 0 0 0-.91-.23c-.333 0-.636.08-.91.24-.266.153-.48.37-.64.65-.153.28-.23.603-.23.97s.077.693.23.98c.154.28.367.5.64.66.274.153.577.23.91.23zM82.983 70v7h-.99v-2.77c-.74.286-1.422.43-2.05.43-.852 0-1.516-.207-1.99-.62-.466-.414-.7-1.004-.7-1.77V70h.98v2.16c0 .52.158.92.47 1.2.32.28.77.42 1.35.42.648 0 1.294-.147 1.94-.44V70h.99zm6.814 4.38c0 .073-.007.17-.02.29h-4.3c.06.466.264.843.61 1.13.353.28.79.42 1.31.42.633 0 1.144-.213 1.53-.64l.53.62c-.24.28-.54.493-.9.64-.353.147-.75.22-1.19.22-.56 0-1.056-.114-1.49-.34a2.527 2.527 0 0 1-1.01-.97 2.797 2.797 0 0 1-.35-1.4c0-.513.113-.977.34-1.39.234-.413.55-.733.95-.96.407-.234.864-.35 1.37-.35.507 0 .957.116 1.35.35.4.227.71.546.93.96.227.413.34.887.34 1.42zm-2.62-1.92c-.46 0-.847.14-1.16.42-.306.28-.487.647-.54 1.1h3.4a1.675 1.675 0 0 0-.55-1.09c-.306-.287-.69-.43-1.15-.43zm6.92-.81c.513 0 .973.113 1.38.34.406.227.723.543.95.95.233.407.35.877.35 1.41 0 .533-.117 1.007-.35 1.42a2.412 2.412 0 0 1-.95.95c-.407.227-.867.34-1.38.34-.38 0-.73-.073-1.05-.22a2.184 2.184 0 0 1-.8-.64v2.74h-.96V71.7h.92v.84c.213-.294.483-.514.81-.66a2.51 2.51 0 0 1 1.08-.23zm-.08 4.57c.34 0 .643-.077.91-.23.273-.16.486-.38.64-.66.16-.287.24-.614.24-.98 0-.367-.08-.69-.24-.97a1.608 1.608 0 0 0-.64-.66 1.793 1.793 0 0 0-.91-.23c-.334 0-.637.08-.91.24-.267.153-.48.37-.64.65-.154.28-.23.603-.23.97s.076.693.23.98c.153.28.366.5.64.66.273.153.576.23.91.23zm4.154-4.52h.96v2.25h3.02V71.7h.96V77h-.96v-2.22h-3.02V77h-.96v-5.3zm9.077 5.36c-.527 0-1-.117-1.42-.35a2.585 2.585 0 0 1-.99-.96 2.801 2.801 0 0 1-.35-1.4c0-.52.117-.983.35-1.39.24-.413.57-.733.99-.96.42-.234.893-.35 1.42-.35.527 0 .997.116 1.41.35.42.227.747.546.98.96.24.407.36.87.36 1.39 0 .52-.12.987-.36 1.4a2.51 2.51 0 0 1-.98.96c-.413.233-.883.35-1.41.35zm0-.84c.34 0 .643-.077.91-.23.273-.16.487-.38.64-.66a2.05 2.05 0 0 0 .23-.98c0-.367-.077-.69-.23-.97a1.607 1.607 0 0 0-.64-.66 1.794 1.794 0 0 0-.91-.23c-.34 0-.647.077-.92.23-.267.153-.48.373-.64.66a1.99 1.99 0 0 0-.23.97c0 .367.077.693.23.98.16.28.373.5.64.66.273.153.58.23.92.23zm7.746-1.97c.687.173 1.03.603 1.03 1.29 0 .466-.177.826-.53 1.08-.347.253-.867.38-1.56.38h-2.55v-5.3h2.46c.627 0 1.117.12 1.47.36.353.233.53.566.53 1 0 .28-.077.523-.23.73-.147.2-.353.353-.62.46zm-2.67-.27h1.44c.367 0 .643-.067.83-.2a.662.662 0 0 0 .29-.58c0-.507-.373-.76-1.12-.76h-1.44v1.54zm1.54 2.28c.4 0 .7-.064.9-.19.2-.127.3-.323.3-.59 0-.273-.093-.477-.28-.61-.18-.133-.467-.2-.86-.2h-1.6v1.59h1.54zM142.2 85.5h-126V89h126v-3.5zM92.2 97h-76v-3.5h76V97z" fill="#fff"/><path d="M390.6 112.3H251.3c-6.4 0-11.6 5.2-11.6 11.6v47.2c0 6.4 5.2 11.6 11.6 11.6h139.3c6.4 0 11.6-5.2 11.6-11.6v-47.2c0-6.3-5.2-11.6-11.6-11.6z" fill="#D4EEFF"/><path d="M229 112.3h28.5L245 128.4l-16-16.1z" fill="#D4EEFF"/><path d="M325.4 178.6c5.744 0 10.4-4.656 10.4-10.4 0-5.744-4.656-10.4-10.4-10.4-5.744 0-10.4 4.656-10.4 10.4 0 5.744 4.656 10.4 10.4 10.4z" fill="#F2CF00"/><path d="M322.5 165.7c0 1.1-.9-.7-1.9-.7-1 0-1.9 1.7-1.9.7s.9-1.9 1.9-1.9c1 0 1.9.9 1.9 1.9zM332.2 165.7c0 1.1-.9-.7-1.9-.7-1.1 0-1.9 1.7-1.9.7s.9-1.9 1.9-1.9c1.1 0 1.9.9 1.9 1.9zM325.4 172.4c-2.2 0-4.5-.9-6.2-2.6-.1-.1-.1-.3 0-.4.1-.1.3-.1.4 0 3.2 3.2 8.4 3.2 11.5 0 .1-.1.3-.1.4 0 .1.1.1.3 0 .4-1.6 1.7-3.8 2.6-6.1 2.6z" fill="#512918"/><path d="M380.2 141.5h-126v3.5h126v-3.5zM380.2 152h-126v3.5h126V152zM304.2 163h-50v3.5h50V163zM255.09 126h5.28v.85h-4.29v2h2.18c.833 0 1.467.173 1.9.52.433.347.65.847.65 1.5 0 .687-.237 1.213-.71 1.58-.467.367-1.137.55-2.01.55h-3v-7zm2.96 6.21c.573 0 1.01-.11 1.31-.33.3-.22.45-.543.45-.97 0-.847-.587-1.27-1.76-1.27h-1.97v2.57h1.97zm8.788-4.51l-2.57 5.83c-.227.54-.494.92-.8 1.14-.3.22-.664.33-1.09.33-.26 0-.514-.043-.76-.13-.24-.08-.44-.2-.6-.36l.41-.72c.273.26.59.39.95.39a.88.88 0 0 0 .58-.19c.16-.12.303-.33.43-.63l.17-.37-2.34-5.29h1l1.85 4.24 1.83-4.24h.94zm3.99 5.3l-1.53-2.03-1.55 2.03h-1.07l2.09-2.71-1.99-2.59h1.07l1.46 1.91 1.45-1.91h1.05l-2 2.59 2.11 2.71h-1.09zm6-4.46h-2.94V133h-.96v-5.3h3.9v.84zm2.873-.89c.733 0 1.293.18 1.68.54.393.36.59.897.59 1.61v3.2h-.91v-.7a1.54 1.54 0 0 1-.69.57c-.293.127-.643.19-1.05.19-.593 0-1.07-.143-1.43-.43a1.385 1.385 0 0 1-.53-1.13c0-.467.17-.84.51-1.12.34-.287.88-.43 1.62-.43h1.52v-.19c0-.413-.12-.73-.36-.95-.24-.22-.593-.33-1.06-.33-.313 0-.62.053-.92.16-.3.1-.553.237-.76.41l-.4-.72c.273-.22.6-.387.98-.5.38-.12.783-.18 1.21-.18zm-.22 4.67c.367 0 .683-.08.95-.24.267-.167.46-.4.58-.7v-.74h-1.48c-.813 0-1.22.273-1.22.82a.74.74 0 0 0 .31.63c.207.153.493.23.86.23zm8.769-4.62v5.3h-.96v-4.46h-2.28l-.06 1.18c-.034.713-.097 1.31-.19 1.79-.094.473-.247.853-.46 1.14-.214.287-.51.43-.89.43-.174 0-.37-.03-.59-.09l.06-.81c.086.02.166.03.24.03a.65.65 0 0 0 .6-.35c.133-.233.22-.51.26-.83.04-.32.076-.777.11-1.37l.09-1.96h4.07zm5.806.84h-1.94V133h-.96v-4.46h-1.94v-.84h4.84v.84zm5.537 1.84c0 .073-.007.17-.02.29h-4.3c.06.467.263.843.61 1.13.353.28.79.42 1.31.42.633 0 1.143-.213 1.53-.64l.53.62c-.24.28-.54.493-.9.64a3.07 3.07 0 0 1-1.19.22c-.56 0-1.057-.113-1.49-.34a2.53 2.53 0 0 1-1.01-.97 2.8 2.8 0 0 1-.35-1.4c0-.513.113-.977.34-1.39.233-.413.55-.733.95-.96.407-.233.863-.35 1.37-.35.507 0 .957.117 1.35.35.4.227.71.547.93.96.227.413.34.887.34 1.42zm-2.62-1.92c-.46 0-.847.14-1.16.42-.307.28-.487.647-.54 1.1h3.4a1.674 1.674 0 0 0-.55-1.09c-.307-.287-.69-.43-1.15-.43zm6.919-.81c.514 0 .974.113 1.38.34.407.227.724.543.95.95.234.407.35.877.35 1.41 0 .533-.116 1.007-.35 1.42a2.405 2.405 0 0 1-.95.95c-.406.227-.866.34-1.38.34-.38 0-.73-.073-1.05-.22a2.19 2.19 0 0 1-.8-.64v2.74h-.96v-7.24h.92v.84c.214-.293.484-.513.81-.66.327-.153.687-.23 1.08-.23zm-.08 4.57c.34 0 .644-.077.91-.23.274-.16.487-.38.64-.66.16-.287.24-.613.24-.98s-.08-.69-.24-.97a1.598 1.598 0 0 0-.64-.66 1.794 1.794 0 0 0-.91-.23c-.333 0-.636.08-.91.24-.266.153-.48.37-.64.65a1.99 1.99 0 0 0-.23.97c0 .367.077.693.23.98.154.28.367.5.64.66.274.153.577.23.91.23z" fill="#5E9EEB"/><path d="M208.5 159.3c11.653 0 21.1-9.446 21.1-21.1 0-11.653-9.447-21.1-21.1-21.1-11.653 0-21.1 9.447-21.1 21.1 0 11.654 9.447 21.1 21.1 21.1z" fill="#D4EEFF"/><mask id="c" maskUnits="userSpaceOnUse" x="187" y="117" width="43" height="43"><path d="M208.1 159.2c11.653 0 21.1-9.447 21.1-21.1 0-11.653-9.447-21.1-21.1-21.1-11.653 0-21.1 9.447-21.1 21.1 0 11.653 9.447 21.1 21.1 21.1z" fill="#D4EEFF"/></mask><g mask="url(#c)"><path d="M218.591 132.27c1.16 4.635-1.546 12.071-4.639 18.348-2.609 5.214 5.702 13.905-1.063 23.561-6.764 9.657-6.185 14.775-12.176 14.775-5.025 0-5.605-2.028-7.635-8.401-2.222-6.47-2.126-19.7-.58-23.948 1.547-4.249 5.605-10.623 5.219-16.513-.483-5.794 2.513-11.395 2.513-11.395s4.252-7.821 11.403-5.118c6.088 2.221 6.282 5.987 6.958 8.691z" fill="#5D3F1C"/><path d="M199.359 149.555s-5.122 1.449-7.827 14.292c-1.063 5.021-1.547 7.049-1.547 14.388h5.219s2.126-14.485 2.126-17.189c.193-8.014 2.029-11.491 2.029-11.491z" fill="#FCA70C"/><path d="M220.234 150.714c-2.32-1.062-7.925-3.669-7.925-3.669h-6.861s-4.059 2.221-6.379 3.283c0 0-2.899 11.588-1.159 18.83 1.643 7.049 2.223 16.609 2.223 16.609h17.298s-.387-9.656 1.836-16.416c3.093-9.174.967-18.637.967-18.637z" fill="#E6E7E8"/><path d="M212.31 147.045l-3.383 3.186-3.479-3.186v-5.698h6.862v5.698z" fill="#F7A898"/><path d="M216.079 137.388c-.58 2.511-4.156 7.339-7.345 7.339-2.706 0-7.151-3.959-7.345-6.663 0 0-.676-4.732-.773-6.277-.29-4.635 4.059-8.497 8.118-8.497s8.601 3.766 8.311 8.497c-.097 1.642-.58 4.056-.966 5.601z" fill="#F8B4A7"/><path d="M213.179 146.562s2.609-5.118 2.609-6.856v-5.698c0-2.414-1.933-4.442-1.933-4.442-.289 0-.676 2.994-5.315 4.249-2.802.773-6.185-.772-6.185 4.828 0 2.608.387 5.601 1.74 7.629 0 0-5.509-3.09-5.509-12.167.097-2.318 2.61-11.105 9.568-11.105 5.025 0 10.533 3.38 10.533 11.202 0 4.441-1.642 11.104-5.508 12.36z" fill="#5E3F1C"/><path d="M212.309 147.045l7.537 3.186s.774.58 1.063 2.028c.194 1.062 1.547 14.195-2.512 28.1-1.16 4.056 2.899 7.436 3.479 12.264 0 0-.967 1.062-3.382 1.738-1.064.29-4.156-.096-4.156-.096l-2.029-47.22zM205.447 147.045l-6.378 2.607s-.773.579-1.063 2.028c-.193 1.062-2.029 12.939.773 27.714.87 4.731-2.513 9.656-2.802 13.229 0 0 1.063 1.062 3.479 1.255.966.097 4.058-.386 4.058-.386l1.933-46.447z" fill="#FCA70C"/><path d="M212.212 147.045l3.479 4.249-1.643 1.641 3.479 6.663-3.962 19.699-1.353-32.252zM205.64 147.141l-3.769 4.056 1.836 1.835-2.609 6.663 3.093 19.699 1.449-32.253z" fill="#F98011"/><path d="M208.927 150.231s3.575-1.738 5.605-1.159c0 0-.193-2.221-2.32-2.607v.483l-3.285 3.283zM208.926 150.231s-3.575-1.738-5.605-1.159c0 0 0-2.221 2.126-2.607v.483l3.479 3.283zM208.928 150.231c.096 2.994.193 5.891.193 8.884l.097 8.884-.097 8.884c0 2.994-.097 5.891-.193 8.884-.097-2.993-.194-5.89-.194-8.884l-.096-8.884.096-8.884c0-2.993.097-5.89.194-8.884z" fill="#C8CACB"/><path d="M215.42 156.74l-14.933 9.287 15.83 25.415 14.933-9.287-15.83-25.415z" fill="#C0373F"/><path d="M231.251 169.544a3.161 3.161 0 0 1-1.74 4.153 3.164 3.164 0 0 1-4.155-1.739l-4.156-8.497c-.29-.483-1.933-13.616-1.45-13.23 5.799 4.635 11.501 19.313 11.501 19.313z" fill="#FCA70C"/></g><path d="M390.6 231.3H251.3c-6.4 0-11.6 5.2-11.6 11.6v33.2c0 6.4 5.2 11.6 11.6 11.6h139.3c6.4 0 11.6-5.2 11.6-11.6v-33.2c0-6.3-5.2-11.6-11.6-11.6z" fill="#D4EEFF"/><path d="M229 231.3h28.5L245 247.4l-16-16.1z" fill="#D4EEFF"/><path d="M380.2 261.5h-126v3.5h126v-3.5zM300.2 272h-46v3.5h46V272z" fill="#5E9EEB"/><path d="M208.5 278.3c11.653 0 21.1-9.446 21.1-21.1 0-11.653-9.447-21.1-21.1-21.1-11.653 0-21.1 9.447-21.1 21.1 0 11.654 9.447 21.1 21.1 21.1z" fill="#D4EEFF"/><mask id="d" maskUnits="userSpaceOnUse" x="187" y="235" width="43" height="43"><path d="M208.1 277.2c11.653 0 21.1-9.447 21.1-21.1 0-11.653-9.447-21.1-21.1-21.1-11.653 0-21.1 9.447-21.1 21.1 0 11.653 9.447 21.1 21.1 21.1z" fill="#D4EEFF"/></mask><g mask="url(#d)"><path d="M187.925 302.605c1.202-6.307 2.804-11.212 5.007-14.916l.401-16.217c-4.607 3.404-9.714 14.515-13.92 26.728l-.301.701v.801c0 .5-.901 14.115 2.404 25.627h8.111c-2.503-8.709-2.503-20.422-1.702-22.724z" fill="#FCA70C"/><path d="M223.876 326.43v-53.656c0-1.702-1.502-2.703-3.004-3.404-2.604-1.001-8.412-3.403-8.412-3.403h-7.811s-6.209 2.102-8.412 3.403c-1.502.801-3.005 1.702-3.005 3.404v53.556h30.644v.1z" fill="#DAD8D5"/><path d="M223.876 326.43v-53.656c0-1.702-1.502-2.703-3.004-3.404-2.604-1.001-8.412-3.403-8.412-3.403l-3.906 21.422-3.905-21.422s-6.209 2.102-8.412 3.403c-1.502.801-3.205 2.002-3.205 2.803l.201 54.257h30.643z" fill="#007FFF"/><path d="M212.46 266.067l-4.006 4.204-3.805-4.204v-3.804h7.811v3.804z" fill="#F8A899"/><path d="M217.167 257.758c0 1.702-4.307 6.707-8.613 6.707-4.206 0-8.612-4.705-8.612-6.707v-6.407c0-4.805 3.905-8.609 8.612-8.609 4.807 0 8.613 3.904 8.613 8.609v6.407z" fill="#F8A899"/><path d="M218.617 255.024c.318-.943.023-1.893-.659-2.122-.681-.23-1.491.349-1.808 1.292-.318.944-.023 1.894.659 2.123.681.229 1.491-.349 1.808-1.293zM200.209 256.254c.682-.229.977-1.179.66-2.122-.318-.943-1.127-1.522-1.809-1.293-.681.229-.977 1.179-.659 2.122.317.944 1.127 1.523 1.808 1.293z" fill="#F8A899"/><path d="M208.455 270.271l4.005-4.104 2.003.801s2.504 2.602 2.704 5.505l-2.904-1.701-5.808-.501zM208.454 270.271l-3.805-4.104-2.203.7s-2.404 2.703-2.704 5.606l2.904-1.701 5.808-.501z" fill="#ECE5E5"/><path d="M199.842 254.555s.901-3.304 3.004-4.805l1.202-1.802s1.302-.401 4.406.901c3.105 1.201 3.906 3.103 6.91 2.402 0 0 1.302 2.603 1.502 3.604 0 0 .701-2.202.902-4.305.2-2.102.601-7.407-5.909-9.109-6.81-1.802-9.614 2.502-9.614 2.502s-.6-.7-2.303 2.003c-1.202 1.902-1.302 5.105 0 8.909" fill="#310072"/><path d="M217.167 255.155c0-1.301-1.402-3.003-1.402-3.003s.601 3.904-.901 5.806c-1.302 1.702-5.308 4.205-6.51 4.205-1.201 0-5.207-2.603-6.509-4.205-1.402-2.002-.801-6.306-.801-6.306s-1.402 2.202-1.402 3.503c0 0-.501 2.703.601 4.405 1.201 1.802 5.207 4.505 5.207 4.505s1.703 1.001 2.904 1.001c1.202-.101 2.905-1.001 2.905-1.001s4.105-2.503 5.307-4.305c1.202-1.702.601-4.605.601-4.605z" fill="#310072"/><path d="M213.462 260.461l-.902-1.302c-.3-.2-1.802-1.201-3.805-1.201-2.704 0-4.306.601-4.707 1.001-.501.501-1.001 1.402-1.001 1.402l-1.603-.801s.601-1.101 1.302-1.902c.901-.901 3.305-1.502 6.009-1.502 3.004 0 5.007 1.602 5.107 1.702l.1.1 1.002 1.602-1.502.901z" fill="#310072"/><path d="M212.06 314.918c15.022-1.101 27.94-13.414 27.94-13.414 0-17.218-13.719-28.83-17.525-31.133 0 0 1.402 1.502 1.402 2.503v14.815c3.105 3.304 4.206 6.007 5.708 10.812-5.207 4.204-9.814 7.507-19.828 9.209l2.303 7.208z" fill="#FCA70C"/></g><path d="M257.53 248.92h-1.46V252h-.98v-7h.98v3.04h1.48l2.2-3.04h1.07l-2.5 3.39 2.62 3.61h-1.14l-2.27-3.08zm6.233-2.27c.734 0 1.294.18 1.68.54.394.36.59.897.59 1.61v3.2h-.91v-.7a1.54 1.54 0 0 1-.69.57c-.293.127-.643.19-1.05.19-.593 0-1.07-.143-1.43-.43a1.385 1.385 0 0 1-.53-1.13c0-.467.17-.84.51-1.12.34-.287.88-.43 1.62-.43h1.52v-.19c0-.413-.12-.73-.36-.95-.24-.22-.593-.33-1.06-.33-.313 0-.62.053-.92.16-.3.1-.553.237-.76.41l-.4-.72c.274-.22.6-.387.98-.5.38-.12.784-.18 1.21-.18zm-.22 4.67c.367 0 .684-.08.95-.24.267-.167.46-.4.58-.7v-.74h-1.48c-.813 0-1.22.273-1.22.82 0 .267.104.477.31.63.207.153.494.23.86.23zm9.609-.16v2.07h-.9V252h-4.43v1.23h-.91v-2.07h.28c.34-.02.573-.26.7-.72.127-.46.213-1.11.26-1.95l.08-1.79h4.11v4.46h.81zm-4.12-2.6c-.027.667-.083 1.22-.17 1.66-.08.433-.23.747-.45.94h2.97v-3.62h-2.3l-.05 1.02zm8.181-1.91c.513 0 .973.113 1.38.34.406.227.723.543.95.95.233.407.35.877.35 1.41 0 .533-.117 1.007-.35 1.42a2.418 2.418 0 0 1-.95.95c-.407.227-.867.34-1.38.34-.38 0-.73-.073-1.05-.22a2.182 2.182 0 0 1-.8-.64v2.74h-.96v-7.24h.92v.84a2 2 0 0 1 .81-.66 2.51 2.51 0 0 1 1.08-.23zm-.08 4.57c.34 0 .643-.077.91-.23a1.7 1.7 0 0 0 .64-.66c.16-.287.24-.613.24-.98s-.08-.69-.24-.97a1.61 1.61 0 0 0-.64-.66 1.797 1.797 0 0 0-.91-.23c-.334 0-.637.08-.91.24-.267.153-.48.37-.64.65-.154.28-.23.603-.23.97s.076.693.23.98c.153.28.366.5.64.66.273.153.576.23.91.23zm6.424.84c-.526 0-1-.117-1.42-.35a2.58 2.58 0 0 1-.99-.96 2.8 2.8 0 0 1-.35-1.4c0-.52.117-.983.35-1.39.24-.413.57-.733.99-.96a2.88 2.88 0 0 1 1.42-.35c.527 0 .997.117 1.41.35.42.227.747.547.98.96.24.407.36.87.36 1.39 0 .52-.12.987-.36 1.4-.233.407-.56.727-.98.96a2.82 2.82 0 0 1-1.41.35zm0-.84c.34 0 .644-.077.91-.23.274-.16.487-.38.64-.66.154-.287.23-.613.23-.98s-.076-.69-.23-.97a1.598 1.598 0 0 0-.64-.66 1.794 1.794 0 0 0-.91-.23c-.34 0-.646.077-.92.23-.266.153-.48.373-.64.66a1.99 1.99 0 0 0-.23.97c0 .367.077.693.23.98.16.28.374.5.64.66.274.153.58.23.92.23zm7.747-1.97c.686.173 1.03.603 1.03 1.29 0 .467-.177.827-.53 1.08-.347.253-.867.38-1.56.38h-2.55v-5.3h2.46c.626 0 1.116.12 1.47.36.353.233.53.567.53 1 0 .28-.077.523-.23.73a1.39 1.39 0 0 1-.62.46zm-2.67-.27h1.44c.366 0 .643-.067.83-.2a.662.662 0 0 0 .29-.58c0-.507-.374-.76-1.12-.76h-1.44v1.54zm1.54 2.28c.4 0 .7-.063.9-.19.2-.127.3-.323.3-.59 0-.273-.094-.477-.28-.61-.18-.133-.467-.2-.86-.2h-1.6v1.59h1.54zm3.662-4.56h.96v3.86l3.25-3.86h.87v5.3h-.96v-3.86l-3.24 3.86h-.88v-5.3zm9.004 3.06h-1.1V252h-.96v-5.3h.96v2.24h1.12l1.72-2.24h1.03l-2.01 2.55 2.15 2.75h-1.13l-1.78-2.24z" fill="#5E9EEB"/></svg>