<svg width="518" height="470" viewBox="0 0 518 470" fill="none" xmlns="http://www.w3.org/2000/svg"><path d="M489.331 198.818c-6.921 62.514-35.408 129.699-107.511 175.296-2.415 1.611-4.99 3.061-7.404 4.511-3.38 2.094-6.76 4.028-10.139 5.961-16.417 9.023-32.672 16.595-49.089 22.395-3.38 1.128-6.598 2.256-9.978 3.384-3.219 1.128-6.438 2.094-9.818 3.061a297.272 297.272 0 0 1-41.041 8.862c-79.185 11.278-150.805-11.762-197.48-51.88-8.53-7.412-16.416-15.467-23.175-23.846-6.116-7.572-11.267-15.467-15.612-23.523-40.558-74.919-9.174-164.822 57.135-187.54 72.747-24.812 106.707-3.705 191.525-73.791 84.657-70.086 170.119-78.303 204.561.16 5.794 13.051 11.105 30.613 14.807 50.914 4.667 25.456 6.599 55.102 3.219 86.036z" fill="#EEF2FA"/><path d="M489.331 198.818c-6.921 62.514-35.408 129.699-107.512 175.296-2.414 1.611-4.989 3.061-7.403 4.511-3.38 2.094-6.76 4.028-10.14 5.961-16.416 9.023-32.671 16.595-49.088 22.395-3.38 1.128-6.599 2.256-9.978 3.384-3.219 1.128-6.438 2.094-9.818 3.061a297.272 297.272 0 0 1-41.041 8.862c-79.185 11.278-150.805-11.762-197.48-51.88-8.53-7.412-16.416-15.467-23.176-23.845-6.116-7.573-11.266-15.468-15.611-23.524h55.204c3.863 0 6.92-3.061 6.92-6.928v-76.369c0-3.867 3.058-6.928 6.921-6.928h76.288c3.863 0 6.921 3.061 6.921 6.928v37.54c0 3.867 3.058 6.928 6.92 6.928h98.499c3.862 0 6.92-3.061 6.92-6.928v-80.075c0-3.867 3.058-6.928 6.921-6.928h91.095c3.863 0 6.92-3.061 6.92-6.928V119.71c0-3.867 3.058-6.928 6.921-6.928h91.739c4.506 25.456 6.438 55.102 3.058 86.036z" fill="url(#a)"/><path d="M482.732 198.818c3.541 0 6.277 3.061 5.794 6.606-8.047 60.58-37.178 124.705-106.707 168.69-2.414 1.611-4.989 3.061-7.403 4.511-3.38 2.094-6.76 4.028-10.139 5.961-16.417 9.023-32.672 16.595-49.089 22.395-3.38 1.128-6.598 2.256-9.978 3.384-3.219 1.128-6.438 2.094-9.818 3.061a297.272 297.272 0 0 1-41.041 8.862c-77.897 11.117-148.713-11.118-195.387-50.108-1.288-1.128-2.092-2.739-2.092-4.511v-24.007c0-3.222 2.575-5.8 5.794-5.8h85.783a5.773 5.773 0 0 1 5.794 5.8v27.551a5.773 5.773 0 0 0 5.794 5.801h20.118a5.773 5.773 0 0 0 5.794-5.801V269.387c0-3.222 2.576-5.8 5.794-5.8h93.188a5.773 5.773 0 0 1 5.794 5.8v56.23a5.773 5.773 0 0 0 5.794 5.801h77.414a5.773 5.773 0 0 0 5.794-5.801v-44.629c0-3.222 2.575-5.8 5.794-5.8h54.078a5.773 5.773 0 0 0 5.794-5.801v-64.769c0-3.222 2.575-5.8 5.794-5.8h31.545z" fill="url(#b)"/><path d="M374.416 378.787c-3.38 2.094-6.76 4.028-10.139 5.961-16.417 9.023-32.672 16.595-49.089 22.395-.483-3.867-1.126-7.411-1.931-9.989-.805-2.578-1.77-4.189-3.058-4.189-2.575 0-4.185 8.056-4.989 17.562-3.219 1.128-6.438 2.094-9.818 3.061a297.12 297.12 0 0 1-41.041 8.861c.644-27.873 2.736-73.63 9.335-89.42.966-2.255 1.931-3.866 3.058-4.672 5.633-4.672 25.429-5.961 45.869-5.961 4.989 0 9.979.161 14.807.161 19.957.483 37.017 1.933 37.661 1.933.161-.161 6.116 12.245 9.335 54.297z" fill="url(#c)"/><path opacity=".15" d="M313.257 397.153c-.805-2.578-1.77-4.189-3.058-4.189-2.575 0-4.185 8.056-4.989 17.562-3.219 1.128-6.438 2.094-9.818 3.061 6.277-20.945 6.438-42.857 10.622-41.729 7.404 1.933 7.243 25.295 7.243 25.295zM364.116 384.586c.965-21.267-4.829-39.957-22.05-39.473-32.994.966-57.779-4.995-59.228-5.317l3.541-1.45 17.704-6.928 23.498-9.184c19.957.483 37.017 1.933 37.661 1.933 0 0 6.116 12.406 9.174 54.297-3.541 2.255-6.921 4.35-10.3 6.122z" fill="#35396F"/><path d="M235.521 235.07s-2.736 17.884-3.702 29.484c-1.127 11.601 2.092 20.14 13.841 21.268 11.588 1.127 19.153-10.634 22.211-20.14l-5.473-29.807-26.877-.805z" fill="url(#d)"/><path d="M316.637 340.924c-18.348.805-31.223-.162-39.914-2.256-15.129-3.545-18.187-10.473-16.256-17.884 3.219-11.6 8.53-36.09 2.092-65.736l-19.796-41.407s6.116-23.201 25.108-31.901c3.379-1.611 6.437-2.9 9.173-4.189 13.681-6.284 17.383-8.539 17.383-8.539h20.118s3.058.644 7.725 1.772c10.3 2.739 28.165 8.378 36.374 17.723 0 0-.483 14.5-.483 33.512-.161 30.935.483 73.792 5.15 85.07 7.403 18.045 3.058 31.74-46.674 33.835z" fill="#FCA70C"/><path opacity=".25" d="M316.637 340.923c-18.348.806-31.224-.161-39.915-2.255 20.601 2.094 44.421-12.89 37.822-34.963-9.495-31.901-47.639-49.785-47.639-49.785s1.126-32.868 43.455-19.173c42.328 13.856 28.648-26.745 28.648-26.745l19.314 13.695c-.161 30.934.482 73.791 5.15 85.07 7.242 18.367 2.897 32.062-46.835 34.156z" fill="#D36A41"/><path d="M322.27 170.945c-8.53 20.14-20.923 31.096-35.247 29.001-11.91-1.772-10.783-16.595-9.978-22.234 13.68-6.284 17.382-8.539 17.382-8.539h20.118s3.058.483 7.725 1.772z" fill="url(#e)"/><path d="M297.645 259.237h-48.122c-2.254 0-4.185-1.611-4.829-3.866l-8.369-35.768c-.644-3.062 1.61-5.962 4.829-5.962h47.317c2.254 0 4.185 1.45 4.668 3.706l9.174 35.768c.804 3.222-1.449 6.122-4.668 6.122z" fill="#ACB8C1"/><path d="M294.426 259.237h-44.903c-2.254 0-4.185-1.611-4.829-3.866l-8.369-35.768c-.644-3.062 1.61-5.962 4.829-5.962h44.098c2.254 0 4.185 1.45 4.668 3.706l9.174 35.768c.804 3.222-1.449 6.122-4.668 6.122z" fill="#F2F6F9"/><path d="M268.296 243.094c2.228-.617 3.341-3.62 2.487-6.708-.853-3.087-3.351-5.09-5.579-4.472-2.227.617-3.341 3.62-2.487 6.708.854 3.087 3.352 5.09 5.579 4.472z" fill="#A4D0FA"/><path d="M314.544 238.131l-5.311-3.223s-10.622-16.917-12.714-15.95c-2.093 1.127 1.126 11.6 0 12.728-1.127 1.128-19.153-1.128-22.211-2.095-3.219-1.127-9.496-2.094-2.092 6.445 7.403 8.539 10.622 15.951 19.152 15.951 8.53 0 12.715-1.128 12.715-1.128l6.438 3.222 4.023-15.95z" fill="url(#f)"/><path d="M342.066 220.086s11.588 29.645 5.311 29.645c-6.438 0-32.833-13.856-32.833-13.856l-8.53 18.045s44.582 33.996 58.262 29.646c13.842-4.189 16.9-18.045 10.623-53.008-6.438-34.962-14.807-45.596-24.303-44.629-9.657 1.289-17.06 10.795-8.53 34.157z" fill="url(#g)"/><path d="M327.742 242.481s-6.76 27.39-9.979 28.518c-3.219 1.128-11.588-16.917-11.588-16.917l8.53-18.046c-.161-.161 5.955.162 13.037 6.445z" fill="#DAE8F2"/><path d="M242.441 248.603c1.127 0 6.438-5.317 4.185-12.728-2.093-7.411-2.093-8.539-5.311-9.506-3.219-1.128-5.312-3.222-6.438-1.128-.966 2.256 1.126 20.301 7.564 23.362z" fill="url(#h)"/><path d="M309.233 160.633s4.185-17.078 5.151-33.028c1.126-15.951-2.093-24.329-8.53-21.268 0 0 4.184-14.823-14.807-16.917-19.153-2.095-51.986 2.094-38.144 24.328 0 0-6.438 2.095-3.219 12.729 3.219 10.633 13.841 16.917 13.841 16.917l45.708 17.239z" fill="#3B2E7A"/><path d="M303.922 143.716s2.093 13.856 10.623 26.585c0 0-11.588 22.878-25.43 20.139-10.622-2.094 1.127-12.728-6.438-22.234l21.245-24.49z" fill="url(#i)"/><path d="M255.639 121.966s8.53 49.785 25.429 49.785 23.337-20.14 23.337-27.551c0 0 6.921-1.611 5.794-11.117-1.127-9.506-7.403-7.412-8.53 0 0 0-5.311-1.128-5.311-10.634v-9.506s-5.311 1.128-18.026 9.506c-12.554 8.539-19.957 3.222-22.693-.483z" fill="url(#j)"/><path d="M500.919 263.088h-77.254c-5.673 0-10.122-4.605-10.122-10.134V146.939c0-5.681 4.6-10.134 10.122-10.134h77.254c5.673 0 10.122 4.604 10.122 10.134v105.854c0 5.695-4.454 10.295-10.122 10.295z" fill="#EEF2FA" stroke="#555BE4"/><path d="M498.826 158.539c0 1.45-.643 2.739-1.609 3.706-.966.966-2.253 1.611-3.702 1.611h-62.607c-2.897 0-5.312-2.417-5.312-5.317 0-1.45.644-2.739 1.61-3.706.966-.966 2.253-1.611 3.702-1.611h62.607c3.058 0 5.311 2.417 5.311 5.317z" fill="#C1CAFF"/><path d="M486.112 158.539c0 1.45-.643 2.739-1.609 3.706-.966.966-2.253 1.611-3.702 1.611h-49.732c-2.897 0-5.311-2.417-5.311-5.317 0-1.45.644-2.739 1.61-3.706.965-.966 2.253-1.611 3.701-1.611h49.732c3.058 0 5.311 2.417 5.311 5.317z" fill="#9393FE"/><path d="M498.826 181.901c0 1.45-.643 2.739-1.609 3.705-.966.967-2.253 1.612-3.702 1.612h-62.607c-2.897 0-5.312-2.417-5.312-5.317 0-1.45.644-2.739 1.61-3.706.966-.967 2.253-1.611 3.702-1.611h62.607c3.058 0 5.311 2.417 5.311 5.317z" fill="#C1CAFF"/><path d="M461.809 181.901c0 1.45-.644 2.739-1.609 3.705-.966.967-2.254 1.612-3.702 1.612h-25.43c-2.897 0-5.311-2.417-5.311-5.317 0-1.45.644-2.739 1.61-3.706.965-.967 2.253-1.611 3.701-1.611h25.43c2.897 0 5.311 2.417 5.311 5.317z" fill="#9393FE"/><path d="M498.826 204.135c0 1.45-.643 2.739-1.609 3.705-.966.967-2.253 1.612-3.702 1.612h-62.607c-2.897 0-5.312-2.417-5.312-5.317 0-1.45.644-2.739 1.61-3.706.966-.967 2.253-1.611 3.702-1.611h62.607c3.058 0 5.311 2.417 5.311 5.317z" fill="#C1CAFF"/><path d="M473.397 204.135c0 1.45-.644 2.739-1.609 3.705-.966.967-2.254 1.612-3.702 1.612h-37.018c-2.897 0-5.311-2.417-5.311-5.317 0-1.45.644-2.739 1.61-3.706.965-.967 2.253-1.611 3.701-1.611h37.018c3.058 0 5.311 2.417 5.311 5.317z" fill="#9393FE"/><path d="M498.826 227.497c0 1.45-.643 2.739-1.609 3.706-.966.966-2.253 1.611-3.702 1.611h-62.607c-2.897 0-5.312-2.417-5.312-5.317 0-1.45.644-2.739 1.61-3.706.966-.966 2.253-1.611 3.702-1.611h62.607c3.058 0 5.311 2.417 5.311 5.317z" fill="#C1CAFF"/><path d="M461.809 227.497c0 1.45-.644 2.739-1.609 3.706-.966.966-2.254 1.611-3.702 1.611h-25.43c-2.897 0-5.311-2.417-5.311-5.317 0-1.45.644-2.739 1.61-3.706.965-.966 2.253-1.611 3.701-1.611h25.43c2.897 0 5.311 2.417 5.311 5.317z" fill="#9393FE"/><path d="M460.826 78.947l.001.014c.152 5.506-4.437 10.12-10.123 10.12h-98.015c-5.674 0-10.123-4.604-10.123-10.134V10.634c0-5.681 4.6-10.134 10.123-10.134h98.015c5.673 0 10.122 4.604 10.122 10.134v68.313z" fill="#EEF2FA" stroke="#555BE4"/><path d="M371.519 42.374h-16.416v30.934h16.416V42.374zM396.305 29.001h-16.417v44.307h16.417V29.001zM448.451 35.285h-16.417v38.023h16.417V35.284zM422.056 14.017H405.64v59.291h16.416v-59.29z" fill="#C1CAFF"/><path d="M203.653 314.984H42.708c-5.955 0-10.622-4.834-10.622-10.634v-66.702c0-5.962 4.828-10.634 10.622-10.634h160.945c5.955 0 10.623 4.833 10.623 10.634v66.702c0 5.8-4.668 10.634-10.623 10.634z" fill="#fff"/><path d="M66.528 294.683c-2.736 0-4.184-1.128-4.345-1.289l1.931-2.416s5.472 3.866 16.9-9.345c5.793-6.767 10.3-9.828 14.484-9.506 4.829.322 7.887 4.994 10.784 9.667 1.931 3.061 4.023 4.672 5.955 4.511 2.736-.161 7.403-3.544 13.841-18.045 6.277-14.178 9.978-20.945 15.129-21.59 3.862-.483 7.886 2.578 13.841 10.634 6.116 8.217 10.139 11.923 12.876 11.923 2.414 0 4.667-2.739 7.886-7.573 7.886-11.439 15.129-9.183 15.451-9.022l-.966 3.061c-.161 0-5.472-1.45-11.749 7.895-3.38 4.833-6.438 8.861-10.462 8.861-4.184.161-8.53-3.545-15.611-13.05-4.99-6.606-8.369-9.667-10.944-9.345-3.702.483-7.565 8.378-12.554 19.656-5.794 13.051-11.266 19.495-16.578 19.979-3.218.322-6.276-1.773-8.852-5.962-3.057-4.672-5.31-7.894-8.369-8.217-2.897-.161-6.76 2.578-11.749 8.378-7.564 8.701-13.197 10.795-16.899 10.795z" fill="#9393FE"/><path d="M57.515 300.161c-4.023 0-7.403-3.384-7.403-7.411 0-4.028 3.38-7.412 7.403-7.412 4.024 0 7.404 3.384 7.404 7.412 0 4.027-3.38 7.411-7.404 7.411zm0-11.762c-2.414 0-4.184 1.934-4.184 4.189 0 2.417 1.931 4.189 4.184 4.189 2.414 0 4.185-1.933 4.185-4.189 0-2.255-1.931-4.189-4.185-4.189zM196.25 261.976c-4.024 0-7.404-3.383-7.404-7.411s3.38-7.411 7.404-7.411 7.403 3.383 7.403 7.411c.161 4.028-3.219 7.411-7.403 7.411zm0-11.761c-2.414 0-4.185 1.933-4.185 4.189 0 2.417 1.932 4.189 4.185 4.189 2.414 0 4.184-1.934 4.184-4.189.161-2.256-1.77-4.189-4.184-4.189z" fill="#C1CAFF"/><path d="M213.132 147.744v.014c.154 5.677-4.446 10.281-9.961 10.281h-55.044c-5.673 0-10.122-4.604-10.122-10.134V92.803c0-5.68 4.6-10.133 10.122-10.133h54.883c5.673 0 10.122 4.604 10.122 10.133v54.941z" fill="#EEF2FA" stroke="#555BE4"/><path d="M196.894 120.354c0 11.762-9.496 21.268-21.245 21.268s-21.245-9.506-21.245-21.268c0-11.761 9.496-21.267 21.245-21.267 10.3 0 18.992 7.411 20.762 17.239.322 1.289.483 2.578.483 4.028z" fill="#C1CAFF"/><path d="M196.411 116.326l-20.762 3.867V99.087c10.301 0 18.992 7.411 20.762 17.239z" fill="#9393FE"/><path d="M479.352 353.152H412.56c-3.586 0-6.42-2.837-6.42-6.428v-16.918c0-3.591 2.834-6.428 6.42-6.428h66.792c3.586 0 6.421 2.837 6.421 6.428v16.907c-.156 3.614-3.01 6.439-6.421 6.439z" fill="#EEF2FA" stroke="#555BE4"/><path d="M418.354 347.368a4.187 4.187 0 0 0 4.185-4.189 4.188 4.188 0 0 0-4.185-4.189 4.187 4.187 0 0 0-4.184 4.189 4.186 4.186 0 0 0 4.184 4.189zM433.161 347.368a4.187 4.187 0 0 0 4.185-4.189 4.188 4.188 0 0 0-4.185-4.189 4.187 4.187 0 0 0-4.184 4.189 4.186 4.186 0 0 0 4.184 4.189zM447.968 347.368a4.187 4.187 0 0 0 4.185-4.189 4.188 4.188 0 0 0-4.185-4.189 4.187 4.187 0 0 0-4.184 4.189 4.186 4.186 0 0 0 4.184 4.189z" fill="#C1CAFF"/><defs><linearGradient id="a" x1="254.611" y1="213.051" x2="254.611" y2="409.682" gradientUnits="userSpaceOnUse"><stop stop-color="#7057D6"/><stop offset="1" stop-color="#7057D6" stop-opacity="0"/></linearGradient><linearGradient id="b" x1="272.769" y1="273.051" x2="272.769" y2="449.261" gradientUnits="userSpaceOnUse"><stop stop-color="#555BE4"/><stop offset="1" stop-color="#555BE4" stop-opacity="0"/></linearGradient><linearGradient id="c" x1="368.796" y1="367.511" x2="229.93" y2="374.872" gradientUnits="userSpaceOnUse"><stop stop-color="#453087"/><stop offset="1" stop-color="#3B4D94"/></linearGradient><linearGradient id="d" x1="259.895" y1="259.674" x2="233.256" y2="260.806" gradientUnits="userSpaceOnUse"><stop stop-color="#FDB025"/><stop offset="1" stop-color="#FDC867"/></linearGradient><linearGradient id="e" x1="299.428" y1="169.173" x2="299.428" y2="200.2" gradientUnits="userSpaceOnUse"><stop stop-color="#F29819"/></linearGradient><linearGradient id="f" x1="298.256" y1="252.698" x2="288.46" y2="225.895" gradientUnits="userSpaceOnUse"><stop stop-color="#FEAF8B"/><stop offset="1" stop-color="#FDC7A9"/></linearGradient><linearGradient id="g" x1="341.851" y1="281.298" x2="342.419" y2="201.294" gradientUnits="userSpaceOnUse"><stop stop-color="#FCA70C"/><stop offset="1" stop-color="#FDC867"/></linearGradient><linearGradient id="h" x1="234.747" y1="236.555" x2="247.161" y2="236.555" gradientUnits="userSpaceOnUse"><stop stop-color="#FEAF8B"/><stop offset="1" stop-color="#FDC7A9"/></linearGradient><linearGradient id="i" x1="298.488" y1="167.968" x2="301.896" y2="204.565" gradientUnits="userSpaceOnUse"><stop stop-color="#FEAF8B"/><stop offset="1" stop-color="#FDC7A9"/></linearGradient><linearGradient id="j" x1="314.882" y1="162.869" x2="285.102" y2="140.771" gradientUnits="userSpaceOnUse"><stop stop-color="#FEAF8B"/><stop offset="1" stop-color="#FDC7A9"/></linearGradient></defs></svg>