<svg width="408" height="349" viewBox="0 0 408 349" fill="none" xmlns="http://www.w3.org/2000/svg">
<path d="M280.885 16.7353C282.936 24.9325 278.151 38.0822 272.682 49.1827C268.067 58.4046 282.765 73.7744 270.802 90.852C258.838 107.93 259.864 116.981 249.267 116.981C240.38 116.981 239.355 113.394 235.766 102.123C231.835 90.6812 232.006 67.2849 234.74 59.7708C237.475 52.2566 244.653 40.9854 243.969 30.5681C243.115 20.3216 248.413 10.4166 248.413 10.4166C248.413 10.4166 255.933 -3.41628 268.58 1.36544C279.347 5.29328 279.689 11.9535 280.885 16.7353Z" fill="#5E3F1C"/>
<path d="M246.875 47.3042C246.875 47.3042 237.817 49.8658 233.031 72.579C231.151 81.4594 230.297 85.0457 230.297 98.0246H239.526C239.526 98.0246 243.286 72.4082 243.286 67.6265C243.628 53.4521 246.875 47.3042 246.875 47.3042Z" fill="#FCA70C"/>
<path d="M239.013 132.378L230.297 133.574L230.468 97.3691H239.697L239.013 132.378Z" fill="#FCA70C"/>
<path d="M238.329 148.602C238.159 148.431 238.159 148.431 237.988 148.26C236.279 146.894 235.253 145.869 235.082 144.674C234.911 143.82 234.911 143.137 234.74 142.112C234.569 141.088 235.424 138.526 236.108 138.526C236.791 138.526 238.329 140.575 238.671 141.088C238.671 141.088 238.842 141.088 238.842 141.258C237.988 141.6 236.449 142.624 237.988 146.04C238.329 146.552 239.526 147.577 238.329 148.602Z" fill="#E2877C"/>
<path d="M231.493 133.403C231.493 133.403 230.81 137.843 231.493 143.991C231.835 146.382 233.715 149.797 237.133 150.31C237.475 150.31 238.501 150.139 238.671 149.797C238.842 149.456 238.842 148.943 237.988 148.26C236.279 146.894 235.253 145.869 235.082 144.674C234.911 143.82 234.911 143.137 234.741 142.112C234.57 141.088 235.424 138.526 236.108 138.526C236.791 138.526 238.33 140.575 238.671 141.088C240.039 142.454 241.919 141.771 240.722 140.234C237.646 136.477 237.988 132.72 237.988 132.72L231.493 133.403Z" fill="#F7A898"/>
<path d="M283.791 49.3537C279.69 47.4752 269.777 42.8643 269.777 42.8643H257.642C257.642 42.8643 250.464 46.7921 246.362 48.6706C246.362 48.6706 241.235 69.1637 244.312 81.9719C247.217 94.4386 248.242 111.345 248.242 111.345H278.835C278.835 111.345 278.151 94.2678 282.082 82.3135C287.551 66.0898 283.791 49.3537 283.791 49.3537Z" fill="#E6E7E8"/>
<path d="M269.777 42.8643L263.795 48.4999L257.642 42.8643V32.7886H269.777V42.8643Z" fill="#F7A898"/>
<path d="M276.442 25.7868C275.416 30.2269 269.093 38.7657 263.453 38.7657C258.667 38.7657 250.806 31.7639 250.464 26.9822C250.464 26.9822 249.267 18.6142 249.097 15.8818C248.584 7.68455 256.275 0.853516 263.453 0.853516C270.631 0.853516 278.664 7.51377 278.151 15.8818C277.98 18.785 277.125 23.0544 276.442 25.7868Z" fill="#F8B4A7"/>
<path d="M271.315 42.0101C271.315 42.0101 275.929 32.959 275.929 29.885C275.929 28.0065 275.929 26.9818 275.929 19.8093C275.929 15.5399 272.511 11.9536 272.511 11.9536C271.998 11.9536 271.315 17.2476 263.111 19.4677C258.155 20.8339 252.173 18.1015 252.173 28.0065C252.173 32.6174 252.857 37.9115 255.249 41.4978C255.249 41.4978 245.508 36.033 245.508 19.98C245.678 15.8814 250.122 0.34082 262.427 0.34082C271.315 0.34082 281.056 6.31797 281.056 20.1508C281.056 28.0065 278.151 39.79 271.315 42.0101Z" fill="#5E3F1C"/>
<path d="M279.86 202.368L285.158 273.581C285.329 275.46 284.475 276.655 282.937 277.167C281.569 277.68 279.177 276.826 278.493 275.289C274.049 262.652 268.751 227.984 265.504 202.368H279.86Z" fill="#F8B4A7"/>
<path d="M261.573 202.709C261.573 202.709 259.522 252.405 258.668 275.631C258.668 277.68 254.566 280.583 252.344 275.631C252.344 275.631 247.901 241.134 247.901 232.254C247.901 222.861 247.046 202.709 247.046 202.709H261.573Z" fill="#F8B4A7"/>
<path d="M279.006 111.345H248.242C246.875 112.882 237.475 124.836 240.039 150.965C242.432 174.191 246.704 212.615 246.704 212.615C246.704 212.615 257.642 215.177 263.453 215.177C269.606 215.177 280.886 212.615 280.886 212.615C280.886 212.615 284.646 174.361 287.038 150.965C289.773 124.836 280.202 112.882 279.006 111.345Z" fill="#555BE4"/>
<path d="M258.838 274.437C258.838 274.437 259.009 275.974 258.838 276.828C257.642 280.243 254.224 288.099 252.344 291.173C250.977 293.393 245.679 296.638 243.286 295.613C241.235 294.759 240.722 290.831 242.09 287.758C243.628 284.684 252.344 274.437 252.344 274.437H258.838Z" fill="#F8B4A7"/>
<path d="M258.839 274.606C258.839 274.948 259.009 276.143 258.668 276.827C257.813 279.388 255.42 284.682 253.882 288.269C252.686 290.83 248.242 291.684 246.533 290.83C244.482 289.976 243.799 286.048 245.337 282.974V282.804C243.799 284.682 242.602 286.561 242.09 287.585C240.551 290.659 241.235 294.758 243.457 295.612C243.799 295.783 243.97 295.783 244.311 295.783C246.875 296.466 251.49 293.733 253.711 290.489C255.591 287.415 258.326 281.096 259.351 277.68C259.864 276.143 258.839 274.606 258.839 274.606Z" fill="#622A4E"/>
<path d="M278.151 274.266C278.151 274.266 277.98 275.803 278.151 276.657C279.347 280.072 282.765 287.928 284.645 291.002C286.013 293.222 291.311 296.467 293.704 295.442C295.754 294.588 296.438 290.66 294.9 287.586C293.362 284.512 285.158 274.266 285.158 274.266H278.151Z" fill="#F8B4A7"/>
<path d="M295.071 287.586C294.558 286.561 293.362 284.683 291.824 282.634C291.995 282.975 292.336 283.317 292.336 283.658C293.875 286.732 293.362 290.66 291.14 291.514C289.26 292.197 284.817 291.514 283.62 288.952C282.082 285.708 279.347 279.56 278.322 276.657C277.98 275.803 278.322 274.266 278.322 274.266C278.322 274.266 277.468 276.486 277.98 277.681C279.347 281.097 281.911 286.903 283.62 290.148C285.158 293.051 289.944 295.954 292.678 295.613C293.191 295.613 293.704 295.613 294.046 295.442C295.926 294.588 296.438 290.66 295.071 287.586Z" fill="#622A4E"/>
<path d="M269.777 42.8633L283.107 48.4989C283.107 48.4989 284.475 49.5235 284.987 52.0852C285.329 53.9637 287.722 77.1892 280.544 101.781C278.493 108.954 285.671 114.931 286.696 123.469C286.696 123.469 284.987 125.348 280.715 126.543C278.835 127.056 273.366 126.373 273.366 126.373L269.777 42.8633Z" fill="#FCA70C"/>
<path d="M257.642 42.8638L246.362 47.4747C246.362 47.4747 244.995 48.4994 244.482 51.061C244.141 52.9395 240.893 73.945 245.85 100.074C247.388 108.442 241.406 117.151 240.893 123.47C240.893 123.47 242.773 125.348 247.046 125.69C248.755 125.861 254.224 125.007 254.224 125.007L257.642 42.8638Z" fill="#FCA70C"/>
<path d="M269.606 42.8633L275.759 50.3774L272.853 53.2806L279.006 65.0641L271.999 99.9024L269.606 42.8633Z" fill="#F98011"/>
<path d="M257.984 43.0337L251.319 50.2063L254.566 53.451L249.951 65.2345L255.42 100.073L257.984 43.0337Z" fill="#F98011"/>
<path d="M263.795 48.4991C263.795 48.4991 270.118 45.4252 273.707 46.4498C273.707 46.4498 273.366 42.522 269.606 41.8389V42.6927L263.795 48.4991Z" fill="#C8CACB"/>
<path d="M263.795 48.5001C263.795 48.5001 257.471 45.4261 253.882 46.4508C253.882 46.4508 253.882 42.5229 257.642 41.8398V42.6937L263.795 48.5001Z" fill="#C8CACB"/>
<path d="M263.795 48.4995C263.966 53.7936 264.137 58.9168 264.137 64.2109L264.307 79.9223L264.137 95.6336C264.137 100.928 263.966 106.051 263.795 111.345C263.624 106.051 263.453 100.928 263.453 95.6336L263.282 79.9223L263.453 64.2109C263.453 58.9168 263.624 53.7936 263.795 48.4995Z" fill="#C8CACB"/>
<path d="M275.277 60.0108L248.868 76.4341L276.864 121.381L303.272 104.957L275.277 60.0108Z" fill="#C0373F"/>
<path d="M303.274 82.6543C304.471 85.5575 303.103 88.8022 300.198 89.9977C297.293 91.1931 294.045 89.8269 292.849 86.9237L285.5 71.8954C284.987 71.0416 282.082 47.816 282.936 48.4992C293.191 56.6964 303.274 82.6543 303.274 82.6543Z" fill="#FCA70C"/>
<path d="M285.5 99.9035L280.031 94.0972L272.169 102.294C271.485 102.124 270.46 102.124 269.264 102.636C267.384 103.49 266.529 104.173 264.478 105.368C263.282 106.051 263.795 107.247 265.162 106.905C265.162 106.905 266.7 106.222 266.871 106.735C266.871 106.905 266.7 107.247 266.529 107.418C266.187 108.101 266.187 108.442 266.358 108.955C267.042 110.662 269.947 115.273 272.853 112.712C273.707 112.029 275.075 110.492 275.758 109.638C276.271 108.955 276.954 107.93 277.296 106.564C277.98 104.002 285.5 99.9035 285.5 99.9035Z" fill="#F7A898"/>
<path d="M282.253 103.831C280.031 106.051 273.707 99.391 275.929 97.1709L294.216 80.7764C296.438 78.5563 300.027 78.5563 302.249 80.7764C304.471 82.9965 304.471 86.5828 302.249 88.8029L282.253 103.831Z" fill="#FCA70C"/>
<path d="M114.805 158.18C114.805 158.18 109.72 170.625 120.942 176.585C122.52 177.461 125.501 177.461 124.274 172.027C123.046 166.594 122.52 163.964 124.098 165.016C125.852 166.068 126.904 167.295 126.378 164.841C125.852 162.387 123.923 158.355 123.923 158.355L114.805 158.18Z" fill="#F8A899"/>
<path d="M123.572 118.567C125.676 107.524 128.482 98.9358 132.339 92.4504L133.041 64.0552C124.975 70.0147 116.032 89.4707 108.667 110.855L108.141 112.082V113.484C108.141 114.36 106.563 138.198 112.35 158.355H126.553C122.169 143.106 122.169 122.598 123.572 118.567Z" fill="#FCA70C"/>
<path d="M166.532 297.176C166.532 297.176 165.305 298.753 165.305 303.836C165.305 306.115 168.286 306.641 171.091 306.641C174.773 306.641 176.352 317.508 187.398 317.508C193.711 317.508 194.938 313.126 191.957 310.322C185.996 304.713 179.683 300.331 175.65 297.176H166.532Z" fill="#492B32"/>
<path d="M166.532 299.455C166.532 299.455 167.409 301.733 171.091 301.733C174.072 301.733 175.65 299.455 175.65 299.455V291.917H166.357V299.455H166.532Z" fill="#C79C81"/>
<path d="M151.452 297.176C151.452 297.176 152.68 298.753 152.68 303.836C152.68 306.115 149.699 306.641 146.893 306.641C143.211 306.641 141.633 317.508 130.586 317.508C124.274 317.508 123.046 313.126 126.027 310.322C131.989 304.713 138.301 300.331 142.334 297.176H151.452Z" fill="#492B32"/>
<path d="M151.453 299.455C151.453 299.455 150.576 301.733 146.893 301.733C143.913 301.733 142.334 299.455 142.334 299.455V291.917H151.628V299.455H151.453Z" fill="#C79C81"/>
<path d="M185.294 153.272H133.041L139.003 295.599C139.003 295.599 143.562 298.053 147.244 298.053C152.154 298.053 154.433 295.775 154.433 295.775L159.518 170.099L169.338 228.993L165.305 294.548C165.305 294.548 166.006 297.527 171.442 297.527C175.65 297.527 179.508 296.476 179.508 296.476L191.957 228.993L185.294 153.272Z" fill="#310072"/>
<path d="M186.522 160.284V66.3345C186.522 63.3548 183.891 61.602 181.261 60.375C176.702 58.6222 166.532 54.4155 166.532 54.4155H152.855C152.855 54.4155 141.984 58.0964 138.126 60.375C135.496 61.7773 132.865 63.3548 132.865 66.3345V160.109H186.522V160.284Z" fill="#DAD8D5"/>
<path d="M186.521 160.284V66.3345C186.521 63.3548 183.891 61.602 181.261 60.375C176.702 58.6222 166.532 54.4155 166.532 54.4155L159.693 91.9253L152.855 54.4155C152.855 54.4155 141.983 58.0964 138.126 60.375C135.496 61.7773 132.515 63.8806 132.515 65.2828L132.865 160.284H186.521Z" fill="#007FFF"/>
<path d="M166.532 54.5913L159.518 61.953L152.855 54.5913V47.9307H166.532V54.5913Z" fill="#F8A899"/>
<path d="M174.773 40.0429C174.773 43.0226 167.233 51.7866 159.693 51.7866C152.329 51.7866 144.614 43.5485 144.614 40.0429V28.825C144.614 20.4116 151.452 13.751 159.693 13.751C168.11 13.751 174.773 20.5869 174.773 28.825V40.0429Z" fill="#F8A899"/>
<path d="M177.312 35.2569C177.868 33.6054 177.352 31.9413 176.158 31.5399C174.965 31.1386 173.547 32.1521 172.991 33.8036C172.435 35.4551 172.952 37.1193 174.145 37.5206C175.339 37.9219 176.757 36.9084 177.312 35.2569Z" fill="#F8A899"/>
<path d="M145.081 37.4105C146.274 37.0093 146.791 35.3452 146.235 33.6937C145.68 32.0422 144.262 31.0286 143.069 31.4298C141.876 31.831 141.359 33.4951 141.914 35.1466C142.47 36.7981 143.888 37.8117 145.081 37.4105Z" fill="#F8A899"/>
<path d="M159.518 61.9521L166.532 54.7656L170.039 56.1679C170.039 56.1679 174.423 60.7251 174.773 65.8082L169.688 62.8285L159.518 61.9521Z" fill="#ECE5E5"/>
<path d="M159.518 61.9521L152.855 54.7656L148.997 55.9926C148.997 55.9926 144.789 60.7251 144.263 65.8082L149.348 62.8285L159.518 61.9521Z" fill="#ECE5E5"/>
<path d="M144.438 34.4336C144.438 34.4336 146.016 28.6494 149.699 26.0202L151.803 22.8652C151.803 22.8652 154.082 22.1641 159.518 24.4427C164.954 26.5461 166.357 29.8764 171.617 28.6494C171.617 28.6494 173.896 33.2067 174.247 34.9595C174.247 34.9595 175.475 31.1033 175.825 27.4225C176.176 23.7416 176.877 14.4518 165.48 11.472C153.556 8.31701 148.647 15.854 148.647 15.854C148.647 15.854 147.594 14.6271 144.614 19.3596C142.509 22.6899 142.334 28.2989 144.614 34.9595" fill="#310072"/>
<path d="M174.773 35.4849C174.773 33.2062 172.319 30.2265 172.319 30.2265C172.319 30.2265 173.371 37.0624 170.74 40.3927C168.461 43.3724 161.447 47.7544 159.343 47.7544C157.239 47.7544 150.225 43.1972 147.945 40.3927C145.49 36.8871 146.543 29.3501 146.543 29.3501C146.543 29.3501 144.088 33.2062 144.088 35.4849C144.088 35.4849 143.211 40.2174 145.14 43.1972C147.244 46.3522 154.258 51.0847 154.258 51.0847C154.258 51.0847 157.239 52.8375 159.343 52.8375C161.447 52.6622 164.428 51.0847 164.428 51.0847C164.428 51.0847 171.617 46.7027 173.721 43.5477C175.826 40.568 174.773 35.4849 174.773 35.4849Z" fill="#310072"/>
<path d="M168.285 44.7748L166.707 42.4962C166.181 42.1456 163.551 40.3928 160.044 40.3928C155.31 40.3928 152.504 41.4445 151.803 42.1456C150.926 43.022 150.049 44.5995 150.049 44.5995L147.244 43.1973C147.244 43.1973 148.296 41.2692 149.523 39.867C151.101 38.2895 155.31 37.2378 160.044 37.2378C165.304 37.2378 168.811 40.0423 168.987 40.2175L169.162 40.3928L170.915 43.1973L168.285 44.7748Z" fill="#310072"/>
<path d="M183.541 91.2236H146.542V148.189H183.541V91.2236Z" fill="#E6E7E8"/>
<path d="M165.831 140.126C192.133 138.198 214.752 116.639 214.752 116.639C214.752 86.4908 190.73 66.1584 184.067 62.127C184.067 62.127 186.522 64.7561 186.522 66.5089C186.522 72.6437 186.522 92.4503 186.522 92.4503C191.957 98.2345 193.886 102.967 196.516 111.38C187.398 118.742 179.332 124.526 161.798 127.506L165.831 140.126Z" fill="#FCA70C"/>
<path d="M165.305 138.724C165.305 138.724 154.258 147.138 145.491 138.023C144.263 136.796 143.386 133.817 148.997 133.466C154.609 133.116 157.239 132.94 155.836 131.538C154.258 130.311 152.855 129.61 155.485 129.259C157.94 129.084 162.674 129.61 162.674 129.61L165.305 138.724Z" fill="#F8A899"/>
<path d="M126.553 177.46C126.553 179.038 125.15 180.44 123.572 180.44C121.994 180.44 120.591 179.038 120.591 177.46V166.593C120.591 165.016 121.994 163.613 123.572 163.613C125.15 163.613 126.553 165.016 126.553 166.593V177.46Z" fill="#492B32"/>
<path d="M120.591 174.481V177.285C120.591 178.863 121.994 180.265 123.572 180.265C125.15 180.265 126.553 178.863 126.553 177.285V174.481H120.591Z" fill="#71787D"/>
<path d="M133.041 252.479C133.041 254.933 131.112 256.861 128.657 256.861H118.136C115.681 256.861 113.752 254.933 113.752 252.479V180.615C113.752 178.161 115.681 176.233 118.136 176.233H128.657C131.112 176.233 133.041 178.161 133.041 180.615V252.479Z" fill="#492B32"/>
<path d="M126.553 176.41H120.591V256.863H126.553V176.41Z" fill="#180001"/>
<path d="M20.576 99.2954C20.576 99.2954 11.6372 101.874 6.91482 124.738C5.05959 133.677 4.21631 134.365 4.21631 147.43H13.3238L18.0462 123.191C18.2148 108.75 20.576 99.2954 20.576 99.2954Z" fill="#555BE4"/>
<path d="M12.8183 185.766L4.0481 186.798L4.21675 147.43H13.3242L12.8183 185.766Z" fill="#555BE4"/>
<path d="M11.975 202.098C11.975 201.926 11.8063 201.926 11.6377 201.754C9.95111 200.379 8.93917 199.347 8.77051 198.144C8.60185 197.284 8.60185 196.597 8.4332 195.565C8.26454 194.534 9.10783 191.955 9.78245 191.955C10.4571 191.955 11.975 194.018 12.3123 194.534C12.481 194.706 12.481 194.706 12.6496 194.706C11.8063 194.878 10.2884 196.081 11.8063 199.519C11.975 200.035 13.3243 200.894 11.975 202.098Z" fill="#E3887B"/>
<path d="M5.39725 186.626C5.39725 186.626 4.72262 191.096 5.39725 197.285C5.73456 199.691 7.42113 203.129 10.9629 203.645C11.3002 203.645 12.3122 203.473 12.4808 203.129C12.6495 202.614 12.6495 202.27 11.8062 201.582C10.1196 200.207 9.1077 199.176 8.93905 197.972C8.77039 197.113 8.77039 196.425 8.60173 195.394C8.43307 194.362 9.27636 191.783 9.95099 191.783C10.6256 191.783 12.1435 193.846 12.4808 194.362C13.8301 195.737 15.6853 195.05 14.5047 193.503C11.4689 189.72 11.8062 185.938 11.8062 185.938L5.39725 186.626Z" fill="#F8A899"/>
<path d="M42.8392 51.5045C40.1407 49.7854 36.0929 47.2067 27.66 50.6449C20.5765 53.5674 14.5048 65.6011 23.6123 93.6223C26.1421 101.53 24.4556 116.83 20.5765 125.082C20.5765 125.082 49.5855 106.687 51.6094 88.2931C52.6213 76.4314 50.9347 56.6618 42.8392 51.5045Z" fill="#310072"/>
<path d="M59.3678 100.155C55.32 98.2641 45.5379 93.6226 45.5379 93.6226H33.5633C33.5633 93.6226 26.4797 97.5765 22.4319 99.4675C22.4319 99.4675 17.3722 120.097 20.408 132.99C23.2752 145.539 24.2871 162.558 24.2871 162.558H54.4767C54.4767 162.558 53.8021 145.367 57.6812 133.334C63.0783 117.002 59.3678 100.155 59.3678 100.155Z" fill="#ECE5E5"/>
<path d="M39.6346 99.2954C39.8033 104.625 39.9719 109.782 39.9719 115.111L40.1406 130.927L39.9719 146.742C39.9719 152.072 39.8033 157.229 39.6346 162.558C39.466 157.229 39.2973 152.072 39.2973 146.742L39.1287 130.927L39.2973 115.111C39.2973 109.782 39.466 104.625 39.6346 99.2954Z" fill="#DAD8D5"/>
<path d="M45.369 93.6226L39.6346 99.2957L33.563 93.6226V83.48H45.369V93.6226Z" fill="#F8A899"/>
<path d="M52.1153 76.4313C51.1034 80.901 44.8631 89.4965 39.2974 89.4965C34.575 89.4965 26.8168 82.4482 26.4794 77.6347C26.4794 77.6347 25.2988 69.2111 25.1302 66.4606C24.6242 58.2089 32.2138 51.3325 39.2974 51.3325C46.381 51.3325 54.3079 58.037 53.8019 66.4606C53.4646 69.383 52.6213 73.6808 52.1153 76.4313Z" fill="#F9B4A8"/>
<path d="M55.4885 254.187L60.7169 325.873C60.8855 327.764 60.0422 328.967 58.5243 329.483C57.1751 329.999 54.8139 329.139 54.1392 327.592C49.7541 314.871 44.5258 279.973 41.3213 254.187H55.4885Z" fill="#F9B4A8"/>
<path d="M37.4421 254.53C37.4421 254.53 35.4182 304.556 34.5749 327.935C34.5749 329.998 30.5271 332.921 28.3346 327.935C28.3346 327.935 23.9495 293.209 23.9495 284.27C23.9495 274.815 23.1062 254.53 23.1062 254.53H37.4421Z" fill="#F9B4A8"/>
<path d="M54.4767 162.558H24.2871C22.9378 164.105 13.493 176.139 16.1915 202.441C18.5527 225.821 22.7691 264.501 22.7691 264.501C22.7691 264.501 33.5632 267.079 39.2975 267.079C45.3692 267.079 56.5006 264.501 56.5006 264.501C56.5006 264.501 60.211 225.993 62.5722 202.441C65.2707 176.139 55.8259 164.105 54.4767 162.558Z" fill="#007FFF"/>
<path d="M34.7437 326.732C34.7437 326.732 34.9124 328.28 34.7437 329.139C33.5631 332.577 30.19 340.485 28.3348 343.58C26.9855 345.814 21.7572 349.081 19.396 348.049C17.3721 347.19 16.6974 343.236 18.2154 340.141C19.7333 337.047 28.3348 326.732 28.3348 326.732H34.7437Z" fill="#F9B4A8"/>
<path d="M34.7435 326.732C34.7435 327.076 34.9122 328.28 34.5749 328.967C33.7316 331.546 31.3704 336.875 29.8525 340.485C28.6719 343.064 24.2868 343.923 22.6002 343.064C20.5763 342.204 20.0703 338.25 21.4196 335.156V334.984C19.9017 336.875 18.7211 338.766 18.2151 339.798C16.6972 342.892 17.3718 347.018 19.5644 347.877C19.9017 348.049 20.0703 348.049 20.4077 348.049C22.9375 348.737 27.4913 345.986 29.6838 342.72C31.539 339.626 34.2375 333.265 35.2495 329.827C35.7555 328.452 34.7435 326.732 34.7435 326.732Z" fill="#493151"/>
<path d="M53.802 326.561C53.802 326.561 53.6334 328.108 53.802 328.967C54.9826 332.405 58.3558 340.313 60.211 343.408C61.5602 345.643 66.7886 348.909 69.1498 347.877C71.1737 347.018 71.8483 343.064 70.3304 339.97C68.8125 336.875 60.717 326.561 60.717 326.561H53.802Z" fill="#F9B4A8"/>
<path d="M70.3304 339.97C69.8244 338.938 68.6438 337.047 67.1259 334.984C67.2945 335.328 67.6318 335.672 67.6318 336.016C69.1498 339.11 68.6438 343.064 66.4512 343.923C64.596 344.611 60.2109 343.923 59.0303 341.345C57.5124 338.079 54.8139 331.89 53.802 328.967C53.4646 328.108 53.802 326.561 53.802 326.561C53.802 326.561 52.9587 328.795 53.4647 329.999C54.8139 333.437 57.3438 339.282 58.8617 342.548C60.3796 345.471 65.102 348.393 67.8005 348.049C68.3065 348.049 68.8124 348.049 69.1498 347.877C71.3423 347.018 71.8483 343.064 70.3304 339.97Z" fill="#493151"/>
<path d="M45.3693 93.6221L58.5246 99.2951C58.5246 99.2951 59.8738 100.327 60.3798 102.905C60.7171 104.796 63.0783 128.176 55.9947 152.931C53.9708 160.151 61.0544 166.168 62.0664 174.763L39.4663 177.686V134.708L45.3693 93.6221Z" fill="#555BE4"/>
<path d="M33.3943 93.623L20.2391 99.2961C20.2391 99.2961 18.8898 100.328 18.3838 102.906C18.0465 104.797 15.6853 128.177 22.7689 152.932C24.7928 160.152 17.7092 166.169 16.6973 174.764L39.2973 177.687V134.709L33.3943 93.623Z" fill="#555BE4"/>
<path d="M39.6345 99.2943C39.6345 99.2943 45.8748 96.1999 49.4166 97.2314C49.4166 97.2314 49.0793 93.2775 45.3689 92.5898V93.6213L39.6345 99.2943Z" fill="#DAD8D5"/>
<path d="M39.6346 99.2963C39.6346 99.2963 33.3943 96.2019 29.8525 97.2334C29.8525 97.2334 29.8525 93.2794 33.563 92.5918V93.6233L39.6346 99.2963Z" fill="#DAD8D5"/>
<g opacity="0.7">
<path opacity="0.7" d="M39.2976 51.1606C34.9125 51.8482 31.0334 54.083 28.3349 57.3493C26.9856 59.0684 26.1423 60.9594 25.4677 63.0223C25.1304 64.0538 24.9617 65.0852 24.9617 66.2886C24.7931 67.492 24.7931 68.5234 25.1304 69.5549C24.4557 68.6953 24.2871 67.3201 24.1184 66.2886C23.9498 65.0852 23.9498 63.8819 24.1184 62.8504C24.4558 60.4437 25.4677 58.2089 26.9856 56.3179C28.5035 54.4268 30.3587 52.8797 32.5513 52.0201C34.7438 51.1606 37.105 50.8167 39.2976 51.1606Z" fill="#391617"/>
</g>
<path d="M39.4661 51.1606C30.8646 51.1606 24.287 58.3809 24.793 66.4606C24.793 67.1482 24.793 68.1797 25.4676 69.3831C26.1422 69.3831 27.8288 69.555 28.5034 71.7898C28.5034 71.7898 26.1422 62.5067 30.8646 60.7876C33.7318 59.7561 36.7676 63.5381 39.4661 63.5381C45.2005 63.5381 44.6945 59.2404 47.7303 60.0999C52.79 61.3033 50.2602 71.7898 50.2602 71.7898C50.9348 69.3831 52.6214 69.3831 53.296 69.3831C53.4647 68.1797 53.4647 67.1482 53.6333 66.4606C54.308 58.3809 48.405 51.1606 39.4661 51.1606Z" fill="#310072"/>
<path d="M54.1411 73.125C54.7357 71.3254 54.359 69.5718 53.2997 69.2081C52.2404 68.8445 50.8996 70.0085 50.305 71.808C49.7103 73.6076 50.087 75.3612 51.1463 75.7249C52.2056 76.0886 53.5464 74.9245 54.1411 73.125Z" fill="#F9B4A8"/>
<path d="M27.5863 75.7567C28.6456 75.393 29.0223 73.6394 28.4277 71.8398C27.833 70.0403 26.4922 68.8763 25.4329 69.24C24.3736 69.6036 23.997 71.3573 24.5916 73.1568C25.1862 74.9564 26.527 76.1204 27.5863 75.7567Z" fill="#F9B4A8"/>
<path d="M52.4524 85.3718H50.7659L51.6092 79.8707L52.4524 74.5415L53.4644 79.8707L54.3077 85.3718H52.4524Z" fill="#FCA70C"/>
<path d="M25.8047 85.3718H23.9495L24.9614 79.8707L25.8047 74.5415L26.648 79.8707L27.6599 85.3718H25.8047Z" fill="#FCA70C"/>
<path d="M12.8186 203.815C12.8186 205.19 11.8066 206.222 10.4574 206.222C9.10813 206.222 8.09619 205.19 8.09619 203.815V195.22C8.09619 193.844 9.10813 192.813 10.4574 192.813C11.8066 192.813 12.8186 193.844 12.8186 195.22V203.815Z" fill="#F9B7B3"/>
<path d="M8.26489 200.205V203.815C8.26489 205.19 9.27684 206.222 10.6261 206.222C11.9753 206.222 12.9873 205.19 12.9873 203.815V200.205H8.26489Z" fill="#F6958F"/>
<path d="M21.0826 228.227C21.5886 233.212 15.011 234.244 11.1319 234.244C3.71094 234.244 0.000488281 232.353 0.000488281 228.227C0.000488281 223.585 2.02437 207.426 2.02437 207.426C2.02437 204.847 3.71094 202.612 5.90349 202.612H15.1796C17.3722 202.612 19.0587 204.675 19.0587 207.426C19.0587 207.426 20.5767 223.585 21.0826 228.227Z" fill="#C0373F"/>
<path d="M58.6928 99.6392C58.6928 99.6392 78.4257 117.346 89.557 126.801L79.6063 134.709L61.8973 122.675C61.8973 122.503 54.4764 104.625 58.6928 99.6392Z" fill="#555BE4"/>
<path d="M89.5572 126.801C89.5572 126.801 94.9542 134.709 90.7378 142.101L79.6064 134.537L89.5572 126.801Z" fill="#555BE4"/>
<path d="M65.2706 166.513C64.9333 166.513 56.8378 166.856 47.7303 170.638C47.0557 170.81 46.7184 171.67 47.0557 172.357C47.2243 172.873 47.7303 173.217 48.2363 173.217C48.4049 173.217 48.5736 173.217 48.7422 173.045C51.1034 172.014 52.6214 171.67 54.8139 171.154C53.1273 172.014 52.284 172.186 50.4288 173.561C49.9228 173.905 49.7542 174.764 50.0915 175.28C50.2602 175.624 50.7661 175.796 51.1034 175.796C51.2721 175.796 51.6094 175.796 51.7781 175.624C53.9706 174.248 54.8139 173.905 56.6691 173.045C55.3199 174.248 54.8139 174.592 53.4646 176.483C53.1273 176.999 53.1273 177.859 53.802 178.202C53.9706 178.374 54.3079 178.374 54.4766 178.374C54.8139 178.374 55.3199 178.202 55.4885 177.859C56.6691 176.14 56.8378 176.14 58.187 175.108C57.5124 176.14 57.3437 176.14 56.6691 177.515C56.3318 178.202 56.6691 178.89 57.3437 179.234C57.5124 179.234 57.6811 179.406 57.8497 179.406C58.3557 179.406 58.693 179.062 59.0303 178.718C59.5363 177.687 59.5363 177.859 60.0423 176.999C60.5482 176.14 62.9094 174.248 64.596 173.561C66.2826 172.701 66.9572 171.326 66.9572 171.326C67.8005 169.091 66.1139 166.341 65.2706 166.513Z" fill="#F8A899"/>
<path d="M62.7407 166.512C62.7407 166.512 60.5482 165.824 59.0303 165.996L59.3676 167.199C59.3676 167.199 61.8974 167.027 62.7407 166.683V166.512Z" fill="#F8A899"/>
<path d="M79.4378 134.538L62.0662 165.309C62.0662 165.309 63.2468 171.498 67.8005 172.873L90.7379 142.102L79.4378 134.538Z" fill="#555BE4"/>
<path d="M387.157 183.558L391.711 91.4964C391.711 88.7066 389.259 86.963 386.631 85.9169C382.252 84.1733 369.816 80.3374 369.816 80.3374L363.336 88.3579L356.855 80.3374C356.855 80.3374 345.47 83.8246 341.617 85.9169C339.164 87.3118 336.187 89.2297 336.187 90.4502L340.741 183.558H387.157Z" fill="#E6E7E8"/>
<path d="M362.985 92.5424C363.469 92.5424 363.861 92.1521 363.861 91.6706C363.861 91.1891 363.469 90.7988 362.985 90.7988C362.501 90.7988 362.109 91.1891 362.109 91.6706C362.109 92.1521 362.501 92.5424 362.985 92.5424Z" fill="#BCBEC0"/>
<path d="M362.985 108.932C363.469 108.932 363.861 108.542 363.861 108.06C363.861 107.579 363.469 107.188 362.985 107.188C362.501 107.188 362.109 107.579 362.109 108.06C362.109 108.542 362.501 108.932 362.985 108.932Z" fill="#BCBEC0"/>
<path d="M362.985 125.497C363.469 125.497 363.861 125.106 363.861 124.625C363.861 124.143 363.469 123.753 362.985 123.753C362.501 123.753 362.109 124.143 362.109 124.625C362.109 125.106 362.501 125.497 362.985 125.497Z" fill="#BCBEC0"/>
<path d="M362.985 141.886C363.469 141.886 363.861 141.496 363.861 141.014C363.861 140.533 363.469 140.143 362.985 140.143C362.501 140.143 362.109 140.533 362.109 141.014C362.109 141.496 362.501 141.886 362.985 141.886Z" fill="#BCBEC0"/>
<path d="M362.985 158.45C363.469 158.45 363.861 158.06 363.861 157.578C363.861 157.097 363.469 156.707 362.985 156.707C362.501 156.707 362.109 157.097 362.109 157.578C362.109 158.06 362.501 158.45 362.985 158.45Z" fill="#BCBEC0"/>
<path d="M362.985 175.015C363.469 175.015 363.861 174.624 363.861 174.143C363.861 173.661 363.469 173.271 362.985 173.271C362.501 173.271 362.109 173.661 362.109 174.143C362.109 174.624 362.501 175.015 362.985 175.015Z" fill="#BCBEC0"/>
<path d="M339.69 179.373L342.317 256.091L349.849 319.732C349.849 319.732 351.075 320.255 354.578 320.255C358.081 320.255 358.431 319.906 358.431 319.906L364.562 205.701L368.941 319.906C368.941 319.906 369.291 320.255 372.794 320.255C376.297 320.255 377.523 319.732 377.523 319.732L385.055 256.091L386.806 179.373H339.69Z" fill="#34439E"/>
<path d="M387.157 185.476L387.332 179.373H339.69L340.04 185.476H387.157Z" fill="#040000"/>
<path d="M369.115 179.548H357.03V185.65H369.115V179.548Z" fill="#BCBEC0"/>
<path d="M386.281 85.2195C383.128 83.999 375.246 81.558 370.342 79.9888C370.342 79.9888 369.816 158.45 369.816 180.594C369.816 180.594 372.619 182.512 378.224 184.604C380.851 185.476 389.784 185.476 389.784 185.476L391.536 91.1477C391.711 88.1836 389.083 86.44 386.281 85.2195Z" fill="#34439E"/>
<path d="M341.441 85.2195C344.594 83.999 352.476 81.558 357.38 79.9888C357.38 79.9888 357.906 158.45 357.906 180.594C357.906 180.594 355.103 182.512 349.499 184.604C346.871 185.476 337.938 185.476 337.938 185.476L336.187 91.1477C336.187 88.1836 338.814 86.44 341.441 85.2195Z" fill="#34439E"/>
<path d="M370.342 80.1627L363.161 88.1832L356.68 80.1627V73.5371H370.342V80.1627Z" fill="#F8A899"/>
<path d="M378.574 65.6914C378.574 68.6555 371.042 77.3735 363.51 77.3735C356.154 77.3735 348.447 69.1786 348.447 65.6914V54.5325C348.447 46.1632 355.278 39.5376 363.51 39.5376C371.918 39.5376 378.574 46.3376 378.574 54.5325V65.6914Z" fill="#F8B4A7"/>
<path d="M381.267 60.838C381.823 59.1953 381.307 57.5398 380.115 57.1404C378.923 56.7409 377.507 57.7487 376.951 59.3914C376.395 61.0341 376.911 62.6896 378.103 63.089C379.295 63.4885 380.711 62.4807 381.267 60.838Z" fill="#F8A899"/>
<path d="M348.932 63.1013C350.124 62.7019 350.639 61.0464 350.084 59.4037C349.528 57.761 348.112 56.7532 346.92 57.1527C345.728 57.5521 345.212 59.2076 345.768 60.8503C346.324 62.493 347.74 63.5008 348.932 63.1013Z" fill="#F8A899"/>
<path d="M350.024 319.907C349.498 321.127 348.973 323.743 348.272 325.312C346.521 329.322 343.893 331.24 341.616 335.25C340.215 337.517 340.741 343.096 347.221 343.794C353.527 344.491 356.154 339.784 356.505 337.168C357.38 331.24 357.205 326.881 358.606 321.127C359.132 318.861 356.505 317.989 354.052 317.989C352.301 318.163 350.724 318.512 350.024 319.907Z" fill="#040000"/>
<path d="M377.698 319.907C378.223 321.127 378.749 323.743 379.449 325.312C381.201 329.322 383.828 331.24 386.105 335.25C387.506 337.517 386.981 343.096 380.5 343.794C374.195 344.491 371.567 339.784 371.217 337.168C370.341 331.24 370.516 326.881 369.115 321.127C368.59 318.861 371.217 317.989 373.669 317.989C375.421 318.163 376.997 318.512 377.698 319.907Z" fill="#040000"/>
<path d="M338.464 86.9624C338.464 86.9624 319.547 99.8649 319.547 150.429H334.61C334.61 150.429 336.712 123.578 336.712 118.173C336.712 102.132 338.464 86.9624 338.464 86.9624Z" fill="#34439E"/>
<path d="M334.435 197.506H323.05L319.547 150.429H334.61L334.435 197.506Z" fill="#34439E"/>
<path d="M330.757 218.604C330.582 218.43 330.582 218.255 330.406 218.255C328.83 216.512 327.604 215.117 327.604 213.722C327.604 212.676 327.604 211.978 327.604 210.758C327.604 209.712 328.83 206.922 329.531 206.922C330.231 206.922 331.633 209.537 332.158 210.06C332.333 210.235 332.333 210.235 332.508 210.409C331.457 210.583 329.531 211.63 330.932 215.64C331.107 216.337 332.333 217.558 330.757 218.604Z" fill="#E3887B"/>
<path d="M325.327 200.645C325.327 200.645 323.926 205.527 323.926 212.501C323.926 215.117 325.502 219.301 329.356 220.348C329.706 220.522 330.932 220.348 331.107 219.999C331.282 219.476 331.282 219.127 330.582 218.255C329.005 216.512 327.779 215.117 327.779 213.722C327.779 212.676 327.779 211.978 327.779 210.758C327.779 209.712 329.005 206.922 329.706 206.922C330.407 206.922 331.808 209.537 332.333 210.06C333.734 211.63 335.836 211.281 334.785 209.363C331.808 204.83 332.684 200.645 332.684 200.645H325.327Z" fill="#F8A899"/>
<path d="M333.734 197.506H323.926V202.039H333.734V197.506Z" fill="#E6E7E8"/>
<path d="M389.609 87.1372C389.609 87.1372 408 99.8654 408 150.429H393.112C393.112 150.429 391.01 123.578 391.01 118.173C390.835 102.132 389.609 87.1372 389.609 87.1372Z" fill="#34439E"/>
<path d="M393.112 197.507H404.497L408 150.43H393.112V197.507Z" fill="#34439E"/>
<path d="M396.79 218.605C396.966 218.431 396.966 218.256 397.141 218.256C398.717 216.513 399.943 215.118 399.943 213.723C399.943 212.677 399.943 211.979 399.943 210.759C399.943 209.713 398.717 206.923 398.016 206.923C397.316 206.923 395.915 209.538 395.389 210.061C395.214 210.236 395.214 210.236 395.039 210.41C396.09 210.584 398.016 211.631 396.615 215.641C396.615 216.338 395.214 217.559 396.79 218.605Z" fill="#E3887B"/>
<path d="M402.395 200.646C402.395 200.646 403.796 205.528 403.796 212.502C403.796 215.118 402.22 219.302 398.366 220.349C398.016 220.523 396.79 220.349 396.615 220C396.44 219.477 396.44 219.128 397.14 218.256C398.717 216.513 399.943 215.118 399.943 213.723C399.943 212.677 399.943 211.979 399.943 210.759C399.943 209.713 398.717 206.923 398.016 206.923C397.315 206.923 395.914 209.538 395.389 210.061C393.988 211.631 391.886 211.282 392.937 209.364C395.739 204.831 395.038 200.646 395.038 200.646H402.395Z" fill="#F8A899"/>
<path d="M403.796 197.507H393.988V202.041H403.796V197.507Z" fill="#E6E7E8"/>
<path d="M363.161 88.1836C363.161 88.1836 364.387 85.917 365.964 83.4759C366.839 82.0811 369.116 80.8606 370.342 79.9888C370.342 79.9888 371.218 80.1631 371.744 80.3375C372.269 80.5118 373.846 81.2093 373.846 81.2093C373.846 81.2093 372.619 86.2657 372.269 87.1375C372.444 87.3118 367.89 83.6503 363.161 88.1836Z" fill="#D1D3D4"/>
<path d="M363.161 88.1836C363.161 88.1836 361.935 85.917 360.358 83.4759C359.482 82.0811 357.906 80.8606 356.68 79.9888C356.68 79.9888 354.928 80.1631 354.403 80.1631C353.877 80.3375 352.301 81.0349 352.301 81.0349C352.301 81.0349 353.527 86.0913 353.877 86.9631C353.877 87.3118 358.431 83.6503 363.161 88.1836Z" fill="#D1D3D4"/>
<path d="M348.973 60.4606H350.724C350.9 58.717 352.301 53.835 355.278 51.7426H371.042C371.042 51.7426 376.122 53.3119 376.122 60.4606H378.049C378.924 58.3683 379.099 54.0093 378.924 49.9991C378.749 47.2093 378.049 45.117 374.896 44.2452C374.896 44.2452 378.574 37.7939 369.116 37.7939C369.116 37.7939 362.635 37.7939 358.782 37.7939C355.454 37.7939 347.747 41.4555 347.747 53.3119C347.922 55.4042 348.973 60.4606 348.973 60.4606Z" fill="#2C2825"/>
<path d="M333.734 219.127C333.734 219.999 332.333 220.871 330.756 220.871C329.18 220.871 327.779 220.173 327.779 219.127V212.85C327.779 211.978 329.18 211.106 330.756 211.106C332.333 211.106 333.734 211.804 333.734 212.85V219.127Z" fill="#492B32"/>
<path d="M327.779 217.384V218.953C327.779 219.825 329.18 220.697 330.756 220.697C332.333 220.697 333.734 219.999 333.734 218.953V217.384H327.779Z" fill="#71787D"/>
<path d="M340.215 261.67C340.215 263.065 338.288 264.111 335.836 264.111H325.327C322.875 264.111 320.948 263.065 320.948 261.67V221.045C320.948 219.65 322.875 218.604 325.327 218.604H335.836C338.288 218.604 340.215 219.65 340.215 221.045V261.67Z" fill="#492B32"/>
<path d="M333.734 218.43H327.779V263.937H333.734V218.43Z" fill="#180001"/>
</svg>
