<svg width="1920" height="1421" viewBox="0 0 1920 1421" fill="none" xmlns="http://www.w3.org/2000/svg">
<path d="M-1 0H1919V1080H-1V0Z" fill="#7057D6"/>
<rect width="1922" height="498" fill="url(#paint0_linear)"/>
<path opacity="0.2" d="M695.98 -38C622.097 -38 643.773 -14.6929 660.132 76.3411C702.57 312.504 1003.33 124.073 1113.98 278C1156.12 336.743 1151.51 454.341 1197.63 510.767C1213.26 529.901 1236.94 541.515 1262.3 547.96C1284.21 553.532 1326.01 545.107 1343.44 553.968C1383.52 574.377 1345.4 636.409 1385.59 658.329C1505.61 723.617 1316.75 1053.78 1903.98 1028C1903.98 1028 1948.72 -14.0541 1922 -24C1895.28 -33.9459 769.863 -38 695.98 -38Z" fill="url(#paint1_linear)"/>
<path opacity="0.2" d="M482 -64C396.839 -64 530.542 217.95 549.398 322.849C598.314 594.979 944.986 377.85 1072.52 555.22C1121.1 622.909 1115.78 758.418 1168.95 823.438C1186.96 845.485 1214.25 858.868 1243.49 866.294C1268.75 872.715 1316.92 863.007 1337.02 873.218C1634.45 1024.65 1389.42 1445.5 1983.12 1419.44C1983.12 1419.44 1996.6 -6.44585 1965.8 -17.9064C1935.01 -29.367 567.161 -64 482 -64Z" fill="url(#paint2_linear)"/>
<path d="M1250 867C918 755 736 883 488 867C2.97 835.708 0.000123978 609 0 667V1162L1922 1144V699C1756 612 1601.28 985.505 1250 867Z" fill="white"/>
<defs>
<linearGradient id="paint0_linear" x1="961" y1="0" x2="961" y2="498" gradientUnits="userSpaceOnUse">
<stop stop-color="#3E26A3"/>
<stop offset="1" stop-color="#7057D6" stop-opacity="0"/>
</linearGradient>
<linearGradient id="paint1_linear" x1="1499.52" y1="5.56614" x2="1247.81" y2="870.178" gradientUnits="userSpaceOnUse">
<stop stop-color="#C5B3FF"/>
<stop offset="1" stop-color="#AA90FA" stop-opacity="0"/>
</linearGradient>
<linearGradient id="paint2_linear" x1="1516.92" y1="241.295" x2="1226.95" y2="1237.63" gradientUnits="userSpaceOnUse">
<stop stop-color="#C5B3FF"/>
<stop offset="1" stop-color="#AA90FA" stop-opacity="0"/>
</linearGradient>
</defs>
</svg>
