<svg width="258" height="740" viewBox="0 0 258 740" fill="none" xmlns="http://www.w3.org/2000/svg">
<path d="M16.5452 355.711C16.5452 355.711 4.28041 385.728 31.3476 400.101C35.1539 402.215 42.3436 402.215 39.3831 389.11C36.4227 376.004 35.1539 369.663 38.9602 372.199C43.1895 374.736 45.727 377.695 44.4582 371.776C43.1895 365.858 38.5373 356.134 38.5373 356.134L16.5452 355.711Z" fill="#F8A899"/>
<path d="M37.6915 260.168C42.7666 233.534 49.5334 212.819 58.8377 197.176L60.5294 128.689C41.0749 143.063 19.5057 189.989 1.74292 241.566L0.474144 244.526V247.908C0.474144 250.022 -3.33218 307.517 10.6243 356.135H44.8812C34.3081 319.354 34.3081 269.891 37.6915 260.168Z" fill="#FCA70C"/>
<path d="M141.308 690.96C141.308 690.96 138.347 694.765 138.347 707.025C138.347 712.521 145.537 713.789 152.304 713.789C161.185 713.789 164.992 740 191.636 740C206.861 740 209.822 729.431 202.632 722.667C188.253 709.139 173.027 698.57 163.3 690.96H141.308Z" fill="#492B32"/>
<path d="M141.308 696.457C141.308 696.457 143.423 701.953 152.304 701.953C159.494 701.953 163.3 696.457 163.3 696.457V678.278H140.885V696.457H141.308Z" fill="#C79C81"/>
<path d="M104.937 690.96C104.937 690.96 107.898 694.765 107.898 707.025C107.898 712.521 100.708 713.789 93.9411 713.789C85.0597 713.789 81.2534 740 54.6092 740C39.3839 740 36.4234 729.431 43.6131 722.667C57.9926 709.139 73.2178 698.57 82.9451 690.96H104.937Z" fill="#492B32"/>
<path d="M104.938 696.457C104.938 696.457 102.823 701.953 93.9416 701.953C86.7519 701.953 82.9456 696.457 82.9456 696.457V678.278H105.361V696.457H104.938Z" fill="#C79C81"/>
<path d="M186.561 343.875H60.5295L74.909 687.158C74.909 687.158 85.905 693.076 94.7864 693.076C106.628 693.076 112.126 687.58 112.126 687.58L124.391 384.46L148.075 526.508L138.348 684.621C138.348 684.621 140.039 691.808 153.15 691.808C163.3 691.808 172.605 689.271 172.605 689.271L202.632 526.508L186.561 343.875Z" fill="#310072"/>
<path d="M189.522 360.786V134.186C189.522 126.999 183.178 122.771 176.834 119.812C165.838 115.584 141.309 105.438 141.309 105.438H108.32C108.32 105.438 82.0991 114.316 72.7948 119.812C66.4509 123.194 60.1071 126.999 60.1071 134.186V360.363H189.522V360.786Z" fill="#DAD8D5"/>
<path d="M189.521 360.786V134.186C189.521 126.999 183.177 122.771 176.834 119.812C165.837 115.584 141.308 105.438 141.308 105.438L124.814 195.909L108.32 105.438C108.32 105.438 82.0984 114.316 72.7941 119.812C66.4502 123.194 59.2605 128.267 59.2605 131.649L60.1063 360.786H189.521Z" fill="#007FFF"/>
<path d="M141.309 105.862L124.392 123.618L108.32 105.862V89.7974H141.309V105.862Z" fill="#F8A899"/>
<path d="M161.185 70.7722C161.185 77.9591 142.999 99.0972 124.813 99.0972C107.05 99.0972 88.4417 79.2274 88.4417 70.7722V43.7154C88.4417 23.4228 104.936 7.35791 124.813 7.35791C145.114 7.35791 161.185 23.8456 161.185 43.7154V70.7722Z" fill="#F8A899"/>
<path d="M167.311 59.2288C168.651 55.2455 167.405 51.2317 164.527 50.2637C161.649 49.2958 158.229 51.7402 156.888 55.7236C155.548 59.7069 156.794 63.7207 159.672 64.6887C162.55 65.6566 165.97 63.2122 167.311 59.2288Z" fill="#F8A899"/>
<path d="M89.5709 64.4238C92.4489 63.4562 93.6954 59.4426 92.3551 55.4593C91.0147 51.4759 87.5951 49.0312 84.7171 49.9989C81.8392 50.9665 80.5927 54.9801 81.933 58.9635C83.2734 62.9468 86.693 65.3915 89.5709 64.4238Z" fill="#F8A899"/>
<path d="M124.391 123.615L141.308 106.282L149.767 109.664C149.767 109.664 160.34 120.656 161.186 132.916L148.921 125.729L124.391 123.615Z" fill="#ECE5E5"/>
<path d="M124.39 123.616L108.319 106.283L99.0149 109.243C99.0149 109.243 88.8647 120.657 87.5959 132.917L99.8608 125.73L124.39 123.616Z" fill="#ECE5E5"/>
<path d="M88.02 57.2434C88.02 57.2434 91.8263 43.2923 100.708 36.9508L105.783 29.3411C105.783 29.3411 111.281 27.6501 124.392 33.146C137.502 38.2191 140.886 46.2516 153.573 43.2923C153.573 43.2923 159.071 54.2841 159.917 58.5117C159.917 58.5117 162.878 49.2109 163.723 40.3329C164.569 31.4549 166.261 9.04857 138.771 1.86162C110.012 -5.74809 98.1702 12.4307 98.1702 12.4307C98.1702 12.4307 95.6327 9.47133 88.4429 20.8859C83.3678 28.9184 82.9449 42.4467 88.4429 58.5117" fill="#310072"/>
<path d="M161.187 59.7791C161.187 54.2832 155.266 47.0962 155.266 47.0962C155.266 47.0962 157.803 63.5839 151.46 71.6164C145.962 78.8034 129.045 89.3724 123.969 89.3724C118.894 89.3724 101.977 78.3806 96.4794 71.6164C90.5585 63.1612 93.096 44.9824 93.096 44.9824C93.096 44.9824 87.1751 54.2832 87.1751 59.7791C87.1751 59.7791 85.0604 71.1936 89.7126 78.3806C94.7877 85.9903 111.705 97.4049 111.705 97.4049C111.705 97.4049 118.894 101.632 123.969 101.632C129.045 101.21 136.234 97.4049 136.234 97.4049C136.234 97.4049 153.574 86.8358 158.649 79.2261C163.724 72.0392 161.187 59.7791 161.187 59.7791Z" fill="#310072"/>
<path d="M145.537 82.1861L141.731 76.6902C140.462 75.8447 134.118 71.617 125.66 71.617C114.241 71.617 107.474 74.1536 105.782 75.8447C103.668 77.9585 101.553 81.7633 101.553 81.7633L94.7861 78.3812C94.7861 78.3812 97.3237 73.7308 100.284 70.3488C104.09 66.5439 114.241 64.0073 125.66 64.0073C138.347 64.0073 146.806 70.7715 147.229 71.1943L147.652 71.617L151.881 78.3812L145.537 82.1861Z" fill="#310072"/>
<path d="M182.332 194.217H93.0951V331.615H182.332V194.217Z" fill="#E6E7E8"/>
<path d="M139.617 312.167C203.056 307.516 257.613 255.516 257.613 255.516C257.613 182.801 199.672 133.761 183.601 124.038C183.601 124.038 189.522 130.379 189.522 134.607C189.522 149.403 189.522 197.175 189.522 197.175C202.633 211.126 207.285 222.541 213.629 242.834C191.637 260.59 172.182 274.541 129.89 281.728L139.617 312.167Z" fill="#FCA70C"/>
<path d="M138.348 308.786C138.348 308.786 111.704 329.079 90.558 307.095C87.5976 304.136 85.4829 296.949 99.0165 296.103C112.55 295.258 118.894 294.835 115.511 291.453C111.704 288.493 108.321 286.802 114.665 285.957C120.586 285.534 132.005 286.802 132.005 286.802L138.348 308.786Z" fill="#F8A899"/>
<path d="M44.8799 402.214C44.8799 406.019 41.4965 409.401 37.6902 409.401C33.8839 409.401 30.5005 406.019 30.5005 402.214V376.003C30.5005 372.198 33.8839 368.816 37.6902 368.816C41.4965 368.816 44.8799 372.198 44.8799 376.003V402.214Z" fill="#492B32"/>
<path d="M30.5005 395.028V401.793C30.5005 405.597 33.8839 408.98 37.6902 408.98C41.4965 408.98 44.8799 405.597 44.8799 401.793V395.028H30.5005Z" fill="#71787D"/>
<path d="M60.5288 583.155C60.5288 589.073 55.8766 593.724 49.9557 593.724H24.5802C18.6592 593.724 14.0071 589.073 14.0071 583.155V409.822C14.0071 403.904 18.6592 399.253 24.5802 399.253H49.9557C55.8766 399.253 60.5288 403.904 60.5288 409.822V583.155Z" fill="#492B32"/>
<path d="M44.8799 399.68H30.5005V593.728H44.8799V399.68Z" fill="#180001"/>
</svg>
