<svg width="647" height="480" viewBox="0 0 647 480" fill="none" xmlns="http://www.w3.org/2000/svg">
<path d="M4.52979 430.76C4.52979 438.998 108.729 445.629 237.227 445.629C365.725 445.629 469.924 438.957 469.924 430.76C469.924 422.564 365.725 415.892 237.227 415.892C108.729 415.892 4.52979 422.543 4.52979 430.76Z" fill="#CDCCFF" fill-opacity="0.5"/>
<path d="M87.477 461.328C120.106 461.328 146.557 457.16 146.557 452.019C146.557 446.878 120.106 442.711 87.477 442.711C54.8479 442.711 28.3967 446.878 28.3967 452.019C28.3967 457.16 54.8479 461.328 87.477 461.328Z" fill="#CDCCFF" fill-opacity="0.5"/>
<path d="M539.568 458.438C594.317 458.438 638.701 455.137 638.701 451.066C638.701 446.994 594.317 443.693 539.568 443.693C484.818 443.693 440.435 446.994 440.435 451.066C440.435 455.137 484.818 458.438 539.568 458.438Z" fill="#CDCCFF" fill-opacity="0.5"/>
<path d="M369.246 387.925H266.097V415.665H369.246V387.925Z" fill="#ABADF5"/>
<path d="M477.666 139.729H158.769C148.089 139.729 139.432 148.387 139.432 159.066V377.649C139.432 388.329 148.089 396.986 158.769 396.986H477.666C488.346 396.986 497.003 388.329 497.003 377.649V159.066C497.003 148.387 488.346 139.729 477.666 139.729Z" fill="#C1CAFF"/>
<path d="M474.042 149.12H161.302C154.739 149.12 149.42 154.44 149.42 161.002V360.432C149.42 366.995 154.739 372.315 161.302 372.315H474.042C480.604 372.315 485.924 366.995 485.924 360.432V161.002C485.924 154.44 480.604 149.12 474.042 149.12Z" fill="#DDE1FF"/>
<path d="M236.835 413.297H398.488C402.485 413.297 406.319 414.885 409.146 417.712C411.973 420.539 413.561 424.373 413.561 428.371V430.781H221.761V428.371C221.761 424.373 223.35 420.539 226.176 417.712C229.003 414.885 232.837 413.297 236.835 413.297Z" fill="#9393FE"/>
<g opacity="0.35">
<path opacity="0.35" d="M454.912 164.524H240.089C234.391 164.524 229.772 169.143 229.772 174.841V312.47C229.772 318.168 234.391 322.787 240.089 322.787H454.912C460.609 322.787 465.229 318.168 465.229 312.47V174.841C465.229 169.143 460.609 164.524 454.912 164.524Z" fill="#C1CAFF"/>
</g>
<g style="mix-blend-mode:multiply" opacity="0.55">
<path d="M392.372 199.533H177.549C171.851 199.533 167.232 204.153 167.232 209.851V347.479C167.232 353.177 171.851 357.796 177.549 357.796H392.372C398.069 357.796 402.688 353.177 402.688 347.479V209.851C402.688 204.153 398.069 199.533 392.372 199.533Z" fill="#C4C3FC"/>
</g>
<path d="M397.149 193.376H182.327C176.629 193.376 172.01 197.995 172.01 203.693V341.321C172.01 347.02 176.629 351.639 182.327 351.639H397.149C402.847 351.639 407.466 347.02 407.466 341.321V203.693C407.466 197.995 402.847 193.376 397.149 193.376Z" fill="white"/>
<path d="M204.649 308.989H194.394V334.731H204.649V308.989Z" fill="#FCA70C"/>
<path d="M227.754 286.398H217.499V334.752H227.754V286.398Z" fill="#B1AFFD"/>
<path d="M250.859 291.382H240.604V334.731H250.859V291.382Z" fill="#FCA70C"/>
<path d="M273.985 266.916H263.729V334.752H273.985V266.916Z" fill="#B1AFFD"/>
<g style="mix-blend-mode:multiply" opacity="0.15">
<g style="mix-blend-mode:multiply" opacity="0.26">
<path d="M222.214 286.398H217.499V334.752H222.214V286.398Z" fill="black"/>
</g>
</g>
<g style="mix-blend-mode:multiply" opacity="0.15">
<g style="mix-blend-mode:multiply" opacity="0.26">
<path d="M199.11 308.989H194.394V334.731H199.11V308.989Z" fill="black"/>
</g>
</g>
<g style="mix-blend-mode:multiply" opacity="0.62">
<g style="mix-blend-mode:multiply" opacity="0.26">
<path d="M268.445 266.916H263.729V334.752H268.445V266.916Z" fill="black"/>
</g>
</g>
<g style="mix-blend-mode:multiply" opacity="0.15">
<g style="mix-blend-mode:multiply" opacity="0.26">
<path d="M245.32 291.382H240.604V334.731H245.32V291.382Z" fill="black"/>
</g>
</g>
<path d="M279.4 341.836H187.619V252.809H189.019V340.436H279.4V341.836Z" fill="#D5DBDA"/>
<path d="M197.05 296.942L196.103 295.892L220.114 274.33L242.354 279.169L266.448 252.356L267.498 253.283L242.869 280.714L220.526 275.854L197.05 296.942Z" fill="#D5DBDA"/>
<path d="M269.372 257.258L262.576 250.729L271.349 248.402L269.372 257.258Z" fill="#D5DBDA"/>
<path d="M295.133 307.177H288.091V314.22H295.133V307.177Z" fill="#B1AFFD"/>
<path d="M295.133 319.513H288.091V326.556H295.133V319.513Z" fill="#FCA70C"/>
<path d="M319.412 322.561H297.089V326.556H319.412V322.561Z" fill="#EFEFEF"/>
<path d="M319.412 310.204H297.089V314.199H319.412V310.204Z" fill="#EFEFEF"/>
<path d="M336.566 307.177H329.523V314.22H336.566V307.177Z" fill="#B1AFFD"/>
<path d="M336.566 319.513H329.523V326.556H336.566V319.513Z" fill="#FCA70C"/>
<path d="M360.824 322.561H338.501V326.556H360.824V322.561Z" fill="#EFEFEF"/>
<path d="M360.824 310.204H338.501V314.199H360.824V310.204Z" fill="#EFEFEF"/>
<path d="M373.859 307.177H366.816V314.22H373.859V307.177Z" fill="#B1AFFD"/>
<path d="M373.859 319.513H366.816V326.556H373.859V319.513Z" fill="#FCA70C"/>
<path d="M390.477 322.561H375.795V326.556H390.477V322.561Z" fill="#EFEFEF"/>
<path d="M390.477 310.204H375.795V314.199H390.477V310.204Z" fill="#EFEFEF"/>
<path d="M390.477 239.876H289.408V241.709H390.477V239.876Z" fill="#EFEFEF"/>
<path d="M390.498 217.306H187.619V221.507H390.498V217.306Z" fill="#EFEFEF"/>
<path d="M390.498 245.581H289.12V247.414H390.498V245.581Z" fill="#EFEFEF"/>
<path d="M390.498 234.151H289.12V235.984H390.498V234.151Z" fill="#EFEFEF"/>
<path d="M390.498 251.306H289.12V253.139H390.498V251.306Z" fill="#EFEFEF"/>
<path d="M390.498 257.01H289.12V258.843H390.498V257.01Z" fill="#EFEFEF"/>
<path d="M390.498 262.736H289.12V264.568H390.498V262.736Z" fill="#EFEFEF"/>
<path d="M390.498 268.44H289.12V270.273H390.498V268.44Z" fill="#EFEFEF"/>
<path d="M390.498 274.165H289.12V275.998H390.498V274.165Z" fill="#EFEFEF"/>
<path d="M390.498 279.87H289.12V281.702H390.498V279.87Z" fill="#EFEFEF"/>
<path d="M390.477 285.595H301.517V287.428H390.477V285.595Z" fill="#EFEFEF"/>
<path d="M397.149 193.376H182.327C179.596 193.376 176.977 194.461 175.046 196.392C173.115 198.323 172.03 200.942 172.03 203.673V212.693H407.466V203.673C407.466 202.319 407.199 200.978 406.68 199.727C406.162 198.477 405.401 197.341 404.443 196.384C403.485 195.428 402.347 194.67 401.096 194.154C399.844 193.637 398.503 193.373 397.149 193.376Z" fill="#66D3FF"/>
<path d="M374.209 206.37C375.846 206.37 377.174 205.043 377.174 203.405C377.174 201.767 375.846 200.439 374.209 200.439C372.571 200.439 371.243 201.767 371.243 203.405C371.243 205.043 372.571 206.37 374.209 206.37Z" fill="#007AFF"/>
<path d="M386.338 206.37C387.976 206.37 389.303 205.043 389.303 203.405C389.303 201.767 387.976 200.439 386.338 200.439C384.7 200.439 383.373 201.767 383.373 203.405C383.373 205.043 384.7 206.37 386.338 206.37Z" fill="#007AFF"/>
<path d="M398.446 206.37C400.084 206.37 401.412 205.043 401.412 203.405C401.412 201.767 400.084 200.439 398.446 200.439C396.809 200.439 395.481 201.767 395.481 203.405C395.481 205.043 396.809 206.37 398.446 206.37Z" fill="#007AFF"/>
<g style="mix-blend-mode:multiply" opacity="0.35">
<path d="M476.616 139.914H421.49C421.86 157.762 422.162 175.61 422.396 193.458C422.591 196.194 422.255 198.942 421.407 201.551C420.687 201.551 420.995 201.737 420.748 203.055C419.468 204.808 417.854 206.291 415.998 207.419C414.143 208.546 412.083 209.296 409.937 209.624C409.881 209.819 409.881 210.026 409.937 210.221C409.683 210.407 409.502 210.674 409.423 210.978C409.344 211.282 409.373 211.604 409.505 211.889C409.752 212.487 412.923 213.29 417.227 212.837C418.867 212.591 420.471 212.149 422.005 211.519C422.642 211.206 423.231 210.804 423.755 210.324C424.305 210.267 424.846 210.135 425.361 209.933L425.526 210.098L430.468 208.038C430.468 208.038 429.933 204.929 429.5 203.302C429.429 203.033 429.318 202.776 429.171 202.54C433.299 191.342 436.536 179.836 438.849 168.128C437.943 182.646 432.671 212.157 432.342 213.166C431.791 214.379 430.929 215.425 429.844 216.199C428.76 216.973 427.49 217.447 426.164 217.573C424.99 217.573 419.245 217.347 419.863 219.983C420.007 220.621 422.993 222.042 427.317 222.248C428.978 222.291 430.638 222.132 432.26 221.775C433.38 221.421 434.422 220.854 435.328 220.106L435.987 220.992L441.217 219.736C441.217 219.736 441.217 218.377 441.217 216.729C441.127 215.587 440.744 214.488 440.105 213.537V210.571L443.009 210.221C443.009 210.221 448.837 191.378 451.596 184.973C452.842 182.38 453.889 179.695 454.726 176.942C455.417 173.633 455.817 170.27 455.921 166.892C456.415 160.75 457.547 154.677 459.298 148.77C459.384 148.388 459.552 148.029 459.792 147.719C460.326 147.268 461.009 147.033 461.707 147.06C469.12 146.381 472.518 147.637 477.152 146.195C483.329 144.301 483.906 141.521 484.215 141.397C481.809 140.393 479.223 139.888 476.616 139.914Z" fill="#5851BC"/>
</g>
<g style="mix-blend-mode:multiply" opacity="0.35">
<g style="mix-blend-mode:multiply" opacity="0.35">
<path d="M496.961 263.333V199.389C487.427 211.869 477.996 223.051 468.461 235.552C464.343 240.968 448.116 258.905 459.174 266.113C461.995 267.946 466.917 267.863 469.367 268.049C478.181 268.667 486.933 266.236 495.499 263.806L496.961 263.333Z" fill="#5851BC"/>
</g>
</g>
<g style="mix-blend-mode:multiply" opacity="0.35">
<path d="M496.962 277.089L491.649 277.501V277.192L487.53 277.522L486.295 274C485.878 272.975 485.152 272.106 484.218 271.512C483.285 270.918 482.19 270.629 481.085 270.685C480.614 270.681 480.149 270.795 479.732 271.016C479.316 271.237 478.961 271.558 478.7 271.95C478.438 272.342 478.278 272.793 478.235 273.263C478.191 273.732 478.265 274.205 478.449 274.639L479.685 278.119L475.34 278.449V278.757L466.382 279.458C464.961 279.458 462.881 281.291 463.334 282.567V282.753C463.324 282.862 463.324 282.973 463.334 283.082L471.077 304.932L470.871 396.986H479.849L496.962 330.86V277.089ZM483 276.41C482.38 276.443 481.766 276.282 481.242 275.95C480.718 275.618 480.31 275.131 480.076 274.556C479.969 274.313 479.924 274.046 479.947 273.78C479.971 273.515 480.06 273.26 480.208 273.038C480.356 272.816 480.557 272.636 480.793 272.512C481.029 272.389 481.292 272.327 481.558 272.332C482.178 272.299 482.793 272.46 483.317 272.792C483.841 273.124 484.248 273.611 484.483 274.186C484.584 274.428 484.624 274.692 484.599 274.953C484.575 275.215 484.486 275.466 484.342 275.686C484.198 275.906 484.002 276.086 483.771 276.213C483.541 276.339 483.283 276.406 483.021 276.41H483Z" fill="#5851BC"/>
</g>
<g style="mix-blend-mode:multiply" opacity="0.35">
<path d="M161.919 239.156C159.81 241.913 158.027 244.905 156.607 248.073C155.597 250.152 153.817 251.755 151.644 252.542C147.71 254.333 143.407 256.063 139.453 257.649V268.09C147.69 263.127 155.144 258.514 155.268 258.473C161.569 260.882 166.82 255.651 168.509 251.862C169.271 250.173 168.138 249.473 168.077 248.67C168.077 248.258 168.591 245.807 168.509 245.478C168.015 243.274 162.105 245.21 162.599 244.16C163.033 242.71 163.894 241.426 165.07 240.474C167.974 238.414 170.198 236.355 170.198 235.469C170.177 234.048 162.599 238.414 161.919 239.156Z" fill="#5851BC"/>
</g>
<path d="M605.608 292.246H495.211C487.307 292.246 480.899 298.654 480.899 306.559V438.709C480.899 446.614 487.307 453.022 495.211 453.022H605.608C613.513 453.022 619.92 446.614 619.92 438.709V306.559C619.92 298.654 613.513 292.246 605.608 292.246Z" fill="#BCC3FC"/>
<path d="M607.668 309.072H497.394C495.381 309.072 493.749 310.704 493.749 312.717V338.459C493.749 340.472 495.381 342.104 497.394 342.104H607.668C609.681 342.104 611.312 340.472 611.312 338.459V312.717C611.312 310.704 609.681 309.072 607.668 309.072Z" fill="#9090F4"/>
<path d="M520.334 353.801H497.394C495.381 353.801 493.749 355.433 493.749 357.446V371.121C493.749 373.134 495.381 374.766 497.394 374.766H520.334C522.347 374.766 523.979 373.134 523.979 371.121V357.446C523.979 355.433 522.347 353.801 520.334 353.801Z" fill="#9090F4"/>
<path d="M564.011 353.801H541.071C539.058 353.801 537.426 355.433 537.426 357.446V371.121C537.426 373.134 539.058 374.766 541.071 374.766H564.011C566.024 374.766 567.656 373.134 567.656 371.121V357.446C567.656 355.433 566.024 353.801 564.011 353.801Z" fill="#9090F4"/>
<path d="M607.688 353.801H584.748C582.735 353.801 581.103 355.433 581.103 357.446V371.121C581.103 373.134 582.735 374.766 584.748 374.766H607.688C609.701 374.766 611.333 373.134 611.333 371.121V357.446C611.333 355.433 609.701 353.801 607.688 353.801Z" fill="#9090F4"/>
<path d="M520.334 387.493H497.394C495.381 387.493 493.749 389.125 493.749 391.138V404.812C493.749 406.825 495.381 408.457 497.394 408.457H520.334C522.347 408.457 523.979 406.825 523.979 404.812V391.138C523.979 389.125 522.347 387.493 520.334 387.493Z" fill="#9090F4"/>
<path d="M564.011 387.493H541.071C539.058 387.493 537.426 389.125 537.426 391.138V404.812C537.426 406.825 539.058 408.457 541.071 408.457H564.011C566.024 408.457 567.656 406.825 567.656 404.812V391.138C567.656 389.125 566.024 387.493 564.011 387.493Z" fill="#9090F4"/>
<path d="M520.334 421.205H497.394C495.381 421.205 493.749 422.837 493.749 424.85V438.524C493.749 440.537 495.381 442.169 497.394 442.169H520.334C522.347 442.169 523.979 440.537 523.979 438.524V424.85C523.979 422.837 522.347 421.205 520.334 421.205Z" fill="#9090F4"/>
<path d="M564.011 421.205H541.071C539.058 421.205 537.426 422.837 537.426 424.85V438.524C537.426 440.537 539.058 442.169 541.071 442.169H564.011C566.024 442.169 567.656 440.537 567.656 438.524V424.85C567.656 422.837 566.024 421.205 564.011 421.205Z" fill="#9090F4"/>
<path d="M607.688 387.493H584.748C582.735 387.493 581.103 389.125 581.103 391.138V438.504C581.103 440.517 582.735 442.149 584.748 442.149H607.688C609.701 442.149 611.333 440.517 611.333 438.504V391.138C611.333 389.125 609.701 387.493 607.688 387.493Z" fill="#9090F4"/>
<g opacity="0.45">
<path opacity="0.45" d="M491.628 310.575C491.628 309.608 492.012 308.681 492.696 307.997C493.379 307.314 494.306 306.93 495.273 306.93H605.547C606.513 306.93 607.44 307.314 608.124 307.997C608.808 308.681 609.192 309.608 609.192 310.575V336.297C609.192 337.263 608.808 338.19 608.124 338.874C607.44 339.558 606.513 339.942 605.547 339.942H495.273" fill="#E2DEFF"/>
<path opacity="0.45" d="M518.213 351.66H495.273C493.26 351.66 491.628 353.291 491.628 355.305V368.979C491.628 370.992 493.26 372.624 495.273 372.624H518.213C520.226 372.624 521.858 370.992 521.858 368.979V355.305C521.858 353.291 520.226 351.66 518.213 351.66Z" fill="#E2DEFF"/>
<path opacity="0.45" d="M561.87 351.66H538.93C536.917 351.66 535.285 353.291 535.285 355.305V368.979C535.285 370.992 536.917 372.624 538.93 372.624H561.87C563.883 372.624 565.515 370.992 565.515 368.979V355.305C565.515 353.291 563.883 351.66 561.87 351.66Z" fill="#E2DEFF"/>
<path opacity="0.45" d="M605.547 351.66H582.607C580.594 351.66 578.962 353.291 578.962 355.305V368.979C578.962 370.992 580.594 372.624 582.607 372.624H605.547C607.56 372.624 609.192 370.992 609.192 368.979V355.305C609.192 353.291 607.56 351.66 605.547 351.66Z" fill="#E2DEFF"/>
<path opacity="0.45" d="M518.213 385.351H495.273C493.26 385.351 491.628 386.983 491.628 388.996V402.67C491.628 404.684 493.26 406.316 495.273 406.316H518.213C520.226 406.316 521.858 404.684 521.858 402.67V388.996C521.858 386.983 520.226 385.351 518.213 385.351Z" fill="#E2DEFF"/>
<path opacity="0.45" d="M561.87 385.351H538.93C536.917 385.351 535.285 386.983 535.285 388.996V402.67C535.285 404.684 536.917 406.316 538.93 406.316H561.87C563.883 406.316 565.515 404.684 565.515 402.67V388.996C565.515 386.983 563.883 385.351 561.87 385.351Z" fill="#E2DEFF"/>
<path opacity="0.45" d="M518.213 419.063H495.273C493.26 419.063 491.628 420.695 491.628 422.708V436.382C491.628 438.396 493.26 440.027 495.273 440.027H518.213C520.226 440.027 521.858 438.396 521.858 436.382V422.708C521.858 420.695 520.226 419.063 518.213 419.063Z" fill="#E2DEFF"/>
<path opacity="0.45" d="M561.87 419.063H538.93C536.917 419.063 535.285 420.695 535.285 422.708V436.382C535.285 438.396 536.917 440.027 538.93 440.027H561.87C563.883 440.027 565.515 438.396 565.515 436.382V422.708C565.515 420.695 563.883 419.063 561.87 419.063Z" fill="#E2DEFF"/>
</g>
<path d="M605.546 385.351H582.606C580.593 385.351 578.961 386.983 578.961 388.996V436.362C578.961 438.375 580.593 440.007 582.606 440.007H605.546C607.559 440.007 609.191 438.375 609.191 436.362V388.996C609.191 386.983 607.559 385.351 605.546 385.351Z" fill="#FCA70C"/>
<path d="M581.103 438.503V391.138C581.103 390.171 581.487 389.244 582.171 388.56C582.854 387.877 583.781 387.493 584.748 387.493H607.668C608.105 387.497 608.537 387.581 608.944 387.74C608.684 387.044 608.217 386.444 607.606 386.02C606.995 385.597 606.269 385.371 605.526 385.372H582.606C581.64 385.372 580.713 385.756 580.029 386.439C579.345 387.123 578.961 388.05 578.961 389.017V436.382C578.961 437.126 579.187 437.851 579.61 438.462C580.033 439.074 580.633 439.541 581.33 439.801C581.175 439.386 581.099 438.946 581.103 438.503Z" fill="#F9C110"/>
<g style="mix-blend-mode:multiply" opacity="0.35">
<path d="M480.899 330.139L484.627 339.942H500.215C500.215 339.942 499.124 382.324 499.062 390.252C499 398.181 505.59 453.063 505.59 453.063H514.61L513.662 383.971L526.471 348.529C526.471 348.529 536.088 395.895 540.083 403.927C544.078 411.958 565.535 453.063 565.535 453.063H573.772L552.562 362.142L543.439 330.571L497.435 309.072L480.961 310.698" fill="#5851BC"/>
</g>
<path d="M99.5237 195.765C102.283 200.542 99.8944 207.05 102.695 211.807C103.807 213.702 105.702 215.205 106.237 217.347C106.457 218.251 106.412 219.199 106.108 220.077C105.803 220.956 105.252 221.729 104.52 222.302C103.787 222.876 102.905 223.226 101.979 223.312C101.053 223.397 100.122 223.214 99.2972 222.784C98.9592 222.57 98.6004 222.39 98.2263 222.248C96.8466 221.836 95.6111 223.072 94.4167 223.875C93.7018 224.395 92.8777 224.746 92.0069 224.899C91.1361 225.053 90.2417 225.005 89.3921 224.761C88.3724 224.291 87.4721 223.598 86.7588 222.731C86.0455 221.864 85.5377 220.847 85.2735 219.756C83.2143 213.764 84.697 207.215 86.5297 201.222C87.4564 198.215 88.8155 194.858 91.7603 193.767" fill="#24005A"/>
<path d="M163.628 246.508C163.628 247.167 164.679 247.743 164.02 249.144C162.516 252.253 157.842 256.578 152.261 254.58C152.014 254.58 121.372 272.373 119.025 272.373C116.677 272.373 100.491 257.155 95.3227 238.332C94.0665 233.842 94.5608 228.55 98.7617 226.285C100.021 226.712 101.183 227.388 102.177 228.272C103.171 229.157 103.977 230.231 104.548 231.433C108.028 238.002 118.448 259.77 120.775 260.594C123.658 258.679 137.682 254.416 149.049 249.679C150.939 249.067 152.519 247.745 153.456 245.993C154.728 243.363 156.312 240.894 158.171 238.641C158.789 238.023 165.502 234.419 165.502 235.593C165.502 236.273 163.443 238.085 160.951 239.712C159.926 240.477 159.163 241.542 158.769 242.76C158.336 243.625 163.587 242.039 164.02 243.851C164.082 244.139 163.587 246.158 163.628 246.508Z" fill="#FFB9B0"/>
<path d="M97.4645 225.729C99.4103 226.177 101.236 227.043 102.814 228.266C104.393 229.489 105.687 231.041 106.608 232.813C107.078 233.743 107.498 234.699 107.864 235.675C109.491 239.794 111.735 243.583 113.362 247.723C111.167 249.271 108.732 250.447 106.155 251.203C104.012 252.001 101.719 252.31 99.4414 252.109C99.0525 252.092 98.6694 252.009 98.3088 251.862C97.8512 251.612 97.4513 251.268 97.135 250.853C96.4348 250.057 95.7484 249.24 95.0757 248.402C94.4681 247.72 94.0057 246.921 93.7166 246.055C93.5062 244.832 93.6198 243.575 94.0461 242.41" fill="#007FFF"/>
<g style="mix-blend-mode:multiply" opacity="0.35">
<g style="mix-blend-mode:multiply" opacity="0.35">
<path d="M101.583 237.076C101.451 236.884 101.275 236.729 101.068 236.623C100.857 236.567 100.633 236.585 100.434 236.675C100.235 236.765 100.074 236.921 99.9767 237.117C99.7908 237.515 99.7126 237.956 99.7501 238.394C99.7698 240.077 100.033 241.749 100.533 243.357L100.018 252.109C102.117 252.234 104.22 251.925 106.196 251.203C107.143 250.853 108.255 250.482 109.202 250.07C108.173 245.066 104.816 240.947 101.583 237.076Z" fill="#3E29BB"/>
</g>
</g>
<path d="M87.9713 217.038C87.9713 217.038 87.8477 222.516 88.692 222.887C89.839 223.352 91.0241 223.717 92.234 223.978V235.325L77.119 233.039L66.7197 227.252C66.7197 227.252 77.5308 223.669 77.6338 222.598C77.7368 221.527 77.0366 215.452 77.0366 215.452" fill="#FFB9B0"/>
<path d="M64.7222 381.191C60.6037 400.817 62.56 427.754 61.6333 442.519C61.8598 442.519 67.2551 443.261 67.2551 443.261C67.2551 443.261 80.0431 381.006 82.3701 369.123C82.5189 368.362 82.6152 367.591 82.6584 366.817C83.2144 357.838 75.1421 357.385 70.5705 364.757C69.7897 366.038 69.1015 367.373 68.5112 368.752C68.2641 369.329 68.017 369.926 67.7699 370.565C66.9685 372.584 66.281 374.647 65.7106 376.743V376.969C65.5253 377.587 65.3605 378.226 65.2164 378.864V379.008C65.0105 379.832 64.8663 380.491 64.7222 381.191Z" fill="#FFB9B0"/>
<path d="M88.9596 310.781C88.8154 312.408 87.9505 320.13 86.9003 329.315C86.0148 336.976 85.047 345.605 84.2851 352.442C83.7291 357.57 83.3172 361.668 83.1319 363.583C83.0553 364.697 82.9039 365.805 82.6788 366.899C80.7225 375.857 74.4418 376.372 70.7763 374.292C70.2674 374.025 69.7907 373.7 69.3554 373.324C68.5443 372.646 67.9796 371.72 67.7492 370.688C67.5021 368.855 67.2755 366.343 67.049 363.357C66.596 357.529 66.2047 350.053 65.8546 342.763C65.4428 333.805 65.1751 325.176 65.1133 320.295C65.1133 320.007 65.1133 319.76 65.1133 319.492C65.1133 304.562 78.7662 294.985 87.2916 299.619L87.6004 299.763L87.9299 299.948C88.8978 300.607 89.2273 302.832 89.2479 305.385C89.2273 307.053 89.0831 309.092 88.9596 310.781Z" fill="#FFB9B0"/>
<path d="M68.0787 367.105L67.0285 363.192C67.0988 367.777 66.6637 372.356 65.7311 376.846V377.072C65.587 377.69 65.4222 378.349 65.2369 378.967V379.111C65.0242 379.781 64.8793 380.471 64.8044 381.17C64.8044 382.941 68.5729 374.992 69.4378 373.221L69.6025 372.851L68.5729 368.732L68.0787 367.105Z" fill="#FFB9B0"/>
<path d="M97.6292 384.939C97.2379 405.533 103.58 429.628 105.248 444.558C105.454 444.558 110.438 443.899 110.438 443.899C110.438 443.899 111.385 380.965 111.447 368.526C111.454 367.735 111.413 366.944 111.323 366.158C110.294 357.096 102.963 358.641 100.121 367.167C99.6288 368.637 99.2298 370.136 98.9265 371.656C98.8029 372.295 98.6794 372.954 98.5559 373.715C98.1965 375.946 97.9491 378.194 97.8145 380.45V380.697C97.8145 381.376 97.8145 382.035 97.6909 382.756V382.9C97.6703 383.518 97.6497 384.218 97.6292 384.939Z" fill="#FFB9B0"/>
<path d="M101.912 376.557C101.403 376.416 100.918 376.201 100.471 375.919C99.5888 375.434 98.9149 374.643 98.5764 373.695C98.041 371.924 97.4026 369.453 96.6818 366.528C95.3021 360.865 93.6547 353.513 92.1103 346.346C90.2158 337.532 88.5272 329.006 87.6417 324.167C87.6417 323.899 86.818 320.378 86.7562 320.048C84.1203 305.035 95.8169 295.336 104.322 298.136L104.651 298.26C106.36 298.939 106.834 304.953 107.225 309.03C107.617 313.108 110.499 355.222 111.22 362.842C111.332 363.978 111.38 365.119 111.364 366.261C111.138 375.61 105.701 377.669 101.912 376.557Z" fill="#FFB9B0"/>
<path d="M98.2674 370.112L96.6611 366.487C97.508 371.071 97.8944 375.727 97.8144 380.388V380.635C97.8144 381.294 97.8143 381.974 97.6908 382.694V382.839C97.6323 383.524 97.6323 384.213 97.6908 384.898C97.9791 386.669 100.038 377.896 100.512 375.857V375.445L98.9058 371.615L98.2674 370.112Z" fill="#FFB9B0"/>
<path d="M72.1974 281.95C72.1974 281.95 61.1803 295.933 62.3129 309.998C62.7865 315.847 63.5073 321.016 64.1663 326.885C64.1663 327.73 65.5871 340.086 65.2165 340.106C65.2165 340.106 87.8684 347.129 109.841 337.923C109.841 336.42 111.591 307.651 99.7503 280.261C90.6187 281.488 81.4104 282.052 72.1974 281.95Z" fill="#555BE4"/>
<path d="M106.669 249.638C106.669 253.654 104.445 256.084 101.398 259.461C100.506 264.575 99.9489 269.741 99.7295 274.927C99.5648 278.016 100.883 279.952 99.7295 280.22C95.3227 284.05 79.4664 287.18 72.1766 281.929C72.9385 275.462 70.1173 261.335 68.058 254.004C67.7491 252.892 67.4815 251.944 67.2343 251.224C65.4222 245.725 62.1274 228.097 64.5573 227.335L66.6166 226.717C70.4262 225.564 76.048 223.607 76.048 223.607C76.048 223.607 79.3428 233.369 87.9093 234.543C92.5838 232.607 92.172 226.696 92.0278 223.978C93.5517 224.411 94.2313 224.822 98.9676 226.223C100.306 228.138 99.1529 232.133 101.295 238.105C102.036 239.588 106.772 244.757 106.669 249.638Z" fill="#007FFF"/>
<path d="M98.9058 194.652C98.9058 194.652 99.7706 205.258 97.9585 210.798C96.9793 213.05 95.3904 214.984 93.3711 216.381C91.3517 217.778 88.9821 218.584 86.5296 218.706C73.8857 218.706 71.5999 201.51 71.6823 200.686C71.7647 199.863 90.3392 192.634 90.3392 192.634L98.9058 194.652Z" fill="#FFB9B0"/>
<path d="M122.999 450.53C118.489 451.333 113.691 450.077 111.714 450.407C110.088 450.674 105.887 451.745 104.322 450.407C102.757 449.068 103.004 444.023 104.816 443.364C105.198 443.495 105.59 443.592 105.99 443.652C107.778 443.899 109.598 443.752 111.323 443.22C113.663 444.506 116.173 445.456 118.778 446.041C120.479 446.371 122.142 446.875 123.741 447.544C125.409 448.244 125.532 450.077 122.999 450.53Z" fill="#DA446E"/>
<path d="M74.3801 452.507C69.8703 451.745 67.0079 449.254 65.031 448.903C63.4042 448.615 59.3063 447.812 58.8532 446.123C58.5237 444.867 59.7799 439.677 61.695 439.657C62.0106 439.907 62.3483 440.127 62.704 440.316C64.3039 441.155 66.0682 441.633 67.8728 441.716C69.638 443.715 71.6761 445.455 73.9271 446.885C75.4011 447.773 76.781 448.808 78.0456 449.974C79.4459 451.272 76.8718 452.94 74.3801 452.507Z" fill="#DA446E"/>
<path d="M8.62769 242.08L12.7462 237.158L38.034 259.811C38.034 259.811 50.3896 243.336 53.7668 238.25C57.494 232.607 60.8712 227.788 66.3283 226.841C67.5844 227.623 65.8958 247.867 65.2369 248.361C57.6176 254.066 42.7703 272.476 38.0546 273.424C32.6181 274.495 8.62769 242.08 8.62769 242.08Z" fill="#FFB9B0"/>
<path d="M68.2228 225.893C68.2228 225.893 63.054 225.893 60.83 227.788C58.606 229.683 48.0008 246.425 48.0008 246.425C47.9961 247.546 48.2435 248.654 48.7247 249.666C49.2059 250.679 49.9086 251.57 50.7808 252.274C52.9769 254.056 55.6191 255.203 58.4207 255.589C58.4207 255.589 63.7542 250.297 66.6577 247.867C68.5317 246.363 68.717 250.091 68.717 250.091L78.1073 240.927L68.2228 225.893Z" fill="#007FFF"/>
<path d="M65.0928 226.099L64.2691 225.626C62.7655 224.927 61.5606 223.715 60.8713 222.207C59.8395 219.558 59.8395 216.618 60.8713 213.969C61.9231 212.554 63.0869 211.224 64.3514 209.995C65.7113 207.945 66.4284 205.535 66.4107 203.075C66.3804 200.636 66.5457 198.198 66.9049 195.785C67.7904 191.666 68.9642 187.815 72.0942 185.179C77.1394 181.061 87.2298 178.466 92.6869 183.12C93.6959 183.964 93.8813 184.665 95.2404 184.788C96.8643 184.851 98.448 185.31 99.8532 186.127C101.665 187.177 103.848 188.639 103.58 191.007C103.092 193.043 101.867 194.826 100.141 196.012C99.541 196.311 98.8765 196.46 98.2057 196.444C96.1464 196.444 94.2931 195.085 92.1927 195.311C91.1569 195.436 90.2108 195.961 89.5568 196.774C88.7949 197.7 88.8979 199.018 88.0124 199.883C86.5915 201.284 84.3881 201.16 82.7201 202.087C82.4306 202.218 82.1816 202.424 81.9993 202.684C81.8636 202.966 81.8 203.277 81.814 203.59V206.247C80.9903 205.876 80.8873 204.702 80.2078 204.187C79.8483 203.934 79.4126 203.812 78.9739 203.842C78.5351 203.872 78.1201 204.052 77.7985 204.352C77.1771 204.978 76.7729 205.786 76.6453 206.659C76.5422 207.739 76.7047 208.827 77.1189 209.83C77.6749 211.642 79.1781 213.249 80.4549 212.075C81.3609 213.413 80.4549 215.638 80.3313 217.141C80.3313 218.335 80.3313 220.704 81.4433 221.486C82.5553 222.269 84.0998 221.651 84.1616 223.546C84.0802 224.393 83.6998 225.184 83.0885 225.776C82.4772 226.369 81.675 226.724 80.8256 226.779C79.1229 226.833 77.427 226.539 75.8421 225.914C74.2463 225.285 72.4881 225.198 70.8381 225.667C69.9494 226.179 69.0111 226.6 68.0375 226.923C66.9889 227.011 65.9438 226.718 65.0928 226.099Z" fill="#310072"/>
<path d="M19.2123 242.904C19.2123 242.904 13.261 238.147 12.8698 236.829C12.4785 235.511 12.3756 234.131 11.8813 232.854C11.5074 231.926 10.9499 231.082 10.2422 230.374C9.5345 229.667 8.69118 229.109 7.7628 228.735C6.28013 228.117 7.00087 227.623 5.41524 227.932C3.0059 228.406 1.8733 230.753 0.905447 232.607C-3.21308 240.474 8.03051 241.956 8.44236 241.977C9.26607 241.977 13.4464 246.755 13.4464 246.755" fill="#FFB9B0"/>
<path d="M392.66 73.2109C392.66 73.2109 387.862 69.8335 387.697 68.4125C386.569 65.4607 385.023 62.6865 383.105 60.175C380.676 58.6524 378.011 57.5457 375.218 56.9006C374.023 56.7359 367.125 57.3125 367.99 58.2598C368.855 59.2071 373.303 58.857 374.168 59.3719L375.033 59.8867C375.033 59.8867 374.168 61.04 374.518 61.7607C374.868 62.4815 373.056 63.5524 373.735 64.7469C374.415 65.9413 373.467 65.8589 374.065 67.1151C375.074 69.1745 377.668 70.3278 378.348 69.7717C378.863 70.9868 380.84 73.4992 382.672 73.3139C384.505 73.1285 388.994 77.4326 388.994 77.4326" fill="#FFB9B0"/>
<path d="M465.826 49.1368C465.99 52.3494 465.826 57.9715 466.69 58.7953C467.555 59.619 470.582 59.4955 470.582 59.4955C470.582 59.4955 459.936 72.9638 458.989 72.2224C458.042 71.4811 445.439 61.2253 448.281 60.6899C451.122 60.1545 453.882 60.278 453.799 58.8159L453.552 54.4294" fill="#FFB9B0"/>
<path d="M477.954 121.03C477.954 121.03 457.176 123.398 452.399 123.48C447.621 123.563 447.848 121.091 447.848 121.091C447.583 113.768 446.896 106.465 445.789 99.2209C444.862 95.2874 444.45 93.8459 443.729 90.1184C441.938 81.8809 442.02 80.254 440.126 70.0189L452.481 60.0515C453.027 61.2916 453.944 62.3319 455.106 63.029C456.268 63.7261 457.617 64.0457 458.968 63.9437C460.788 64.1146 462.618 63.7543 464.237 62.9063C465.856 62.0583 467.195 60.7591 468.091 59.166L485.018 70.4102L486.603 97.7381L484.544 120.247" fill="#FCA70C"/>
<path d="M466.073 46.2125C465.697 47.8372 465.208 49.4336 464.61 50.9903C464.273 52.2168 463.514 53.2852 462.467 54.0081C461.42 54.7311 460.152 55.0625 458.886 54.9443L452.523 55.0884C450.796 55.3457 449.034 54.9728 447.56 54.0381C446.511 52.7288 445.938 51.1026 445.933 49.4251C445.562 47.4207 445.26 45.4025 445.027 43.3705C444.574 39.3991 444.388 35.4018 444.471 31.4056C444.466 30.8531 444.515 30.3014 444.615 29.7581C444.646 29.5376 444.739 29.3305 444.883 29.1608C445.101 28.9879 445.367 28.8871 445.645 28.8725C449.621 28.2481 453.647 27.9931 457.671 28.1106C460.517 27.9363 463.347 28.6563 465.764 30.1699C467.858 32.1447 469.35 34.6723 470.068 37.4601C470.232 37.8926 470.335 38.4692 469.965 38.7369" fill="#FFB9B0"/>
<path d="M419.472 195.126C419.767 196.997 420.18 198.847 420.707 200.666C421.263 202.087 425.897 200.769 426.206 199.863C425.953 197.277 425.463 194.719 424.743 192.222" fill="#ED9C80"/>
<path d="M427.812 201.037C428.203 202.56 428.718 205.485 428.718 205.485L424.084 207.544L423.322 206.823C422.605 207.67 421.731 208.369 420.748 208.883C419.308 209.475 417.8 209.89 416.259 210.118C412.141 210.551 409.237 209.789 408.99 209.233C407.981 206.885 413.356 206.267 414.426 205.979C415.65 205.661 416.767 205.021 417.661 204.127C418.555 203.233 419.194 202.116 419.513 200.892C419.739 199.657 419.513 199.451 420.131 199.492C420.349 199.499 420.564 199.55 420.762 199.642C420.96 199.734 421.137 199.865 421.284 200.027C421.686 200.48 422.22 200.797 422.81 200.933C423.4 201.07 424.018 201.019 424.579 200.789C425.256 200.519 425.832 200.044 426.226 199.43C426.618 199.515 426.977 199.711 427.259 199.997C427.54 200.282 427.732 200.644 427.812 201.037Z" fill="#38287C"/>
<path d="M439.941 141.109C432.134 142.487 424.163 142.674 416.3 141.665C417.33 144.589 419.842 148.358 420.79 152.497C423.94 166.13 425.032 184.459 425.835 195.744C425.835 195.744 424.311 198.648 419.472 196.444C412.223 178.528 399.558 142.221 399.682 134.354C399.826 124.325 424.867 121.998 443.194 119.444" fill="#453087"/>
<path d="M471.9 121.05C477.666 125.169 439.941 141.129 439.941 141.129C435.871 141.928 431.732 142.321 427.585 142.303C427.168 141.568 426.856 140.777 426.658 139.955C426.432 138.864 426.555 137.711 426.37 136.619C426.135 135.554 425.677 134.551 425.028 133.674C424.379 132.798 423.552 132.068 422.602 131.533C420.695 130.454 418.597 129.755 416.424 129.473C411.772 128.996 407.087 128.913 402.421 129.226C413.767 120.865 436.975 119.773 447.725 119.094C449.825 122.554 471.077 120.432 471.9 121.05Z" fill="#38287C"/>
<path d="M431.415 204.661C431.385 206.559 431.475 208.458 431.683 210.345C431.971 211.828 436.769 211.354 437.222 210.51C437.418 207.923 437.377 205.325 437.099 202.746" fill="#ED9C80"/>
<path d="M438.623 211.931C438.746 213.496 438.746 216.461 438.746 216.461L433.845 217.635L433.228 216.791C432.376 217.493 431.397 218.024 430.345 218.356C428.824 218.694 427.268 218.846 425.711 218.809C421.593 218.541 418.854 217.264 418.71 216.75C418.133 214.278 423.528 214.587 424.62 214.484C425.879 214.383 427.089 213.949 428.124 213.225C429.159 212.501 429.982 211.514 430.509 210.366C430.962 209.192 430.695 208.924 431.354 209.089C431.57 209.134 431.775 209.224 431.955 209.351C432.136 209.479 432.288 209.642 432.404 209.83C432.722 210.344 433.192 210.747 433.749 210.983C434.306 211.219 434.922 211.277 435.513 211.148C436.228 210.993 436.876 210.619 437.367 210.077C437.733 210.232 438.046 210.489 438.269 210.818C438.492 211.147 438.615 211.533 438.623 211.931Z" fill="#38287C"/>
<path d="M484.483 120.206C475.985 120.946 467.454 121.221 458.927 121.03C455.653 121.03 430.962 125.663 428.594 129.844C424.702 136.722 431.127 176.962 430.53 205.773C430.53 205.773 433.495 208.244 438.767 205.917C440.064 191.769 448.425 158.387 442.659 142.797C456.271 144.61 467.267 146.401 479.726 142.303C481.258 141.784 482.64 140.897 483.749 139.719C484.859 138.541 485.662 137.109 486.089 135.548C487.282 130.398 486.717 124.997 484.483 120.206Z" fill="#453087"/>
<path d="M452.399 60.0309L448.857 60.2368C446.362 60.3592 443.895 60.8235 441.526 61.6166C438.17 62.8728 435.781 65.9825 433.042 68.4331C430.303 70.8838 416.733 83.8167 414.179 84.2903C411.626 84.764 389.242 69.4217 389.242 69.4217L383.702 74.9202C383.702 74.9202 407.981 97.3674 415.229 97.4086C418.751 97.4086 438.129 87.2147 444.327 83.2607L452.399 60.0309Z" fill="#FCA70C"/>
<g style="mix-blend-mode:multiply" opacity="0.25">
<path d="M415.373 93.0839C410.39 93.3722 387.512 75.8881 384.855 73.8493L383.805 74.9202C383.805 74.9202 408.084 97.3674 415.332 97.4086C418.256 97.4086 432.198 90.3449 440.373 85.6907L442.432 84.4757L441.155 76.9384C441.155 76.9384 420.769 92.7956 415.373 93.0839Z" fill="#CE4A30"/>
</g>
<path d="M392.083 124.695H447.683L437.717 92.1984C437.447 91.3181 436.9 90.5483 436.158 90.003C435.416 89.4577 434.519 89.166 433.598 89.1711H384.938C384.504 89.1719 384.077 89.2739 383.69 89.4692C383.303 89.6644 382.967 89.9474 382.709 90.2955C382.451 90.6436 382.278 91.0473 382.204 91.4742C382.129 91.9011 382.156 92.3395 382.281 92.7544L392.083 124.695Z" fill="#A4A4F7"/>
<path d="M391.383 124.695H446.139L436.172 92.1984C435.905 91.3164 435.359 90.5447 434.617 89.9989C433.874 89.4531 432.975 89.1627 432.054 89.1711H383.393C382.96 89.1719 382.533 89.2739 382.146 89.4692C381.759 89.6644 381.423 89.9474 381.165 90.2955C380.907 90.6436 380.734 91.0472 380.659 91.4742C380.585 91.9011 380.612 92.3395 380.737 92.7544L390.292 123.892C390.363 124.126 390.507 124.33 390.704 124.475C390.901 124.62 391.139 124.697 391.383 124.695Z" fill="#7A74D1"/>
<g style="mix-blend-mode:multiply" opacity="0.25">
<g style="mix-blend-mode:multiply" opacity="0.25">
<path d="M476.863 75.6822C474.736 85.9824 473.36 96.4234 472.745 106.923C463.025 110.692 459.071 116.314 449.578 120.535C449.578 120.535 442.082 119.279 441.341 122.121C440.888 123.748 450.134 125.045 450.134 125.045C458.948 125.045 482.176 118.641 483.741 118.208C485.306 117.776 489.919 88.2444 490.084 72.2224C490.348 69.9409 489.825 67.6375 488.601 65.6942C487.8 64.8162 486.825 64.1148 485.739 63.6348C480.253 60.7951 474.184 59.2655 468.008 59.166" fill="#CE4A30"/>
</g>
</g>
<path d="M450.958 122.492C450.346 121.913 449.612 121.481 448.809 121.228C448.007 120.975 447.157 120.907 446.324 121.03C445.084 121.058 443.847 121.154 442.618 121.318C442.062 121.318 441.403 121.524 441.361 122.142C441.32 122.76 444.08 122.142 445.48 122.554C442.624 122.796 439.757 122.872 436.893 122.78C436.567 122.713 436.23 122.713 435.904 122.78C435.745 122.835 435.606 122.937 435.507 123.074C435.407 123.21 435.352 123.373 435.348 123.542C435.389 123.804 435.529 124.04 435.74 124.201C436.597 124.868 437.625 125.282 438.705 125.396C443.076 126.299 447.616 125.898 451.761 124.242" fill="#FFB9B0"/>
<path d="M476.266 75.4556C476.039 88.821 475.092 94.9579 475.339 108.406C468.626 109.847 459.339 117.446 449.825 121.668C449.508 122.828 449.618 124.063 450.134 125.148C450.855 125.416 482.197 117.776 484.688 115.49C487.18 113.204 489.898 88.3473 490.084 72.243C490.348 69.9615 489.825 67.6581 488.601 65.7148C487.8 64.8368 486.825 64.1354 485.738 63.6554C480.253 60.8157 474.184 59.2861 468.008 59.1865" fill="#FCA70C"/>
<path opacity="0.45" d="M419.636 107.5C419.842 110.342 416.465 112.669 412.12 112.669C407.775 112.669 404.068 110.362 403.883 107.5C403.698 104.637 407.054 102.331 411.399 102.331C415.744 102.331 419.431 104.637 419.636 107.5Z" stroke="#A4A4F7" stroke-miterlimit="10"/>
<path d="M416.753 107.5C416.877 109.085 414.694 110.362 411.976 110.362C409.258 110.362 406.869 109.085 406.745 107.5C406.622 105.914 408.805 104.637 411.523 104.637C414.241 104.637 416.65 105.914 416.753 107.5Z" fill="#A4A4F7"/>
<path d="M456.27 37.666C456.168 37.1718 455.055 37.0688 453.943 37.213C452.341 37.3289 450.762 37.6615 449.248 38.2015C448.631 38.6751 448.672 39.0252 448.342 39.0458C448.013 39.0664 447.992 38.7369 447.292 38.428C446.122 38.2038 444.92 38.2038 443.75 38.428C442.638 38.5722 441.567 38.8193 441.691 39.3341C441.691 39.8817 441.848 40.4177 442.144 40.8787C442.37 41.0228 442.37 41.0022 443.256 42.938C443.323 43.2173 443.448 43.4794 443.623 43.7074C443.798 43.9354 444.019 44.1244 444.271 44.2621C444.523 44.3998 444.801 44.4832 445.087 44.507C445.373 44.5308 445.662 44.4944 445.933 44.4002C447.766 44.0089 447.889 41.9083 447.992 41.0434C448.095 40.1785 448.26 40.0343 448.548 40.0137C448.837 39.9931 449.022 40.0137 449.372 40.8787C449.722 41.7436 449.99 43.5558 451.864 43.6588C454.335 43.803 455.385 42.9586 455.735 41.3729C456.188 39.3135 456.085 39.3135 456.27 39.0252C456.885 39.0323 457.498 39.0874 458.103 39.19V38.5516C457.471 38.3018 456.859 38.0059 456.27 37.666ZM447.333 41.9701C447.385 42.5071 447.225 43.0431 446.886 43.4629C446.547 43.8826 446.057 44.1526 445.521 44.2148C444.389 44.359 443.874 43.7618 443.256 42.3202C442.817 41.5229 442.685 40.5926 442.885 39.7048C443.071 39.3547 443.688 39.3753 445.089 39.2723C446.489 39.1694 446.963 39.1488 447.148 39.7666C447.316 40.4882 447.379 41.2305 447.333 41.9701ZM455.364 40.7963C455.138 42.3408 454.561 43.1028 453.017 43.2881C450.834 43.5558 450.402 42.6909 450.072 41.6406C449.841 40.9763 449.702 40.2834 449.66 39.5812C449.66 38.9222 450.196 38.8399 451.575 38.5722C452.955 38.3044 454.808 37.9955 455.076 38.2838C455.45 39.0586 455.545 39.9391 455.344 40.7757L455.364 40.7963Z" fill="#483A99"/>
<path d="M471.118 34.2474C470.989 33.1361 470.782 32.0351 470.5 30.9524C470.158 29.5361 469.526 28.2063 468.643 27.0471C467.761 25.8879 466.647 24.9246 465.373 24.2183C461.772 22.4293 457.641 22.0191 453.758 23.065C451.699 23.6622 450.834 24.7743 449.743 24.7537C448.716 24.5539 447.719 24.2216 446.777 23.7652C438.54 20.7791 439.858 28.9136 440.744 31.1583C441.135 32.1469 443.03 32.8676 443.277 33.2177C443.48 34.313 443.611 35.4207 443.668 36.5333C443.731 36.8029 443.858 37.0535 444.037 37.2647C444.216 37.476 444.442 37.6417 444.698 37.7484C444.698 37.7484 444.698 35.133 444.698 34.7829C444.715 34.3096 444.835 33.8457 445.048 33.4228C445.261 32.9998 445.563 32.6279 445.933 32.3322C446.86 31.8489 447.876 31.5615 448.919 31.4879C451.015 31.5367 453.094 31.8763 455.097 32.4969C456.641 33.8355 457.053 36.8628 457.486 38.6751C457.691 39.5194 457.897 40.0755 458.248 40.0549C458.515 37.6042 459.36 37.5424 460.822 38.3662C461.258 38.7995 461.596 39.3217 461.813 39.8974C462.03 40.4731 462.12 41.0887 462.078 41.7024C462.137 42.497 461.924 43.2881 461.475 43.9464C461.027 44.6048 460.368 45.0914 459.607 45.3269C459.009 45.4504 460.78 48.8072 461.666 49.6516C461.92 49.942 462.211 50.1982 462.531 50.4136C462.849 50.5825 463.188 50.7072 463.54 50.7842L464.734 51.1137C465.254 51.3069 465.816 51.3567 466.361 51.2579C467.246 51.0108 467.7 50.084 468.091 49.1985C468.75 47.8599 469.491 46.5419 470.026 45.0798C471.212 41.5995 471.585 37.8942 471.118 34.2474Z" fill="#3B2E7A"/>
<path d="M230.019 93.8871H364.078L348.015 82.0045V8.64938C347.988 6.346 347.054 4.14618 345.416 2.52699C343.777 0.907812 341.567 -0.000159399 339.263 2.09894e-08H230.019C227.698 2.09894e-08 225.472 0.922122 223.831 2.56351C222.19 4.20489 221.268 6.43109 221.268 8.75236V85.2171C221.289 87.5241 222.221 89.7291 223.86 91.3528C225.499 92.9764 227.713 93.8872 230.019 93.8871Z" fill="#D5D2FF"/>
<g opacity="0.45">
<path opacity="0.45" d="M232.923 19.3582L294.186 19.3582V13.4889L232.923 13.4889V19.3582Z" fill="white"/>
<path opacity="0.45" d="M232.923 28.131L294.186 28.131V22.2618L232.923 22.2618V28.131Z" fill="white"/>
<path opacity="0.45" d="M232.923 36.8834L294.186 36.8834V31.0142L232.923 31.0142V36.8834Z" fill="white"/>
<path opacity="0.45" d="M232.923 45.4093L294.186 45.4093V39.5401L232.923 39.5401V45.4093Z" fill="white"/>
<path opacity="0.45" d="M232.923 53.9557L294.186 53.9557V48.0865L232.923 48.0865V53.9557Z" fill="white"/>
<path opacity="0.45" d="M232.923 69.4628L294.186 69.4628V63.5936L232.923 63.5936V69.4628Z" fill="white"/>
<path opacity="0.45" d="M232.923 78.7094L337.492 78.7094V72.8402L232.923 72.8402V78.7094Z" fill="white"/>
</g>
<path d="M307.88 58.507L328.617 58.507C333.518 58.507 337.492 54.5331 337.492 49.631V22.3854C337.492 17.4834 333.518 13.5095 328.617 13.5095L307.88 13.5095C302.978 13.5095 299.005 17.4834 299.005 22.3854V49.631C299.005 54.5331 302.978 58.507 307.88 58.507Z" fill="#C4C4F7"/>
<path opacity="0.45" d="M299.005 68.948H337.492V64.1085H299.005V68.948Z" fill="white"/>
<path d="M314.428 42.7115H328.39C328.772 42.7122 329.144 42.5878 329.449 42.3573C329.754 42.1267 329.975 41.8027 330.079 41.4347L332.756 31.5085C332.825 31.2493 332.834 30.9776 332.782 30.7144C332.73 30.4512 332.617 30.2036 332.454 29.9906C332.291 29.7777 332.081 29.605 331.841 29.4862C331.6 29.3673 331.335 29.3053 331.067 29.3049H311.731C311.462 29.3053 311.198 29.3673 310.957 29.4862C310.717 29.605 310.507 29.7777 310.343 29.9906C310.18 30.2036 310.068 30.4512 310.016 30.7144C309.964 30.9776 309.973 31.2493 310.042 31.5085L312.719 41.4347C312.823 41.8061 313.048 42.1327 313.357 42.3636C313.666 42.5945 314.042 42.7168 314.428 42.7115Z" fill="white"/>
<path d="M311.978 44.9357H328.802C328.895 44.9357 328.984 44.8988 329.05 44.8331C329.115 44.7675 329.152 44.6784 329.152 44.5856C329.152 44.4927 329.115 44.4037 329.05 44.338C328.984 44.2724 328.895 44.2355 328.802 44.2355H312.328L306.48 23.827C306.458 23.7563 306.414 23.6943 306.355 23.6499C306.296 23.6055 306.224 23.581 306.15 23.5799H302.485C302.392 23.5799 302.303 23.6168 302.237 23.6824C302.172 23.7481 302.135 23.8372 302.135 23.93C302.135 24.0229 302.172 24.1119 302.237 24.1776C302.303 24.2432 302.392 24.2801 302.485 24.2801H305.883L311.628 44.6885C311.651 44.7627 311.697 44.8272 311.761 44.8719C311.824 44.9166 311.901 44.9391 311.978 44.9357Z" fill="white"/>
<path d="M328.246 49.7134C329.372 49.7134 330.285 48.8006 330.285 47.6746C330.285 46.5487 329.372 45.6359 328.246 45.6359C327.12 45.6359 326.208 46.5487 326.208 47.6746C326.208 48.8006 327.12 49.7134 328.246 49.7134Z" fill="white"/>
<path d="M313.461 49.7134C314.586 49.7134 315.499 48.8006 315.499 47.6746C315.499 46.5487 314.586 45.6359 313.461 45.6359C312.335 45.6359 311.422 46.5487 311.422 47.6746C311.422 48.8006 312.335 49.7134 313.461 49.7134Z" fill="white"/>
<path d="M540.083 480C572.712 480 599.163 477.215 599.163 473.781C599.163 470.346 572.712 467.561 540.083 467.561C507.454 467.561 481.002 470.346 481.002 473.781C481.002 477.215 507.454 480 540.083 480Z" fill="#EAE6FF" fill-opacity="0.5"/>
<path d="M508.391 464.946C506.781 467.023 504.649 468.637 502.213 469.621C498.918 471.083 491.916 471.68 495.829 473.081C499.332 473.958 502.991 474.007 506.517 473.225C508.904 472.892 511.314 472.748 513.724 472.792C517.287 472.792 517.307 472.545 516.834 468.529C516.175 462.99 509.997 461.816 508.391 464.946Z" fill="#9AA3F4"/>
<path d="M572.887 462.928C572.681 464.04 574.267 467.417 571.445 469.909C568.624 472.401 562.179 474.996 566.441 475.099C570.057 475.191 573.65 474.488 576.964 473.039C579.126 471.968 577.397 470.28 580.094 469.435C583.636 468.323 582.895 465.708 581.062 464.102C578.694 458.891 573.525 459.242 572.887 462.928Z" fill="#9AA3F4"/>
<path d="M559.316 350.465C559.316 350.465 567.8 325.526 543.727 304.973C543.727 304.973 530.836 310.101 520.499 310.74C516.383 311.096 512.24 311.006 508.143 310.472C508.143 310.472 507.464 332.631 507.423 344.575L559.316 350.465Z" fill="#007FFF"/>
<path d="M505.569 391.9C505.096 380.738 517.204 382.2 521.652 390.541C530.877 407.778 518.254 447.441 516.586 466.243C514.566 467.102 512.312 467.24 510.203 466.635C509.382 466.162 508.733 465.441 508.349 464.575C508.617 441.531 506.063 403.824 505.569 391.9Z" fill="#007FFF"/>
<path d="M521.241 393.589C519.84 398.14 504.416 402.938 505.673 386.36C506.229 379.008 507.732 338.418 507.999 334.505C508.267 330.592 508.947 324.867 510.821 324.208C520.273 320.645 537.014 333.002 534.523 347.706C532.855 357.467 524.124 384.157 521.241 393.589Z" fill="#007FFF"/>
<path d="M545.54 399.931C541.812 389.408 553.942 387.575 560.799 394.042C576.902 409.219 577.52 444.991 581.392 463.443C579.267 464.739 576.837 465.45 574.349 465.502C573.976 465.49 573.611 465.395 573.28 465.224C572.949 465.053 572.66 464.81 572.434 464.513C565.968 442.334 549.535 411.176 545.54 399.931Z" fill="#007FFF"/>
<path d="M561.458 396.492C561.87 401.229 549.102 411.031 543.954 395.195C541.71 388.172 532.093 346.676 530.878 342.948C529.663 339.221 530.013 331.498 531.496 330.139C538.929 323.281 555.692 329.315 558.884 343.875C561.046 353.595 560.593 386.648 561.458 396.492Z" fill="#007FFF"/>
<path d="M495.191 214.814C495.623 214.361 496.076 213.887 496.468 213.393C499.515 209.501 499.968 206.041 502.79 201.51C503.392 200.157 504.08 198.843 504.849 197.577C506.139 196.053 507.695 194.776 509.441 193.808C510.759 193.108 509.626 196.032 509.626 196.032C509.626 196.032 510.738 194.405 511.83 194.529C512.242 194.529 512.324 197.062 512.324 197.474C512.376 200.895 511.583 204.276 510.018 207.318C509.583 207.994 509.315 208.763 509.235 209.562C510.233 209.402 511.16 208.942 511.892 208.244C512.26 207.902 512.703 207.652 513.186 207.512C513.669 207.373 514.178 207.348 514.672 207.441C514.527 207.84 514.347 208.226 514.136 208.594C513.161 210.985 511.452 213.004 509.256 214.361C507.876 215.02 506.27 215.143 504.911 215.843C502.481 217.141 501.286 220.148 498.733 221.363" fill="#F2A181"/>
<path d="M517.151 197.776L509.894 194.741C509.212 194.455 508.428 194.777 508.143 195.459L501.69 210.886C501.405 211.568 501.726 212.352 502.408 212.637L509.665 215.673C510.347 215.958 511.131 215.637 511.417 214.955L517.87 199.528C518.155 198.846 517.833 198.062 517.151 197.776Z" fill="#5E5DBB"/>
<path d="M517.431 199.065L509.281 195.655L502.598 211.633L510.748 215.042L517.431 199.065Z" fill="#B4B4DB"/>
<path d="M517.554 230.65C513.567 230.927 509.62 231.617 505.775 232.71C497.394 235.222 494.511 239.114 491.608 240.721C497.229 233.575 503.51 218.418 503.51 218.418C503.51 218.418 495.953 212.24 495.088 213.681C494.223 215.123 462.489 252.294 463.478 258.308C463.89 260.779 467.596 263.23 470.809 263.127C479.808 262.818 490.248 259.543 501.204 255.96C506.022 254.374 507.505 257.772 507.505 257.772" fill="#7A74D1"/>
<path d="M491.525 240.577C491.525 240.577 487.53 248.629 486.336 249.164C485.141 249.7 489.239 247.496 491.505 245.169C493.572 242.556 495.36 239.733 496.838 236.746C494.979 237.896 493.204 239.176 491.525 240.577Z" fill="#6960C4"/>
<path d="M504.066 201.551C504.238 201.717 504.376 201.915 504.472 202.134C504.567 202.353 504.618 202.589 504.622 202.828C505.06 204.586 505.01 206.43 504.478 208.162C504.007 209.218 503.303 210.155 502.419 210.901C501.419 211.775 500.32 212.529 499.145 213.146" fill="#F2A181"/>
<path d="M517.657 188.145C515.598 188.763 514.424 191.502 513.703 193.376C512.885 195.649 512.352 198.014 512.118 200.419C511.799 202.075 511.92 203.786 512.468 205.382C512.844 206.121 513.307 206.812 513.848 207.441C514.119 207.842 514.453 208.196 514.836 208.492C515.032 208.635 515.259 208.73 515.499 208.77C515.739 208.809 515.984 208.791 516.216 208.718C516.875 208.471 517.142 207.688 517.328 207.009C518.35 202.498 520.058 198.171 522.394 194.179" fill="#170D54"/>
<path d="M515.31 202.231C515.31 200.81 513.786 199.883 512.488 201.366C511.492 202.924 510.996 204.749 511.068 206.597C511.068 208.656 512.571 209.048 513.868 209.315" fill="#F2A181"/>
<path d="M501.08 237.899C503.695 234.893 511.994 229.95 523.094 230.3C530.734 230.547 551.573 231.804 553.983 236.911C555.177 239.526 556.454 266.298 554.703 275.545C553.386 282.485 550.05 299.681 550.05 303.841C550.05 308.001 552.274 309.772 551.244 310.987C548.917 313.685 532.978 314.817 525.503 314.817C518.852 314.817 507.505 313.046 506.97 310.904C506.125 307.733 508.267 307.857 508.555 304.541C508.844 301.225 509.688 279.664 508.555 276.142C506.352 269.779 505.281 259.399 503.531 254.683C502.048 251.1 498.527 240.947 501.08 237.899Z" fill="#7A74D1"/>
<path d="M548.834 259.482C549.637 261.129 555.012 269.779 555.012 269.779L555.239 270.808C555.137 272.362 554.951 273.909 554.683 275.442C553.365 282.382 550.029 299.578 550.029 303.738C550.029 307.898 552.088 309.586 551.223 310.884C549.39 313.376 519.346 318.977 520.808 312.016C520.931 311.378 546.034 292.246 546.157 291.608C547.311 286.11 548.32 282.156 548.834 278.16C550.07 268.605 548.052 257.917 548.834 259.482Z" fill="#6960C4"/>
<path d="M517.122 220.724C517.152 223.75 517.014 226.775 516.71 229.785C516.059 230.235 515.37 230.628 514.651 230.959C514.651 230.959 515.886 238.538 517.781 237.961C519.675 237.385 532.196 231.062 532.196 231.062C532.196 231.062 530.425 230.341 530.425 229.641C530.425 228.941 532.113 215.226 532.113 215.226" fill="#FFBE9D"/>
<path d="M525.791 189.072C523.959 189.566 519.161 188.577 517.822 190.575C516.569 193.185 515.569 195.909 514.836 198.709C513.848 201.345 513.209 204.187 512.489 206.947C511.541 210.489 509.997 216.997 513.477 219.962C514.194 220.7 515.136 221.178 516.154 221.321L521.076 222.248C523.659 222.944 526.373 223.001 528.983 222.413C532.36 221.321 534.214 216.667 535.161 213.516L540.145 195.435L525.791 189.072Z" fill="#FFBE9D"/>
<path d="M516.813 241.359C516.813 241.359 516.072 275.36 514.754 296.036L519.758 302.935L523.197 294.306C523.883 276.675 522.793 259.019 519.943 241.606L516.813 241.359Z" fill="#3B2E7A"/>
<path d="M515.66 238.373L515.783 238.847C516.004 239.729 516.351 240.575 516.813 241.359L519.881 241.586C519.881 241.586 521.94 240.494 522.249 239.32C522.558 238.147 518.831 236.231 518.831 236.231L518.378 236.417C517.339 236.821 516.419 237.479 515.701 238.332L515.66 238.373Z" fill="#3B2E7A"/>
<path d="M530.61 227.52C531.997 228.461 533.186 229.664 534.111 231.062C532.525 234.666 528.963 241.071 525.05 243.995C523.775 240.864 521.631 238.164 518.872 236.211C518.872 236.211 529.519 234.316 530.61 227.52Z" fill="white"/>
<path d="M518.811 236.231C516.168 237.434 513.996 239.475 512.633 242.039C512.235 238.429 512.514 234.776 513.457 231.268C513.457 231.268 515.969 228.056 516.834 227.994C516.781 230.863 517.462 233.698 518.811 236.231Z" fill="white"/>
<path d="M519.305 312.119C516.415 312.494 513.781 313.969 511.953 316.238C511.851 316.311 511.768 316.406 511.711 316.517C511.653 316.628 511.623 316.752 511.624 316.877C511.624 317.186 512.035 317.309 512.324 317.371C514.095 317.659 514.383 316.527 516.03 315.847L519.366 314.426" fill="#F2A181"/>
<path d="M506.393 284.421L519.861 327.668C519.963 327.903 520.006 328.161 519.984 328.417C519.962 328.673 519.877 328.919 519.736 329.134C519.595 329.349 519.402 329.525 519.176 329.646C518.95 329.768 518.697 329.831 518.44 329.83L490.351 332.301C489.822 332.275 489.313 332.088 488.893 331.764C488.474 331.44 488.163 330.995 488.004 330.489L473.589 288.004C473.218 286.851 474.907 285.183 476.019 285.183L504.107 282.712C504.614 282.742 505.1 282.92 505.506 283.224C505.913 283.527 506.221 283.944 506.393 284.421Z" fill="#E9E6FF"/>
<path d="M505.487 285.553L518.769 328.038C518.872 328.274 518.914 328.531 518.892 328.787C518.871 329.043 518.785 329.29 518.644 329.504C518.503 329.719 518.311 329.895 518.084 330.017C517.858 330.138 517.605 330.202 517.348 330.201L489.26 332.672C488.73 332.646 488.221 332.458 487.802 332.134C487.382 331.81 487.071 331.366 486.912 330.86L473.609 288.313C473.507 288.078 473.464 287.82 473.486 287.564C473.508 287.308 473.593 287.062 473.734 286.847C473.875 286.632 474.068 286.456 474.294 286.335C474.52 286.213 474.773 286.15 475.03 286.151L503.119 283.679C503.66 283.706 504.179 283.9 504.603 284.236C505.028 284.572 505.337 285.033 505.487 285.553Z" fill="#DDE1FF"/>
<path d="M483.041 284.174L484.029 287.901L497.168 286.748L496.097 283.041L483.041 284.174Z" fill="white"/>
<path d="M485.533 280.714L486.851 284.833L493.028 284.256L491.711 280.137C491.44 279.259 490.893 278.492 490.15 277.95C489.408 277.408 488.511 277.121 487.592 277.131C487.193 277.178 486.811 277.317 486.476 277.538C486.14 277.76 485.861 278.056 485.661 278.404C485.461 278.753 485.345 279.143 485.323 279.544C485.301 279.945 485.373 280.346 485.533 280.714ZM486.912 280.714C486.812 280.504 486.763 280.272 486.772 280.039C486.78 279.807 486.844 279.579 486.96 279.377C487.075 279.174 487.238 279.003 487.434 278.877C487.63 278.751 487.854 278.675 488.086 278.655C488.605 278.645 489.112 278.805 489.532 279.11C489.952 279.414 490.261 279.847 490.413 280.343C490.514 280.553 490.562 280.785 490.554 281.018C490.546 281.251 490.481 281.478 490.366 281.68C490.25 281.883 490.088 282.054 489.891 282.18C489.695 282.306 489.472 282.382 489.239 282.403C488.71 282.407 488.194 282.235 487.773 281.915C487.352 281.594 487.049 281.143 486.912 280.632V280.714Z" fill="white"/>
<path d="M529.91 309.113C526.965 309.731 519.119 312.078 518.275 312.47C516.499 313.552 514.824 314.793 513.271 316.176C510.306 319.142 511.83 320.522 510.656 324.538C510.626 324.749 510.626 324.964 510.656 325.176C510.656 325.588 511.212 325.958 511.788 325.567C512.097 326.082 513.003 325.773 513.456 325.197C513.456 325.588 514.012 325.856 514.918 325.341C515.413 325.073 515.31 325.094 516.442 324.084C517.398 323.275 518.475 322.622 519.634 322.149C520.704 321.752 521.743 321.277 522.744 320.728C523.938 319.945 526.059 319.76 527.109 316.341C527.45 315.622 528.033 315.046 528.757 314.714L533.555 311.708" fill="#FFBE9D"/>
<path d="M548.114 253.818C549.37 258.267 554.559 289.157 554.559 289.157L525.277 310.369L527.707 316.774C527.707 316.774 562.714 305.015 565.494 296.962C568.274 288.91 568.13 252.603 558.39 239.856C555.864 237.037 552.66 234.911 549.082 233.678" fill="#7A74D1"/>
<path d="M518.09 320.213L517.348 320.892C516.79 321.332 516.279 321.829 515.825 322.375C515.33 322.972 514.836 323.59 514.424 324.023C514.196 324.269 513.948 324.496 513.683 324.702C514.179 323.759 514.78 322.875 515.474 322.066C515.978 321.513 516.569 321.047 517.225 320.687L518.09 320.213Z" fill="#F2A181"/>
<path d="M516.463 318.277C516.145 318.545 515.868 318.857 515.639 319.204C515.413 319.492 515.166 319.863 514.918 320.233L514.527 320.831C514.395 321.024 514.285 321.231 514.198 321.448C513.666 322.681 512.974 323.837 512.138 324.888C512.138 324.888 512.303 324.414 512.612 323.714C512.921 323.014 513.353 322.128 513.765 321.242C514.209 320.412 514.779 319.655 515.454 318.998C515.752 318.708 516.092 318.465 516.463 318.277Z" fill="#F2A181"/>
<path d="M514.61 316.712C514.395 317.054 514.161 317.384 513.909 317.7C513.683 317.989 513.395 318.318 513.168 318.668C512.942 319.018 512.797 319.513 512.612 319.925C512.241 320.81 511.912 321.716 511.665 322.396C511.418 323.075 511.232 323.528 511.232 323.528C511.239 323.121 511.28 322.714 511.356 322.313C511.518 321.423 511.795 320.558 512.18 319.739C512.377 319.291 512.618 318.863 512.9 318.462C513.175 318.141 513.471 317.838 513.786 317.556C514.076 317.29 514.351 317.008 514.61 316.712Z" fill="#F2A181"/>
<path d="M536.973 210.345C535.82 209.665 534.914 208.965 534.193 210.057C533.802 210.633 533.555 211.436 532.875 211.642C532.527 211.697 532.17 211.613 531.882 211.409C531.594 211.206 531.396 210.898 531.331 210.551C531.228 209.855 531.313 209.144 531.578 208.492L532.958 204.043C533.573 202.642 533.689 201.072 533.287 199.595C533.006 198.867 532.554 198.217 531.969 197.7C529.974 196.163 527.622 195.157 525.133 194.776C522.658 194.402 520.204 193.9 517.781 193.273C516.764 192.996 515.812 192.52 514.98 191.872C514.335 191.307 513.817 190.61 513.462 189.829C513.107 189.048 512.922 188.2 512.921 187.342C512.952 185.634 513.451 183.967 514.363 182.523C514.546 183.105 514.794 183.665 515.104 184.191C515.408 183.422 515.863 182.721 516.442 182.131C517.163 186.106 533.926 184.788 537.859 186.539C540.577 187.754 542.822 188.598 542.739 192.964C542.849 193.243 543.034 193.485 543.275 193.664C544.464 194.819 545.409 196.203 546.053 197.731C546.697 199.26 547.027 200.902 547.023 202.56C547.393 207.441 544.551 212.734 541.751 216.77C541.217 217.71 540.519 218.547 539.692 219.241C538.551 220.014 537.162 220.33 535.8 220.127C534.585 219.9 532.196 220.003 532.175 218.768C532.175 217.882 534.049 216.317 534.564 215.596" fill="#24005A"/>
<path d="M532.587 214.958C532.496 215.26 532.499 215.582 532.597 215.882C532.694 216.182 532.881 216.444 533.132 216.635C533.383 216.825 533.686 216.935 534.001 216.948C534.316 216.961 534.627 216.877 534.893 216.708C535.765 216.377 536.534 215.822 537.123 215.099C537.713 214.376 538.101 213.51 538.25 212.59C538.641 210.53 537.509 208.368 535.573 208.903C535.016 209.118 534.539 209.501 534.211 210C533.882 210.498 533.718 211.087 533.74 211.683" fill="#FFBE9D"/>
<path d="M517.122 221.466L522.497 222.454C521.771 223.145 520.914 223.683 519.977 224.036C519.039 224.39 518.041 224.552 517.04 224.513" fill="#F2A181"/>
</svg>
