<svg width="187" height="153" viewBox="0 0 187 153" fill="none" xmlns="http://www.w3.org/2000/svg">
<circle cx="87.2783" cy="71.3056" r="71.3056" fill="#EEF2FA"/>

<g clip-path="url(#clip0)">
<path d="M71.2412 48.9705L71.2413 48.9705C71.5426 48.6691 71.9506 48.5 72.3763 48.5H118.945C123.531 48.5 127.203 52.2159 127.203 56.758V143.242C127.203 147.828 123.487 151.5 118.945 151.5H59.0705C54.5185 151.5 50.8125 147.794 50.8125 143.242V70.063C50.8125 69.6379 50.9817 69.2292 51.2829 68.928C51.283 68.928 51.283 68.928 51.283 68.928L71.2412 48.9705Z" fill="#EEF2FA" stroke="#9BB9E6" stroke-width="3"/>
<path d="M69.05 70.2845C71.0055 70.2845 72.597 68.693 72.597 66.7375V47H72.3755C71.5522 47 70.7621 47.3275 70.1798 47.9098L50.2223 67.8673C49.64 68.4496 49.3125 69.2397 49.3125 70.063V70.2845H69.05Z" fill="#9BB9E6"/>
<path d="M108.965 86.9158H69.05C67.3348 86.9158 65.9446 88.306 65.9446 90.0212C65.9446 91.7365 67.3348 93.1267 69.05 93.1267H108.965C110.68 93.1267 112.07 91.7365 112.07 90.0212C112.07 88.306 110.68 86.9158 108.965 86.9158Z" fill="#9BB9E6"/>
<path d="M108.965 100.221H69.05C67.3348 100.221 65.9446 101.611 65.9446 103.326C65.9446 105.042 67.3348 106.432 69.05 106.432H108.965C110.68 106.432 112.07 105.042 112.07 103.326C112.07 101.611 110.68 100.221 108.965 100.221Z" fill="#9BB9E6"/>
<path d="M108.965 113.526H69.05C67.3348 113.526 65.9446 114.917 65.9446 116.631C65.9446 118.347 67.3348 119.737 69.05 119.737H108.965C110.68 119.737 112.07 118.347 112.07 116.631C112.07 114.917 110.68 113.526 108.965 113.526Z" fill="#9BB9E6"/>
<path d="M85.9021 126.832H69.05C67.3348 126.832 65.9446 128.222 65.9446 129.937C65.9446 131.651 67.3348 133.042 69.05 133.042H85.9021C87.6174 133.042 89.0075 131.651 89.0075 129.937C89.0075 128.222 87.6174 126.832 85.9021 126.832Z" fill="#9BB9E6"/>
<path d="M112.07 90.0212C112.07 91.7349 110.681 93.1267 108.965 93.1267H89.0067V86.9158H108.965C110.681 86.9158 112.07 88.3068 112.07 90.0212Z" fill="#9BB9E6"/>
<path d="M112.07 103.327C112.07 105.042 110.681 106.433 108.965 106.433H89.0067V100.222H108.965C110.681 100.222 112.07 101.611 112.07 103.327Z" fill="#9BB9E6"/>
<path d="M112.07 116.63C112.07 118.347 110.681 119.736 108.965 119.736H89.0067V113.525H108.965C110.681 113.525 112.07 114.917 112.07 116.63Z" fill="#9BB9E6"/>
<path d="M148.66 129.937C148.66 142.674 138.334 153 125.597 153C112.859 153 102.533 142.674 102.533 129.937C102.533 117.199 112.859 106.873 125.597 106.873C138.334 106.873 148.66 117.199 148.66 129.937Z" fill="#29CCB1"/>
<path d="M135.776 122.463C134.404 121.433 132.457 121.712 131.428 123.084L123.598 133.524L119.477 129.404C118.264 128.192 116.298 128.191 115.085 129.404C113.872 130.617 113.872 132.583 115.085 133.795L121.738 140.448C121.987 140.697 122.741 141.358 123.927 141.358C125.365 141.358 126.172 140.444 126.418 140.116L136.397 126.811C137.426 125.438 137.148 123.492 135.776 122.463Z" fill="#EFF6FE"/>
<path d="M135.776 122.463C134.404 121.433 132.457 121.712 131.428 123.084L125.597 130.859V140.874C126.022 140.601 126.293 140.283 126.418 140.116L136.397 126.811C137.426 125.438 137.148 123.492 135.776 122.463Z" fill="#D9E4EF"/>
</g>
<defs>
<clipPath id="clip0">
<rect x="46" y="47" width="106" height="106" fill="white"/>
</clipPath>
</defs>
</svg>
