<svg width="206" height="151" viewBox="0 0 206 151" fill="none" xmlns="http://www.w3.org/2000/svg">
<circle cx="105.278" cy="71.3056" r="71.3056" fill="#EEF2FA"/>

<path d="M134.274 94.9687V96.4544C134.274 98.275 134.568 100.083 135.143 101.81L138.509 111.906H144.86V88.6169H140.626C137.118 88.6171 134.274 91.4607 134.274 94.9687Z" fill="#5A4146"/>
<path d="M163.263 99.3669L159.681 111.906L142.743 97.0862C140.404 97.0862 138.509 95.1903 138.509 92.8518C138.509 89.344 141.352 86.5002 144.86 86.5002H159.68C162.019 86.5002 163.915 88.3962 163.915 90.7346V94.7142C163.915 96.2876 163.696 97.8535 163.263 99.3669Z" fill="#694B4B"/>
<path d="M155.445 118.259H142.742V127.63H155.445V118.259Z" fill="#E6AF78"/>
<path d="M142.743 122.147C144.707 122.945 146.848 123.394 149.094 123.394C151.341 123.394 153.482 122.945 155.446 122.147V118.258H142.743V122.147Z" fill="#D29B6E"/>
<path d="M165.66 126.312L155.446 123.394L149.094 127.609L142.743 123.394L132.529 126.312C129.802 127.092 127.923 129.584 127.923 132.42V147.899C127.923 149.068 128.87 150.016 130.04 150.016H168.149C169.319 150.016 170.267 149.068 170.267 147.899V132.42C170.267 129.584 168.387 127.092 165.66 126.312Z" fill="#D5DCED"/>
<path d="M151.212 150.016H146.977L148.036 127.628H150.153L151.212 150.016Z" fill="#AFB9D2"/>
<path d="M149.094 120.375C142.079 120.375 136.391 114.688 136.391 107.672V105.192C136.391 104.069 136.837 102.992 137.631 102.197L141.471 98.358C142.284 97.5451 143.395 97.0777 144.544 97.1138C151.312 97.3274 157.303 98.7772 160.578 101.976C161.379 102.759 161.798 103.854 161.798 104.974V107.672C161.798 114.688 156.11 120.375 149.094 120.375Z" fill="#F0C087"/>
<path d="M142.743 105.717C142.743 103.274 144.794 101.333 147.231 101.489C151.505 101.761 157.848 102.476 161.739 104.347C161.612 103.454 161.228 102.611 160.578 101.975C157.303 98.777 151.312 97.3272 144.544 97.1136L144.544 97.1139V97.1136C143.395 97.0775 142.283 97.5451 141.471 98.3579L137.632 102.197C136.837 102.991 136.391 104.068 136.391 105.191V107.672C136.391 113.465 140.273 118.342 145.575 119.87C143.81 117.693 142.743 114.929 142.743 111.906L142.743 105.717Z" fill="#E6AF78"/>
<path d="M161.798 138.728C161.798 137.044 162.467 135.428 163.658 134.237L169.108 128.787C169.836 129.828 170.267 131.082 170.267 132.42V147.899C170.267 149.069 169.319 150.016 168.149 150.016H161.798V138.728Z" fill="#C7CFE2"/>
<path d="M150.153 131.863H148.036C147.451 131.863 146.977 131.389 146.977 130.804V127.628H151.212V130.804C151.212 131.389 150.738 131.863 150.153 131.863Z" fill="#959CB5"/>
<path d="M149.095 127.609L145.506 130.35C144.888 130.822 143.994 130.633 143.621 129.951L140.401 124.072L141.697 122.096C141.985 121.657 142.597 121.583 142.981 121.939L149.095 127.609Z" fill="#C7CFE2"/>
<path d="M149.095 127.609L152.683 130.35C153.301 130.823 154.195 130.634 154.569 129.951L157.788 124.072L156.492 122.096C156.205 121.657 155.592 121.583 155.208 121.939L149.095 127.609Z" fill="#C7CFE2"/>
<path d="M76.8985 119.491C75.0893 114.697 73.6543 106.457 73.3443 102.166C72.7547 94.0014 66.6018 87.3458 58.2843 87.3458C49.9668 87.3458 43.8139 94.0016 43.2243 102.166C42.9143 106.456 41.4793 114.697 39.6701 119.491C39.2714 120.548 39.7316 121.713 40.7723 122.185C42.711 123.064 46.8446 124.785 51.8299 125.455H64.7384C69.7004 124.783 73.863 123.061 75.7961 122.185C76.837 121.713 77.2972 120.548 76.8985 119.491Z" fill="#5A4146"/>
<path d="M75.7965 122.185C76.8368 121.714 77.2973 120.548 76.8984 119.492C75.0894 114.698 73.6541 106.457 73.3444 102.166C72.755 94.0017 66.6019 87.3461 58.2847 87.3461C58.2636 87.3461 58.2429 87.3461 58.2218 87.3463C51.8398 87.3722 49.5844 96.0761 55.0784 99.3236C55.4083 99.5187 55.6198 99.6126 55.6198 99.6126L60.4318 125.456H64.7388C69.7008 124.783 73.8633 123.061 75.7965 122.185Z" fill="#694B4B"/>
<path d="M73.5985 129.706L66.747 126.281C65.3123 125.563 64.406 124.097 64.4062 122.493L64.4068 116.141H51.7031V122.493C51.7031 124.097 50.7971 125.563 49.3624 126.28L42.5109 129.706C40.3591 130.782 39 132.981 39 135.387V147.899C39 149.068 39.9478 150.016 41.1172 150.016H74.9924C76.1618 150.016 77.1096 149.068 77.1096 147.899V135.387C77.1096 132.981 75.7503 130.782 73.5985 129.706Z" fill="#E6AF78"/>
<path d="M58.0549 124.61C60.3346 124.61 62.5182 124.14 64.52 123.303C64.4675 123.036 64.4062 122.771 64.4062 122.493L64.4067 116.141H51.7031V122.493C51.7031 122.773 51.6418 123.039 51.5887 123.307C53.5918 124.139 55.7744 124.61 58.0549 124.61Z" fill="#D29B6E"/>
<path d="M73.5985 129.706L68.7175 127.266C66.4542 130.761 62.5288 133.079 58.0549 133.079C53.5811 133.079 49.6554 130.761 47.3921 127.265L42.5111 129.706C40.3593 130.782 39 132.981 39 135.387V147.899C39 149.068 39.9478 150.016 41.1172 150.016H74.9924C76.1618 150.016 77.1096 149.068 77.1096 147.899V135.387C77.1096 132.981 75.7503 130.782 73.5985 129.706Z" fill="#D5DCED"/>
<path d="M58.055 120.375C51.5963 120.375 46.2636 115.555 45.4573 109.316C45.3404 108.412 45.7749 107.526 46.5887 107.115C47.5634 106.624 48.9799 105.795 50.3362 104.584C51.8465 103.237 52.7326 101.816 53.233 100.773C53.664 99.8743 54.6547 99.3661 55.6202 99.6125C63.0747 101.514 68.1497 105.392 69.9911 106.975C70.4854 107.401 70.7702 108.027 70.7194 108.678C70.2064 115.223 64.7324 120.375 58.055 120.375Z" fill="#F0C087"/>
<path d="M69.9907 106.975C68.1497 105.392 63.0744 101.514 55.6199 99.6123C54.6543 99.3659 53.6637 99.874 53.2327 100.772C52.8538 101.563 52.2274 102.569 51.2981 103.597C51.2978 103.599 51.297 103.601 51.2968 103.604C51.0084 103.931 50.7012 104.258 50.3361 104.584C48.9799 105.795 47.5634 106.624 46.5886 107.115C45.7749 107.526 45.3406 108.413 45.4572 109.317C46.1815 114.92 50.5661 119.38 56.129 120.23C53.5942 118.506 51.7034 116.134 51.7034 111.907V108.888C52.1844 108.532 52.6687 108.178 53.1553 107.744C54.3321 106.694 55.3594 105.48 56.1831 104.172C61.8858 105.952 65.752 108.916 67.2177 110.176C67.619 110.528 68.6147 111.445 69.7797 112.538C70.281 111.332 70.6125 110.038 70.7189 108.678C70.7699 108.027 70.485 107.401 69.9907 106.975Z" fill="#E6AF78"/>
<path d="M40.2906 131.57C39.4751 132.653 39 133.981 39 135.387V147.899C39 149.068 39.9478 150.016 41.1172 150.016H47.4688V139.348C47.4688 138.062 46.8839 136.845 45.8794 136.041L40.2906 131.57Z" fill="#C7CFE2"/>
<path d="M135.051 126.817L117.336 120.375L104.633 124.61L91.9302 120.375L74.2156 126.817C70.8688 128.034 68.6409 131.215 68.6409 134.776V147.899C68.6409 149.068 69.5887 150.016 70.7581 150.016H138.509C139.678 150.016 140.626 149.068 140.626 147.899V134.776C140.626 131.214 138.398 128.034 135.051 126.817Z" fill="#FF507D"/>
<path d="M102.415 128.844L100.399 150.016H108.868L106.851 128.844H102.415Z" fill="#707487"/>
<path d="M106.856 131.753H102.411C101.592 131.753 100.928 131.089 100.928 130.271V124.61H108.338V130.271C108.338 131.089 107.675 131.753 106.856 131.753Z" fill="#5B5D6E"/>
<path d="M138.347 129.005C139.776 130.54 140.626 132.584 140.626 134.776V147.899C140.626 149.068 139.678 150.016 138.509 150.016H127.923V142.938C127.923 140.692 128.815 138.537 130.403 136.949L138.347 129.005Z" fill="#D23C69"/>
<path d="M127.923 76.7127V58.9763C127.923 56.6376 126.027 54.7419 123.688 54.7419H98.2818C88.9275 54.7419 81.344 62.3252 81.344 71.6797V76.7127C81.344 78.9883 81.7109 81.2491 82.4305 83.4078L83.1353 85.5222C83.3512 86.1698 83.4612 86.8479 83.4612 87.5307V88.6172H125.805V87.5307C125.805 86.8479 125.915 86.1698 126.131 85.5222L126.836 83.4078C127.556 81.2488 127.923 78.9881 127.923 76.7127Z" fill="#5A4146"/>
<path d="M91.9302 63.343C91.9302 68.0932 95.781 71.944 100.531 71.944H101.722L102.297 88.6169H125.805V87.5304C125.805 86.8477 125.915 86.1695 126.131 85.5219L126.836 83.4076C127.555 81.2488 127.922 78.9881 127.922 76.7124V58.9763C127.922 56.6376 126.026 54.7419 123.688 54.7419H100.531C95.781 54.7419 91.9302 58.5928 91.9302 63.343Z" fill="#694B4B"/>
<path d="M117.337 105.556H91.9297V124.61H117.337V105.556Z" fill="#E6AF78"/>
<path d="M91.9302 112.714C95.6703 114.88 100 116.141 104.633 116.141C109.266 116.141 113.597 114.88 117.336 112.714V105.555H91.9299L91.9302 112.714Z" fill="#D29B6E"/>
<path d="M104.633 124.61L97.8808 131.362C96.9732 132.27 95.4731 132.167 94.6973 131.145L87.6958 121.919L89.5271 118.06C90.0676 116.921 91.4772 116.504 92.5504 117.165L104.633 124.61Z" fill="#D23C69"/>
<path d="M104.633 124.61L111.386 131.362C112.293 132.27 113.794 132.167 114.569 131.145L121.571 121.919L119.739 118.06C119.199 116.921 117.789 116.504 116.716 117.165L104.633 124.61Z" fill="#D23C69"/>
<path d="M104.633 111.906C92.9404 111.906 83.4613 102.427 83.4613 90.7343V88.2539C83.4613 87.1309 83.9074 86.0539 84.7014 85.2596L86.4553 83.5057C87.2493 82.7117 87.6954 81.6346 87.6954 80.5114V75.4361C87.6954 74.4557 88.3538 73.604 89.3078 73.3787C94.3152 72.196 109.897 69.3945 120.501 77.1936C121.19 77.7 121.571 78.5319 121.571 79.3867V80.5114C121.571 81.6344 122.017 82.7114 122.811 83.5057L124.565 85.2596C125.359 86.0536 125.805 87.1307 125.805 88.2539V90.7343C125.806 102.427 116.326 111.906 104.633 111.906Z" fill="#F0C087"/>
<path d="M120.502 77.1939C113.043 71.7086 103.137 71.4712 96.1647 72.2221C93.2237 72.5388 90.7938 73.0282 89.3083 73.3789C88.3543 73.6043 87.6959 74.456 87.6959 75.4364V80.5114C87.6959 81.6346 87.2498 82.7117 86.4556 83.5059L84.7017 85.2598C83.9074 86.0541 83.4613 87.1311 83.4613 88.2543V90.7346C83.4613 101.56 91.5911 110.472 102.075 111.737C98.4219 107.933 96.1644 102.777 96.1644 97.0861V81.6108C96.1644 79.4651 97.7599 77.672 99.8886 77.4051C104.97 76.768 114.276 76.385 121.571 80.5119V79.3869C121.571 78.5322 121.19 77.7 120.502 77.1939Z" fill="#E6AF78"/>
<path d="M70.9198 129.005C69.4903 130.54 68.6409 132.584 68.6409 134.776V147.899C68.6409 149.068 69.5887 150.016 70.7581 150.016H81.344V142.938C81.344 140.692 80.4518 138.537 78.8635 136.949L70.9198 129.005Z" fill="#D23C69"/>
</svg>
