<svg xmlns="http://www.w3.org/2000/svg" viewBox="0 0 408.98 167.49"><defs><style>.cls-1{fill:none;stroke-width:4px;}.cls-1,.cls-2{stroke:#fff;stroke-miterlimit:10;}.cls-2{fill:#fff;}</style></defs><title>logo-header_1</title><g id="Слой_2" data-name="Слой 2"><g id="Layer_1" data-name="Layer 1"><rect class="cls-1" x="2" y="2" width="404.98" height="163.49"/><path class="cls-2" d="M168,56.22h-1.11c-3.33,0-4.92-1.35-4.92-5V38.34c0-1.44.48-1.44,2.7-1.44h8.73c1,0,1,.87,1,2.61h-9.72v5.61h2.94c4.38,0,7.23,1.35,7.23,5.22C174.82,54.42,171.43,56.22,168,56.22Zm-.6-8.55h-2.73V51c0,1.74.69,2.64,2.49,2.64h.72c2,0,4.08-.72,4.08-3.06S170.11,47.67,167.38,47.67Z"/><path class="cls-2" d="M180.32,56.22v-18c0-1.44.47-1.44,2.72-1.44V45.6h4.83c.13-5.82,3-9,8.13-9,5.25,0,8.19,3.3,8.19,9.39s-3.06,10.5-8.19,10.5c-4.46,0-7.34-3.36-8-8.34h-5v8.07ZM196,39.12c-3.3,0-5.19,2.25-5.19,6.87,0,5,1.95,7.92,5.19,7.92S201.31,51,201.31,46C201.31,41.37,199.36,39.12,196,39.12Z"/><path class="cls-2" d="M214.24,49.74h-1.83v6.48h-2.73V38.34c0-1.44.48-1.44,2.73-1.44h2.28c4.71,0,8,1.53,8,6.06C222.73,47.31,219.13,49.74,214.24,49.74Zm.42-10.35h-2.25v7.89h1.86c3.24,0,5.61-1.44,5.61-4.32S217.18,39.39,214.66,39.39Z"/><path class="cls-2" d="M236.17,56.52c-5.31,0-9.09-4.59-9.09-10.53s3.69-9.39,9.09-9.39,9.15,3.48,9.15,9.39S241.54,56.52,236.17,56.52Zm0-17.4c-3.75,0-6.18,2.58-6.18,6.87,0,4.62,2.52,7.92,6.18,7.92s6.27-3.15,6.27-7.92C242.44,41.58,240,39.12,236.17,39.12Z"/><path class="cls-2" d="M78.83,107.35H77c-5.55,0-8.2-2.25-8.2-8.3V77.54c0-2.4.8-2.4,4.5-2.4H87.83c1.65,0,1.65,1.45,1.65,4.36H73.28v9.35h4.9c7.3,0,12,2.25,12,8.7C90.23,104.35,84.58,107.35,78.83,107.35Zm-1-14.25H73.28v5.5c0,2.9,1.15,4.4,4.15,4.4h1.2c3.3,0,6.8-1.2,6.8-5.1S82.38,93.1,77.83,93.1Z"/><path class="cls-2" d="M115,96.75c-1.55,8.75-5.4,11.1-9.45,11.1-2.65,0-4.75-1-4.75-3.2V103a8.8,8.8,0,0,0,3.2.55c2.85,0,5-1.15,5.8-4.6-5.8-8-10.3-15.31-13.7-23.66v-.15h5.35a107.59,107.59,0,0,0,10.2,18.36l6.65-18.36h5.5Z"/><path class="cls-2" d="M160.78,107.55V83a185.15,185.15,0,0,1-9.9,20,13.07,13.07,0,0,1-4.45.9,216,216,0,0,1-10-20.8v24.35h-4.3V76.19a16.12,16.12,0,0,1,5.65-1.3A228,228,0,0,0,148.63,98.3a238.94,238.94,0,0,0,10.5-22,13.36,13.36,0,0,1,6-1.4V104.5C165.08,107.55,165,107.55,160.78,107.55Z"/><path class="cls-2" d="M199.18,107.35l-2.55-7h-14.8c-.8,2.35-1.5,4.7-2.2,7h-5.25a191.39,191.39,0,0,1,11.4-27.46,4.56,4.56,0,0,0,.6-3.6,11.75,11.75,0,0,1,5.35-1.55l12.7,32v.6Zm-9.5-26a153.46,153.46,0,0,0-6.35,14.76h11.8Z"/><path class="cls-2" d="M244.58,103.8l-5.9-9.8a12.18,12.18,0,0,1-1.35,0h-2.15v13.3h-4.5V94.05h-2.2a11.31,11.31,0,0,1-1.35,0l-5.9,9.8c-2,3.5-3.95,4-6,4-1.85,0-3.65-.9-3.65-3.1v-.9h.8c2,0,3.5-.65,4.95-2.85l5.55-8.5c-5.4-3.9-3-13.81-10.35-13.81h-.8v-.94c0-2.21,1.7-3.11,3.9-3.11,8.85,0,4.9,15.16,12.4,15.16h2.7V77.34c0-2.4.75-2.4,4.5-2.4V89.8h2.65c7.55,0,3.6-15.16,12.65-15.16,2.15,0,3.7.9,3.7,3.11v.94h-.8c-7.4,0-5,9.86-10.35,13.81l5.5,8.5a5.39,5.39,0,0,0,5,2.85h.8v.9c0,2.2-2.15,3.1-4,3.1C248.13,107.85,246.68,107.3,244.58,103.8Z"/><path class="cls-2" d="M279,104.1l-7-10h-3.75v13.3h-4.55v-30c0-2.4.8-2.4,4.55-2.4V89.8h3.2c9.35,0,4.6-15.11,14.05-15.11,2.15,0,3.35.85,3.35,3.06v.94H288c-7,0-4.6,10.51-11.45,14.16l6.35,8.5a5.67,5.67,0,0,0,5.15,2.5h.8v.9c0,2.2-2.15,3.1-3.95,3.1C282.83,107.85,281.33,107.4,279,104.1Z"/><path class="cls-2" d="M298.23,107.35v-30c0-2.4.8-2.4,4.55-2.4v32.41Z"/><path class="cls-2" d="M340.18,105.15c0,2.4-.65,2.4-4.5,2.4V93.9H318.83v13.45h-4.55v-30c0-2.4.8-2.4,4.55-2.4V89.65h16.85V75.14h4.5Z"/><rect class="cls-2" x="66.43" y="45.5" width="78" height="4.25"/><rect class="cls-2" x="262.58" y="45.5" width="79.96" height="4.25"/><rect class="cls-2" x="66.43" y="126.64" width="276.11" height="4.25"/></g></g></svg>