<svg width="262" height="108" viewBox="0 0 262 108" fill="none" xmlns="http://www.w3.org/2000/svg">
<path d="M260.447 2H2V106.445H260.447V2Z" stroke="white" stroke-width="3" stroke-miterlimit="10"/>
<path d="M109.399 36.6233H108.697C106.591 36.6233 105.57 35.7928 105.57 33.4292V25.1886C105.57 24.2943 105.889 24.2943 107.293 24.2943H112.845C113.483 24.2943 113.483 24.8692 113.483 25.9552H107.293V29.5325H109.144C111.952 29.5325 113.739 30.363 113.739 32.8543C113.739 35.4734 111.569 36.6233 109.399 36.6233ZM109.016 31.1934H107.293V33.3015C107.293 34.3874 107.74 34.9624 108.889 34.9624H109.335C110.612 34.9624 111.952 34.5152 111.952 32.9821C111.888 31.5767 110.739 31.1934 109.016 31.1934Z" fill="white"/>
<path d="M117.248 36.6233V25.1248C117.248 24.2304 117.567 24.2304 118.971 24.2304V29.8519H122.034C122.098 26.1468 123.949 24.1027 127.203 24.1027C130.522 24.1027 132.436 26.2107 132.436 30.1074C132.436 34.0042 130.458 36.8149 127.203 36.8149C124.332 36.8149 122.545 34.643 122.098 31.5128H118.907V36.6871H117.248V36.6233ZM127.267 25.6997C125.161 25.6997 123.949 27.1689 123.949 30.1074C123.949 33.3015 125.225 35.154 127.267 35.154C129.373 35.154 130.649 33.3015 130.649 30.1074C130.649 27.1689 129.437 25.6997 127.267 25.6997Z" fill="white"/>
<path d="M138.881 32.471H137.733V36.6233H136.01V25.1886C136.01 24.2943 136.329 24.2943 137.733 24.2943H139.2C142.2 24.2943 144.306 25.2525 144.306 28.191C144.306 30.9379 142.008 32.471 138.881 32.471ZM139.2 25.8913H137.733V30.9379H138.945C140.987 30.9379 142.519 30.0436 142.519 28.191C142.519 26.3385 140.796 25.8913 139.2 25.8913Z" fill="white"/>
<path d="M152.92 36.8149C149.538 36.8149 147.113 33.8764 147.113 30.1074C147.113 26.3385 149.474 24.1027 152.92 24.1027C156.43 24.1027 158.727 26.3385 158.727 30.1074C158.727 33.8764 156.303 36.8149 152.92 36.8149ZM152.92 25.6997C150.495 25.6997 148.964 27.3606 148.964 30.1074C148.964 33.0459 150.559 35.154 152.92 35.154C155.282 35.154 156.941 33.1098 156.941 30.1074C156.877 27.2967 155.345 25.6997 152.92 25.6997Z" fill="white"/>
<path d="M43.9897 69.2663H42.7772C39.2036 69.2663 37.5444 67.7971 37.5444 63.9642V50.2299C37.5444 48.6968 38.0549 48.6968 40.4161 48.6968H49.7329C50.8178 48.6968 50.8178 49.655 50.8178 51.5075H40.4161V57.5123H43.543C48.2014 57.5123 51.2645 58.9816 51.2645 63.0699C51.2645 67.3499 47.6271 69.2663 43.9897 69.2663ZM43.3515 60.1953H40.4161V63.7087C40.4161 65.5613 41.118 66.5195 43.0325 66.5195H43.7982C45.9041 66.5195 48.1376 65.7529 48.1376 63.2616C48.2014 60.8341 46.2232 60.1953 43.3515 60.1953Z" fill="white"/>
<path d="M67.0904 62.495C66.1332 68.1165 63.6445 69.5857 61.0281 69.5857C59.3051 69.5857 58.0288 68.9469 58.0288 67.5416V66.5195C58.5393 66.775 59.4965 66.9028 60.0709 66.9028C61.8577 66.9028 63.2616 66.1362 63.7721 63.9642C60.0709 58.8538 57.1992 54.1266 55.0295 48.8245V48.6968H58.4117C60.007 52.5935 62.432 56.6819 64.9207 60.4508L69.1963 48.6968H72.7061L67.0904 62.495Z" fill="white"/>
<path d="M96.2534 69.394V53.6794C94.339 58.2149 92.2969 62.3033 89.9358 66.4555C89.0424 66.8388 87.9576 66.9666 87.0642 67.0305C84.8307 62.8782 82.5972 58.2788 80.6827 53.7433V69.3302H77.9387V49.3994C79.0236 48.8245 80.2998 48.6967 81.5761 48.569C83.3629 52.9128 85.9155 58.8537 88.5319 63.517C91.3397 58.4066 93.2541 54.0627 95.2324 49.4633C96.4448 48.8245 97.6573 48.6329 99.0612 48.569V67.4776C98.9974 69.394 98.9336 69.394 96.2534 69.394Z" fill="white"/>
<path d="M120.758 69.2663L119.099 64.7946H109.654C109.144 66.2639 108.697 67.797 108.251 69.2663H104.868C106.91 63.1337 109.463 56.8734 112.143 51.6991C112.654 50.7409 112.781 49.9743 112.526 49.3994C113.675 48.7606 114.76 48.4412 115.908 48.3773L124.013 68.8191V69.2024H120.758V69.2663ZM114.696 52.7212C113.228 55.6597 111.824 58.9176 110.612 62.1755H118.142L114.696 52.7212Z" fill="white"/>
<path d="M149.73 67.0305L145.965 60.7702C145.646 60.7702 145.39 60.7702 145.071 60.7702H143.667V69.2663H140.796V60.7702H139.392C139.073 60.7702 138.754 60.7702 138.562 60.7702L134.797 67.0305C133.457 69.2663 132.245 69.5857 130.905 69.5857C129.756 69.5857 128.543 69.0108 128.543 67.6054V67.0305H129.054C130.33 67.0305 131.287 66.5833 132.245 65.1779L135.754 59.7481C132.308 57.2567 133.84 50.9325 129.118 50.9325H128.607V50.3576C128.607 48.9522 129.692 48.3773 131.096 48.3773C136.775 48.3773 134.223 58.0872 139.009 58.0872H140.732V50.1021C140.732 48.569 141.242 48.569 143.604 48.569V58.0872H145.327C150.176 58.0872 147.624 48.3773 153.431 48.3773C154.771 48.3773 155.792 48.9522 155.792 50.3576V50.9325H155.282C150.559 50.9325 152.091 57.2567 148.645 59.7481L152.155 65.1779C153.112 66.5833 154.069 67.0305 155.345 67.0305H155.856V67.6054C155.856 69.0108 154.452 69.5857 153.303 69.5857C152.027 69.5857 151.07 69.2663 149.73 67.0305Z" fill="white"/>
<path d="M171.746 67.2221L167.279 60.7701H166.641H164.918V69.2662H161.982V50.1021C161.982 48.5689 162.493 48.5689 164.918 48.5689V58.0871H166.96C172.958 58.0871 169.895 48.4412 175.957 48.4412C177.298 48.4412 178.063 49.0161 178.063 50.4215V50.9964H177.489C173.022 50.9964 174.554 57.7039 170.15 60.0674L174.235 65.4973C175.256 66.7749 176.213 67.0943 177.553 67.0943H178.063V67.6692C178.063 69.0746 176.723 69.6495 175.511 69.6495C174.171 69.5856 173.213 69.3301 171.746 67.2221Z" fill="white"/>
<path d="M198.101 69.394V53.4239L186.742 69.5856C185.721 69.4579 184.827 69.2662 183.934 68.6913V50.1021C183.934 48.5689 184.445 48.5689 186.806 48.5689V64.4752L198.165 48.4412C199.186 48.505 200.079 48.7606 200.972 49.3355V67.8609C200.972 69.394 200.526 69.394 198.101 69.394Z" fill="white"/>
<path d="M224.839 67.8609C224.839 69.394 224.456 69.394 221.967 69.394V60.7062H211.183V69.3301H208.247V50.1659C208.247 48.6328 208.758 48.6328 211.183 48.6328V58.0233H221.967V48.6967H224.839V67.8609Z" fill="white"/>
<path d="M85.8517 29.7881H36.0767V32.535H85.8517V29.7881Z" fill="white"/>
<path d="M226.371 29.7881H175.319V32.535H226.371V29.7881Z" fill="white"/>
<path d="M226.371 81.5952H36.0767V84.3421H226.371V81.5952Z" fill="white"/>
</svg>
