<svg width="158" height="157" viewBox="0 0 158 157" fill="none" xmlns="http://www.w3.org/2000/svg">
<circle cx="80.0627" cy="78.6457" r="77.9372" fill="#EEF2FA"/>
<mask id="mask0" mask-type="alpha" maskUnits="userSpaceOnUse" x="2" y="0" width="156" height="156">
<circle cx="80.0627" cy="77.9372" r="77.9372" fill="#EEF2FA"/>
</mask>
<g mask="url(#mask0)">
<path d="M26.8114 172.02C29.8491 156.078 33.8994 143.679 39.4684 134.316L40.481 93.3232C28.8365 101.927 15.9264 130.014 5.29444 160.886L4.53502 162.657V164.681C4.53502 165.947 2.25675 200.361 10.6104 229.46H31.1148C24.7863 207.446 24.7863 177.84 26.8114 172.02Z" fill="#FCA70C"/>
<path d="M117.689 232.244V96.6128C117.689 92.3111 113.892 89.7807 110.095 88.0094C103.513 85.4789 88.8311 79.4059 88.8311 79.4059H69.0861C69.0861 79.4059 53.3913 84.7198 47.8223 88.0094C44.0251 90.0337 40.228 92.3111 40.228 96.6128V231.991H117.689V232.244Z" fill="#DAD8D5"/>
<path d="M117.689 232.244V96.6128C117.689 92.3111 113.892 89.7807 110.095 88.0094C103.513 85.4789 88.8308 79.4059 88.8308 79.4059L78.9583 133.557L69.0858 79.4059C69.0858 79.4059 53.391 84.7198 47.8219 88.0094C44.0248 90.0337 39.7214 93.0702 39.7214 95.0946L40.2277 232.244H117.689Z" fill="#007FFF"/>
<path d="M88.8309 79.659L78.7053 90.2869L69.0859 79.659V70.0434H88.8309V79.659Z" fill="#F8A899"/>
<path d="M100.729 58.6564C100.729 62.9581 89.8436 75.6103 78.9586 75.6103C68.3267 75.6103 57.1885 63.7173 57.1885 58.6564V42.4616C57.1885 30.3155 67.061 20.6999 78.9586 20.6999C91.1093 20.6999 100.729 30.5686 100.729 42.4616V58.6564Z" fill="#F8A899"/>
<path d="M104.394 51.7464C105.197 49.3622 104.451 46.9597 102.728 46.3803C101.005 45.801 98.9585 47.2641 98.156 49.6483C97.3534 52.0325 98.0993 54.435 99.8219 55.0144C101.545 55.5937 103.592 54.1306 104.394 51.7464Z" fill="#F8A899"/>
<path d="M57.8634 54.8557C59.586 54.2765 60.3321 51.8742 59.5298 49.49C58.7276 47.1058 56.6808 45.6425 54.9582 46.2217C53.2356 46.8009 52.4895 49.2032 53.2917 51.5874C54.094 53.9716 56.1408 55.4349 57.8634 54.8557Z" fill="#F8A899"/>
<path d="M78.7053 90.2867L88.831 79.9119L93.8938 81.9363C93.8938 81.9363 100.222 88.5154 100.729 95.8537L93.3875 91.5519L78.7053 90.2867Z" fill="#ECE5E5"/>
<path d="M78.7054 90.2867L69.086 79.9119L63.5169 81.6832C63.5169 81.6832 57.4416 88.5154 56.6821 95.8537L64.0232 91.5519L78.7054 90.2867Z" fill="#ECE5E5"/>
<path d="M56.9352 50.5589C56.9352 50.5589 59.2135 42.2085 64.5294 38.4128L67.5671 33.858C67.5671 33.858 70.858 32.8459 78.7053 36.1354C86.5527 39.172 88.5778 43.9798 96.172 42.2085C96.172 42.2085 99.4629 48.7876 99.9691 51.318C99.9691 51.318 101.741 45.7511 102.247 40.4372C102.754 35.1233 103.766 21.712 87.3121 17.4102C70.0985 12.8554 63.0106 23.7363 63.0106 23.7363C63.0106 23.7363 61.4917 21.965 57.1884 28.7972C54.1507 33.605 53.8975 41.7024 57.1884 51.318" fill="#310072"/>
<path d="M100.729 52.0772C100.729 48.7877 97.1848 44.4859 97.1848 44.4859C97.1848 44.4859 98.7036 54.3546 94.9065 59.1624C91.6157 63.4642 81.49 69.7903 78.4523 69.7903C75.4147 69.7903 65.289 63.2111 61.9982 59.1624C58.4542 54.1016 59.9731 43.2207 59.9731 43.2207C59.9731 43.2207 56.4291 48.7877 56.4291 52.0772C56.4291 52.0772 55.1634 58.9094 57.9479 63.2111C60.9856 67.7659 71.1113 74.5981 71.1113 74.5981C71.1113 74.5981 75.4147 77.1285 78.4523 77.1285C81.49 76.8755 85.7934 74.5981 85.7934 74.5981C85.7934 74.5981 96.1722 68.272 99.2099 63.7172C102.248 59.4155 100.729 52.0772 100.729 52.0772Z" fill="#310072"/>
<path d="M91.3622 65.4885L89.084 62.199C88.3246 61.6929 84.5274 59.1624 79.4646 59.1624C72.6298 59.1624 68.5796 60.6807 67.567 61.6929C66.3013 62.9581 65.0356 65.2355 65.0356 65.2355L60.9854 63.2111C60.9854 63.2111 62.5042 60.4277 64.2762 58.4033C66.5545 56.1259 72.6298 54.6077 79.4646 54.6077C87.0589 54.6077 92.1217 58.6564 92.3748 58.9094L92.628 59.1624L95.1594 63.2111L91.3622 65.4885Z" fill="#310072"/>
<path d="M113.386 132.545H59.9729V214.784H113.386V132.545Z" fill="#E6E7E8"/>
<path d="M87.8188 203.144C125.79 200.36 158.445 169.236 158.445 169.236C158.445 125.713 123.765 96.3597 114.145 90.5397C114.145 90.5397 117.689 94.3353 117.689 96.8658C117.689 105.722 117.689 134.316 117.689 134.316C125.537 142.667 128.321 149.499 132.118 161.645C118.955 172.273 107.311 180.623 81.9966 184.925L87.8188 203.144Z" fill="#FCA70C"/>
</g>
</svg>
