<svg width="158" height="156" viewBox="0 0 158 156" fill="none" xmlns="http://www.w3.org/2000/svg">
<circle cx="80.0627" cy="77.9372" r="77.9372" fill="#EEF2FA"/>
<mask id="mask0" mask-type="alpha" maskUnits="userSpaceOnUse" x="0" y="0" width="156" height="156">
<circle cx="77.9372" cy="77.9372" r="77.9372" fill="#EEF2FA"/>
</mask>
<g mask="url(#mask0)">
<path d="M105.766 39.4716C109.019 52.4766 101.427 73.3386 92.7506 90.9494C85.4297 105.58 108.748 129.964 89.768 157.058C70.7878 184.151 72.4147 198.511 55.6037 198.511C41.5042 198.511 39.8773 192.821 34.1832 174.94C27.9469 156.787 28.2181 119.669 32.5564 107.747C36.8947 95.8263 48.2828 77.9445 47.1982 61.4174C45.8425 45.1613 54.248 29.447 54.248 29.447C54.248 29.447 66.1784 7.50123 86.2431 15.0874C103.325 21.319 103.868 31.8854 105.766 39.4716Z" fill="#5D3F1C"/>
<path d="M51.8077 87.9692C51.8077 87.9692 37.437 92.0332 29.8449 128.068C26.8623 142.156 25.5066 147.846 25.5066 168.437H40.1484C40.1484 168.437 46.1136 127.797 46.1136 120.211C46.6559 97.7229 51.8077 87.9692 51.8077 87.9692Z" fill="#FCA70C"/>
<path d="M110.375 91.2205C103.867 88.2402 88.141 80.9249 88.141 80.9249H68.8897C68.8897 80.9249 57.5016 87.1564 50.9941 90.1367C50.9941 90.1367 42.8598 122.649 47.7404 142.969C52.3499 162.748 53.9767 189.57 53.9767 189.57H102.512C102.512 189.57 101.427 162.477 107.663 143.511C116.34 117.772 110.375 91.2205 110.375 91.2205Z" fill="#E6E7E8"/>
<path d="M88.1407 80.9248L78.6506 89.8657L68.8894 80.9248V64.9396H88.1407V80.9248Z" fill="#F7A898"/>
<path d="M98.7155 53.8314C97.0886 60.8757 87.0563 74.4225 78.1085 74.4225C70.5164 74.4225 58.0437 63.3141 57.5014 55.7279C57.5014 55.7279 55.6034 42.4521 55.3323 38.1171C54.5188 25.1122 66.7204 14.2748 78.1085 14.2748C89.4966 14.2748 102.24 24.8413 101.427 38.1171C101.156 42.723 99.8001 49.4964 98.7155 53.8314Z" fill="#F8B4A7"/>
<path d="M90.5814 79.5702C90.5814 79.5702 97.9023 65.2106 97.9023 60.3337C97.9023 57.3534 97.9023 55.7278 97.9023 44.3485C97.9023 37.5751 92.4794 31.8855 92.4794 31.8855C91.6659 31.8855 90.5814 40.2845 77.5664 43.8067C69.7032 45.9741 60.2131 41.6392 60.2131 57.3534C60.2131 64.6687 61.2977 73.0677 65.0937 78.7574C65.0937 78.7574 49.6384 70.0874 49.6384 44.6195C49.9096 38.117 56.9593 13.4619 76.4818 13.4619C90.5814 13.4619 106.037 22.9446 106.037 44.8904C106.037 57.3534 101.427 76.048 90.5814 79.5702Z" fill="#5E3F1C"/>
<path d="M88.1409 80.925L109.29 89.8659C109.29 89.8659 111.459 91.4915 112.273 95.5555C112.815 98.5358 116.611 135.383 105.223 174.398C101.969 185.777 113.357 195.26 114.984 208.807C114.984 208.807 112.273 211.787 105.494 213.683C102.512 214.496 93.8349 213.413 93.8349 213.413L88.1409 80.925Z" fill="#FCA70C"/>
<path d="M68.8899 80.9249L50.9943 88.2402C50.9943 88.2402 48.8251 89.8658 48.0117 93.9298C47.4694 96.9101 42.3176 130.235 50.1808 171.688C52.6211 184.964 43.1311 198.782 42.3176 208.807C42.3176 208.807 45.3002 211.787 52.0789 212.329C54.7903 212.6 63.467 211.245 63.467 211.245L68.8899 80.9249Z" fill="#FCA70C"/>
<path d="M87.8701 80.925L97.6313 92.8462L93.0219 97.4521L102.783 116.147L91.6661 171.418L87.8701 80.925Z" fill="#F98011"/>
<path d="M69.4321 81.1959L58.8574 92.5752L64.0092 97.7229L56.6882 116.418L65.3649 171.688L69.4321 81.1959Z" fill="#F98011"/>
<path d="M78.6511 89.8657C78.6511 89.8657 88.6835 84.9888 94.3775 86.6145C94.3775 86.6145 93.8353 80.3829 87.8701 79.2992V80.6539L78.6511 89.8657Z" fill="#C8CACB"/>
<path d="M78.651 89.8657C78.651 89.8657 68.6186 84.9888 62.9246 86.6145C62.9246 86.6145 62.9246 80.3829 68.8898 79.2992V80.6539L78.651 89.8657Z" fill="#C8CACB"/>
<path d="M78.6513 89.8658C78.9225 98.2648 79.1936 106.393 79.1936 114.792L79.4648 139.718L79.1936 164.644C79.1936 173.043 78.9225 181.171 78.6513 189.57C78.3802 181.171 78.109 173.043 78.109 164.644L77.8379 139.718L78.109 114.792C78.109 106.393 78.3802 98.2648 78.6513 89.8658Z" fill="#C8CACB"/>
<path d="M96.867 108.129L54.9702 134.184L99.3849 205.492L141.282 179.436L96.867 108.129Z" fill="#C0373F"/>
<path d="M141.285 144.053C143.183 148.659 141.014 153.807 136.405 155.703C131.795 157.6 126.643 155.432 124.745 150.826L113.086 126.984C112.273 125.629 107.663 88.782 109.019 89.8657C125.288 102.871 141.285 144.053 141.285 144.053Z" fill="#FCA70C"/>
<path d="M107.934 177.649C104.409 181.171 94.3771 170.605 97.902 167.082L126.915 141.073C130.439 137.55 136.133 137.55 139.658 141.073C143.183 144.595 143.183 150.284 139.658 153.807L107.934 177.649Z" fill="#FCA70C"/>
</g>
</svg>
