<svg width="136" height="150" viewBox="0 0 136 150" fill="none" xmlns="http://www.w3.org/2000/svg">
<circle cx="68" cy="68" r="68" fill="#EEF2FA"/>
<g>
<path d="M30.1747 95.2049H19.6461C18.7127 95.2049 17.8021 94.8104 16.9241 94.9959C10.9977 96.2488 6.55005 101.509 6.55005 107.809V120.471C6.55005 121.036 7.00729 121.493 7.57158 121.493H42.2492C42.8135 121.493 43.2707 121.036 43.2707 120.471V107.809C43.2707 101.509 38.8228 96.2485 32.8964 94.9959C32.0184 94.8104 31.1078 95.2049 30.1747 95.2049Z" fill="#ED5575"/>
<path d="M42.7862 77.0556V67.2958C42.7862 57.4233 34.783 49.4199 24.9103 49.4199C15.0378 49.4199 7.03439 57.4231 7.03439 67.2958V77.0556C7.03439 79.6836 6.18857 82.8932 5.11979 84.9212C4.76075 85.6026 5.2517 86.4202 6.02197 86.4202H43.7986C44.5689 86.4202 45.0598 85.6026 44.7008 84.9212C43.632 82.8932 42.7862 79.6836 42.7862 77.0556Z" fill="#444966"/>
<path d="M38.1656 72.1864V74.971C38.1656 82.291 32.2303 88.2242 24.9103 88.2242C17.5903 88.2242 11.655 82.291 11.655 74.971V66.3427C11.655 65.8774 11.6819 65.4159 11.7333 64.9639H13.4269C15.2273 64.9639 16.837 66.0853 17.4626 67.7752C17.9528 69.1007 18.8301 70.2032 19.9363 70.9756C21.0444 71.7462 22.3832 72.1867 23.7965 72.1867H38.1656V72.1864Z" fill="#FCD0AE"/>
<path d="M32.8964 94.9979C32.0181 94.8121 31.1083 94.7129 30.1749 94.7129H19.6461C18.7127 94.7129 17.8026 94.8123 16.9246 94.9979C17.5543 99.7755 20.6595 103.771 24.9105 105.657C29.1615 103.771 32.2667 99.7753 32.8964 94.9979Z" fill="#EBEEF2"/>
<path d="M124.404 84.9132C128.047 84.9132 131 81.9602 131 78.3174C131 74.6747 128.047 71.7217 124.404 71.7217C120.761 71.7217 117.808 74.6747 117.808 78.3174C117.808 81.9602 120.761 84.9132 124.404 84.9132Z" fill="#2E344C"/>
<path d="M111.149 88.2256C103.828 88.2256 97.8936 82.2911 97.8936 74.9706V66.3436C97.8936 59.5568 103.395 54.0552 110.182 54.0552H112.115C118.902 54.0552 124.404 59.5568 124.404 66.3436V74.9706C124.404 82.2911 118.469 88.2256 111.149 88.2256Z" fill="#FCD0AE"/>
<path d="M116.413 94.7129H105.884C98.6515 94.7129 92.7881 100.576 92.7881 107.809V120.472C92.7881 121.036 93.2453 121.493 93.8096 121.493H128.487C129.052 121.493 129.509 121.036 129.509 120.472V107.809C129.509 100.576 123.646 94.7129 116.413 94.7129Z" fill="#5C9CEE"/>
<path d="M124.404 66.3443V75.0107C105.444 73.3385 103.843 63.1121 103.843 63.1121V69.6525H97.8933V66.344C97.8933 59.5568 103.394 54.0557 110.182 54.0557H112.115C118.902 54.0557 124.404 59.5571 124.404 66.3443Z" fill="#444966"/>
<path d="M119.134 94.9979C118.256 94.8121 117.346 94.7129 116.413 94.7129H105.884C104.951 94.7129 104.041 94.8123 103.163 94.9979C103.792 99.7755 106.898 103.771 111.149 105.657C115.4 103.771 118.505 99.7753 119.134 94.9979Z" fill="#EBEEF2"/>
<path d="M93.1468 112.159C86.9844 89.6729 87.1209 88.1258 91.4485 67.1383C91.8346 65.4107 92.0398 63.6147 92.0398 61.7707C92.0398 48.2379 81.0693 37.2676 67.5367 37.2676C54.0041 37.2676 43.0335 48.2381 43.0335 61.7707C43.0335 63.6147 43.2387 65.4107 43.6249 67.1383C47.9526 88.1255 48.0892 89.6729 41.9266 112.159C41.221 114.555 40.8406 117.09 40.8406 119.714C40.8406 134.458 52.7928 130.898 67.5367 130.898C82.2806 130.898 94.2328 134.458 94.2328 119.714C94.2328 117.09 93.8523 114.555 93.1468 112.159Z" fill="#FCAB29"/>
<path d="M93.1467 112.159C86.9843 89.6727 87.1209 88.1255 91.4485 67.1383C91.8346 65.4107 92.0398 63.6147 92.0398 61.7707C92.0398 48.2379 81.0693 37.2676 67.5367 37.2676C66.9035 37.2676 66.2759 37.2917 65.6548 37.3387C76.6418 38.2997 85.2971 48.8711 85.2971 61.7707C85.2971 63.6147 85.119 65.4107 84.7838 67.1383C81.026 88.1258 80.9076 89.6727 86.2584 112.159C86.8711 114.555 87.2014 117.09 87.2014 119.714C87.2014 128.61 83.4222 130.841 77.6129 131.213C87.3616 131.549 94.233 130.892 94.233 119.714C94.2328 117.09 93.8523 114.555 93.1467 112.159Z" fill="#DD8D19"/>
<path d="M75.1911 98.2861H59.8822C56.9557 98.2861 54.1835 98.454 51.7063 99.6335C45.2813 102.693 40.8406 109.245 40.8406 116.835V134.179C40.8406 135.589 41.9839 136.733 43.3945 136.733H91.6788C93.0892 136.733 94.2328 135.589 94.2328 134.179V116.836C94.2328 109.193 89.7308 102.603 83.2344 99.571C80.791 98.4308 78.0652 98.2861 75.1911 98.2861Z" fill="#656D88"/>
<path d="M75.1913 98.2861H71.3301C75.317 98.2861 78.9816 99.3493 81.8717 101.951C85.7481 105.44 88.2315 110.811 88.2315 116.836V134.179C88.2315 135.589 87.2166 136.733 85.9647 136.733H91.6792C93.0896 136.733 94.2332 135.589 94.2332 134.179V116.836C94.2332 109.193 89.7311 102.603 83.2348 99.571C80.7911 98.4308 78.0654 98.2861 75.1913 98.2861Z" fill="#444966"/>
<path d="M85.3662 74.4231C84.3695 83.3844 76.7665 90.3549 67.5368 90.3549C57.6282 90.3549 49.594 82.3205 49.594 72.4121V60.735C49.594 56.3952 51.2566 52.4424 53.9803 49.4814C58.0697 58.925 68.7193 70.1064 85.3662 74.4231Z" fill="#FCD0AE"/>
<path d="M78.6982 72.2109C78.7334 72.9123 78.7068 73.6469 78.6032 74.4223C77.8501 82.7722 72.4447 89.3911 65.6555 90.2556C66.2739 90.3199 66.9012 90.3541 67.5366 90.3541C76.7663 90.3541 84.3694 83.3835 85.366 74.4223C83.0225 73.8145 80.8023 73.0666 78.6982 72.2109Z" fill="#E59F6A"/>
<path d="M67.5367 128.117L83.185 99.5535C80.7536 98.4269 78.0468 97.7939 75.1909 97.7939H59.8822C57.0263 97.7939 54.3196 98.4269 51.8884 99.5535L67.5367 128.117Z" fill="#EBEEF2"/>
<path d="M70.318 104.803C73.1059 103.696 75.0781 100.976 75.0781 97.7935H59.9954C59.9954 100.976 61.9675 103.696 64.7555 104.803L62.2641 118.492L67.5369 128.117L72.8096 118.492L70.318 104.803Z" fill="#ED5575"/>
</g>
<defs>
</defs>
</svg>
