<svg width="136" height="145" viewBox="0 0 136 145" fill="none" xmlns="http://www.w3.org/2000/svg">
<circle cx="68" cy="68" r="68" fill="#EEF2FA"/>
<path d="M133.893 74.4039C133.68 73.6085 133.17 72.944 132.457 72.5323L92.4163 49.4146C91.7032 49.0027 90.8722 48.8932 90.0772 49.1063C89.282 49.3194 88.6173 49.8296 88.2058 50.5424L53.6207 110.446C53.209 111.159 53.0995 111.99 53.3126 112.785C53.5257 113.58 54.0356 114.245 54.7487 114.657L94.79 137.775C95.2741 138.054 95.8033 138.187 96.3255 138.187C97.3915 138.187 98.43 137.634 99.0002 136.646L133.586 76.7425C133.997 76.0297 134.106 75.1991 133.893 74.4039Z" fill="#EBEEF2"/>
<path d="M87.2812 58.8979H83.3812L53.6202 110.446C53.2085 111.159 53.099 111.99 53.3121 112.785C53.5253 113.58 54.0352 114.245 54.7482 114.657L94.0793 137.364V65.6963C94.0793 61.9478 91.0296 58.8979 87.2812 58.8979Z" fill="#D1D6DE"/>
<path d="M115.614 77.6878C115.338 77.6878 115.058 77.6176 114.802 77.4697L96.967 67.1725C96.1894 66.7235 95.9229 65.7291 96.3719 64.9514C96.8209 64.1736 97.8151 63.9074 98.593 64.3563L116.428 74.6535C117.206 75.1025 117.472 76.097 117.023 76.8746C116.722 77.3962 116.176 77.6878 115.614 77.6878Z" fill="#1B3D66"/>
<path d="M113.614 94.1907C113.338 94.1907 113.059 94.1205 112.803 93.9726L83.675 77.1559C82.8974 76.7069 82.6309 75.7125 83.0799 74.9348C83.5289 74.157 84.5234 73.8907 85.301 74.3397L114.429 91.1564C115.206 91.6054 115.473 92.5999 115.024 93.3775C114.722 93.8991 114.176 94.1907 113.614 94.1907Z" fill="#656D88"/>
<path d="M109.809 100.781C109.534 100.781 109.254 100.711 108.998 100.563L79.8701 83.7462C79.0924 83.2972 78.826 82.3027 79.275 81.5251C79.724 80.7472 80.7184 80.4812 81.4961 80.93L110.624 97.7469C111.401 98.1959 111.668 99.1903 111.219 99.968C110.918 100.49 110.371 100.781 109.809 100.781Z" fill="#656D88"/>
<path d="M106.004 107.371C105.729 107.371 105.449 107.301 105.193 107.153L76.0654 90.3361C75.2878 89.8871 75.0213 88.8927 75.4703 88.115C75.9193 87.3372 76.9137 87.0709 77.6914 87.5199L106.819 104.337C107.597 104.786 107.863 105.78 107.414 106.558C107.113 107.079 106.566 107.371 106.004 107.371Z" fill="#656D88"/>
<path d="M102.2 113.962C101.924 113.962 101.644 113.892 101.388 113.744L72.2605 96.927C71.4828 96.478 71.2164 95.4835 71.6654 94.7059C72.1144 93.9278 73.1088 93.6618 73.8865 94.1108L103.014 110.927C103.792 111.376 104.058 112.371 103.609 113.149C103.308 113.67 102.762 113.962 102.2 113.962Z" fill="#656D88"/>
<path d="M84.2459 55.2124H36.2341C32.4857 55.2124 29.436 58.2621 29.436 62.0105V137.226C29.436 140.974 32.4857 144.024 36.2341 144.024H84.2459C87.9943 144.024 91.044 140.974 91.044 137.226V62.0107C91.044 58.2623 87.9943 55.2124 84.2459 55.2124Z" fill="#48CFB7"/>
<path d="M84.2459 55.2124H78.4048C82.1532 55.2124 85.2029 58.2621 85.2029 62.0105V137.226C85.2029 140.974 82.1532 144.024 78.4048 144.024H84.2459C87.9944 144.024 91.044 140.974 91.044 137.226V62.0107C91.044 58.2623 87.9944 55.2124 84.2459 55.2124Z" fill="#35B5A0"/>
<path d="M22.9995 67.2876V72.3858C22.9995 72.8552 23.38 73.2354 23.8491 73.2354H37.7272C38.1965 73.2354 38.5768 72.855 38.5768 72.3858V67.2876C38.5768 66.8182 38.1963 66.438 37.7272 66.438H23.8491C23.38 66.438 22.9995 66.8182 22.9995 67.2876Z" fill="#F2DF33"/>
<path d="M22.9995 93.8545V98.9527C22.9995 99.4221 23.38 99.8023 23.8491 99.8023H37.7272C38.1965 99.8023 38.5768 99.4218 38.5768 98.9527V93.8545C38.5768 93.3851 38.1963 93.0049 37.7272 93.0049H23.8491C23.38 93.0047 22.9995 93.3851 22.9995 93.8545Z" fill="#F2DF33"/>
<path d="M22.9995 120.421V125.519C22.9995 125.988 23.38 126.369 23.8491 126.369H37.7272C38.1965 126.369 38.5768 125.988 38.5768 125.519V120.421C38.5768 119.952 38.1963 119.571 37.7272 119.571H23.8491C23.38 119.571 22.9995 119.952 22.9995 120.421Z" fill="#F2DF33"/>
<path d="M72.2188 82.6351H48.2621C47.6158 82.6351 47.0918 82.1111 47.0918 81.4648V73.0145C47.0918 72.3682 47.6158 71.8442 48.2621 71.8442H72.2188C72.865 71.8442 73.389 72.3682 73.389 73.0145V81.4648C73.3892 82.1111 72.8652 82.6351 72.2188 82.6351Z" fill="#FCD0AE"/>
</svg>
