<svg width="136" height="148" viewBox="0 0 136 148" fill="none" xmlns="http://www.w3.org/2000/svg">
<circle cx="68" cy="68" r="68" fill="#EEF2FA"/>
<g>
<path d="M102.041 61.0591V131.275C102.041 134.048 99.7934 136.296 97.0198 136.296H36.9803C34.2067 136.296 31.959 134.048 31.959 131.275V48.5741C31.959 45.8005 34.2067 43.5527 36.9803 43.5527H84.5348L102.041 61.0591Z" fill="#EBEEF2"/>
<path d="M103.139 59.961L85.6327 42.4546C85.3416 42.1636 84.9466 42 84.5348 42H36.9801C33.3554 42 30.4062 44.9492 30.4062 48.5741V131.275C30.4062 134.9 33.3554 137.849 36.9801 137.849H97.0198C100.645 137.849 103.594 134.9 103.594 131.275V61.0591C103.594 60.6471 103.43 60.2523 103.139 59.961ZM95.7467 58.3066V121.542C95.7467 122.066 95.3491 122.494 94.8292 122.558C91.4208 122.973 88.7185 125.676 88.3027 129.084C88.2394 129.604 87.811 130.002 87.2873 130.002H46.7129C46.1891 130.002 45.7607 129.604 45.6974 129.084C45.2817 125.676 42.5793 122.973 39.1709 122.558C38.6511 122.494 38.2534 122.066 38.2534 121.542V58.3066C38.2534 57.7828 38.6511 57.3545 39.1709 57.2911C42.5793 56.8754 45.2817 54.173 45.6974 50.7647C45.7607 50.2448 46.1891 49.8471 46.7129 49.8471H87.2873C87.811 49.8471 88.2394 50.2448 88.3027 50.7647C88.7185 54.173 91.4208 56.8752 94.8292 57.2911C95.3491 57.3545 95.7467 57.7828 95.7467 58.3066Z" fill="#48CFB7"/>
<path d="M103.139 59.961L91.5281 48.3501V53.4226L98.0665 59.961C98.3578 60.2523 98.5214 60.6471 98.5214 61.0591V131.275C98.5214 134.9 95.5722 137.849 91.9475 137.849H97.0202C100.645 137.849 103.594 134.9 103.594 131.275V61.0591C103.594 60.6471 103.43 60.2523 103.139 59.961Z" fill="#35B5A0"/>
<path d="M103.139 59.9611L85.6326 42.4547C85.1885 42.0106 84.5204 41.8779 83.9405 42.1183C83.3602 42.3585 82.9819 42.9249 82.9819 43.5528V56.038C82.9819 59.663 85.9311 62.6119 89.5558 62.6119H102.041C102.669 62.6119 103.235 62.2337 103.475 61.6534C103.716 61.073 103.583 60.4052 103.139 59.9611Z" fill="#D1D6DE"/>
<path d="M79.5252 65.0376H54.4749C53.6173 65.0376 52.9221 64.3426 52.9221 63.4849C52.9221 62.6271 53.6173 61.9321 54.4749 61.9321H79.5252C80.3827 61.9321 81.078 62.6271 81.078 63.4849C81.078 64.3426 80.3827 65.0376 79.5252 65.0376Z" fill="#1B3D66"/>
<path d="M86.483 81.4839H47.5168C46.6593 81.4839 45.9641 80.7889 45.9641 79.9312C45.9641 79.0734 46.6593 78.3784 47.5168 78.3784H86.483C87.3405 78.3784 88.0358 79.0734 88.0358 79.9312C88.0358 80.7889 87.3405 81.4839 86.483 81.4839Z" fill="#656D88"/>
<path d="M86.483 91.4766H47.5168C46.6593 91.4766 45.9641 90.7816 45.9641 89.9238C45.9641 89.0661 46.6593 88.3711 47.5168 88.3711H86.483C87.3405 88.3711 88.0358 89.0661 88.0358 89.9238C88.0358 90.7816 87.3405 91.4766 86.483 91.4766Z" fill="#656D88"/>
<path d="M86.483 101.47H47.5168C46.6593 101.47 45.9641 100.775 45.9641 99.9175C45.9641 99.0597 46.6593 98.3647 47.5168 98.3647H86.483C87.3405 98.3647 88.0358 99.0597 88.0358 99.9175C88.0358 100.775 87.3405 101.47 86.483 101.47Z" fill="#656D88"/>
<path d="M86.483 111.463H47.5168C46.6593 111.463 45.9641 110.768 45.9641 109.911C45.9641 109.053 46.6593 108.358 47.5168 108.358H86.483C87.3405 108.358 88.0358 109.053 88.0358 109.911C88.0358 110.768 87.3405 111.463 86.483 111.463Z" fill="#656D88"/>
<path d="M81.722 123.688V146.447C81.722 147.191 81.1941 147.83 80.4653 147.971C80.3659 147.992 80.2666 148 80.1692 148C79.5461 148 78.9685 147.623 78.7283 147.027C77.8339 144.808 76.5731 143.245 75.186 142.57C74.6808 142.321 74.1591 142.193 73.6333 142.193C73.1074 142.193 72.5857 142.321 72.0805 142.568C70.6934 143.245 69.4305 144.808 68.5362 147.027C68.2587 147.717 67.53 148.112 66.8012 147.971C66.0704 147.83 65.5425 147.191 65.5425 146.447V123.688C65.5425 122.831 66.2381 122.136 67.0952 122.136H80.1692C81.0264 122.136 81.722 122.831 81.722 123.688Z" fill="#5C9CEE"/>
<path d="M75.186 124.299V142.57C74.6809 142.321 74.1592 142.193 73.6333 142.193C73.1074 142.193 72.5857 142.321 72.0806 142.568V124.299C72.0806 123.44 72.7741 122.747 73.6333 122.747C74.4904 122.747 75.186 123.44 75.186 124.299Z" fill="#FFCE65"/>
<path d="M86.9558 114.704L85.6819 113.683C85.3629 113.427 85.1993 113.032 85.244 112.626L85.4225 111.003C85.5658 109.701 85.1167 108.423 84.1907 107.497C83.2646 106.571 81.9866 106.122 80.6844 106.265L79.0615 106.443C78.6538 106.488 78.2598 106.324 78.0042 106.005L76.9831 104.732C76.1636 103.71 74.9426 103.124 73.6327 103.124C72.3228 103.124 71.1015 103.71 70.2823 104.732L69.2612 106.005C69.0053 106.324 68.6099 106.487 68.2035 106.443L66.5808 106.265C65.2779 106.121 64.0006 106.571 63.0745 107.497C62.1482 108.423 61.6992 109.701 61.8427 111.003L62.0211 112.626C62.0658 113.032 61.9021 113.427 61.5831 113.683L60.3092 114.704C59.2871 115.524 58.7012 116.745 58.7012 118.055C58.7012 119.365 59.2875 120.586 60.3094 121.405L61.5831 122.427C61.9021 122.682 62.0658 123.078 62.0211 123.484L61.8427 125.107C61.6994 126.409 62.1485 127.687 63.0745 128.613C64.0008 129.54 65.2792 129.989 66.581 129.845L68.2033 129.667C68.6091 129.621 69.0051 129.786 69.2608 130.105L70.2821 131.378C71.1015 132.4 72.3226 132.986 73.6325 132.987C74.9422 132.987 76.1634 132.4 76.9829 131.378L78.0039 130.105C78.2596 129.785 78.6555 129.621 79.0613 129.667L80.6842 129.845C81.9866 129.988 83.2642 129.539 84.1905 128.613C85.1167 127.687 85.5658 126.409 85.4223 125.107L85.2438 123.484C85.1991 123.078 85.3629 122.682 85.6817 122.427L86.9556 121.405C87.9775 120.586 88.5636 119.365 88.5638 118.055C88.5638 116.745 87.9779 115.524 86.9558 114.704Z" fill="#ED5575"/>
<path d="M86.9557 114.705L85.6819 113.683C85.3628 113.428 85.1993 113.032 85.244 112.626L85.4225 111.003C85.5657 109.701 85.1167 108.423 84.1906 107.497C83.4143 106.721 82.3903 106.281 81.3125 106.243C81.487 106.372 81.6537 106.513 81.8098 106.669C82.736 107.595 83.1851 108.873 83.0416 110.175L82.8631 111.798C82.8184 112.204 82.982 112.6 83.301 112.855L84.5749 113.877C85.597 114.696 86.1831 115.917 86.1831 117.227C86.1831 118.537 85.5968 119.758 84.5749 120.578L83.301 121.599C82.982 121.855 82.8182 122.25 82.8631 122.656L83.0416 124.279C83.1849 125.581 82.7358 126.859 81.8098 127.785C80.8835 128.711 79.6059 129.16 78.3035 129.017L76.6806 128.839C76.2748 128.794 75.8789 128.958 75.6233 129.277L74.6022 130.55C73.7828 131.573 72.5615 132.159 71.2518 132.159C71.1982 132.159 71.145 132.156 71.0916 132.154C71.8197 132.691 72.7035 132.987 73.6327 132.987C74.9423 132.987 76.1636 132.401 76.983 131.379L78.0041 130.105C78.2598 129.786 78.6556 129.622 79.0614 129.667L80.6843 129.846C81.9868 129.988 83.2644 129.539 84.1906 128.614C85.1169 127.687 85.5659 126.409 85.4225 125.107L85.244 123.485C85.1993 123.078 85.363 122.683 85.6819 122.427L86.9557 121.406C87.9776 120.586 88.5637 119.365 88.5639 118.056C88.5637 116.745 87.9778 115.524 86.9557 114.705Z" fill="#CC3A60"/>
<path d="M73.6332 124.299C77.0817 124.299 79.8773 121.504 79.8773 118.055C79.8773 114.607 77.0817 111.811 73.6332 111.811C70.1847 111.811 67.3892 114.607 67.3892 118.055C67.3892 121.504 70.1847 124.299 73.6332 124.299Z" fill="#FCAB29"/>
</g>
<defs>
</defs>
</svg>
