<svg width="37" height="37" viewBox="0 0 37 37" fill="none" xmlns="http://www.w3.org/2000/svg">
<circle cx="18.5" cy="18.5" r="18.5" fill="#7057D6" fill-opacity="0.2"/>
<path d="M26.0469 9.71875H24.1849V9.17188C24.1849 8.5257 23.6592 8 23.013 8C22.3668 8 21.8411 8.5257 21.8411 9.17188V9.71875H15.2786V9.17188C15.2786 8.5257 14.7529 8 14.1068 8C13.4606 8 12.9349 8.5257 12.9349 9.17188V9.7332C12.9017 9.72402 12.8669 9.71875 12.8307 9.71875H11.2743C10.1974 9.71875 9.32121 10.5949 9.32121 11.6719V18.3255C9.32121 18.5413 9.49613 18.7161 9.71184 18.7161C9.92754 18.7161 10.1025 18.5413 10.1025 18.3255V13.7422H24.1849C24.4006 13.7422 24.5755 13.5673 24.5755 13.3516C24.5755 13.1358 24.4006 12.9609 24.1849 12.9609H10.1025V11.6719C10.1025 11.0257 10.6282 10.5 11.2743 10.5H12.8307C12.8669 10.5 12.9017 10.4947 12.9349 10.4855V10.9883C12.9349 11.6345 13.4606 12.1602 14.1068 12.1602C14.7529 12.1602 15.2786 11.6345 15.2786 10.9883V10.5H21.8411V10.9883C21.8411 11.6345 22.3668 12.1602 23.013 12.1602C23.6592 12.1602 24.1849 11.6345 24.1849 10.9883V10.5H26.0469C26.693 10.5 27.2188 11.0257 27.2188 11.6719V26.5154C27.2188 26.9032 26.9032 27.2188 26.5154 27.2188C26.1275 27.2188 25.812 26.9032 25.812 26.5154V25.5049C25.812 25.2891 25.6371 25.1143 25.4214 25.1143H20.8776C20.6619 25.1143 20.487 25.2891 20.487 25.5049C20.487 25.7206 20.6619 25.8955 20.8776 25.8955H25.0308V26.5154C25.0308 26.7697 25.0952 27.0093 25.2083 27.2188H9.48438C9.09668 27.2188 8.78125 26.9033 8.78125 26.5156V25.8955H17.5244C17.7401 25.8955 17.915 25.7206 17.915 25.5049C17.915 25.2891 17.7401 25.1143 17.5244 25.1143H13.6214C14.304 24.5264 14.7375 23.6569 14.7375 22.6875C14.7375 20.9213 13.3005 19.4844 11.5343 19.4844C9.76812 19.4844 8.33121 20.9213 8.33121 22.6875C8.33121 23.6569 8.76465 24.5264 9.44723 25.1143H8.39062C8.17492 25.1143 8 25.2891 8 25.5049V26.5156C8 27.3341 8.6659 28 9.48438 28H26.5154C27.334 28 28 27.334 28 26.5154V11.6719C28 10.5949 27.1238 9.71875 26.0469 9.71875ZM14.4974 10.9883C14.4974 11.2037 14.3221 11.3789 14.1068 11.3789C13.8914 11.3789 13.7161 11.2037 13.7161 10.9883V9.17188C13.7161 8.95648 13.8914 8.78125 14.1068 8.78125C14.3221 8.78125 14.4974 8.95648 14.4974 9.17188V10.9883ZM23.4036 10.9883C23.4036 11.2037 23.2284 11.3789 23.013 11.3789C22.7976 11.3789 22.6224 11.2037 22.6224 10.9883V9.17188C22.6224 8.95648 22.7976 8.78125 23.013 8.78125C23.2284 8.78125 23.4036 8.95648 23.4036 9.17188V10.9883ZM9.11246 22.6875C9.11246 21.3521 10.1989 20.2656 11.5343 20.2656C12.8698 20.2656 13.9562 21.3521 13.9562 22.6875C13.9562 24.0229 12.8698 25.1094 11.5343 25.1094C10.1989 25.1094 9.11246 24.0229 9.11246 22.6875Z" fill="#7057D6"/>
<path d="M26.2932 13.0754C26.2206 13.0027 26.1198 12.9609 26.0171 12.9609C25.9143 12.9609 25.8136 13.0027 25.7409 13.0754C25.6683 13.148 25.6265 13.2488 25.6265 13.3516C25.6265 13.4543 25.6682 13.5551 25.7409 13.6277C25.8136 13.7004 25.9143 13.7422 26.0171 13.7422C26.1198 13.7422 26.2206 13.7004 26.2932 13.6277C26.3659 13.5551 26.4077 13.4543 26.4077 13.3516C26.4077 13.2488 26.3659 13.148 26.2932 13.0754Z" fill="#7057D6"/>
<path d="M19.6658 25.2286C19.5932 25.1559 19.4924 25.1145 19.3896 25.1145C19.2869 25.1145 19.1861 25.1559 19.1135 25.2286C19.0408 25.3016 18.999 25.402 18.999 25.5047C18.999 25.6079 19.0408 25.7083 19.1135 25.7813C19.1861 25.854 19.2869 25.8954 19.3896 25.8954C19.4924 25.8954 19.5932 25.854 19.6658 25.7813C19.7384 25.7083 19.7803 25.6075 19.7803 25.5047C19.7803 25.402 19.7385 25.3016 19.6658 25.2286Z" fill="#7057D6"/>
<path d="M16.8374 19.875C16.0189 19.875 15.353 20.5409 15.353 21.3594C15.353 22.1779 16.0189 22.8438 16.8374 22.8438C17.6559 22.8438 18.3218 22.1779 18.3218 21.3594C18.3218 20.5409 17.6559 19.875 16.8374 19.875ZM16.8374 22.0625C16.4497 22.0625 16.1343 21.7471 16.1343 21.3594C16.1343 20.9717 16.4497 20.6562 16.8374 20.6562C17.2251 20.6562 17.5405 20.9717 17.5405 21.3594C17.5405 21.7471 17.2251 22.0625 16.8374 22.0625Z" fill="#7057D6"/>
<path d="M20.4834 19.875C19.6649 19.875 18.999 20.5409 18.999 21.3594C18.999 22.1779 19.6649 22.8438 20.4834 22.8438C21.3019 22.8438 21.9678 22.1779 21.9678 21.3594C21.9678 20.5409 21.3019 19.875 20.4834 19.875ZM20.4834 22.0625C20.0957 22.0625 19.7803 21.7471 19.7803 21.3594C19.7803 20.9717 20.0957 20.6562 20.4834 20.6562C20.8711 20.6562 21.1865 20.9717 21.1865 21.3594C21.1865 21.7471 20.8711 22.0625 20.4834 22.0625Z" fill="#7057D6"/>
<path d="M24.1294 19.875C23.3109 19.875 22.645 20.5409 22.645 21.3594C22.645 22.1779 23.3109 22.8438 24.1294 22.8438C24.9479 22.8438 25.6138 22.1779 25.6138 21.3594C25.6138 20.5409 24.9479 19.875 24.1294 19.875ZM24.1294 22.0625C23.7417 22.0625 23.4263 21.7471 23.4263 21.3594C23.4263 20.9717 23.7417 20.6562 24.1294 20.6562C24.5171 20.6562 24.8325 20.9717 24.8325 21.3594C24.8325 21.7471 24.5171 22.0625 24.1294 22.0625Z" fill="#7057D6"/>
<path d="M13.1919 15.8125C12.3734 15.8125 11.7075 16.4784 11.7075 17.2969C11.7075 18.1154 12.3734 18.7812 13.1919 18.7812C14.0104 18.7812 14.6763 18.1154 14.6763 17.2969C14.6763 16.4784 14.0104 15.8125 13.1919 15.8125ZM13.1919 18C12.8042 18 12.4888 17.6846 12.4888 17.2969C12.4888 16.9092 12.8042 16.5938 13.1919 16.5938C13.5796 16.5938 13.895 16.9092 13.895 17.2969C13.895 17.6846 13.5796 18 13.1919 18Z" fill="#7057D6"/>
<path d="M20.4834 15.8125C19.6649 15.8125 18.999 16.4784 18.999 17.2969C18.999 18.1154 19.6649 18.7812 20.4834 18.7812C21.3019 18.7812 21.9678 18.1154 21.9678 17.2969C21.9678 16.4784 21.3019 15.8125 20.4834 15.8125ZM20.4834 18C20.0957 18 19.7803 17.6846 19.7803 17.2969C19.7803 16.9092 20.0957 16.5938 20.4834 16.5938C20.8711 16.5938 21.1865 16.9092 21.1865 17.2969C21.1865 17.6846 20.8711 18 20.4834 18Z" fill="#7057D6"/>
<path d="M24.1294 15.8125C23.3109 15.8125 22.645 16.4784 22.645 17.2969C22.645 18.1154 23.3109 18.7812 24.1294 18.7812C24.9479 18.7812 25.6138 18.1154 25.6138 17.2969C25.6138 16.4784 24.9479 15.8125 24.1294 15.8125ZM24.1294 18C23.7417 18 23.4263 17.6846 23.4263 17.2969C23.4263 16.9092 23.7417 16.5938 24.1294 16.5938C24.5171 16.5938 24.8325 16.9092 24.8325 17.2969C24.8325 17.6846 24.5171 18 24.1294 18Z" fill="#7057D6"/>
<path d="M16.8374 15.8125C16.0189 15.8125 15.353 16.4784 15.353 17.2969C15.353 18.1154 16.0189 18.7812 16.8374 18.7812C17.6559 18.7812 18.3218 18.1154 18.3218 17.2969C18.3218 16.4784 17.6559 15.8125 16.8374 15.8125ZM16.8374 18C16.4497 18 16.1343 17.6846 16.1343 17.2969C16.1343 16.9092 16.4497 16.5938 16.8374 16.5938C17.2251 16.5938 17.5405 16.9092 17.5405 17.2969C17.5405 17.6846 17.2251 18 16.8374 18Z" fill="#7057D6"/>
<path d="M12.9257 21.7356C12.7731 21.5831 12.5258 21.5831 12.3732 21.7356L11.1011 23.0078L10.6664 22.573C10.5138 22.4205 10.2665 22.4205 10.1139 22.573C9.96138 22.7256 9.96138 22.9729 10.1139 23.1255L10.8249 23.8364C10.8982 23.9097 10.9975 23.9508 11.1011 23.9508C11.2047 23.9508 11.304 23.9097 11.3773 23.8364L12.9257 22.288C13.0782 22.1355 13.0782 21.8882 12.9257 21.7356Z" fill="#7057D6"/>
</svg>
