<svg width="1194" height="1188" viewBox="0 0 1194 1188" fill="none" xmlns="http://www.w3.org/2000/svg">
<path d="M553.989 717.157C350 706.854 216.151 812.757 118.658 677.813C68.978 624.299 71.6979 507.475 109.441 454.17C193.705 334.78 333.204 337.958 461.235 334.152C510.23 332.641 559.134 321.359 603.544 300.781C633.504 286.69 661.876 268.403 693.368 257.597C724.86 246.79 761.347 244.266 789.868 261.415C853.252 299.485 843.066 393.838 893.439 443.654C938.118 487.62 1004.12 485.941 1058.04 511.494C1123.67 542.468 1150.52 619.917 1119.86 685.951C1091.76 747.16 1024.26 808.984 955.055 818.267C762.324 843.749 716.657 725.374 553.989 717.157Z" fill="#7057D6"/>
</svg>
