<svg width="403" height="350" viewBox="0 0 403 350" fill="none" xmlns="http://www.w3.org/2000/svg">
<path d="M250.9 8H139.1C124.1 8 112 20.1 112 35.1V322.8C112 337.8 124.1 349.9 139.1 349.9H250.9C265.9 349.9 278 337.8 278 322.8V35.1C278 20.1 265.9 8 250.9 8Z" fill="#5A77D1"/>
<path d="M251 0H139.2C124.2 0 112.1 12.1 112.1 27.1V314.8C112.1 329.8 124.2 341.9 139.2 341.9H251C266 341.9 278.1 329.8 278.1 314.8V27.1C278.1 12.1 266 0 251 0Z" fill="#EEF2FA"/>
<path d="M202.4 14.3C203.725 14.3 204.8 13.2255 204.8 11.9C204.8 10.5745 203.725 9.5 202.4 9.5C201.075 9.5 200 10.5745 200 11.9C200 13.2255 201.075 14.3 202.4 14.3Z" fill="#5E9EEB"/>
<path d="M176.2 25.3C177.746 25.3 179 24.0464 179 22.5C179 20.9536 177.746 19.7 176.2 19.7C174.654 19.7 173.4 20.9536 173.4 22.5C173.4 24.0464 174.654 25.3 176.2 25.3Z" fill="#5E9EEB"/>
<path d="M215.4 21.1H189.4C188.6 21.1 187.9 21.8 187.9 22.6C187.9 23.4 188.6 24.1 189.4 24.1H215.4C216.2 24.1 216.9 23.4 216.9 22.6C216.9 21.8 216.2 21.1 215.4 21.1Z" fill="#5E9EEB"/>
<path d="M196.8 330.7C189.6 330.7 183.8 324.9 183.8 317.7C183.8 310.5 189.6 304.7 196.8 304.7C204 304.7 209.8 310.5 209.8 317.7C209.8 324.8 204 330.7 196.8 330.7ZM196.8 305.5C190.1 305.5 184.7 310.9 184.7 317.6C184.7 324.3 190.1 329.7 196.8 329.7C203.5 329.7 208.9 324.3 208.9 317.6C208.9 311 203.5 305.5 196.8 305.5Z" fill="#5E9EEB"/>
<rect x="122.5" y="39.5" width="144" height="259" fill="white" stroke="#5A77D1"/>
<path d="M186.7 222.4C197.58 222.4 206.4 213.58 206.4 202.7C206.4 191.82 197.58 183 186.7 183C175.82 183 167 191.82 167 202.7C167 213.58 175.82 222.4 186.7 222.4Z" fill="#5E9EEB"/>
<mask id="mask0" mask-type="alpha" maskUnits="userSpaceOnUse" x="167" y="183" width="40" height="40">
<path d="M186.7 222.4C197.58 222.4 206.4 213.58 206.4 202.7C206.4 191.82 197.58 183 186.7 183C175.82 183 167 191.82 167 202.7C167 213.58 175.82 222.4 186.7 222.4Z" fill="#5E9EEB"/>
</mask>
<g mask="url(#mask0)">
<path d="M186.7 209.6C192.112 209.6 196.5 205.213 196.5 199.8C196.5 194.388 192.112 190 186.7 190C181.288 190 176.9 194.388 176.9 199.8C176.9 205.213 181.288 209.6 186.7 209.6Z" fill="#213A7E"/>
<path d="M188.3 212.4H185.3C179.6 212.4 175.1 217 175.1 222.6V229.8H198.5V222.6C198.5 216.9 193.9 212.4 188.3 212.4Z" fill="#F2CF00"/>
<path d="M192.4 194.4C185.8 197.3 181.1 194.4 181.1 194.4C181.8 196.4 182 199.6 178.9 204.2C178.8 204.2 178.7 204.2 178.7 204.2C178.7 208.7 182.3 212.3 186.8 212.3C191.3 212.3 194.9 208.7 194.9 204.2C194.8 204.2 194.7 204.2 194.7 204.2C191.5 199.7 191.7 196.4 192.4 194.4Z" fill="#E5BCA9"/>
<path d="M183.6 208V214.9C183.6 216.6 185 218.1 186.8 218.1C188.5 218.1 190 216.7 190 214.9V208H183.6Z" fill="#E5BCA9"/>
<path d="M184.1 206.8C184.2 208.2 185.4 209.2 186.8 209.2C188.2 209.2 189.3 208.1 189.5 206.8H184.1Z" fill="white"/>
<path d="M178.6 206.1C179.926 206.1 181 205.026 181 203.7C181 202.375 179.926 201.3 178.6 201.3C177.275 201.3 176.2 202.375 176.2 203.7C176.2 205.026 177.275 206.1 178.6 206.1Z" fill="#E5BCA9"/>
<path d="M194.9 206.1C196.225 206.1 197.3 205.026 197.3 203.7C197.3 202.375 196.225 201.3 194.9 201.3C193.575 201.3 192.5 202.375 192.5 203.7C192.5 205.026 193.575 206.1 194.9 206.1Z" fill="#E5BCA9"/>
</g>
<path d="M173.2 176H150.9H144.7H11.6C5.2 176 0 181.2 0 187.6V214.8C0 221.2 5.2 226.4 11.6 226.4H150.9C157.3 226.4 162.5 221.2 162.5 214.8V187.6C162.5 187.3 162.5 187 162.5 186.8L173.2 176Z" fill="#5E9EEB"/>
<path d="M21.64 194.25H17.92L17.15 196H16.12L19.29 189H20.28L23.46 196H22.41L21.64 194.25ZM21.29 193.45L19.78 190.02L18.27 193.45H21.29ZM29.0874 190.7V196H28.1274V191.54H25.8474L25.7874 192.72C25.7541 193.433 25.6908 194.03 25.5974 194.51C25.5041 194.983 25.3508 195.363 25.1374 195.65C24.9241 195.937 24.6274 196.08 24.2474 196.08C24.0741 196.08 23.8774 196.05 23.6574 195.99L23.7174 195.18C23.8041 195.2 23.8841 195.21 23.9574 195.21C24.2241 195.21 24.4241 195.093 24.5574 194.86C24.6908 194.627 24.7774 194.35 24.8174 194.03C24.8574 193.71 24.8941 193.253 24.9274 192.66L25.0174 190.7H29.0874ZM35.7337 193.38C35.7337 193.453 35.727 193.55 35.7137 193.67H31.4137C31.4737 194.137 31.677 194.513 32.0237 194.8C32.377 195.08 32.8137 195.22 33.3337 195.22C33.967 195.22 34.477 195.007 34.8637 194.58L35.3937 195.2C35.1537 195.48 34.8537 195.693 34.4937 195.84C34.1403 195.987 33.7437 196.06 33.3037 196.06C32.7437 196.06 32.247 195.947 31.8137 195.72C31.3803 195.487 31.0437 195.163 30.8037 194.75C30.5703 194.337 30.4537 193.87 30.4537 193.35C30.4537 192.837 30.567 192.373 30.7937 191.96C31.027 191.547 31.3437 191.227 31.7437 191C32.1503 190.767 32.607 190.65 33.1137 190.65C33.6203 190.65 34.0703 190.767 34.4637 191C34.8637 191.227 35.1737 191.547 35.3937 191.96C35.6203 192.373 35.7337 192.847 35.7337 193.38ZM33.1137 191.46C32.6537 191.46 32.267 191.6 31.9537 191.88C31.647 192.16 31.467 192.527 31.4137 192.98H34.8137C34.7603 192.533 34.577 192.17 34.2637 191.89C33.957 191.603 33.5737 191.46 33.1137 191.46ZM39.283 193.76H38.183V196H37.223V190.7H38.183V192.94H39.303L41.023 190.7H42.053L40.043 193.25L42.193 196H41.063L39.283 193.76ZM45.3338 196.06C44.7938 196.06 44.3104 195.943 43.8838 195.71C43.4638 195.477 43.1338 195.157 42.8938 194.75C42.6538 194.337 42.5338 193.87 42.5338 193.35C42.5338 192.83 42.6538 192.367 42.8938 191.96C43.1338 191.547 43.4638 191.227 43.8838 191C44.3104 190.767 44.7938 190.65 45.3338 190.65C45.8138 190.65 46.2404 190.747 46.6138 190.94C46.9938 191.133 47.2871 191.413 47.4938 191.78L46.7638 192.25C46.5971 191.997 46.3904 191.807 46.1438 191.68C45.8971 191.553 45.6238 191.49 45.3238 191.49C44.9771 191.49 44.6638 191.567 44.3838 191.72C44.1104 191.873 43.8938 192.093 43.7338 192.38C43.5804 192.66 43.5038 192.983 43.5038 193.35C43.5038 193.723 43.5804 194.053 43.7338 194.34C43.8938 194.62 44.1104 194.837 44.3838 194.99C44.6638 195.143 44.9771 195.22 45.3238 195.22C45.6238 195.22 45.8971 195.157 46.1438 195.03C46.3904 194.903 46.5971 194.713 46.7638 194.46L47.4938 194.92C47.2871 195.287 46.9938 195.57 46.6138 195.77C46.2404 195.963 45.8138 196.06 45.3338 196.06ZM50.6266 190.65C51.36 190.65 51.92 190.83 52.3066 191.19C52.7 191.55 52.8966 192.087 52.8966 192.8V196H51.9866V195.3C51.8266 195.547 51.5966 195.737 51.2966 195.87C51.0033 195.997 50.6533 196.06 50.2466 196.06C49.6533 196.06 49.1766 195.917 48.8166 195.63C48.4633 195.343 48.2866 194.967 48.2866 194.5C48.2866 194.033 48.4566 193.66 48.7966 193.38C49.1366 193.093 49.6766 192.95 50.4166 192.95H51.9366V192.76C51.9366 192.347 51.8166 192.03 51.5766 191.81C51.3366 191.59 50.9833 191.48 50.5166 191.48C50.2033 191.48 49.8966 191.533 49.5966 191.64C49.2966 191.74 49.0433 191.877 48.8366 192.05L48.4366 191.33C48.71 191.11 49.0366 190.943 49.4166 190.83C49.7966 190.71 50.2 190.65 50.6266 190.65ZM50.4066 195.32C50.7733 195.32 51.09 195.24 51.3566 195.08C51.6233 194.913 51.8166 194.68 51.9366 194.38V193.64H50.4566C49.6433 193.64 49.2366 193.913 49.2366 194.46C49.2366 194.727 49.34 194.937 49.5466 195.09C49.7533 195.243 50.04 195.32 50.4066 195.32ZM54.6253 190.7H55.5853V192.95H58.6053V190.7H59.5653V196H58.6053V193.78H55.5853V196H54.6253V190.7ZM66.822 195.16V197.23H65.922V196H61.492V197.23H60.582V195.16H60.862C61.202 195.14 61.4353 194.9 61.562 194.44C61.6886 193.98 61.7753 193.33 61.822 192.49L61.902 190.7H66.012V195.16H66.822ZM62.702 192.56C62.6753 193.227 62.6186 193.78 62.532 194.22C62.452 194.653 62.302 194.967 62.082 195.16H65.052V191.54H62.752L62.702 192.56ZM70.8826 190.65C71.3959 190.65 71.8559 190.763 72.2626 190.99C72.6692 191.217 72.9859 191.533 73.2126 191.94C73.4459 192.347 73.5626 192.817 73.5626 193.35C73.5626 193.883 73.4459 194.357 73.2126 194.77C72.9859 195.177 72.6692 195.493 72.2626 195.72C71.8559 195.947 71.3959 196.06 70.8826 196.06C70.5026 196.06 70.1526 195.987 69.8326 195.84C69.5192 195.693 69.2526 195.48 69.0326 195.2V197.94H68.0726V190.7H68.9926V191.54C69.2059 191.247 69.4759 191.027 69.8026 190.88C70.1292 190.727 70.4892 190.65 70.8826 190.65ZM70.8026 195.22C71.1426 195.22 71.4459 195.143 71.7126 194.99C71.9859 194.83 72.1992 194.61 72.3526 194.33C72.5126 194.043 72.5926 193.717 72.5926 193.35C72.5926 192.983 72.5126 192.66 72.3526 192.38C72.1992 192.093 71.9859 191.873 71.7126 191.72C71.4459 191.567 71.1426 191.49 70.8026 191.49C70.4692 191.49 70.1659 191.57 69.8926 191.73C69.6259 191.883 69.4126 192.1 69.2526 192.38C69.0992 192.66 69.0226 192.983 69.0226 193.35C69.0226 193.717 69.0992 194.043 69.2526 194.33C69.4059 194.61 69.6192 194.83 69.8926 194.99C70.1659 195.143 70.4692 195.22 70.8026 195.22ZM82.9829 189V196H81.9929V193.23C81.2529 193.517 80.5696 193.66 79.9429 193.66C79.0896 193.66 78.4262 193.453 77.9529 193.04C77.4862 192.627 77.2529 192.037 77.2529 191.27V189H78.2329V191.16C78.2329 191.68 78.3896 192.08 78.7029 192.36C79.0229 192.64 79.4729 192.78 80.0529 192.78C80.6996 192.78 81.3462 192.633 81.9929 192.34V189H82.9829ZM89.7962 193.38C89.7962 193.453 89.7895 193.55 89.7762 193.67H85.4762C85.5362 194.137 85.7395 194.513 86.0862 194.8C86.4395 195.08 86.8762 195.22 87.3962 195.22C88.0295 195.22 88.5395 195.007 88.9262 194.58L89.4562 195.2C89.2162 195.48 88.9162 195.693 88.5562 195.84C88.2028 195.987 87.8062 196.06 87.3662 196.06C86.8062 196.06 86.3095 195.947 85.8762 195.72C85.4428 195.487 85.1062 195.163 84.8662 194.75C84.6328 194.337 84.5162 193.87 84.5162 193.35C84.5162 192.837 84.6295 192.373 84.8562 191.96C85.0895 191.547 85.4062 191.227 85.8062 191C86.2128 190.767 86.6695 190.65 87.1762 190.65C87.6828 190.65 88.1328 190.767 88.5262 191C88.9262 191.227 89.2362 191.547 89.4562 191.96C89.6828 192.373 89.7962 192.847 89.7962 193.38ZM87.1762 191.46C86.7162 191.46 86.3295 191.6 86.0162 191.88C85.7095 192.16 85.5295 192.527 85.4762 192.98H88.8762C88.8228 192.533 88.6395 192.17 88.3262 191.89C88.0195 191.603 87.6362 191.46 87.1762 191.46ZM94.0955 190.65C94.6088 190.65 95.0688 190.763 95.4755 190.99C95.8821 191.217 96.1988 191.533 96.4255 191.94C96.6588 192.347 96.7755 192.817 96.7755 193.35C96.7755 193.883 96.6588 194.357 96.4255 194.77C96.1988 195.177 95.8821 195.493 95.4755 195.72C95.0688 195.947 94.6088 196.06 94.0955 196.06C93.7155 196.06 93.3655 195.987 93.0455 195.84C92.7321 195.693 92.4655 195.48 92.2455 195.2V197.94H91.2855V190.7H92.2055V191.54C92.4188 191.247 92.6888 191.027 93.0155 190.88C93.3421 190.727 93.7021 190.65 94.0955 190.65ZM94.0155 195.22C94.3555 195.22 94.6588 195.143 94.9255 194.99C95.1988 194.83 95.4121 194.61 95.5655 194.33C95.7255 194.043 95.8055 193.717 95.8055 193.35C95.8055 192.983 95.7255 192.66 95.5655 192.38C95.4121 192.093 95.1988 191.873 94.9255 191.72C94.6588 191.567 94.3555 191.49 94.0155 191.49C93.6821 191.49 93.3788 191.57 93.1055 191.73C92.8388 191.883 92.6255 192.1 92.4655 192.38C92.3121 192.66 92.2355 192.983 92.2355 193.35C92.2355 193.717 92.3121 194.043 92.4655 194.33C92.6188 194.61 92.8321 194.83 93.1055 194.99C93.3788 195.143 93.6821 195.22 94.0155 195.22ZM98.1702 190.7H99.1302V192.95H102.15V190.7H103.11V196H102.15V193.78H99.1302V196H98.1702V190.7ZM107.247 196.06C106.72 196.06 106.247 195.943 105.827 195.71C105.407 195.477 105.077 195.157 104.837 194.75C104.604 194.337 104.487 193.87 104.487 193.35C104.487 192.83 104.604 192.367 104.837 191.96C105.077 191.547 105.407 191.227 105.827 191C106.247 190.767 106.72 190.65 107.247 190.65C107.774 190.65 108.244 190.767 108.657 191C109.077 191.227 109.404 191.547 109.637 191.96C109.877 192.367 109.997 192.83 109.997 193.35C109.997 193.87 109.877 194.337 109.637 194.75C109.404 195.157 109.077 195.477 108.657 195.71C108.244 195.943 107.774 196.06 107.247 196.06ZM107.247 195.22C107.587 195.22 107.89 195.143 108.157 194.99C108.43 194.83 108.644 194.61 108.797 194.33C108.95 194.043 109.027 193.717 109.027 193.35C109.027 192.983 108.95 192.66 108.797 192.38C108.644 192.093 108.43 191.873 108.157 191.72C107.89 191.567 107.587 191.49 107.247 191.49C106.907 191.49 106.6 191.567 106.327 191.72C106.06 191.873 105.847 192.093 105.687 192.38C105.534 192.66 105.457 192.983 105.457 193.35C105.457 193.717 105.534 194.043 105.687 194.33C105.847 194.61 106.06 194.83 106.327 194.99C106.6 195.143 106.907 195.22 107.247 195.22ZM114.993 193.25C115.68 193.423 116.023 193.853 116.023 194.54C116.023 195.007 115.846 195.367 115.493 195.62C115.146 195.873 114.626 196 113.933 196H111.383V190.7H113.843C114.47 190.7 114.96 190.82 115.313 191.06C115.666 191.293 115.843 191.627 115.843 192.06C115.843 192.34 115.766 192.583 115.613 192.79C115.466 192.99 115.26 193.143 114.993 193.25ZM112.323 192.98H113.763C114.13 192.98 114.406 192.913 114.593 192.78C114.786 192.647 114.883 192.453 114.883 192.2C114.883 191.693 114.51 191.44 113.763 191.44H112.323V192.98ZM113.863 195.26C114.263 195.26 114.563 195.197 114.763 195.07C114.963 194.943 115.063 194.747 115.063 194.48C115.063 194.207 114.97 194.003 114.783 193.87C114.603 193.737 114.316 193.67 113.923 193.67H112.323V195.26H113.863Z" fill="white"/>
<path d="M142.2 204.5H16.2002V208H142.2V204.5Z" fill="white"/>
<path d="M92.2002 216H16.2002V212.5H92.2002V216Z" fill="white"/>
<path d="M186.7 104.4C197.58 104.4 206.4 95.5803 206.4 84.7002C206.4 73.8202 197.58 65.0002 186.7 65.0002C175.82 65.0002 167 73.8202 167 84.7002C167 95.5803 175.82 104.4 186.7 104.4Z" fill="#5E9EEB"/>
<mask id="mask1" mask-type="alpha" maskUnits="userSpaceOnUse" x="167" y="65" width="40" height="40">
<path d="M186.7 104.4C197.58 104.4 206.4 95.5803 206.4 84.7002C206.4 73.8202 197.58 65.0002 186.7 65.0002C175.82 65.0002 167 73.8202 167 84.7002C167 95.5803 175.82 104.4 186.7 104.4Z" fill="#5E9EEB"/>
</mask>
<g mask="url(#mask1)">
<path d="M186.7 91.6002C192.112 91.6002 196.5 87.2126 196.5 81.8002C196.5 76.3879 192.112 72.0002 186.7 72.0002C181.288 72.0002 176.9 76.3879 176.9 81.8002C176.9 87.2126 181.288 91.6002 186.7 91.6002Z" fill="#213A7E"/>
<path d="M188.3 94.4002H185.3C179.6 94.4002 175.1 99.0002 175.1 104.6V111.8H198.5V104.6C198.5 98.9002 193.9 94.4002 188.3 94.4002Z" fill="#F2CF00"/>
<path d="M192.4 76.4002C185.8 79.3002 181.1 76.4002 181.1 76.4002C181.8 78.4002 182 81.6002 178.9 86.2002C178.8 86.2002 178.7 86.2002 178.7 86.2002C178.7 90.7002 182.3 94.3002 186.8 94.3002C191.3 94.3002 194.9 90.7002 194.9 86.2002C194.8 86.2002 194.7 86.2002 194.7 86.2002C191.5 81.7002 191.7 78.4002 192.4 76.4002Z" fill="#E5BCA9"/>
<path d="M183.6 90.0002V96.9002C183.6 98.6002 185 100.1 186.8 100.1C188.5 100.1 190 98.7002 190 96.9002V90.0002H183.6Z" fill="#E5BCA9"/>
<path d="M184.1 88.8002C184.2 90.2002 185.4 91.2002 186.8 91.2002C188.2 91.2002 189.3 90.1002 189.5 88.8002H184.1Z" fill="white"/>
<path d="M178.6 88.1002C179.926 88.1002 181 87.0257 181 85.7002C181 84.3748 179.926 83.3002 178.6 83.3002C177.275 83.3002 176.2 84.3748 176.2 85.7002C176.2 87.0257 177.275 88.1002 178.6 88.1002Z" fill="#E5BCA9"/>
<path d="M194.9 88.1002C196.225 88.1002 197.3 87.0257 197.3 85.7002C197.3 84.3748 196.225 83.3002 194.9 83.3002C193.575 83.3002 192.5 84.3748 192.5 85.7002C192.5 87.0257 193.575 88.1002 194.9 88.1002Z" fill="#E5BCA9"/>
</g>
<path d="M173.2 57H150.9H144.7H11.6C5.2 57 0 62.2 0 68.6V95.8C0 102.2 5.2 107.4 11.6 107.4H150.9C157.3 107.4 162.5 102.2 162.5 95.8V68.6C162.5 68.3 162.5 68 162.5 67.8L173.2 57Z" fill="#5E9EEB"/>
<path d="M21.64 75.2498H17.92L17.15 76.9998H16.12L19.29 69.9998H20.28L23.46 76.9998H22.41L21.64 75.2498ZM21.29 74.4498L19.78 71.0198L18.27 74.4498H21.29ZM29.0874 71.6998V76.9998H28.1274V72.5398H25.8474L25.7874 73.7198C25.7541 74.4331 25.6908 75.0298 25.5974 75.5098C25.5041 75.9831 25.3508 76.3631 25.1374 76.6498C24.9241 76.9365 24.6274 77.0798 24.2474 77.0798C24.0741 77.0798 23.8774 77.0498 23.6574 76.9898L23.7174 76.1798C23.8041 76.1998 23.8841 76.2098 23.9574 76.2098C24.2241 76.2098 24.4241 76.0931 24.5574 75.8598C24.6908 75.6265 24.7774 75.3498 24.8174 75.0298C24.8574 74.7098 24.8941 74.2531 24.9274 73.6598L25.0174 71.6998H29.0874ZM35.7337 74.3798C35.7337 74.4531 35.727 74.5498 35.7137 74.6698H31.4137C31.4737 75.1365 31.677 75.5131 32.0237 75.7998C32.377 76.0798 32.8137 76.2198 33.3337 76.2198C33.967 76.2198 34.477 76.0065 34.8637 75.5798L35.3937 76.1998C35.1537 76.4798 34.8537 76.6931 34.4937 76.8398C34.1403 76.9865 33.7437 77.0598 33.3037 77.0598C32.7437 77.0598 32.247 76.9465 31.8137 76.7198C31.3803 76.4865 31.0437 76.1631 30.8037 75.7498C30.5703 75.3365 30.4537 74.8698 30.4537 74.3498C30.4537 73.8365 30.567 73.3731 30.7937 72.9598C31.027 72.5465 31.3437 72.2265 31.7437 71.9998C32.1503 71.7665 32.607 71.6498 33.1137 71.6498C33.6203 71.6498 34.0703 71.7665 34.4637 71.9998C34.8637 72.2265 35.1737 72.5465 35.3937 72.9598C35.6203 73.3731 35.7337 73.8465 35.7337 74.3798ZM33.1137 72.4598C32.6537 72.4598 32.267 72.5998 31.9537 72.8798C31.647 73.1598 31.467 73.5265 31.4137 73.9798H34.8137C34.7603 73.5331 34.577 73.1698 34.2637 72.8898C33.957 72.6031 33.5737 72.4598 33.1137 72.4598ZM39.283 74.7598H38.183V76.9998H37.223V71.6998H38.183V73.9398H39.303L41.023 71.6998H42.053L40.043 74.2498L42.193 76.9998H41.063L39.283 74.7598ZM45.3338 77.0598C44.7938 77.0598 44.3104 76.9431 43.8838 76.7098C43.4638 76.4765 43.1338 76.1565 42.8938 75.7498C42.6538 75.3365 42.5338 74.8698 42.5338 74.3498C42.5338 73.8298 42.6538 73.3665 42.8938 72.9598C43.1338 72.5465 43.4638 72.2265 43.8838 71.9998C44.3104 71.7665 44.7938 71.6498 45.3338 71.6498C45.8138 71.6498 46.2404 71.7465 46.6138 71.9398C46.9938 72.1331 47.2871 72.4131 47.4938 72.7798L46.7638 73.2498C46.5971 72.9965 46.3904 72.8065 46.1438 72.6798C45.8971 72.5531 45.6238 72.4898 45.3238 72.4898C44.9771 72.4898 44.6638 72.5665 44.3838 72.7198C44.1104 72.8731 43.8938 73.0931 43.7338 73.3798C43.5804 73.6598 43.5038 73.9831 43.5038 74.3498C43.5038 74.7231 43.5804 75.0531 43.7338 75.3398C43.8938 75.6198 44.1104 75.8365 44.3838 75.9898C44.6638 76.1431 44.9771 76.2198 45.3238 76.2198C45.6238 76.2198 45.8971 76.1565 46.1438 76.0298C46.3904 75.9031 46.5971 75.7131 46.7638 75.4598L47.4938 75.9198C47.2871 76.2865 46.9938 76.5698 46.6138 76.7698C46.2404 76.9631 45.8138 77.0598 45.3338 77.0598ZM50.6266 71.6498C51.36 71.6498 51.92 71.8298 52.3066 72.1898C52.7 72.5498 52.8966 73.0865 52.8966 73.7998V76.9998H51.9866V76.2998C51.8266 76.5465 51.5966 76.7365 51.2966 76.8698C51.0033 76.9965 50.6533 77.0598 50.2466 77.0598C49.6533 77.0598 49.1766 76.9165 48.8166 76.6298C48.4633 76.3431 48.2866 75.9665 48.2866 75.4998C48.2866 75.0331 48.4566 74.6598 48.7966 74.3798C49.1366 74.0931 49.6766 73.9498 50.4166 73.9498H51.9366V73.7598C51.9366 73.3465 51.8166 73.0298 51.5766 72.8098C51.3366 72.5898 50.9833 72.4798 50.5166 72.4798C50.2033 72.4798 49.8966 72.5331 49.5966 72.6398C49.2966 72.7398 49.0433 72.8765 48.8366 73.0498L48.4366 72.3298C48.71 72.1098 49.0366 71.9431 49.4166 71.8298C49.7966 71.7098 50.2 71.6498 50.6266 71.6498ZM50.4066 76.3198C50.7733 76.3198 51.09 76.2398 51.3566 76.0798C51.6233 75.9131 51.8166 75.6798 51.9366 75.3798V74.6398H50.4566C49.6433 74.6398 49.2366 74.9131 49.2366 75.4598C49.2366 75.7265 49.34 75.9365 49.5466 76.0898C49.7533 76.2431 50.04 76.3198 50.4066 76.3198ZM54.6253 71.6998H55.5853V73.9498H58.6053V71.6998H59.5653V76.9998H58.6053V74.7798H55.5853V76.9998H54.6253V71.6998ZM66.822 76.1598V78.2298H65.922V76.9998H61.492V78.2298H60.582V76.1598H60.862C61.202 76.1398 61.4353 75.8998 61.562 75.4398C61.6886 74.9798 61.7753 74.3298 61.822 73.4898L61.902 71.6998H66.012V76.1598H66.822ZM62.702 73.5598C62.6753 74.2265 62.6186 74.7798 62.532 75.2198C62.452 75.6531 62.302 75.9665 62.082 76.1598H65.052V72.5398H62.752L62.702 73.5598ZM70.8826 71.6498C71.3959 71.6498 71.8559 71.7631 72.2626 71.9898C72.6692 72.2165 72.9859 72.5331 73.2126 72.9398C73.4459 73.3465 73.5626 73.8165 73.5626 74.3498C73.5626 74.8831 73.4459 75.3565 73.2126 75.7698C72.9859 76.1765 72.6692 76.4931 72.2626 76.7198C71.8559 76.9465 71.3959 77.0598 70.8826 77.0598C70.5026 77.0598 70.1526 76.9865 69.8326 76.8398C69.5192 76.6931 69.2526 76.4798 69.0326 76.1998V78.9398H68.0726V71.6998H68.9926V72.5398C69.2059 72.2465 69.4759 72.0265 69.8026 71.8798C70.1292 71.7265 70.4892 71.6498 70.8826 71.6498ZM70.8026 76.2198C71.1426 76.2198 71.4459 76.1431 71.7126 75.9898C71.9859 75.8298 72.1992 75.6098 72.3526 75.3298C72.5126 75.0431 72.5926 74.7165 72.5926 74.3498C72.5926 73.9831 72.5126 73.6598 72.3526 73.3798C72.1992 73.0931 71.9859 72.8731 71.7126 72.7198C71.4459 72.5665 71.1426 72.4898 70.8026 72.4898C70.4692 72.4898 70.1659 72.5698 69.8926 72.7298C69.6259 72.8831 69.4126 73.0998 69.2526 73.3798C69.0992 73.6598 69.0226 73.9831 69.0226 74.3498C69.0226 74.7165 69.0992 75.0431 69.2526 75.3298C69.4059 75.6098 69.6192 75.8298 69.8926 75.9898C70.1659 76.1431 70.4692 76.2198 70.8026 76.2198ZM82.9829 69.9998V76.9998H81.9929V74.2298C81.2529 74.5165 80.5696 74.6598 79.9429 74.6598C79.0896 74.6598 78.4262 74.4531 77.9529 74.0398C77.4862 73.6265 77.2529 73.0365 77.2529 72.2698V69.9998H78.2329V72.1598C78.2329 72.6798 78.3896 73.0798 78.7029 73.3598C79.0229 73.6398 79.4729 73.7798 80.0529 73.7798C80.6996 73.7798 81.3462 73.6331 81.9929 73.3398V69.9998H82.9829ZM89.7962 74.3798C89.7962 74.4531 89.7895 74.5498 89.7762 74.6698H85.4762C85.5362 75.1365 85.7395 75.5131 86.0862 75.7998C86.4395 76.0798 86.8762 76.2198 87.3962 76.2198C88.0295 76.2198 88.5395 76.0065 88.9262 75.5798L89.4562 76.1998C89.2162 76.4798 88.9162 76.6931 88.5562 76.8398C88.2028 76.9865 87.8062 77.0598 87.3662 77.0598C86.8062 77.0598 86.3095 76.9465 85.8762 76.7198C85.4428 76.4865 85.1062 76.1631 84.8662 75.7498C84.6328 75.3365 84.5162 74.8698 84.5162 74.3498C84.5162 73.8365 84.6295 73.3731 84.8562 72.9598C85.0895 72.5465 85.4062 72.2265 85.8062 71.9998C86.2128 71.7665 86.6695 71.6498 87.1762 71.6498C87.6828 71.6498 88.1328 71.7665 88.5262 71.9998C88.9262 72.2265 89.2362 72.5465 89.4562 72.9598C89.6828 73.3731 89.7962 73.8465 89.7962 74.3798ZM87.1762 72.4598C86.7162 72.4598 86.3295 72.5998 86.0162 72.8798C85.7095 73.1598 85.5295 73.5265 85.4762 73.9798H88.8762C88.8228 73.5331 88.6395 73.1698 88.3262 72.8898C88.0195 72.6031 87.6362 72.4598 87.1762 72.4598ZM94.0955 71.6498C94.6088 71.6498 95.0688 71.7631 95.4755 71.9898C95.8821 72.2165 96.1988 72.5331 96.4255 72.9398C96.6588 73.3465 96.7755 73.8165 96.7755 74.3498C96.7755 74.8831 96.6588 75.3565 96.4255 75.7698C96.1988 76.1765 95.8821 76.4931 95.4755 76.7198C95.0688 76.9465 94.6088 77.0598 94.0955 77.0598C93.7155 77.0598 93.3655 76.9865 93.0455 76.8398C92.7321 76.6931 92.4655 76.4798 92.2455 76.1998V78.9398H91.2855V71.6998H92.2055V72.5398C92.4188 72.2465 92.6888 72.0265 93.0155 71.8798C93.3421 71.7265 93.7021 71.6498 94.0955 71.6498ZM94.0155 76.2198C94.3555 76.2198 94.6588 76.1431 94.9255 75.9898C95.1988 75.8298 95.4121 75.6098 95.5655 75.3298C95.7255 75.0431 95.8055 74.7165 95.8055 74.3498C95.8055 73.9831 95.7255 73.6598 95.5655 73.3798C95.4121 73.0931 95.1988 72.8731 94.9255 72.7198C94.6588 72.5665 94.3555 72.4898 94.0155 72.4898C93.6821 72.4898 93.3788 72.5698 93.1055 72.7298C92.8388 72.8831 92.6255 73.0998 92.4655 73.3798C92.3121 73.6598 92.2355 73.9831 92.2355 74.3498C92.2355 74.7165 92.3121 75.0431 92.4655 75.3298C92.6188 75.6098 92.8321 75.8298 93.1055 75.9898C93.3788 76.1431 93.6821 76.2198 94.0155 76.2198ZM98.1702 71.6998H99.1302V73.9498H102.15V71.6998H103.11V76.9998H102.15V74.7798H99.1302V76.9998H98.1702V71.6998ZM107.247 77.0598C106.72 77.0598 106.247 76.9431 105.827 76.7098C105.407 76.4765 105.077 76.1565 104.837 75.7498C104.604 75.3365 104.487 74.8698 104.487 74.3498C104.487 73.8298 104.604 73.3665 104.837 72.9598C105.077 72.5465 105.407 72.2265 105.827 71.9998C106.247 71.7665 106.72 71.6498 107.247 71.6498C107.774 71.6498 108.244 71.7665 108.657 71.9998C109.077 72.2265 109.404 72.5465 109.637 72.9598C109.877 73.3665 109.997 73.8298 109.997 74.3498C109.997 74.8698 109.877 75.3365 109.637 75.7498C109.404 76.1565 109.077 76.4765 108.657 76.7098C108.244 76.9431 107.774 77.0598 107.247 77.0598ZM107.247 76.2198C107.587 76.2198 107.89 76.1431 108.157 75.9898C108.43 75.8298 108.644 75.6098 108.797 75.3298C108.95 75.0431 109.027 74.7165 109.027 74.3498C109.027 73.9831 108.95 73.6598 108.797 73.3798C108.644 73.0931 108.43 72.8731 108.157 72.7198C107.89 72.5665 107.587 72.4898 107.247 72.4898C106.907 72.4898 106.6 72.5665 106.327 72.7198C106.06 72.8731 105.847 73.0931 105.687 73.3798C105.534 73.6598 105.457 73.9831 105.457 74.3498C105.457 74.7165 105.534 75.0431 105.687 75.3298C105.847 75.6098 106.06 75.8298 106.327 75.9898C106.6 76.1431 106.907 76.2198 107.247 76.2198ZM114.993 74.2498C115.68 74.4231 116.023 74.8531 116.023 75.5398C116.023 76.0065 115.846 76.3665 115.493 76.6198C115.146 76.8731 114.626 76.9998 113.933 76.9998H111.383V71.6998H113.843C114.47 71.6998 114.96 71.8198 115.313 72.0598C115.666 72.2931 115.843 72.6265 115.843 73.0598C115.843 73.3398 115.766 73.5831 115.613 73.7898C115.466 73.9898 115.26 74.1431 114.993 74.2498ZM112.323 73.9798H113.763C114.13 73.9798 114.406 73.9131 114.593 73.7798C114.786 73.6465 114.883 73.4531 114.883 73.1998C114.883 72.6931 114.51 72.4398 113.763 72.4398H112.323V73.9798ZM113.863 76.2598C114.263 76.2598 114.563 76.1965 114.763 76.0698C114.963 75.9431 115.063 75.7465 115.063 75.4798C115.063 75.2065 114.97 75.0031 114.783 74.8698C114.603 74.7365 114.316 74.6698 113.923 74.6698H112.323V76.2598H113.863Z" fill="white"/>
<path d="M142.2 85.5H16.2002V89H142.2V85.5Z" fill="white"/>
<path d="M92.2002 97H16.2002V93.5H92.2002V97Z" fill="white"/>
<path d="M390.6 112.3H251.3C244.9 112.3 239.7 117.5 239.7 123.9V171.1C239.7 177.5 244.9 182.7 251.3 182.7H390.6C397 182.7 402.2 177.5 402.2 171.1V123.9C402.2 117.6 397 112.3 390.6 112.3Z" fill="#D4EEFF"/>
<path d="M229 112.3H257.5L245 128.4L229 112.3Z" fill="#D4EEFF"/>
<path d="M325.4 178.6C331.144 178.6 335.8 173.944 335.8 168.2C335.8 162.456 331.144 157.8 325.4 157.8C319.656 157.8 315 162.456 315 168.2C315 173.944 319.656 178.6 325.4 178.6Z" fill="#F2CF00"/>
<path d="M322.5 165.7C322.5 166.8 321.6 165 320.6 165C319.6 165 318.7 166.7 318.7 165.7C318.7 164.7 319.6 163.8 320.6 163.8C321.6 163.8 322.5 164.7 322.5 165.7Z" fill="#512918"/>
<path d="M332.2 165.7C332.2 166.8 331.3 165 330.3 165C329.2 165 328.4 166.7 328.4 165.7C328.4 164.7 329.3 163.8 330.3 163.8C331.4 163.8 332.2 164.7 332.2 165.7Z" fill="#512918"/>
<path d="M325.4 172.4C323.2 172.4 320.9 171.5 319.2 169.8C319.1 169.7 319.1 169.5 319.2 169.4C319.3 169.3 319.5 169.3 319.6 169.4C322.8 172.6 328 172.6 331.1 169.4C331.2 169.3 331.4 169.3 331.5 169.4C331.6 169.5 331.6 169.7 331.5 169.8C329.9 171.5 327.7 172.4 325.4 172.4Z" fill="#512918"/>
<path d="M380.2 141.5H254.2V145H380.2V141.5Z" fill="#5E9EEB"/>
<path d="M380.2 152H254.2V155.5H380.2V152Z" fill="#5E9EEB"/>
<path d="M304.2 163H254.2V166.5H304.2V163Z" fill="#5E9EEB"/>
<path d="M255.09 126H260.37V126.85H256.08V128.85H258.26C259.093 128.85 259.727 129.023 260.16 129.37C260.593 129.717 260.81 130.217 260.81 130.87C260.81 131.557 260.573 132.083 260.1 132.45C259.633 132.817 258.963 133 258.09 133H255.09V126ZM258.05 132.21C258.623 132.21 259.06 132.1 259.36 131.88C259.66 131.66 259.81 131.337 259.81 130.91C259.81 130.063 259.223 129.64 258.05 129.64H256.08V132.21H258.05ZM266.838 127.7L264.268 133.53C264.041 134.07 263.774 134.45 263.468 134.67C263.168 134.89 262.804 135 262.378 135C262.118 135 261.864 134.957 261.618 134.87C261.378 134.79 261.178 134.67 261.018 134.51L261.428 133.79C261.701 134.05 262.018 134.18 262.378 134.18C262.611 134.18 262.804 134.117 262.958 133.99C263.118 133.87 263.261 133.66 263.388 133.36L263.558 132.99L261.218 127.7H262.218L264.068 131.94L265.898 127.7H266.838ZM270.828 133L269.298 130.97L267.748 133H266.678L268.768 130.29L266.778 127.7H267.848L269.308 129.61L270.758 127.7H271.808L269.808 130.29L271.918 133H270.828ZM276.828 128.54H273.888V133H272.928V127.7H276.828V128.54ZM279.701 127.65C280.434 127.65 280.994 127.83 281.381 128.19C281.774 128.55 281.971 129.087 281.971 129.8V133H281.061V132.3C280.901 132.547 280.671 132.737 280.371 132.87C280.078 132.997 279.728 133.06 279.321 133.06C278.728 133.06 278.251 132.917 277.891 132.63C277.538 132.343 277.361 131.967 277.361 131.5C277.361 131.033 277.531 130.66 277.871 130.38C278.211 130.093 278.751 129.95 279.491 129.95H281.011V129.76C281.011 129.347 280.891 129.03 280.651 128.81C280.411 128.59 280.058 128.48 279.591 128.48C279.278 128.48 278.971 128.533 278.671 128.64C278.371 128.74 278.118 128.877 277.911 129.05L277.511 128.33C277.784 128.11 278.111 127.943 278.491 127.83C278.871 127.71 279.274 127.65 279.701 127.65ZM279.481 132.32C279.848 132.32 280.164 132.24 280.431 132.08C280.698 131.913 280.891 131.68 281.011 131.38V130.64H279.531C278.718 130.64 278.311 130.913 278.311 131.46C278.311 131.727 278.414 131.937 278.621 132.09C278.828 132.243 279.114 132.32 279.481 132.32ZM288.25 127.7V133H287.29V128.54H285.01L284.95 129.72C284.916 130.433 284.853 131.03 284.76 131.51C284.666 131.983 284.513 132.363 284.3 132.65C284.086 132.937 283.79 133.08 283.41 133.08C283.236 133.08 283.04 133.05 282.82 132.99L282.88 132.18C282.966 132.2 283.046 132.21 283.12 132.21C283.386 132.21 283.586 132.093 283.72 131.86C283.853 131.627 283.94 131.35 283.98 131.03C284.02 130.71 284.056 130.253 284.09 129.66L284.18 127.7H288.25ZM294.056 128.54H292.116V133H291.156V128.54H289.216V127.7H294.056V128.54ZM299.593 130.38C299.593 130.453 299.586 130.55 299.573 130.67H295.273C295.333 131.137 295.536 131.513 295.883 131.8C296.236 132.08 296.673 132.22 297.193 132.22C297.826 132.22 298.336 132.007 298.723 131.58L299.253 132.2C299.013 132.48 298.713 132.693 298.353 132.84C298 132.987 297.603 133.06 297.163 133.06C296.603 133.06 296.106 132.947 295.673 132.72C295.24 132.487 294.903 132.163 294.663 131.75C294.43 131.337 294.313 130.87 294.313 130.35C294.313 129.837 294.426 129.373 294.653 128.96C294.886 128.547 295.203 128.227 295.603 128C296.01 127.767 296.466 127.65 296.973 127.65C297.48 127.65 297.93 127.767 298.323 128C298.723 128.227 299.033 128.547 299.253 128.96C299.48 129.373 299.593 129.847 299.593 130.38ZM296.973 128.46C296.513 128.46 296.126 128.6 295.813 128.88C295.506 129.16 295.326 129.527 295.273 129.98H298.673C298.62 129.533 298.436 129.17 298.123 128.89C297.816 128.603 297.433 128.46 296.973 128.46ZM303.892 127.65C304.406 127.65 304.866 127.763 305.272 127.99C305.679 128.217 305.996 128.533 306.222 128.94C306.456 129.347 306.572 129.817 306.572 130.35C306.572 130.883 306.456 131.357 306.222 131.77C305.996 132.177 305.679 132.493 305.272 132.72C304.866 132.947 304.406 133.06 303.892 133.06C303.512 133.06 303.162 132.987 302.842 132.84C302.529 132.693 302.262 132.48 302.042 132.2V134.94H301.082V127.7H302.002V128.54C302.216 128.247 302.486 128.027 302.812 127.88C303.139 127.727 303.499 127.65 303.892 127.65ZM303.812 132.22C304.152 132.22 304.456 132.143 304.722 131.99C304.996 131.83 305.209 131.61 305.362 131.33C305.522 131.043 305.602 130.717 305.602 130.35C305.602 129.983 305.522 129.66 305.362 129.38C305.209 129.093 304.996 128.873 304.722 128.72C304.456 128.567 304.152 128.49 303.812 128.49C303.479 128.49 303.176 128.57 302.902 128.73C302.636 128.883 302.422 129.1 302.262 129.38C302.109 129.66 302.032 129.983 302.032 130.35C302.032 130.717 302.109 131.043 302.262 131.33C302.416 131.61 302.629 131.83 302.902 131.99C303.176 132.143 303.479 132.22 303.812 132.22Z" fill="#5E9EEB"/>
<path d="M208.5 159.3C220.153 159.3 229.6 149.854 229.6 138.2C229.6 126.547 220.153 117.1 208.5 117.1C196.847 117.1 187.4 126.547 187.4 138.2C187.4 149.854 196.847 159.3 208.5 159.3Z" fill="#D4EEFF"/>
<mask id="mask2" mask-type="alpha" maskUnits="userSpaceOnUse" x="187" y="117" width="43" height="43">
<path d="M208.1 159.2C219.753 159.2 229.2 149.753 229.2 138.1C229.2 126.447 219.753 117 208.1 117C196.447 117 187 126.447 187 138.1C187 149.753 196.447 159.2 208.1 159.2Z" fill="#D4EEFF"/>
</mask>
<g mask="url(#mask2)">
<path d="M218.591 132.27C219.751 136.905 217.045 144.341 213.952 150.618C211.343 155.832 219.654 164.523 212.889 174.179C206.125 183.836 206.704 188.954 200.713 188.954C195.688 188.954 195.108 186.926 193.078 180.553C190.856 174.083 190.952 160.853 192.498 156.605C194.045 152.356 198.103 145.982 197.717 140.092C197.234 134.298 200.23 128.697 200.23 128.697C200.23 128.697 204.482 120.876 211.633 123.579C217.721 125.8 217.915 129.566 218.591 132.27Z" fill="#5D3F1C"/>
<path d="M199.359 149.555C199.359 149.555 194.237 151.004 191.532 163.847C190.469 168.868 189.985 170.896 189.985 178.235H195.204C195.204 178.235 197.33 163.75 197.33 161.046C197.523 153.032 199.359 149.555 199.359 149.555Z" fill="#FCA70C"/>
<path d="M220.234 150.714C217.914 149.652 212.309 147.045 212.309 147.045H205.448C205.448 147.045 201.389 149.266 199.069 150.328C199.069 150.328 196.17 161.916 197.91 169.158C199.553 176.207 200.133 185.767 200.133 185.767H217.431C217.431 185.767 217.044 176.111 219.267 169.351C222.36 160.177 220.234 150.714 220.234 150.714Z" fill="#E6E7E8"/>
<path d="M212.31 147.045L208.927 150.231L205.448 147.045V141.347H212.31V147.045Z" fill="#F7A898"/>
<path d="M216.079 137.388C215.499 139.899 211.923 144.727 208.734 144.727C206.028 144.727 201.583 140.768 201.389 138.064C201.389 138.064 200.713 133.332 200.616 131.787C200.326 127.152 204.675 123.29 208.734 123.29C212.793 123.29 217.335 127.056 217.045 131.787C216.948 133.429 216.465 135.843 216.079 137.388Z" fill="#F8B4A7"/>
<path d="M213.179 146.562C213.179 146.562 215.788 141.444 215.788 139.706C215.788 138.643 215.788 138.064 215.788 134.008C215.788 131.594 213.855 129.566 213.855 129.566C213.566 129.566 213.179 132.56 208.54 133.815C205.738 134.588 202.355 133.043 202.355 138.643C202.355 141.251 202.742 144.244 204.095 146.272C204.095 146.272 198.586 143.182 198.586 134.105C198.683 131.787 201.196 123 208.154 123C213.179 123 218.687 126.38 218.687 134.202C218.687 138.643 217.045 145.306 213.179 146.562Z" fill="#5E3F1C"/>
<path d="M212.309 147.045L219.846 150.231C219.846 150.231 220.62 150.811 220.909 152.259C221.103 153.321 222.456 166.454 218.397 180.359C217.237 184.415 221.296 187.795 221.876 192.623C221.876 192.623 220.909 193.685 218.494 194.361C217.43 194.651 214.338 194.265 214.338 194.265L212.309 147.045Z" fill="#FCA70C"/>
<path d="M205.447 147.045L199.069 149.652C199.069 149.652 198.296 150.231 198.006 151.68C197.813 152.742 195.977 164.619 198.779 179.394C199.649 184.125 196.266 189.05 195.977 192.623C195.977 192.623 197.04 193.685 199.456 193.878C200.422 193.975 203.514 193.492 203.514 193.492L205.447 147.045Z" fill="#FCA70C"/>
<path d="M212.212 147.045L215.691 151.294L214.048 152.935L217.527 159.598L213.565 179.297L212.212 147.045Z" fill="#F98011"/>
<path d="M205.64 147.141L201.871 151.197L203.707 153.032L201.098 159.695L204.191 179.394L205.64 147.141Z" fill="#F98011"/>
<path d="M208.927 150.231C208.927 150.231 212.502 148.493 214.532 149.072C214.532 149.072 214.339 146.851 212.212 146.465V146.948L208.927 150.231Z" fill="#C8CACB"/>
<path d="M208.926 150.231C208.926 150.231 205.351 148.493 203.321 149.072C203.321 149.072 203.321 146.851 205.447 146.465V146.948L208.926 150.231Z" fill="#C8CACB"/>
<path d="M208.928 150.231C209.024 153.225 209.121 156.122 209.121 159.115L209.218 167.999L209.121 176.883C209.121 179.877 209.024 182.774 208.928 185.767C208.831 182.774 208.734 179.877 208.734 176.883L208.638 167.999L208.734 159.115C208.734 156.122 208.831 153.225 208.928 150.231Z" fill="#C8CACB"/>
<path d="M215.42 156.74L200.487 166.027L216.317 191.442L231.25 182.155L215.42 156.74Z" fill="#C0373F"/>
<path d="M231.251 169.544C231.927 171.186 231.154 173.021 229.511 173.697C227.868 174.373 226.032 173.6 225.356 171.958L221.2 163.461C220.91 162.978 219.267 149.845 219.75 150.231C225.549 154.866 231.251 169.544 231.251 169.544Z" fill="#FCA70C"/>
</g>
<path d="M390.6 231.3H251.3C244.9 231.3 239.7 236.5 239.7 242.9V276.1C239.7 282.5 244.9 287.7 251.3 287.7H390.6C397 287.7 402.2 282.5 402.2 276.1V242.9C402.2 236.6 397 231.3 390.6 231.3Z" fill="#D4EEFF"/>
<path d="M229 231.3H257.5L245 247.4L229 231.3Z" fill="#D4EEFF"/>
<path d="M380.2 261.5H254.2V265H380.2V261.5Z" fill="#5E9EEB"/>
<path d="M300.2 272H254.2V275.5H300.2V272Z" fill="#5E9EEB"/>
<path d="M208.5 278.3C220.153 278.3 229.6 268.854 229.6 257.2C229.6 245.547 220.153 236.1 208.5 236.1C196.847 236.1 187.4 245.547 187.4 257.2C187.4 268.854 196.847 278.3 208.5 278.3Z" fill="#D4EEFF"/>
<mask id="mask3" mask-type="alpha" maskUnits="userSpaceOnUse" x="187" y="235" width="43" height="43">
<path d="M208.1 277.2C219.753 277.2 229.2 267.753 229.2 256.1C229.2 244.447 219.753 235 208.1 235C196.447 235 187 244.447 187 256.1C187 267.753 196.447 277.2 208.1 277.2Z" fill="#D4EEFF"/>
</mask>
<g mask="url(#mask3)">
<path d="M187.925 302.605C189.127 296.298 190.729 291.393 192.932 287.689L193.333 271.472C188.726 274.876 183.619 285.987 179.413 298.2L179.112 298.901V299.702C179.112 300.202 178.211 313.817 181.516 325.329H189.627C187.124 316.62 187.124 304.907 187.925 302.605Z" fill="#FCA70C"/>
<path d="M223.876 326.43V272.774C223.876 271.072 222.374 270.071 220.872 269.37C218.268 268.369 212.46 265.967 212.46 265.967H204.649C204.649 265.967 198.44 268.069 196.237 269.37C194.735 270.171 193.232 271.072 193.232 272.774V326.33H223.876V326.43Z" fill="#DAD8D5"/>
<path d="M223.876 326.43V272.774C223.876 271.072 222.374 270.071 220.872 269.37C218.268 268.369 212.46 265.967 212.46 265.967L208.554 287.389L204.649 265.967C204.649 265.967 198.44 268.069 196.237 269.37C194.735 270.171 193.032 271.372 193.032 272.173L193.233 326.43H223.876Z" fill="#007FFF"/>
<path d="M212.46 266.067L208.454 270.271L204.649 266.067V262.263H212.46V266.067Z" fill="#F8A899"/>
<path d="M217.167 257.758C217.167 259.46 212.86 264.465 208.554 264.465C204.348 264.465 199.942 259.76 199.942 257.758V251.351C199.942 246.546 203.847 242.742 208.554 242.742C213.361 242.742 217.167 246.646 217.167 251.351V257.758Z" fill="#F8A899"/>
<path d="M218.617 255.024C218.935 254.081 218.64 253.131 217.958 252.902C217.277 252.672 216.467 253.251 216.15 254.194C215.832 255.138 216.127 256.088 216.809 256.317C217.49 256.546 218.3 255.968 218.617 255.024Z" fill="#F8A899"/>
<path d="M200.209 256.254C200.891 256.025 201.186 255.075 200.869 254.132C200.551 253.189 199.742 252.61 199.06 252.839C198.379 253.068 198.083 254.018 198.401 254.961C198.718 255.905 199.528 256.484 200.209 256.254Z" fill="#F8A899"/>
<path d="M208.455 270.271L212.46 266.167L214.463 266.968C214.463 266.968 216.967 269.57 217.167 272.473L214.263 270.772L208.455 270.271Z" fill="#ECE5E5"/>
<path d="M208.454 270.271L204.649 266.167L202.446 266.867C202.446 266.867 200.042 269.57 199.742 272.473L202.646 270.772L208.454 270.271Z" fill="#ECE5E5"/>
<path d="M199.842 254.555C199.842 254.555 200.743 251.251 202.846 249.75L204.048 247.948C204.048 247.948 205.35 247.547 208.454 248.849C211.559 250.05 212.36 251.952 215.364 251.251C215.364 251.251 216.666 253.854 216.866 254.855C216.866 254.855 217.567 252.653 217.768 250.55C217.968 248.448 218.369 243.143 211.859 241.441C205.049 239.639 202.245 243.943 202.245 243.943C202.245 243.943 201.645 243.243 199.942 245.946C198.74 247.848 198.64 251.051 199.942 254.855" fill="#310072"/>
<path d="M217.167 255.155C217.167 253.854 215.765 252.152 215.765 252.152C215.765 252.152 216.366 256.056 214.864 257.958C213.562 259.66 209.556 262.163 208.354 262.163C207.153 262.163 203.147 259.56 201.845 257.958C200.443 255.956 201.044 251.652 201.044 251.652C201.044 251.652 199.642 253.854 199.642 255.155C199.642 255.155 199.141 257.858 200.243 259.56C201.444 261.362 205.45 264.065 205.45 264.065C205.45 264.065 207.153 265.066 208.354 265.066C209.556 264.965 211.259 264.065 211.259 264.065C211.259 264.065 215.364 261.562 216.566 259.76C217.768 258.058 217.167 255.155 217.167 255.155Z" fill="#310072"/>
<path d="M213.462 260.461L212.56 259.159C212.26 258.959 210.758 257.958 208.755 257.958C206.051 257.958 204.449 258.559 204.048 258.959C203.547 259.46 203.047 260.361 203.047 260.361L201.444 259.56C201.444 259.56 202.045 258.459 202.746 257.658C203.647 256.757 206.051 256.156 208.755 256.156C211.759 256.156 213.762 257.758 213.862 257.858L213.962 257.958L214.964 259.56L213.462 260.461Z" fill="#310072"/>
<path d="M212.06 314.918C227.082 313.817 240 301.504 240 301.504C240 284.286 226.281 272.674 222.475 270.371C222.475 270.371 223.877 271.873 223.877 272.874C223.877 276.377 223.877 287.689 223.877 287.689C226.982 290.993 228.083 293.696 229.585 298.501C224.378 302.705 219.771 306.008 209.757 307.71L212.06 314.918Z" fill="#FCA70C"/>
</g>
<path d="M257.53 248.92H256.07V252H255.09V245H256.07V248.04H257.55L259.75 245H260.82L258.32 248.39L260.94 252H259.8L257.53 248.92ZM263.763 246.65C264.497 246.65 265.057 246.83 265.443 247.19C265.837 247.55 266.033 248.087 266.033 248.8V252H265.123V251.3C264.963 251.547 264.733 251.737 264.433 251.87C264.14 251.997 263.79 252.06 263.383 252.06C262.79 252.06 262.313 251.917 261.953 251.63C261.6 251.343 261.423 250.967 261.423 250.5C261.423 250.033 261.593 249.66 261.933 249.38C262.273 249.093 262.813 248.95 263.553 248.95H265.073V248.76C265.073 248.347 264.953 248.03 264.713 247.81C264.473 247.59 264.12 247.48 263.653 247.48C263.34 247.48 263.033 247.533 262.733 247.64C262.433 247.74 262.18 247.877 261.973 248.05L261.573 247.33C261.847 247.11 262.173 246.943 262.553 246.83C262.933 246.71 263.337 246.65 263.763 246.65ZM263.543 251.32C263.91 251.32 264.227 251.24 264.493 251.08C264.76 250.913 264.953 250.68 265.073 250.38V249.64H263.593C262.78 249.64 262.373 249.913 262.373 250.46C262.373 250.727 262.477 250.937 262.683 251.09C262.89 251.243 263.177 251.32 263.543 251.32ZM273.152 251.16V253.23H272.252V252H267.822V253.23H266.912V251.16H267.192C267.532 251.14 267.765 250.9 267.892 250.44C268.019 249.98 268.105 249.33 268.152 248.49L268.232 246.7H272.342V251.16H273.152ZM269.032 248.56C269.005 249.227 268.949 249.78 268.862 250.22C268.782 250.653 268.632 250.967 268.412 251.16H271.382V247.54H269.082L269.032 248.56ZM277.213 246.65C277.726 246.65 278.186 246.763 278.593 246.99C278.999 247.217 279.316 247.533 279.543 247.94C279.776 248.347 279.893 248.817 279.893 249.35C279.893 249.883 279.776 250.357 279.543 250.77C279.316 251.177 278.999 251.493 278.593 251.72C278.186 251.947 277.726 252.06 277.213 252.06C276.833 252.06 276.483 251.987 276.163 251.84C275.849 251.693 275.583 251.48 275.363 251.2V253.94H274.403V246.7H275.323V247.54C275.536 247.247 275.806 247.027 276.133 246.88C276.459 246.727 276.819 246.65 277.213 246.65ZM277.133 251.22C277.473 251.22 277.776 251.143 278.043 250.99C278.316 250.83 278.529 250.61 278.683 250.33C278.843 250.043 278.923 249.717 278.923 249.35C278.923 248.983 278.843 248.66 278.683 248.38C278.529 248.093 278.316 247.873 278.043 247.72C277.776 247.567 277.473 247.49 277.133 247.49C276.799 247.49 276.496 247.57 276.223 247.73C275.956 247.883 275.743 248.1 275.583 248.38C275.429 248.66 275.353 248.983 275.353 249.35C275.353 249.717 275.429 250.043 275.583 250.33C275.736 250.61 275.949 250.83 276.223 250.99C276.496 251.143 276.799 251.22 277.133 251.22ZM283.557 252.06C283.031 252.06 282.557 251.943 282.137 251.71C281.717 251.477 281.387 251.157 281.147 250.75C280.914 250.337 280.797 249.87 280.797 249.35C280.797 248.83 280.914 248.367 281.147 247.96C281.387 247.547 281.717 247.227 282.137 247C282.557 246.767 283.031 246.65 283.557 246.65C284.084 246.65 284.554 246.767 284.967 247C285.387 247.227 285.714 247.547 285.947 247.96C286.187 248.367 286.307 248.83 286.307 249.35C286.307 249.87 286.187 250.337 285.947 250.75C285.714 251.157 285.387 251.477 284.967 251.71C284.554 251.943 284.084 252.06 283.557 252.06ZM283.557 251.22C283.897 251.22 284.201 251.143 284.467 250.99C284.741 250.83 284.954 250.61 285.107 250.33C285.261 250.043 285.337 249.717 285.337 249.35C285.337 248.983 285.261 248.66 285.107 248.38C284.954 248.093 284.741 247.873 284.467 247.72C284.201 247.567 283.897 247.49 283.557 247.49C283.217 247.49 282.911 247.567 282.637 247.72C282.371 247.873 282.157 248.093 281.997 248.38C281.844 248.66 281.767 248.983 281.767 249.35C281.767 249.717 281.844 250.043 281.997 250.33C282.157 250.61 282.371 250.83 282.637 250.99C282.911 251.143 283.217 251.22 283.557 251.22ZM291.304 249.25C291.99 249.423 292.334 249.853 292.334 250.54C292.334 251.007 292.157 251.367 291.804 251.62C291.457 251.873 290.937 252 290.244 252H287.694V246.7H290.154C290.78 246.7 291.27 246.82 291.624 247.06C291.977 247.293 292.154 247.627 292.154 248.06C292.154 248.34 292.077 248.583 291.924 248.79C291.777 248.99 291.57 249.143 291.304 249.25ZM288.634 248.98H290.074C290.44 248.98 290.717 248.913 290.904 248.78C291.097 248.647 291.194 248.453 291.194 248.2C291.194 247.693 290.82 247.44 290.074 247.44H288.634V248.98ZM290.174 251.26C290.574 251.26 290.874 251.197 291.074 251.07C291.274 250.943 291.374 250.747 291.374 250.48C291.374 250.207 291.28 250.003 291.094 249.87C290.914 249.737 290.627 249.67 290.234 249.67H288.634V251.26H290.174ZM293.836 246.7H294.796V250.56L298.046 246.7H298.916V252H297.956V248.14L294.716 252H293.836V246.7ZM302.84 249.76H301.74V252H300.78V246.7H301.74V248.94H302.86L304.58 246.7H305.61L303.6 249.25L305.75 252H304.62L302.84 249.76Z" fill="#5E9EEB"/>
</svg>
