<svg width="627" height="361" viewBox="0 0 627 361" fill="none" xmlns="http://www.w3.org/2000/svg">
<path d="M74.0704 -0.000244141C65.2416 -0.000244141 57.8843 7.35852 57.8843 16.189V344.81C57.8843 353.641 65.2416 361 74.0704 361H551.455C560.284 361 567.641 353.641 567.641 344.81V16.189C567.641 7.35852 560.284 -0.000244141 551.455 -0.000244141H74.0704Z" fill="#EEF2FA"/>
<path d="M490.413 353.531H135.735H0C0 353.531 6.72374 361 27.3152 361H135.525H490.413H598.833C619.424 361 626.148 353.531 626.148 353.531H490.413Z" fill="#5A77D1"/>
<path d="M626.148 341.083H0V353.531H626.148V341.083Z" fill="#DCDEE2"/>
<rect x="71" y="21.9998" width="487" height="303" fill="white"/>
<path d="M357.266 342.95H269.505C269.505 345.631 272.025 347.929 274.964 347.929H351.807C354.746 347.929 357.266 345.823 357.266 342.95Z" fill="#5A77D1"/>
<path d="M206.934 65.9998H98.0658C93.064 65.9998 89 72.7952 89 81.1588V142.841C89 151.204 93.064 158 98.0658 158H206.934C211.936 158 216 151.204 216 142.841V81.1588C216 72.7952 211.936 65.9998 206.934 65.9998Z" fill="#D4EEFF"/>
<path d="M365.934 65.9998H257.066C252.064 65.9998 248 72.7952 248 81.1588V142.841C248 151.204 252.064 158 257.066 158H365.934C370.936 158 375 151.204 375 142.841V81.1588C375 72.7952 370.936 65.9998 365.934 65.9998Z" fill="#D4EEFF"/>
<path d="M525.934 65.9998H417.066C412.064 65.9998 408 72.7952 408 81.1588V142.841C408 151.204 412.064 158 417.066 158H525.934C530.936 158 535 151.204 535 142.841V81.1588C535 72.7952 530.936 65.9998 525.934 65.9998Z" fill="#D4EEFF"/>
<path d="M206.934 190H98.0658C93.064 190 89 196.795 89 205.159V266.841C89 275.204 93.064 282 98.0658 282H206.934C211.936 282 216 275.204 216 266.841V205.159C216 196.795 211.936 190 206.934 190Z" fill="#D4EEFF"/>
<path d="M365.934 190H257.066C252.064 190 248 196.795 248 205.159V266.841C248 275.204 252.064 282 257.066 282H365.934C370.936 282 375 275.204 375 266.841V205.159C375 196.795 370.936 190 365.934 190Z" fill="#D4EEFF"/>
<path d="M525.934 190H417.066C412.064 190 408 196.795 408 205.159V266.841C408 275.204 412.064 282 417.066 282H525.934C530.936 282 535 275.204 535 266.841V205.159C535 196.795 530.936 190 525.934 190Z" fill="#D4EEFF"/>
<path d="M224 112H238" stroke="#007FFF" stroke-width="2" stroke-linecap="round" stroke-linejoin="round"/>
<path d="M233 105L240 112L233 119" stroke="#007FFF" stroke-width="2" stroke-linecap="round" stroke-linejoin="round"/>
<path d="M384 112H398" stroke="#007FFF" stroke-width="2" stroke-linecap="round" stroke-linejoin="round"/>
<path d="M393 105L400 112L393 119" stroke="#007FFF" stroke-width="2" stroke-linecap="round" stroke-linejoin="round"/>
<path d="M472 166V180" stroke="#007FFF" stroke-width="2" stroke-linecap="round" stroke-linejoin="round"/>
<path d="M465 175L472 182L479 175" stroke="#007FFF" stroke-width="2" stroke-linecap="round" stroke-linejoin="round"/>
<path d="M240 236H226" stroke="#007FFF" stroke-width="2" stroke-linecap="round" stroke-linejoin="round"/>
<path d="M231 229L224 236L231 243" stroke="#007FFF" stroke-width="2" stroke-linecap="round" stroke-linejoin="round"/>
<path d="M400 236H386" stroke="#007FFF" stroke-width="2" stroke-linecap="round" stroke-linejoin="round"/>
<path d="M391 229L384 236L391 243" stroke="#007FFF" stroke-width="2" stroke-linecap="round" stroke-linejoin="round"/>
<path d="M112.232 106.89C112.802 107.086 113.245 107.394 113.562 107.814C113.889 108.224 114.052 108.705 114.052 109.256C114.052 109.853 113.856 110.371 113.464 110.81C113.072 111.248 112.54 111.584 111.868 111.818C111.206 112.051 110.478 112.168 109.684 112.168C109.012 112.168 108.34 112.084 107.668 111.916C107.006 111.748 106.376 111.491 105.778 111.146L106.478 109.522C106.908 109.783 107.379 109.984 107.892 110.124C108.415 110.254 108.924 110.32 109.418 110.32C110.09 110.32 110.646 110.198 111.084 109.956C111.532 109.713 111.756 109.372 111.756 108.934C111.756 108.57 111.602 108.294 111.294 108.108C110.996 107.921 110.585 107.828 110.062 107.828H107.668V106.12H109.894C110.352 106.12 110.706 106.026 110.958 105.84C111.22 105.653 111.35 105.396 111.35 105.07C111.35 104.687 111.164 104.388 110.79 104.174C110.426 103.959 109.955 103.852 109.376 103.852C108.947 103.852 108.504 103.912 108.046 104.034C107.589 104.146 107.155 104.318 106.744 104.552L106.058 102.788C107.094 102.256 108.214 101.99 109.418 101.99C110.184 101.99 110.888 102.102 111.532 102.326C112.176 102.55 112.69 102.876 113.072 103.306C113.455 103.735 113.646 104.234 113.646 104.804C113.646 105.27 113.52 105.686 113.268 106.05C113.016 106.414 112.671 106.694 112.232 106.89ZM118.606 104.356C119.773 104.356 120.669 104.636 121.294 105.196C121.919 105.746 122.232 106.582 122.232 107.702V112H120.188V111.062C119.777 111.762 119.012 112.112 117.892 112.112C117.313 112.112 116.809 112.014 116.38 111.818C115.96 111.622 115.638 111.351 115.414 111.006C115.19 110.66 115.078 110.268 115.078 109.83C115.078 109.13 115.339 108.579 115.862 108.178C116.394 107.776 117.211 107.576 118.312 107.576H120.048C120.048 107.1 119.903 106.736 119.614 106.484C119.325 106.222 118.891 106.092 118.312 106.092C117.911 106.092 117.514 106.157 117.122 106.288C116.739 106.409 116.413 106.577 116.142 106.792L115.358 105.266C115.769 104.976 116.259 104.752 116.828 104.594C117.407 104.435 117.999 104.356 118.606 104.356ZM118.438 110.642C118.811 110.642 119.143 110.558 119.432 110.39C119.721 110.212 119.927 109.956 120.048 109.62V108.85H118.55C117.654 108.85 117.206 109.144 117.206 109.732C117.206 110.012 117.313 110.236 117.528 110.404C117.752 110.562 118.055 110.642 118.438 110.642ZM127.447 109.144H126.313V112H124.129V104.468H126.313V107.394H127.489L129.533 104.468H131.857L129.225 108.08L132.039 112H129.463L127.447 109.144ZM140.336 104.468V112H138.152V106.26H135.772L135.702 107.59C135.664 108.579 135.571 109.4 135.422 110.054C135.272 110.707 135.03 111.22 134.694 111.594C134.358 111.967 133.891 112.154 133.294 112.154C132.976 112.154 132.598 112.098 132.16 111.986L132.272 110.194C132.421 110.212 132.528 110.222 132.594 110.222C132.92 110.222 133.163 110.105 133.322 109.872C133.49 109.629 133.602 109.326 133.658 108.962C133.714 108.588 133.756 108.098 133.784 107.492L133.896 104.468H140.336ZM149.562 104.356C150.327 104.356 151.013 104.524 151.62 104.86C152.226 105.186 152.702 105.644 153.048 106.232C153.393 106.82 153.566 107.487 153.566 108.234C153.566 108.98 153.393 109.648 153.048 110.236C152.702 110.824 152.226 111.286 151.62 111.622C151.013 111.948 150.327 112.112 149.562 112.112C148.899 112.112 148.292 111.99 147.742 111.748C147.191 111.496 146.734 111.146 146.37 110.698C146.006 110.24 145.763 109.718 145.642 109.13H144.606V112H142.436V104.468H144.606V107.24H145.656C145.87 106.362 146.328 105.662 147.028 105.14C147.728 104.617 148.572 104.356 149.562 104.356ZM149.562 110.32C150.094 110.32 150.532 110.133 150.878 109.76C151.232 109.377 151.41 108.868 151.41 108.234C151.41 107.59 151.232 107.081 150.878 106.708C150.532 106.334 150.094 106.148 149.562 106.148C149.02 106.148 148.572 106.334 148.218 106.708C147.872 107.081 147.7 107.59 147.7 108.234C147.7 108.868 147.872 109.377 148.218 109.76C148.572 110.133 149.02 110.32 149.562 110.32ZM161.858 104.468V112H159.674V109.2C159.04 109.517 158.34 109.676 157.574 109.676C156.557 109.676 155.787 109.447 155.264 108.99C154.751 108.523 154.494 107.804 154.494 106.834V104.468H156.678V106.694C156.678 107.151 156.795 107.482 157.028 107.688C157.271 107.893 157.616 107.996 158.064 107.996C158.634 107.996 159.17 107.874 159.674 107.632V104.468H161.858ZM171.277 108.262C171.277 108.29 171.263 108.486 171.235 108.85H165.537C165.64 109.316 165.883 109.685 166.265 109.956C166.648 110.226 167.124 110.362 167.693 110.362C168.085 110.362 168.431 110.306 168.729 110.194C169.037 110.072 169.322 109.886 169.583 109.634L170.745 110.894C170.036 111.706 169 112.112 167.637 112.112C166.788 112.112 166.037 111.948 165.383 111.622C164.73 111.286 164.226 110.824 163.871 110.236C163.517 109.648 163.339 108.98 163.339 108.234C163.339 107.496 163.512 106.834 163.857 106.246C164.212 105.648 164.693 105.186 165.299 104.86C165.915 104.524 166.601 104.356 167.357 104.356C168.095 104.356 168.762 104.514 169.359 104.832C169.957 105.149 170.423 105.606 170.759 106.204C171.105 106.792 171.277 107.478 171.277 108.262ZM167.371 106.008C166.877 106.008 166.461 106.148 166.125 106.428C165.789 106.708 165.584 107.09 165.509 107.576H169.219C169.145 107.1 168.939 106.722 168.603 106.442C168.267 106.152 167.857 106.008 167.371 106.008ZM172.951 104.468H175.121V107.408H178.397V104.468H180.581V112H178.397V109.186H175.121V112H172.951V104.468ZM182.672 104.468H184.842V108.948L188.51 104.468H190.512V112H188.342V107.52L184.688 112H182.672V104.468ZM199.934 108.262C199.934 108.29 199.92 108.486 199.892 108.85H194.194C194.296 109.316 194.539 109.685 194.922 109.956C195.304 110.226 195.78 110.362 196.35 110.362C196.742 110.362 197.087 110.306 197.386 110.194C197.694 110.072 197.978 109.886 198.24 109.634L199.402 110.894C198.692 111.706 197.656 112.112 196.294 112.112C195.444 112.112 194.693 111.948 194.04 111.622C193.386 111.286 192.882 110.824 192.528 110.236C192.173 109.648 191.996 108.98 191.996 108.234C191.996 107.496 192.168 106.834 192.514 106.246C192.868 105.648 193.349 105.186 193.956 104.86C194.572 104.524 195.258 104.356 196.014 104.356C196.751 104.356 197.418 104.514 198.016 104.832C198.613 105.149 199.08 105.606 199.416 106.204C199.761 106.792 199.934 107.478 199.934 108.262ZM196.028 106.008C195.533 106.008 195.118 106.148 194.782 106.428C194.446 106.708 194.24 107.09 194.166 107.576H197.876C197.801 107.1 197.596 106.722 197.26 106.442C196.924 106.152 196.513 106.008 196.028 106.008ZM127.027 127.208V130.624H124.997V129H119.705V130.624H117.675V127.208H117.983C118.45 127.198 118.772 126.923 118.949 126.382C119.126 125.84 119.238 125.07 119.285 124.072L119.383 121.468H125.949V127.208H127.027ZM121.259 124.226C121.231 124.991 121.17 125.616 121.077 126.102C120.993 126.587 120.83 126.956 120.587 127.208H123.765V123.26H121.301L121.259 124.226ZM131.93 129.112C131.136 129.112 130.422 128.948 129.788 128.622C129.162 128.286 128.672 127.824 128.318 127.236C127.963 126.648 127.786 125.98 127.786 125.234C127.786 124.487 127.963 123.82 128.318 123.232C128.672 122.644 129.162 122.186 129.788 121.86C130.422 121.524 131.136 121.356 131.93 121.356C132.723 121.356 133.432 121.524 134.058 121.86C134.683 122.186 135.173 122.644 135.528 123.232C135.882 123.82 136.06 124.487 136.06 125.234C136.06 125.98 135.882 126.648 135.528 127.236C135.173 127.824 134.683 128.286 134.058 128.622C133.432 128.948 132.723 129.112 131.93 129.112ZM131.93 127.32C132.49 127.32 132.947 127.133 133.302 126.76C133.666 126.377 133.848 125.868 133.848 125.234C133.848 124.599 133.666 124.095 133.302 123.722C132.947 123.339 132.49 123.148 131.93 123.148C131.37 123.148 130.908 123.339 130.544 123.722C130.18 124.095 129.998 124.599 129.998 125.234C129.998 125.868 130.18 126.377 130.544 126.76C130.908 127.133 131.37 127.32 131.93 127.32ZM143.596 123.26H139.732V129H137.562V121.468H143.596V123.26ZM147.967 129.112C147.173 129.112 146.459 128.948 145.825 128.622C145.199 128.286 144.709 127.824 144.355 127.236C144 126.648 143.823 125.98 143.823 125.234C143.823 124.487 144 123.82 144.355 123.232C144.709 122.644 145.199 122.186 145.825 121.86C146.459 121.524 147.173 121.356 147.967 121.356C148.76 121.356 149.469 121.524 150.095 121.86C150.72 122.186 151.21 122.644 151.565 123.232C151.919 123.82 152.097 124.487 152.097 125.234C152.097 125.98 151.919 126.648 151.565 127.236C151.21 127.824 150.72 128.286 150.095 128.622C149.469 128.948 148.76 129.112 147.967 129.112ZM147.967 127.32C148.527 127.32 148.984 127.133 149.339 126.76C149.703 126.377 149.885 125.868 149.885 125.234C149.885 124.599 149.703 124.095 149.339 123.722C148.984 123.339 148.527 123.148 147.967 123.148C147.407 123.148 146.945 123.339 146.581 123.722C146.217 124.095 146.035 124.599 146.035 125.234C146.035 125.868 146.217 126.377 146.581 126.76C146.945 127.133 147.407 127.32 147.967 127.32ZM159.353 125.066C160.239 125.364 160.683 125.962 160.683 126.858C160.683 127.539 160.426 128.066 159.913 128.44C159.399 128.813 158.634 129 157.617 129H153.599V121.468H157.449C158.391 121.468 159.129 121.64 159.661 121.986C160.193 122.322 160.459 122.798 160.459 123.414C160.459 123.787 160.361 124.118 160.165 124.408C159.978 124.688 159.707 124.907 159.353 125.066ZM155.601 124.562H157.253C158.018 124.562 158.401 124.291 158.401 123.75C158.401 123.218 158.018 122.952 157.253 122.952H155.601V124.562ZM157.435 127.516C158.237 127.516 158.639 127.24 158.639 126.69C158.639 126.4 158.545 126.19 158.359 126.06C158.172 125.92 157.878 125.85 157.477 125.85H155.601V127.516H157.435ZM165.836 129.112C165.042 129.112 164.328 128.948 163.694 128.622C163.068 128.286 162.578 127.824 162.224 127.236C161.869 126.648 161.692 125.98 161.692 125.234C161.692 124.487 161.869 123.82 162.224 123.232C162.578 122.644 163.068 122.186 163.694 121.86C164.328 121.524 165.042 121.356 165.836 121.356C166.629 121.356 167.338 121.524 167.964 121.86C168.589 122.186 169.079 122.644 169.434 123.232C169.788 123.82 169.966 124.487 169.966 125.234C169.966 125.98 169.788 126.648 169.434 127.236C169.079 127.824 168.589 128.286 167.964 128.622C167.338 128.948 166.629 129.112 165.836 129.112ZM165.836 127.32C166.396 127.32 166.853 127.133 167.208 126.76C167.572 126.377 167.754 125.868 167.754 125.234C167.754 124.599 167.572 124.095 167.208 123.722C166.853 123.339 166.396 123.148 165.836 123.148C165.276 123.148 164.814 123.339 164.45 123.722C164.086 124.095 163.904 124.599 163.904 125.234C163.904 125.868 164.086 126.377 164.45 126.76C164.814 127.133 165.276 127.32 165.836 127.32ZM175.906 121.356C176.606 121.356 177.241 121.519 177.81 121.846C178.389 122.163 178.841 122.616 179.168 123.204C179.495 123.782 179.658 124.459 179.658 125.234C179.658 126.008 179.495 126.69 179.168 127.278C178.841 127.856 178.389 128.309 177.81 128.636C177.241 128.953 176.606 129.112 175.906 129.112C174.945 129.112 174.189 128.808 173.638 128.202V131.716H171.454V121.468H173.54V122.336C174.081 121.682 174.87 121.356 175.906 121.356ZM175.528 127.32C176.088 127.32 176.545 127.133 176.9 126.76C177.264 126.377 177.446 125.868 177.446 125.234C177.446 124.599 177.264 124.095 176.9 123.722C176.545 123.339 176.088 123.148 175.528 123.148C174.968 123.148 174.506 123.339 174.142 123.722C173.787 124.095 173.61 124.599 173.61 125.234C173.61 125.868 173.787 126.377 174.142 126.76C174.506 127.133 174.968 127.32 175.528 127.32ZM183.992 121.356C185.158 121.356 186.054 121.636 186.68 122.196C187.305 122.746 187.618 123.582 187.618 124.702V129H185.574V128.062C185.163 128.762 184.398 129.112 183.278 129.112C182.699 129.112 182.195 129.014 181.766 128.818C181.346 128.622 181.024 128.351 180.8 128.006C180.576 127.66 180.464 127.268 180.464 126.83C180.464 126.13 180.725 125.579 181.248 125.178C181.78 124.776 182.596 124.576 183.698 124.576H185.434C185.434 124.1 185.289 123.736 185 123.484C184.71 123.222 184.276 123.092 183.698 123.092C183.296 123.092 182.9 123.157 182.508 123.288C182.125 123.409 181.798 123.577 181.528 123.792L180.744 122.266C181.154 121.976 181.644 121.752 182.214 121.594C182.792 121.435 183.385 121.356 183.992 121.356ZM183.824 127.642C184.197 127.642 184.528 127.558 184.818 127.39C185.107 127.212 185.312 126.956 185.434 126.62V125.85H183.936C183.04 125.85 182.592 126.144 182.592 126.732C182.592 127.012 182.699 127.236 182.914 127.404C183.138 127.562 183.441 127.642 183.824 127.642Z" fill="#555BE4"/>
<path d="M135.15 224.2V234H132.896V226.048H128.472V234H126.218V224.2H135.15ZM140.939 234.112C140.146 234.112 139.432 233.948 138.797 233.622C138.172 233.286 137.682 232.824 137.327 232.236C136.973 231.648 136.795 230.98 136.795 230.234C136.795 229.487 136.973 228.82 137.327 228.232C137.682 227.644 138.172 227.186 138.797 226.86C139.432 226.524 140.146 226.356 140.939 226.356C141.733 226.356 142.442 226.524 143.067 226.86C143.693 227.186 144.183 227.644 144.537 228.232C144.892 228.82 145.069 229.487 145.069 230.234C145.069 230.98 144.892 231.648 144.537 232.236C144.183 232.824 143.693 233.286 143.067 233.622C142.442 233.948 141.733 234.112 140.939 234.112ZM140.939 232.32C141.499 232.32 141.957 232.133 142.311 231.76C142.675 231.377 142.857 230.868 142.857 230.234C142.857 229.599 142.675 229.095 142.311 228.722C141.957 228.339 141.499 228.148 140.939 228.148C140.379 228.148 139.917 228.339 139.553 228.722C139.189 229.095 139.007 229.599 139.007 230.234C139.007 230.868 139.189 231.377 139.553 231.76C139.917 232.133 140.379 232.32 140.939 232.32ZM154.904 232.208V235.624H152.874V234H147.582V235.624H145.552V232.208H145.86C146.327 232.198 146.649 231.923 146.826 231.382C147.003 230.84 147.115 230.07 147.162 229.072L147.26 226.468H153.826V232.208H154.904ZM149.136 229.226C149.108 229.991 149.047 230.616 148.954 231.102C148.87 231.587 148.707 231.956 148.464 232.208H151.642V228.26H149.178L149.136 229.226ZM159.205 226.356C160.371 226.356 161.267 226.636 161.893 227.196C162.518 227.746 162.831 228.582 162.831 229.702V234H160.787V233.062C160.376 233.762 159.611 234.112 158.491 234.112C157.912 234.112 157.408 234.014 156.979 233.818C156.559 233.622 156.237 233.351 156.013 233.006C155.789 232.66 155.677 232.268 155.677 231.83C155.677 231.13 155.938 230.579 156.461 230.178C156.993 229.776 157.809 229.576 158.911 229.576H160.647C160.647 229.1 160.502 228.736 160.213 228.484C159.923 228.222 159.489 228.092 158.911 228.092C158.509 228.092 158.113 228.157 157.721 228.288C157.338 228.409 157.011 228.577 156.741 228.792L155.957 227.266C156.367 226.976 156.857 226.752 157.427 226.594C158.005 226.435 158.598 226.356 159.205 226.356ZM159.037 232.642C159.41 232.642 159.741 232.558 160.031 232.39C160.32 232.212 160.525 231.956 160.647 231.62V230.85H159.149C158.253 230.85 157.805 231.144 157.805 231.732C157.805 232.012 157.912 232.236 158.127 232.404C158.351 232.562 158.654 232.642 159.037 232.642ZM171.504 226.468V234H169.32V231.2C168.685 231.517 167.985 231.676 167.22 231.676C166.202 231.676 165.432 231.447 164.91 230.99C164.396 230.523 164.14 229.804 164.14 228.834V226.468H166.324V228.694C166.324 229.151 166.44 229.482 166.674 229.688C166.916 229.893 167.262 229.996 167.71 229.996C168.279 229.996 168.816 229.874 169.32 229.632V226.468H171.504ZM176.527 226.356C177.693 226.356 178.589 226.636 179.215 227.196C179.84 227.746 180.153 228.582 180.153 229.702V234H178.109V233.062C177.698 233.762 176.933 234.112 175.813 234.112C175.234 234.112 174.73 234.014 174.301 233.818C173.881 233.622 173.559 233.351 173.335 233.006C173.111 232.66 172.999 232.268 172.999 231.83C172.999 231.13 173.26 230.579 173.783 230.178C174.315 229.776 175.131 229.576 176.233 229.576H177.969C177.969 229.1 177.824 228.736 177.535 228.484C177.245 228.222 176.811 228.092 176.233 228.092C175.831 228.092 175.435 228.157 175.043 228.288C174.66 228.409 174.333 228.577 174.063 228.792L173.279 227.266C173.689 226.976 174.179 226.752 174.749 226.594C175.327 226.435 175.92 226.356 176.527 226.356ZM176.359 232.642C176.732 232.642 177.063 232.558 177.353 232.39C177.642 232.212 177.847 231.956 177.969 231.62V230.85H176.471C175.575 230.85 175.127 231.144 175.127 231.732C175.127 232.012 175.234 232.236 175.449 232.404C175.673 232.562 175.976 232.642 176.359 232.642ZM128.06 251.112C127.267 251.112 126.553 250.948 125.918 250.622C125.293 250.286 124.803 249.824 124.448 249.236C124.094 248.648 123.916 247.98 123.916 247.234C123.916 246.487 124.094 245.82 124.448 245.232C124.803 244.644 125.293 244.186 125.918 243.86C126.553 243.524 127.267 243.356 128.06 243.356C128.854 243.356 129.563 243.524 130.188 243.86C130.814 244.186 131.304 244.644 131.658 245.232C132.013 245.82 132.19 246.487 132.19 247.234C132.19 247.98 132.013 248.648 131.658 249.236C131.304 249.824 130.814 250.286 130.188 250.622C129.563 250.948 128.854 251.112 128.06 251.112ZM128.06 249.32C128.62 249.32 129.078 249.133 129.432 248.76C129.796 248.377 129.978 247.868 129.978 247.234C129.978 246.599 129.796 246.095 129.432 245.722C129.078 245.339 128.62 245.148 128.06 245.148C127.5 245.148 127.038 245.339 126.674 245.722C126.31 246.095 126.128 246.599 126.128 247.234C126.128 247.868 126.31 248.377 126.674 248.76C127.038 249.133 127.5 249.32 128.06 249.32ZM139.747 245.26H137.199V251H135.029V245.26H132.481V243.468H139.747V245.26ZM147.687 243.468V251H145.503V248.2C144.869 248.517 144.169 248.676 143.403 248.676C142.386 248.676 141.616 248.447 141.093 247.99C140.58 247.523 140.323 246.804 140.323 245.834V243.468H142.507V245.694C142.507 246.151 142.624 246.482 142.857 246.688C143.1 246.893 143.445 246.996 143.893 246.996C144.463 246.996 144.999 246.874 145.503 246.632V243.468H147.687ZM157.106 247.262C157.106 247.29 157.092 247.486 157.064 247.85H151.366C151.469 248.316 151.712 248.685 152.094 248.956C152.477 249.226 152.953 249.362 153.522 249.362C153.914 249.362 154.26 249.306 154.558 249.194C154.866 249.072 155.151 248.886 155.412 248.634L156.574 249.894C155.865 250.706 154.829 251.112 153.466 251.112C152.617 251.112 151.866 250.948 151.212 250.622C150.559 250.286 150.055 249.824 149.7 249.236C149.346 248.648 149.168 247.98 149.168 247.234C149.168 246.496 149.341 245.834 149.686 245.246C150.041 244.648 150.522 244.186 151.128 243.86C151.744 243.524 152.43 243.356 153.186 243.356C153.924 243.356 154.591 243.514 155.188 243.832C155.786 244.149 156.252 244.606 156.588 245.204C156.934 245.792 157.106 246.478 157.106 247.262ZM153.2 245.008C152.706 245.008 152.29 245.148 151.954 245.428C151.618 245.708 151.413 246.09 151.338 246.576H155.048C154.974 246.1 154.768 245.722 154.432 245.442C154.096 245.152 153.686 245.008 153.2 245.008ZM164.849 245.26H162.301V251H160.131V245.26H157.583V243.468H164.849V245.26ZM169.226 251.112C168.433 251.112 167.719 250.948 167.084 250.622C166.459 250.286 165.969 249.824 165.614 249.236C165.26 248.648 165.082 247.98 165.082 247.234C165.082 246.487 165.26 245.82 165.614 245.232C165.969 244.644 166.459 244.186 167.084 243.86C167.719 243.524 168.433 243.356 169.226 243.356C170.02 243.356 170.729 243.524 171.354 243.86C171.98 244.186 172.47 244.644 172.824 245.232C173.179 245.82 173.356 246.487 173.356 247.234C173.356 247.98 173.179 248.648 172.824 249.236C172.47 249.824 171.98 250.286 171.354 250.622C170.729 250.948 170.02 251.112 169.226 251.112ZM169.226 249.32C169.786 249.32 170.244 249.133 170.598 248.76C170.962 248.377 171.144 247.868 171.144 247.234C171.144 246.599 170.962 246.095 170.598 245.722C170.244 245.339 169.786 245.148 169.226 245.148C168.666 245.148 168.204 245.339 167.84 245.722C167.476 246.095 167.294 246.599 167.294 247.234C167.294 247.868 167.476 248.377 167.84 248.76C168.204 249.133 168.666 249.32 169.226 249.32ZM180.613 247.066C181.499 247.364 181.943 247.962 181.943 248.858C181.943 249.539 181.686 250.066 181.173 250.44C180.659 250.813 179.894 251 178.877 251H174.859V243.468H178.709C179.651 243.468 180.389 243.64 180.921 243.986C181.453 244.322 181.719 244.798 181.719 245.414C181.719 245.787 181.621 246.118 181.425 246.408C181.238 246.688 180.967 246.907 180.613 247.066ZM176.861 246.562H178.513C179.278 246.562 179.661 246.291 179.661 245.75C179.661 245.218 179.278 244.952 178.513 244.952H176.861V246.562ZM178.695 249.516C179.497 249.516 179.899 249.24 179.899 248.69C179.899 248.4 179.805 248.19 179.619 248.06C179.432 247.92 179.138 247.85 178.737 247.85H176.861V249.516H178.695Z" fill="#555BE4"/>
<path d="M290.352 234.168C289.335 234.168 288.415 233.948 287.594 233.51C286.782 233.071 286.143 232.469 285.676 231.704C285.219 230.929 284.99 230.061 284.99 229.1C284.99 228.138 285.219 227.275 285.676 226.51C286.143 225.735 286.782 225.128 287.594 224.69C288.415 224.251 289.335 224.032 290.352 224.032C291.369 224.032 292.284 224.251 293.096 224.69C293.908 225.128 294.547 225.735 295.014 226.51C295.481 227.275 295.714 228.138 295.714 229.1C295.714 230.061 295.481 230.929 295.014 231.704C294.547 232.469 293.908 233.071 293.096 233.51C292.284 233.948 291.369 234.168 290.352 234.168ZM290.352 232.236C290.931 232.236 291.453 232.105 291.92 231.844C292.387 231.573 292.751 231.2 293.012 230.724C293.283 230.248 293.418 229.706 293.418 229.1C293.418 228.493 293.283 227.952 293.012 227.476C292.751 227 292.387 226.631 291.92 226.37C291.453 226.099 290.931 225.964 290.352 225.964C289.773 225.964 289.251 226.099 288.784 226.37C288.317 226.631 287.949 227 287.678 227.476C287.417 227.952 287.286 228.493 287.286 229.1C287.286 229.706 287.417 230.248 287.678 230.724C287.949 231.2 288.317 231.573 288.784 231.844C289.251 232.105 289.773 232.236 290.352 232.236ZM304.783 226.468V234H302.599V228.26H299.463V234H297.293V226.468H304.783ZM314.101 226.468V234H311.917V228.26H309.537L309.467 229.59C309.43 230.579 309.336 231.4 309.187 232.054C309.038 232.707 308.795 233.22 308.459 233.594C308.123 233.967 307.656 234.154 307.059 234.154C306.742 234.154 306.364 234.098 305.925 233.986L306.037 232.194C306.186 232.212 306.294 232.222 306.359 232.222C306.686 232.222 306.928 232.105 307.087 231.872C307.255 231.629 307.367 231.326 307.423 230.962C307.479 230.588 307.521 230.098 307.549 229.492L307.661 226.468H314.101ZM319.127 226.356C320.294 226.356 321.19 226.636 321.815 227.196C322.441 227.746 322.753 228.582 322.753 229.702V234H320.709V233.062C320.299 233.762 319.533 234.112 318.413 234.112C317.835 234.112 317.331 234.014 316.901 233.818C316.481 233.622 316.159 233.351 315.935 233.006C315.711 232.66 315.599 232.268 315.599 231.83C315.599 231.13 315.861 230.579 316.383 230.178C316.915 229.776 317.732 229.576 318.833 229.576H320.569C320.569 229.1 320.425 228.736 320.135 228.484C319.846 228.222 319.412 228.092 318.833 228.092C318.432 228.092 318.035 228.157 317.643 228.288C317.261 228.409 316.934 228.577 316.663 228.792L315.879 227.266C316.29 226.976 316.78 226.752 317.349 226.594C317.928 226.435 318.521 226.356 319.127 226.356ZM318.959 232.642C319.333 232.642 319.664 232.558 319.953 232.39C320.243 232.212 320.448 231.956 320.569 231.62V230.85H319.071C318.175 230.85 317.727 231.144 317.727 231.732C317.727 232.012 317.835 232.236 318.049 232.404C318.273 232.562 318.577 232.642 318.959 232.642ZM330.979 228.26H328.431V234H326.261V228.26H323.713V226.468H330.979V228.26ZM335.069 226.356C336.235 226.356 337.131 226.636 337.757 227.196C338.382 227.746 338.695 228.582 338.695 229.702V234H336.651V233.062C336.24 233.762 335.475 234.112 334.355 234.112C333.776 234.112 333.272 234.014 332.843 233.818C332.423 233.622 332.101 233.351 331.877 233.006C331.653 232.66 331.541 232.268 331.541 231.83C331.541 231.13 331.802 230.579 332.325 230.178C332.857 229.776 333.673 229.576 334.775 229.576H336.511C336.511 229.1 336.366 228.736 336.077 228.484C335.787 228.222 335.353 228.092 334.775 228.092C334.373 228.092 333.977 228.157 333.585 228.288C333.202 228.409 332.875 228.577 332.605 228.792L331.821 227.266C332.231 226.976 332.721 226.752 333.291 226.594C333.869 226.435 334.462 226.356 335.069 226.356ZM334.901 232.642C335.274 232.642 335.605 232.558 335.895 232.39C336.184 232.212 336.389 231.956 336.511 231.62V230.85H335.013C334.117 230.85 333.669 231.144 333.669 231.732C333.669 232.012 333.776 232.236 333.991 232.404C334.215 232.562 334.518 232.642 334.901 232.642ZM282.35 243.468H284.52V246.408H287.796V243.468H289.98V251H287.796V248.186H284.52V251H282.35V243.468ZM294.997 243.356C296.163 243.356 297.059 243.636 297.685 244.196C298.31 244.746 298.623 245.582 298.623 246.702V251H296.579V250.062C296.168 250.762 295.403 251.112 294.283 251.112C293.704 251.112 293.2 251.014 292.771 250.818C292.351 250.622 292.029 250.351 291.805 250.006C291.581 249.66 291.469 249.268 291.469 248.83C291.469 248.13 291.73 247.579 292.253 247.178C292.785 246.776 293.601 246.576 294.703 246.576H296.439C296.439 246.1 296.294 245.736 296.005 245.484C295.715 245.222 295.281 245.092 294.703 245.092C294.301 245.092 293.905 245.157 293.513 245.288C293.13 245.409 292.803 245.577 292.533 245.792L291.749 244.266C292.159 243.976 292.649 243.752 293.219 243.594C293.797 243.435 294.39 243.356 294.997 243.356ZM294.829 249.642C295.202 249.642 295.533 249.558 295.823 249.39C296.112 249.212 296.317 248.956 296.439 248.62V247.85H294.941C294.045 247.85 293.597 248.144 293.597 248.732C293.597 249.012 293.704 249.236 293.919 249.404C294.143 249.562 294.446 249.642 294.829 249.642ZM307.744 243.468V251H305.56V245.26H303.18L303.11 246.59C303.072 247.579 302.979 248.4 302.83 249.054C302.68 249.707 302.438 250.22 302.102 250.594C301.766 250.967 301.299 251.154 300.702 251.154C300.384 251.154 300.006 251.098 299.568 250.986L299.68 249.194C299.829 249.212 299.936 249.222 300.002 249.222C300.328 249.222 300.571 249.105 300.73 248.872C300.898 248.629 301.01 248.326 301.066 247.962C301.122 247.588 301.164 247.098 301.192 246.492L301.304 243.468H307.744ZM313.372 251.112C312.579 251.112 311.865 250.948 311.23 250.622C310.605 250.286 310.115 249.824 309.76 249.236C309.405 248.648 309.228 247.98 309.228 247.234C309.228 246.487 309.405 245.82 309.76 245.232C310.115 244.644 310.605 244.186 311.23 243.86C311.865 243.524 312.579 243.356 313.372 243.356C314.165 243.356 314.875 243.524 315.5 243.86C316.125 244.186 316.615 244.644 316.97 245.232C317.325 245.82 317.502 246.487 317.502 247.234C317.502 247.98 317.325 248.648 316.97 249.236C316.615 249.824 316.125 250.286 315.5 250.622C314.875 250.948 314.165 251.112 313.372 251.112ZM313.372 249.32C313.932 249.32 314.389 249.133 314.744 248.76C315.108 248.377 315.29 247.868 315.29 247.234C315.29 246.599 315.108 246.095 314.744 245.722C314.389 245.339 313.932 245.148 313.372 245.148C312.812 245.148 312.35 245.339 311.986 245.722C311.622 246.095 311.44 246.599 311.44 247.234C311.44 247.868 311.622 248.377 311.986 248.76C312.35 249.133 312.812 249.32 313.372 249.32ZM325.038 245.26H321.174V251H319.004V243.468H325.038V245.26ZM329.409 251.112C328.616 251.112 327.902 250.948 327.267 250.622C326.642 250.286 326.152 249.824 325.797 249.236C325.442 248.648 325.265 247.98 325.265 247.234C325.265 246.487 325.442 245.82 325.797 245.232C326.152 244.644 326.642 244.186 327.267 243.86C327.902 243.524 328.616 243.356 329.409 243.356C330.202 243.356 330.912 243.524 331.537 243.86C332.162 244.186 332.652 244.644 333.007 245.232C333.362 245.82 333.539 246.487 333.539 247.234C333.539 247.98 333.362 248.648 333.007 249.236C332.652 249.824 332.162 250.286 331.537 250.622C330.912 250.948 330.202 251.112 329.409 251.112ZM329.409 249.32C329.969 249.32 330.426 249.133 330.781 248.76C331.145 248.377 331.327 247.868 331.327 247.234C331.327 246.599 331.145 246.095 330.781 245.722C330.426 245.339 329.969 245.148 329.409 245.148C328.849 245.148 328.387 245.339 328.023 245.722C327.659 246.095 327.477 246.599 327.477 247.234C327.477 247.868 327.659 248.377 328.023 248.76C328.387 249.133 328.849 249.32 329.409 249.32ZM340.795 247.066C341.682 247.364 342.125 247.962 342.125 248.858C342.125 249.539 341.869 250.066 341.355 250.44C340.842 250.813 340.077 251 339.059 251H335.041V243.468H338.891C339.834 243.468 340.571 243.64 341.103 243.986C341.635 244.322 341.901 244.798 341.901 245.414C341.901 245.787 341.803 246.118 341.607 246.408C341.421 246.688 341.15 246.907 340.795 247.066ZM337.043 246.562H338.695C339.461 246.562 339.843 246.291 339.843 245.75C339.843 245.218 339.461 244.952 338.695 244.952H337.043V246.562ZM338.877 249.516C339.68 249.516 340.081 249.24 340.081 248.69C340.081 248.4 339.988 248.19 339.801 248.06C339.615 247.92 339.321 247.85 338.919 247.85H337.043V249.516H338.877Z" fill="#555BE4"/>
<path d="M462.043 240.9H457.493L456.625 243H454.301L458.669 233.2H460.909L465.291 243H462.911L462.043 240.9ZM461.329 239.178L459.775 235.426L458.221 239.178H461.329ZM469.741 240.144H468.607V243H466.423V235.468H468.607V238.394H469.783L471.827 235.468H474.151L471.519 239.08L474.333 243H471.757L469.741 240.144ZM481.665 237.26H479.117V243H476.947V237.26H474.399V235.468H481.665V237.26ZM486.791 237.876C487.771 237.885 488.513 238.104 489.017 238.534C489.521 238.963 489.773 239.579 489.773 240.382C489.773 241.222 489.489 241.87 488.919 242.328C488.35 242.785 487.543 243.014 486.497 243.014L482.829 243V235.468H484.999V237.876H486.791ZM490.585 235.468H492.755V243H490.585V235.468ZM486.301 241.46C486.721 241.469 487.043 241.38 487.267 241.194C487.491 241.007 487.603 240.727 487.603 240.354C487.603 239.99 487.491 239.724 487.267 239.556C487.053 239.388 486.731 239.299 486.301 239.29L484.999 239.276V241.46H486.301Z" fill="#555BE4"/>
<path d="M276.277 110.2V120H274.009V115.982H269.557V120H267.289V110.2H269.557V114.064H274.009V110.2H276.277ZM281.491 112.356C282.657 112.356 283.553 112.636 284.179 113.196C284.804 113.746 285.117 114.582 285.117 115.702V120H283.073V119.062C282.662 119.762 281.897 120.112 280.777 120.112C280.198 120.112 279.694 120.014 279.265 119.818C278.845 119.622 278.523 119.351 278.299 119.006C278.075 118.66 277.963 118.268 277.963 117.83C277.963 117.13 278.224 116.579 278.747 116.178C279.279 115.776 280.095 115.576 281.197 115.576H282.933C282.933 115.1 282.788 114.736 282.499 114.484C282.209 114.222 281.775 114.092 281.197 114.092C280.795 114.092 280.399 114.157 280.007 114.288C279.624 114.409 279.297 114.577 279.027 114.792L278.243 113.266C278.653 112.976 279.143 112.752 279.713 112.594C280.291 112.435 280.884 112.356 281.491 112.356ZM281.323 118.642C281.696 118.642 282.027 118.558 282.317 118.39C282.606 118.212 282.811 117.956 282.933 117.62V116.85H281.435C280.539 116.85 280.091 117.144 280.091 117.732C280.091 118.012 280.198 118.236 280.413 118.404C280.637 118.562 280.94 118.642 281.323 118.642ZM293.79 112.468V120H291.606V117.2C290.971 117.517 290.271 117.676 289.506 117.676C288.489 117.676 287.719 117.447 287.196 116.99C286.683 116.523 286.426 115.804 286.426 114.834V112.468H288.61V114.694C288.61 115.151 288.727 115.482 288.96 115.688C289.203 115.893 289.548 115.996 289.996 115.996C290.565 115.996 291.102 115.874 291.606 115.632V112.468H293.79ZM295.887 112.468H298.057V116.948L301.725 112.468H303.727V120H301.557V115.52L297.903 120H295.887V112.468ZM309.41 120.112C308.608 120.112 307.884 119.948 307.24 119.622C306.606 119.286 306.106 118.824 305.742 118.236C305.388 117.648 305.21 116.98 305.21 116.234C305.21 115.487 305.388 114.82 305.742 114.232C306.106 113.644 306.606 113.186 307.24 112.86C307.884 112.524 308.608 112.356 309.41 112.356C310.204 112.356 310.894 112.524 311.482 112.86C312.08 113.186 312.514 113.658 312.784 114.274L311.09 115.184C310.698 114.493 310.134 114.148 309.396 114.148C308.827 114.148 308.356 114.334 307.982 114.708C307.609 115.081 307.422 115.59 307.422 116.234C307.422 116.878 307.609 117.386 307.982 117.76C308.356 118.133 308.827 118.32 309.396 118.32C310.143 118.32 310.708 117.974 311.09 117.284L312.784 118.208C312.514 118.805 312.08 119.272 311.482 119.608C310.894 119.944 310.204 120.112 309.41 120.112ZM321.226 112.468V120H319.042V114.26H316.662L316.592 115.59C316.555 116.579 316.461 117.4 316.312 118.054C316.163 118.707 315.92 119.22 315.584 119.594C315.248 119.967 314.781 120.154 314.184 120.154C313.867 120.154 313.489 120.098 313.05 119.986L313.162 118.194C313.311 118.212 313.419 118.222 313.484 118.222C313.811 118.222 314.053 118.105 314.212 117.872C314.38 117.629 314.492 117.326 314.548 116.962C314.604 116.588 314.646 116.098 314.674 115.492L314.786 112.468H321.226ZM330.648 116.262C330.648 116.29 330.634 116.486 330.606 116.85H324.908C325.011 117.316 325.254 117.685 325.636 117.956C326.019 118.226 326.495 118.362 327.064 118.362C327.456 118.362 327.802 118.306 328.1 118.194C328.408 118.072 328.693 117.886 328.954 117.634L330.116 118.894C329.407 119.706 328.371 120.112 327.008 120.112C326.159 120.112 325.408 119.948 324.754 119.622C324.101 119.286 323.597 118.824 323.242 118.236C322.888 117.648 322.71 116.98 322.71 116.234C322.71 115.496 322.883 114.834 323.228 114.246C323.583 113.648 324.064 113.186 324.67 112.86C325.286 112.524 325.972 112.356 326.728 112.356C327.466 112.356 328.133 112.514 328.73 112.832C329.328 113.149 329.794 113.606 330.13 114.204C330.476 114.792 330.648 115.478 330.648 116.262ZM326.742 114.008C326.248 114.008 325.832 114.148 325.496 114.428C325.16 114.708 324.955 115.09 324.88 115.576H328.59C328.516 115.1 328.31 114.722 327.974 114.442C327.638 114.152 327.228 114.008 326.742 114.008ZM332.322 112.468H334.492V115.408H337.768V112.468H339.952V120H337.768V117.186H334.492V120H332.322V112.468ZM342.043 112.468H344.213V116.948L347.881 112.468H349.883V120H347.713V115.52L344.059 120H342.043V112.468ZM359.305 116.262C359.305 116.29 359.291 116.486 359.263 116.85H353.565C353.667 117.316 353.91 117.685 354.293 117.956C354.675 118.226 355.151 118.362 355.721 118.362C356.113 118.362 356.458 118.306 356.757 118.194C357.065 118.072 357.349 117.886 357.611 117.634L358.773 118.894C358.063 119.706 357.027 120.112 355.665 120.112C354.815 120.112 354.064 119.948 353.411 119.622C352.757 119.286 352.253 118.824 351.899 118.236C351.544 117.648 351.367 116.98 351.367 116.234C351.367 115.496 351.539 114.834 351.885 114.246C352.239 113.648 352.72 113.186 353.327 112.86C353.943 112.524 354.629 112.356 355.385 112.356C356.122 112.356 356.789 112.514 357.387 112.832C357.984 113.149 358.451 113.606 358.787 114.204C359.132 114.792 359.305 115.478 359.305 116.262ZM355.399 114.008C354.904 114.008 354.489 114.148 354.153 114.428C353.817 114.708 353.611 115.09 353.537 115.576H357.247C357.172 115.1 356.967 114.722 356.631 114.442C356.295 114.152 355.884 114.008 355.399 114.008Z" fill="#555BE4"/>
<path d="M457.093 121.168C456.095 121.168 455.189 120.953 454.377 120.524C453.575 120.085 452.94 119.483 452.473 118.718C452.016 117.943 451.787 117.07 451.787 116.1C451.787 115.129 452.016 114.261 452.473 113.496C452.94 112.721 453.575 112.119 454.377 111.69C455.189 111.251 456.099 111.032 457.107 111.032C457.957 111.032 458.722 111.181 459.403 111.48C460.094 111.778 460.673 112.208 461.139 112.768L459.683 114.112C459.021 113.346 458.199 112.964 457.219 112.964C456.613 112.964 456.071 113.099 455.595 113.37C455.119 113.631 454.746 114 454.475 114.476C454.214 114.952 454.083 115.493 454.083 116.1C454.083 116.706 454.214 117.248 454.475 117.724C454.746 118.2 455.119 118.573 455.595 118.844C456.071 119.105 456.613 119.236 457.219 119.236C458.199 119.236 459.021 118.848 459.683 118.074L461.139 119.418C460.673 119.987 460.094 120.421 459.403 120.72C458.713 121.018 457.943 121.168 457.093 121.168ZM469.034 113.468V121H466.85V118.2C466.215 118.517 465.515 118.676 464.75 118.676C463.733 118.676 462.963 118.447 462.44 117.99C461.927 117.523 461.67 116.804 461.67 115.834V113.468H463.854V115.694C463.854 116.151 463.971 116.482 464.204 116.688C464.447 116.893 464.792 116.996 465.24 116.996C465.809 116.996 466.346 116.874 466.85 116.632V113.468H469.034ZM478.453 117.262C478.453 117.29 478.439 117.486 478.411 117.85H472.713C472.816 118.316 473.058 118.685 473.441 118.956C473.824 119.226 474.3 119.362 474.869 119.362C475.261 119.362 475.606 119.306 475.905 119.194C476.213 119.072 476.498 118.886 476.759 118.634L477.921 119.894C477.212 120.706 476.176 121.112 474.813 121.112C473.964 121.112 473.212 120.948 472.559 120.622C471.906 120.286 471.402 119.824 471.047 119.236C470.692 118.648 470.515 117.98 470.515 117.234C470.515 116.496 470.688 115.834 471.033 115.246C471.388 114.648 471.868 114.186 472.475 113.86C473.091 113.524 473.777 113.356 474.533 113.356C475.27 113.356 475.938 113.514 476.535 113.832C477.132 114.149 477.599 114.606 477.935 115.204C478.28 115.792 478.453 116.478 478.453 117.262ZM474.547 115.008C474.052 115.008 473.637 115.148 473.301 115.428C472.965 115.708 472.76 116.09 472.685 116.576H476.395C476.32 116.1 476.115 115.722 475.779 115.442C475.443 115.152 475.032 115.008 474.547 115.008ZM486.195 115.26H483.647V121H481.477V115.26H478.929V113.468H486.195V115.26ZM490.286 113.356C491.452 113.356 492.348 113.636 492.974 114.196C493.599 114.746 493.912 115.582 493.912 116.702V121H491.868V120.062C491.457 120.762 490.692 121.112 489.572 121.112C488.993 121.112 488.489 121.014 488.06 120.818C487.64 120.622 487.318 120.351 487.094 120.006C486.87 119.66 486.758 119.268 486.758 118.83C486.758 118.13 487.019 117.579 487.542 117.178C488.074 116.776 488.89 116.576 489.992 116.576H491.728C491.728 116.1 491.583 115.736 491.294 115.484C491.004 115.222 490.57 115.092 489.992 115.092C489.59 115.092 489.194 115.157 488.802 115.288C488.419 115.409 488.092 115.577 487.822 115.792L487.038 114.266C487.448 113.976 487.938 113.752 488.508 113.594C489.086 113.435 489.679 113.356 490.286 113.356ZM490.118 119.642C490.491 119.642 490.822 119.558 491.112 119.39C491.401 119.212 491.606 118.956 491.728 118.62V117.85H490.23C489.334 117.85 488.886 118.144 488.886 118.732C488.886 119.012 488.993 119.236 489.208 119.404C489.432 119.562 489.735 119.642 490.118 119.642Z" fill="#555BE4"/>
</svg>
