<svg width="518" height="470" viewBox="0 0 518 470" fill="none" xmlns="http://www.w3.org/2000/svg">
<path d="M489.331 198.818C482.41 261.332 453.923 328.517 381.82 374.114C379.405 375.725 376.83 377.175 374.416 378.625C371.036 380.719 367.656 382.653 364.277 384.586C347.86 393.609 331.605 401.181 315.188 406.981C311.808 408.109 308.59 409.237 305.21 410.365C301.991 411.493 298.772 412.459 295.392 413.426C281.551 417.454 267.87 420.354 254.351 422.288C175.166 433.566 103.546 410.526 56.8716 370.408C48.3415 362.996 40.4552 354.941 33.6955 346.562C27.5796 338.99 22.4293 331.095 18.0838 323.039C-22.4743 248.12 8.90995 158.217 75.2193 135.499C147.966 110.687 181.926 131.794 266.744 61.7077C351.401 -8.37821 436.863 -16.5952 471.305 61.8688C477.099 74.9193 482.41 92.481 486.112 112.782C490.779 138.238 492.711 167.884 489.331 198.818Z" fill="#EEF2FA"/>
<path d="M489.331 198.818C482.41 261.332 453.923 328.517 381.819 374.114C379.405 375.725 376.83 377.175 374.416 378.625C371.036 380.719 367.656 382.653 364.276 384.586C347.86 393.609 331.605 401.181 315.188 406.981C311.808 408.109 308.589 409.237 305.21 410.365C301.991 411.493 298.772 412.459 295.392 413.426C281.551 417.454 267.87 420.354 254.351 422.288C175.166 433.566 103.546 410.526 56.8715 370.408C48.3414 362.996 40.4551 354.941 33.6954 346.563C27.5795 338.99 22.4293 331.095 18.0837 323.039H73.2879C77.1506 323.039 80.2085 319.978 80.2085 316.111V239.742C80.2085 235.875 83.2665 232.814 87.1291 232.814H163.417C167.28 232.814 170.338 235.875 170.338 239.742V277.282C170.338 281.149 173.396 284.21 177.258 284.21H275.757C279.619 284.21 282.677 281.149 282.677 277.282V197.207C282.677 193.34 285.735 190.279 289.598 190.279H380.693C384.556 190.279 387.613 187.218 387.613 183.351V119.71C387.613 115.843 390.671 112.782 394.534 112.782H486.273C490.779 138.238 492.711 167.884 489.331 198.818Z" fill="url(#paint0_linear)"/>
<path d="M482.732 198.818C486.273 198.818 489.009 201.879 488.526 205.424C480.479 266.004 451.348 330.129 381.819 374.114C379.405 375.725 376.83 377.175 374.416 378.625C371.036 380.719 367.656 382.653 364.277 384.586C347.86 393.609 331.605 401.181 315.188 406.981C311.808 408.109 308.59 409.237 305.21 410.365C301.991 411.493 298.772 412.459 295.392 413.426C281.551 417.454 267.87 420.354 254.351 422.288C176.454 433.405 105.638 411.17 58.9639 372.18C57.6763 371.052 56.8716 369.441 56.8716 367.669V343.662C56.8716 340.44 59.4467 337.862 62.6656 337.862H148.449C151.668 337.862 154.243 340.44 154.243 343.662V371.213C154.243 374.436 156.818 377.014 160.037 377.014H180.155C183.374 377.014 185.949 374.436 185.949 371.213V269.387C185.949 266.165 188.525 263.587 191.743 263.587H284.931C288.15 263.587 290.725 266.165 290.725 269.387V325.617C290.725 328.84 293.3 331.418 296.519 331.418H373.933C377.152 331.418 379.727 328.84 379.727 325.617V280.988C379.727 277.766 382.302 275.188 385.521 275.188H439.599C442.818 275.188 445.393 272.61 445.393 269.387V204.618C445.393 201.396 447.968 198.818 451.187 198.818H482.732Z" fill="url(#paint1_linear)"/>
<path d="M374.416 378.787C371.036 380.881 367.656 382.815 364.277 384.748C347.86 393.771 331.605 401.343 315.188 407.143C314.705 403.276 314.062 399.732 313.257 397.154C312.452 394.576 311.487 392.965 310.199 392.965C307.624 392.965 306.014 401.021 305.21 410.527C301.991 411.655 298.772 412.621 295.392 413.588C281.551 417.616 267.87 420.516 254.351 422.449C254.995 394.576 257.087 348.819 263.686 333.029C264.652 330.774 265.617 329.163 266.744 328.357C272.377 323.685 292.173 322.396 312.613 322.396C317.602 322.396 322.592 322.557 327.42 322.557C347.377 323.04 364.437 324.49 365.081 324.49C365.242 324.329 371.197 336.735 374.416 378.787Z" fill="url(#paint2_linear)"/>
<path opacity="0.15" d="M313.257 397.153C312.452 394.575 311.487 392.964 310.199 392.964C307.624 392.964 306.014 401.02 305.21 410.526C301.991 411.654 298.772 412.62 295.392 413.587C301.669 392.642 301.83 370.73 306.014 371.858C313.418 373.791 313.257 397.153 313.257 397.153Z" fill="#35396F"/>
<path opacity="0.15" d="M364.116 384.586C365.081 363.319 359.287 344.629 342.066 345.113C309.072 346.079 284.287 340.118 282.838 339.796L286.379 338.346L304.083 331.418L327.581 322.234C347.538 322.717 364.598 324.167 365.242 324.167C365.242 324.167 371.358 336.573 374.416 378.464C370.875 380.719 367.495 382.814 364.116 384.586Z" fill="#35396F"/>
<path d="M235.521 235.07C235.521 235.07 232.785 252.954 231.819 264.554C230.692 276.155 233.911 284.694 245.66 285.822C257.248 286.949 264.813 275.188 267.871 265.682L262.398 235.875L235.521 235.07Z" fill="url(#paint3_linear)"/>
<path d="M316.637 340.924C298.289 341.729 285.414 340.762 276.723 338.668C261.594 335.123 258.536 328.195 260.467 320.784C263.686 309.184 268.997 284.694 262.559 255.048L242.763 213.641C242.763 213.641 248.879 190.44 267.871 181.74C271.25 180.129 274.308 178.84 277.044 177.551C290.725 171.267 294.427 169.012 294.427 169.012H314.545C314.545 169.012 317.603 169.656 322.27 170.784C332.57 173.523 350.435 179.162 358.644 188.507C358.644 188.507 358.161 203.007 358.161 222.019C358 252.954 358.644 295.811 363.311 307.089C370.714 325.134 366.369 338.829 316.637 340.924Z" fill="#FCA70C"/>
<path opacity="0.25" d="M316.637 340.923C298.289 341.729 285.413 340.762 276.722 338.668C297.323 340.762 321.143 325.778 314.544 303.705C305.049 271.804 266.905 253.92 266.905 253.92C266.905 253.92 268.031 221.052 310.36 234.747C352.688 248.603 339.008 208.002 339.008 208.002L358.322 221.697C358.161 252.631 358.804 295.488 363.472 306.767C370.714 325.134 366.369 338.829 316.637 340.923Z" fill="#D36A41"/>
<path d="M322.27 170.945C313.74 191.085 301.347 202.041 287.023 199.946C275.113 198.174 276.24 183.351 277.045 177.712C290.725 171.428 294.427 169.173 294.427 169.173H314.545C314.545 169.173 317.603 169.656 322.27 170.945Z" fill="url(#paint4_linear)"/>
<path d="M297.645 259.237H249.523C247.269 259.237 245.338 257.626 244.694 255.371L236.325 219.603C235.681 216.541 237.935 213.641 241.154 213.641H288.471C290.725 213.641 292.656 215.091 293.139 217.347L302.313 253.115C303.117 256.337 300.864 259.237 297.645 259.237Z" fill="#ACB8C1"/>
<path d="M294.426 259.237H249.523C247.269 259.237 245.338 257.626 244.694 255.371L236.325 219.603C235.681 216.541 237.935 213.641 241.154 213.641H285.252C287.506 213.641 289.437 215.091 289.92 217.347L299.094 253.115C299.898 256.337 297.645 259.237 294.426 259.237Z" fill="#F2F6F9"/>
<path d="M268.296 243.094C270.524 242.477 271.637 239.474 270.783 236.386C269.93 233.299 267.432 231.296 265.204 231.914C262.977 232.531 261.863 235.534 262.717 238.622C263.571 241.709 266.069 243.712 268.296 243.094Z" fill="#A4D0FA"/>
<path d="M314.544 238.131L309.233 234.908C309.233 234.908 298.611 217.991 296.519 218.958C294.426 220.085 297.645 230.558 296.519 231.686C295.392 232.814 277.366 230.558 274.308 229.591C271.089 228.464 264.812 227.497 272.216 236.036C279.619 244.575 282.838 251.987 291.368 251.987C299.898 251.987 304.083 250.859 304.083 250.859L310.521 254.081L314.544 238.131Z" fill="url(#paint5_linear)"/>
<path d="M342.066 220.086C342.066 220.086 353.654 249.731 347.377 249.731C340.939 249.731 314.544 235.875 314.544 235.875L306.014 253.92C306.014 253.92 350.596 287.916 364.276 283.566C378.118 279.377 381.176 265.521 374.899 230.558C368.461 195.596 360.092 184.962 350.596 185.929C340.939 187.218 333.536 196.724 342.066 220.086Z" fill="url(#paint6_linear)"/>
<path d="M327.742 242.481C327.742 242.481 320.982 269.871 317.763 270.999C314.544 272.127 306.175 254.082 306.175 254.082L314.705 236.036C314.544 235.875 320.66 236.198 327.742 242.481Z" fill="#DAE8F2"/>
<path d="M242.441 248.603C243.568 248.603 248.879 243.286 246.626 235.875C244.533 228.464 244.533 227.336 241.315 226.369C238.096 225.241 236.003 223.147 234.877 225.241C233.911 227.497 236.003 245.542 242.441 248.603Z" fill="url(#paint7_linear)"/>
<path d="M309.233 160.633C309.233 160.633 313.418 143.555 314.384 127.605C315.51 111.654 312.291 103.276 305.854 106.337C305.854 106.337 310.038 91.5143 291.047 89.4198C271.894 87.3253 239.061 91.5143 252.903 113.748C252.903 113.748 246.465 115.843 249.684 126.477C252.903 137.11 263.525 143.394 263.525 143.394L309.233 160.633Z" fill="#3B2E7A"/>
<path d="M303.922 143.716C303.922 143.716 306.015 157.572 314.545 170.301C314.545 170.301 302.957 193.179 289.115 190.44C278.493 188.346 290.242 177.712 282.677 168.206L303.922 143.716Z" fill="url(#paint8_linear)"/>
<path d="M255.639 121.966C255.639 121.966 264.169 171.751 281.068 171.751C297.967 171.751 304.405 151.611 304.405 144.2C304.405 144.2 311.326 142.589 310.199 133.083C309.072 123.577 302.796 125.671 301.669 133.083C301.669 133.083 296.358 131.955 296.358 122.449C296.358 112.943 296.358 112.943 296.358 112.943C296.358 112.943 291.047 114.071 278.332 122.449C265.778 130.988 258.375 125.671 255.639 121.966Z" fill="url(#paint9_linear)"/>
<path d="M500.919 263.088H423.665C417.992 263.088 413.543 258.483 413.543 252.954V146.939C413.543 141.258 418.143 136.805 423.665 136.805H500.919C506.592 136.805 511.041 141.409 511.041 146.939V252.793C511.041 258.488 506.587 263.088 500.919 263.088Z" fill="#EEF2FA" stroke="#555BE4"/>
<path d="M498.826 158.539C498.826 159.989 498.183 161.278 497.217 162.245C496.251 163.211 494.964 163.856 493.515 163.856H430.908C428.011 163.856 425.596 161.439 425.596 158.539C425.596 157.089 426.24 155.8 427.206 154.833C428.172 153.867 429.459 153.222 430.908 153.222H493.515C496.573 153.222 498.826 155.639 498.826 158.539Z" fill="#C1CAFF"/>
<path d="M486.112 158.539C486.112 159.989 485.469 161.278 484.503 162.245C483.537 163.211 482.25 163.856 480.801 163.856H431.069C428.172 163.856 425.758 161.439 425.758 158.539C425.758 157.089 426.402 155.8 427.368 154.833C428.333 153.867 429.621 153.222 431.069 153.222H480.801C483.859 153.222 486.112 155.639 486.112 158.539Z" fill="#9393FE"/>
<path d="M498.826 181.901C498.826 183.351 498.183 184.64 497.217 185.606C496.251 186.573 494.964 187.218 493.515 187.218H430.908C428.011 187.218 425.596 184.801 425.596 181.901C425.596 180.451 426.24 179.162 427.206 178.195C428.172 177.228 429.459 176.584 430.908 176.584H493.515C496.573 176.584 498.826 179.001 498.826 181.901Z" fill="#C1CAFF"/>
<path d="M461.809 181.901C461.809 183.351 461.165 184.64 460.2 185.606C459.234 186.573 457.946 187.218 456.498 187.218H431.068C428.171 187.218 425.757 184.801 425.757 181.901C425.757 180.451 426.401 179.162 427.367 178.195C428.332 177.228 429.62 176.584 431.068 176.584H456.498C459.395 176.584 461.809 179.001 461.809 181.901Z" fill="#9393FE"/>
<path d="M498.826 204.135C498.826 205.585 498.183 206.874 497.217 207.84C496.251 208.807 494.964 209.452 493.515 209.452H430.908C428.011 209.452 425.596 207.035 425.596 204.135C425.596 202.685 426.24 201.396 427.206 200.429C428.172 199.462 429.459 198.818 430.908 198.818H493.515C496.573 198.818 498.826 201.235 498.826 204.135Z" fill="#C1CAFF"/>
<path d="M473.397 204.135C473.397 205.585 472.753 206.874 471.788 207.84C470.822 208.807 469.534 209.452 468.086 209.452H431.068C428.171 209.452 425.757 207.035 425.757 204.135C425.757 202.685 426.401 201.396 427.367 200.429C428.332 199.462 429.62 198.818 431.068 198.818H468.086C471.144 198.818 473.397 201.235 473.397 204.135Z" fill="#9393FE"/>
<path d="M498.826 227.497C498.826 228.947 498.183 230.236 497.217 231.203C496.251 232.169 494.964 232.814 493.515 232.814H430.908C428.011 232.814 425.596 230.397 425.596 227.497C425.596 226.047 426.24 224.758 427.206 223.791C428.172 222.825 429.459 222.18 430.908 222.18H493.515C496.573 222.18 498.826 224.597 498.826 227.497Z" fill="#C1CAFF"/>
<path d="M461.809 227.497C461.809 228.947 461.165 230.236 460.2 231.203C459.234 232.169 457.946 232.814 456.498 232.814H431.068C428.171 232.814 425.757 230.397 425.757 227.497C425.757 226.047 426.401 224.758 427.367 223.791C428.332 222.825 429.62 222.18 431.068 222.18H456.498C459.395 222.18 461.809 224.597 461.809 227.497Z" fill="#9393FE"/>
<path d="M460.826 78.9473H460.826L460.827 78.9612C460.979 84.4673 456.39 89.081 450.704 89.081H352.689C347.015 89.081 342.566 84.4768 342.566 78.9473V10.6337C342.566 4.95296 347.166 0.5 352.689 0.5H450.704C456.377 0.5 460.826 5.1042 460.826 10.6337V78.9473Z" fill="#EEF2FA" stroke="#555BE4"/>
<path d="M371.519 42.3737H355.103V73.3081H371.519V42.3737Z" fill="#C1CAFF"/>
<path d="M396.305 29.0011H379.888V73.3083H396.305V29.0011Z" fill="#C1CAFF"/>
<path d="M448.451 35.2845H432.034V73.3082H448.451V35.2845Z" fill="#C1CAFF"/>
<path d="M422.056 14.0172H405.64V73.3083H422.056V14.0172Z" fill="#C1CAFF"/>
<path d="M203.653 314.984H42.7083C36.7533 314.984 32.0859 310.15 32.0859 304.35V237.648C32.0859 231.686 36.9143 227.014 42.7083 227.014H203.653C209.608 227.014 214.276 231.847 214.276 237.648V304.35C214.276 310.15 209.608 314.984 203.653 314.984Z" fill="white"/>
<path d="M66.5281 294.683C63.7921 294.683 62.3436 293.555 62.1826 293.394L64.114 290.978C64.114 290.978 69.5861 294.844 81.0132 281.633C86.8072 274.866 91.3137 271.805 95.4982 272.127C100.327 272.449 103.385 277.121 106.282 281.794C108.213 284.855 110.305 286.466 112.237 286.305C114.973 286.144 119.64 282.761 126.078 268.26C132.355 254.082 136.056 247.315 141.207 246.67C145.069 246.187 149.093 249.248 155.048 257.304C161.164 265.521 165.187 269.227 167.924 269.227C170.338 269.227 172.591 266.488 175.81 261.654C183.696 250.215 190.939 252.471 191.261 252.632L190.295 255.693C190.134 255.693 184.823 254.243 178.546 263.588C175.166 268.421 172.108 272.449 168.084 272.449C163.9 272.61 159.554 268.904 152.473 259.399C147.483 252.793 144.104 249.732 141.529 250.054C137.827 250.537 133.964 258.432 128.975 269.71C123.181 282.761 117.709 289.205 112.397 289.689C109.179 290.011 106.121 287.916 103.545 283.727C100.488 279.055 98.2343 275.833 95.1763 275.51C92.2793 275.349 88.4167 278.088 83.4274 283.888C75.8629 292.589 70.2299 294.683 66.5281 294.683Z" fill="#9393FE"/>
<path d="M57.5153 300.161C53.4917 300.161 50.1118 296.777 50.1118 292.75C50.1118 288.722 53.4917 285.338 57.5153 285.338C61.5389 285.338 64.9188 288.722 64.9188 292.75C64.9188 296.777 61.5389 300.161 57.5153 300.161ZM57.5153 288.399C55.1011 288.399 53.3307 290.333 53.3307 292.588C53.3307 295.005 55.2621 296.777 57.5153 296.777C59.9295 296.777 61.6999 294.844 61.6999 292.588C61.6999 290.333 59.7685 288.399 57.5153 288.399Z" fill="#C1CAFF"/>
<path d="M196.25 261.976C192.226 261.976 188.846 258.593 188.846 254.565C188.846 250.537 192.226 247.154 196.25 247.154C200.274 247.154 203.653 250.537 203.653 254.565C203.814 258.593 200.434 261.976 196.25 261.976ZM196.25 250.215C193.836 250.215 192.065 252.148 192.065 254.404C192.065 256.821 193.997 258.593 196.25 258.593C198.664 258.593 200.434 256.659 200.434 254.404C200.595 252.148 198.664 250.215 196.25 250.215Z" fill="#C1CAFF"/>
<path d="M213.132 147.744H213.132L213.132 147.758C213.286 153.435 208.686 158.039 203.171 158.039H148.127C142.454 158.039 138.005 153.435 138.005 147.905V92.8033C138.005 87.1225 142.605 82.6696 148.127 82.6696H203.01C208.683 82.6696 213.132 87.2738 213.132 92.8033V147.744Z" fill="#EEF2FA" stroke="#555BE4"/>
<path d="M196.894 120.354C196.894 132.116 187.398 141.622 175.649 141.622C163.9 141.622 154.404 132.116 154.404 120.354C154.404 108.593 163.9 99.0867 175.649 99.0867C185.949 99.0867 194.641 106.498 196.411 116.326C196.733 117.615 196.894 118.904 196.894 120.354Z" fill="#C1CAFF"/>
<path d="M196.411 116.326L175.649 120.193V99.0867C185.95 99.0867 194.641 106.498 196.411 116.326Z" fill="#9393FE"/>
<path d="M479.352 353.152H412.56C408.974 353.152 406.14 350.315 406.14 346.724V329.806C406.14 326.215 408.974 323.378 412.56 323.378H479.352C482.938 323.378 485.773 326.215 485.773 329.806V346.713C485.617 350.327 482.763 353.152 479.352 353.152Z" fill="#EEF2FA" stroke="#555BE4"/>
<path d="M418.354 347.368C420.665 347.368 422.539 345.493 422.539 343.179C422.539 340.866 420.665 338.99 418.354 338.99C416.043 338.99 414.17 340.866 414.17 343.179C414.17 345.493 416.043 347.368 418.354 347.368Z" fill="#C1CAFF"/>
<path d="M433.161 347.368C435.472 347.368 437.346 345.493 437.346 343.179C437.346 340.866 435.472 338.99 433.161 338.99C430.85 338.99 428.977 340.866 428.977 343.179C428.977 345.493 430.85 347.368 433.161 347.368Z" fill="#C1CAFF"/>
<path d="M447.968 347.368C450.279 347.368 452.153 345.493 452.153 343.179C452.153 340.866 450.279 338.99 447.968 338.99C445.657 338.99 443.784 340.866 443.784 343.179C443.784 345.493 445.657 347.368 447.968 347.368Z" fill="#C1CAFF"/>
<defs>
<linearGradient id="paint0_linear" x1="254.611" y1="213.051" x2="254.611" y2="409.682" gradientUnits="userSpaceOnUse">
<stop stop-color="#7057D6"/>
<stop offset="1" stop-color="#7057D6" stop-opacity="0"/>
</linearGradient>
<linearGradient id="paint1_linear" x1="272.769" y1="273.051" x2="272.769" y2="449.261" gradientUnits="userSpaceOnUse">
<stop stop-color="#555BE4"/>
<stop offset="1" stop-color="#555BE4" stop-opacity="0"/>
</linearGradient>
<linearGradient id="paint2_linear" x1="368.796" y1="367.511" x2="229.93" y2="374.872" gradientUnits="userSpaceOnUse">
<stop stop-color="#453087"/>
<stop offset="1" stop-color="#3B4D94"/>
</linearGradient>
<linearGradient id="paint3_linear" x1="259.895" y1="259.674" x2="233.256" y2="260.806" gradientUnits="userSpaceOnUse">
<stop stop-color="#FDB025"/>
<stop offset="1" stop-color="#FDC867"/>
</linearGradient>
<linearGradient id="paint4_linear" x1="299.428" y1="169.173" x2="299.428" y2="200.2" gradientUnits="userSpaceOnUse">
<stop stop-color="#F29819"/>
</linearGradient>
<linearGradient id="paint5_linear" x1="298.256" y1="252.698" x2="288.46" y2="225.895" gradientUnits="userSpaceOnUse">
<stop stop-color="#FEAF8B"/>
<stop offset="1" stop-color="#FDC7A9"/>
</linearGradient>
<linearGradient id="paint6_linear" x1="341.851" y1="281.298" x2="342.419" y2="201.294" gradientUnits="userSpaceOnUse">
<stop stop-color="#FCA70C"/>
<stop offset="1" stop-color="#FDC867"/>
</linearGradient>
<linearGradient id="paint7_linear" x1="234.747" y1="236.555" x2="247.161" y2="236.555" gradientUnits="userSpaceOnUse">
<stop stop-color="#FEAF8B"/>
<stop offset="1" stop-color="#FDC7A9"/>
</linearGradient>
<linearGradient id="paint8_linear" x1="298.488" y1="167.968" x2="301.896" y2="204.565" gradientUnits="userSpaceOnUse">
<stop stop-color="#FEAF8B"/>
<stop offset="1" stop-color="#FDC7A9"/>
</linearGradient>
<linearGradient id="paint9_linear" x1="314.882" y1="162.869" x2="285.102" y2="140.771" gradientUnits="userSpaceOnUse">
<stop stop-color="#FEAF8B"/>
<stop offset="1" stop-color="#FDC7A9"/>
</linearGradient>
</defs>
</svg>
