<svg width="37" height="37" viewBox="0 0 37 37" fill="none" xmlns="http://www.w3.org/2000/svg">
<circle cx="18.5" cy="18.5" r="18.5" fill="#FCA70C" fill-opacity="0.2"/>
<g clip-path="url(#clip0)">
<path d="M28.8978 16.811C28.8173 16.7172 28.6998 16.6631 28.5756 16.6631H27.6943V11.9117C27.6943 11.5862 27.4296 11.3215 27.1041 11.3215H16.8669L16.0374 9.9391C15.9315 9.76217 15.7376 9.65234 15.5313 9.65234H10.9251C10.6 9.65268 10.3352 9.9174 10.3352 10.2426V16.6627H9.42422C9.3007 16.6627 9.18319 16.7165 9.10274 16.81C9.02195 16.9034 8.9859 17.0273 9.00459 17.1505L10.6464 27.9869C10.6787 28.1955 10.855 28.3467 11.0657 28.3467H26.9339C27.1448 28.3467 27.3211 28.1955 27.3535 27.9859L28.9949 17.1518C29.0139 17.0293 28.9786 16.9051 28.8978 16.811ZM11.0029 10.3203H15.4875L16.3171 11.7027C16.4229 11.8796 16.6169 11.9895 16.8232 11.9895H27.0267V16.6631H26.6928V15.3278H26.359V14.3263H26.0252V13.3248H12.0044V14.3263H11.6705V15.3278H11.3367V16.6631H11.0029V10.3203ZM12.0044 15.9954H26.0252V16.6631H12.0044V15.9954ZM12.3382 14.9939H25.6914V15.3278H12.3382V14.9939ZM25.3575 14.3263H12.672V13.9924H25.3575V14.3263ZM26.7249 27.6794H11.275L9.7073 17.3307H10.3352H11.3367H26.6928H27.6943H28.2929L26.7249 27.6794Z" fill="#FCA70C"/>
<path d="M17.9985 26.0105H25.0089V21.3369H17.9985V26.0105ZM18.6662 22.0046H24.3413V25.3429H18.6662V22.0046Z" fill="#FCA70C"/>
<path d="M19.6678 23.3395H21.0031C21.1877 23.3395 21.337 23.1903 21.337 23.0057C21.337 22.8211 21.1877 22.6719 21.0031 22.6719H19.6678C19.4832 22.6719 19.334 22.8211 19.334 23.0057C19.334 23.1903 19.4832 23.3395 19.6678 23.3395Z" fill="#FCA70C"/>
<path d="M22.3385 23.3395H22.6723C22.8569 23.3395 23.0061 23.1903 23.0061 23.0057C23.0061 22.8211 22.8569 22.6719 22.6723 22.6719H22.3385C22.1539 22.6719 22.0046 22.8211 22.0046 23.0057C22.0046 23.1903 22.1539 23.3395 22.3385 23.3395Z" fill="#FCA70C"/>
<path d="M23.3399 24.0073H19.6678C19.4832 24.0073 19.334 24.1565 19.334 24.3412C19.334 24.5258 19.4832 24.675 19.6678 24.675H23.3399C23.5245 24.675 23.6738 24.5258 23.6738 24.3412C23.6738 24.1565 23.5245 24.0073 23.3399 24.0073Z" fill="#FCA70C"/>
</g>
<defs>
<clipPath id="clip0">
</clipPath>
</defs>
</svg>
