<svg width="70" height="70" viewBox="0 0 70 70" fill="none" xmlns="http://www.w3.org/2000/svg">
<circle cx="35" cy="35" r="35" fill="#7057D6" fill-opacity="0.2"/>
<g clip-path="url(#clip0)">
<path d="M20.6463 50.5414C20.501 50.396 20.2995 50.3125 20.094 50.3125C19.8885 50.3125 19.687 50.396 19.5417 50.5414C19.3963 50.6868 19.3127 50.8883 19.3127 51.0938C19.3127 51.2992 19.3963 51.5008 19.5417 51.646C19.687 51.7913 19.8885 51.875 20.094 51.875C20.2995 51.875 20.501 51.7914 20.6463 51.646C20.7916 51.5008 20.8752 51.2992 20.8752 51.0938C20.8752 50.8883 20.7917 50.6867 20.6463 50.5414Z" fill="#7057D6"/>
<path d="M50.6815 29.2924C50.5362 29.147 50.3354 29.0635 50.1291 29.0635C49.9237 29.0635 49.7221 29.147 49.5768 29.2924C49.4316 29.4377 49.3479 29.6393 49.3479 29.8447C49.3479 30.0502 49.4315 30.2518 49.5768 30.397C49.7221 30.5423 49.9237 30.626 50.1291 30.626C50.3354 30.626 50.5362 30.5424 50.6815 30.397C50.8275 30.2518 50.9111 30.0502 50.9111 29.8447C50.9111 29.6393 50.8275 29.4377 50.6815 29.2924Z" fill="#7057D6"/>
<path d="M53.7706 15.2288C53.6241 15.0823 53.4253 15 53.2181 15L33.9998 15.001C33.5684 15.001 33.2186 15.3509 33.2186 15.7823V18.0164L25.8132 20.0007C25.3964 20.1124 25.1491 20.5408 25.2608 20.9575L29.0988 35.2811L25.7786 38.6013C25.356 37.9843 24.6465 37.5785 23.8439 37.5785H16.3442C15.0518 37.5785 14.0005 38.6299 14.0005 39.9222V52.6562C14.0005 53.9486 15.0518 55 16.3442 55H23.844C24.9419 55 25.8655 54.2409 26.1186 53.2203L27.0475 54.0304C27.7646 54.6557 28.6834 55.0001 29.6349 55.0001H53.2182C53.6496 55.0001 53.9995 54.6502 53.9995 54.2188V15.7812C53.9993 15.5741 53.9171 15.3753 53.7706 15.2288ZM24.6251 52.6563C24.6251 53.087 24.2746 53.4376 23.8438 53.4376H16.3441C15.9133 53.4376 15.5628 53.0871 15.5628 52.6563V39.9223C15.5628 39.4915 15.9133 39.141 16.3441 39.141H19.3128V48.1406C19.3128 48.572 19.6626 48.9219 20.094 48.9219C20.5254 48.9219 20.8753 48.572 20.8753 48.1406V39.141H23.8439C24.2747 39.141 24.6252 39.4915 24.6252 39.9223V52.6563H24.6251ZM26.9722 21.3077L33.2186 19.634V22.5289L32.695 22.6692C32.4948 22.7229 32.3242 22.8537 32.2206 23.0332C32.117 23.2127 32.0889 23.4259 32.1426 23.626C32.4428 24.7464 31.7756 25.9021 30.6552 26.2023C30.4548 26.2561 30.2839 26.3872 30.1804 26.567C30.0769 26.7468 30.049 26.9604 30.1031 27.1607L33.1484 38.4371H31.5804L30.7724 35.2759C30.7467 35.1752 30.7017 35.0825 30.6414 35.0019L26.9722 21.3077ZM33.2186 26.1116V32.7039L31.7937 27.4277C32.3889 27.1204 32.876 26.6605 33.2186 26.1116ZM44.4424 53.4375H29.6347C29.0609 53.4375 28.5067 53.2298 28.0742 52.8527L26.1876 51.2073V40.4021L29.5984 36.9913L30.217 39.4116C30.3054 39.7575 30.6169 39.9994 30.9738 39.9994L46.3335 40.0003C46.9367 40.0003 47.4273 40.4909 47.4273 41.0941C47.4273 41.6972 46.9367 42.1878 46.3335 42.1878H38.4632C38.0318 42.1878 37.682 42.5377 37.682 42.9691C37.682 43.4005 38.0318 43.7503 38.4632 43.7503H48.7788C49.382 43.7503 49.8726 44.2409 49.8726 44.8441C49.8726 45.4472 49.382 45.9378 48.7788 45.9378H38.4632C38.0318 45.9378 37.682 46.2877 37.682 46.7191C37.682 47.1505 38.0318 47.5003 38.4632 47.5003H47.1072C47.7103 47.5003 48.201 47.9909 48.201 48.5941C48.201 49.1972 47.7103 49.6878 47.1072 49.6878H38.4632C38.0318 49.6878 37.682 50.0377 37.682 50.4691C37.682 50.9005 38.0318 51.2503 38.4632 51.2503H44.4424C45.0455 51.2503 45.5361 51.7409 45.5361 52.3441C45.536 52.9469 45.0454 53.4375 44.4424 53.4375ZM52.437 53.4375H52.4369H46.862C47.0134 53.1037 47.0985 52.7336 47.0985 52.3438C47.0985 51.9539 47.0134 51.5838 46.862 51.25H47.1072C48.5718 51.25 49.7634 50.0584 49.7634 48.5938C49.7634 48.1666 49.6614 47.763 49.4814 47.405C50.6061 47.0961 51.4349 46.0652 51.4349 44.8439C51.4349 44.2514 51.2398 43.7037 50.9106 43.2615V33.3599C50.9106 32.9285 50.5608 32.5787 50.1294 32.5787C49.698 32.5787 49.3481 32.9285 49.3481 33.3599V42.2499C49.1645 42.2097 48.9742 42.1878 48.7787 42.1878H48.7531C48.9045 41.854 48.9896 41.4839 48.9896 41.0941C48.9896 39.6294 47.7981 38.4379 46.3334 38.4379H45.0776C46.4111 37.866 47.3477 36.5405 47.3477 35C47.3477 32.9384 45.6705 31.2611 43.6088 31.2611C41.5473 31.2611 39.87 32.9384 39.87 35C39.87 36.5405 40.8067 37.866 42.1401 38.4379H37.8695V23.583C39.2652 23.2789 40.3664 22.1777 40.6705 20.782H46.5471C46.8512 22.1777 47.9524 23.2789 49.3481 23.583V26.012C49.3481 26.4434 49.6979 26.7932 50.1293 26.7932C50.5607 26.7932 50.9106 26.4434 50.9106 26.012V22.8855C50.9106 22.4541 50.5607 22.1043 50.1293 22.1043C48.9694 22.1043 48.0259 21.1606 48.0259 20.0008C48.0259 19.5694 47.676 19.2195 47.2446 19.2195H39.9731C39.5417 19.2195 39.1918 19.5694 39.1918 20.0008C39.1918 21.1607 38.2482 22.1043 37.0884 22.1043C36.657 22.1043 36.3071 22.4541 36.3071 22.8855V38.4378H34.7812V16.5634L52.437 16.5625V53.4375ZM43.609 37.1764C42.4089 37.1764 41.4327 36.2001 41.4327 35.0001C41.4327 33.8001 42.409 32.8237 43.609 32.8237C44.809 32.8237 45.7853 33.8 45.7853 35C45.7853 36.2 44.8091 37.1764 43.609 37.1764Z" fill="#7057D6"/>
</g>
<defs>
<clipPath id="clip0">
</clipPath>
</defs>
</svg>
