<svg width="37" height="37" viewBox="0 0 37 37" fill="none" xmlns="http://www.w3.org/2000/svg">
<circle cx="18.5" cy="18.5" r="18.5" fill="#FCA70C" fill-opacity="0.2"/>
<path d="M29.102 16.5306H27.86C27.6591 15.8127 27.3736 15.1262 27.0082 14.4823L27.8885 13.602C28.238 13.2523 28.238 12.6835 27.8885 12.334L25.666 10.1115C25.3165 9.76189 24.7476 9.76198 24.398 10.1115L23.5177 10.9918C22.8738 10.6264 22.1873 10.3409 21.4694 10.14V8.89796C21.4694 8.40282 21.0666 8 20.5714 8H17.4286C16.9334 8 16.5306 8.40282 16.5306 8.89796V10.14C15.8127 10.3409 15.1262 10.6264 14.4822 10.9918L13.602 10.1115C13.2523 9.76193 12.6835 9.76198 12.334 10.1115L10.1115 12.334C9.76193 12.6835 9.76193 13.2524 10.1115 13.602L10.9918 14.4823C10.6264 15.1262 10.3409 15.8127 10.14 16.5306H8.89796C8.40282 16.5306 8 16.9334 8 17.4286V20.5714C8 21.0666 8.40282 21.4694 8.89796 21.4694H10.14C10.3409 22.1873 10.6264 22.8738 10.9918 23.5178L10.1115 24.398C9.76193 24.7477 9.76193 25.3165 10.1115 25.666L12.334 27.8885C12.6836 28.2381 13.2524 28.2381 13.602 27.8885L14.4823 27.0082C15.1262 27.3736 15.8127 27.6591 16.5307 27.86V29.102C16.5307 29.5972 16.9335 30 17.4286 30H20.5715C21.0666 30 21.4694 29.5972 21.4694 29.102V27.86C22.1874 27.6591 22.8738 27.3736 23.5178 27.0082L24.3981 27.8885C24.7476 28.2381 25.3165 28.238 25.6661 27.8885L27.8885 25.666C28.2381 25.3165 28.2381 24.7477 27.8885 24.398L27.0082 23.5178C27.3736 22.8738 27.6591 22.1873 27.86 21.4694H29.102C29.5972 21.4694 30 21.0666 30 20.5715V17.4286C30 16.9334 29.5972 16.5306 29.102 16.5306ZM29.102 20.5714H27.5127C27.3049 20.5714 27.1243 20.714 27.0759 20.916C26.8689 21.7826 26.5279 22.6021 26.0626 23.3518C25.9526 23.529 25.9792 23.7586 26.1266 23.906L27.2536 25.0311L25.033 27.2535L23.9061 26.1266C23.7586 25.979 23.529 25.9526 23.3518 26.0625C22.6022 26.5278 21.7827 26.8688 20.916 27.0759C20.714 27.1242 20.5714 27.3049 20.5714 27.5126V29.102H17.4286V27.5127C17.4286 27.3049 17.286 27.1243 17.084 27.076C16.2174 26.8688 15.3978 26.5279 14.6482 26.0626C14.5751 26.0172 14.4931 25.9951 14.4116 25.9951C14.2956 25.9951 14.1806 26.04 14.094 26.1266L12.9689 27.2535L10.7465 25.033L11.8734 23.906C12.0209 23.7586 12.0474 23.529 11.9375 23.3518C11.4722 22.6022 11.1312 21.7826 10.9241 20.916C10.8757 20.714 10.6951 20.5714 10.4873 20.5714H8.89796V17.4286H10.4873C10.6951 17.4286 10.8757 17.286 10.924 17.084C11.1312 16.2174 11.4721 15.3978 11.9374 14.6482C12.0474 14.4711 12.0209 14.2414 11.8734 14.094L10.7465 12.9689L12.967 10.7465L14.094 11.8734C14.2414 12.0209 14.471 12.0474 14.6482 11.9375C15.3978 11.4722 16.2174 11.1312 17.084 10.9241C17.286 10.8758 17.4286 10.6951 17.4286 10.4874V8.89796H20.5714V10.4873C20.5714 10.6951 20.714 10.8757 20.916 10.924C21.7827 11.1312 22.6022 11.4721 23.3518 11.9374C23.5289 12.0474 23.7586 12.0209 23.9061 11.8734L25.0311 10.7465L27.2536 12.967L26.1266 14.094C25.9792 14.2414 25.9526 14.471 26.0626 14.6482C26.5279 15.3979 26.8689 16.2174 27.0759 17.084C27.1242 17.286 27.3049 17.4286 27.5127 17.4286H29.102V20.5714Z" fill="#FCA70C"/>
<path d="M19.0001 13.6123C16.0293 13.6123 13.6123 16.0293 13.6123 19.0001C13.6123 21.9709 16.0293 24.3878 19.0001 24.3878C21.9709 24.3878 24.3878 21.9709 24.3878 19.0001C24.3878 16.0293 21.9709 13.6123 19.0001 13.6123ZM19.0001 23.4899C16.5244 23.4899 14.5103 21.4757 14.5103 19.0001C14.5103 16.5244 16.5244 14.5103 19.0001 14.5103C21.4758 14.5103 23.4899 16.5244 23.4899 19.0001C23.4899 21.4757 21.4758 23.4899 19.0001 23.4899Z" fill="#FCA70C"/>
<path d="M19 16.3062C17.5146 16.3062 16.3062 17.5146 16.3062 19C16.3062 20.4854 17.5146 21.6939 19 21.6939C20.4854 21.6939 21.6939 20.4854 21.6939 19C21.6939 17.5146 20.4854 16.3062 19 16.3062ZM19 20.7959C18.0098 20.7959 17.2041 19.9903 17.2041 19C17.2041 18.0098 18.0098 17.2041 19 17.2041C19.9903 17.2041 20.7959 18.0098 20.7959 19C20.7959 19.9903 19.9903 20.7959 19 20.7959Z" fill="#FCA70C"/>
</svg>
