<svg width="45" height="45" viewBox="0 0 45 45" xmlns="http://www.w3.org/2000/svg">
<path d="M22.5 29.5312C22.0149 29.5312 21.6211 29.925 21.6211 30.4102C21.6211 30.8953 22.0149 31.2891 22.5 31.2891C22.9851 31.2891 23.3789 30.8953 23.3789 30.4102C23.3789 29.925 22.9851 29.5312 22.5 29.5312Z" fill="white"/>
<path d="M13.7109 13.7108H14.7481L16.0816 20.3802C16.3274 21.6082 17.415 22.4999 18.6678 22.4999H26.3322C27.585 22.4999 28.6726 21.6082 28.9184 20.3798L30.2519 13.7108H31.2891C31.7745 13.7108 32.168 13.3173 32.168 12.8319C32.168 12.3464 31.7745 11.953 31.2891 11.953C30.5774 11.953 27.7522 11.953 26.6491 11.953L25.0917 7.2807C24.9379 6.81996 24.4405 6.57105 23.9801 6.72452C23.5193 6.87833 23.2704 7.3758 23.4239 7.8362L24.7961 11.953H20.2039L21.5761 7.8362C21.7296 7.3758 21.4807 6.87833 21.0199 6.72452C20.5595 6.57105 20.0617 6.81996 19.9083 7.2807L18.3509 11.953C17.5816 11.953 14.7213 11.953 13.7109 11.953C13.2255 11.953 12.832 12.3464 12.832 12.8319C12.832 13.3173 13.2255 13.7108 13.7109 13.7108ZM28.4594 13.7108L27.1946 20.0351C27.1129 20.4447 26.75 20.742 26.3322 20.742H18.6682C18.25 20.742 17.8875 20.4447 17.8054 20.0355L16.5406 13.7108H28.4594Z" fill="white"/>
<path d="M20.7422 18.9844C21.2276 18.9844 21.6211 18.5909 21.6211 18.1055V16.3477C21.6211 15.8622 21.2276 15.4688 20.7422 15.4688C20.2567 15.4688 19.8633 15.8622 19.8633 16.3477V18.1055C19.8633 18.5909 20.2567 18.9844 20.7422 18.9844Z" fill="white"/>
<path d="M24.2578 18.9844C24.7433 18.9844 25.1367 18.5909 25.1367 18.1055V16.3477C25.1367 15.8622 24.7433 15.4688 24.2578 15.4688C23.7724 15.4688 23.3789 15.8622 23.3789 16.3477V18.1055C23.3789 18.5909 23.7724 18.9844 24.2578 18.9844Z" fill="white"/>
<path d="M2.63672 34.8047H18.1055V38.3203H15.4688C14.2953 38.3203 13.1918 38.7776 12.3617 39.6078C11.5315 40.4379 11.0742 41.5414 11.0742 42.7148C11.0742 43.2003 11.4677 43.5938 11.9531 43.5938H33.0469C33.5323 43.5938 33.9258 43.2003 33.9258 42.7148C33.9258 40.2917 31.9544 38.3203 29.5312 38.3203H26.8945V34.8047H42.3633C43.0674 34.8047 43.7294 34.5304 44.2275 34.0322C44.7257 33.534 45 32.8721 45 32.168V4.04297C45 3.33881 44.7257 2.67689 44.2275 2.17873C43.7294 1.68056 43.0674 1.40625 42.3633 1.40625H2.63672C1.93256 1.40625 1.27064 1.68056 0.772476 2.17873C0.274315 2.67689 0 3.33881 0 4.04297V32.168C0 32.8721 0.274315 33.534 0.772476 34.0322C1.27064 34.5304 1.93256 34.8047 2.63672 34.8047ZM32.0173 41.8359H12.9817C13.1108 41.4696 13.3216 41.1338 13.6049 40.8506C14.103 40.3524 14.7649 40.0781 15.4688 40.0781H29.5312C30.6773 40.0781 31.6547 40.8128 32.0173 41.8359ZM25.1367 38.3203H19.8633V34.8047H25.1367V38.3203ZM42.9847 32.7894C42.8185 32.9556 42.5978 33.0469 42.3633 33.0469H2.63672C2.40223 33.0469 2.18147 32.9556 2.0153 32.7894C1.84914 32.6232 1.75781 32.4025 1.75781 32.168V27.7734H43.2422V32.168C43.2422 32.4025 43.1509 32.6232 42.9847 32.7894ZM2.0153 3.42155C2.18147 3.25539 2.40223 3.16406 2.63672 3.16406H42.3633C42.5978 3.16406 42.8185 3.25539 42.9847 3.42155C43.1509 3.58772 43.2422 3.80848 43.2422 4.04297V26.0156H1.75781V4.04297C1.75781 3.80848 1.84914 3.58772 2.0153 3.42155Z" fill="white"/>
</svg>
