<svg width="45" height="45" viewBox="0 0 45 45" fill="none" xmlns="http://www.w3.org/2000/svg">
<g>
<path d="M42.7286 1.66992H9.80495C8.55251 1.66992 7.53387 2.6889 7.53387 3.94135V7.38934H2.27142C1.01898 7.38934 0 8.40832 0 9.66076V38.8878C0 41.3168 1.96827 43.2951 4.39419 43.3126H4.40311C4.41101 43.3129 4.41822 43.3136 4.42612 43.3136H27.7443C28.1082 43.3136 28.4034 43.0187 28.4034 42.6544C28.4034 42.2905 28.1082 41.9952 27.7443 41.9952H7.57473C8.36403 41.1956 8.85223 40.0977 8.85223 38.8878V23.473C8.85223 23.1091 8.55698 22.8138 8.19305 22.8138C7.82879 22.8138 7.53387 23.1091 7.53387 23.473V38.8878C7.53387 40.5955 6.14891 41.9856 4.44294 41.9949C4.43745 41.9949 4.43195 41.9942 4.42612 41.9942C2.71259 41.9939 1.31836 40.6003 1.31836 38.8878V9.66076C1.31836 9.13548 1.7458 8.7077 2.27142 8.7077H7.53387V21.012C7.53387 21.3763 7.82879 21.6712 8.19305 21.6712C8.55698 21.6712 8.85223 21.3763 8.85223 21.012V3.94135C8.85223 3.41572 9.27967 2.98828 9.80495 2.98828H42.7286C43.2542 2.98828 43.6816 3.41572 43.6816 3.94135V38.8878C43.6816 40.6013 42.2874 41.9952 40.5739 41.9952H30.2052C29.8409 41.9952 29.546 42.2905 29.546 42.6544C29.546 43.0187 29.8409 43.3136 30.2052 43.3136H40.5739C43.0146 43.3136 45 41.3282 45 38.8878V3.94135C45 2.6889 43.981 1.66992 42.7286 1.66992V1.66992Z" fill="white"/>
<path d="M14.442 27.9722H23.4828C24.3428 27.9722 25.0425 27.2725 25.0425 26.4124V17.3717C25.0425 16.5117 24.3428 15.812 23.4828 15.812H14.442C13.582 15.812 12.8823 16.5117 12.8823 17.3717V26.4124C12.8823 27.2725 13.582 27.9722 14.442 27.9722ZM14.2007 17.3717C14.2007 17.2385 14.3088 17.1304 14.442 17.1304H23.4828C23.6156 17.1304 23.7241 17.2385 23.7241 17.3717V26.4124C23.7241 26.5453 23.6156 26.6538 23.4828 26.6538H14.442C14.3088 26.6538 14.2007 26.5453 14.2007 26.4124V17.3717Z" fill="white"/>
<path d="M27.439 17.1304H39.6733C40.0372 17.1304 40.3325 16.8355 40.3325 16.4712C40.3325 16.1069 40.0372 15.812 39.6733 15.812H27.439C27.075 15.812 26.7798 16.1069 26.7798 16.4712C26.7798 16.8355 27.075 17.1304 27.439 17.1304Z" fill="white"/>
<path d="M27.439 22.5515H39.6733C40.0372 22.5515 40.3325 22.2563 40.3325 21.8923C40.3325 21.5281 40.0372 21.2332 39.6733 21.2332H27.439C27.075 21.2332 26.7798 21.5281 26.7798 21.8923C26.7798 22.2563 27.075 22.5515 27.439 22.5515Z" fill="white"/>
<path d="M27.439 27.9722H39.6733C40.0372 27.9722 40.3325 27.6769 40.3325 27.313C40.3325 26.9487 40.0372 26.6538 39.6733 26.6538H27.439C27.075 26.6538 26.7798 26.9487 26.7798 27.313C26.7798 27.6769 27.075 27.9722 27.439 27.9722Z" fill="white"/>
<path d="M13.5415 33.3931H39.6728C40.0368 33.3931 40.332 33.0982 40.332 32.7339C40.332 32.37 40.0368 32.0747 39.6728 32.0747H13.5415C13.1776 32.0747 12.8823 32.37 12.8823 32.7339C12.8823 33.0982 13.1776 33.3931 13.5415 33.3931Z" fill="white"/>
<path d="M13.5415 38.814H39.6728C40.0368 38.814 40.332 38.5191 40.332 38.1548C40.332 37.7905 40.0368 37.4956 39.6728 37.4956H13.5415C13.1776 37.4956 12.8823 37.7905 12.8823 38.1548C12.8823 38.5191 13.1776 38.814 13.5415 38.814Z" fill="white"/>
<path d="M12.8994 12.4389V5.47359C12.8994 5.33042 12.9674 5.22124 13.1033 5.1464C13.2393 5.07121 13.4041 5.03345 13.597 5.03345C13.8549 5.03345 14.0513 5.08014 14.1876 5.17318C14.3232 5.26622 14.4735 5.46672 14.6383 5.77399L16.7096 9.77748V5.46294C16.7096 5.31978 16.7776 5.21266 16.9135 5.14091C17.0492 5.0695 17.214 5.03345 17.4072 5.03345C17.6005 5.03345 17.765 5.0695 17.9009 5.14091C18.0369 5.21266 18.1049 5.31978 18.1049 5.46294V12.4389C18.1049 12.5752 18.0348 12.6823 17.8954 12.761C17.7561 12.8399 17.5933 12.8791 17.4072 12.8791C17.0279 12.8791 16.7594 12.7325 16.6021 12.4389L14.2947 8.12438V12.4389C14.2947 12.5752 14.225 12.6823 14.0856 12.761C13.9462 12.8399 13.7831 12.8791 13.597 12.8791C13.4041 12.8791 13.2393 12.8399 13.1037 12.761C12.9674 12.6823 12.8994 12.5752 12.8994 12.4389Z" fill="white"/>
<path d="M19.3926 12.4389V5.47359C19.3926 5.33763 19.4533 5.23051 19.5752 5.15155C19.6968 5.07293 19.8396 5.03345 20.0044 5.03345H23.8252C23.968 5.03345 24.0776 5.09456 24.1524 5.21609C24.2276 5.33763 24.2654 5.47736 24.2654 5.63461C24.2654 5.80627 24.2259 5.95321 24.1473 6.07475C24.0683 6.19662 23.9608 6.25705 23.8252 6.25705H20.7878V8.4035H22.4193C22.5549 8.4035 22.6624 8.45912 22.7413 8.57002C22.82 8.68091 22.8594 8.81137 22.8594 8.96175C22.8594 9.0977 22.8217 9.22096 22.7465 9.33219C22.6713 9.44309 22.5625 9.49836 22.4193 9.49836H20.7878V11.6558H23.8252C23.9608 11.6558 24.0683 11.7166 24.1473 11.8381C24.2259 11.96 24.2654 12.1066 24.2654 12.2782C24.2654 12.4355 24.2276 12.5752 24.1524 12.6968C24.0776 12.8186 23.968 12.8791 23.8252 12.8791H20.0044C19.8396 12.8791 19.6968 12.8399 19.5752 12.7613C19.4533 12.6823 19.3926 12.5752 19.3926 12.4389Z" fill="white"/>
<path d="M24.9629 5.59169C24.9629 5.44131 25.0594 5.31085 25.2527 5.19996C25.4456 5.08907 25.6461 5.03345 25.8535 5.03345C26.1113 5.03345 26.2651 5.12649 26.3149 5.31257L28.0109 11.1298L28.9231 7.39482C28.9873 7.13699 29.2163 7.00824 29.6098 7.00824C29.9963 7.00824 30.2216 7.13699 30.2861 7.39482L31.1983 11.1298L32.894 5.31257C32.9441 5.12649 33.0979 5.03345 33.3558 5.03345C33.5631 5.03345 33.7633 5.08907 33.9566 5.19996C34.1499 5.31085 34.2463 5.44131 34.2463 5.59169C34.2463 5.63461 34.2391 5.67752 34.2251 5.72044L32.0999 12.4712C31.9924 12.7864 31.6882 12.9436 31.1877 12.9436C30.9731 12.9436 30.7798 12.9024 30.6081 12.82C30.4365 12.738 30.3325 12.6216 30.2968 12.4712L29.6101 9.57355L28.9125 12.4712C28.8764 12.6216 28.7727 12.738 28.6011 12.82C28.4294 12.9024 28.2361 12.9436 28.0216 12.9436C27.7998 12.9436 27.603 12.9024 27.4314 12.82C27.2594 12.738 27.1523 12.6216 27.1093 12.4712L24.9842 5.72044C24.9698 5.67752 24.9629 5.63461 24.9629 5.59169Z" fill="white"/>
<path d="M34.6006 11.6448C34.6006 11.4803 34.6631 11.3138 34.7884 11.1456C34.9134 10.9777 35.0548 10.8936 35.2124 10.8936C35.3051 10.8936 35.4108 10.9382 35.5289 11.0275C35.647 11.1164 35.7614 11.2153 35.8723 11.3227C35.9831 11.4305 36.1424 11.5291 36.3502 11.6183C36.5575 11.7076 36.7865 11.7519 37.0368 11.7519C37.3805 11.7519 37.6665 11.6733 37.8955 11.5157C38.1245 11.3584 38.2388 11.126 38.2388 10.8184C38.2388 10.6035 38.1763 10.4122 38.051 10.244C37.926 10.0761 37.7612 9.93639 37.5573 9.82549C37.3537 9.7146 37.1298 9.60714 36.8868 9.50346C36.6434 9.39977 36.3982 9.28339 36.1514 9.15464C35.9045 9.02589 35.6793 8.88101 35.4754 8.71999C35.2714 8.55898 35.1066 8.3444 34.9817 8.07592C34.8564 7.80779 34.7939 7.50188 34.7939 7.15856C34.7939 6.7737 34.8708 6.43381 35.0246 6.13992C35.1784 5.8457 35.384 5.61704 35.6415 5.45362C35.899 5.2902 36.1744 5.17038 36.4679 5.09416C36.7611 5.01794 37.0725 4.97949 37.4018 4.97949C37.5875 4.97949 37.7842 4.99254 37.9919 5.01829C38.1993 5.04404 38.4194 5.08627 38.6521 5.14497C38.8846 5.20368 39.0741 5.29569 39.2207 5.42032C39.3673 5.54529 39.4408 5.69223 39.4408 5.86149C39.4408 6.02079 39.3906 6.18559 39.2907 6.35587C39.1905 6.52616 39.0545 6.61096 38.8829 6.61096C38.8183 6.61096 38.6429 6.54298 38.3569 6.40703C38.0705 6.27107 37.7523 6.20309 37.4018 6.20309C37.0152 6.20309 36.7165 6.27657 36.5057 6.42316C36.2945 6.57011 36.1888 6.77198 36.1888 7.02947C36.1888 7.23718 36.2746 7.41777 36.4466 7.57158C36.6183 7.72539 36.8312 7.8507 37.0852 7.94717C37.3389 8.04365 37.6146 8.16553 37.9116 8.31213C38.2082 8.45873 38.4839 8.61803 38.738 8.78969C38.9917 8.96135 39.2049 9.20992 39.3765 9.53539C39.5482 9.8612 39.634 10.2423 39.634 10.6787C39.634 11.4123 39.3996 11.9788 38.9313 12.3774C38.4623 12.776 37.8453 12.9755 37.0797 12.9755C36.3999 12.9755 35.817 12.8357 35.3305 12.5566C34.8437 12.2782 34.6006 11.974 34.6006 11.6448Z" fill="white"/>
</g>
</svg>
