<svg width="45" height="45" viewBox="0 0 45 45" xmlns="http://www.w3.org/2000/svg">
<g>
<path d="M42.7498 27.0009H35.9998V15.7509H42.7498C43.164 15.7509 43.4998 15.4151 43.4998 15.0009V11.3034L44.9923 0.857473C45.0511 0.447506 44.7665 0.0673513 44.3564 0.0085703C44.3211 0.00350782 44.2854 0.000976582 44.2498 0.000976582H23.2499C22.8357 0.000882833 22.4999 0.336694 22.4998 0.75088C22.4998 0.786505 22.5023 0.822129 22.5074 0.857473L23.9999 11.3034V15.0009C23.9999 15.4151 24.3357 15.7509 24.7499 15.7509H31.4999V27.0009H30.7499C29.5072 27.0009 28.4999 28.0082 28.4999 29.2509C28.4999 30.4935 29.5072 31.5008 30.7499 31.5008H31.4999V33.0008H26.2499L26.9496 22.5009H27.7499C28.1641 22.5009 28.4999 22.1651 28.4999 21.7509V18.7509C28.4999 18.3367 28.1641 18.0009 27.7499 18.0009H22.4437C22.2066 16.3757 21.2239 14.9545 19.7872 14.1587C20.9763 11.5143 19.7965 8.40657 17.1521 7.21745C14.5077 6.02833 11.4 7.20807 10.2108 9.85256C10.0045 10.3114 9.86518 10.7975 9.79721 11.296C5.68573 10.8513 1.99209 13.8237 1.54734 17.9352C1.54499 17.9571 1.54265 17.9791 1.54049 18.001H0.749997C0.335811 18.001 0 18.3368 0 18.751V21.751C0 22.1652 0.335811 22.501 0.749997 22.501H1.54874L2.99999 44.3003C3.02614 44.6951 3.35436 45.0016 3.74998 45.0008H44.2498C44.664 45.0008 44.9998 44.665 44.9998 44.2508V29.2509C44.9998 28.0082 43.9925 27.0009 42.7498 27.0009ZM24.1146 1.50097H26.9999V6.00095H28.4999V1.50097H29.9999V3.00096H31.4999V1.50097H35.9998V3.75096H37.4998V1.50097H38.9998V6.00095H40.4998V1.50097H43.3851L42.0996 10.5009H25.4001L24.1146 1.50097ZM25.4999 14.2509V12.0009H41.9998V14.2509H25.4999ZM34.4999 15.7509V27.0009H32.9999V15.7509H34.4999ZM26.9999 19.5009V21.0009H15.7499V19.5009H26.9999ZM9.72774 12.7982C9.9339 12.8238 10.1386 12.86 10.341 12.9069C10.3492 12.9069 10.3575 12.9069 10.3657 12.9069C11.2455 13.1139 12.0675 13.516 12.7709 14.0837L13.7144 12.9174C12.9927 12.3387 12.1704 11.8979 11.289 11.6169C11.5043 9.5625 13.3443 8.0716 15.3987 8.28694C17.4532 8.50229 18.9441 10.3423 18.7287 12.3967C18.6652 13.0035 18.454 13.5855 18.114 14.0919C17.8836 14.4361 17.9757 14.9019 18.32 15.1323C18.3726 15.1675 18.4294 15.1959 18.489 15.2169C19.73 15.655 20.6505 16.7116 20.9145 18.0009H14.9999C14.5858 18.0009 14.2499 18.3367 14.2499 18.7509V25.5009C14.2499 25.9151 13.9141 26.2509 13.4999 26.2509C13.0858 26.2509 12.7499 25.9151 12.7499 25.5009V24.0009C12.7499 22.7582 11.7426 21.7509 10.5 21.7509C9.25731 21.7509 8.24997 22.7582 8.24997 24.0009V29.2509C8.24997 29.665 7.91415 30.0009 7.49997 30.0009C7.08578 30.0009 6.74997 29.665 6.74997 29.2509V18.7509C6.74997 18.3367 6.41416 18.0009 5.99997 18.0009H3.05024C3.45749 14.7202 6.44707 12.3909 9.72774 12.7982ZM1.49999 21.0009V19.5009H5.24998V21.0009H1.49999ZM20.9999 35.2508V43.5008H4.45198L3.05174 22.5009H5.24998V29.2509C5.24998 30.4935 6.25732 31.5008 7.49997 31.5008C8.74262 31.5008 9.74996 30.4935 9.74996 29.2509V24.0009C9.74996 23.5867 10.0858 23.2509 10.5 23.2509C10.9141 23.2509 11.25 23.5867 11.25 24.0009V25.5009C11.25 26.7435 12.2573 27.7509 13.4999 27.7509C14.7426 27.7509 15.7499 26.7435 15.7499 25.5009V22.5009H25.4481L24.7499 33.0008H23.2499C22.0073 33.0008 20.9999 34.0082 20.9999 35.2508ZM43.4998 43.5008H41.2498V39.7508H39.7498V43.5008H37.4998V39.7508H35.9998V43.5008H33.7499V39.7508H32.2499V43.5008H29.9999V39.7508H28.4999V43.5008H26.2499V39.7508H24.7499V43.5008H22.4999V37.5008H43.4998V43.5008ZM43.4998 36.0008H22.4999V35.2508C22.4999 34.8366 22.8357 34.5008 23.2499 34.5008H39.7498C40.9925 34.5008 41.9998 33.4935 41.9998 32.2508C41.9998 31.0082 40.9925 30.0009 39.7498 30.0009H30.7499C30.3357 30.0009 29.9999 29.665 29.9999 29.2509C29.9999 28.8367 30.3357 28.5009 30.7499 28.5009H42.7498C43.164 28.5009 43.4998 28.8367 43.4998 29.2509V36.0008ZM32.9999 33.0008V31.5008H34.4999V33.0008H32.9999ZM35.9998 33.0008V31.5008H39.7498C40.164 31.5008 40.4998 31.8367 40.4998 32.2508C40.4998 32.665 40.164 33.0008 39.7498 33.0008H35.9998Z" fill="white"/>
<path d="M2.99999 7.49999V6H1.49999V7.49999H0V8.99999H1.49999V10.5H2.99999V8.99999H4.49998V7.49999H2.99999Z" fill="white"/>
<path d="M42.75 21V19.5H41.25V21H39.75V22.5H41.25V24H42.75V22.5H44.25V21H42.75Z" fill="white"/>
<path d="M14.25 1.49999V0H12.75V1.49999H11.25V2.99999H12.75V4.49998H14.25V2.99999H15.75V1.49999H14.25Z" fill="white"/>
<path d="M28.5 7.5H27V8.99999H28.5V7.5Z" fill="white"/>
</g>
</svg>
