<svg width="37" height="37" viewBox="0 0 37 37" fill="none" xmlns="http://www.w3.org/2000/svg">
<circle cx="18.5" cy="18.5" r="18.5" fill="#DF1818" fill-opacity="0.2"/>
<g>
<path d="M12.0001 11.6667H14.0001C14.1842 11.6667 14.3334 11.5174 14.3334 11.3333C14.3334 11.1492 14.1842 11 14.0001 11H12.0001C11.816 11 11.6667 11.1492 11.6667 11.3333C11.6667 11.5174 11.816 11.6667 12.0001 11.6667Z" fill="#FF0000"/>
<path d="M15.6666 11.6667H18.6666C18.8507 11.6667 18.9999 11.5174 18.9999 11.3333C18.9999 11.1492 18.8507 11 18.6666 11H15.6666C15.4825 11 15.3333 11.1492 15.3333 11.3333C15.3333 11.5174 15.4825 11.6667 15.6666 11.6667Z" fill="#FF0000"/>
<path d="M12.0001 15.3337H22.6667C22.8508 15.3337 23.0001 15.1844 23.0001 15.0003C23.0001 14.8162 22.8508 14.667 22.6667 14.667H12.0001C11.816 14.667 11.6667 14.8162 11.6667 15.0003C11.6667 15.1844 11.816 15.3337 12.0001 15.3337Z" fill="#FF0000"/>
<path d="M12.0001 16.6667H16.6667C16.8508 16.6667 17.0001 16.5174 17.0001 16.3333C17.0001 16.1492 16.8508 16 16.6667 16H12.0001C11.816 16 11.6667 16.1492 11.6667 16.3333C11.6667 16.5174 11.816 16.6667 12.0001 16.6667Z" fill="#FF0000"/>
<path d="M12.0001 19.3332H16.6667C16.8508 19.3332 17.0001 19.1839 17.0001 18.9998C17.0001 18.8157 16.8508 18.6665 16.6667 18.6665H12.0001C11.816 18.6665 11.6667 18.8157 11.6667 18.9998C11.6667 19.1839 11.816 19.3332 12.0001 19.3332Z" fill="#FF0000"/>
<path d="M12.0001 21.9997H16.6667C16.8508 21.9997 17.0001 21.8504 17.0001 21.6663C17.0001 21.4822 16.8508 21.333 16.6667 21.333H12.0001C11.816 21.333 11.6667 21.4822 11.6667 21.6663C11.6667 21.8504 11.816 21.9997 12.0001 21.9997Z" fill="#FF0000"/>
<path d="M12.0001 24.6667H16.6667C16.8508 24.6667 17.0001 24.5174 17.0001 24.3333C17.0001 24.1492 16.8508 24 16.6667 24H12.0001C11.816 24 11.6667 24.1492 11.6667 24.3333C11.6667 24.5174 11.816 24.6667 12.0001 24.6667Z" fill="#FF0000"/>
<path d="M29.8 17.71L26 16.069V9C26 8.44772 25.5523 8 25 8H12.3333C11.781 8 11.3333 8.44772 11.3333 9V9.33333H11C10.4477 9.33333 10 9.78105 10 10.3333V27C10 27.5523 10.4477 28 11 28H23.6667C23.9363 27.9994 24.1943 27.8896 24.3817 27.6957L24.655 27.89C24.8616 28.0367 25.1384 28.0367 25.345 27.89L28.57 25.5943C29.464 24.9598 29.9966 23.9326 30 22.8363V18.016C30.0002 17.8833 29.9216 17.7631 29.8 17.71ZM12 9C12 8.81591 12.1492 8.66667 12.3333 8.66667H25C25.1841 8.66667 25.3333 8.81591 25.3333 9V15.781L25.1333 15.694C25.0491 15.6577 24.9536 15.6577 24.8693 15.694L24.6693 15.781V13.6667C24.6693 13.6593 24.6657 13.6523 24.665 13.645C24.6633 13.6171 24.658 13.5895 24.649 13.563C24.6467 13.5553 24.647 13.5473 24.644 13.54C24.641 13.5327 24.6387 13.5327 24.637 13.5287C24.6208 13.4924 24.5982 13.4593 24.5703 13.431L20.5703 9.431C20.542 9.40313 20.5089 9.38056 20.4727 9.36433C20.4683 9.36233 20.4653 9.359 20.4613 9.35733C20.4573 9.35567 20.446 9.35467 20.4387 9.35233C20.4118 9.34339 20.3839 9.3379 20.3557 9.336C20.3473 9.337 20.3407 9.33333 20.3333 9.33333H12V9ZM20.6667 10.4713L23.5287 13.3333H21C20.8159 13.3333 20.6667 13.1841 20.6667 13V10.4713ZM23.6667 27.3333H11C10.8159 27.3333 10.6667 27.1841 10.6667 27V10.3333C10.6667 10.1492 10.8159 10 11 10H20V13C20 13.5523 20.4477 14 21 14H24V16.069L22.927 16.5333C22.9731 16.4767 22.9988 16.4063 23 16.3333C23 16.1492 22.8508 16 22.6667 16H18C17.8159 16 17.6667 16.1492 17.6667 16.3333C17.6667 16.5174 17.8159 16.6667 18 16.6667H22.6163L21.073 17.3333H12C11.8159 17.3333 11.6667 17.4826 11.6667 17.6667C11.6667 17.8508 11.8159 18 12 18H20.0023C20.0023 18.0053 20 18.0103 20 18.016V18.6667H18C17.8159 18.6667 17.6667 18.8159 17.6667 19C17.6667 19.1841 17.8159 19.3333 18 19.3333H20V20H12C11.8159 20 11.6667 20.1492 11.6667 20.3333C11.6667 20.5174 11.8159 20.6667 12 20.6667H20V21.3333H18C17.8159 21.3333 17.6667 21.4826 17.6667 21.6667C17.6667 21.8508 17.8159 22 18 22H20V22.6667H12C11.8159 22.6667 11.6667 22.8159 11.6667 23C11.6667 23.1841 11.8159 23.3333 12 23.3333H20.0417C20.0748 23.5608 20.1313 23.7842 20.2103 24H18C17.8159 24 17.6667 24.1492 17.6667 24.3333C17.6667 24.5174 17.8159 24.6667 18 24.6667H20.547C20.7045 24.9119 20.8928 25.136 21.1073 25.3333H12C11.8159 25.3333 11.6667 25.4826 11.6667 25.6667C11.6667 25.8508 11.8159 26 12 26H22L23.816 27.2927C23.7702 27.318 23.719 27.332 23.6667 27.3333ZM29.3333 22.8363C29.3301 23.7169 28.9019 24.5417 28.1837 25.051L25 27.3173L21.8163 25.0507C21.0982 24.5414 20.67 23.7167 20.6667 22.8363V18.2363L21.27 17.9757L21.2763 17.973L25 16.363L29.3333 18.235V22.8363Z" fill="#FF0000"/>
<path d="M24.8666 17.1465L21.5333 18.5865C21.4116 18.6396 21.3331 18.7598 21.3333 18.8925V22.8365C21.3363 23.5012 21.66 24.1237 22.2026 24.5078L24.8066 26.3615C24.9223 26.4439 25.0775 26.4439 25.1932 26.3615L27.7972 24.5078C28.3397 24.1236 28.6634 23.5012 28.6666 22.8365V18.8925C28.6668 18.7598 28.5882 18.6396 28.4666 18.5865L25.1332 17.1465C25.0482 17.1094 24.9516 17.1094 24.8666 17.1465ZM27.9999 19.1131V22.8365C27.9975 23.2864 27.7778 23.7074 27.4102 23.9668L24.9999 25.6808L22.5896 23.9648C22.2224 23.7059 22.0028 23.2857 21.9999 22.8365V19.1115L24.9999 17.8158L27.9999 19.1131Z" fill="#FF0000"/>
<path d="M23.2001 22.0666C23.1048 21.9952 22.9787 21.98 22.8691 22.0267C22.7596 22.0735 22.6834 22.1752 22.6691 22.2934C22.6549 22.4117 22.7048 22.5285 22.8001 22.6L24.1334 23.6C24.2774 23.708 24.4813 23.6822 24.5938 23.5416L27.2604 20.2083C27.3755 20.0645 27.3522 19.8547 27.2084 19.7396C27.0646 19.6246 26.8548 19.6478 26.7398 19.7916L24.2751 22.873L23.2001 22.0666Z" fill="#FF0000"/>
</g>
<defs>
<filter id="filter0_d" x="6" y="8" width="28" height="28" filterUnits="userSpaceOnUse" color-interpolation-filters="sRGB">
<feFlood flood-opacity="0" result="BackgroundImageFix"/>
<feColorMatrix in="SourceAlpha" type="matrix" values="0 0 0 0 0 0 0 0 0 0 0 0 0 0 0 0 0 0 127 0"/>
<feOffset dy="4"/>
<feGaussianBlur stdDeviation="2"/>
<feColorMatrix type="matrix" values="0 0 0 0 0 0 0 0 0 0 0 0 0 0 0 0 0 0 0.25 0"/>
<feBlend mode="normal" in2="BackgroundImageFix" result="effect1_dropShadow"/>
<feBlend mode="normal" in="SourceGraphic" in2="effect1_dropShadow" result="shape"/>
</filter>
</defs>
</svg>
