<svg width="107" height="107" viewBox="0 0 107 107" fill="none" xmlns="http://www.w3.org/2000/svg">
<circle cx="53.5" cy="53.5" r="53.5" fill="#EEF2FA"/>
<path d="M41.4918 58.7C40.7251 58.7 40.0585 58.4167 39.4918 57.85C38.9251 57.2833 38.6418 56.6167 38.6418 55.85V55.15C38.6418 54.3833 38.9251 53.7167 39.4918 53.15C40.0585 52.5833 40.7251 52.3 41.4918 52.3H49.6418C49.9418 52.3 50.0918 52.15 50.0918 51.85V43.85C50.0918 43.0833 50.3585 42.4167 50.8918 41.85C51.4585 41.2833 52.1251 41 52.8918 41H54.0918C54.8585 41 55.5085 41.2833 56.0418 41.85C56.6085 42.4167 56.8918 43.0833 56.8918 43.85V51.85C56.8918 52.15 57.0418 52.3 57.3418 52.3H65.4918C66.2585 52.3 66.9251 52.5833 67.4918 53.15C68.0585 53.7167 68.3418 54.3833 68.3418 55.15V55.85C68.3418 56.6167 68.0585 57.2833 67.4918 57.85C66.9251 58.4167 66.2585 58.7 65.4918 58.7H57.3418C57.0418 58.7 56.8918 58.85 56.8918 59.15V67.15C56.8918 67.9167 56.6085 68.5833 56.0418 69.15C55.5085 69.7167 54.8585 70 54.0918 70H52.8918C52.1251 70 51.4585 69.7167 50.8918 69.15C50.3585 68.5833 50.0918 67.9167 50.0918 67.15V59.15C50.0918 58.85 49.9418 58.7 49.6418 58.7H41.4918Z" fill="#FCA70C"/>
</svg>
