<svg width="70" height="70" viewBox="0 0 70 70" fill="none" xmlns="http://www.w3.org/2000/svg">
<circle cx="35" cy="35" r="35" fill="#7057D6" fill-opacity="0.2"/>
<g>
<path d="M36 16C35.6313 16 35.3333 16.298 35.3333 16.6667V25.528C35.3333 25.8967 35.6313 26.1947 36 26.1947C36.3687 26.1947 36.6667 25.8967 36.6667 25.528V17.3453C46.6527 17.6973 54.6667 25.9307 54.6667 36C54.6667 46.2927 46.2927 54.6667 36 54.6667C25.7073 54.6667 17.3333 46.2927 17.3333 36C17.3333 31.0267 19.2667 26.3473 22.7773 22.824C23.038 22.5627 23.0367 22.1413 22.776 21.8813C22.5147 21.6227 22.0933 21.6227 21.8333 21.8827C18.0713 25.6573 16 30.6713 16 36C16 47.028 24.972 56 36 56C47.028 56 56 47.028 56 36C56 24.972 47.028 16 36 16Z" fill="#7057D6"/>
<path d="M35.0367 38.3548C35.446 38.9181 36.0787 39.2721 36.7727 39.3261C36.8347 39.3315 36.8967 39.3335 36.958 39.3335C37.586 39.3335 38.19 39.0855 38.6374 38.6375C39.1287 38.1461 39.38 37.4668 39.326 36.7728C39.272 36.0788 38.918 35.4461 38.3534 35.0355L29.724 28.7935C29.46 28.6028 29.094 28.6321 28.862 28.8628C28.63 29.0948 28.6014 29.4601 28.7927 29.7248L35.0367 38.3548ZM37.57 36.1148C37.8174 36.2948 37.9727 36.5728 37.9967 36.8775C38.0207 37.1815 37.91 37.4795 37.6947 37.6955C37.4787 37.9108 37.1754 38.0208 36.876 37.9975C36.572 37.9741 36.294 37.8181 36.1154 37.5728L32.3067 32.3081L37.57 36.1148Z" fill="#7057D6"/>
</g>
</svg>
