<svg width="37" height="37" viewBox="0 0 37 37" fill="none" xmlns="http://www.w3.org/2000/svg">
<circle cx="18.5" cy="18.5" r="18.5" fill="#39C0F8" fill-opacity="0.2"/>
<path d="M18.7123 23.1973C18.4924 23.1973 18.3142 23.3755 18.3142 23.5954V24.4445C18.3142 24.6644 18.4924 24.8426 18.7123 24.8426C18.9322 24.8426 19.1104 24.6644 19.1104 24.4445V23.5954C19.1104 23.3755 18.9322 23.1973 18.7123 23.1973Z" fill="#39C0F8"/>
<path d="M30.759 17.4939C30.6036 17.3385 30.3971 17.253 30.1773 17.253C30.1773 17.253 30.1772 17.253 30.1772 17.253L29.1553 17.2531C29.1423 17.2531 29.1334 17.2386 29.1307 17.2251C28.8498 15.8472 28.2199 14.5483 27.3089 13.4686C26.4285 12.4251 25.3008 11.6044 24.0433 11.0889C23.8405 10.2326 23.4122 9.34983 22.5676 8.68621C21.75 8.04373 20.9264 7.9201 20.8918 7.91512C20.7777 7.89886 20.6619 7.93284 20.5747 8.00848C20.4875 8.08411 20.4374 8.19378 20.4374 8.30921V10.4589H18.9927C18.6356 9.23382 17.5034 8.33577 16.1646 8.33577C14.7974 8.33577 13.6449 9.27215 13.3142 10.5372C11.3458 10.8053 9.53491 11.7589 8.19116 13.2416C6.77817 14.8008 6 16.8192 6 18.925C6 23.6516 8.45386 27.4974 9.20601 28.5635C9.43833 28.8929 9.81885 29.0895 10.2239 29.0895H11.9183C12.6061 29.0895 13.1656 28.53 13.1656 27.8422V27.2911C13.5944 27.3572 14.03 27.391 14.4661 27.391H18.3143V27.8422C18.3143 28.53 18.8738 29.0895 19.5616 29.0895H21.4228C22.0071 29.0895 22.52 28.6748 22.6424 28.1035L22.8467 27.1502C25.4631 26.5131 27.5668 24.6775 28.6022 22.2955H30.1773C30.631 22.2955 31 21.9265 31 21.4728V18.0758C31 17.8559 30.9145 17.6493 30.759 17.4939ZM16.1646 9.13201C17.3499 9.13201 18.3142 10.0964 18.3142 11.2817C18.3142 11.5848 18.2493 11.8834 18.1271 12.1575H14.202C14.0798 11.8833 14.0148 11.5848 14.0148 11.2817C14.0148 10.0963 14.9792 9.13201 16.1646 9.13201ZM30.2038 21.4727C30.2038 21.4874 30.1919 21.4993 30.1772 21.4993H28.9015C29.1183 20.8204 29.2518 20.1064 29.2899 19.3702C29.3014 19.1507 29.1326 18.9634 28.913 18.952C28.6934 18.9409 28.5062 19.1094 28.4948 19.329C28.3262 22.5805 26.1131 25.3568 23.0343 26.2749L23.5905 23.6794C23.6366 23.4644 23.4996 23.2528 23.2846 23.2068C23.0698 23.1606 22.858 23.2976 22.812 23.5126L21.8639 27.9366C21.8196 28.1433 21.6341 28.2933 21.4228 28.2933H19.5615C19.3127 28.2933 19.1104 28.0909 19.1104 27.8421V26.1436C19.1104 25.9237 18.9321 25.7455 18.7123 25.7455C18.4924 25.7455 18.3142 25.9237 18.3142 26.1436V26.5948H14.466C14.0292 26.5948 13.5932 26.5572 13.1655 26.4843V23.5959C13.1655 23.376 12.9873 23.1978 12.7674 23.1978C12.5476 23.1978 12.3693 23.376 12.3693 23.5959V27.8422C12.3693 28.0909 12.1669 28.2933 11.9182 28.2933H10.2239C10.075 28.2933 9.94116 28.2245 9.85659 28.1046C9.13867 27.0868 6.79619 23.4172 6.79619 18.9249C6.79619 17.0171 7.50112 15.1886 8.7811 13.7762C9.95249 12.4836 11.5154 11.635 13.2199 11.3563C13.2268 11.6291 13.2715 11.8988 13.3518 12.1574H13.1921C12.9723 12.1574 12.794 12.3356 12.794 12.5555C12.794 12.7754 12.9723 12.9536 13.1921 12.9536H19.137C19.3568 12.9536 19.5351 12.7754 19.5351 12.5555C19.5351 12.3356 19.3568 12.1574 19.137 12.1574H18.9772C19.0649 11.8752 19.1104 11.5799 19.1104 11.2816C19.1104 11.2727 19.1098 11.2639 19.1097 11.2551H20.4374V12.1308C20.4374 12.3507 20.6156 12.5289 20.8354 12.5289C21.0553 12.5289 21.2335 12.3507 21.2335 12.1308V8.83191C21.9889 9.11775 23.4098 9.99573 23.4098 12.5555C23.4098 12.7754 23.588 12.9536 23.8079 12.9536C24.0277 12.9536 24.206 12.7754 24.206 12.5555C24.206 12.3869 24.1999 12.2088 24.1859 12.0248C25.1462 12.4926 26.0077 13.1611 26.7004 13.9822C27.5256 14.9602 28.0962 16.1366 28.3506 17.3842C28.4291 17.7697 28.7676 18.0494 29.1554 18.0493L30.1773 18.0492C30.18 18.0492 30.1883 18.0492 30.1961 18.057C30.2039 18.0648 30.2039 18.073 30.2039 18.0758V21.4727H30.2038Z" fill="#39C0F8"/>
<path d="M26.7286 17.5116C26.4816 16.8487 25.8275 16.4033 25.1013 16.4033C24.3751 16.4033 23.7211 16.8487 23.4739 17.5116C23.3971 17.7176 23.5019 17.9469 23.7079 18.0237C23.9139 18.1006 24.1432 17.9958 24.2199 17.7898C24.3516 17.4367 24.7058 17.1995 25.1013 17.1995C25.4968 17.1995 25.851 17.4367 25.9826 17.7898C26.0423 17.95 26.1942 18.0489 26.3557 18.0489C26.4019 18.0489 26.4489 18.0408 26.4947 18.0237C26.7007 17.9469 26.8054 17.7176 26.7286 17.5116Z" fill="#39C0F8"/>
<path d="M16.5626 18.621V16.5867C17.3436 16.6816 17.8896 17.0434 17.8896 17.3721C17.8896 17.5919 18.0678 17.7702 18.2877 17.7702C18.5076 17.7702 18.6858 17.5919 18.6858 17.3721C18.6858 16.5582 17.7808 15.9039 16.5626 15.7856V15.7399C16.5626 15.52 16.3844 15.3418 16.1645 15.3418C15.9447 15.3418 15.7665 15.52 15.7665 15.7399V15.7856C14.5483 15.9039 13.6433 16.5582 13.6433 17.3721C13.6433 18.5345 14.7917 18.9541 15.7665 19.2282V21.2625C14.9855 21.1676 14.4395 20.8058 14.4395 20.4771C14.4395 20.2573 14.2613 20.0791 14.0414 20.0791C13.8215 20.0791 13.6433 20.2573 13.6433 20.4771C13.6433 21.291 14.5483 21.9454 15.7665 22.0636V22.1093C15.7665 22.3292 15.9447 22.5074 16.1645 22.5074C16.3844 22.5074 16.5626 22.3292 16.5626 22.1093V22.0636C17.7808 21.9454 18.6858 21.291 18.6858 20.4771C18.6858 19.3146 17.5373 18.8952 16.5626 18.621ZM15.7665 18.3947C14.786 18.0871 14.4395 17.8076 14.4395 17.3721C14.4395 17.0434 14.9855 16.6816 15.7665 16.5867V18.3947ZM16.5626 21.2626V19.4546C17.5431 19.7621 17.8896 20.0416 17.8896 20.4772C17.8896 20.8059 17.3436 21.1677 16.5626 21.2626Z" fill="#39C0F8"/>
</svg>
