<svg width="41" height="39" viewBox="0 0 41 39" fill="none" xmlns="http://www.w3.org/2000/svg">
<g filter="url(#filter0_d)">
<path d="M8.4918 18.7C7.72513 18.7 7.05846 18.4167 6.4918 17.85C5.92513 17.2833 5.6418 16.6167 5.6418 15.85V15.15C5.6418 14.3833 5.92513 13.7167 6.4918 13.15C7.05846 12.5833 7.72513 12.3 8.4918 12.3H16.6418C16.9418 12.3 17.0918 12.15 17.0918 11.85V3.85C17.0918 3.08333 17.3585 2.41667 17.8918 1.85C18.4585 1.28333 19.1251 0.999998 19.8918 0.999998H21.0918C21.8585 0.999998 22.5085 1.28333 23.0418 1.85C23.6085 2.41667 23.8918 3.08333 23.8918 3.85V11.85C23.8918 12.15 24.0418 12.3 24.3418 12.3H32.4918C33.2585 12.3 33.9251 12.5833 34.4918 13.15C35.0585 13.7167 35.3418 14.3833 35.3418 15.15V15.85C35.3418 16.6167 35.0585 17.2833 34.4918 17.85C33.9251 18.4167 33.2585 18.7 32.4918 18.7H24.3418C24.0418 18.7 23.8918 18.85 23.8918 19.15V27.15C23.8918 27.9167 23.6085 28.5833 23.0418 29.15C22.5085 29.7167 21.8585 30 21.0918 30H19.8918C19.1251 30 18.4585 29.7167 17.8918 29.15C17.3585 28.5833 17.0918 27.9167 17.0918 27.15V19.15C17.0918 18.85 16.9418 18.7 16.6418 18.7H8.4918Z" fill="#FCA70C"/>
<path d="M6.4918 17.85L7.1989 17.1429L7.1989 17.1429L6.4918 17.85ZM6.4918 13.15L7.1989 13.8571L7.1989 13.8571L6.4918 13.15ZM17.8918 1.85L17.1847 1.14289L17.174 1.1536L17.1636 1.16463L17.8918 1.85ZM23.0418 1.85L22.3136 2.53536L22.324 2.54639L22.3347 2.5571L23.0418 1.85ZM34.4918 13.15L33.7847 13.8571L33.7847 13.8571L34.4918 13.15ZM34.4918 17.85L33.7847 17.1429L33.7847 17.1429L34.4918 17.85ZM23.0418 29.15L22.3347 28.4429L22.324 28.4536L22.3136 28.4646L23.0418 29.15ZM17.8918 29.15L17.1636 29.8354L17.174 29.8464L17.1847 29.8571L17.8918 29.15ZM8.4918 17.7C8.00344 17.7 7.5875 17.5315 7.1989 17.1429L5.78469 18.5571C6.52943 19.3018 7.44682 19.7 8.4918 19.7V17.7ZM7.1989 17.1429C6.81031 16.7543 6.6418 16.3384 6.6418 15.85H4.6418C4.6418 16.895 5.03995 17.8124 5.78469 18.5571L7.1989 17.1429ZM6.6418 15.85V15.15H4.6418V15.85H6.6418ZM6.6418 15.15C6.6418 14.6616 6.81031 14.2457 7.1989 13.8571L5.78469 12.4429C5.03995 13.1876 4.6418 14.105 4.6418 15.15H6.6418ZM7.1989 13.8571C7.5875 13.4685 8.00344 13.3 8.4918 13.3V11.3C7.44682 11.3 6.52943 11.6982 5.78469 12.4429L7.1989 13.8571ZM8.4918 13.3H16.6418V11.3H8.4918V13.3ZM16.6418 13.3C16.9459 13.3 17.3577 13.2233 17.6864 12.8946C18.0151 12.5659 18.0918 12.1541 18.0918 11.85H16.0918C16.0918 11.8459 16.0935 11.6591 16.2722 11.4804C16.4509 11.3017 16.6377 11.3 16.6418 11.3V13.3ZM18.0918 11.85V3.85H16.0918V11.85H18.0918ZM18.0918 3.85C18.0918 3.34229 18.2583 2.91963 18.62 2.53536L17.1636 1.16463C16.4586 1.9137 16.0918 2.82438 16.0918 3.85H18.0918ZM18.5989 2.5571C18.9875 2.16851 19.4034 2 19.8918 2V-2.14577e-06C18.8468 -2.14577e-06 17.9294 0.398152 17.1847 1.14289L18.5989 2.5571ZM19.8918 2H21.0918V-2.14577e-06H19.8918V2ZM21.0918 2C21.5781 2 21.966 2.16607 22.3136 2.53536L23.77 1.16463C23.0509 0.400597 22.1389 -2.14577e-06 21.0918 -2.14577e-06V2ZM22.3347 2.5571C22.7233 2.9457 22.8918 3.36164 22.8918 3.85H24.8918C24.8918 2.80503 24.4936 1.88763 23.7489 1.14289L22.3347 2.5571ZM22.8918 3.85V11.85H24.8918V3.85H22.8918ZM22.8918 11.85C22.8918 12.1541 22.9685 12.5659 23.2972 12.8946C23.6259 13.2233 24.0377 13.3 24.3418 13.3V11.3C24.3459 11.3 24.5327 11.3017 24.7114 11.4804C24.8901 11.6591 24.8918 11.8459 24.8918 11.85H22.8918ZM24.3418 13.3H32.4918V11.3H24.3418V13.3ZM32.4918 13.3C32.9802 13.3 33.3961 13.4685 33.7847 13.8571L35.1989 12.4429C34.4542 11.6982 33.5368 11.3 32.4918 11.3V13.3ZM33.7847 13.8571C34.1733 14.2457 34.3418 14.6616 34.3418 15.15H36.3418C36.3418 14.105 35.9436 13.1876 35.1989 12.4429L33.7847 13.8571ZM34.3418 15.15V15.85H36.3418V15.15H34.3418ZM34.3418 15.85C34.3418 16.3384 34.1733 16.7543 33.7847 17.1429L35.1989 18.5571C35.9436 17.8124 36.3418 16.895 36.3418 15.85H34.3418ZM33.7847 17.1429C33.3961 17.5315 32.9802 17.7 32.4918 17.7V19.7C33.5368 19.7 34.4542 19.3018 35.1989 18.5571L33.7847 17.1429ZM32.4918 17.7H24.3418V19.7H32.4918V17.7ZM24.3418 17.7C24.0377 17.7 23.6259 17.7767 23.2972 18.1054C22.9685 18.4341 22.8918 18.8459 22.8918 19.15H24.8918C24.8918 19.1541 24.8901 19.3409 24.7114 19.5196C24.5327 19.6983 24.3459 19.7 24.3418 19.7V17.7ZM22.8918 19.15V27.15H24.8918V19.15H22.8918ZM22.8918 27.15C22.8918 27.6384 22.7233 28.0543 22.3347 28.4429L23.7489 29.8571C24.4936 29.1124 24.8918 28.195 24.8918 27.15H22.8918ZM22.3136 28.4646C21.966 28.8339 21.5781 29 21.0918 29V31C22.1389 31 23.0509 30.5994 23.77 29.8354L22.3136 28.4646ZM21.0918 29H19.8918V31H21.0918V29ZM19.8918 29C19.4034 29 18.9875 28.8315 18.5989 28.4429L17.1847 29.8571C17.9294 30.6018 18.8468 31 19.8918 31V29ZM18.62 28.4646C18.2583 28.0804 18.0918 27.6577 18.0918 27.15H16.0918C16.0918 28.1756 16.4586 29.0863 17.1636 29.8354L18.62 28.4646ZM18.0918 27.15V19.15H16.0918V27.15H18.0918ZM18.0918 19.15C18.0918 18.8459 18.0151 18.4341 17.6864 18.1054C17.3577 17.7767 16.9459 17.7 16.6418 17.7V19.7C16.6377 19.7 16.4509 19.6983 16.2722 19.5196C16.0935 19.3409 16.0918 19.1541 16.0918 19.15H18.0918ZM16.6418 17.7H8.4918V19.7H16.6418V17.7Z" fill="black"/>
</g>
<defs>
<filter id="filter0_d" x="0.641846" y="0" width="39.7" height="39" filterUnits="userSpaceOnUse" color-interpolation-filters="sRGB">
<feFlood flood-opacity="0" result="BackgroundImageFix"/>
<feColorMatrix in="SourceAlpha" type="matrix" values="0 0 0 0 0 0 0 0 0 0 0 0 0 0 0 0 0 0 127 0"/>
<feOffset dy="4"/>
<feGaussianBlur stdDeviation="2"/>
<feColorMatrix type="matrix" values="0 0 0 0 0 0 0 0 0 0 0 0 0 0 0 0 0 0 0.25 0"/>
<feBlend mode="normal" in2="BackgroundImageFix" result="effect1_dropShadow"/>
<feBlend mode="normal" in="SourceGraphic" in2="effect1_dropShadow" result="shape"/>
</filter>
</defs>
</svg>
