<svg width="70" height="70" viewBox="0 0 70 70" fill="none" xmlns="http://www.w3.org/2000/svg">
<circle cx="35" cy="35" r="35" fill="#7057D6" fill-opacity="0.2"/>
<path d="M48.4532 44.4215L46.216 42.1446C45.9873 41.9115 45.6226 41.8806 45.358 42.072L35.6105 49.2524L32.1589 47.6289L35.1881 47.2923C35.5214 47.252 35.7712 46.968 35.7688 46.6323V43.7813C35.7688 43.4169 35.4734 43.1214 35.1089 43.1214H31.8091L26.2523 42.5538C26.1396 42.5428 26.0259 42.561 25.9223 42.6066L22.1341 44.2301H15V45.55H22.2727C22.3634 45.5508 22.4533 45.5328 22.5367 45.4972L26.2919 43.8539L31.7101 44.4083H34.4753V46.045L32.0335 46.3486L28.4895 45.9724C28.1703 45.9416 27.8751 46.1449 27.79 46.4542C27.704 46.7623 27.8514 47.0877 28.1397 47.2263L35.4587 50.5921C35.6746 50.6903 35.9265 50.6651 36.1186 50.5261L45.7144 43.4777L47.0343 44.8505L36.0064 54.4858H33.0168L22.4905 50.5723C22.4169 50.5432 22.3386 50.5275 22.2595 50.5261H15V51.846H22.1473L32.6671 55.7662C32.741 55.7931 32.8193 55.8064 32.898 55.8058H36.2506C36.4111 55.8055 36.5659 55.7469 36.6862 55.6408L48.4202 45.385C48.4314 45.3753 48.4422 45.3652 48.4526 45.3548C48.7105 45.0973 48.7108 44.6794 48.4532 44.4215Z" fill="#7057D6"/>
<path d="M50.2087 32.707L46.7241 29.0838C46.6131 28.9662 46.4628 28.8933 46.3017 28.8792L39.1742 28.2193H36.4552L36.5872 26.2394L39.1676 25.718L42.7709 26.5232C42.8452 26.536 42.9211 26.536 42.9953 26.5232L46.4997 26.1074L46.3413 24.7875L42.9491 25.1505L39.3194 24.3453C39.2306 24.3224 39.1376 24.3224 39.0488 24.3453L35.8348 25.0053C35.5389 25.062 35.319 25.3117 35.3002 25.6124L35.0891 28.8264C35.0882 28.84 35.0878 28.8536 35.0879 28.8672C35.0886 29.2316 35.3846 29.5266 35.749 29.526H39.1148L45.9387 30.1463L49.4497 33.8223C49.5737 33.9523 49.7453 34.0262 49.9249 34.0269H54.5974V32.707H50.2087Z" fill="#7057D6"/>
<path d="M49.0603 18.967C48.9874 18.9079 48.9014 18.8672 48.8095 18.8482L37.5902 16.2084C37.4002 16.1685 37.2023 16.2144 37.0491 16.3338L29.7896 21.6134L30.5683 22.6826L37.5836 17.5811L48.3673 20.1153L54.1948 24.6492L54.9999 23.5867L49.0603 18.967Z" fill="#7057D6"/>
<path d="M38.3427 20.2407C38.1706 20.1633 37.9736 20.1633 37.8015 20.2407L33.8418 22.2205L34.4358 23.3952L38.1315 21.554L41.1541 22.7881L41.6425 21.5606L38.3427 20.2407Z" fill="#7057D6"/>
<path d="M31.5188 27.5528L30.3573 27.3812C29.8293 27.302 29.5191 27.0974 29.5191 26.7675C29.5191 26.4375 29.9811 26.1075 30.6015 26.1405H31.0766C31.697 26.1405 32.159 26.4705 32.159 26.7675V26.9457H33.4789V26.7675C33.4789 25.6455 32.4229 24.7876 31.0766 24.7876H30.6015C29.2551 24.7876 28.1992 25.6455 28.1992 26.7675C28.3075 27.7968 29.1458 28.596 30.1791 28.6549L31.3208 28.8265C31.8488 28.9057 32.159 29.1433 32.159 29.4403C32.159 29.7373 31.697 30.0672 31.0766 30.0672H30.6015C29.9811 30.0672 29.5191 29.7373 29.5191 29.4403V29.2621H28.1992V29.4403C28.1992 30.5292 29.2815 31.3872 30.6015 31.3872H31.0766C32.4229 31.3872 33.4789 30.5292 33.4987 29.4733C33.4056 28.4311 32.5634 27.6141 31.5188 27.5528Z" fill="#7057D6"/>
<path d="M36.0724 28.7808C35.8325 30.5759 34.6892 32.1227 33.0436 32.8787C30.394 34.0961 27.2592 32.935 26.0418 30.2854C24.8245 27.6359 25.9856 24.5011 28.6351 23.2837C31.2847 22.0663 34.4195 23.2274 35.6369 25.877L36.8314 25.3226C35.7528 22.9852 33.4135 21.4883 30.8391 21.4883C27.1943 21.4882 24.2395 24.4429 24.2395 28.0878C24.2394 31.7326 27.1941 34.6873 30.839 34.6874C34.1515 34.6932 36.9551 32.2425 37.3924 28.959L36.0724 28.7808Z" fill="#7057D6"/>
<path d="M31.4989 24.1284H30.179V25.4483H31.4989V24.1284Z" fill="#7057D6"/>
</svg>
