<svg width="31" height="24" viewBox="0 0 31 24" fill="none" xmlns="http://www.w3.org/2000/svg">
<path d="M10.2484 11.19C11.415 11.7033 12.325 12.4733 12.9784 13.5C13.6317 14.5267 13.9584 15.74 13.9584 17.14C13.9584 19.1467 13.3284 20.78 12.0684 22.04C10.8084 23.2533 9.19836 23.86 7.23836 23.86C5.27836 23.86 3.64503 23.23 2.33836 21.97C1.07836 20.71 0.44836 19.1 0.44836 17.14C0.44836 16.2067 0.565026 15.2733 0.798359 14.34C1.03169 13.4067 1.54503 12.0067 2.33836 10.14L6.39836 0.059997H13.3284L10.2484 11.19ZM26.7684 11.19C27.935 11.7033 28.845 12.4733 29.4984 13.5C30.1517 14.5267 30.4784 15.74 30.4784 17.14C30.4784 19.1467 29.8484 20.78 28.5884 22.04C27.3284 23.2533 25.7184 23.86 23.7584 23.86C21.7984 23.86 20.165 23.23 18.8584 21.97C17.5984 20.71 16.9684 19.1 16.9684 17.14C16.9684 16.2067 17.085 15.2733 17.3184 14.34C17.5517 13.4067 18.065 12.0067 18.8584 10.14L22.9184 0.059997H29.8484L26.7684 11.19Z" fill="#EEF2FA"/>
</svg>
