<svg width="31" height="25" viewBox="0 0 31 25" fill="none" xmlns="http://www.w3.org/2000/svg">
<path d="M6.80836 0.499996C8.76836 0.499996 10.3784 1.13 11.6384 2.39C12.8984 3.60333 13.5284 5.21333 13.5284 7.22C13.5284 8.15333 13.4117 9.08667 13.1784 10.02C12.945 10.9533 12.455 12.3533 11.7084 14.22L7.64836 24.3H0.71836L3.72836 13.24C2.56169 12.7267 1.65169 11.9567 0.99836 10.93C0.345026 9.90333 0.0183594 8.66666 0.0183594 7.22C0.0183594 5.21333 0.648359 3.60333 1.90836 2.39C3.21503 1.13 4.84836 0.499996 6.80836 0.499996ZM23.3284 0.499996C25.2884 0.499996 26.8984 1.13 28.1584 2.39C29.4184 3.60333 30.0484 5.21333 30.0484 7.22C30.0484 8.15333 29.9317 9.08667 29.6984 10.02C29.465 10.9533 28.975 12.3533 28.2284 14.22L24.1684 24.3H17.2384L20.2484 13.24C19.0817 12.7267 18.1717 11.9567 17.5184 10.93C16.865 9.90333 16.5384 8.66666 16.5384 7.22C16.5384 5.21333 17.1684 3.60333 18.4284 2.39C19.735 1.13 21.3684 0.499996 23.3284 0.499996Z" fill="#EEF2FA"/>
</svg>
