<svg width="70" height="70" viewBox="0 0 70 70" fill="none" xmlns="http://www.w3.org/2000/svg">
<circle cx="35" cy="35" r="35" fill="#7057D6" fill-opacity="0.2"/>
<path d="M47.8518 28.8985V24.7407C47.8518 18.8185 42.5347 14 35.9999 14C29.4651 14 24.1481 18.8185 24.1481 24.7407V28.8985C21.6288 29.3326 19.7036 31.5281 19.7036 34.1704V48.6459C19.7036 51.5978 22.1058 54 25.0584 54H46.9414C49.894 54 52.2962 51.5978 52.2962 48.6452V34.1696C52.2962 31.5281 50.371 29.3326 47.8518 28.8985ZM25.6295 24.7407C25.6295 19.6348 30.2814 15.4815 35.9999 15.4815C41.7184 15.4815 46.3703 19.6348 46.3703 24.7407V28.8148H25.6295V24.7407ZM50.8147 48.6452C50.8147 50.7807 49.0769 52.5185 46.9414 52.5185H25.0584C22.9229 52.5185 21.1851 50.7807 21.1851 48.6452V34.1696C21.1851 32.0341 22.9229 30.2963 25.0584 30.2963H46.9414C49.0769 30.2963 50.8147 32.0341 50.8147 34.1696V48.6452Z" fill="#7057D6"/>
<path d="M35.9998 34.7407C34.3658 34.7407 33.0369 36.0696 33.0369 37.7037V42.1481C33.0369 43.7822 34.3658 45.1111 35.9998 45.1111C37.6339 45.1111 38.9628 43.7822 38.9628 42.1481V37.7037C38.9628 36.0696 37.6339 34.7407 35.9998 34.7407ZM37.4813 42.1481C37.4813 42.9652 36.8169 43.6296 35.9998 43.6296C35.1828 43.6296 34.5183 42.9652 34.5183 42.1481V37.7037C34.5183 36.8866 35.1828 36.2222 35.9998 36.2222C36.8169 36.2222 37.4813 36.8866 37.4813 37.7037V42.1481Z" fill="#7057D6"/>
</svg>
