<svg width="37" height="37" viewBox="0 0 37 37" fill="none" xmlns="http://www.w3.org/2000/svg">
<circle cx="18.5" cy="18.5" r="18.5" fill="#0BCCC9" fill-opacity="0.2"/>
<path d="M24.6235 9.81311C24.6335 9.81384 24.6435 9.81457 24.6537 9.81457C24.671 9.81457 24.6883 9.81311 24.7052 9.81075C25.1581 9.82003 25.5205 10.1894 25.5211 10.6423C25.5211 10.848 25.6879 11.0149 25.8937 11.0149C26.0995 11.0149 26.2663 10.848 26.2663 10.6423C26.2654 9.90154 25.7498 9.26071 25.0263 9.10132V8.74324C25.0263 8.53745 24.8595 8.37061 24.6537 8.37061C24.4479 8.37061 24.2811 8.53745 24.2811 8.74324V9.11824C23.5161 9.32275 23.0212 10.0627 23.1244 10.8479C23.2276 11.633 23.8968 12.22 24.6886 12.22C25.1484 12.22 25.5211 12.5928 25.5211 13.0526C25.5211 13.5122 25.1484 13.885 24.6886 13.885C24.2288 13.885 23.8562 13.5122 23.8562 13.0526C23.8562 12.8468 23.6894 12.6799 23.4836 12.6799C23.2778 12.6799 23.1109 12.8468 23.1109 13.0526C23.1119 13.7665 23.5915 14.3912 24.2811 14.5766V14.9849C24.2811 15.1907 24.4479 15.3575 24.6537 15.3575C24.8595 15.3575 25.0263 15.1907 25.0263 14.9849V14.5937C25.8133 14.4214 26.344 13.6838 26.2572 12.8828C26.1706 12.0819 25.4943 11.4749 24.6886 11.4751C24.2416 11.4752 23.8742 11.1222 23.8566 10.6756C23.8391 10.2289 24.1777 9.84805 24.6235 9.81329V9.81311Z" fill="#39C0F8"/>
<path d="M24.7098 6.54834C22.4174 6.54834 20.4611 8.04416 19.7282 10.0471H10.4794C10.2746 10.0471 10.1083 10.2318 10.1068 10.4364L10.0187 23.5085H7.38246C7.17667 23.5085 7 23.6576 7 23.8637V25.5225C7.00473 27.0842 8.23472 28.3672 9.79477 28.4378V28.446H21.2999V28.435C21.393 28.4385 21.4314 28.446 21.4904 28.446H21.4984C23.113 28.4434 24.4207 27.1337 24.4207 25.5191V17.1319C24.5139 17.137 24.6125 17.1397 24.7089 17.1397C27.6261 17.1397 30.0001 14.7612 30.0001 11.8438C30.0001 8.92662 27.6272 6.54834 24.7098 6.54834ZM9.93651 27.7007H9.93414C8.72872 27.699 7.75073 26.7243 7.74527 25.5187V24.2538H18.5517V25.5134C18.5522 26.2911 18.8628 27.0366 19.4145 27.5848C19.4536 27.6239 19.5022 27.6541 19.5432 27.7007H9.93651ZM23.6754 25.5187C23.6756 26.7221 22.7013 27.6983 21.498 27.7007H21.4909C20.2828 27.6985 19.303 26.7218 19.297 25.5138V23.8637C19.3001 23.7684 19.2637 23.6761 19.1962 23.6088C19.1287 23.5415 19.0364 23.5053 18.9413 23.5085H10.764L10.8495 10.7923H19.5213C19.4553 11.1335 19.4211 11.4799 19.4192 11.8273C19.4185 12.5618 19.5717 13.2882 19.869 13.9597H16.3494C16.1434 13.9597 15.9767 14.1266 15.9767 14.3324C15.9767 14.5382 16.1434 14.705 16.3494 14.705H20.2733C21.0421 15.9139 22.271 16.7567 23.6754 17.0387V25.5187ZM24.7098 16.3946C22.1996 16.3946 20.1645 14.3597 20.1647 11.8493C20.1647 9.33892 22.1996 7.30398 24.71 7.30398C27.2202 7.30398 29.2551 9.3391 29.2551 11.8493C29.2524 14.3584 27.2191 16.3919 24.7098 16.3946Z" fill="#39C0F8"/>
<path d="M13.9573 16.4404C13.2996 16.4404 12.7646 16.9584 12.7646 17.5953C12.7646 18.2321 13.2996 18.7501 13.9573 18.7501C14.6151 18.7501 15.1502 18.2321 15.1502 17.5953C15.1502 16.9584 14.6151 16.4404 13.9573 16.4404ZM13.9573 18.0048C13.7104 18.0048 13.5099 17.8211 13.5099 17.5953C13.5099 17.3693 13.7106 17.1857 13.9573 17.1857C14.2041 17.1857 14.4049 17.3695 14.4049 17.5953C14.4049 17.8211 14.2041 18.0048 13.9573 18.0048Z" fill="#39C0F8"/>
<path d="M15.9768 17.5933C15.9768 17.7991 16.1435 17.966 16.3494 17.966H21.3174C21.5232 17.966 21.6901 17.7991 21.6901 17.5933C21.6901 17.3876 21.5232 17.2207 21.3174 17.2207H16.3494C16.1435 17.2207 15.9768 17.3876 15.9768 17.5933Z" fill="#39C0F8"/>
<path d="M13.9573 13.2007C13.2996 13.2007 12.7646 13.7189 12.7646 14.3557C12.7646 14.9925 13.2996 15.5106 13.9573 15.5106C14.6151 15.5106 15.1502 14.9925 15.1502 14.3557C15.1502 13.7189 14.6151 13.2007 13.9573 13.2007ZM13.9573 14.7653C13.7104 14.7653 13.5099 14.5815 13.5099 14.3557C13.5099 14.1299 13.7106 13.946 13.9573 13.946C14.2041 13.946 14.4049 14.1297 14.4049 14.3557C14.4049 14.5815 14.2041 14.7655 13.9573 14.7655V14.7653Z" fill="#39C0F8"/>
<path d="M13.9573 19.6792C13.2996 19.6792 12.7646 20.1972 12.7646 20.834C12.7646 21.4709 13.2996 21.9889 13.9573 21.9889C14.6151 21.9889 15.1502 21.4709 15.1502 20.834C15.1502 20.1972 14.6151 19.6792 13.9573 19.6792ZM13.9573 21.2436C13.7104 21.2436 13.5099 21.06 13.5099 20.834C13.5099 20.6082 13.7106 20.4245 13.9573 20.4245C14.2041 20.4245 14.4049 20.6082 14.4049 20.834C14.4049 21.0598 14.2041 21.2436 13.9573 21.2436Z" fill="#39C0F8"/>
<path d="M21.3174 20.481H16.3494C16.1435 20.481 15.9768 20.6478 15.9768 20.8536C15.9768 21.0594 16.1435 21.2262 16.3494 21.2262H21.3174C21.5232 21.2262 21.6901 21.0594 21.6901 20.8536C21.6901 20.6478 21.5232 20.481 21.3174 20.481Z" fill="#39C0F8"/>
</svg>
