<svg width="37" height="37" viewBox="0 0 37 37" fill="none" xmlns="http://www.w3.org/2000/svg">
<circle cx="18.5" cy="18.5" r="18.5" fill="#09C911" fill-opacity="0.2"/>
<path d="M17.9652 10.5414C18.1824 10.5414 18.3586 10.3653 18.3586 10.148V8.3934C18.3586 8.17613 18.1824 8 17.9652 8C17.7479 8 17.5718 8.17613 17.5718 8.3934V10.148C17.5718 10.3653 17.7479 10.5414 17.9652 10.5414Z" fill="#20AA38"/>
<path d="M27.5812 21.5149L26.8863 20.8219C26.6391 20.575 26.3096 20.439 25.9585 20.439C25.734 20.439 25.5185 20.4948 25.3275 20.5995L24.0179 19.2914L24.0817 19.2277C24.613 18.6954 24.6128 17.8303 24.0816 17.2998C23.8918 17.1096 23.655 16.9828 23.3968 16.9295C23.4324 16.8068 23.4511 16.6783 23.4511 16.5467C23.4511 16.1813 23.3091 15.8387 23.0522 15.5828C22.8623 15.3926 22.6255 15.2658 22.3674 15.2124C22.4029 15.0898 22.4216 14.9613 22.4216 14.8297C22.4216 14.4642 22.2797 14.1216 22.0223 13.8653C21.8279 13.6712 21.589 13.5483 21.3381 13.496C21.4723 13.0332 21.3576 12.5126 20.9935 12.1479C20.6905 11.8461 20.2793 11.7164 19.883 11.7585L17.2879 11.2673C16.8921 11.1922 16.3978 11.1425 16.0858 11.4271C16.0662 11.4451 16.0461 11.4657 16.0263 11.4887C15.5426 11.3124 14.9783 11.4174 14.591 11.8044C14.334 12.061 14.1924 12.4035 14.1924 12.7688C14.1924 12.9003 14.211 13.0288 14.2466 13.1515C13.9887 13.2049 13.7521 13.3315 13.563 13.521C13.3055 13.7775 13.1635 14.1196 13.1632 14.4844C13.1631 14.6163 13.1818 14.7452 13.2175 14.8682C12.9595 14.9214 12.7228 15.0478 12.533 15.2374C12.2755 15.4946 12.1337 15.8373 12.1337 16.2023C12.1337 16.4819 12.2172 16.7483 12.3719 16.9733C12.1766 17.0395 11.9977 17.1497 11.8479 17.2994C11.3162 17.8303 11.316 18.6954 11.8482 19.2285L11.9118 19.2918L10.602 20.5992C10.1153 20.37 9.51554 20.4559 9.11386 20.8571L8.41847 21.5505C8.17112 21.7975 8.03495 22.1271 8.03491 22.4783C8.03491 22.8297 8.17112 23.1592 8.41847 23.4063L9.28632 24.2731C9.44003 24.4267 9.68913 24.4265 9.84265 24.2728C9.9962 24.1191 9.99604 23.87 9.84233 23.7165L8.97448 22.8497C8.87597 22.7513 8.82171 22.6194 8.82171 22.4784C8.82171 22.3374 8.87597 22.2056 8.97425 22.1074L9.66968 21.4139C9.84343 21.2404 10.1094 21.2145 10.3113 21.3353C10.3255 21.3566 10.342 21.3769 10.3608 21.3958C10.3945 21.4296 10.433 21.4555 10.4739 21.4744L14.4619 25.4566C14.4808 25.4979 14.5068 25.5367 14.5408 25.5707C14.5738 25.6038 14.6115 25.6294 14.6515 25.6482C14.7358 25.7436 14.7825 25.8654 14.7825 25.9953C14.7825 26.1363 14.7282 26.2681 14.6297 26.3665L13.935 27.0605C13.7297 27.2648 13.3958 27.2648 13.1911 27.0611L12.3233 26.1931C12.1696 26.0395 11.9206 26.0395 11.7669 26.1931C11.6133 26.3468 11.6133 26.5958 11.7669 26.7495L12.6354 27.618C12.891 27.8726 13.2267 27.9998 13.5626 27.9998C13.8985 27.9998 14.2346 27.8724 14.4906 27.6176L15.1857 26.9233C15.4331 26.6762 15.5693 26.3467 15.5693 25.9953C15.5693 25.7446 15.4996 25.5051 15.3699 25.2986L16.844 23.8264C16.8455 23.8247 16.8471 23.8231 16.8487 23.8215C17.0175 23.6471 17.4875 23.6797 17.9421 23.7113C18.2651 23.7337 18.6251 23.7587 18.9769 23.7181L20.5912 25.3305C20.4866 25.5211 20.4308 25.7364 20.4308 25.9605C20.4308 26.3115 20.567 26.6408 20.8143 26.8879L21.5095 27.5822C21.7567 27.8291 22.0862 27.9651 22.4373 27.9651C22.7883 27.9651 23.1178 27.8292 23.3651 27.5822L27.5815 23.3709C27.8289 23.1239 27.9651 22.7943 27.9651 22.443C27.965 22.0917 27.8288 21.7622 27.5812 21.5149ZM17.1414 12.0403L18.8479 12.3633L17.8265 13.3844C17.6685 13.3084 17.4519 13.1668 17.2143 12.9395C16.8891 12.6284 16.6565 12.2692 16.6353 12.0452C16.6353 12.0451 16.6353 12.045 16.6353 12.0449C16.6353 12.0448 16.6353 12.0448 16.6353 12.0448C16.6337 12.0287 16.6333 12.0158 16.6335 12.006C16.685 11.9935 16.8216 11.9796 17.1414 12.0403ZM15.1469 12.361C15.3462 12.1619 15.6558 12.139 15.881 12.2915C16.0087 12.8265 16.4651 13.3115 16.6705 13.508C16.8226 13.6536 17.311 14.0902 17.8039 14.2102C17.8705 14.3058 17.9068 14.4198 17.9068 14.54C17.9068 14.6949 17.8473 14.8397 17.7387 14.9481C17.6305 15.0565 17.4854 15.1162 17.3303 15.1162C17.1751 15.1162 17.03 15.0565 16.9213 14.9476L16.9212 14.9476L16.921 14.9474L15.1469 13.1764C15.0387 13.0684 14.9792 12.9236 14.9792 12.7688C14.9792 12.6139 15.0388 12.4691 15.1469 12.361ZM14.119 14.0777C14.2272 13.9693 14.3721 13.9096 14.527 13.9096C14.6821 13.9096 14.8275 13.9694 14.9364 14.0783L16.365 15.504C16.59 15.7293 16.59 16.096 16.3658 16.3205C16.257 16.4289 16.1114 16.4886 15.956 16.4886C15.8006 16.4886 15.655 16.4289 15.5467 16.321L15.5466 16.3209L14.4628 15.2374C14.4612 15.2357 14.4593 15.2341 14.4576 15.2324L14.1185 14.8935C14.0098 14.7848 13.9499 14.6398 13.95 14.485C13.9501 14.3307 14.0098 14.1864 14.119 14.0777ZM13.0891 15.794C13.1974 15.6859 13.3426 15.6263 13.498 15.6263C13.6521 15.6263 13.796 15.685 13.9039 15.7913L14.991 16.8779C15.0994 16.9859 15.1591 17.1305 15.1591 17.2852C15.1591 17.4399 15.0994 17.5845 14.9905 17.6929C14.8823 17.801 14.7372 17.8606 14.5821 17.8606C14.4267 17.8606 14.2812 17.8009 14.1728 17.6929L13.7787 17.2993C13.7786 17.2992 13.7785 17.2991 13.7784 17.299L13.0891 16.6105C12.9804 16.5019 12.9206 16.3569 12.9206 16.2023C12.9206 16.0476 12.9804 15.9026 13.0891 15.794ZM12.4039 17.856C12.5127 17.7473 12.6581 17.6875 12.8133 17.6875C12.9684 17.6875 13.1138 17.7473 13.2225 17.8559L13.6172 18.2501C13.7256 18.358 13.7853 18.5027 13.7853 18.6574C13.7853 18.8121 13.7256 18.9567 13.6164 19.0655C13.5081 19.1739 13.3631 19.2336 13.2079 19.2336C13.0527 19.2336 12.9077 19.1739 12.7987 19.0647L12.7492 19.0155C12.7486 19.0148 12.7481 19.0141 12.7475 19.0135C12.7467 19.0128 12.7459 19.0122 12.7452 19.0115L12.4043 18.6719C12.1793 18.4465 12.1791 18.0805 12.4039 17.856ZM20.4208 22.327C20.2673 22.1733 20.0182 22.1731 19.8645 22.3267L19.5145 22.6762C19.1819 23.0088 18.5793 22.9669 17.9966 22.9265C17.3637 22.8825 16.7093 22.8371 16.2858 23.2719L14.8368 24.7192L11.2132 21.1009L12.4956 19.8209C12.7075 19.9508 12.9521 20.0205 13.208 20.0205C13.5736 20.0205 13.9164 19.8787 14.1725 19.6222C14.4302 19.3655 14.5722 19.0229 14.5722 18.6574C14.5722 18.654 14.572 18.6506 14.572 18.6473C14.5754 18.6473 14.5788 18.6475 14.5822 18.6475C14.9473 18.6475 15.2898 18.5062 15.5462 18.2501C15.804 17.9934 15.946 17.6507 15.946 17.2853C15.946 17.2819 15.9457 17.2785 15.9457 17.2751C15.9492 17.2751 15.9526 17.2754 15.9561 17.2754C16.321 17.2754 16.6638 17.1342 16.9219 16.8772C17.1899 16.6088 17.3224 16.2554 17.3199 15.9028C17.3234 15.9028 17.3269 15.903 17.3304 15.903C17.696 15.903 18.0388 15.7613 18.2952 15.5044C18.5522 15.2477 18.6938 14.9052 18.6938 14.54C18.6938 14.2846 18.6243 14.0404 18.4948 13.8289L19.6188 12.7054C19.7025 12.622 19.8058 12.5696 19.9141 12.548C19.9258 12.5468 19.9373 12.5449 19.9488 12.5426C20.1224 12.5187 20.3048 12.5723 20.4376 12.7046C20.6626 12.9299 20.6626 13.2965 20.4385 13.5211L20.0962 13.862C20.095 13.8631 20.0938 13.8641 20.0927 13.8653L19.6984 14.2589C19.5447 14.4124 19.5445 14.6615 19.6981 14.8152C19.8517 14.9689 20.1007 14.969 20.2544 14.8155L20.5981 14.4723C20.5982 14.4723 20.5982 14.4722 20.5983 14.4721L20.6503 14.4203C20.8758 14.1968 21.2413 14.1973 21.4667 14.4223C21.5751 14.5303 21.6348 14.6749 21.6348 14.8296C21.6348 14.9843 21.5751 15.1289 21.4658 15.2378L21.1216 15.5827C21.1215 15.5828 21.1215 15.5828 21.1214 15.5829L20.7272 15.9755C20.5733 16.1288 20.5728 16.3779 20.7261 16.5318C20.8794 16.6858 21.1285 16.6862 21.2824 16.533L21.6784 16.1385C21.7867 16.0301 21.9317 15.9704 22.0869 15.9704C22.2421 15.9704 22.3871 16.0301 22.4962 16.1393C22.6046 16.2473 22.6643 16.392 22.6643 16.5467C22.6643 16.7013 22.6046 16.846 22.4955 16.9546L21.8092 17.6412C21.6556 17.7948 21.6557 18.0439 21.8093 18.1975C21.8861 18.2743 21.9867 18.3126 22.0874 18.3126C22.1881 18.3126 22.2888 18.2742 22.3656 18.1974L22.702 17.8609C22.7039 17.859 22.706 17.8574 22.7079 17.8555C22.8161 17.7471 22.9612 17.6874 23.1163 17.6874C23.2715 17.6874 23.4166 17.7471 23.5252 17.8559C23.7499 18.0804 23.7497 18.4464 23.5252 18.6714L23.1832 19.013C23.1831 19.0131 23.1829 19.0132 23.1828 19.0133C23.1827 19.0134 23.1826 19.0136 23.1824 19.0137L22.6396 19.5558C22.4859 19.7094 22.4858 19.9585 22.6393 20.1122C22.7161 20.1891 22.8169 20.2276 22.9176 20.2276C23.0182 20.2276 23.1189 20.1892 23.1957 20.1126L23.4612 19.8474L24.7337 21.1184L21.1105 24.7373L19.8123 23.4406C19.9028 23.3824 19.9894 23.314 20.0707 23.2327L20.4205 22.8833C20.5742 22.7298 20.5744 22.4807 20.4208 22.327ZM27.0255 22.8142L22.809 27.0255C22.7104 27.124 22.5783 27.1783 22.4373 27.1783C22.2962 27.1783 22.1641 27.124 22.0655 27.0255L21.3703 26.3312C21.2717 26.2328 21.2175 26.1012 21.2175 25.9605C21.2175 25.8199 21.2717 25.6882 21.3703 25.5898L25.5867 21.3785C25.6854 21.2799 25.8174 21.2257 25.9585 21.2257C26.0996 21.2257 26.2316 21.2799 26.3305 21.3787L27.0255 22.0717C27.124 22.1701 27.1783 22.3019 27.1783 22.443C27.1782 22.584 27.124 22.7158 27.0255 22.8142Z" fill="#20AA38"/>
<path d="M12.7414 10.21C12.8182 10.2866 12.9187 10.3249 13.0193 10.3249C13.1201 10.3249 13.2209 10.2864 13.2977 10.2094C13.4512 10.0556 13.451 9.80653 13.2972 9.65305L11.8637 8.22239C11.7099 8.06891 11.4608 8.06911 11.3073 8.22293C11.1539 8.37672 11.1541 8.62579 11.3079 8.77926L12.7414 10.21Z" fill="#20AA38"/>
<path d="M22.911 10.3249C23.0116 10.3249 23.1122 10.2865 23.189 10.2098L24.6214 8.77913C24.7751 8.62562 24.7753 8.37651 24.6217 8.2228C24.4682 8.06909 24.2191 8.06894 24.0654 8.22249L22.633 9.65319C22.4792 9.80671 22.4791 10.0558 22.6326 10.2095C22.7095 10.2864 22.8102 10.3249 22.911 10.3249Z" fill="#20AA38"/>
<path d="M10.4539 24.9223C10.3016 25.0772 10.3037 25.3263 10.4587 25.4786L10.4598 25.4797C10.5363 25.5549 10.6355 25.5923 10.7347 25.5923C10.8366 25.5923 10.9384 25.5529 11.0156 25.4744C11.1679 25.3195 11.1652 25.0698 11.0102 24.9175C10.8554 24.7652 10.6063 24.7674 10.4539 24.9223Z" fill="#20AA38"/>
<path d="M21.3832 21.7602C21.443 21.7602 21.5037 21.7466 21.5607 21.7179C21.7547 21.62 21.8326 21.3835 21.7348 21.1895C21.637 20.9955 21.4004 20.9175 21.2064 21.0154L21.2042 21.0165C21.0102 21.1143 20.9334 21.3503 21.0312 21.5443C21.1003 21.6814 21.2392 21.7602 21.3832 21.7602Z" fill="#20AA38"/>
</svg>
