<svg width="189" height="137" viewBox="0 0 189 137" fill="none" xmlns="http://www.w3.org/2000/svg">
<circle cx="107" cy="68.5" r="68" fill="white"/>
<path d="M184.096 20.5H147.097C144.877 20.5 142.903 22.4832 142.903 24.7143V25.2101C142.903 27.4412 144.877 29.4244 147.097 29.4244H183.849C186.069 29.4244 188.043 27.4412 188.043 25.2101V24.7143C188.043 22.4832 186.316 20.5 184.096 20.5Z" fill="#F8A899"/>
<path d="M96.6054 40.4463H41.417C40.0742 40.4463 39 38.4463 39 35.9463C39 33.4463 40.0742 31.4463 41.417 31.4463H96.6054C97.9482 31.4463 99.0225 33.4463 99.0225 35.9463C99.0225 38.4463 97.9482 40.4463 96.6054 40.4463Z" fill="#FFD943"/>
<path d="M66.7026 60.3884H6.83043C3.2381 60.3884 0.0449219 62.3716 0.0449219 64.6027V65.0985C0.0449219 67.3296 3.2381 69.3128 6.83043 69.3128H66.3035C69.8958 69.3128 73.089 67.3296 73.089 65.0985V64.6027C73.089 62.3716 70.2949 60.3884 66.7026 60.3884Z" fill="#39C0F8"/>
<path d="M142.904 71.4084L105.846 108.491L85.2194 129.11L72.3847 121.41L72.3705 121.401L64.6631 108.554L122.347 50.8521L136.481 57.2758L142.904 71.4084Z" fill="#FFAE3B"/>
<path d="M85.2197 129.11L83.5017 130.828C81.862 132.468 79.6852 133.483 77.3747 133.684L73.0892 134.058L66.4123 127.383L59.7109 120.684L60.0849 116.402C60.2879 114.091 61.3018 111.916 62.9428 110.275L64.6634 108.554L85.2197 129.11Z" fill="#FFDD7D"/>
<path d="M139.376 98.5375C139.187 98.3303 138.989 98.125 138.787 97.9232L138.786 97.9213C138.786 97.9213 138.786 97.9209 138.785 97.9205C138.785 97.9203 138.785 97.9202 138.785 97.9202C138.785 97.9198 138.785 97.9196 138.785 97.9196C134.664 93.8398 129.123 91.5173 123.32 91.5173C117.478 91.5173 111.984 93.7908 107.853 97.9196C103.723 102.05 101.447 107.54 101.447 113.381C101.447 119.222 103.721 124.71 107.851 128.841L107.853 128.842C108.06 129.05 108.271 129.251 108.486 129.448C108.809 129.749 109.142 130.038 109.481 130.316C113.376 133.511 118.215 135.247 123.32 135.247C129.161 135.247 134.654 132.973 138.785 128.842C142.916 124.714 145.191 119.222 145.191 113.381C145.191 107.827 143.134 102.59 139.376 98.5375Z" fill="#80D398"/>
<path d="M73.089 134.058L59.5103 135.244C59.248 135.264 58.9898 135.173 58.8035 134.992C58.7984 134.989 58.7932 134.984 58.7893 134.98C58.5991 134.79 58.5028 134.527 58.5258 134.259L59.7107 120.685C63.3498 120.808 66.6382 122.338 69.045 124.75C71.4442 127.155 72.9681 130.431 73.089 134.058Z" fill="#07485E"/>
<path d="M147.309 67.006L142.904 71.4083L122.348 50.8522L126.75 46.4523C132.417 40.7855 141.638 40.7855 147.308 46.4498L147.311 46.4536C150.056 49.1983 151.568 52.8477 151.568 56.7285C151.566 60.6104 150.055 64.2599 147.309 67.006Z" fill="#FF7127"/>
<path d="M132.985 108.849L122.412 119.554C121.902 120.072 121.207 120.363 120.481 120.365H120.473C119.75 120.365 118.918 120.03 118.407 119.518L113.86 114.882C112.795 113.817 112.795 112.091 113.86 111.026C114.923 109.961 116.65 109.961 117.715 111.026L120.461 113.772L129.105 105.018C130.163 103.946 131.906 103.88 132.978 104.938C134.048 105.997 134.043 107.776 132.985 108.849Z" fill="#F3EEE9"/>
<path d="M132.985 108.849L122.413 119.554C121.902 120.072 121.208 120.363 120.481 120.365H120.473C119.75 120.365 118.918 120.031 118.407 119.518L132.978 104.938C134.049 105.997 134.043 107.777 132.985 108.849Z" fill="#E9DFDA"/>
</svg>
