<svg width="195" height="143" viewBox="0 0 195 143" fill="none" xmlns="http://www.w3.org/2000/svg">
<circle cx="95.001" cy="68.5" r="68" fill="white"/>
<path d="M103.493 3.5H51.8534C48.7551 3.5 46.001 5.5 46.001 7.75V8.25C46.001 10.5 48.7551 12.5 51.8534 12.5H103.149C106.247 12.5 109.001 10.5 109.001 8.25V7.75C109.001 5.5 106.591 3.5 103.493 3.5Z" fill="#F8A899"/>
<path d="M191.739 32.5H117.263C115.451 32.5 114.001 30.5 114.001 28C114.001 25.5 115.451 23.5 117.263 23.5H191.739C193.551 23.5 195.001 25.5 195.001 28C195.001 30.5 193.551 32.5 191.739 32.5Z" fill="#FFD943"/>
<path d="M42.0541 44.9277H5.0546C2.83463 44.9277 0.861328 46.9109 0.861328 49.142V49.6378C0.861328 51.8689 2.83463 53.8521 5.0546 53.8521H41.8074C44.0274 53.8521 46.0007 51.8689 46.0007 49.6378V49.142C46.0007 46.9109 44.274 44.9277 42.0541 44.9277Z" fill="#39C0F8"/>
<path d="M102.255 92.236H77.0527C75.7393 92.236 74.5883 91.3575 74.242 90.0906C73.8957 88.8237 74.4398 87.4818 75.5704 86.8135C86.551 80.3251 92.2547 72.7564 93.007 63.6749C93.2694 60.5232 96.0765 58.0057 99.2631 58.0474C102.515 58.0993 105.561 59.4027 107.842 61.7177C110.126 64.0349 111.384 67.1035 111.385 70.3577C111.385 70.3581 111.385 70.3585 111.385 70.3589V71.3379C111.385 79.2874 109.031 84.3561 104.686 90.9286C104.146 91.7451 103.233 92.236 102.255 92.236Z" fill="#FFC380"/>
<path d="M133.14 95.5386C133.14 90.5044 129.045 86.4087 124.01 86.4087H77.0517C76.5299 86.4087 76.0177 86.5487 75.5688 86.8143C72.2725 88.7633 68.9441 90.3678 66.2698 91.6573C65.337 92.107 64.456 92.5318 63.6546 92.9324C62.6675 93.426 62.0439 94.4348 62.0439 95.5386V132.835C62.0439 133.939 62.6675 134.948 63.6546 135.442C75.4283 141.328 85.2151 142.039 96.6277 142.039C98.3951 142.039 100.203 142.022 102.061 142.005C104.117 141.985 106.242 141.965 108.47 141.965H117.682C122.716 141.965 126.812 137.87 126.812 132.835C126.812 131.143 126.349 129.556 125.543 128.196C128.166 126.59 129.92 123.698 129.92 120.403C129.92 118.71 129.457 117.124 128.651 115.763C131.274 114.158 133.028 111.265 133.028 107.971C133.028 105.603 132.122 103.443 130.638 101.819C132.254 100.116 133.14 97.8958 133.14 95.5386Z" fill="#FFCF99"/>
<path d="M127.078 70.1284H120.862C119.253 70.1284 117.948 68.8237 117.948 67.2146C117.948 65.6055 119.253 64.3008 120.862 64.3008H127.078C128.687 64.3008 129.992 65.6055 129.992 67.2146C129.992 68.8237 128.687 70.1284 127.078 70.1284Z" fill="#29CCB1"/>
<path d="M83.5655 70.1284H77.3493C75.7402 70.1284 74.4355 68.8237 74.4355 67.2146C74.4355 65.6055 75.7402 64.3008 77.3493 64.3008H83.5655C85.1746 64.3008 86.4793 65.6055 86.4793 67.2146C86.4793 68.8237 85.175 70.1284 83.5655 70.1284Z" fill="#29CCB1"/>
<path d="M92.8922 53.9791C91.8849 53.9791 90.9057 53.4565 90.3661 52.5218L87.2581 47.1384C86.4534 45.7449 86.931 43.9627 88.3245 43.1582C89.718 42.3536 91.5002 42.8311 92.3047 44.2246L95.4127 49.608C96.2174 51.0015 95.7398 52.7837 94.3463 53.5882C93.8876 53.8532 93.3864 53.9791 92.8922 53.9791Z" fill="#29CCB1"/>
<path d="M111.535 53.979C111.041 53.979 110.54 53.8532 110.081 53.5881C108.688 52.7835 108.21 51.0014 109.015 49.6079L112.123 44.2245C112.927 42.831 114.71 42.3531 116.103 43.1581C117.497 43.9628 117.974 45.7448 117.17 47.1383L114.061 52.5217C113.522 53.4565 112.543 53.979 111.535 53.979Z" fill="#29CCB1"/>
<path d="M55.3999 126.656V142.002H49.5723V126.656C49.5723 125.048 50.8777 123.742 52.4861 123.742C54.0944 123.742 55.3999 125.048 55.3999 126.656Z" fill="#73C3FF"/>
<path d="M127.078 70.1284H120.862C119.253 70.1284 117.948 68.8237 117.948 67.2146C117.948 65.6055 119.253 64.3008 120.862 64.3008H127.078C128.687 64.3008 129.992 65.6055 129.992 67.2146C129.992 68.8237 128.687 70.1284 127.078 70.1284Z" fill="#29CCB1"/>
<path d="M83.5655 70.1284H77.3493C75.7402 70.1284 74.4355 68.8237 74.4355 67.2146C74.4355 65.6055 75.7402 64.3008 77.3493 64.3008H83.5655C85.1746 64.3008 86.4793 65.6055 86.4793 67.2146C86.4793 68.8237 85.175 70.1284 83.5655 70.1284Z" fill="#29CCB1"/>
<path d="M92.8922 53.9791C91.8849 53.9791 90.9057 53.4565 90.3661 52.5218L87.2581 47.1384C86.4534 45.7449 86.931 43.9627 88.3245 43.1582C89.718 42.3536 91.5002 42.8311 92.3047 44.2246L95.4127 49.608C96.2174 51.0015 95.7398 52.7837 94.3463 53.5882C93.8876 53.8532 93.3864 53.9791 92.8922 53.9791Z" fill="#29CCB1"/>
<path d="M111.535 53.979C111.041 53.979 110.54 53.8532 110.081 53.5881C108.688 52.7835 108.21 51.0014 109.015 49.6079L112.123 44.2245C112.927 42.831 114.71 42.3531 116.103 43.1581C117.497 43.9628 117.974 45.7448 117.17 47.1383L114.061 52.5217C113.522 53.4565 112.543 53.979 111.535 53.979Z" fill="#29CCB1"/>
<path d="M55.3999 126.656V142.002H49.5723V126.656C49.5723 125.048 50.8777 123.742 52.4861 123.742C54.0944 123.742 55.3999 125.048 55.3999 126.656Z" fill="#73C3FF"/>
<path d="M64.9188 86.4087H40.0544C38.4461 86.4087 37.1406 87.7142 37.1406 89.3225V139.051C37.1406 140.662 38.4461 141.965 40.0544 142.002H58.7027C62.2749 141.965 65.3733 139.904 66.8711 136.909C67.4869 135.683 67.8326 134.298 67.8326 132.835V89.3225C67.8326 87.714 66.5272 86.4087 64.9188 86.4087Z" fill="#44A4EC"/>
<path d="M55.3999 126.461V142.002H49.5723V126.461C49.5723 124.853 50.8777 123.547 52.4861 123.547C54.0944 123.547 55.3999 124.853 55.3999 126.461Z" fill="#73C3FF"/>
</svg>
