<svg width="199" height="158" viewBox="0 0 199 158" fill="none" xmlns="http://www.w3.org/2000/svg">
<circle cx="100.501" cy="68.5" r="68" fill="white"/>
<path d="M165.579 11H113.939C110.841 11 108.087 13 108.087 15.25V15.75C108.087 18 110.841 20 113.939 20H165.234C168.333 20 171.087 18 171.087 15.75V15.25C171.087 13 168.677 11 165.579 11Z" fill="#F8A899"/>
<path d="M78.1699 38.9463H3.69339C1.8813 38.9463 0.431641 36.9463 0.431641 34.4463C0.431641 31.9463 1.8813 29.9463 3.69339 29.9463H78.1699C79.982 29.9463 81.4316 31.9463 81.4316 34.4463C81.4316 36.9463 79.982 38.9463 78.1699 38.9463Z" fill="#FFD943"/>
<path d="M194.076 28.0378H157.076C154.856 28.0378 152.883 30.021 152.883 32.2521V32.7479C152.883 34.9791 154.856 36.9623 157.076 36.9623H193.829C196.049 36.9623 198.022 34.9791 198.022 32.7479V32.2521C198.022 30.021 196.296 28.0378 194.076 28.0378Z" fill="#39C0F8"/>
<g clip-path="url(#clip0)">
<path d="M110.613 137.682L107.591 125.547H91.5473L88.5254 137.682H110.613Z" fill="#D1D6DE"/>
<path d="M108.772 130.288L107.591 125.547H91.5479L90.3672 130.288H108.772Z" fill="#A2ADBC"/>
<path d="M142.148 51.2703H56.9908C53.4118 51.2703 50.5 54.1823 50.5 57.7611V120.8C50.5 124.379 53.4118 127.291 56.9908 127.291H142.148C145.727 127.291 148.639 124.379 148.639 120.8V57.7611C148.639 54.1823 145.727 51.2703 142.148 51.2703Z" fill="#5C9CEE"/>
<path d="M142.148 51.2703H134.254C137.833 51.2703 140.745 54.182 140.745 57.7611V120.8C140.745 124.379 137.833 127.291 134.254 127.291H142.148C145.727 127.291 148.639 124.379 148.639 120.8V57.7611C148.639 54.1823 145.727 51.2703 142.148 51.2703Z" fill="#3580D3"/>
<path d="M50.5 114.63V120.8C50.5 124.379 53.4118 127.291 56.9908 127.291H142.148C145.727 127.291 148.639 124.379 148.639 120.8V114.63H50.5Z" fill="#EBEEF2"/>
<path d="M140.745 120.8C140.745 124.379 137.833 127.291 134.254 127.291H142.148C145.727 127.291 148.639 124.379 148.639 120.8V114.63H140.745V120.8Z" fill="#D1D6DE"/>
<path d="M65.7764 65.1978V70.5037H115.922C116.308 70.5037 116.62 70.1916 116.62 69.8064V65.895C116.62 65.5099 116.308 65.1978 115.922 65.1978H65.7764Z" fill="#9FD479"/>
<path d="M65.7764 74.8154C64.8137 74.8154 64.0332 74.0352 64.0332 73.0723V62.6282C64.0332 61.6652 64.8137 60.885 65.7764 60.885C66.7391 60.885 67.5195 61.6652 67.5195 62.6282V73.0723C67.5195 74.0354 66.7393 74.8154 65.7764 74.8154Z" fill="#1B3D66"/>
<path d="M65.7764 82.0518V87.3577H96.3877C96.7728 87.3577 97.0849 87.0456 97.0849 86.6604V82.749C97.0849 82.3639 96.7728 82.0518 96.3877 82.0518H65.7764Z" fill="#ED5575"/>
<path d="M65.7764 91.6697C64.8137 91.6697 64.0332 90.8894 64.0332 89.9265V79.4824C64.0332 78.5195 64.8137 77.7393 65.7764 77.7393C66.7391 77.7393 67.5195 78.5195 67.5195 79.4824V89.9265C67.5195 90.8892 66.7393 91.6697 65.7764 91.6697Z" fill="#1B3D66"/>
<path d="M65.7764 98.9055V104.211H107.389C107.774 104.211 108.086 103.899 108.086 103.514V99.6028C108.086 99.2177 107.774 98.9055 107.389 98.9055H65.7764Z" fill="#F2DF33"/>
<path d="M65.7764 108.524C64.8137 108.524 64.0332 107.743 64.0332 106.781V96.3364C64.0332 95.3735 64.8137 94.5933 65.7764 94.5933C66.7391 94.5933 67.5195 95.3735 67.5195 96.3364V106.781C67.5195 107.743 66.7393 108.524 65.7764 108.524Z" fill="#1B3D66"/>
<path d="M143.743 68.1108C129.541 68.1108 117.987 79.665 117.987 93.8668C117.987 108.069 129.541 119.623 143.743 119.623C157.945 119.623 169.499 108.069 169.499 93.8671C169.499 79.665 157.945 68.1108 143.743 68.1108Z" fill="#48CFB7"/>
<path d="M151.617 69.3435C159.335 73.7967 164.542 82.1367 164.542 91.6699C164.542 105.872 152.988 117.426 138.786 117.426C136.041 117.426 133.396 116.993 130.913 116.194C134.693 118.374 139.075 119.623 143.744 119.623C157.946 119.623 169.5 108.069 169.5 93.8675C169.5 82.4102 161.98 72.6781 151.617 69.3435Z" fill="#35B5A0"/>
<path d="M143.744 82.6824C135.954 82.6824 129.236 87.2583 126.123 93.867C129.236 100.476 135.954 105.052 143.744 105.052C151.533 105.052 158.251 100.476 161.364 93.867C158.251 87.2585 151.533 82.6824 143.744 82.6824Z" fill="#EBEEF2"/>
<path d="M143.744 84.7292C142.118 84.7292 140.593 85.1555 139.27 85.8997C140.463 86.6402 141.26 87.958 141.26 89.4655C141.26 91.7842 139.381 93.6638 137.062 93.6638C136.166 93.6638 135.338 93.3809 134.656 92.903C134.623 93.2201 134.605 93.5417 134.605 93.8674C134.605 98.9142 138.697 103.005 143.744 103.005C148.791 103.005 152.882 98.9142 152.882 93.8674C152.882 88.8206 148.79 84.7292 143.744 84.7292Z" fill="#2E344C"/>
<path d="M117.728 135.939H81.4097C78.5163 135.939 76.1621 138.293 76.1621 141.186V143.879C76.1621 144.842 76.9426 145.622 77.9053 145.622H121.233C122.195 145.622 122.976 144.842 122.976 143.879V141.186C122.976 138.292 120.622 135.939 117.728 135.939Z" fill="#EBEEF2"/>
<path d="M117.728 135.939H111.597C114.49 135.939 116.844 138.293 116.844 141.186V143.879C116.844 144.842 116.064 145.622 115.101 145.622H121.233C122.196 145.622 122.976 144.842 122.976 143.879V141.186C122.976 138.292 120.622 135.939 117.728 135.939Z" fill="#D1D6DE"/>
</g>
<defs>
<clipPath id="clip0">
<rect width="119" height="119" fill="white" transform="translate(50.5 38.9463)"/>
</clipPath>
</defs>
</svg>
