<svg width="702" height="691" viewBox="0 0 702 691" fill="none" xmlns="http://www.w3.org/2000/svg">
<path d="M321.043 273.788C200.659 281.818 117.334 221.433 64.7992 301.039C37.4421 332.717 43.5454 400.768 67.9433 431.457C122.427 500.193 204.901 496.956 280.854 497.902C309.922 498.296 339.312 504.384 366.398 515.935C384.679 523.849 402.181 534.224 421.243 540.208C440.305 546.193 462.006 547.302 478.233 537.025C514.299 514.21 504.639 459.328 532.548 429.798C557.312 403.733 596.456 404.056 627.397 388.63C665.066 369.928 677.985 324.529 657.295 286.352C638.303 250.962 595.958 215.606 554.624 210.883C439.529 197.948 417.042 267.384 321.043 273.788Z" fill="#8168E6"/>
<path d="M508.849 303.539C508.849 291.373 511.538 281.313 516.916 273.359C522.528 265.404 530.596 256.631 541.118 247.039C548.835 240.02 554.447 234.171 557.955 229.492C561.696 224.579 563.567 219.081 563.567 212.998C563.567 204.342 560.059 197.557 553.044 192.644C546.263 187.497 537.143 184.923 525.685 184.923C514.695 184.923 504.874 187.263 496.222 191.942C487.803 196.387 480.671 202.704 474.825 210.892L432.384 185.976C442.205 171.003 455.417 159.422 472.019 151.233C488.856 143.045 508.732 138.951 531.648 138.951C558.539 138.951 580.052 144.683 596.187 156.146C612.556 167.61 620.74 183.519 620.74 203.874C620.74 213.466 619.103 221.888 615.83 229.141C612.79 236.394 608.931 242.593 604.255 247.741C599.812 252.654 593.966 258.386 586.717 264.936C578.065 272.657 571.751 279.208 567.776 284.589C563.801 289.736 561.813 296.053 561.813 303.539H508.849ZM535.506 391.624C525.919 391.624 517.852 388.582 511.304 382.5C504.99 376.183 501.834 368.579 501.834 359.689C501.834 350.798 504.99 343.429 511.304 337.58C517.618 331.497 525.685 328.456 535.506 328.456C545.327 328.456 553.395 331.497 559.708 337.58C566.022 343.429 569.179 350.798 569.179 359.689C569.179 368.579 565.905 376.183 559.358 382.5C553.044 388.582 545.094 391.624 535.506 391.624Z" fill="#785AEF"/>
<path d="M299.586 213.488C300.254 211.279 301.298 209.601 302.717 208.454C304.179 207.32 306.135 206.173 308.584 205.012C310.379 204.164 311.726 203.412 312.623 202.756C313.577 202.071 314.22 201.176 314.554 200.072C315.03 198.5 314.762 197.074 313.75 195.795C312.794 194.485 311.269 193.514 309.176 192.881C307.168 192.274 305.246 192.156 303.408 192.527C301.626 192.869 299.976 193.622 298.459 194.786L292.074 187.917C294.69 185.741 297.74 184.368 301.222 183.799C304.748 183.242 308.604 183.597 312.79 184.863C317.702 186.349 321.318 188.578 323.636 191.551C325.996 194.537 326.618 197.878 325.5 201.574C324.973 203.316 324.212 204.755 323.215 205.891C322.262 207.039 321.216 207.952 320.079 208.628C318.998 209.275 317.615 209.993 315.931 210.781C313.926 211.705 312.413 212.546 311.392 213.303C310.383 214.018 309.673 215.055 309.262 216.415L299.586 213.488ZM299.618 230.955C297.867 230.425 296.56 229.427 295.698 227.961C294.892 226.465 294.733 224.91 295.221 223.296C295.709 221.682 296.69 220.518 298.165 219.805C299.653 219.049 301.293 218.943 303.087 219.485C304.882 220.028 306.188 221.026 307.008 222.479C307.84 223.89 308.012 225.403 307.524 227.017C307.035 228.631 306.02 229.831 304.477 230.616C302.989 231.372 301.37 231.485 299.618 230.955Z" fill="#785AEF"/>
<path d="M575.979 487.518C574.281 484.715 573.501 482.02 573.638 479.432C573.83 476.811 574.476 473.657 575.577 469.97C576.387 467.27 576.872 465.135 577.033 463.564C577.215 461.907 576.881 460.377 576.033 458.976C574.825 456.981 573.066 455.91 570.754 455.763C568.464 455.528 565.991 456.215 563.334 457.824C560.786 459.366 558.836 461.284 557.483 463.576C556.151 465.782 555.379 468.239 555.166 470.946L541.851 471.161C542.039 466.333 543.487 461.81 546.193 457.593C548.954 453.343 552.991 449.61 558.303 446.393C564.537 442.619 570.324 440.92 575.664 441.297C581.058 441.642 585.175 444.159 588.014 448.849C589.353 451.059 590.148 453.229 590.401 455.36C590.708 457.458 590.678 459.428 590.312 461.271C589.968 463.026 589.412 465.167 588.645 467.694C587.717 470.688 587.167 473.083 586.996 474.881C586.792 476.625 587.213 478.36 588.257 480.085L575.979 487.518ZM594.447 504.074C592.224 505.419 589.929 505.851 587.563 505.368C585.218 504.799 583.426 503.49 582.185 501.441C580.945 499.393 580.649 497.252 581.297 495.018C581.912 492.73 583.358 490.897 585.634 489.518C587.911 488.14 590.206 487.708 592.518 488.224C594.798 488.685 596.558 489.94 597.798 491.989C599.038 494.038 599.34 496.249 598.703 498.624C598.088 500.911 596.669 502.728 594.447 504.074Z" fill="#785AEF"/>
<path d="M238.18 156.834C229.406 152.656 220.736 180.544 220.736 180.544C205.8 200.181 185.014 174.068 187.103 203.419C190.654 254.914 127.879 219.609 156.812 273.297C185.745 326.985 131.222 303.692 149.187 347.039C167.153 390.386 143.86 441.985 170.913 420.782C170.913 420.782 194.728 368.452 219.378 352.262C243.924 336.072 204.651 316.853 212.38 294.918C223.556 262.956 250.505 264.21 231.077 229.95C211.649 195.69 267.948 171.039 238.18 156.834Z" fill="#9090F4"/>
<path d="M162.349 401.145C174.047 392.893 187.835 335.341 188.67 301.081C189.088 283.533 194.311 276.221 198.906 269.745C203.293 263.583 207.054 258.256 204.86 246.035C200.682 222.638 211.754 212.611 211.858 212.506L210.605 211.044C210.083 211.462 198.593 221.907 202.98 246.453C205.069 257.838 201.622 262.643 197.34 268.701C192.848 275.072 187.208 282.906 186.79 301.081C185.955 337.847 171.854 392.162 161.304 399.578L162.349 401.145Z" fill="white"/>
<path d="M157.961 405.427C159.528 405.427 161.095 405.218 162.975 404.905C167.466 403.965 170.496 401.562 171.749 397.802C174.883 388.715 167.571 374.092 161.617 366.989C161.513 366.885 151.59 354.664 152.634 337.847C152.843 335.027 153.157 332.416 153.366 330.118C154.097 323.433 154.619 318.628 151.799 315.39C149.292 312.57 144.383 311.317 135.505 311.317C119.837 311.212 113.674 304.736 108.765 299.618C106.676 297.425 104.691 295.336 102.289 293.978C94.4553 289.695 86.2036 289.069 82.6523 292.516C80.9811 294.082 79.5188 297.32 82.3389 303.17C84.9502 308.497 88.2927 311.943 90.9039 314.659C94.5597 318.315 96.8576 320.822 95.6042 325.627C95.2909 326.775 94.9775 327.924 94.6642 329.073C92.2618 337.325 89.5461 346.621 103.647 352.993C106.676 354.351 109.392 355.395 111.794 356.335C121.613 360.2 127.566 362.498 134.251 376.703C135.504 379.419 136.653 382.03 137.802 384.537C143.025 396.34 147.099 405.427 157.961 405.427ZM101.245 295.44C103.438 296.589 105.214 298.469 107.303 300.663C112.525 306.094 119.001 312.884 135.505 312.988C143.652 312.988 148.248 314.137 150.337 316.435C152.634 319.046 152.112 323.433 151.485 329.7C151.172 331.998 150.963 334.714 150.754 337.534C149.605 355.186 159.737 367.511 160.155 368.034C166.004 375.032 172.689 389.028 169.973 396.967C168.929 400.1 166.422 401.98 162.557 402.816C149.292 405.532 145.636 397.175 139.578 383.388C138.429 380.881 137.28 378.27 136.027 375.45C129.029 360.618 122.448 358.006 112.525 354.142C110.123 353.202 107.407 352.157 104.483 350.799C91.9484 345.159 94.1419 337.429 96.5443 329.178C96.8576 328.029 97.2754 326.88 97.4843 325.627C98.9466 319.673 96.022 316.644 92.2618 312.779C89.5461 309.959 86.517 306.825 84.0102 301.812C82.7567 299.096 81.7122 295.545 83.9057 293.456C86.8303 290.949 94.3508 291.68 101.245 295.44Z" fill="url(#paint0_linear)"/>
<path d="M162.766 416.603L164.751 416.499C164.647 414.723 162.244 371.689 145.01 359.155C126.104 345.367 120.15 330.535 117.33 320.613C113.988 308.914 96.9623 305.78 96.2311 305.676L95.9178 307.556C96.1267 307.556 112.525 310.585 115.45 321.135C118.375 331.371 124.537 346.621 143.861 360.722C160.26 372.734 162.766 416.185 162.766 416.603Z" fill="url(#paint1_linear)"/>
<path d="M123.283 200.181C135.504 196.003 132.997 219.609 138.22 237.052C143.442 254.495 195.877 244.677 173.838 288.442C151.798 332.207 201.622 303.065 186.79 341.294C171.957 379.523 185.536 420.363 169.346 409.918C153.156 399.578 160.259 351.426 143.442 345.681C126.626 339.936 123.91 333.251 140.518 317.793C157.23 302.229 96.8572 286.875 111.794 255.435C126.521 224.1 109.182 204.986 123.283 200.181Z" fill="#555BE4"/>
<path d="M161.826 408.143C163.393 401.562 176.554 344.114 164.228 337.116C153.365 330.953 153.679 307.139 155.35 284.682C156.812 264.732 131.222 255.435 130.177 255.018L129.551 256.898C129.76 257.002 154.828 266.089 153.47 284.577C151.694 307.661 151.59 332.207 163.288 338.892C172.584 344.219 164.019 390.386 159.946 407.829L161.826 408.143Z" fill="white"/>
<path d="M133.938 387.566L151.382 453.997H190.551L207.994 387.566H133.938Z" fill="url(#paint2_linear)"/>
<path d="M133.937 387.566C133.937 387.566 172.48 394.773 172.48 453.997H190.55L208.098 387.566H133.937Z" fill="url(#paint3_linear)"/>
<path d="M325.647 295.441C325.647 295.441 321.9 296.21 320.074 296.21C318.249 296.306 309.987 292.463 307.297 292.847C304.607 293.232 287.313 300.533 286.545 301.11C285.776 301.686 286.929 302.839 286.929 302.839L326.607 303.319L325.647 295.441Z" fill="#EEA886"/>
<path d="M273.111 302.599L339.113 303.097L339.068 309.15L273.065 308.652L273.111 302.599Z" fill="#323657"/>
<path d="M259.4 243.741L278.706 306.86L272.918 308.63L253.612 245.512L259.4 243.741Z" fill="#323657"/>
<path d="M393.57 430.809L396.164 436.285C396.164 436.285 406.925 432.25 406.925 432.154C407.021 432.058 403.946 424.468 403.946 424.468L393.57 430.809Z" fill="#515269"/>
<path d="M301.725 430.713L298.746 439.36C298.746 439.36 310.563 441.954 312.197 441.858C312.389 441.858 314.406 432.058 314.406 432.058L301.725 430.713Z" fill="#6A6B8A"/>
<path d="M313.541 439.263C313.541 439.263 305.279 437.054 305.087 436.67C304.799 436.285 301.82 434.268 300.283 434.556C298.746 434.844 298.554 436.67 297.017 437.054C295.479 437.438 283.47 441.281 281.741 442.242C280.108 443.203 272.134 440.32 270.596 442.434C269.059 444.451 267.618 449.928 280.108 451.753C292.597 453.578 305.951 459.247 308.93 458.478C311.908 457.71 314.022 442.626 313.541 439.263Z" fill="#C4C6D1"/>
<path d="M407.79 430.713C407.79 430.713 400.2 433.98 399.719 433.884C399.335 433.788 395.78 433.98 394.724 435.133C393.667 436.286 394.724 437.823 393.763 438.976C392.802 440.225 387.326 447.43 385.789 449.063C384.444 450.408 377.334 451.657 375.029 454.059C373.299 455.885 375.317 463.09 387.518 459.631C399.335 456.269 413.938 450.505 415.764 448.103C417.685 445.701 410.095 433.019 407.79 430.713Z" fill="#C4C6D1"/>
<path d="M399.912 322.63C399.912 322.63 366.382 337.522 359.273 342.614C352.163 347.705 336.599 357.121 336.119 359.426C335.639 361.732 332.564 359.522 338.04 370.955C343.517 382.484 369.649 410.057 372.05 413.035C374.644 416.206 392.706 434.94 392.706 434.94L406.349 424.66C406.349 424.66 380.217 386.135 376.374 380.563C372.627 374.894 370.898 374.03 373.107 371.532C375.317 369.034 384.252 369.034 430.367 350.011C434.979 348.09 447.852 343.67 449.486 337.522C452.56 326.377 449.966 312.158 437.573 306.01C425.179 299.765 399.912 322.63 399.912 322.63Z" fill="#34395C"/>
<path d="M383.963 214.644C384.252 214.932 384.54 215.508 384.924 216.277C385.404 217.43 385.885 218.967 386.365 220.696C387.902 225.98 389.247 232.802 389.247 232.802C389.247 232.802 408.462 216.853 405.772 215.797C403.082 214.836 401.064 210.128 401.064 210.128C401.064 210.128 381.946 212.818 383.963 214.644Z" fill="#EEA886"/>
<path d="M385.212 269.886C385.212 269.886 400.776 299.669 401.449 310.813C402.121 321.958 434.018 307.259 434.018 307.259L385.212 269.886Z" fill="#EDDCC5"/>
<path d="M401.353 310.14L400.969 312.927L400.392 316.577C400.872 316.577 431.52 314.656 433.73 315.232C435.939 315.809 429.502 308.027 429.502 308.027L401.353 310.14Z" fill="#323657"/>
<path d="M400.487 316.578C400.487 316.578 365.805 324.744 357.254 327.434C348.704 330.124 333.909 335.024 329.97 337.233C327.856 338.482 324.686 340.212 320.843 352.797C316.519 367.016 306.528 406.887 304.222 413.131C302.781 417.071 298.746 432.442 298.746 432.442L316.423 435.517C316.423 435.517 337.463 393.052 339.193 381.715C342.075 362.693 349.472 362.597 352.451 360.868C355.429 359.138 369.84 362.405 420.951 358.274C426.043 357.889 439.974 357.601 443.624 352.125C450.157 342.133 456.787 330.893 446.603 320.805C436.419 310.813 400.487 316.578 400.487 316.578Z" fill="#494F80"/>
<path d="M377.238 174.581C377.238 174.581 371.281 184.957 372.626 187.743C373.971 190.529 366.381 197.35 367.63 198.792C368.879 200.233 371.473 201.962 371.377 202.442C371.377 202.827 373.587 216.373 376.565 216.661C379.543 216.949 399.623 215.893 401.256 209.648C402.889 203.403 407.789 189.568 408.942 186.974C410.191 184.38 398.566 164.685 377.238 174.581Z" fill="#EEA886"/>
<path d="M402.025 172.564C403.658 173.813 405.099 175.158 406.156 176.503C407.501 177.079 415.283 181.018 413.65 185.149C411.44 190.721 402.697 205.805 401.929 207.438C401.833 207.63 401.833 207.246 401.929 206.381C401.352 201.097 394.819 195.141 394.819 195.141L391.361 193.604C393.186 190.241 392.418 187.071 392.418 187.071C388.479 182.843 375.317 178.232 375.317 178.232C377.238 159.401 393.186 166.031 402.025 172.564Z" fill="#FCCCA2"/>
<path d="M396.068 190.625C397.029 189.184 401.928 189.473 401.16 193.604C400.487 197.831 394.435 201.097 393.09 199.272C391.841 197.447 395.107 192.163 396.068 190.625Z" fill="#EEA886"/>
<path d="M405.771 215.797C405.771 215.797 430.078 229.92 435.554 254.707C441.03 279.494 450.926 322.919 451.118 328.011C451.118 328.011 418.261 312.159 400.391 316.578C400.391 316.578 389.151 276.227 383.29 266.716C377.43 257.205 386.173 234.819 386.173 234.819C386.173 234.819 394.627 221.369 405.771 215.797Z" fill="#FFC05C"/>
<path d="M494.448 226.845L474.849 284.297C474.657 284.777 474.657 285.162 474.56 285.642L469.853 361.156L387.902 362.981L364.076 449.832C363.307 452.426 363.788 455.308 365.421 457.517C366.478 458.959 367.919 460.304 370.033 460.592C375.221 461.264 480.421 460.592 480.421 460.592V456.268C480.421 454.059 478.596 452.329 476.386 452.329H378.103C376.469 452.329 374.932 451.657 373.972 450.408C373.395 449.639 373.011 448.775 373.107 447.718C373.587 444.932 394.531 374.126 394.531 374.126L473.696 372.685C477.347 372.589 480.229 369.802 480.421 366.248L483.88 284.97C483.88 284.489 483.976 283.913 484.168 283.432L500.212 228.478C500.212 228.478 501.845 224.635 498.771 224.251C495.601 224.059 494.832 225.884 494.448 226.845Z" fill="#5E5E5B"/>
<path d="M387.517 364.615C387.517 364.615 387.421 358.37 396.068 357.889C405.964 357.409 470.141 356.929 470.141 356.929L469.756 363.558L387.517 364.615Z" fill="#D6985E"/>
<path d="M347.936 313.503V316.385H208.437V313.503C208.437 310.813 210.262 308.604 212.568 308.604H343.804C346.014 308.604 347.936 310.813 347.936 313.503Z" fill="#D6985E"/>
<path d="M258.396 459.151H216.219V452.426H254.264C256.57 452.426 258.396 454.251 258.396 456.557V459.151Z" fill="#807066"/>
<path d="M224.537 459.16H218.965L218.965 316.395H224.537L224.537 459.16Z" fill="#807066"/>
<path d="M235.688 459.16H230.116L230.116 316.395H235.688L235.688 459.16Z" fill="#807066"/>
<path d="M384.924 216.277C385.405 217.43 385.885 218.967 386.365 220.696C389.248 219.543 394.724 214.451 394.916 214.259C392.706 215.124 384.924 216.277 384.924 216.277Z" fill="#A77860"/>
<path d="M288.658 316.482H208.341V313.6C208.341 310.91 210.262 308.7 212.568 308.7H276.073L288.658 316.482Z" fill="#BC8551"/>
<path d="M395.107 234.915C395.107 234.915 389.343 243.082 385.692 249.326C381.657 256.34 377.622 263.353 376.757 264.89C374.932 268.061 368.591 269.79 365.805 270.943C363.211 272.096 320.074 295.153 319.497 295.153C318.921 295.153 324.109 303.8 324.109 303.8C324.109 303.8 384.059 286.603 386.749 284.105C389.439 281.607 397.413 270.462 400.679 265.851C403.754 261.432 408.557 254.226 411.151 251.152C414.034 247.693 419.894 235.78 412.4 229.823C402.793 222.234 397.509 231.457 395.107 234.915Z" fill="#FFC05C"/>
<path d="M411.536 250.767C411.536 250.767 404.619 269.598 400.392 276.035C396.164 282.472 391.649 287.756 391.649 287.756L389.439 281.223C389.439 281.223 407.405 256.532 411.536 250.767Z" fill="#D19E4C"/>
<defs>
<linearGradient id="paint0_linear" x1="172.549" y1="347.75" x2="80.6843" y2="347.75" gradientUnits="userSpaceOnUse">
<stop stop-color="#40D5E6"/>
<stop offset="1" stop-color="#5577FF"/>
</linearGradient>
<linearGradient id="paint1_linear" x1="164.698" y1="361.108" x2="95.7462" y2="361.108" gradientUnits="userSpaceOnUse">
<stop stop-color="#40D5E6"/>
<stop offset="1" stop-color="#5577FF"/>
</linearGradient>
<linearGradient id="paint2_linear" x1="208.024" y1="420.801" x2="133.924" y2="420.801" gradientUnits="userSpaceOnUse">
<stop stop-color="#FF9340"/>
<stop offset="1" stop-color="#FFCE45"/>
</linearGradient>
<linearGradient id="paint3_linear" x1="208.023" y1="420.801" x2="133.923" y2="420.801" gradientUnits="userSpaceOnUse">
<stop stop-color="#C97332"/>
<stop offset="1" stop-color="#FFCE45"/>
</linearGradient>
</defs>
</svg>
