<svg width="36" height="36" viewBox="0 0 36 36" fill="none" xmlns="http://www.w3.org/2000/svg">
<path d="M33.6796 14.3284H31.7256C31.4095 13.1989 30.9604 12.1189 30.3854 11.1058L31.7705 9.7208C32.3203 9.17076 32.3203 8.27586 31.7704 7.72588L28.2738 4.22938C27.7239 3.67933 26.829 3.67947 26.2789 4.22938L24.894 5.61428C23.8809 5.03944 22.8009 4.59033 21.6714 4.27423V2.32014C21.6714 1.54116 21.0377 0.90741 20.2587 0.90741H15.3141C14.5352 0.90741 13.9014 1.54116 13.9014 2.32014V4.27423C12.7719 4.59033 11.6919 5.03944 10.6788 5.61435L9.29386 4.22938C8.74381 3.6794 7.84892 3.67947 7.29894 4.22938L3.80243 7.72588C3.25246 8.27586 3.25246 9.17083 3.80243 9.72087L5.18734 11.1058C4.61249 12.1188 4.16339 13.1989 3.84729 14.3284H1.8932C1.11422 14.3284 0.480469 14.9621 0.480469 15.7411V20.6856C0.480469 21.4646 1.11422 22.0984 1.8932 22.0984H3.84729C4.16339 23.2279 4.61249 24.3079 5.18741 25.321L3.80243 26.7059C3.25246 27.256 3.25246 28.1509 3.80243 28.7008L7.29894 32.1974C7.84899 32.7473 8.74389 32.7473 9.29393 32.1974L10.6788 30.8125C11.692 31.3874 12.772 31.8365 13.9015 32.1526V34.1066C13.9015 34.8856 14.5352 35.5193 15.3142 35.5193H20.2588C21.0378 35.5193 21.6715 34.8856 21.6715 34.1066V32.1525C22.801 31.8364 23.8809 31.3873 24.8941 30.8124L26.2791 32.1974C26.829 32.7474 27.7239 32.7473 28.274 32.1974L31.7705 28.7008C32.3204 28.1509 32.3204 27.256 31.7705 26.7059L30.3855 25.321C30.9604 24.3079 31.4095 23.2279 31.7256 22.0984H33.6796C34.4586 22.0984 35.0924 21.4647 35.0924 20.6857V15.7412C35.0924 14.9621 34.4586 14.3284 33.6796 14.3284ZM33.6796 20.6856H31.1791C30.8522 20.6856 30.5681 20.9099 30.492 21.2278C30.1663 22.5911 29.6298 23.8805 28.8978 25.0599C28.7248 25.3387 28.7665 25.6998 28.9985 25.9319L30.7715 27.7018L27.278 31.1983L25.505 29.4254C25.2729 29.1932 24.9117 29.1517 24.633 29.3246C23.4537 30.0566 22.1643 30.5931 20.8008 30.919C20.483 30.995 20.2587 31.2791 20.2587 31.606V34.1066H15.3141V31.6061C15.3141 31.2792 15.0899 30.995 14.772 30.919C13.4086 30.5931 12.1193 30.0567 10.9399 29.3247C10.8249 29.2533 10.6959 29.2185 10.5676 29.2185C10.3851 29.2185 10.2042 29.2892 10.0679 29.4254L8.29796 31.1984L4.80145 27.7049L6.57443 25.9319C6.80647 25.6998 6.84814 25.3387 6.67515 25.0599C5.94315 23.8805 5.40673 22.5912 5.08082 21.2278C5.00474 20.9099 4.72057 20.6856 4.39373 20.6856H1.8932V15.7411H4.39373C4.72057 15.7411 5.00474 15.5168 5.08074 15.1989C5.40666 13.8355 5.94308 12.5462 6.67508 11.3668C6.84807 11.0881 6.8064 10.7269 6.57435 10.4948L4.80138 8.7249L8.29492 5.22839L10.0679 7.00137C10.2999 7.23341 10.6611 7.27501 10.9399 7.10209C12.1193 6.37009 13.4086 5.83367 14.772 5.50776C15.0899 5.43175 15.3141 5.14758 15.3141 4.82075V2.32014H20.2587V4.82067C20.2587 5.14751 20.483 5.43168 20.8008 5.50769C22.1643 5.8336 23.4537 6.37002 24.633 7.10202C24.9117 7.27501 25.2729 7.23341 25.505 7.0013L27.275 5.22832L30.7715 8.72186L28.9985 10.4948C28.7665 10.7269 28.7248 11.088 28.8978 11.3668C29.6298 12.5463 30.1663 13.8357 30.492 15.1989C30.568 15.5168 30.8522 15.7411 31.1791 15.7411H33.6796V20.6856Z" fill="#765DD9"/>
<path d="M17.7864 9.7369C13.1125 9.7369 9.31004 13.5394 9.31004 18.2133C9.31004 22.8872 13.1125 26.6897 17.7864 26.6897C22.4603 26.6897 26.2628 22.8872 26.2628 18.2133C26.2628 13.5394 22.4603 9.7369 17.7864 9.7369ZM17.7864 25.2769C13.8915 25.2769 10.7228 22.1082 10.7228 18.2133C10.7228 14.3184 13.8915 11.1496 17.7864 11.1496C21.6814 11.1496 24.8501 14.3184 24.8501 18.2133C24.8501 22.1082 21.6814 25.2769 17.7864 25.2769Z" fill="#765DD9"/>
<path d="M17.7864 13.9751C15.4495 13.9751 13.5482 15.8764 13.5482 18.2133C13.5482 20.5503 15.4495 22.4515 17.7864 22.4515C20.1234 22.4515 22.0246 20.5503 22.0246 18.2133C22.0246 15.8764 20.1234 13.9751 17.7864 13.9751ZM17.7864 21.0388C16.2285 21.0388 14.961 19.7713 14.961 18.2133C14.961 16.6554 16.2285 15.3879 17.7864 15.3879C19.3444 15.3879 20.6119 16.6554 20.6119 18.2133C20.6119 19.7713 19.3444 21.0388 17.7864 21.0388Z" fill="#765DD9"/>
</svg>
