<svg width="36" height="36" viewBox="0 0 36 36" fill="none" xmlns="http://www.w3.org/2000/svg">
<path d="M33.9824 14.3284H32.0283C31.7122 13.1989 31.2631 12.1189 30.6882 11.1058L32.0732 9.7208C32.623 9.17076 32.6231 8.27586 32.0731 7.72588L28.5766 4.22938C28.0267 3.67933 27.1317 3.67947 26.5816 4.22938L25.1967 5.61428C24.1836 5.03944 23.1036 4.59033 21.9742 4.27423V2.32014C21.9742 1.54116 21.3404 0.90741 20.5614 0.90741H15.6169C14.8379 0.90741 14.2041 1.54116 14.2041 2.32014V4.27423C13.0747 4.59033 11.9946 5.03944 10.9815 5.61435L9.5966 4.22938C9.04655 3.6794 8.15165 3.67947 7.60168 4.22938L4.10517 7.72588C3.55519 8.27586 3.55519 9.17083 4.10517 9.72087L5.49007 11.1058C4.91523 12.1188 4.46612 13.1989 4.15002 14.3284H2.19593C1.41695 14.3284 0.783203 14.9621 0.783203 15.7411V20.6856C0.783203 21.4646 1.41695 22.0984 2.19593 22.0984H4.15002C4.46612 23.2279 4.91523 24.3079 5.49014 25.321L4.10517 26.7059C3.55519 27.256 3.55519 28.1509 4.10517 28.7008L7.60168 32.1974C8.15172 32.7473 9.04662 32.7473 9.59667 32.1974L10.9816 30.8125C11.9947 31.3874 13.0747 31.8365 14.2042 32.1526V34.1066C14.2042 34.8856 14.838 35.5193 15.6169 35.5193H20.5615C21.3405 35.5193 21.9742 34.8856 21.9742 34.1066V32.1525C23.1037 31.8364 24.1837 31.3873 25.1968 30.8124L26.5818 32.1974C27.1317 32.7474 28.0267 32.7473 28.5767 32.1974L32.0732 28.7008C32.6231 28.1509 32.6231 27.256 32.0732 26.7059L30.6882 25.321C31.2632 24.3079 31.7123 23.2279 32.0284 22.0984H33.9824C34.7614 22.0984 35.3951 21.4647 35.3951 20.6857V15.7412C35.3951 14.9621 34.7614 14.3284 33.9824 14.3284ZM33.9824 20.6856H31.4818C31.1549 20.6856 30.8708 20.9099 30.7948 21.2278C30.469 22.5911 29.9326 23.8805 29.2006 25.0599C29.0275 25.3387 29.0693 25.6998 29.3012 25.9319L31.0743 27.7018L27.5807 31.1983L25.8078 29.4254C25.5756 29.1932 25.2145 29.1517 24.9357 29.3246C23.7564 30.0566 22.4671 30.5931 21.1036 30.919C20.7857 30.995 20.5614 31.2791 20.5614 31.606V34.1066H15.6169V31.6061C15.6169 31.2792 15.3926 30.995 15.0747 30.919C13.7113 30.5931 12.422 30.0567 11.2426 29.3247C11.1276 29.2533 10.9986 29.2185 10.8704 29.2185C10.6879 29.2185 10.507 29.2892 10.3706 29.4254L8.60069 31.1984L5.10418 27.7049L6.87716 25.9319C7.1092 25.6998 7.15088 25.3387 6.97789 25.0599C6.24588 23.8805 5.70947 22.5912 5.38355 21.2278C5.30747 20.9099 5.0233 20.6856 4.69647 20.6856H2.19593V15.7411H4.69647C5.0233 15.7411 5.30747 15.5168 5.38348 15.1989C5.7094 13.8355 6.24581 12.5462 6.97782 11.3668C7.1508 11.0881 7.10913 10.7269 6.87709 10.4948L5.10411 8.7249L8.59765 5.22839L10.3706 7.00137C10.6027 7.23341 10.9638 7.27501 11.2426 7.10209C12.422 6.37009 13.7113 5.83367 15.0747 5.50776C15.3926 5.43175 15.6169 5.14758 15.6169 4.82075V2.32014H20.5614V4.82067C20.5614 5.14751 20.7857 5.43168 21.1036 5.50769C22.4671 5.8336 23.7564 6.37002 24.9357 7.10202C25.2144 7.27501 25.5756 7.23341 25.8078 7.0013L27.5778 5.22832L31.0743 8.72186L29.3012 10.4948C29.0693 10.7269 29.0275 11.088 29.2006 11.3668C29.9326 12.5463 30.469 13.8357 30.7948 15.1989C30.8708 15.5168 31.1549 15.7411 31.4818 15.7411H33.9824V20.6856Z" fill="#20AA38"/>
<path d="M18.0892 9.7369C13.4153 9.7369 9.61277 13.5394 9.61277 18.2133C9.61277 22.8872 13.4153 26.6897 18.0892 26.6897C22.763 26.6897 26.5655 22.8872 26.5655 18.2133C26.5655 13.5394 22.763 9.7369 18.0892 9.7369ZM18.0892 25.2769C14.1943 25.2769 11.0255 22.1082 11.0255 18.2133C11.0255 14.3184 14.1943 11.1496 18.0892 11.1496C21.9841 11.1496 25.1528 14.3184 25.1528 18.2133C25.1528 22.1082 21.9841 25.2769 18.0892 25.2769Z" fill="#20AA38"/>
<path d="M18.0892 13.9751C15.7522 13.9751 13.851 15.8764 13.851 18.2133C13.851 20.5503 15.7522 22.4515 18.0892 22.4515C20.4261 22.4515 22.3273 20.5503 22.3273 18.2133C22.3273 15.8764 20.4261 13.9751 18.0892 13.9751ZM18.0892 21.0388C16.5312 21.0388 15.2637 19.7713 15.2637 18.2133C15.2637 16.6554 16.5312 15.3879 18.0892 15.3879C19.6471 15.3879 20.9146 16.6554 20.9146 18.2133C20.9146 19.7713 19.6471 21.0388 18.0892 21.0388Z" fill="#20AA38"/>
</svg>
