<svg width="36" height="36" viewBox="0 0 36 36" fill="none" xmlns="http://www.w3.org/2000/svg">
<path d="M33.9687 14.3284H32.0146C31.6985 13.1989 31.2494 12.1189 30.6745 11.1058L32.0595 9.7208C32.6094 9.17076 32.6094 8.27586 32.0595 7.72588L28.5629 4.22938C28.013 3.67933 27.118 3.67947 26.568 4.22938L25.1831 5.61428C24.1699 5.03944 23.09 4.59033 21.9605 4.27423V2.32014C21.9605 1.54116 21.3267 0.90741 20.5478 0.90741H15.6032C14.8242 0.90741 14.1905 1.54116 14.1905 2.32014V4.27423C13.061 4.59033 11.981 5.03944 10.9678 5.61435L9.58292 4.22938C9.03288 3.6794 8.13798 3.67947 7.58801 4.22938L4.0915 7.72588C3.54152 8.27586 3.54152 9.17083 4.0915 9.72087L5.4764 11.1058C4.90156 12.1188 4.45245 13.1989 4.13635 14.3284H2.18226C1.40328 14.3284 0.769531 14.9621 0.769531 15.7411V20.6856C0.769531 21.4646 1.40328 22.0984 2.18226 22.0984H4.13635C4.45245 23.2279 4.90156 24.3079 5.47647 25.321L4.0915 26.7059C3.54152 27.256 3.54152 28.1509 4.0915 28.7008L7.58801 32.1974C8.13805 32.7473 9.03295 32.7473 9.58299 32.1974L10.9679 30.8125C11.981 31.3874 13.0611 31.8365 14.1905 32.1526V34.1066C14.1905 34.8856 14.8243 35.5193 15.6033 35.5193H20.5478C21.3268 35.5193 21.9606 34.8856 21.9606 34.1066V32.1525C23.09 31.8364 24.17 31.3873 25.1831 30.8124L26.5681 32.1974C27.118 32.7474 28.013 32.7473 28.563 32.1974L32.0595 28.7008C32.6094 28.1509 32.6094 27.256 32.0595 26.7059L30.6746 25.321C31.2495 24.3079 31.6986 23.2279 32.0147 22.0984H33.9687C34.7477 22.0984 35.3814 21.4647 35.3814 20.6857V15.7412C35.3814 14.9621 34.7477 14.3284 33.9687 14.3284ZM33.9687 20.6856H31.4682C31.1413 20.6856 30.8572 20.9099 30.7811 21.2278C30.4553 22.5911 29.9189 23.8805 29.1869 25.0599C29.0138 25.3387 29.0556 25.6999 29.2876 25.9319L31.0606 27.7018L27.5671 31.1983L25.7941 29.4254C25.562 29.1932 25.2008 29.1517 24.9221 29.3246C23.7427 30.0566 22.4534 30.5931 21.0899 30.919C20.772 30.995 20.5478 31.2791 20.5478 31.606V34.1066H15.6032V31.6061C15.6032 31.2792 15.3789 30.995 15.0611 30.919C13.6976 30.5931 12.4083 30.0567 11.229 29.3247C11.114 29.2533 10.9849 29.2185 10.8567 29.2185C10.6742 29.2185 10.4933 29.2892 10.357 29.4254L8.58702 31.1984L5.09051 27.7049L6.86349 25.9319C7.09553 25.6999 7.1372 25.3387 6.96421 25.0599C6.23221 23.8805 5.6958 22.5912 5.36988 21.2278C5.2938 20.9099 5.00963 20.6856 4.6828 20.6856H2.18226V15.7411H4.6828C5.00963 15.7411 5.2938 15.5168 5.36981 15.1989C5.69572 13.8355 6.23214 12.5462 6.96414 11.3668C7.13713 11.0881 7.09546 10.7269 6.86342 10.4948L5.09044 8.7249L8.58398 5.22839L10.357 7.00137C10.589 7.23341 10.9502 7.27501 11.229 7.10209C12.4083 6.37009 13.6976 5.83367 15.0611 5.50776C15.3789 5.43175 15.6032 5.14758 15.6032 4.82075V2.32014H20.5478V4.82067C20.5478 5.14751 20.772 5.43168 21.0899 5.50769C22.4534 5.8336 23.7427 6.37002 24.9221 7.10202C25.2007 7.27501 25.562 7.23341 25.7941 7.0013L27.5641 5.22832L31.0606 8.72186L29.2876 10.4948C29.0556 10.7269 29.0138 11.088 29.1869 11.3668C29.9189 12.5463 30.4553 13.8357 30.7811 15.1989C30.8571 15.5168 31.1413 15.7411 31.4682 15.7411H33.9687V20.6856Z" fill="#39C0F8"/>
<path d="M18.0755 9.7369C13.4016 9.7369 9.5991 13.5394 9.5991 18.2133C9.5991 22.8872 13.4016 26.6897 18.0755 26.6897C22.7494 26.6897 26.5519 22.8872 26.5519 18.2133C26.5519 13.5394 22.7494 9.7369 18.0755 9.7369ZM18.0755 25.2769C14.1806 25.2769 11.0118 22.1082 11.0118 18.2133C11.0118 14.3184 14.1806 11.1496 18.0755 11.1496C21.9705 11.1496 25.1391 14.3184 25.1391 18.2133C25.1391 22.1082 21.9705 25.2769 18.0755 25.2769Z" fill="#39C0F8"/>
<path d="M18.0755 13.9751C15.7385 13.9751 13.8373 15.8764 13.8373 18.2133C13.8373 20.5503 15.7385 22.4515 18.0755 22.4515C20.4124 22.4515 22.3137 20.5503 22.3137 18.2133C22.3137 15.8764 20.4124 13.9751 18.0755 13.9751ZM18.0755 21.0388C16.5175 21.0388 15.25 19.7713 15.25 18.2133C15.25 16.6554 16.5175 15.3879 18.0755 15.3879C19.6334 15.3879 20.9009 16.6554 20.9009 18.2133C20.9009 19.7713 19.6334 21.0388 18.0755 21.0388Z" fill="#39C0F8"/>
</svg>
