<svg width="644" height="742" viewBox="0 0 644 742" fill="none" xmlns="http://www.w3.org/2000/svg">
<path fill-rule="evenodd" clip-rule="evenodd" d="M401.59 242.905C429.733 424.839 565.925 291.677 594 443.116C621.583 591.897 437.492 668.296 290.027 581.422C173.888 513.003 -5.53066 324.592 83.0185 181.684C171.568 38.7747 373.447 60.9708 401.59 242.905Z" fill="white"/>
<ellipse cx="276.359" cy="702.789" rx="177.965" ry="38.3268" fill="#D9E3F7"/>
<path d="M160.482 653.953L157.901 686.657C157.901 686.657 125.597 697.044 125.406 703.097L188.613 703.926L190.476 653.889L160.482 653.953Z" fill="#FCA70C"/>
<path d="M177.382 683.328C178.608 683.631 179.5 684.985 179.261 686.227C179.022 687.47 177.652 688.394 176.41 688.107C175.167 687.836 174.052 686.243 174.435 685.033C174.817 683.822 176.49 682.834 177.621 683.408" fill="#FCA70C"/>
<path d="M188.611 703.926L188.484 698.86L128.622 699.227C128.622 699.227 125.182 701.266 125.277 703.241L188.611 703.926Z" fill="#FCA70C"/>
<path d="M156.865 686.355C156.881 686.657 158.426 686.753 159.987 687.709C161.564 688.617 162.392 689.923 162.663 689.795C162.95 689.732 162.424 687.9 160.528 686.785C158.649 685.654 156.785 686.084 156.865 686.355Z" fill="#251A51"/>
<path d="M150.318 689.302C150.254 689.604 151.608 690.082 152.691 691.357C153.822 692.599 154.125 694.001 154.427 693.985C154.714 694.017 154.873 692.217 153.487 690.656C152.134 689.079 150.318 689.015 150.318 689.302Z" fill="#251A51"/>
<path d="M146.782 697.362C147.069 697.426 147.451 695.865 146.607 694.192C145.779 692.52 144.297 691.898 144.17 692.153C144.011 692.408 144.966 693.284 145.635 694.67C146.352 696.04 146.48 697.331 146.782 697.362Z" fill="#251A51"/>
<path d="M157.2 678.884C157.343 679.154 158.745 678.692 160.497 678.756C162.249 678.788 163.619 679.33 163.778 679.059C163.954 678.836 162.584 677.721 160.529 677.673C158.458 677.625 157.04 678.645 157.2 678.884Z" fill="#251A51"/>
<path d="M156.88 672.32C156.88 672.448 158.106 672.607 160.05 672.209C161.021 672.018 162.152 671.667 163.331 671.094C163.921 670.807 164.526 670.472 165.115 670.074C165.402 669.883 165.736 669.676 166.055 669.294C166.39 668.959 166.565 668.131 166.151 667.653C165.816 667.175 165.227 666.984 164.781 666.984C164.319 666.984 163.936 667.095 163.602 667.191C162.901 667.382 162.248 667.637 161.659 667.924C160.464 668.513 159.508 669.23 158.791 669.931C157.358 671.333 156.896 672.496 157.007 672.559C157.151 672.655 157.836 671.667 159.301 670.504C160.034 669.931 160.958 669.325 162.073 668.832C162.63 668.593 163.236 668.37 163.873 668.21C164.542 668.019 165.115 667.987 165.29 668.29C165.354 668.402 165.37 668.449 165.227 668.64C165.083 668.832 164.828 669.007 164.542 669.198C164 669.58 163.443 669.915 162.901 670.202C161.818 670.775 160.767 671.189 159.875 671.46C158.059 672.018 156.88 672.145 156.88 672.32Z" fill="#263238"/>
<path d="M157.294 672.751C157.405 672.798 157.979 671.667 158.043 669.66C158.058 668.673 157.931 667.462 157.501 666.203C157.294 665.582 157.007 664.929 156.641 664.308C156.259 663.687 155.781 662.874 154.57 662.763C153.949 662.763 153.439 663.256 153.28 663.687C153.089 664.117 153.057 664.483 152.993 664.865C152.897 665.614 152.929 666.331 153.057 667C153.296 668.338 153.885 669.437 154.506 670.234C155.797 671.843 157.087 672.161 157.119 672.066C157.214 671.906 156.115 671.349 155.128 669.804C154.634 669.039 154.188 668.035 154.028 666.857C153.949 666.267 153.933 665.646 154.028 665.025C154.108 664.356 154.347 663.798 154.602 663.862C154.92 663.846 155.462 664.34 155.749 664.865C156.083 665.423 156.37 665.996 156.593 666.554C157.023 667.685 157.23 668.768 157.294 669.692C157.421 671.54 157.135 672.703 157.294 672.751Z" fill="#251A51"/>
<path d="M297.151 648.505L304.462 686.705L318.958 715.252C320.009 717.307 319.085 719.824 316.966 720.716C315.772 721.226 314.434 721.13 313.335 720.445C306.342 716.128 280.68 700.118 280.298 697.299C279.868 694.033 269.912 657.522 269.912 657.522L297.151 648.505Z" fill="#FCA70C"/>
<path d="M316.951 720.716L279.725 694.734L280.075 696.343C280.378 697.729 281.158 698.971 282.289 699.847C285.316 702.157 293.806 708.386 313.207 720.477C314.338 721.178 315.74 721.257 316.951 720.716Z" fill="#FCA70C"/>
<path d="M284.917 683.519C286.016 683.965 286.637 685.351 286.223 686.466C285.809 687.581 284.423 688.218 283.324 687.788C282.225 687.358 281.428 685.733 281.954 684.666C282.48 683.615 284.152 682.946 285.124 683.631" fill="#FCA70C"/>
<path d="M304.701 705.965C304.94 706.029 305.37 703.846 307.393 702.285C309.384 700.66 311.599 700.756 311.583 700.501C311.599 700.405 311.057 700.214 310.133 700.278C309.225 700.342 307.967 700.74 306.852 701.616C305.753 702.492 305.068 703.623 304.797 704.499C304.526 705.391 304.59 705.965 304.701 705.965Z" fill="#251A51"/>
<path d="M308.492 710.473C308.715 710.6 309.655 709.103 311.503 708.115C313.319 707.096 315.103 707.096 315.119 706.841C315.182 706.618 313.191 706.204 311.105 707.367C309.002 708.514 308.285 710.425 308.492 710.473Z" fill="#251A51"/>
<path d="M298.249 700.532C298.472 700.676 299.922 698.366 302.661 696.582C305.369 694.75 308.061 694.304 308.014 694.049C308.03 693.826 305.099 693.906 302.184 695.865C299.253 697.777 298.042 700.469 298.249 700.532Z" fill="#251A51"/>
<path d="M295.064 689.111C295.208 689.318 297.119 687.995 299.843 687.295C302.551 686.578 304.861 686.801 304.893 686.546C304.956 686.339 302.535 685.702 299.62 686.466C296.705 687.215 294.905 688.951 295.064 689.111Z" fill="#251A51"/>
<path d="M292.626 677.944C292.786 678.135 294.634 676.415 297.549 675.921C300.448 675.363 302.773 676.335 302.869 676.096C302.917 676.001 302.391 675.618 301.403 675.3C300.432 674.981 298.966 674.806 297.405 675.077C295.844 675.363 294.538 676.032 293.726 676.686C292.913 677.339 292.563 677.88 292.626 677.944Z" fill="#251A51"/>
<path d="M297.024 673.818C297.072 673.802 297.056 673.276 296.769 672.368C296.482 671.46 295.925 670.17 294.81 668.848C294.252 668.226 293.631 667.414 292.452 667.143C291.863 667 291.098 667.271 290.764 667.876C290.429 668.465 290.413 669.118 290.525 669.724C291.082 672.129 293.663 674.025 296.451 673.786C299.238 673.499 301.373 671.412 302.01 669.103C302.137 668.513 302.153 667.812 301.723 667.239C301.293 666.649 300.465 666.554 299.939 666.777C298.84 667.191 298.266 667.987 297.709 668.625C296.626 669.963 296.052 671.237 295.75 672.129C295.447 673.037 295.399 673.563 295.447 673.563C295.606 673.627 296.005 671.492 298.171 669.007C298.728 668.418 299.35 667.701 300.146 667.446C300.528 667.318 300.911 667.398 301.118 667.701C301.325 667.972 301.357 668.465 301.245 668.943C300.704 670.839 298.744 672.751 296.387 672.958C294.045 673.181 291.783 671.524 291.305 669.58C291.194 669.118 291.226 668.625 291.417 668.29C291.608 667.972 291.959 667.812 292.341 667.876C293.137 668.019 293.806 668.704 294.364 669.278C296.562 671.699 296.865 673.898 297.024 673.818Z" fill="#251A51"/>
<path d="M160.05 353.418C159.652 353.402 154.81 673.85 154.81 673.85L193.533 672.512L206.929 514.98L210.147 399.328L236.494 506.298L269.355 674.184L308.015 664.483L258.81 351.347L212.473 342.378L160.05 353.418Z" fill="#555BE4"/>
<path d="M244.219 155.439C248.855 146.28 250.32 129.856 245 120.76C239.679 111.664 228.927 105.1 218.828 102.106C217.14 101.612 215.308 101.214 213.635 101.771C211.963 102.329 210.609 104.177 211.182 105.833C209.223 104.384 207.2 102.918 204.875 102.185C202.549 101.452 199.793 101.596 197.929 103.173C196.05 104.734 195.54 107.92 197.26 109.641C194.473 108.382 190.953 108.924 188.691 110.979C186.429 113.034 185.537 116.475 186.508 119.374C187.448 122.146 189.662 125.332 191.669 127.482C193.676 129.617 193.868 131.704 193.294 134.571" fill="#5D3F1C"/>
<path d="M206.037 230.788C206.323 226.392 207.024 186.662 207.024 186.487C207.024 186.487 192.274 184.655 191.637 169.999C191.334 162.911 191.876 148.271 192.545 135.017C193.246 120.776 204.778 109.481 219.019 109.035L220.437 108.987C235.728 109.402 243.916 122.624 243.088 137.9L241.001 222.919" fill="#FFC3BD"/>
<path d="M207.024 186.487C207.024 186.487 216.295 186.742 225.948 180.243C225.948 180.243 218.191 187.077 206.977 187.013L207.024 186.487Z" fill="#5D3F1C"/>
<path d="M242.211 148.812C242.45 148.701 252.198 145.515 252.198 155.567C252.182 165.603 242.115 163.532 242.099 163.245C242.067 162.942 242.211 148.812 242.211 148.812Z" fill="#FFC3BD"/>
<path d="M245.16 159.438C245.207 159.406 245.335 159.565 245.638 159.692C245.924 159.82 246.418 159.915 246.944 159.724C248.011 159.342 248.903 157.653 248.951 155.837C248.983 154.929 248.792 154.053 248.457 153.336C248.154 152.604 247.677 152.094 247.135 151.998C246.609 151.871 246.227 152.189 246.1 152.476C245.972 152.763 246.036 152.954 245.972 152.97C245.94 153.002 245.749 152.795 245.845 152.381C245.892 152.173 246.004 151.95 246.243 151.759C246.482 151.568 246.832 151.457 247.215 151.504C247.995 151.552 248.68 152.269 249.046 153.066C249.445 153.862 249.684 154.834 249.652 155.869C249.588 157.892 248.553 159.788 247.103 160.202C246.402 160.393 245.813 160.17 245.51 159.931C245.176 159.676 245.128 159.453 245.16 159.438Z" fill="#5D3F1C"/>
<path d="M186.141 116.044C184.962 129.059 201.003 134.507 208.043 127.227C211.293 123.866 214.144 119.66 218.572 118.131C221.551 117.111 224.928 117.653 227.731 119.087C227.763 119.103 227.795 119.119 227.811 119.135C231.953 121.285 234.39 126.08 235.027 130.7C235.919 137.136 234.884 142.823 236.556 148.733C236.795 149.577 237.082 150.501 237.799 151.011C239.009 151.887 240.761 151.122 241.765 150.007C243.374 148.223 243.931 145.754 244.282 143.38C245.078 137.98 245.046 132.404 243.676 127.116C242.306 121.827 239.583 116.825 235.521 113.177C230.439 108.621 223.447 106.391 216.629 106.709C209.811 107.028 203.201 109.8 197.88 114.085C195.411 116.076 193.149 118.45 191.939 121.381" fill="#5D3F1C"/>
<path d="M196.765 108.892C196.765 108.86 196.271 108.764 195.379 108.956C194.503 109.131 193.245 109.672 192.066 110.803C190.903 111.934 189.836 113.687 189.581 115.869C189.326 118.052 190.043 120.473 191.508 122.48C192.974 124.487 194.965 125.921 196.94 126.718C198.915 127.53 200.827 127.833 202.42 127.928C204.013 128.024 205.303 127.928 206.179 127.817C207.055 127.705 207.533 127.594 207.533 127.546C207.517 127.403 205.574 127.689 202.468 127.387C200.922 127.211 199.091 126.877 197.227 126.064C195.363 125.268 193.515 123.914 192.146 122.034C190.792 120.154 190.107 117.924 190.314 115.949C190.505 113.958 191.445 112.301 192.48 111.202C193.531 110.103 194.662 109.513 195.491 109.258C196.271 108.987 196.765 108.971 196.765 108.892Z" fill="#AC8353"/>
<path d="M203.487 104.288C203.487 104.256 203.121 104.177 202.532 104.463C201.958 104.75 201.226 105.451 200.971 106.614C200.7 107.777 201.066 109.163 201.735 110.453C202.42 111.743 203.312 113.081 204.491 114.292C206.817 116.745 209.588 118.195 211.675 118.848C213.762 119.533 215.148 119.517 215.148 119.438C215.163 119.294 213.841 119.135 211.866 118.338C209.891 117.574 207.279 116.108 205.064 113.766C203.949 112.604 203.073 111.329 202.388 110.118C201.719 108.908 201.369 107.697 201.528 106.709C201.687 105.722 202.261 105.037 202.707 104.718C203.153 104.4 203.503 104.352 203.487 104.288Z" fill="#AC8353"/>
<path d="M116.054 234.357L47.0015 227.809L36.0741 225.181C36.0741 225.181 11.0974 220.721 8.75584 219.972C6.04791 219.128 4.98066 220.227 4.74173 221.246C4.35943 222.839 5.9364 224.544 8.23019 225.34C9.02664 225.611 21.7539 229.482 21.7539 229.482C21.7539 229.482 20.5274 229.737 17.5646 230.868C14.6018 231.999 11.862 235.997 10.6036 240.569C9.34522 245.141 9.39301 246.527 11.1452 247.101C11.8461 247.324 12.547 247.117 13.1363 246.75C14.108 246.145 14.777 245.173 15.0956 244.09C17.2301 236.794 21.7061 236.045 21.7061 236.045L23.1398 236.396C23.1398 236.396 18.6159 239.821 18.8548 243.739C18.8867 244.377 19.046 244.934 19.2849 245.412C18.7115 247.34 19.1734 249.57 20.4955 251.083C21.8814 252.66 24.1592 253.409 26.2141 252.963C27.2017 252.756 28.2371 252.119 28.3486 251.131C28.3963 250.605 28.1733 250.096 27.9663 249.602C27.8548 249.347 27.7592 249.076 27.6955 248.805L31.837 249.203C31.837 249.203 41.1874 249.602 45.2333 250.239L110.335 267.093C119.367 269.435 128.542 263.907 130.724 254.843C133.05 244.982 126.137 235.312 116.054 234.357Z" fill="#FFC3BD"/>
<path d="M45.4553 229.61C45.4075 231.059 44.0057 232.111 42.604 232.461C41.2022 232.812 39.7208 232.684 38.3031 232.923C34.0501 233.672 30.8643 237.686 26.5794 238.228C25.9741 238.307 25.2254 238.212 25.0183 237.638C24.8272 237.113 25.2732 236.587 25.6714 236.205C29.128 232.907 32.5687 229.61 36.0253 226.312" fill="#FFC3BD"/>
<path d="M36.0257 226.328C35.9939 226.281 35.5479 226.631 34.7992 227.284C34.0505 227.937 32.9674 228.909 31.6612 230.104C30.3072 231.362 28.7621 232.796 27.0736 234.373C26.6435 234.771 26.1975 235.185 25.7515 235.615C25.3692 236.046 24.6683 236.428 24.5727 237.416C24.5568 237.909 24.9391 238.387 25.3533 238.531C25.7515 238.69 26.1338 238.706 26.5161 238.674C27.217 238.578 27.9019 238.435 28.5709 238.18C31.2311 237.193 33.2541 235.472 35.3089 234.421C36.3284 233.879 37.3478 233.465 38.3354 233.29C39.323 233.099 40.2947 233.099 41.2027 232.987C43.0345 232.876 44.484 232.031 45.0575 231.139C45.6628 230.247 45.5035 229.594 45.4716 229.626C45.392 229.61 45.4239 230.215 44.8026 230.948C44.1973 231.697 42.9071 232.366 41.1549 232.414C40.2788 232.477 39.2912 232.445 38.2239 232.621C37.1408 232.796 36.0417 233.21 34.9744 233.752C32.824 234.819 30.7851 236.508 28.3161 237.4C27.7108 237.623 27.0736 237.766 26.4683 237.846C25.8789 237.909 25.3533 237.718 25.4011 237.4C25.3851 237.049 25.863 236.587 26.309 236.173C26.755 235.743 27.1851 235.329 27.6152 234.915C29.2559 233.306 30.7532 231.824 32.0753 230.518C33.3337 229.259 34.3532 228.224 35.0381 227.507C35.7071 226.79 36.0735 226.376 36.0257 226.328Z" fill="#251A51"/>
<path d="M23.2352 236.237C23.2193 236.348 22.1521 235.822 20.5273 236.3C19.7308 236.539 18.8866 237.113 18.2335 238.005C17.5645 238.897 17.0866 240.044 16.6725 241.286C16.2424 242.529 15.8442 243.756 15.2389 244.775C14.6336 245.779 13.8849 246.591 13.0725 247.021C12.2601 247.483 11.4159 247.372 10.9699 247.149C10.5079 246.926 10.3327 246.703 10.3486 246.687C10.3805 246.639 10.6035 246.798 11.0495 246.958C11.4796 247.101 12.1964 247.133 12.8973 246.687C13.5982 246.257 14.2831 245.476 14.8247 244.52C15.3663 243.549 15.7486 242.354 16.1787 241.111C16.5928 239.853 17.1185 238.642 17.8512 237.718C18.568 236.762 19.5397 236.157 20.4317 235.95C21.3078 235.727 22.0565 235.807 22.5344 235.934C23.0122 236.061 23.2352 236.205 23.2352 236.237Z" fill="#251A51"/>
<path d="M7.33773 225.022C7.36958 224.958 8.32533 225.261 9.87044 225.77C11.5908 226.328 13.6456 226.997 15.9235 227.73C18.2013 228.431 20.2721 229.068 22.0084 229.594C23.5694 230.072 24.5411 230.358 24.5092 230.438C24.4933 230.502 23.4898 230.342 21.8969 229.96C20.304 229.578 18.1217 228.988 15.7483 228.24C13.3748 227.491 11.2403 226.726 9.72708 226.121C8.21382 225.516 7.30587 225.086 7.33773 225.022Z" fill="#251A51"/>
<path d="M25.1941 239.996C25.2259 240.028 25.0188 240.251 24.6843 240.649C24.3658 241.031 23.8401 241.7 23.9835 242.576C24.0472 242.991 24.3498 243.357 24.8277 243.564C25.2896 243.787 25.879 243.851 26.5002 243.962C27.1215 244.074 27.8861 244.249 28.3958 244.886C28.8896 245.508 29.017 246.368 28.794 247.132C28.571 247.929 27.9657 248.518 27.3126 248.853C26.6436 249.187 25.9427 249.331 25.2578 249.235C23.9516 249.028 22.9003 248.582 22.0242 248.168C21.164 247.738 20.5109 247.276 20.1286 246.878C19.7463 246.479 19.6508 246.177 19.6667 246.161C19.7145 246.129 19.8738 246.384 20.2561 246.718C20.6543 247.053 21.3074 247.451 22.1675 247.833C23.0277 248.2 24.1109 248.582 25.3056 248.757C26.4206 248.869 27.902 248.263 28.2843 246.989C28.4595 246.368 28.348 245.667 27.9816 245.205C27.6153 244.743 27.01 244.552 26.4047 244.44C25.7994 244.329 25.1781 244.233 24.6206 243.962C24.0631 243.723 23.633 243.182 23.5852 242.64C23.4897 241.541 24.1427 240.872 24.5091 240.521C24.9233 240.123 25.1781 239.964 25.1941 239.996Z" fill="#251A51"/>
<path d="M26.9947 248.503C26.9947 248.471 27.2974 248.487 27.6956 248.789C28.0779 249.092 28.5717 249.729 28.5399 250.669C28.508 251.577 27.8868 252.628 26.8195 253.186C25.7523 253.743 24.3665 253.775 23.0921 253.377C21.8019 252.979 20.7346 252.166 20.0338 251.242C19.3329 250.303 19.0143 249.267 18.9187 248.407C18.8232 247.547 18.9347 246.83 19.0621 246.368C19.1895 245.906 19.317 245.667 19.3488 245.683C19.4444 245.699 19.0302 246.718 19.2851 248.359C19.4285 249.156 19.747 250.111 20.4161 250.94C21.0691 251.784 22.0567 252.501 23.2355 252.867C24.3983 253.234 25.6567 253.202 26.5965 252.74C27.5363 252.294 28.1098 251.402 28.1735 250.637C28.2372 249.857 27.8708 249.251 27.5682 248.933C27.2337 248.63 26.9788 248.534 26.9947 248.503Z" fill="#251A51"/>
<path d="M38.2095 242.401C38.1617 242.385 38.2095 241.907 38.6077 241.191C38.99 240.49 39.7865 239.566 41.0289 239.04L41.013 239.502C40.5033 239.279 39.9458 239.008 39.4042 238.69C36.3617 236.937 34.8007 234.468 34.9281 234.42C35.0396 234.309 36.744 236.555 39.675 238.228C40.2006 238.53 40.7263 238.801 41.2201 239.024L41.7617 239.279L41.2042 239.486C40.0732 239.932 39.2927 240.713 38.8626 241.334C38.4325 241.987 38.2732 242.417 38.2095 242.401Z" fill="#251A51"/>
<path d="M16.5302 235.902C16.6258 235.806 17.3904 236.571 17.5178 237.845C17.6612 239.104 17.0877 240.028 16.9603 239.948C16.8169 239.884 17.1196 239.008 16.9922 237.909C16.8807 236.794 16.4028 235.998 16.5302 235.902Z" fill="#251A51"/>
<path d="M117.281 268.113L162.328 257.71C162.328 257.71 160.002 340.291 160.002 341.072C160.002 341.853 156.291 343.143 156.609 349.149L159.843 356.269L258.603 357.592L261.263 277.384L270.279 215.193L249.555 202.369L242.26 192.477L213.779 222.553L206.69 196.905L206.897 189.275L199.857 196.921L161.882 207.865L111.705 231.266L77.7765 228.67L68.9678 258.363L117.281 268.113Z" fill="#FCA70C"/>
<path d="M209.844 213.313C209.924 213.409 208.586 213.727 207.806 215.591C207.407 216.499 207.2 217.662 207.184 219.064C207.121 220.434 207.216 222.091 206.515 223.795L206.181 224.624L205.83 223.795C204.891 221.613 204.237 219.112 203.6 216.483C202.406 211.322 201.625 206.591 201.115 203.166C200.606 199.741 200.415 197.606 200.51 197.59C200.622 197.574 201.036 199.677 201.689 203.07C202.342 206.463 203.202 211.163 204.397 216.292C205.018 218.889 205.655 221.39 206.515 223.477H205.814C206.452 222.011 206.436 220.418 206.547 219.032C206.611 217.63 206.898 216.34 207.391 215.4C207.869 214.444 208.522 213.855 209.016 213.584C209.526 213.297 209.844 213.281 209.844 213.313Z" fill="#F98011"/>
<path d="M246.416 200.713C246.464 200.744 246.114 201.238 245.461 202.098C244.792 202.959 243.82 204.169 242.593 205.667C240.156 208.662 236.732 212.756 232.909 217.264C230.726 219.813 228.671 222.218 226.824 224.353L226.346 224.894L226.171 224.193C225.31 220.737 224.61 217.805 224.132 215.75C223.941 214.715 223.367 214.126 222.81 214.126C222.268 214.078 222.077 214.38 222.045 214.349C221.997 214.365 222.156 213.934 222.825 213.887C223.128 213.871 223.542 213.982 223.877 214.317C224.211 214.635 224.418 215.113 224.578 215.639C225.183 217.678 225.979 220.561 226.903 224.018L226.266 223.875C228.082 221.708 230.121 219.287 232.287 216.722C236.11 212.23 239.599 208.184 242.163 205.284C243.438 203.835 244.489 202.672 245.222 201.875C245.939 201.095 246.369 200.681 246.416 200.713Z" fill="#F98011"/>
<path d="M204.397 332.613C204.365 332.613 204.349 332.247 204.317 331.546C204.301 330.765 204.27 329.746 204.254 328.487C204.206 325.827 204.206 321.972 204.254 317.209C204.365 307.683 204.811 294.541 205.894 280.044C206.977 265.548 208.491 252.485 209.797 243.055C210.45 238.339 211.023 234.532 211.469 231.904C211.692 230.661 211.852 229.658 211.995 228.877C212.123 228.192 212.202 227.826 212.234 227.826C212.266 227.826 212.234 228.192 212.154 228.893C212.059 229.674 211.931 230.677 211.788 231.936C211.438 234.676 210.96 238.467 210.386 243.118C209.223 252.565 207.822 265.628 206.723 280.108C205.639 294.572 205.098 307.715 204.843 317.225C204.731 321.908 204.636 325.732 204.572 328.487C204.54 329.746 204.508 330.765 204.493 331.546C204.461 332.247 204.429 332.613 204.397 332.613Z" fill="#F98011"/>
<path d="M196.369 351.968C196.146 352.016 195.508 348.83 195.636 344.879C195.747 340.945 196.241 337.791 196.464 337.807C196.719 337.822 196.592 341.008 196.48 344.895C196.321 348.798 196.592 351.936 196.369 351.968Z" fill="#F98011"/>
<path d="M236.828 328.79C236.844 328.838 235.936 329.188 234.279 329.746C232.623 330.319 230.217 331.084 227.207 331.944C221.202 333.696 212.807 335.799 203.409 337.472C194.011 339.145 185.409 340.053 179.165 340.483C176.043 340.69 173.526 340.817 171.774 340.849C170.022 340.881 169.066 340.881 169.05 340.817C169.034 340.753 170.006 340.658 171.742 340.515C173.622 340.355 176.107 340.148 179.101 339.893C185.314 339.32 193.867 338.316 203.25 336.659C212.616 334.987 220.995 332.98 227.032 331.387C229.931 330.59 232.336 329.937 234.168 329.443C235.872 328.981 236.812 328.742 236.828 328.79Z" fill="#F98011"/>
<path d="M161.834 275.138C161.611 275.138 161.467 263.413 161.515 248.965C161.563 234.516 161.786 222.792 162.025 222.792C162.248 222.792 162.391 234.516 162.343 248.965C162.296 263.413 162.057 275.138 161.834 275.138Z" fill="#F98011"/>
<path d="M268.446 214.078C268.446 214.078 280.887 224.751 281.715 230.804C282.352 235.472 294.586 279.359 300.097 299.016C301.818 305.134 301.451 311.649 299.062 317.543L283.165 356.89L257.439 341.661L270.31 304.751L259.654 273.433L268.446 214.078Z" fill="#FCA70C"/>
<path d="M283.15 356.875C283.134 356.891 282.975 356.811 282.672 356.636C282.322 356.445 281.86 356.19 281.302 355.871C280.044 355.154 278.307 354.151 276.093 352.892C271.553 350.248 265.118 346.488 257.265 341.916L257.042 341.789L257.122 341.534C260.722 331.132 265.102 318.483 269.897 304.592V304.863C268.384 300.817 266.807 296.58 265.198 292.262C261.439 282.115 257.839 272.43 254.557 263.604L254.573 263.636C251.308 256.786 248.488 250.175 247.708 243.835C247.325 240.681 247.405 237.654 247.979 234.946C248.536 232.222 249.476 229.833 250.559 227.794C252.741 223.716 255.338 221.039 257.201 219.399C258.141 218.57 258.906 217.997 259.432 217.63C259.957 217.264 260.244 217.073 260.26 217.105C260.276 217.136 260.021 217.344 259.511 217.742C259.001 218.14 258.269 218.745 257.361 219.59C255.561 221.262 253.06 223.97 250.957 228.017C249.906 230.04 249.03 232.397 248.504 235.058C247.979 237.718 247.931 240.681 248.329 243.756C249.141 249.968 251.961 256.484 255.258 263.302V263.318V263.334C258.555 272.159 262.171 281.844 265.946 291.976C267.555 296.293 269.116 300.53 270.63 304.576L270.677 304.72L270.63 304.863C265.755 318.722 261.327 331.355 257.679 341.741L257.536 341.359C265.325 346.042 271.713 349.881 276.221 352.574C278.387 353.896 280.107 354.947 281.334 355.696C281.876 356.046 282.322 356.317 282.656 356.54C283.006 356.763 283.166 356.875 283.15 356.875Z" fill="#F98011"/>
<g opacity="0.3">
<g opacity="0.3">
<path opacity="0.3" d="M216.837 219.845C218.589 219.892 220.341 220.928 220.66 222.648C220.978 224.369 220.74 226.169 221.186 227.857C221.632 229.546 223.177 231.187 224.881 230.836C225.916 230.629 226.681 229.753 227.318 228.909C230.663 224.592 233.371 219.207 235.346 214.11C235.299 214.237 226.522 224.241 226.522 224.241C226.251 221.724 225.455 219.223 224.547 216.866C224.244 216.101 223.909 214.811 223.177 214.46C221.982 213.919 220.389 215.671 219.609 216.722C218.812 217.774 217.076 219.606 216.837 219.701" fill="black"/>
</g>
</g>
<g opacity="0.3">
<g opacity="0.3">
<path opacity="0.3" d="M202.453 210.749C202.74 216.244 203.6 222.027 205.671 227.125C205.878 227.65 206.117 228.176 206.531 228.558C206.945 228.925 207.614 229.1 208.076 228.781C208.427 228.558 209.51 225.786 209.653 225.388C210.465 223.11 213.779 222.903 213.779 222.903C213.779 222.903 212.472 217.057 211.628 215.32C211.246 214.54 210.434 213.855 209.573 213.998C208.554 214.173 207.439 215.559 207.311 216.595C206.818 220.689 206.881 222.553 206.276 223.986C204.731 219.637 203.473 214.397 202.453 210.589" fill="black"/>
</g>
</g>
<g opacity="0.3">
<g opacity="0.3">
<path opacity="0.3" d="M226.889 331.434C228.53 330.558 228.737 328.041 227.654 326.512C226.57 324.999 224.532 324.393 222.684 324.616C220.836 324.855 219.148 325.795 217.65 326.894C216.137 327.978 214.751 329.236 213.158 330.208C209.256 332.613 204.493 333.155 199.921 333.234C195.334 333.314 190.714 332.98 186.206 333.84C181.714 334.716 177.206 337.026 175.04 341.072C175.024 341.072 214.178 338.221 226.889 331.434Z" fill="black"/>
</g>
</g>
<path d="M252.487 388.958C246.927 385.326 244.49 381.821 242.228 378.38C242.276 378.237 242.292 378.125 242.244 378.03C242.181 377.902 242.021 377.838 241.862 377.791C240.604 375.831 239.616 374.047 238.867 372.534C242.069 370.447 246.242 367.309 241.703 366.656C236.112 365.859 232.113 363.135 231.54 361.653C230.966 360.172 232.83 358.834 234.312 359.774C235.506 360.538 237.88 361.207 239.696 361.638C241.193 361.988 242.722 362.1 244.251 361.924C245.191 361.813 248.536 359.535 252.088 357.862C252.598 357.623 253.156 357.559 253.713 357.655L255.083 357.559C256.549 357.464 257.855 356.604 258.54 355.297L263.701 345.357L279.311 354.596L266.95 371.753C266.934 371.753 258.412 383.063 252.487 388.958Z" fill="#FFC3BD"/>
<path d="M255.704 390.758C255.672 390.837 254.222 390.328 252.104 389.053C249.985 387.795 247.229 385.724 244.713 382.904C242.196 380.085 240.444 377.106 239.424 374.86C238.405 372.614 238.054 371.116 238.134 371.1C238.389 370.973 240.332 376.835 245.318 382.347C250.24 387.938 255.863 390.519 255.704 390.758Z" fill="#455A64"/>
<path d="M206.515 400.81C206.499 400.841 206.355 400.794 206.084 400.666C205.814 400.555 205.431 400.316 204.985 399.965C204.093 399.232 203.106 397.831 202.437 395.919C201.752 394.007 201.306 391.666 200.7 389.101C200.127 386.52 199.538 383.685 198.948 380.69C197.769 374.716 196.877 369.268 196.304 365.317C196.017 363.342 195.81 361.733 195.699 360.634C195.571 359.519 195.539 358.914 195.603 358.898C195.667 358.882 195.81 359.487 196.017 360.586C196.256 361.861 196.543 363.406 196.893 365.222C197.61 369.141 198.598 374.557 199.777 380.531C200.366 383.494 200.939 386.329 201.465 388.942C202.023 391.522 202.421 393.864 203.01 395.744C203.6 397.624 204.444 398.978 205.224 399.742C205.973 400.475 206.562 400.73 206.515 400.81Z" fill="#151A92"/>
<path d="M205.192 365.03C205.192 364.983 205.462 364.935 205.892 365.078C206.323 365.222 206.928 365.62 207.342 366.369C207.756 367.085 207.915 368.312 207.199 369.284C206.546 370.224 205.223 370.893 203.854 370.558C202.5 370.176 201.671 368.981 201.512 367.85C201.321 366.671 201.894 365.652 202.516 365.11C203.838 363.979 205.032 364.314 204.969 364.377C205 364.521 203.917 364.457 202.93 365.524C202.452 366.034 202.085 366.846 202.261 367.723C202.42 368.583 203.105 369.491 204.061 369.762C205.016 370.017 206.068 369.539 206.577 368.838C207.135 368.137 207.103 367.261 206.816 366.623C206.227 365.301 205.128 365.158 205.192 365.03Z" fill="#151A92"/>
<path d="M171.328 358.643C171.407 358.627 171.79 360.013 171.742 362.307C171.71 364.6 171.073 367.802 169.4 370.909C167.712 374.015 165.402 376.309 163.507 377.615C161.611 378.922 160.241 379.368 160.209 379.288C160.146 379.16 161.404 378.539 163.156 377.137C164.908 375.767 167.059 373.505 168.668 370.51C170.261 367.516 170.977 364.473 171.153 362.259C171.344 360.044 171.169 358.659 171.328 358.643Z" fill="#151A92"/>
<path d="M109.506 246.862C109.267 246.814 109.777 243.293 110.302 238.944C110.844 234.595 111.226 231.059 111.465 231.075C111.688 231.091 111.672 234.675 111.131 239.04C110.589 243.437 109.729 246.909 109.506 246.862Z" fill="#F98011"/>
<path d="M77.7596 228.67C77.7756 228.67 77.7437 228.861 77.6481 229.227C77.5366 229.657 77.3933 230.183 77.234 230.836C76.8198 232.318 76.2464 234.341 75.5455 236.89C74.0163 242.178 71.8659 249.586 69.3013 258.459L69.0465 258.013C78.0464 260.243 88.91 262.075 100.474 264.194C106.241 265.261 111.8 266.44 116.929 267.714H116.738C129.72 264.783 140.95 262.234 149.058 260.402C153.008 259.542 156.194 258.841 158.472 258.347C159.523 258.14 160.352 257.965 160.989 257.837C161.562 257.726 161.865 257.678 161.865 257.71C161.865 257.726 161.578 257.822 161.021 257.981C160.384 258.14 159.555 258.363 158.52 258.618C156.258 259.176 153.088 259.94 149.17 260.896C141.093 262.792 129.879 265.436 116.929 268.495L116.834 268.511L116.738 268.495C111.625 267.236 106.081 266.089 100.315 265.022C88.7666 262.887 77.8871 261.023 68.8712 258.714L68.5049 258.618L68.6164 258.268C71.3084 249.426 73.5544 242.051 75.1473 236.778C75.9437 234.261 76.565 232.238 77.0269 230.772C77.234 230.135 77.4092 229.609 77.5526 229.195C77.6641 228.845 77.7437 228.67 77.7596 228.67Z" fill="#F98011"/>
<path d="M461.805 395.258C452.256 390.711 442.82 421.063 442.82 421.063C426.564 442.435 403.941 414.015 406.215 445.959C410.08 502.004 341.758 463.58 373.248 522.012C404.737 580.443 345.396 555.093 364.949 602.27C384.502 649.447 359.151 705.606 388.594 682.529C388.594 682.529 414.514 625.575 441.342 607.954C468.057 590.334 425.313 569.416 433.726 545.543C445.889 510.757 475.219 512.121 454.074 474.834C432.93 437.547 494.204 410.718 461.805 395.258Z" fill="#9090F4"/>
<path d="M379.273 661.157C392.005 652.176 407.011 589.538 407.92 552.251C408.375 533.152 414.059 525.195 419.061 518.146C423.835 511.439 427.928 505.642 425.541 492.341C420.993 466.877 433.044 455.963 433.157 455.85L431.793 454.258C431.225 454.713 418.72 466.081 423.494 492.796C425.768 505.187 422.017 510.416 417.356 517.01C412.467 523.944 406.329 532.47 405.874 552.251C404.964 592.266 389.618 651.38 378.136 659.451L379.273 661.157Z" fill="white"/>
<path d="M374.498 665.817C376.203 665.817 377.908 665.59 379.955 665.249C384.843 664.226 388.14 661.611 389.504 657.519C392.914 647.628 384.957 631.713 378.477 623.983C378.363 623.869 367.564 610.568 368.7 592.266C368.928 589.197 369.269 586.354 369.496 583.854C370.292 576.578 370.86 571.349 367.791 567.825C365.063 564.755 359.72 563.391 350.057 563.391C333.005 563.277 326.298 556.229 320.955 550.659C318.681 548.272 316.521 545.998 313.906 544.52C305.38 539.859 296.4 539.177 292.534 542.929C290.716 544.634 289.124 548.158 292.193 554.524C295.035 560.322 298.673 564.073 301.515 567.029C305.494 571.008 307.995 573.736 306.631 578.965C306.29 580.216 305.949 581.466 305.608 582.717C302.993 591.697 300.037 601.815 315.384 608.75C318.681 610.227 321.637 611.364 324.251 612.387C334.937 616.594 341.417 619.094 348.693 634.555C350.057 637.511 351.307 640.353 352.558 643.081C358.242 655.927 362.675 665.817 374.498 665.817ZM312.77 546.112C315.157 547.362 317.089 549.408 319.363 551.796C325.047 557.707 332.095 565.096 350.057 565.21C358.924 565.21 363.926 566.46 366.199 568.961C368.7 571.803 368.132 576.578 367.45 583.399C367.109 585.9 366.881 588.855 366.654 591.925C365.404 611.137 376.431 624.551 376.885 625.12C383.251 632.736 390.527 647.969 387.571 656.609C386.435 660.019 383.706 662.066 379.5 662.975C365.063 665.931 361.084 656.836 354.49 641.831C353.24 639.102 351.989 636.26 350.625 633.191C343.009 617.048 335.847 614.206 325.047 610C322.432 608.977 319.477 607.84 316.294 606.362C302.652 600.224 305.039 591.811 307.654 582.83C307.995 581.58 308.45 580.329 308.677 578.965C310.269 572.485 307.086 569.189 302.993 564.983C300.037 561.913 296.741 558.503 294.012 553.046C292.648 550.09 291.511 546.225 293.899 543.952C297.082 541.223 305.267 542.019 312.77 546.112Z" fill="url(#paint0_linear)"/>
<path d="M379.728 677.981L381.888 677.867C381.774 675.935 379.159 629.098 360.402 615.457C339.826 600.451 333.346 584.308 330.277 573.508C326.639 560.776 308.109 557.366 307.313 557.252L306.972 559.298C307.2 559.298 325.047 562.595 328.23 574.077C331.414 585.218 338.121 601.815 359.152 617.162C376.999 630.235 379.728 677.526 379.728 677.981Z" fill="url(#paint1_linear)"/>
<path d="M336.756 442.435C350.056 437.888 347.328 463.58 353.012 482.564C358.696 501.549 415.764 490.863 391.777 538.495C367.79 586.127 422.016 554.411 405.873 596.018C389.731 637.625 404.509 682.074 386.889 670.706C369.268 659.451 376.999 607.045 358.696 600.792C340.393 594.54 337.438 587.264 355.513 570.439C373.702 553.501 307.994 536.79 324.251 502.572C340.28 468.468 321.409 447.665 336.756 442.435Z" fill="#555BE4"/>
<path d="M378.704 668.773C380.409 661.611 394.733 599.087 381.319 591.47C369.496 584.763 369.837 558.844 371.656 534.403C373.248 512.69 345.396 502.572 344.259 502.117L343.577 504.164C343.804 504.277 371.088 514.167 369.61 534.289C367.677 559.412 367.564 586.127 380.296 593.403C390.413 599.2 381.092 649.447 376.658 668.432L378.704 668.773Z" fill="white"/>
<path d="M348.352 646.378L367.336 718.679H409.967L428.951 646.378H348.352Z" fill="url(#paint2_linear)"/>
<path d="M348.351 646.378C348.351 646.378 390.299 654.222 390.299 718.679H409.966L429.064 646.378H348.351Z" fill="url(#paint3_linear)"/>
<defs>
<linearGradient id="paint0_linear" x1="390.375" y1="603.044" x2="290.393" y2="603.044" gradientUnits="userSpaceOnUse">
<stop stop-color="#40D5E6"/>
<stop offset="1" stop-color="#5577FF"/>
</linearGradient>
<linearGradient id="paint1_linear" x1="381.83" y1="617.582" x2="306.786" y2="617.582" gradientUnits="userSpaceOnUse">
<stop stop-color="#40D5E6"/>
<stop offset="1" stop-color="#5577FF"/>
</linearGradient>
<linearGradient id="paint2_linear" x1="428.984" y1="682.55" x2="348.336" y2="682.55" gradientUnits="userSpaceOnUse">
<stop stop-color="#FF9340"/>
<stop offset="1" stop-color="#FFCE45"/>
</linearGradient>
<linearGradient id="paint3_linear" x1="428.984" y1="682.55" x2="348.336" y2="682.55" gradientUnits="userSpaceOnUse">
<stop stop-color="#C97332"/>
<stop offset="1" stop-color="#FFCE45"/>
</linearGradient>
</defs>
</svg>
