<svg width="37" height="37" fill="none" xmlns="http://www.w3.org/2000/svg"><circle cx="18.5" cy="18.5" r="18.5" fill="#FCA70C" fill-opacity=".2"/><g clip-path="url(#clip0)" fill="#FCA70C"><path d="M28.898 16.811a.424.424 0 00-.322-.148h-.882v-4.751a.59.59 0 00-.59-.59H16.867l-.83-1.383a.593.593 0 00-.506-.287h-4.606a.591.591 0 00-.59.59v6.42h-.91a.424.424 0 00-.42.489l1.641 10.836c.033.209.209.36.42.36h15.868c.21 0 .387-.152.42-.361l1.64-10.834a.423.423 0 00-.096-.341zm-17.895-6.49h4.485l.83 1.382c.105.177.299.287.505.287h10.204v4.673h-.334v-1.335h-.334v-1.002h-.334v-1.001h-14.02v1.001h-.335v1.002h-.333v1.335h-.334V10.32zm1.001 5.674h14.021v.668h-14.02v-.668zm.334-1.001h13.353v.334H12.338v-.334zm13.02-.668H12.672v-.334h12.686v.334zm1.367 13.353h-15.45L9.707 17.331H28.293l-1.568 10.348z"/><path d="M17.998 26.01h7.01v-4.673h-7.01v4.674zm.668-4.005h5.675v3.338h-5.675v-3.338z"/><path d="M19.668 23.34h1.335a.334.334 0 100-.668h-1.335a.333.333 0 100 .668zM22.338 23.34h.334a.333.333 0 100-.668h-.334a.334.334 0 100 .668zM23.34 24.007h-3.672a.334.334 0 100 .668h3.672a.334.334 0 100-.668z"/></g><defs><clipPath id="clip0"/></defs></svg>