<svg width="70" height="70" fill="none" xmlns="http://www.w3.org/2000/svg"><circle cx="35" cy="35" r="35" fill="#7057D6" fill-opacity=".2"/><g clip-path="url(#clip0)" fill="#7057D6"><path d="M20.646 50.541a.787.787 0 00-.552-.228.787.787 0 00-.552.228.787.787 0 00-.23.553.787.787 0 00.781.781.787.787 0 00.553-.229.787.787 0 00.23-.552.787.787 0 00-.23-.553zM50.681 29.292a.785.785 0 00-.552-.229.787.787 0 00-.552.23.788.788 0 00-.23.552.787.787 0 00.781.781.786.786 0 00.783-.781.785.785 0 00-.23-.553z"/><path d="M53.77 15.229a.781.781 0 00-.552-.229L34 15.001a.781.781 0 00-.781.781v2.234l-7.406 1.985a.781.781 0 00-.552.956l3.838 14.324-3.32 3.32a2.343 2.343 0 00-1.935-1.023h-7.5A2.346 2.346 0 0014 39.922v12.734A2.346 2.346 0 0016.345 55h7.5c1.098 0 2.021-.76 2.275-1.78l.928.81c.718.626 1.636.97 2.588.97h23.583c.432 0 .781-.35.781-.781V15.78a.782.782 0 00-.228-.552zM24.626 52.656c0 .431-.35.782-.781.782h-7.5a.782.782 0 01-.781-.782V39.922c0-.43.35-.781.781-.781h2.969v9a.781.781 0 001.562 0v-9h2.969c.43 0 .781.35.781.781v12.734zm2.347-31.348l6.247-1.674v2.895l-.524.14a.781.781 0 00-.552.957 2.106 2.106 0 01-1.488 2.576.781.781 0 00-.552.959l3.045 11.276H31.58l-.808-3.161a.778.778 0 00-.13-.274l-3.67-13.694zm6.247 4.804v6.592l-1.425-5.276a3.66 3.66 0 001.425-1.316zm11.223 27.326H29.635a2.374 2.374 0 01-1.56-.585l-1.887-1.646V40.402l3.41-3.41.619 2.42c.088.346.4.587.757.587l15.36.001a1.095 1.095 0 010 2.188h-7.87a.781.781 0 000 1.562h10.315a1.095 1.095 0 010 2.188H38.463a.781.781 0 000 1.562h8.644a1.095 1.095 0 010 2.188h-8.644a.781.781 0 000 1.562h5.98c.602 0 1.093.49 1.093 1.094 0 .603-.49 1.093-1.094 1.093zm7.995 0h-5.575a2.64 2.64 0 000-2.188h.245a2.66 2.66 0 002.656-2.656c0-.427-.102-.831-.282-1.189a2.66 2.66 0 001.954-2.561c0-.593-.195-1.14-.524-1.583V33.36a.781.781 0 00-1.563 0v8.89a2.658 2.658 0 00-.57-.062h-.025a2.66 2.66 0 00-2.42-3.75h-1.255A3.744 3.744 0 0047.348 35a3.743 3.743 0 00-3.74-3.739A3.743 3.743 0 0039.87 35c0 1.54.937 2.866 2.27 3.438h-4.27V23.583a3.678 3.678 0 002.8-2.801h5.877a3.678 3.678 0 002.801 2.801v2.429a.781.781 0 001.563 0v-3.127a.781.781 0 00-.782-.78A2.106 2.106 0 0148.026 20a.781.781 0 00-.781-.782h-7.272a.781.781 0 00-.781.782c0 1.16-.944 2.103-2.104 2.103a.781.781 0 00-.78.782v15.552H34.78V16.563h17.656v36.874zm-8.828-16.262c-1.2 0-2.176-.976-2.176-2.176 0-1.2.976-2.176 2.176-2.176 1.2 0 2.176.976 2.176 2.176 0 1.2-.976 2.176-2.176 2.176z"/></g><defs><clipPath id="clip0"/></defs></svg>