<svg width="70" height="70" fill="none" xmlns="http://www.w3.org/2000/svg"><circle cx="35" cy="35" r="35" fill="#7057D6" fill-opacity=".2"/><g fill="#7057D6"><path d="M42.667 21.334H29.333v1.333h13.334v-1.334zM49 43a2.336 2.336 0 00-2.333-2.333h-1.334v-9.334H44v9.334h-1.667A2.336 2.336 0 0040 43c0 .653.272 1.243.706 1.667A2.324 2.324 0 0040 46.333c0 .45.134.866.355 1.223A2.331 2.331 0 0039 49.666c0 .36.089.697.234 1H34a5.997 5.997 0 00-2.58-4.926A4.007 4.007 0 0034 42a.667.667 0 00-.667-.666H28v-6.667h-1.333v6.666c-1.103 0-2 .898-2 2V58H26V43.334c0-.368.299-.667.667-.667h5.915a2.67 2.67 0 01-2.582 2h-2A.667.667 0 1028 46a4.672 4.672 0 014.667 4.667v.666c0 .369.298.667.666.667h3.901c-.145.304-.234.64-.234 1a2.336 2.336 0 002.333 2.334V58h1.334v-2.666h3A2.336 2.336 0 0046 53c0-.363-.09-.703-.24-1.01A2.332 2.332 0 0048 49.668c0-.45-.134-.866-.355-1.223A2.331 2.331 0 0049 46.334c0-.654-.271-1.243-.705-1.667A2.324 2.324 0 0049 43zm-5.333 11H39.333a1.001 1.001 0 010-2h4.334a1.001 1.001 0 010 2zm2-3.333h-4.334a1.001 1.001 0 010-2h4.334a1.001 1.001 0 010 2zm1-3.334h-4.334a1.001 1.001 0 010-2h4.334a1.001 1.001 0 010 2zm0-3.333h-4.334a1.001 1.001 0 010-2h4.334a1.001 1.001 0 010 2zM25.998 26.486a.666.666 0 00-.262-.484l-.694-.526A1.827 1.827 0 0023.257 24a1.83 1.83 0 00-1.82 1.809 3.87 3.87 0 01-1.498-.605l-.233-.157a.666.666 0 00-1.04.553v.547c0 .803.243 1.57.692 2.213l-.498.505A.666.666 0 0019.332 30h3.23a2.524 2.524 0 002.498-2.242l.746-.756a.667.667 0 00.191-.516zm-2.062.512a.665.665 0 00-.192.469c0 .661-.53 1.2-1.18 1.2h-1.696a.668.668 0 00-.137-.736 2.549 2.549 0 01-.647-1.139c.636.269 1.32.408 2.019.408a.666.666 0 00.667-.667v-.7c0-.275.218-.5.487-.5.268 0 .487.225.487.5 0 .209.097.406.263.532l.318.24-.389.393z"/><path d="M38 29.333V28h-2a.667.667 0 00-.667.667v2H34V32h1.333v2.667h1.334V32H38v-1.333h-1.333v-1.334H38z"/><path d="M40 25.334h-8c-1.103 0-2 .897-2 2v8c0 1.102.897 2 2 2h8c1.103 0 2-.898 2-2v-8c0-1.103-.897-2-2-2zm.667 10A.667.667 0 0140 36h-8a.667.667 0 01-.667-.666v-8c0-.368.3-.667.667-.667h8c.368 0 .667.299.667.666v8zM26 21.334h-8c-1.103 0-2 .897-2 2v8c0 1.102.897 2 2 2h8c1.103 0 2-.898 2-2v-8c0-1.103-.897-2-2-2zm.667 10A.667.667 0 0126 32h-8a.667.667 0 01-.667-.666v-8c0-.368.3-.667.667-.667h8c.368 0 .667.299.667.666v8zM54 18h-8c-1.103 0-2 .897-2 2v8c0 1.103.897 2 2 2h8c1.103 0 2-.897 2-2v-8c0-1.103-.897-2-2-2zm.667 10a.667.667 0 01-.667.667h-8a.667.667 0 01-.667-.667v-3.333h1.401A3.339 3.339 0 0050 27.333a3.339 3.339 0 003.266-2.666h1.4V28zM48 24c0-1.103.897-2 2-2s2 .897 2 2-.897 2-2 2-2-.897-2-2zm6.667-.667h-1.401A3.339 3.339 0 0050 20.667a3.339 3.339 0 00-3.266 2.666h-1.4V20c0-.367.298-.667.666-.667h8c.368 0 .667.3.667.667v3.333zM36.667 45.334h-1.334v1.333h1.334v-1.334z"/></g></svg>