<svg width="37" height="37" fill="none" xmlns="http://www.w3.org/2000/svg"><circle cx="18.5" cy="18.5" r="18.5" fill="#FCA70C" fill-opacity=".2"/><path d="M29.102 16.53H27.86a9.132 9.132 0 00-.852-2.048l.88-.88a.898.898 0 000-1.268l-2.222-2.223a.898.898 0 00-1.268 0l-.88.88a9.132 9.132 0 00-2.049-.851V8.898A.899.899 0 0020.571 8H17.43a.899.899 0 00-.898.898v1.242c-.718.2-1.405.486-2.049.852l-.88-.88a.898.898 0 00-1.268 0l-2.223 2.222a.898.898 0 000 1.268l.88.88a9.132 9.132 0 00-.851 2.049H8.898a.899.899 0 00-.898.898v3.142c0 .496.403.898.898.898h1.242c.2.718.486 1.405.852 2.049l-.88.88a.898.898 0 000 1.268l2.222 2.223c.35.35.918.35 1.268 0l.88-.88a9.13 9.13 0 002.049.851v1.242c0 .495.402.898.898.898h3.143a.899.899 0 00.897-.898V27.86a9.132 9.132 0 002.049-.852l.88.88c.35.35.919.35 1.268 0l2.223-2.222a.898.898 0 000-1.268l-.88-.88c.365-.644.65-1.33.851-2.049h1.242a.899.899 0 00.898-.898V17.43a.899.899 0 00-.898-.898zm0 4.041h-1.59a.45.45 0 00-.436.345 8.24 8.24 0 01-1.013 2.436.449.449 0 00.064.554l1.127 1.125-2.221 2.223-1.127-1.127a.449.449 0 00-.554-.064 8.24 8.24 0 01-2.436 1.013.45.45 0 00-.345.437v1.589H17.43v-1.59a.449.449 0 00-.345-.436 8.244 8.244 0 01-2.436-1.013.448.448 0 00-.554.064l-1.125 1.127-2.223-2.221 1.127-1.127a.449.449 0 00.065-.554 8.241 8.241 0 01-1.014-2.436.45.45 0 00-.437-.345H8.898V17.43h1.59a.449.449 0 00.436-.345 8.244 8.244 0 011.013-2.436.449.449 0 00-.064-.554l-1.127-1.125 2.221-2.223 1.127 1.127a.449.449 0 00.554.065 8.241 8.241 0 012.436-1.014.45.45 0 00.345-.437V8.898h3.142v1.59c0 .207.143.388.345.436a8.243 8.243 0 012.436 1.013c.177.11.407.084.554-.064l1.125-1.127 2.223 2.221-1.127 1.127a.449.449 0 00-.064.554 8.24 8.24 0 011.013 2.436.45.45 0 00.437.345h1.589v3.142z" fill="#FCA70C"/><path d="M19 13.612A5.394 5.394 0 0013.612 19 5.394 5.394 0 0019 24.388 5.394 5.394 0 0024.388 19 5.394 5.394 0 0019 13.612zm0 9.878A4.495 4.495 0 0114.51 19 4.495 4.495 0 0119 14.51 4.495 4.495 0 0123.49 19 4.495 4.495 0 0119 23.49z" fill="#FCA70C"/><path d="M19 16.306A2.697 2.697 0 0016.306 19 2.697 2.697 0 0019 21.694 2.697 2.697 0 0021.694 19 2.697 2.697 0 0019 16.306zm0 4.49c-.99 0-1.796-.806-1.796-1.796s.806-1.796 1.796-1.796 1.796.806 1.796 1.796-.806 1.796-1.796 1.796z" fill="#FCA70C"/></svg>