<svg width="23" height="24" fill="none" xmlns="http://www.w3.org/2000/svg"><path d="M10.151 16.278a.5.5 0 000-.663.407.407 0 00-.609 0 .5.5 0 000 .663c.169.183.441.183.61 0zM8.113 5.155c0 2.842 2.124 5.155 4.735 5.155 2.61 0 4.734-2.313 4.734-5.155C17.582 2.312 15.458 0 12.848 0S8.113 2.312 8.113 5.155zm8.608 0c0 2.325-1.737 4.217-3.873 4.217S8.974 7.48 8.974 5.155c0-2.326 1.738-4.218 3.874-4.218S16.72 2.83 16.72 5.155z" fill="#7057D6"/><path d="M4.98 23.862a.406.406 0 00.607.003l2.086-2.238c.355-.386.463-.957.307-1.454l.449-.471a1.23 1.23 0 01.896-.395h5.722c1.015 0 1.974-.424 2.701-1.195.03-.031-.227.298 3.904-5.077.613-.79.521-1.974-.204-2.642-.721-.662-1.802-.566-2.416.21l-2.54 2.841c-.32-.43-.81-.697-1.338-.697h-4.8a5.163 5.163 0 00-2.155-.469c-2.072 0-3.882 1.042-4.853 2.996a1.22 1.22 0 00-1.151.389L.147 17.899a.499.499 0 000 .66l4.832 5.303zM8.2 13.215c.658 0 1.296.145 1.894.43a.4.4 0 00.173.039h4.887c.467 0 .861.414.861.937 0 .517-.386.938-.86.938h-3.512c-.238 0-.43.21-.43.468 0 .259.192.469.43.469h3.511c.95 0 1.722-.841 1.722-1.875 0-.082-.006-.164-.015-.245 2.456-2.75 2.803-3.136 2.818-3.155a.816.816 0 011.213-.112.998.998 0 01.101 1.323l-3.86 5.025c-.564.589-1.304.913-2.086.913H9.325c-.561 0-1.092.234-1.494.657l-.366.385-3.372-3.671c.788-1.61 2.267-2.526 4.106-2.526zm-5.396 3.11a.404.404 0 01.533-.066c.074.05-.14-.162 3.728 4.042a.5.5 0 01.002.66l-1.779 1.91-4.23-4.64 1.746-1.906zM12.331 2.343v.55c-.5.193-.86.714-.86 1.325 0 .775.579 1.406 1.29 1.406.238 0 .431.21.431.468 0 .259-.193.469-.43.469-.184 0-.383-.126-.56-.355a.407.407 0 00-.606-.057.498.498 0 00-.052.66c.23.298.5.506.787.61v.548c0 .259.193.468.43.468.238 0 .431-.21.431-.468v-.55c.501-.193.86-.714.86-1.325 0-.775-.578-1.406-1.29-1.406-.238 0-.43-.21-.43-.468 0-.259.192-.469.43-.469.152 0 .313.085.465.245.171.18.444.175.609-.01a.499.499 0 00-.01-.663 1.646 1.646 0 00-.634-.432v-.546c0-.259-.193-.468-.43-.468-.238 0-.43.21-.43.468z" fill="#7057D6"/></svg>