<svg width="45" height="45" fill="none" xmlns="http://www.w3.org/2000/svg"><g fill="#fff"><path d="M42.729 1.67H9.805A2.274 2.274 0 007.534 3.94V7.39H2.27A2.274 2.274 0 000 9.661v29.227a4.43 4.43 0 004.394 4.425h23.35a.66.66 0 100-1.318H7.574a4.412 4.412 0 001.278-3.107V23.473a.66.66 0 00-1.318 0v15.415a3.111 3.111 0 01-3.091 3.107h-.017a3.111 3.111 0 01-3.108-3.107V9.66c0-.526.428-.953.953-.953h5.263v12.304a.659.659 0 101.318 0V3.942c0-.526.428-.954.953-.954h32.924c.525 0 .953.428.953.953v34.947a3.111 3.111 0 01-3.108 3.107H30.205a.66.66 0 100 1.319h10.369A4.43 4.43 0 0045 38.888V3.94a2.274 2.274 0 00-2.271-2.271z"/><path d="M14.442 27.972h9.04c.86 0 1.56-.7 1.56-1.56v-9.04c0-.86-.7-1.56-1.56-1.56h-9.04c-.86 0-1.56.7-1.56 1.56v9.04c0 .86.7 1.56 1.56 1.56zm-.241-10.6c0-.134.108-.242.241-.242h9.04c.134 0 .242.108.242.242v9.04a.242.242 0 01-.241.242h-9.041a.242.242 0 01-.241-.242v-9.04zM27.439 17.13h12.234a.66.66 0 100-1.318H27.44a.66.66 0 100 1.318zM27.439 22.552h12.234a.66.66 0 000-1.319H27.44a.66.66 0 100 1.319zM27.439 27.972h12.234a.66.66 0 000-1.318H27.44a.66.66 0 100 1.318zM13.541 33.393h26.132a.66.66 0 100-1.318H13.54a.66.66 0 000 1.318zM13.541 38.814h26.132a.66.66 0 100-1.318H13.54a.66.66 0 100 1.318zM12.9 12.439V5.474c0-.144.067-.253.203-.328.136-.075.301-.113.494-.113.258 0 .454.047.59.14.136.093.287.294.451.601l2.072 4.003V5.463c0-.143.068-.25.203-.322.136-.072.301-.108.494-.108.194 0 .358.036.494.108.136.072.204.179.204.322v6.976c0 .136-.07.243-.21.322a.974.974 0 01-.488.118c-.38 0-.648-.146-.805-.44l-2.307-4.315v4.315c0 .136-.07.243-.21.322a.976.976 0 01-.488.118.966.966 0 01-.493-.118c-.137-.079-.205-.186-.205-.322zM19.393 12.439V5.474c0-.136.06-.243.182-.322a.772.772 0 01.43-.119h3.82c.143 0 .253.062.327.183a.78.78 0 01.113.419c0 .171-.04.318-.118.44a.366.366 0 01-.322.182h-3.037v2.146h1.631c.136 0 .243.056.322.167.079.11.118.241.118.392 0 .136-.037.259-.113.37a.37.37 0 01-.327.166h-1.631v2.158h3.037c.136 0 .243.06.322.182a.795.795 0 01.118.44.78.78 0 01-.113.419.361.361 0 01-.327.182h-3.82a.772.772 0 01-.43-.118.366.366 0 01-.182-.322zM24.963 5.592c0-.15.096-.281.29-.392a1.19 1.19 0 01.6-.167c.258 0 .412.093.462.28l1.696 5.817.912-3.735c.064-.258.293-.387.687-.387.386 0 .612.129.676.387l.912 3.735 1.696-5.817c.05-.187.204-.28.462-.28.207 0 .407.056.6.167.194.11.29.241.29.392a.413.413 0 01-.02.128L32.1 12.471c-.108.315-.412.473-.912.473-.215 0-.408-.042-.58-.124-.172-.082-.276-.198-.311-.349l-.687-2.897-.697 2.897c-.037.15-.14.267-.312.349a1.323 1.323 0 01-.58.124c-.221 0-.418-.042-.59-.124-.172-.082-.279-.198-.322-.349l-2.125-6.75a.402.402 0 01-.021-.13zM34.6 11.645c0-.165.063-.331.188-.5.125-.167.267-.251.424-.251.093 0 .199.044.317.133.118.09.232.188.343.296.111.107.27.206.478.295.207.09.436.134.687.134.343 0 .63-.079.858-.236.23-.158.344-.39.344-.698a.936.936 0 00-.188-.574 1.494 1.494 0 00-.494-.419 7.825 7.825 0 00-.67-.322c-.244-.103-.489-.22-.736-.348a4.28 4.28 0 01-.676-.435 1.735 1.735 0 01-.493-.644 2.143 2.143 0 01-.188-.917c0-.385.077-.725.23-1.02.154-.293.36-.522.617-.685.258-.164.533-.284.827-.36a3.7 3.7 0 01.934-.115c.185 0 .382.014.59.04.207.025.427.067.66.126.233.059.422.15.569.275.146.125.22.272.22.441 0 .16-.05.325-.15.495-.1.17-.236.255-.408.255-.065 0-.24-.068-.526-.204a2.198 2.198 0 00-.955-.204c-.387 0-.685.074-.896.22a.7.7 0 00-.317.606c0 .208.086.389.258.543.171.153.384.279.638.375.254.097.53.219.827.365.296.147.572.306.826.478.254.171.467.42.639.745.171.326.257.707.257 1.144 0 .733-.234 1.3-.703 1.698-.469.399-1.086.598-1.851.598-.68 0-1.263-.14-1.75-.418-.486-.279-.73-.583-.73-.912z"/></g></svg>