<svg width="45" height="45" xmlns="http://www.w3.org/2000/svg"><path d="M22.5 29.531a.88.88 0 100 1.759.88.88 0 000-1.759zM13.71 13.71h1.038l1.334 6.67a2.645 2.645 0 002.586 2.12h7.664c1.253 0 2.34-.892 2.586-2.12l1.334-6.67h1.037a.879.879 0 000-1.757h-4.64l-1.557-4.672a.879.879 0 10-1.668.555l1.372 4.117h-4.592l1.372-4.117a.879.879 0 10-1.668-.555l-1.557 4.672h-4.64a.879.879 0 100 1.758zm14.75 0l-1.265 6.325a.882.882 0 01-.863.707h-7.664a.882.882 0 01-.863-.707l-1.264-6.324h11.918z" fill="#fff"/><path d="M20.742 18.984a.879.879 0 00.88-.879v-1.757a.879.879 0 10-1.759 0v1.758c0 .485.394.878.88.878zM24.258 18.984a.879.879 0 00.879-.879v-1.757a.879.879 0 10-1.758 0v1.758c0 .485.393.878.879.878z" fill="#fff"/><path d="M2.637 34.805h15.468v3.515H15.47a4.365 4.365 0 00-3.107 1.288 4.365 4.365 0 00-1.288 3.107c0 .485.394.879.88.879h21.093a.879.879 0 00.879-.88 4.4 4.4 0 00-4.395-4.394h-2.636v-3.515h15.468c.704 0 1.366-.275 1.864-.773.499-.498.773-1.16.773-1.864V4.043c0-.704-.274-1.366-.773-1.864a2.619 2.619 0 00-1.864-.773H2.637c-.704 0-1.366.275-1.865.773A2.619 2.619 0 000 4.043v28.125c0 .704.274 1.366.772 1.864.499.498 1.16.773 1.865.773zm29.38 7.03H12.982c.129-.365.34-.701.623-.984a2.618 2.618 0 011.864-.773H29.53a2.64 2.64 0 012.486 1.758zm-6.88-3.515h-5.274v-3.515h5.274v3.515zm17.848-5.53a.873.873 0 01-.622.257H2.637a.873.873 0 01-.622-.258.873.873 0 01-.257-.621v-4.395h41.484v4.395a.873.873 0 01-.257.621zM2.015 3.421a.873.873 0 01.622-.258h39.726c.235 0 .456.091.622.258a.873.873 0 01.257.621v21.973H1.758V4.043c0-.235.091-.455.257-.621z" fill="#fff"/></svg>