<svg width="45" height="45" xmlns="http://www.w3.org/2000/svg"><g fill="#fff"><path d="M42.75 27H36V15.75h6.75a.75.75 0 00.75-.75v-3.697L44.992.857a.75.75 0 00-.742-.856h-21a.75.75 0 00-.743.856L24 11.303v3.698c0 .414.336.75.75.75h6.75V27h-.75a2.25 2.25 0 100 4.5h.75V33h-5.25l.7-10.5h.8a.75.75 0 00.75-.75v-3a.75.75 0 00-.75-.75h-5.306a5.26 5.26 0 00-2.657-3.842 5.25 5.25 0 10-9.99-2.863 7.488 7.488 0 00-8.257 6.705H.75a.75.75 0 00-.75.75v3c0 .414.336.75.75.75h.799L3 44.301a.75.75 0 00.75.7h40.5a.75.75 0 00.75-.75v-15A2.25 2.25 0 0042.75 27zM24.115 1.502H27v4.5h1.5V1.5H30v1.5h1.5v-1.5H36v2.25h1.5v-2.25H39v4.5h1.5V1.5h2.885l-1.285 9H25.4l-1.285-9zm1.385 12.75V12H42v2.25H25.5zm9 1.5V27H33V15.75h1.5zM27 19.5V21H15.75v-1.5H27zM9.728 12.798c.206.026.41.062.613.109h.025c.88.207 1.702.609 2.405 1.177l.943-1.167a7.536 7.536 0 00-2.425-1.3 3.74 3.74 0 116.825 2.475.75.75 0 00.375 1.125A3.75 3.75 0 0120.914 18H15a.75.75 0 00-.75.75v6.75a.75.75 0 01-1.5 0V24a2.25 2.25 0 10-4.5 0v5.25a.75.75 0 01-1.5 0v-10.5A.75.75 0 006 18H3.05a5.986 5.986 0 016.678-5.203zM1.5 21.001v-1.5h3.75V21H1.5zM21 35.25v8.25H4.452l-1.4-21H5.25v6.75a2.25 2.25 0 004.5 0V24a.75.75 0 011.5 0v1.5a2.25 2.25 0 104.5 0v-3h9.698L24.75 33h-1.5A2.25 2.25 0 0021 35.25zm22.5 8.25h-2.25v-3.75h-1.5v3.75H37.5v-3.75H36v3.75h-2.25v-3.75h-1.5v3.75H30v-3.75h-1.5v3.75h-2.25v-3.75h-1.5v3.75H22.5v-6h21v6zm0-7.5h-21v-.75a.75.75 0 01.75-.75h16.5a2.25 2.25 0 100-4.5h-9a.75.75 0 010-1.5h12a.75.75 0 01.75.75V36zM33 33v-1.5h1.5V33H33zm3 0v-1.5h3.75a.75.75 0 010 1.5H36zM3 7.5V6H1.5v1.5H0V9h1.5v1.5H3V9h1.5V7.5H3z"/><path d="M42.75 21v-1.5h-1.5V21h-1.5v1.5h1.5V24h1.5v-1.5h1.5V21h-1.5zM14.25 1.5V0h-1.5v1.5h-1.5V3h1.5v1.5h1.5V3h1.5V1.5h-1.5zM28.5 7.5H27V9h1.5V7.5z"/></g></svg>