<svg width="45" height="45" fill="none" xmlns="http://www.w3.org/2000/svg"><path d="M42 .75H3c-1.654 0-3 1.346-3 3V28.5c0 .414.336.75.75.75h43.5a.75.75 0 00.75-.75V3.75c0-1.654-1.346-3-3-3zm1.5 27h-42v-24c0-.827.674-1.5 1.5-1.5h39c.827 0 1.5.673 1.5 1.5v24z" fill="#fff"/><path d="M44.25 27.75H.75a.75.75 0 00-.75.75v3.75c0 1.654 1.346 3 3 3h39c1.654 0 3-1.346 3-3V28.5a.75.75 0 00-.75-.75zm-.75 4.5c0 .827-.673 1.5-1.5 1.5H3c-.826 0-1.5-.673-1.5-1.5v-3h42v3z" fill="#fff"/><path d="M24.75 30.75h-4.5a.75.75 0 000 1.5h4.5a.75.75 0 000-1.5zM41.25 3.75H3.75A.75.75 0 003 4.5v24c0 .414.336.75.75.75h37.5a.75.75 0 00.75-.75v-24a.75.75 0 00-.75-.75zm-.75 24h-36V5.25h36v22.5zM32.25 39.75h-19.5c-1.24 0-2.25 1.01-2.25 2.25s1.01 2.25 2.25 2.25h19.5c1.24 0 2.25-1.01 2.25-2.25s-1.01-2.25-2.25-2.25zm0 3h-19.5a.75.75 0 010-1.5h19.5a.75.75 0 010 1.5z" fill="#fff"/><path d="M30.75 39.75c-2.489 0-3.75-1.766-3.75-5.25a.75.75 0 00-.75-.75h-7.5a.75.75 0 00-.75.75c0 3.484-1.262 5.25-3.75 5.25a.75.75 0 000 1.5h16.5a.75.75 0 000-1.5zm-12.847 0c.923-1.023 1.467-2.546 1.577-4.5h6.04c.11 1.954.653 3.477 1.577 4.5h-9.194zM35.838 22.848l-1.81-1.81 1.007-1.008a.75.75 0 00-.314-1.248l-7.5-2.25a.749.749 0 00-.934.933l2.25 7.5a.749.749 0 001.249.315l1.06-1.061 1.81 1.811a.749.749 0 001.061 0l2.121-2.122a.75.75 0 000-1.06zm-2.65 1.591l-1.65-1.649a.978.978 0 00-1.384 0l-.541.54-1.49-4.962 4.964 1.489-.58.58a.845.845 0 00-.248.6c0 .228.088.442.249.601l1.74 1.74-1.06 1.061zM31.5 6.75h-21a.75.75 0 00-.75.75v3.75c0 .414.336.75.75.75h21a.75.75 0 00.75-.75V7.5a.75.75 0 00-.75-.75zm-.75 3.75h-19.5V8.25h19.5v2.25zM19.5 15h-6a.75.75 0 00-.75.75v3c0 .414.336.75.75.75h6a.75.75 0 00.75-.75v-3a.75.75 0 00-.75-.75zm-.75 3h-4.5v-1.5h4.5V18z" fill="#fff"/><path d="M31.5 6.75h-21a.75.75 0 00-.75.75v14.25c0 .414.336.75.75.75h17.855a.75.75 0 00.718-.966l-.95-3.166 3.162.949a.748.748 0 00.965-.719V7.5a.75.75 0 00-.75-.75zm-.75 10.84l-3.53-1.058a.749.749 0 00-.934.934L27.346 21H11.25V8.25h19.5v9.34z" fill="#fff"/></svg>