<svg width="45" height="45" xmlns="http://www.w3.org/2000/svg"><path d="M44.938 16.237a1.255 1.255 0 00-1.006-.85l-14.04-1.995-6.317-12.7a1.244 1.244 0 00-2.235.01l-6.234 12.736-14.039 2.088a1.255 1.255 0 00-1.007.85c-.147.452-.018.95.324 1.274l10.187 9.873-2.355 13.984c-.083.47.11.942.499 1.219a1.233 1.233 0 001.311.092l12.533-6.64 12.57 6.566c.185.093.38.139.573.139.684 0 1.247-.564 1.247-1.247a.975.975 0 00-.037-.286l-2.429-13.9 10.123-9.93c.36-.332.48-.83.332-1.283zm-12.653 9.892a1.233 1.233 0 00-.351 1.108l2.115 12.127-10.917-5.699a1.263 1.263 0 00-1.164 0l-10.88 5.764 2.041-12.146a1.246 1.246 0 00-.36-1.099l-8.83-8.57 12.183-1.811c.406-.065.757-.314.933-.684l5.412-11.055 5.486 11.028c.185.37.536.618.942.683l12.192 1.737-8.802 8.617z" fill="#fff"/></svg>