<svg width="48" height="48" fill="none" xmlns="http://www.w3.org/2000/svg"><path d="M25.187 22.814a.938.938 0 10-1.326 1.326.938.938 0 001.326-1.326zM37.119 10.882a4.686 4.686 0 00-6.63 0 4.694 4.694 0 000 6.63 4.694 4.694 0 006.63-.001 4.685 4.685 0 000-6.63zm-1.326 5.303a2.816 2.816 0 01-3.977 0 2.811 2.811 0 113.978-3.978 2.811 2.811 0 010 3.978z" fill="#fff"/><path d="M47.725.275A.934.934 0 0047.03 0c-.212.007-5.26.21-11.259 2.33-4.807 1.698-8.815 4.128-11.91 7.224a35.678 35.678 0 00-2.015 2.194c-3.06-1.802-5.513-1.237-7.064-.408-3.57 1.911-5.78 7.099-5.78 10.81a.938.938 0 001.601.663c1.883-1.883 4.205-1.765 4.964-1.666l.328.329a32.984 32.984 0 00-1.548 4.553 2.653 2.653 0 00.113 1.628 8.88 8.88 0 00-2.531 1.785c-2.414 2.414-2.904 8.295-2.923 8.544a.937.937 0 001.008 1.009c.25-.02 6.13-.51 8.544-2.923a8.878 8.878 0 001.785-2.531 2.648 2.648 0 001.629.112 32.962 32.962 0 004.553-1.548l.328.329c.1.758.217 3.08-1.665 4.963a.937.937 0 00.663 1.6c3.71 0 8.898-2.21 10.809-5.78.83-1.55 1.394-4.003-.407-7.063.764-.646 1.5-1.32 2.193-2.015 3.096-3.096 5.526-7.103 7.223-11.91C47.79 6.23 47.992 1.183 48 .971a.938.938 0 00-.274-.696zm-36.628 19.86c.583-2.82 2.274-5.912 4.57-7.14 1.533-.821 3.21-.74 4.992.235a37.896 37.896 0 00-3.939 6.42c-.014-.008-.183-.22-.496-.29-.13-.03-2.61-.563-5.127.774zm6.134 14.612c-1.289 1.289-4.313 1.969-6.224 2.246.277-1.91.957-4.935 2.246-6.224.722-.722 1.56-1.269 2.4-1.577l3.156 3.155c-.309.841-.856 1.678-1.578 2.4zm4.274-2.909c-.271.07-.585-.032-.819-.266l-1.836-1.836-2.421-2.421c-.234-.234-.336-.549-.267-.82.3-1.169.693-2.369 1.17-3.58l7.753 7.753c-1.211.477-2.41.87-3.58 1.17zm13.5.496c-1.228 2.295-4.32 3.986-7.139 4.569.899-1.691 1.097-3.844.769-5.15-.076-.302-.274-.455-.285-.473a37.922 37.922 0 006.42-3.939c.976 1.783 1.056 3.46.236 4.993zm2.114-9.52a34.027 34.027 0 01-2.703 2.426 36.02 36.02 0 01-7.474 4.633l-8.814-8.815a36.011 36.011 0 014.632-7.473 34 34 0 012.426-2.704c2.777-2.778 6.362-4.988 10.657-6.58l7.855 7.856c-1.59 4.295-3.8 7.88-6.579 10.657zm7.254-12.634L37.82 3.627a42.15 42.15 0 018.227-1.673 42.152 42.152 0 01-1.674 8.226z" fill="#fff"/><path d="M22.535 38.724a.938.938 0 00-1.326 0l-2.651 2.652a.938.938 0 001.326 1.326l2.651-2.652a.938.938 0 000-1.326zM9.277 25.466a.938.938 0 00-1.326 0l-2.652 2.65a.937.937 0 101.325 1.327l2.652-2.651a.938.938 0 000-1.326zM15.906 40.05a.938.938 0 00-1.326 0L8.23 46.4a.937.937 0 101.325 1.326l6.35-6.35a.937.937 0 000-1.325zM8.406 40.05a.938.938 0 00-1.326 0L.73 46.4a.937.937 0 101.325 1.326l6.35-6.35a.937.937 0 000-1.325zM7.95 32.095a.938.938 0 00-1.326 0l-6.35 6.35A.938.938 0 001.6 39.771l6.35-6.35a.938.938 0 000-1.326zM29.164 18.836a.938.938 0 00-1.326 0l-1.325 1.326a.938.938 0 001.326 1.326l1.325-1.326a.938.938 0 000-1.326z" fill="#fff"/></svg>