<svg width="37" height="37" fill="none" xmlns="http://www.w3.org/2000/svg"><circle cx="18.5" cy="18.5" r="18.5" fill="#DF1818" fill-opacity=".2"/><g fill="red"><path d="M12 11.667h2A.333.333 0 0014 11h-2a.333.333 0 100 .667zM15.667 11.667h3a.333.333 0 000-.667h-3a.333.333 0 100 .667zM12 15.334h10.667a.333.333 0 000-.667H12a.333.333 0 100 .667zM12 16.667h4.667a.333.333 0 000-.667H12a.333.333 0 100 .667zM12 19.333h4.667a.333.333 0 000-.666H12a.333.333 0 100 .666zM12 22h4.667a.333.333 0 000-.667H12A.333.333 0 1012 22zM12 24.667h4.667a.333.333 0 000-.667H12a.333.333 0 100 .667z"/><path d="M29.8 17.71L26 16.069V9a1 1 0 00-1-1H12.333a1 1 0 00-1 1v.333H11a1 1 0 00-1 1V27a1 1 0 001 1h12.667c.27 0 .527-.11.715-.304l.273.194a.596.596 0 00.69 0l3.225-2.296A3.395 3.395 0 0030 22.836v-4.82a.333.333 0 00-.2-.306zM12 9c0-.184.15-.333.333-.333H25c.184 0 .333.149.333.333v6.781l-.2-.087a.334.334 0 00-.264 0l-.2.087v-2.114c0-.008-.003-.015-.004-.022a.314.314 0 00-.016-.082c-.002-.008-.002-.016-.005-.023-.003-.007-.005-.007-.007-.011a.332.332 0 00-.067-.098l-4-4a.334.334 0 00-.097-.067l-.012-.007c-.004-.001-.015-.002-.022-.005a.335.335 0 00-.083-.016c-.009.001-.015-.003-.023-.003H12V9zm8.667 1.471l2.862 2.862H21a.333.333 0 01-.333-.333v-2.529zm3 16.862H11a.333.333 0 01-.333-.333V10.333c0-.184.149-.333.333-.333h9v3a1 1 0 001 1h3v2.069l-1.073.464a.325.325 0 00.073-.2.333.333 0 00-.333-.333H18a.333.333 0 100 .667h4.616l-1.543.666H12A.333.333 0 0012 18h8.002l-.002.016v.65h-2a.333.333 0 100 .667h2V20h-8a.333.333 0 100 .667h8v.666h-2A.333.333 0 0018 22h2v.667h-8a.333.333 0 100 .666h8.042c.033.228.09.451.168.667H18a.333.333 0 100 .667h2.547c.157.245.346.469.56.666H12A.333.333 0 0012 26h10l1.816 1.293a.326.326 0 01-.15.04zm5.666-4.497a2.727 2.727 0 01-1.15 2.215L25 27.317l-3.184-2.266a2.727 2.727 0 01-1.15-2.215v-4.6l.604-.26.006-.003L25 16.363l4.333 1.872v4.601z"/><path d="M24.867 17.146l-3.334 1.44a.333.333 0 00-.2.306v3.945a2.06 2.06 0 00.87 1.67l2.604 1.854c.115.083.27.083.386 0l2.604-1.853a2.06 2.06 0 00.87-1.671v-3.945a.333.333 0 00-.2-.305l-3.334-1.44a.333.333 0 00-.266 0zM28 19.113v3.724c-.003.45-.222.87-.59 1.13L25 25.68l-2.41-1.716a1.392 1.392 0 01-.59-1.128V19.11l3-1.295 3 1.297z"/><path d="M23.2 22.067a.334.334 0 00-.4.533l1.333 1a.333.333 0 00.46-.058l2.667-3.334a.333.333 0 10-.52-.416l-2.465 3.081-1.075-.806z"/></g><defs><filter id="filter0_d" x="6" y="8" width="28" height="28" filterUnits="userSpaceOnUse" color-interpolation-filters="sRGB"><feFlood flood-opacity="0" result="BackgroundImageFix"/><feColorMatrix in="SourceAlpha" values="0 0 0 0 0 0 0 0 0 0 0 0 0 0 0 0 0 0 127 0"/><feOffset dy="4"/><feGaussianBlur stdDeviation="2"/><feColorMatrix values="0 0 0 0 0 0 0 0 0 0 0 0 0 0 0 0 0 0 0.25 0"/><feBlend in2="BackgroundImageFix" result="effect1_dropShadow"/><feBlend in="SourceGraphic" in2="effect1_dropShadow" result="shape"/></filter></defs></svg>