<svg width="107" height="107" fill="none" xmlns="http://www.w3.org/2000/svg"><circle cx="53.5" cy="53.5" r="53.5" fill="#EEF2FA"/><path d="M41.492 58.7c-.767 0-1.433-.283-2-.85s-.85-1.233-.85-2v-.7c0-.767.283-1.433.85-2s1.233-.85 2-.85h8.15c.3 0 .45-.15.45-.45v-8c0-.767.267-1.433.8-2 .566-.567 1.233-.85 2-.85h1.2c.767 0 1.416.283 1.95.85.566.567.85 1.233.85 2v8c0 .3.15.45.45.45h8.15c.766 0 1.433.283 2 .85.566.567.85 1.233.85 2v.7c0 .767-.284 1.433-.85 2-.567.567-1.234.85-2 .85h-8.15c-.3 0-.45.15-.45.45v8c0 .767-.284 1.433-.85 2-.534.567-1.184.85-1.95.85h-1.2c-.767 0-1.434-.283-2-.85a2.823 2.823 0 01-.8-2v-8c0-.3-.15-.45-.45-.45h-8.15z" fill="#FCA70C"/></svg>