<svg width="37" height="37" fill="none" xmlns="http://www.w3.org/2000/svg"><circle cx="18.5" cy="18.5" r="18.5" fill="#0BCCC9" fill-opacity=".2"/><path d="M25.071 11.929A9.935 9.935 0 0018 9a9.935 9.935 0 00-7.071 2.929A9.935 9.935 0 008 19a9.935 9.935 0 002.929 7.071A9.935 9.935 0 0018 29a9.935 9.935 0 007.071-2.929A9.935 9.935 0 0028 19a9.935 9.935 0 00-2.929-7.071zM18 27.829c-4.868 0-8.828-3.961-8.828-8.829s3.96-8.828 8.828-8.828c4.868 0 8.828 3.96 8.828 8.828 0 4.868-3.96 8.828-8.828 8.828z" fill="#39C0F8"/><path d="M22.777 15.791a.586.586 0 00-.828 0l-5.174 5.174-2.724-2.723a.586.586 0 00-.829.828l3.138 3.138a.584.584 0 00.829 0l5.588-5.588a.586.586 0 000-.829z" fill="#39C0F8"/></svg>