<svg width="107" height="107" fill="none" xmlns="http://www.w3.org/2000/svg"><circle cx="53.5" cy="53.5" r="53.5" fill="#EEF2FA"/><path class="task__fill" d="M63.167 46.702c.702.702.702 1.84 0 2.541L51.113 61.298a1.797 1.797 0 01-2.542 0l-5.738-5.739a1.796 1.796 0 112.54-2.54l4.469 4.467 10.784-10.784a1.797 1.797 0 012.541 0zM76 54c0 12.713-10.288 23-23 23-12.713 0-23-10.288-23-23 0-12.713 10.288-23 23-23 12.713 0 23 10.288 23 23zm-3.594 0c0-10.727-8.68-19.406-19.406-19.406-10.727 0-19.406 8.68-19.406 19.406 0 10.727 8.68 19.406 19.406 19.406 10.727 0 19.406-8.68 19.406-19.406z"/></svg>