<svg width="45" height="45" fill="none" xmlns="http://www.w3.org/2000/svg"><path d="M27.883 17.592a.7.7 0 00.698-.7V12.7a.7.7 0 00-.698-.699h-4.194a4.898 4.898 0 00-4.893 4.893v3.495h-2.097a.7.7 0 00-.699.699v4.194a.7.7 0 00.699.699h2.097v9.18a.7.7 0 00.699.698h4.194a.7.7 0 00.699-.699v-9.18h2.796a.7.7 0 00.69-.583l.698-4.194a.7.7 0 00-.69-.814h-3.494v-2.796h3.495zm-4.194 4.194h3.368l-.466 2.795H23.69a.7.7 0 00-.7.7v9.18h-2.795v-9.18a.7.7 0 00-.7-.7h-2.096v-2.795h2.097a.7.7 0 00.699-.7v-4.193a3.5 3.5 0 013.495-3.495h3.495v2.796h-3.495a.7.7 0 00-.7.699v4.194a.7.7 0 00.7.699z" fill="#fff"/><circle cx="22.5" cy="22.5" r="21.5" stroke="#fff" stroke-width="2"/></svg>