<svg width="70" height="70" fill="none" xmlns="http://www.w3.org/2000/svg"><circle cx="35" cy="35" r="35" fill="#7057D6" fill-opacity=".2"/><g fill="#7057D6"><path d="M36 16a.666.666 0 00-.667.667v8.861a.666.666 0 101.334 0v-8.183c9.986.352 18 8.586 18 18.655 0 10.293-8.374 18.667-18.667 18.667-10.293 0-18.667-8.374-18.667-18.667 0-4.973 1.934-9.653 5.444-13.176a.666.666 0 10-.944-.941A19.87 19.87 0 0016 36c0 11.028 8.972 20 20 20s20-8.972 20-20-8.972-20-20-20z"/><path d="M35.037 38.355a2.37 2.37 0 001.921.979c.628 0 1.232-.248 1.68-.697a2.373 2.373 0 00-.285-3.602l-8.629-6.241a.667.667 0 00-.931.931l6.244 8.63zm2.533-2.24a1.043 1.043 0 11-1.455 1.458l-3.808-5.265 5.263 3.807z"/></g></svg>