<svg width="46" height="46" fill="none" xmlns="http://www.w3.org/2000/svg"><path d="M33.167 15.702c.702.702.702 1.84 0 2.541L21.113 30.298a1.797 1.797 0 01-2.542 0l-5.738-5.739a1.796 1.796 0 112.54-2.54l4.469 4.467 10.784-10.784a1.797 1.797 0 012.541 0zM46 23c0 12.713-10.288 23-23 23C10.287 46 0 35.712 0 23 0 10.287 10.289 0 23 0c12.713 0 23 10.289 23 23zm-3.594 0c0-10.727-8.68-19.406-19.406-19.406-10.727 0-19.406 8.68-19.406 19.406 0 10.727 8.68 19.406 19.406 19.406 10.727 0 19.406-8.68 19.406-19.406z" fill="#FCA70C"/></svg>