<svg width="70" height="70" fill="none" xmlns="http://www.w3.org/2000/svg"><circle cx="35" cy="35" r="35" fill="#7057D6" fill-opacity=".2"/><path d="M53 35.334V20.666a3.337 3.337 0 00-3.333-3.334H20.333A3.337 3.337 0 0017 20.668v10c-1.103 0-2 .897-2 2v20c0 1.102.897 2 2 2h14.667c1.102 0 2-.898 2-2h5.587c.629 0 1.208-.287 1.59-.786.38-.5.505-1.134.34-1.74l-1.311-4.807h3.794v7.333c0 1.102.897 2 2 2H53c1.103 0 2-.898 2-2V37.333c0-1.102-.897-2-2-2zM32.333 52.666c0 .367-.299.666-.666.666H17a.668.668 0 01-.667-.666v-1.334h16v1.334zm0-2.667h-16V35.334h16V50zm0-16h-16v-1.333c0-.367.3-.667.667-.667h14.667c.367 0 .666.3.666.667V34zm7.564 16.492a.66.66 0 01-.113.58.661.661 0 01-.53.261h-5.587V50h6.096l.134.492zm-6.23-1.825v-3.334h4.824l.909 3.334h-5.733zm10-4.667h-10v-4h10v4zm0-6.666v1.333h-10v-6c0-1.103-.898-2-2-2H18.333v-10c0-1.103.898-2 2-2h29.334c1.102 0 2 .897 2 2v14.666h-6c-1.103 0-2 .898-2 2zm10 15.333c0 .367-.3.666-.667.666h-7.333a.668.668 0 01-.667-.666v-1.334h8.667v1.334zm0-2.667H45V40h8.667v10zm0-11.333H45v-1.334c0-.367.3-.666.667-.666H53c.367 0 .667.3.667.666v1.334z" fill="#7057D6"/><path d="M21.195 42.194l-2.667 2.666.943.943 2.667-2.667-.943-.942zM29.195 38.861l-8 8 .943.943 8-8-.943-.943zM26.528 36.863l-4 4 .943.943 4-4-.943-.943zM49.86 41.529l-3.333 3.332.943.943 3.333-3.333-.943-.942zM51.193 44.199l-3.333 3.333.943.943 3.333-3.333-.943-.943zM36.528 24.863l-4 4 .943.943 4-4-.943-.943zM42.528 23.53l-4 4 .943.942 4-4-.943-.943zM37.194 28.863l-2.666 2.666.942.943 2.667-2.667-.943-.942zM40.53 20.864l-2.673 2.673.943.943 2.673-2.673-.942-.943zM21 20h-1.333v1.333H21V20zM23.667 20h-1.334v1.333h1.334V20zM26.333 20H25v1.333h1.333V20z" fill="#7057D6"/></svg>