<svg width="37" height="37" fill="none" xmlns="http://www.w3.org/2000/svg"><circle cx="18.5" cy="18.5" r="18.5" fill="#39C0F8" fill-opacity=".2"/><path d="M18.712 23.197a.398.398 0 00-.398.398v.85a.398.398 0 10.796 0v-.85a.398.398 0 00-.398-.398z" fill="#39C0F8"/><path d="M30.759 17.494a.817.817 0 00-.582-.241h-1.022c-.013 0-.022-.014-.024-.028a8.466 8.466 0 00-5.088-6.136c-.203-.856-.63-1.74-1.475-2.403-.818-.642-1.642-.766-1.676-.77a.398.398 0 00-.455.393v2.15h-1.444a2.95 2.95 0 00-2.828-2.123c-1.368 0-2.52.936-2.85 2.201a8.447 8.447 0 00-5.124 2.705A8.447 8.447 0 006 18.925c0 4.727 2.454 8.572 3.206 9.639.232.329.613.526 1.018.526h1.694c.688 0 1.248-.56 1.248-1.248v-.55c.428.065.864.099 1.3.099h3.848v.451c0 .688.56 1.248 1.248 1.248h1.86c.585 0 1.098-.415 1.22-.986l.205-.954a8.472 8.472 0 005.755-4.854h1.575a.824.824 0 00.823-.823v-3.397a.817.817 0 00-.241-.582zM16.165 9.132a2.152 2.152 0 011.962 3.026h-3.925a2.152 2.152 0 011.963-3.025zm14.039 12.34a.027.027 0 01-.027.027h-1.276c.217-.679.35-1.393.389-2.129a.398.398 0 10-.795-.041 7.675 7.675 0 01-5.46 6.946l.555-2.596a.398.398 0 10-.778-.166l-.948 4.424a.453.453 0 01-.441.356h-1.861a.452.452 0 01-.452-.45v-1.7a.398.398 0 00-.796 0v.452h-3.848c-.437 0-.873-.038-1.3-.11v-2.89a.398.398 0 10-.797 0v4.247a.452.452 0 01-.45.451h-1.695a.443.443 0 01-.367-.188c-.718-1.018-3.06-4.688-3.06-9.18 0-1.908.704-3.736 1.984-5.149a7.653 7.653 0 014.439-2.42c.007.273.051.543.132.801h-.16a.398.398 0 000 .797h5.945a.398.398 0 000-.797h-.16c.088-.282.133-.577.133-.875v-.027h1.327v.876a.398.398 0 10.796 0v-3.3c.756.287 2.177 1.165 2.177 3.725a.398.398 0 10.796 0c0-.17-.006-.347-.02-.531a7.668 7.668 0 014.165 5.36.828.828 0 00.804.664h1.022c.003 0 .011 0 .02.008.007.008.007.016.007.019v3.397z" fill="#39C0F8"/><path d="M26.729 17.512a1.734 1.734 0 00-1.628-1.109c-.726 0-1.38.446-1.627 1.109a.398.398 0 00.746.278.935.935 0 01.881-.59c.396 0 .75.237.882.59a.398.398 0 10.746-.278zM16.563 18.621v-2.034c.78.095 1.327.456 1.327.785a.398.398 0 00.796 0c0-.814-.905-1.468-2.123-1.586v-.046a.398.398 0 10-.796 0v.046c-1.219.118-2.124.772-2.124 1.586 0 1.163 1.149 1.582 2.123 1.856v2.034c-.78-.094-1.326-.456-1.326-.785a.398.398 0 00-.797 0c0 .814.905 1.468 2.123 1.587v.045a.398.398 0 10.797 0v-.045c1.218-.119 2.123-.773 2.123-1.587 0-1.162-1.149-1.582-2.123-1.856zm-.796-.226c-.981-.308-1.327-.587-1.327-1.023 0-.329.546-.69 1.327-.785v1.808zm.796 2.868v-1.808c.98.307 1.327.587 1.327 1.022 0 .329-.546.69-1.327.786z" fill="#39C0F8"/></svg>