<svg width="41" height="39" fill="none" xmlns="http://www.w3.org/2000/svg"><g filter="url(#filter0_d)"><path d="M8.492 18.7c-.767 0-1.434-.283-2-.85-.567-.567-.85-1.233-.85-2v-.7c0-.767.283-1.433.85-2 .566-.567 1.233-.85 2-.85h8.15c.3 0 .45-.15.45-.45v-8c0-.767.267-1.433.8-2 .567-.567 1.233-.85 2-.85h1.2c.767 0 1.417.283 1.95.85.566.567.85 1.233.85 2v8c0 .3.15.45.45.45h8.15c.767 0 1.433.283 2 .85s.85 1.233.85 2v.7c0 .767-.283 1.433-.85 2s-1.233.85-2 .85h-8.15c-.3 0-.45.15-.45.45v8c0 .767-.284 1.433-.85 2-.534.567-1.184.85-1.95.85h-1.2c-.767 0-1.433-.283-2-.85a2.823 2.823 0 01-.8-2v-8c0-.3-.15-.45-.45-.45h-8.15z" fill="#FCA70C"/><path d="M6.492 17.85l.707-.707-.707.707zm0-4.7l.707.707-.707-.707zm11.4-11.3l-.707-.707-.011.01-.01.012.728.685zm5.15 0l-.728.685.01.011.01.011.708-.707zm11.45 11.3l-.707.707.707-.707zm0 4.7l-.707-.707.707.707zm-11.45 11.3l-.707-.707-.011.01-.01.012.728.685zm-5.15 0l-.728.685.01.011.01.011.708-.707zm-9.4-11.45c-.489 0-.905-.168-1.293-.557l-1.414 1.414c.744.745 1.662 1.143 2.707 1.143v-2zm-1.293-.557c-.389-.389-.557-.805-.557-1.293h-2c0 1.045.398 1.962 1.143 2.707l1.414-1.414zm-.557-1.293v-.7h-2v.7h2zm0-.7c0-.488.168-.904.557-1.293l-1.414-1.414c-.745.745-1.143 1.662-1.143 2.707h2zm.557-1.293c.389-.388.804-.557 1.293-.557v-2c-1.045 0-1.963.398-2.707 1.143l1.414 1.414zm1.293-.557h8.15v-2h-8.15v2zm8.15 0c.304 0 .716-.077 1.044-.405.33-.33.406-.74.406-1.045h-2a.57.57 0 01.18-.37.57.57 0 01.37-.18v2zm1.45-1.45v-8h-2v8h2zm0-8c0-.508.166-.93.528-1.315l-1.456-1.37a3.822 3.822 0 00-1.072 2.685h2zm.507-1.293c.389-.388.804-.557 1.293-.557V0c-1.045 0-1.963.398-2.707 1.143l1.414 1.414zM19.892 2h1.2V0h-1.2v2zm1.2 0c.486 0 .874.166 1.222.535l1.456-1.37C23.05.4 22.139 0 21.092 0v2zm1.243.557c.388.389.557.805.557 1.293h2c0-1.045-.398-1.962-1.143-2.707l-1.414 1.414zm.557 1.293v8h2v-8h-2zm0 8c0 .304.076.716.405 1.045.329.328.74.405 1.045.405v-2a.57.57 0 01.37.18.57.57 0 01.18.37h-2zm1.45 1.45h8.15v-2h-8.15v2zm8.15 0c.488 0 .904.168 1.293.557l1.414-1.414c-.745-.745-1.662-1.143-2.707-1.143v2zm1.293.557c.388.389.557.805.557 1.293h2c0-1.045-.398-1.962-1.143-2.707l-1.414 1.414zm.557 1.293v.7h2v-.7h-2zm0 .7c0 .488-.169.904-.557 1.293l1.414 1.414c.745-.745 1.143-1.662 1.143-2.707h-2zm-.557 1.293c-.389.389-.805.557-1.293.557v2c1.045 0 1.962-.398 2.707-1.143l-1.414-1.414zm-1.293.557h-8.15v2h8.15v-2zm-8.15 0c-.304 0-.716.077-1.045.405-.329.33-.405.74-.405 1.045h2a.57.57 0 01-.18.37.57.57 0 01-.37.18v-2zm-1.45 1.45v8h2v-8h-2zm0 8c0 .488-.169.904-.557 1.293l1.414 1.414c.745-.745 1.143-1.662 1.143-2.707h-2zm-.578 1.315c-.348.369-.736.535-1.222.535v2c1.047 0 1.959-.4 2.678-1.165l-1.456-1.37zM21.092 29h-1.2v2h1.2v-2zm-1.2 0c-.489 0-.904-.169-1.293-.557l-1.414 1.414c.744.745 1.662 1.143 2.707 1.143v-2zm-1.272-.535a1.824 1.824 0 01-.528-1.315h-2c0 1.026.367 1.936 1.072 2.685l1.456-1.37zm-.528-1.315v-8h-2v8h2zm0-8c0-.304-.077-.716-.406-1.045-.328-.328-.74-.405-1.044-.405v2a.57.57 0 01-.37-.18.57.57 0 01-.18-.37h2zm-1.45-1.45h-8.15v2h8.15v-2z" fill="#000"/></g><defs><filter id="filter0_d" x=".642" y="0" width="39.7" height="39" filterUnits="userSpaceOnUse" color-interpolation-filters="sRGB"><feFlood flood-opacity="0" result="BackgroundImageFix"/><feColorMatrix in="SourceAlpha" values="0 0 0 0 0 0 0 0 0 0 0 0 0 0 0 0 0 0 127 0"/><feOffset dy="4"/><feGaussianBlur stdDeviation="2"/><feColorMatrix values="0 0 0 0 0 0 0 0 0 0 0 0 0 0 0 0 0 0 0.25 0"/><feBlend in2="BackgroundImageFix" result="effect1_dropShadow"/><feBlend in="SourceGraphic" in2="effect1_dropShadow" result="shape"/></filter></defs></svg>