<svg width="70" height="70" fill="none" xmlns="http://www.w3.org/2000/svg"><circle cx="35" cy="35" r="35" fill="#7057D6" fill-opacity=".2"/><path d="M48.453 44.422l-2.237-2.277a.66.66 0 00-.858-.073l-9.747 7.18-3.452-1.623 3.03-.337a.66.66 0 00.58-.66v-2.85a.66.66 0 00-.66-.66h-3.3l-5.557-.568a.66.66 0 00-.33.053l-3.788 1.623H15v1.32h7.273c.09 0 .18-.017.264-.053l3.755-1.643 5.418.554h2.765v1.637l-2.442.304-3.544-.377a.66.66 0 00-.35 1.254l7.32 3.366a.66.66 0 00.66-.066l9.595-7.048 1.32 1.372-11.028 9.636h-2.99l-10.525-3.914a.66.66 0 00-.232-.046H15v1.32h7.147l10.52 3.92a.66.66 0 00.231.04h3.353a.66.66 0 00.435-.165L48.42 45.385a.66.66 0 00.033-.963zM50.209 32.707l-3.485-3.623a.66.66 0 00-.422-.205l-7.128-.66h-2.719l.132-1.98 2.58-.521 3.604.805a.66.66 0 00.224 0l3.505-.416-.159-1.32-3.392.364-3.63-.806a.542.542 0 00-.27 0l-3.214.66a.66.66 0 00-.535.607l-.21 3.214a.66.66 0 00.66.7h3.365l6.824.62 3.51 3.676a.66.66 0 00.476.205h4.672v-1.32H50.21zM49.06 18.967a.587.587 0 00-.25-.119l-11.22-2.64a.66.66 0 00-.54.126l-7.26 5.28.778 1.069 7.016-5.102 10.783 2.534 5.828 4.534.805-1.062-5.94-4.62z" fill="#7057D6"/><path d="M38.343 20.24a.66.66 0 00-.542 0l-3.96 1.98.595 1.175 3.696-1.841 3.022 1.234.488-1.227-3.3-1.32zM31.519 27.553l-1.162-.172c-.528-.079-.838-.284-.838-.614s.462-.66 1.083-.627h.475c.62 0 1.082.33 1.082.627v.179h1.32v-.179c0-1.122-1.056-1.98-2.402-1.98H30.6c-1.346 0-2.402.858-2.402 1.98a2.112 2.112 0 001.98 1.888l1.142.171c.528.08.838.317.838.614s-.462.627-1.082.627H30.6c-.62 0-1.082-.33-1.082-.627v-.178H28.2v.178c0 1.09 1.082 1.947 2.402 1.947h.476c1.346 0 2.402-.858 2.422-1.914a2.112 2.112 0 00-1.98-1.92z" fill="#7057D6"/><path d="M36.072 28.78a5.28 5.28 0 11-.435-2.903l1.194-.554a6.6 6.6 0 10-5.992 9.364 6.6 6.6 0 006.553-5.728l-1.32-.178z" fill="#7057D6"/><path d="M31.499 24.128h-1.32v1.32h1.32v-1.32z" fill="#7057D6"/></svg>