<svg width="44" height="34" fill="none" xmlns="http://www.w3.org/2000/svg"><path d="M10.2 0c2.8 0 5.1.9 6.9 2.7 1.8 1.733 2.7 4.033 2.7 6.9a16.44 16.44 0 01-.5 4c-.333 1.333-1.033 3.333-2.1 6L11.4 34H1.5l4.3-15.8c-1.667-.733-2.967-1.833-3.9-3.3C.967 13.433.5 11.667.5 9.6c0-2.867.9-5.167 2.7-6.9C5.067.9 7.4 0 10.2 0zm23.6 0c2.8 0 5.1.9 6.9 2.7 1.8 1.733 2.7 4.033 2.7 6.9a16.44 16.44 0 01-.5 4c-.333 1.333-1.033 3.333-2.1 6L35 34h-9.9l4.3-15.8c-1.667-.733-2.967-1.833-3.9-3.3-.933-1.467-1.4-3.233-1.4-5.3 0-2.867.9-5.167 2.7-6.9C28.667.9 31 0 33.8 0z" fill="#EEF2FA"/></svg>