<svg width="31" height="25" fill="none" xmlns="http://www.w3.org/2000/svg"><path d="M6.808.5c1.96 0 3.57.63 4.83 1.89 1.26 1.213 1.89 2.823 1.89 4.83 0 .933-.116 1.867-.35 2.8-.233.933-.723 2.333-1.47 4.2L7.648 24.3H.718l3.01-11.06c-1.166-.513-2.076-1.283-2.73-2.31-.653-1.027-.98-2.263-.98-3.71 0-2.007.63-3.617 1.89-4.83C3.215 1.13 4.848.5 6.808.5zm16.52 0c1.96 0 3.57.63 4.83 1.89 1.26 1.213 1.89 2.823 1.89 4.83 0 .933-.116 1.867-.35 2.8-.233.933-.723 2.333-1.47 4.2l-4.06 10.08h-6.93l3.01-11.06c-1.166-.513-2.076-1.283-2.73-2.31-.653-1.027-.98-2.263-.98-3.71 0-2.007.63-3.617 1.89-4.83 1.307-1.26 2.94-1.89 4.9-1.89z" fill="#EEF2FA"/></svg>