<svg width="44" height="35" fill="none" xmlns="http://www.w3.org/2000/svg"><path d="M14.4 16.7c1.667.733 2.967 1.833 3.9 3.3.933 1.467 1.4 3.2 1.4 5.2 0 2.867-.9 5.2-2.7 7-1.8 1.733-4.1 2.6-6.9 2.6-2.8 0-5.133-.9-7-2.7C1.3 30.3.4 28 .4 25.2c0-1.333.167-2.667.5-4 .333-1.333 1.067-3.333 2.2-6L8.9.8h9.9l-4.4 15.9zm23.6 0c1.667.733 2.967 1.833 3.9 3.3.933 1.467 1.4 3.2 1.4 5.2 0 2.867-.9 5.2-2.7 7-1.8 1.733-4.1 2.6-6.9 2.6-2.8 0-5.133-.9-7-2.7-1.8-1.8-2.7-4.1-2.7-6.9 0-1.333.167-2.667.5-4 .333-1.333 1.067-3.333 2.2-6L32.5.8h9.9L38 16.7z" fill="#EEF2FA"/></svg>