<svg width="31" height="24" fill="none" xmlns="http://www.w3.org/2000/svg"><path d="M10.248 11.19c1.167.513 2.077 1.283 2.73 2.31.654 1.027.98 2.24.98 3.64 0 2.007-.63 3.64-1.89 4.9-1.26 1.213-2.87 1.82-4.83 1.82s-3.593-.63-4.9-1.89c-1.26-1.26-1.89-2.87-1.89-4.83 0-.933.117-1.867.35-2.8.234-.933.747-2.333 1.54-4.2L6.398.06h6.93l-3.08 11.13zm16.52 0c1.167.513 2.077 1.283 2.73 2.31.654 1.027.98 2.24.98 3.64 0 2.007-.63 3.64-1.89 4.9-1.26 1.213-2.87 1.82-4.83 1.82s-3.593-.63-4.9-1.89c-1.26-1.26-1.89-2.87-1.89-4.83 0-.933.117-1.867.35-2.8.234-.933.747-2.333 1.54-4.2L22.918.06h6.93l-3.08 11.13z" fill="#EEF2FA"/></svg>