<svg width="70" height="70" fill="none" xmlns="http://www.w3.org/2000/svg"><circle cx="35" cy="35" r="35" fill="#7057D6" fill-opacity=".2"/><path d="M47.852 28.898v-4.157C47.852 18.819 42.535 14 36 14s-11.852 4.819-11.852 10.74V28.9c-2.52.434-4.444 2.63-4.444 5.271v14.476A5.36 5.36 0 0025.058 54h21.883a5.36 5.36 0 005.355-5.355V34.17c0-2.642-1.925-4.837-4.444-5.272zM25.63 24.741c0-5.106 4.651-9.26 10.37-9.26 5.718 0 10.37 4.154 10.37 9.26v4.074H25.63V24.74zm25.185 23.904a3.878 3.878 0 01-3.874 3.873H25.058a3.878 3.878 0 01-3.873-3.873V34.17a3.878 3.878 0 013.873-3.874h21.883a3.878 3.878 0 013.874 3.874v14.475z" fill="#7057D6"/><path d="M36 34.74a2.966 2.966 0 00-2.963 2.964v4.444A2.966 2.966 0 0036 45.111a2.966 2.966 0 002.963-2.963v-4.444A2.966 2.966 0 0036 34.74zm1.481 7.408c0 .817-.664 1.482-1.481 1.482a1.483 1.483 0 01-1.482-1.482v-4.444a1.483 1.483 0 012.963 0v4.444z" fill="#7057D6"/></svg>