<svg width="70" height="70" fill="none" xmlns="http://www.w3.org/2000/svg"><circle cx="35" cy="35" r="35" fill="#7057D6" fill-opacity=".2"/><g clip-path="url(#clip0)"><path d="M56 33.774h-1.45l-2.16 1.137a3.21 3.21 0 00-.77-.316l-2.717-.68v-.31a4.53 4.53 0 001.936-3.702v-1.127c0-2.507-1.964-4.604-4.378-4.677a4.805 4.805 0 00-.364.007l.704-1.65-3.416-3.415-2.014 1.31a10.92 10.92 0 00-2.415-1.001L38.46 17h-4.917l-.498 2.35c-.84.236-1.65.571-2.414 1.002l-2.014-1.31-3.414 3.413.693 1.65c-.027 0-.052-.005-.078-.006a4.483 4.483 0 00-3.284 1.273 4.475 4.475 0 00-1.372 3.24v1.291c0 1.477.733 2.863 1.936 3.702v.31l-1.773.443-3.214-1.874H16v13.368l6.347 2.116h1.236l.155-.54 1.945 1.167a2.009 2.009 0 001.937 1.946 2.008 2.008 0 001.936 1.936 2.009 2.009 0 001.935 1.935 2.012 2.012 0 002.007 1.943c.403 0 .798-.126 1.13-.35l.572.505c.358.315.82.49 1.298.49h.12a1.964 1.964 0 001.96-1.938 1.962 1.962 0 001.936-1.935 1.962 1.962 0 001.935-1.938 1.984 1.984 0 001.928-2.173L56 43.206v-9.432zm-6.452-4.998v1.127a3.238 3.238 0 01-1.614 2.792l-.323.186.003 2.042 3.223.805-7.095 3.734v-1.738a3.21 3.21 0 00-.924-2.248l2.214-.553V32.88l-.322-.186a3.235 3.235 0 01-1.613-2.79v-1.291c0-.88.348-1.703.98-2.316a3.182 3.182 0 012.345-.908c1.724.052 3.126 1.571 3.126 3.387zm-12.575 10.18l-2.92-.934a7.968 7.968 0 00-4.135-.188l-.37.081v-.19c0-.89.604-1.663 1.466-1.879l3.696-.923V32.88l-.322-.186a3.235 3.235 0 01-1.614-2.79v-1.291c0-.88.348-1.703.98-2.316a3.19 3.19 0 012.346-.908c1.723.052 3.126 1.571 3.126 3.387v1.127a3.238 3.238 0 01-1.615 2.792l-.323.186.003 2.042 3.695.923a1.934 1.934 0 011.466 1.879v2.417l-.16.084h-.395l-3.967-1.134a4.063 4.063 0 00-.957-.137zm-7.28-12.3A7.118 7.118 0 0136 22.806a7.13 7.13 0 016.28 3.798 4.486 4.486 0 00-.474 2.009v1.29c0 1.477.733 2.863 1.936 3.702v.31l-2.58.646-2.582-.646v-.31a4.53 4.53 0 001.936-3.702v-1.127c0-2.507-1.964-4.604-4.377-4.677a4.481 4.481 0 00-3.284 1.273 4.479 4.479 0 00-1.371 3.24v1.291c0 1.477.733 2.863 1.935 3.702v.31l-2.58.646-2.582-.646v-.31a4.53 4.53 0 001.936-3.702v-1.127c0-.76-.182-1.48-.5-2.12zm-2.967-3.902l2.061-2.061 1.814 1.18.347-.212a9.627 9.627 0 012.794-1.159l.397-.095.449-2.117h2.825l.448 2.116.396.095a9.638 9.638 0 012.794 1.16l.347.212 1.814-1.18 2.059 2.059-.732 1.713a4.51 4.51 0 00-1.362.905c-.026.026-.049.054-.075.08A8.425 8.425 0 0036 21.516a8.415 8.415 0 00-7.127 3.973 4.55 4.55 0 00-1.423-1.009l-.724-1.726zm-2.339 12.17V32.88l-.322-.186a3.235 3.235 0 01-1.613-2.79v-1.291c0-.88.347-1.703.98-2.316a3.185 3.185 0 012.345-.908c1.724.052 3.126 1.571 3.126 3.387v1.127a3.238 3.238 0 01-1.615 2.792l-.322.186.002 2.042 2.214.553a3.21 3.21 0 00-.924 2.248v.478l-2.012.448.052-.183.025-1.192-3.403-1.985 1.467-.367zm-7.097-1.15h.47l4.64 2.706-2.34 9.365-2.77-.923V33.774zm5.266 12.903l-1.27-.423 2.275-9.096 1.471.858v.184l-2.422 8.477h-.054zm4.412 1.858c0-.19.077-.377.211-.512l1.135-1.134a.724.724 0 011.023 1.023l-1.134 1.134a.724.724 0 01-1.235-.512zm1.935 1.935c0-.19.077-.377.212-.511l1.134-1.134a.724.724 0 011.023 1.023l-1.134 1.134a.724.724 0 01-1.235-.512zm1.936 1.936c0-.19.077-.377.211-.512l1.134-1.134a.724.724 0 011.023 1.023l-1.133 1.134a.724.724 0 01-1.235-.512zm2.659 2.659a.724.724 0 01-.512-1.235l1.134-1.134a.724.724 0 011.023 1.023l-1.134 1.134a.728.728 0 01-.511.212zm3.12.645h-.12a.668.668 0 01-.444-.169l-.483-.425.484-.485c.173-.173.308-.379.407-.6l.586.489a.671.671 0 01-.43 1.19zm5.785-5.807h-.111a.692.692 0 01-.444-.161l-3.499-2.916-.826.992 3.397 2.83a.673.673 0 01-.432 1.19h-.14a.673.673 0 01-.43-.156l-3.505-2.92-.827.992 3.398 2.831a.674.674 0 01-.431 1.189c-.248 0-.489-.088-.679-.245l-1.44-1.2a2.007 2.007 0 00-1.732-1.128 2.009 2.009 0 00-1.936-1.936 2.009 2.009 0 00-1.935-1.935 2.011 2.011 0 00-2.006-1.943c-.53 0-1.049.215-1.424.59l-1.134 1.134c-.068.068-.124.145-.18.22l-1.982-1.189 1.737-6.08 4.355-.968a6.646 6.646 0 013.462.156l.95.304-3.222 1.611a2.15 2.15 0 00-1.194 1.933v.128a2.164 2.164 0 003.274 1.853l2.402-1.44a1.332 1.332 0 011.547.148l5.451 4.906a.694.694 0 01-.464 1.21zm12.307-7.495l-10.87 5.435a1.766 1.766 0 00-.11-.108l-5.45-4.906a2.59 2.59 0 00-3.075-.297L32.8 43.973a.871.871 0 01-1.317-.747v-.128c0-.332.184-.63.481-.779l3.599-1.799a2.804 2.804 0 012.01-.187l4.055 1.159.982.024 12.099-6.368v7.26z" fill="#7057D6"/></g><defs><clipPath id="clip0"/></defs></svg>