<svg width="37" height="37" fill="none" xmlns="http://www.w3.org/2000/svg"><circle cx="18.5" cy="18.5" r="18.5" fill="#0BCCC9" fill-opacity=".2"/><path d="M24.623 9.813a.413.413 0 00.082-.002c.453.009.816.378.816.831a.373.373 0 00.745 0 1.58 1.58 0 00-1.24-1.54v-.359a.373.373 0 10-.745 0v.375a1.578 1.578 0 00.408 3.102.833.833 0 11-.833.833.373.373 0 10-.745 0 1.58 1.58 0 001.17 1.524v.408a.373.373 0 10.745 0v-.391a1.577 1.577 0 00-.337-3.119.832.832 0 01-.066-1.662z" fill="#39C0F8"/><path d="M24.71 6.548c-2.293 0-4.249 1.496-4.982 3.5H10.48c-.204 0-.37.184-.372.388l-.088 13.073H7.382c-.205 0-.382.149-.382.355v1.659a2.927 2.927 0 002.795 2.915v.008H21.3v-.011c.093.004.131.011.19.011h.008a2.927 2.927 0 002.923-2.927v-8.387A5.302 5.302 0 0030 11.844a5.3 5.3 0 00-5.291-5.296zM9.937 27.701h-.003a2.192 2.192 0 01-2.189-2.182v-1.265h10.807v1.26c0 .777.31 1.523.863 2.07.039.04.087.07.128.117H9.937zm13.738-2.182c0 1.203-.974 2.18-2.177 2.182h-.007a2.198 2.198 0 01-2.194-2.187v-1.65a.344.344 0 00-.356-.355h-8.177l.086-12.717h8.671a5.255 5.255 0 00.348 3.167h-3.52a.373.373 0 100 .746h3.924a5.259 5.259 0 003.402 2.334v8.48zm1.035-9.124a4.545 4.545 0 110-9.09 4.545 4.545 0 010 9.09z" fill="#39C0F8"/><path d="M13.957 16.44c-.657 0-1.192.518-1.192 1.155s.535 1.155 1.192 1.155c.658 0 1.193-.518 1.193-1.155s-.535-1.155-1.193-1.155zm0 1.565c-.247 0-.447-.184-.447-.41 0-.226.2-.41.447-.41s.448.184.448.41c0 .226-.2.41-.448.41zM15.977 17.593c0 .206.166.373.372.373h4.968a.373.373 0 000-.745H16.35a.373.373 0 00-.372.372zM13.957 13.2c-.657 0-1.192.519-1.192 1.156 0 .636.535 1.155 1.192 1.155.658 0 1.193-.518 1.193-1.155s-.535-1.155-1.193-1.155zm0 1.565c-.247 0-.447-.184-.447-.41 0-.225.2-.409.447-.409s.448.184.448.41c0 .226-.2.41-.448.41zM13.957 19.68c-.657 0-1.192.517-1.192 1.154 0 .637.535 1.155 1.192 1.155.658 0 1.193-.518 1.193-1.155s-.535-1.155-1.193-1.155zm0 1.564c-.247 0-.447-.184-.447-.41 0-.226.2-.41.447-.41s.448.184.448.41c0 .226-.2.41-.448.41zM21.317 20.481H16.35a.373.373 0 100 .745h4.968a.373.373 0 100-.745z" fill="#39C0F8"/></svg>