<svg width="37" height="37" fill="none" xmlns="http://www.w3.org/2000/svg"><circle cx="18.5" cy="18.5" r="18.5" fill="#09C911" fill-opacity=".2"/><path d="M17.965 10.541a.393.393 0 00.394-.393V8.393a.393.393 0 00-.787 0v1.755c0 .217.176.393.393.393zM27.581 21.515l-.695-.693a1.304 1.304 0 00-.927-.383c-.225 0-.44.056-.631.16l-1.31-1.308.064-.063a1.365 1.365 0 00-.685-2.299 1.372 1.372 0 00-.345-1.346 1.351 1.351 0 00-.685-.37 1.351 1.351 0 00-.345-1.347 1.357 1.357 0 00-.684-.37c.134-.463.02-.983-.345-1.348a1.365 1.365 0 00-1.11-.39l-2.595-.49c-.396-.076-.89-.126-1.202.16a.734.734 0 00-.06.06 1.368 1.368 0 00-1.435.316 1.353 1.353 0 00-.344 1.348c-.258.053-.495.18-.684.369a1.352 1.352 0 00-.346 1.347c-.258.053-.494.18-.684.37-.258.257-.4.6-.4.964 0 .28.084.546.239.771a1.365 1.365 0 00-.524 2.255l.064.064-1.31 1.307a1.315 1.315 0 00-1.488.258l-.696.694a1.302 1.302 0 00-.383.927c0 .352.136.681.383.928l.868.867a.393.393 0 10.556-.556l-.868-.867a.52.52 0 01-.152-.372.52.52 0 01.152-.37l.696-.694c.173-.174.44-.2.641-.079a.402.402 0 00.163.14l3.988 3.982a.39.39 0 00.19.191.52.52 0 01.13.347.52.52 0 01-.152.371l-.695.695a.529.529 0 01-.744 0l-.868-.868a.394.394 0 00-.556.556l.868.869c.256.255.592.382.928.382.335 0 .672-.128.928-.382l.695-.695c.247-.247.383-.576.383-.928 0-.25-.07-.49-.2-.696l1.475-1.473.005-.005c.168-.174.639-.141 1.093-.11.323.023.683.048 1.035.007l1.614 1.613c-.104.19-.16.405-.16.63 0 .35.136.68.383.927l.695.694c.248.247.577.383.928.383.351 0 .68-.136.928-.383l4.216-4.211c.248-.247.384-.577.384-.928 0-.351-.136-.68-.384-.928zm-10.44-9.475l1.707.323-1.021 1.021a2.482 2.482 0 01-.613-.444c-.325-.312-.557-.67-.579-.895a.33.33 0 01-.002-.039c.052-.013.189-.026.508.034zm-1.994.321a.58.58 0 01.734-.07c.128.535.584 1.02.79 1.217.152.146.64.582 1.133.702.067.096.103.21.103.33a.572.572 0 01-.577.576c-.155 0-.3-.06-.409-.168l-1.774-1.772a.571.571 0 01-.168-.407c0-.155.06-.3.168-.408zm-1.028 1.717a.572.572 0 01.408-.168c.155 0 .3.06.41.168l1.428 1.426a.576.576 0 01-.409.985.576.576 0 01-.41-.168l-1.083-1.084-.005-.005-.34-.338a.573.573 0 01-.168-.409.57.57 0 01.169-.407zm-1.03 1.716a.574.574 0 01.409-.168c.154 0 .298.059.406.165l1.087 1.087a.57.57 0 01.168.407.57.57 0 01-.577.576c-.155 0-.3-.06-.41-.168l-.393-.394-.69-.689a.573.573 0 01-.168-.408c0-.154.06-.3.168-.408zm-.685 2.062a.575.575 0 01.41-.169c.154 0 .3.06.409.169l.394.394a.57.57 0 01.168.407.571.571 0 01-.577.577c-.155 0-.3-.06-.41-.17l-.049-.049-.002-.002-.002-.002-.34-.34a.578.578 0 01-.001-.815zm8.017 4.471a.393.393 0 00-.556 0l-.35.35c-.333.332-.936.29-1.518.25-.633-.044-1.288-.09-1.711.345l-1.45 1.447-3.623-3.618 1.283-1.28c.211.13.456.2.712.2.366 0 .708-.142.964-.399.258-.256.4-.6.4-.965v-.01h.01c.365 0 .708-.14.964-.397.258-.257.4-.6.4-.965v-.01h.01a1.36 1.36 0 001.364-1.372h.01c.366 0 .709-.142.965-.399.257-.256.399-.599.399-.964 0-.255-.07-.5-.2-.711l1.125-1.124a.577.577 0 01.33-.162.579.579 0 01.489.162.579.579 0 010 .816l-.342.341-.003.003-.395.394a.393.393 0 10.556.556l.344-.343.052-.052a.58.58 0 01.985.41c0 .154-.06.299-.17.408l-.343.345-.395.393a.393.393 0 00.555.557l.396-.395a.573.573 0 01.409-.168.574.574 0 01.577.577c0 .154-.06.299-.169.408l-.686.686a.393.393 0 00.557.556l.336-.336.006-.006a.573.573 0 01.408-.168.578.578 0 01.409.984l-.342.342-.543.543a.394.394 0 00.556.557l.265-.266 1.273 1.271-3.624 3.62-1.298-1.297c.09-.059.177-.127.259-.208l.35-.35a.393.393 0 000-.556zm6.605.487l-4.217 4.212a.522.522 0 01-.372.152.522.522 0 01-.372-.152l-.695-.695a.52.52 0 01-.152-.37.52.52 0 01.152-.371l4.217-4.212a.522.522 0 01.372-.152c.14 0 .273.054.372.153l.695.693a.52.52 0 01.152.371.521.521 0 01-.152.371zM12.741 10.21a.392.392 0 00.557 0 .393.393 0 000-.557l-1.434-1.43a.393.393 0 10-.556.556l1.433 1.431zM22.911 10.325c.1 0 .201-.038.278-.115l1.432-1.43a.393.393 0 10-.556-.558l-1.432 1.431a.393.393 0 00.278.672z" fill="#20AA38"/><path d="M10.454 24.922a.393.393 0 00.005.557.39.39 0 00.557-.005.394.394 0 00-.562-.552zM21.383 21.76a.394.394 0 10-.177-.745l-.002.002a.392.392 0 00.18.743z" fill="#20AA38"/></svg>