<svg width="45" height="45" fill="none" xmlns="http://www.w3.org/2000/svg"><path d="M32.821 11.23a.716.716 0 00-.806-.173L9.42 20.708a.686.686 0 00-.42.614.684.684 0 00.392.63l5.395 2.589 1.344 7.87a.695.695 0 00.597.582.712.712 0 00.604-.201l4.259-4.156 6.077 4.236a.719.719 0 00.668.08.691.691 0 00.43-.504l4.22-20.628a.673.673 0 00-.166-.59zM15.345 23.28l-3.973-1.907 15.695-6.704-11.722 8.61zm2.2 2.039l-.654 3.19-.705-4.13 8.623-6.335-7.072 6.925a.691.691 0 00-.192.35zm.428 4.907l.738-3.598 1.72 1.2-2.458 2.398zm9.628.912l-8.284-5.773 11.835-11.586-3.55 17.36z" fill="#fff"/><circle cx="22.5" cy="22.5" r="21.5" stroke="#fff" stroke-width="2"/></svg>