<svg width="197" height="148" viewBox="0 0 197 148" fill="none" xmlns="http://www.w3.org/2000/svg">
<circle cx="99" cy="68" r="68" fill="#EEF2FA"/>
<path d="M41.1928 45H4.19327C1.97331 45 0 46.9832 0 49.2143V49.7101C0 51.9412 1.97331 53.9244 4.19327 53.9244H40.9461C43.1661 53.9244 45.1394 51.9412 45.1394 49.7101V49.2143C45.1394 46.9832 43.4127 45 41.1928 45Z" fill="#F8A899"/>
<path d="M192.193 77H155.193C152.973 77 151 78.9832 151 81.2143V81.7101C151 83.9412 152.973 85.9244 155.193 85.9244H191.946C194.166 85.9244 196.139 83.9412 196.139 81.7101V81.2143C196.139 78.9832 194.413 77 192.193 77Z" fill="#39C0F8"/>
<path d="M113.738 24H39.2617C37.4497 24 36 22 36 19.5C36 17 37.4497 15 39.2617 15H113.738C115.55 15 117 17 117 19.5C117 22 115.55 24 113.738 24Z" fill="#FFD943"/>
<g clip-path="url(#clip0)">
<path d="M133.041 61.0591V131.275C133.041 134.048 130.793 136.296 128.02 136.296H67.9803C65.2067 136.296 62.959 134.048 62.959 131.275V48.5741C62.959 45.8005 65.2067 43.5527 67.9803 43.5527H115.535L133.041 61.0591Z" fill="#EBEEF2"/>
<path d="M134.139 59.961L116.633 42.4546C116.342 42.1636 115.947 42 115.535 42H67.9801C64.3554 42 61.4062 44.9492 61.4062 48.5741V131.275C61.4062 134.9 64.3554 137.849 67.9801 137.849H128.02C131.645 137.849 134.594 134.9 134.594 131.275V61.0591C134.594 60.6471 134.43 60.2523 134.139 59.961ZM126.747 58.3066V121.542C126.747 122.066 126.349 122.494 125.829 122.558C122.421 122.973 119.718 125.676 119.303 129.084C119.239 129.604 118.811 130.002 118.287 130.002H77.7129C77.1891 130.002 76.7607 129.604 76.6974 129.084C76.2817 125.676 73.5793 122.973 70.1709 122.558C69.6511 122.494 69.2534 122.066 69.2534 121.542V58.3066C69.2534 57.7828 69.6511 57.3545 70.1709 57.2911C73.5793 56.8754 76.2817 54.173 76.6974 50.7647C76.7607 50.2448 77.1891 49.8471 77.7129 49.8471H118.287C118.811 49.8471 119.239 50.2448 119.303 50.7647C119.718 54.173 122.421 56.8752 125.829 57.2911C126.349 57.3545 126.747 57.7828 126.747 58.3066Z" fill="#48CFB7"/>
<path d="M134.139 59.961L122.528 48.3501V53.4226L129.067 59.961C129.358 60.2523 129.521 60.6471 129.521 61.0591V131.275C129.521 134.9 126.572 137.849 122.948 137.849H128.02C131.645 137.849 134.594 134.9 134.594 131.275V61.0591C134.594 60.6471 134.43 60.2523 134.139 59.961Z" fill="#35B5A0"/>
<path d="M134.139 59.9611L116.633 42.4547C116.188 42.0106 115.52 41.8779 114.94 42.1183C114.36 42.3585 113.982 42.9249 113.982 43.5528V56.038C113.982 59.663 116.931 62.6119 120.556 62.6119H133.041C133.669 62.6119 134.235 62.2337 134.475 61.6534C134.716 61.073 134.583 60.4052 134.139 59.9611Z" fill="#D1D6DE"/>
<path d="M110.525 65.0376H85.4749C84.6173 65.0376 83.9221 64.3426 83.9221 63.4849C83.9221 62.6271 84.6173 61.9321 85.4749 61.9321H110.525C111.383 61.9321 112.078 62.6271 112.078 63.4849C112.078 64.3426 111.383 65.0376 110.525 65.0376Z" fill="#1B3D66"/>
<path d="M117.483 81.4839H78.5168C77.6593 81.4839 76.9641 80.7889 76.9641 79.9312C76.9641 79.0734 77.6593 78.3784 78.5168 78.3784H117.483C118.341 78.3784 119.036 79.0734 119.036 79.9312C119.036 80.7889 118.341 81.4839 117.483 81.4839Z" fill="#656D88"/>
<path d="M117.483 91.4766H78.5168C77.6593 91.4766 76.9641 90.7816 76.9641 89.9238C76.9641 89.0661 77.6593 88.3711 78.5168 88.3711H117.483C118.341 88.3711 119.036 89.0661 119.036 89.9238C119.036 90.7816 118.341 91.4766 117.483 91.4766Z" fill="#656D88"/>
<path d="M117.483 101.47H78.5168C77.6593 101.47 76.9641 100.775 76.9641 99.9175C76.9641 99.0597 77.6593 98.3647 78.5168 98.3647H117.483C118.341 98.3647 119.036 99.0597 119.036 99.9175C119.036 100.775 118.341 101.47 117.483 101.47Z" fill="#656D88"/>
<path d="M117.483 111.463H78.5168C77.6593 111.463 76.9641 110.768 76.9641 109.911C76.9641 109.053 77.6593 108.358 78.5168 108.358H117.483C118.341 108.358 119.036 109.053 119.036 109.911C119.036 110.768 118.341 111.463 117.483 111.463Z" fill="#656D88"/>
<path d="M112.722 123.688V146.447C112.722 147.191 112.194 147.83 111.465 147.971C111.366 147.992 111.267 148 111.169 148C110.546 148 109.968 147.623 109.728 147.027C108.834 144.808 107.573 143.245 106.186 142.57C105.681 142.321 105.159 142.193 104.633 142.193C104.107 142.193 103.586 142.321 103.081 142.568C101.693 143.245 100.431 144.808 99.5362 147.027C99.2587 147.717 98.53 148.112 97.8012 147.971C97.0704 147.83 96.5425 147.191 96.5425 146.447V123.688C96.5425 122.831 97.2381 122.136 98.0952 122.136H111.169C112.026 122.136 112.722 122.831 112.722 123.688Z" fill="#5C9CEE"/>
<path d="M106.186 124.299V142.57C105.681 142.321 105.159 142.193 104.633 142.193C104.107 142.193 103.586 142.321 103.081 142.568V124.299C103.081 123.44 103.774 122.747 104.633 122.747C105.49 122.747 106.186 123.44 106.186 124.299Z" fill="#FFCE65"/>
<path d="M117.956 114.704L116.682 113.683C116.363 113.427 116.199 113.032 116.244 112.626L116.422 111.003C116.566 109.701 116.117 108.423 115.191 107.497C114.265 106.571 112.987 106.122 111.684 106.265L110.061 106.443C109.654 106.488 109.26 106.324 109.004 106.005L107.983 104.732C107.164 103.71 105.943 103.124 104.633 103.124C103.323 103.124 102.102 103.71 101.282 104.732L100.261 106.005C100.005 106.324 99.6099 106.487 99.2035 106.443L97.5808 106.265C96.2779 106.121 95.0006 106.571 94.0745 107.497C93.1482 108.423 92.6992 109.701 92.8427 111.003L93.0211 112.626C93.0658 113.032 92.9021 113.427 92.5831 113.683L91.3092 114.704C90.2871 115.524 89.7012 116.745 89.7012 118.055C89.7012 119.365 90.2875 120.586 91.3094 121.405L92.5831 122.427C92.9021 122.682 93.0658 123.078 93.0211 123.484L92.8427 125.107C92.6994 126.409 93.1485 127.687 94.0745 128.613C95.0008 129.54 96.2792 129.989 97.581 129.845L99.2033 129.667C99.6091 129.621 100.005 129.786 100.261 130.105L101.282 131.378C102.102 132.4 103.323 132.986 104.632 132.987C105.942 132.987 107.163 132.4 107.983 131.378L109.004 130.105C109.26 129.785 109.655 129.621 110.061 129.667L111.684 129.845C112.987 129.988 114.264 129.539 115.19 128.613C116.117 127.687 116.566 126.409 116.422 125.107L116.244 123.484C116.199 123.078 116.363 122.682 116.682 122.427L117.956 121.405C118.977 120.586 119.564 119.365 119.564 118.055C119.564 116.745 118.978 115.524 117.956 114.704Z" fill="#ED5575"/>
<path d="M117.956 114.705L116.682 113.683C116.363 113.428 116.199 113.032 116.244 112.626L116.422 111.003C116.566 109.701 116.117 108.423 115.191 107.497C114.414 106.721 113.39 106.281 112.312 106.243C112.487 106.372 112.654 106.513 112.81 106.669C113.736 107.595 114.185 108.873 114.042 110.175L113.863 111.798C113.818 112.204 113.982 112.6 114.301 112.855L115.575 113.877C116.597 114.696 117.183 115.917 117.183 117.227C117.183 118.537 116.597 119.758 115.575 120.578L114.301 121.599C113.982 121.855 113.818 122.25 113.863 122.656L114.042 124.279C114.185 125.581 113.736 126.859 112.81 127.785C111.884 128.711 110.606 129.16 109.303 129.017L107.681 128.839C107.275 128.794 106.879 128.958 106.623 129.277L105.602 130.55C104.783 131.573 103.561 132.159 102.252 132.159C102.198 132.159 102.145 132.156 102.092 132.154C102.82 132.691 103.703 132.987 104.633 132.987C105.942 132.987 107.164 132.401 107.983 131.379L109.004 130.105C109.26 129.786 109.656 129.622 110.061 129.667L111.684 129.846C112.987 129.988 114.264 129.539 115.191 128.614C116.117 127.687 116.566 126.409 116.422 125.107L116.244 123.485C116.199 123.078 116.363 122.683 116.682 122.427L117.956 121.406C118.978 120.586 119.564 119.365 119.564 118.056C119.564 116.745 118.978 115.524 117.956 114.705Z" fill="#CC3A60"/>
<path d="M104.633 124.299C108.082 124.299 110.877 121.504 110.877 118.055C110.877 114.607 108.082 111.811 104.633 111.811C101.185 111.811 98.3892 114.607 98.3892 118.055C98.3892 121.504 101.185 124.299 104.633 124.299Z" fill="#FCAB29"/>
</svg>
